%TF.GenerationSoftware,KiCad,Pcbnew,9.0.0*%
%TF.CreationDate,2025-02-25T16:03:33+01:00*%
%TF.ProjectId,2_In_6_Out,325f496e-5f36-45f4-9f75-742e6b696361,0*%
%TF.SameCoordinates,Original*%
%TF.FileFunction,Legend,Bot*%
%TF.FilePolarity,Positive*%
%FSLAX46Y46*%
G04 Gerber Fmt 4.6, Leading zero omitted, Abs format (unit mm)*
G04 Created by KiCad (PCBNEW 9.0.0) date 2025-02-25 16:03:33*
%MOMM*%
%LPD*%
G01*
G04 APERTURE LIST*
%ADD10C,0.100000*%
G04 APERTURE END LIST*
D10*
X90119280Y-52541979D02*
X90119280Y-52999122D01*
X90919280Y-52770550D02*
X90119280Y-52770550D01*
X90919280Y-53265789D02*
X90385946Y-53265789D01*
X90119280Y-53265789D02*
X90157375Y-53227693D01*
X90157375Y-53227693D02*
X90195470Y-53265789D01*
X90195470Y-53265789D02*
X90157375Y-53303884D01*
X90157375Y-53303884D02*
X90119280Y-53265789D01*
X90119280Y-53265789D02*
X90195470Y-53265789D01*
X90385946Y-53532455D02*
X90385946Y-53837217D01*
X90119280Y-53646741D02*
X90804994Y-53646741D01*
X90804994Y-53646741D02*
X90881185Y-53684836D01*
X90881185Y-53684836D02*
X90919280Y-53761026D01*
X90919280Y-53761026D02*
X90919280Y-53837217D01*
X90919280Y-54218169D02*
X90881185Y-54141979D01*
X90881185Y-54141979D02*
X90804994Y-54103884D01*
X90804994Y-54103884D02*
X90119280Y-54103884D01*
X90881185Y-54827694D02*
X90919280Y-54751503D01*
X90919280Y-54751503D02*
X90919280Y-54599122D01*
X90919280Y-54599122D02*
X90881185Y-54522932D01*
X90881185Y-54522932D02*
X90804994Y-54484836D01*
X90804994Y-54484836D02*
X90500232Y-54484836D01*
X90500232Y-54484836D02*
X90424042Y-54522932D01*
X90424042Y-54522932D02*
X90385946Y-54599122D01*
X90385946Y-54599122D02*
X90385946Y-54751503D01*
X90385946Y-54751503D02*
X90424042Y-54827694D01*
X90424042Y-54827694D02*
X90500232Y-54865789D01*
X90500232Y-54865789D02*
X90576423Y-54865789D01*
X90576423Y-54865789D02*
X90652613Y-54484836D01*
X90843089Y-55208646D02*
X90881185Y-55246741D01*
X90881185Y-55246741D02*
X90919280Y-55208646D01*
X90919280Y-55208646D02*
X90881185Y-55170550D01*
X90881185Y-55170550D02*
X90843089Y-55208646D01*
X90843089Y-55208646D02*
X90919280Y-55208646D01*
X90424042Y-55208646D02*
X90462137Y-55246741D01*
X90462137Y-55246741D02*
X90500232Y-55208646D01*
X90500232Y-55208646D02*
X90462137Y-55170550D01*
X90462137Y-55170550D02*
X90424042Y-55208646D01*
X90424042Y-55208646D02*
X90500232Y-55208646D01*
X90843089Y-56656265D02*
X90881185Y-56618169D01*
X90881185Y-56618169D02*
X90919280Y-56503884D01*
X90919280Y-56503884D02*
X90919280Y-56427693D01*
X90919280Y-56427693D02*
X90881185Y-56313407D01*
X90881185Y-56313407D02*
X90804994Y-56237217D01*
X90804994Y-56237217D02*
X90728804Y-56199122D01*
X90728804Y-56199122D02*
X90576423Y-56161026D01*
X90576423Y-56161026D02*
X90462137Y-56161026D01*
X90462137Y-56161026D02*
X90309756Y-56199122D01*
X90309756Y-56199122D02*
X90233565Y-56237217D01*
X90233565Y-56237217D02*
X90157375Y-56313407D01*
X90157375Y-56313407D02*
X90119280Y-56427693D01*
X90119280Y-56427693D02*
X90119280Y-56503884D01*
X90119280Y-56503884D02*
X90157375Y-56618169D01*
X90157375Y-56618169D02*
X90195470Y-56656265D01*
X90919280Y-57113407D02*
X90881185Y-57037217D01*
X90881185Y-57037217D02*
X90804994Y-56999122D01*
X90804994Y-56999122D02*
X90119280Y-56999122D01*
X90919280Y-57532455D02*
X90881185Y-57456265D01*
X90881185Y-57456265D02*
X90843089Y-57418170D01*
X90843089Y-57418170D02*
X90766899Y-57380074D01*
X90766899Y-57380074D02*
X90538327Y-57380074D01*
X90538327Y-57380074D02*
X90462137Y-57418170D01*
X90462137Y-57418170D02*
X90424042Y-57456265D01*
X90424042Y-57456265D02*
X90385946Y-57532455D01*
X90385946Y-57532455D02*
X90385946Y-57646741D01*
X90385946Y-57646741D02*
X90424042Y-57722932D01*
X90424042Y-57722932D02*
X90462137Y-57761027D01*
X90462137Y-57761027D02*
X90538327Y-57799122D01*
X90538327Y-57799122D02*
X90766899Y-57799122D01*
X90766899Y-57799122D02*
X90843089Y-57761027D01*
X90843089Y-57761027D02*
X90881185Y-57722932D01*
X90881185Y-57722932D02*
X90919280Y-57646741D01*
X90919280Y-57646741D02*
X90919280Y-57532455D01*
X90881185Y-58484837D02*
X90919280Y-58408646D01*
X90919280Y-58408646D02*
X90919280Y-58256265D01*
X90919280Y-58256265D02*
X90881185Y-58180075D01*
X90881185Y-58180075D02*
X90843089Y-58141980D01*
X90843089Y-58141980D02*
X90766899Y-58103884D01*
X90766899Y-58103884D02*
X90538327Y-58103884D01*
X90538327Y-58103884D02*
X90462137Y-58141980D01*
X90462137Y-58141980D02*
X90424042Y-58180075D01*
X90424042Y-58180075D02*
X90385946Y-58256265D01*
X90385946Y-58256265D02*
X90385946Y-58408646D01*
X90385946Y-58408646D02*
X90424042Y-58484837D01*
X90919280Y-58827694D02*
X90119280Y-58827694D01*
X90614518Y-58903884D02*
X90919280Y-59132456D01*
X90385946Y-59132456D02*
X90690708Y-58827694D01*
X90500232Y-60351503D02*
X90538327Y-60465789D01*
X90538327Y-60465789D02*
X90576423Y-60503884D01*
X90576423Y-60503884D02*
X90652613Y-60541980D01*
X90652613Y-60541980D02*
X90766899Y-60541980D01*
X90766899Y-60541980D02*
X90843089Y-60503884D01*
X90843089Y-60503884D02*
X90881185Y-60465789D01*
X90881185Y-60465789D02*
X90919280Y-60389599D01*
X90919280Y-60389599D02*
X90919280Y-60084837D01*
X90919280Y-60084837D02*
X90119280Y-60084837D01*
X90119280Y-60084837D02*
X90119280Y-60351503D01*
X90119280Y-60351503D02*
X90157375Y-60427694D01*
X90157375Y-60427694D02*
X90195470Y-60465789D01*
X90195470Y-60465789D02*
X90271661Y-60503884D01*
X90271661Y-60503884D02*
X90347851Y-60503884D01*
X90347851Y-60503884D02*
X90424042Y-60465789D01*
X90424042Y-60465789D02*
X90462137Y-60427694D01*
X90462137Y-60427694D02*
X90500232Y-60351503D01*
X90500232Y-60351503D02*
X90500232Y-60084837D01*
X90385946Y-61227694D02*
X90919280Y-61227694D01*
X90385946Y-60884837D02*
X90804994Y-60884837D01*
X90804994Y-60884837D02*
X90881185Y-60922932D01*
X90881185Y-60922932D02*
X90919280Y-60999122D01*
X90919280Y-60999122D02*
X90919280Y-61113408D01*
X90919280Y-61113408D02*
X90881185Y-61189599D01*
X90881185Y-61189599D02*
X90843089Y-61227694D01*
X90385946Y-61494361D02*
X90385946Y-61799123D01*
X90919280Y-61608647D02*
X90233565Y-61608647D01*
X90233565Y-61608647D02*
X90157375Y-61646742D01*
X90157375Y-61646742D02*
X90119280Y-61722932D01*
X90119280Y-61722932D02*
X90119280Y-61799123D01*
X90385946Y-61951504D02*
X90385946Y-62256266D01*
X90919280Y-62065790D02*
X90233565Y-62065790D01*
X90233565Y-62065790D02*
X90157375Y-62103885D01*
X90157375Y-62103885D02*
X90119280Y-62180075D01*
X90119280Y-62180075D02*
X90119280Y-62256266D01*
X90881185Y-62827695D02*
X90919280Y-62751504D01*
X90919280Y-62751504D02*
X90919280Y-62599123D01*
X90919280Y-62599123D02*
X90881185Y-62522933D01*
X90881185Y-62522933D02*
X90804994Y-62484837D01*
X90804994Y-62484837D02*
X90500232Y-62484837D01*
X90500232Y-62484837D02*
X90424042Y-62522933D01*
X90424042Y-62522933D02*
X90385946Y-62599123D01*
X90385946Y-62599123D02*
X90385946Y-62751504D01*
X90385946Y-62751504D02*
X90424042Y-62827695D01*
X90424042Y-62827695D02*
X90500232Y-62865790D01*
X90500232Y-62865790D02*
X90576423Y-62865790D01*
X90576423Y-62865790D02*
X90652613Y-62484837D01*
X90919280Y-63208647D02*
X90385946Y-63208647D01*
X90538327Y-63208647D02*
X90462137Y-63246742D01*
X90462137Y-63246742D02*
X90424042Y-63284837D01*
X90424042Y-63284837D02*
X90385946Y-63361028D01*
X90385946Y-63361028D02*
X90385946Y-63437218D01*
X90690708Y-64275313D02*
X90690708Y-64656266D01*
X90919280Y-64199123D02*
X90119280Y-64465790D01*
X90119280Y-64465790D02*
X90919280Y-64732456D01*
X90919280Y-65341980D02*
X90119280Y-65341980D01*
X90881185Y-65341980D02*
X90919280Y-65265789D01*
X90919280Y-65265789D02*
X90919280Y-65113408D01*
X90919280Y-65113408D02*
X90881185Y-65037218D01*
X90881185Y-65037218D02*
X90843089Y-64999123D01*
X90843089Y-64999123D02*
X90766899Y-64961027D01*
X90766899Y-64961027D02*
X90538327Y-64961027D01*
X90538327Y-64961027D02*
X90462137Y-64999123D01*
X90462137Y-64999123D02*
X90424042Y-65037218D01*
X90424042Y-65037218D02*
X90385946Y-65113408D01*
X90385946Y-65113408D02*
X90385946Y-65265789D01*
X90385946Y-65265789D02*
X90424042Y-65341980D01*
X90919280Y-66065790D02*
X90119280Y-66065790D01*
X90881185Y-66065790D02*
X90919280Y-65989599D01*
X90919280Y-65989599D02*
X90919280Y-65837218D01*
X90919280Y-65837218D02*
X90881185Y-65761028D01*
X90881185Y-65761028D02*
X90843089Y-65722933D01*
X90843089Y-65722933D02*
X90766899Y-65684837D01*
X90766899Y-65684837D02*
X90538327Y-65684837D01*
X90538327Y-65684837D02*
X90462137Y-65722933D01*
X90462137Y-65722933D02*
X90424042Y-65761028D01*
X90424042Y-65761028D02*
X90385946Y-65837218D01*
X90385946Y-65837218D02*
X90385946Y-65989599D01*
X90385946Y-65989599D02*
X90424042Y-66065790D01*
X90119280Y-66599124D02*
X90119280Y-66751505D01*
X90119280Y-66751505D02*
X90157375Y-66827695D01*
X90157375Y-66827695D02*
X90233565Y-66903886D01*
X90233565Y-66903886D02*
X90385946Y-66941981D01*
X90385946Y-66941981D02*
X90652613Y-66941981D01*
X90652613Y-66941981D02*
X90804994Y-66903886D01*
X90804994Y-66903886D02*
X90881185Y-66827695D01*
X90881185Y-66827695D02*
X90919280Y-66751505D01*
X90919280Y-66751505D02*
X90919280Y-66599124D01*
X90919280Y-66599124D02*
X90881185Y-66522933D01*
X90881185Y-66522933D02*
X90804994Y-66446743D01*
X90804994Y-66446743D02*
X90652613Y-66408647D01*
X90652613Y-66408647D02*
X90385946Y-66408647D01*
X90385946Y-66408647D02*
X90233565Y-66446743D01*
X90233565Y-66446743D02*
X90157375Y-66522933D01*
X90157375Y-66522933D02*
X90119280Y-66599124D01*
X90385946Y-67284838D02*
X90919280Y-67284838D01*
X90462137Y-67284838D02*
X90424042Y-67322933D01*
X90424042Y-67322933D02*
X90385946Y-67399123D01*
X90385946Y-67399123D02*
X90385946Y-67513409D01*
X90385946Y-67513409D02*
X90424042Y-67589600D01*
X90424042Y-67589600D02*
X90500232Y-67627695D01*
X90500232Y-67627695D02*
X90919280Y-67627695D01*
X92207235Y-52656265D02*
X91407235Y-52656265D01*
X91407235Y-52656265D02*
X91407235Y-52846741D01*
X91407235Y-52846741D02*
X91445330Y-52961027D01*
X91445330Y-52961027D02*
X91521520Y-53037217D01*
X91521520Y-53037217D02*
X91597711Y-53075312D01*
X91597711Y-53075312D02*
X91750092Y-53113408D01*
X91750092Y-53113408D02*
X91864378Y-53113408D01*
X91864378Y-53113408D02*
X92016759Y-53075312D01*
X92016759Y-53075312D02*
X92092949Y-53037217D01*
X92092949Y-53037217D02*
X92169140Y-52961027D01*
X92169140Y-52961027D02*
X92207235Y-52846741D01*
X92207235Y-52846741D02*
X92207235Y-52656265D01*
X92207235Y-53799122D02*
X91788187Y-53799122D01*
X91788187Y-53799122D02*
X91711997Y-53761027D01*
X91711997Y-53761027D02*
X91673901Y-53684836D01*
X91673901Y-53684836D02*
X91673901Y-53532455D01*
X91673901Y-53532455D02*
X91711997Y-53456265D01*
X92169140Y-53799122D02*
X92207235Y-53722931D01*
X92207235Y-53722931D02*
X92207235Y-53532455D01*
X92207235Y-53532455D02*
X92169140Y-53456265D01*
X92169140Y-53456265D02*
X92092949Y-53418169D01*
X92092949Y-53418169D02*
X92016759Y-53418169D01*
X92016759Y-53418169D02*
X91940568Y-53456265D01*
X91940568Y-53456265D02*
X91902473Y-53532455D01*
X91902473Y-53532455D02*
X91902473Y-53722931D01*
X91902473Y-53722931D02*
X91864378Y-53799122D01*
X91673901Y-54065789D02*
X91673901Y-54370551D01*
X91407235Y-54180075D02*
X92092949Y-54180075D01*
X92092949Y-54180075D02*
X92169140Y-54218170D01*
X92169140Y-54218170D02*
X92207235Y-54294360D01*
X92207235Y-54294360D02*
X92207235Y-54370551D01*
X92169140Y-54941980D02*
X92207235Y-54865789D01*
X92207235Y-54865789D02*
X92207235Y-54713408D01*
X92207235Y-54713408D02*
X92169140Y-54637218D01*
X92169140Y-54637218D02*
X92092949Y-54599122D01*
X92092949Y-54599122D02*
X91788187Y-54599122D01*
X91788187Y-54599122D02*
X91711997Y-54637218D01*
X91711997Y-54637218D02*
X91673901Y-54713408D01*
X91673901Y-54713408D02*
X91673901Y-54865789D01*
X91673901Y-54865789D02*
X91711997Y-54941980D01*
X91711997Y-54941980D02*
X91788187Y-54980075D01*
X91788187Y-54980075D02*
X91864378Y-54980075D01*
X91864378Y-54980075D02*
X91940568Y-54599122D01*
X91369140Y-55894360D02*
X92397711Y-55208646D01*
X92207235Y-56161027D02*
X91673901Y-56161027D01*
X91826282Y-56161027D02*
X91750092Y-56199122D01*
X91750092Y-56199122D02*
X91711997Y-56237217D01*
X91711997Y-56237217D02*
X91673901Y-56313408D01*
X91673901Y-56313408D02*
X91673901Y-56389598D01*
X92169140Y-56961027D02*
X92207235Y-56884836D01*
X92207235Y-56884836D02*
X92207235Y-56732455D01*
X92207235Y-56732455D02*
X92169140Y-56656265D01*
X92169140Y-56656265D02*
X92092949Y-56618169D01*
X92092949Y-56618169D02*
X91788187Y-56618169D01*
X91788187Y-56618169D02*
X91711997Y-56656265D01*
X91711997Y-56656265D02*
X91673901Y-56732455D01*
X91673901Y-56732455D02*
X91673901Y-56884836D01*
X91673901Y-56884836D02*
X91711997Y-56961027D01*
X91711997Y-56961027D02*
X91788187Y-56999122D01*
X91788187Y-56999122D02*
X91864378Y-56999122D01*
X91864378Y-56999122D02*
X91940568Y-56618169D01*
X91673901Y-57265788D02*
X92207235Y-57456264D01*
X92207235Y-57456264D02*
X91673901Y-57646741D01*
X92131044Y-57951503D02*
X92169140Y-57989598D01*
X92169140Y-57989598D02*
X92207235Y-57951503D01*
X92207235Y-57951503D02*
X92169140Y-57913407D01*
X92169140Y-57913407D02*
X92131044Y-57951503D01*
X92131044Y-57951503D02*
X92207235Y-57951503D01*
X91711997Y-57951503D02*
X91750092Y-57989598D01*
X91750092Y-57989598D02*
X91788187Y-57951503D01*
X91788187Y-57951503D02*
X91750092Y-57913407D01*
X91750092Y-57913407D02*
X91711997Y-57951503D01*
X91711997Y-57951503D02*
X91788187Y-57951503D01*
X92207235Y-59361026D02*
X92207235Y-58903883D01*
X92207235Y-59132455D02*
X91407235Y-59132455D01*
X91407235Y-59132455D02*
X91521520Y-59056264D01*
X91521520Y-59056264D02*
X91597711Y-58980074D01*
X91597711Y-58980074D02*
X91635806Y-58903883D01*
X91483425Y-59665788D02*
X91445330Y-59703884D01*
X91445330Y-59703884D02*
X91407235Y-59780074D01*
X91407235Y-59780074D02*
X91407235Y-59970550D01*
X91407235Y-59970550D02*
X91445330Y-60046741D01*
X91445330Y-60046741D02*
X91483425Y-60084836D01*
X91483425Y-60084836D02*
X91559616Y-60122931D01*
X91559616Y-60122931D02*
X91635806Y-60122931D01*
X91635806Y-60122931D02*
X91750092Y-60084836D01*
X91750092Y-60084836D02*
X92207235Y-59627693D01*
X92207235Y-59627693D02*
X92207235Y-60122931D01*
X92131044Y-60465789D02*
X92169140Y-60503884D01*
X92169140Y-60503884D02*
X92207235Y-60465789D01*
X92207235Y-60465789D02*
X92169140Y-60427693D01*
X92169140Y-60427693D02*
X92131044Y-60465789D01*
X92131044Y-60465789D02*
X92207235Y-60465789D01*
X91407235Y-60999122D02*
X91407235Y-61075312D01*
X91407235Y-61075312D02*
X91445330Y-61151503D01*
X91445330Y-61151503D02*
X91483425Y-61189598D01*
X91483425Y-61189598D02*
X91559616Y-61227693D01*
X91559616Y-61227693D02*
X91711997Y-61265788D01*
X91711997Y-61265788D02*
X91902473Y-61265788D01*
X91902473Y-61265788D02*
X92054854Y-61227693D01*
X92054854Y-61227693D02*
X92131044Y-61189598D01*
X92131044Y-61189598D02*
X92169140Y-61151503D01*
X92169140Y-61151503D02*
X92207235Y-61075312D01*
X92207235Y-61075312D02*
X92207235Y-60999122D01*
X92207235Y-60999122D02*
X92169140Y-60922931D01*
X92169140Y-60922931D02*
X92131044Y-60884836D01*
X92131044Y-60884836D02*
X92054854Y-60846741D01*
X92054854Y-60846741D02*
X91902473Y-60808645D01*
X91902473Y-60808645D02*
X91711997Y-60808645D01*
X91711997Y-60808645D02*
X91559616Y-60846741D01*
X91559616Y-60846741D02*
X91483425Y-60884836D01*
X91483425Y-60884836D02*
X91445330Y-60922931D01*
X91445330Y-60922931D02*
X91407235Y-60999122D01*
X91483425Y-61570550D02*
X91445330Y-61608646D01*
X91445330Y-61608646D02*
X91407235Y-61684836D01*
X91407235Y-61684836D02*
X91407235Y-61875312D01*
X91407235Y-61875312D02*
X91445330Y-61951503D01*
X91445330Y-61951503D02*
X91483425Y-61989598D01*
X91483425Y-61989598D02*
X91559616Y-62027693D01*
X91559616Y-62027693D02*
X91635806Y-62027693D01*
X91635806Y-62027693D02*
X91750092Y-61989598D01*
X91750092Y-61989598D02*
X92207235Y-61532455D01*
X92207235Y-61532455D02*
X92207235Y-62027693D01*
X92131044Y-62370551D02*
X92169140Y-62408646D01*
X92169140Y-62408646D02*
X92207235Y-62370551D01*
X92207235Y-62370551D02*
X92169140Y-62332455D01*
X92169140Y-62332455D02*
X92131044Y-62370551D01*
X92131044Y-62370551D02*
X92207235Y-62370551D01*
X91483425Y-62713407D02*
X91445330Y-62751503D01*
X91445330Y-62751503D02*
X91407235Y-62827693D01*
X91407235Y-62827693D02*
X91407235Y-63018169D01*
X91407235Y-63018169D02*
X91445330Y-63094360D01*
X91445330Y-63094360D02*
X91483425Y-63132455D01*
X91483425Y-63132455D02*
X91559616Y-63170550D01*
X91559616Y-63170550D02*
X91635806Y-63170550D01*
X91635806Y-63170550D02*
X91750092Y-63132455D01*
X91750092Y-63132455D02*
X92207235Y-62675312D01*
X92207235Y-62675312D02*
X92207235Y-63170550D01*
X91407235Y-63665789D02*
X91407235Y-63741979D01*
X91407235Y-63741979D02*
X91445330Y-63818170D01*
X91445330Y-63818170D02*
X91483425Y-63856265D01*
X91483425Y-63856265D02*
X91559616Y-63894360D01*
X91559616Y-63894360D02*
X91711997Y-63932455D01*
X91711997Y-63932455D02*
X91902473Y-63932455D01*
X91902473Y-63932455D02*
X92054854Y-63894360D01*
X92054854Y-63894360D02*
X92131044Y-63856265D01*
X92131044Y-63856265D02*
X92169140Y-63818170D01*
X92169140Y-63818170D02*
X92207235Y-63741979D01*
X92207235Y-63741979D02*
X92207235Y-63665789D01*
X92207235Y-63665789D02*
X92169140Y-63589598D01*
X92169140Y-63589598D02*
X92131044Y-63551503D01*
X92131044Y-63551503D02*
X92054854Y-63513408D01*
X92054854Y-63513408D02*
X91902473Y-63475312D01*
X91902473Y-63475312D02*
X91711997Y-63475312D01*
X91711997Y-63475312D02*
X91559616Y-63513408D01*
X91559616Y-63513408D02*
X91483425Y-63551503D01*
X91483425Y-63551503D02*
X91445330Y-63589598D01*
X91445330Y-63589598D02*
X91407235Y-63665789D01*
X91483425Y-64237217D02*
X91445330Y-64275313D01*
X91445330Y-64275313D02*
X91407235Y-64351503D01*
X91407235Y-64351503D02*
X91407235Y-64541979D01*
X91407235Y-64541979D02*
X91445330Y-64618170D01*
X91445330Y-64618170D02*
X91483425Y-64656265D01*
X91483425Y-64656265D02*
X91559616Y-64694360D01*
X91559616Y-64694360D02*
X91635806Y-64694360D01*
X91635806Y-64694360D02*
X91750092Y-64656265D01*
X91750092Y-64656265D02*
X92207235Y-64199122D01*
X92207235Y-64199122D02*
X92207235Y-64694360D01*
X91407235Y-65418170D02*
X91407235Y-65037218D01*
X91407235Y-65037218D02*
X91788187Y-64999122D01*
X91788187Y-64999122D02*
X91750092Y-65037218D01*
X91750092Y-65037218D02*
X91711997Y-65113408D01*
X91711997Y-65113408D02*
X91711997Y-65303884D01*
X91711997Y-65303884D02*
X91750092Y-65380075D01*
X91750092Y-65380075D02*
X91788187Y-65418170D01*
X91788187Y-65418170D02*
X91864378Y-65456265D01*
X91864378Y-65456265D02*
X92054854Y-65456265D01*
X92054854Y-65456265D02*
X92131044Y-65418170D01*
X92131044Y-65418170D02*
X92169140Y-65380075D01*
X92169140Y-65380075D02*
X92207235Y-65303884D01*
X92207235Y-65303884D02*
X92207235Y-65113408D01*
X92207235Y-65113408D02*
X92169140Y-65037218D01*
X92169140Y-65037218D02*
X92131044Y-64999122D01*
X92207235Y-66865790D02*
X91826282Y-66599123D01*
X92207235Y-66408647D02*
X91407235Y-66408647D01*
X91407235Y-66408647D02*
X91407235Y-66713409D01*
X91407235Y-66713409D02*
X91445330Y-66789599D01*
X91445330Y-66789599D02*
X91483425Y-66827694D01*
X91483425Y-66827694D02*
X91559616Y-66865790D01*
X91559616Y-66865790D02*
X91673901Y-66865790D01*
X91673901Y-66865790D02*
X91750092Y-66827694D01*
X91750092Y-66827694D02*
X91788187Y-66789599D01*
X91788187Y-66789599D02*
X91826282Y-66713409D01*
X91826282Y-66713409D02*
X91826282Y-66408647D01*
X91788187Y-67208647D02*
X91788187Y-67475313D01*
X92207235Y-67589599D02*
X92207235Y-67208647D01*
X92207235Y-67208647D02*
X91407235Y-67208647D01*
X91407235Y-67208647D02*
X91407235Y-67589599D01*
X91407235Y-67818171D02*
X92207235Y-68084838D01*
X92207235Y-68084838D02*
X91407235Y-68351504D01*
X92283425Y-68427695D02*
X92283425Y-69037218D01*
X91407235Y-69380076D02*
X91407235Y-69456266D01*
X91407235Y-69456266D02*
X91445330Y-69532457D01*
X91445330Y-69532457D02*
X91483425Y-69570552D01*
X91483425Y-69570552D02*
X91559616Y-69608647D01*
X91559616Y-69608647D02*
X91711997Y-69646742D01*
X91711997Y-69646742D02*
X91902473Y-69646742D01*
X91902473Y-69646742D02*
X92054854Y-69608647D01*
X92054854Y-69608647D02*
X92131044Y-69570552D01*
X92131044Y-69570552D02*
X92169140Y-69532457D01*
X92169140Y-69532457D02*
X92207235Y-69456266D01*
X92207235Y-69456266D02*
X92207235Y-69380076D01*
X92207235Y-69380076D02*
X92169140Y-69303885D01*
X92169140Y-69303885D02*
X92131044Y-69265790D01*
X92131044Y-69265790D02*
X92054854Y-69227695D01*
X92054854Y-69227695D02*
X91902473Y-69189599D01*
X91902473Y-69189599D02*
X91711997Y-69189599D01*
X91711997Y-69189599D02*
X91559616Y-69227695D01*
X91559616Y-69227695D02*
X91483425Y-69265790D01*
X91483425Y-69265790D02*
X91445330Y-69303885D01*
X91445330Y-69303885D02*
X91407235Y-69380076D01*
X93266618Y-52618169D02*
X93266618Y-52999122D01*
X93495190Y-52541979D02*
X92695190Y-52808646D01*
X92695190Y-52808646D02*
X93495190Y-53075312D01*
X92961856Y-53684836D02*
X93495190Y-53684836D01*
X92961856Y-53341979D02*
X93380904Y-53341979D01*
X93380904Y-53341979D02*
X93457095Y-53380074D01*
X93457095Y-53380074D02*
X93495190Y-53456264D01*
X93495190Y-53456264D02*
X93495190Y-53570550D01*
X93495190Y-53570550D02*
X93457095Y-53646741D01*
X93457095Y-53646741D02*
X93418999Y-53684836D01*
X92961856Y-53951503D02*
X92961856Y-54256265D01*
X92695190Y-54065789D02*
X93380904Y-54065789D01*
X93380904Y-54065789D02*
X93457095Y-54103884D01*
X93457095Y-54103884D02*
X93495190Y-54180074D01*
X93495190Y-54180074D02*
X93495190Y-54256265D01*
X93495190Y-54522932D02*
X92695190Y-54522932D01*
X93495190Y-54865789D02*
X93076142Y-54865789D01*
X93076142Y-54865789D02*
X92999952Y-54827694D01*
X92999952Y-54827694D02*
X92961856Y-54751503D01*
X92961856Y-54751503D02*
X92961856Y-54637217D01*
X92961856Y-54637217D02*
X92999952Y-54561027D01*
X92999952Y-54561027D02*
X93038047Y-54522932D01*
X93495190Y-55361027D02*
X93457095Y-55284837D01*
X93457095Y-55284837D02*
X93418999Y-55246742D01*
X93418999Y-55246742D02*
X93342809Y-55208646D01*
X93342809Y-55208646D02*
X93114237Y-55208646D01*
X93114237Y-55208646D02*
X93038047Y-55246742D01*
X93038047Y-55246742D02*
X92999952Y-55284837D01*
X92999952Y-55284837D02*
X92961856Y-55361027D01*
X92961856Y-55361027D02*
X92961856Y-55475313D01*
X92961856Y-55475313D02*
X92999952Y-55551504D01*
X92999952Y-55551504D02*
X93038047Y-55589599D01*
X93038047Y-55589599D02*
X93114237Y-55627694D01*
X93114237Y-55627694D02*
X93342809Y-55627694D01*
X93342809Y-55627694D02*
X93418999Y-55589599D01*
X93418999Y-55589599D02*
X93457095Y-55551504D01*
X93457095Y-55551504D02*
X93495190Y-55475313D01*
X93495190Y-55475313D02*
X93495190Y-55361027D01*
X93495190Y-55970552D02*
X92961856Y-55970552D01*
X93114237Y-55970552D02*
X93038047Y-56008647D01*
X93038047Y-56008647D02*
X92999952Y-56046742D01*
X92999952Y-56046742D02*
X92961856Y-56122933D01*
X92961856Y-56122933D02*
X92961856Y-56199123D01*
X93418999Y-56465790D02*
X93457095Y-56503885D01*
X93457095Y-56503885D02*
X93495190Y-56465790D01*
X93495190Y-56465790D02*
X93457095Y-56427694D01*
X93457095Y-56427694D02*
X93418999Y-56465790D01*
X93418999Y-56465790D02*
X93495190Y-56465790D01*
X92999952Y-56465790D02*
X93038047Y-56503885D01*
X93038047Y-56503885D02*
X93076142Y-56465790D01*
X93076142Y-56465790D02*
X93038047Y-56427694D01*
X93038047Y-56427694D02*
X92999952Y-56465790D01*
X92999952Y-56465790D02*
X93076142Y-56465790D01*
X93495190Y-57456266D02*
X92695190Y-57456266D01*
X92695190Y-57456266D02*
X92695190Y-57646742D01*
X92695190Y-57646742D02*
X92733285Y-57761028D01*
X92733285Y-57761028D02*
X92809475Y-57837218D01*
X92809475Y-57837218D02*
X92885666Y-57875313D01*
X92885666Y-57875313D02*
X93038047Y-57913409D01*
X93038047Y-57913409D02*
X93152333Y-57913409D01*
X93152333Y-57913409D02*
X93304714Y-57875313D01*
X93304714Y-57875313D02*
X93380904Y-57837218D01*
X93380904Y-57837218D02*
X93457095Y-57761028D01*
X93457095Y-57761028D02*
X93495190Y-57646742D01*
X93495190Y-57646742D02*
X93495190Y-57456266D01*
X93495190Y-58256266D02*
X92961856Y-58256266D01*
X93114237Y-58256266D02*
X93038047Y-58294361D01*
X93038047Y-58294361D02*
X92999952Y-58332456D01*
X92999952Y-58332456D02*
X92961856Y-58408647D01*
X92961856Y-58408647D02*
X92961856Y-58484837D01*
X93418999Y-58751504D02*
X93457095Y-58789599D01*
X93457095Y-58789599D02*
X93495190Y-58751504D01*
X93495190Y-58751504D02*
X93457095Y-58713408D01*
X93457095Y-58713408D02*
X93418999Y-58751504D01*
X93418999Y-58751504D02*
X93495190Y-58751504D01*
X93266618Y-59703884D02*
X93266618Y-60084837D01*
X93495190Y-59627694D02*
X92695190Y-59894361D01*
X92695190Y-59894361D02*
X93495190Y-60161027D01*
X93495190Y-60541979D02*
X93457095Y-60465789D01*
X93457095Y-60465789D02*
X93380904Y-60427694D01*
X93380904Y-60427694D02*
X92695190Y-60427694D01*
X93457095Y-61151504D02*
X93495190Y-61075313D01*
X93495190Y-61075313D02*
X93495190Y-60922932D01*
X93495190Y-60922932D02*
X93457095Y-60846742D01*
X93457095Y-60846742D02*
X93380904Y-60808646D01*
X93380904Y-60808646D02*
X93076142Y-60808646D01*
X93076142Y-60808646D02*
X92999952Y-60846742D01*
X92999952Y-60846742D02*
X92961856Y-60922932D01*
X92961856Y-60922932D02*
X92961856Y-61075313D01*
X92961856Y-61075313D02*
X92999952Y-61151504D01*
X92999952Y-61151504D02*
X93076142Y-61189599D01*
X93076142Y-61189599D02*
X93152333Y-61189599D01*
X93152333Y-61189599D02*
X93228523Y-60808646D01*
X93495190Y-61456265D02*
X92961856Y-61875313D01*
X92961856Y-61456265D02*
X93495190Y-61875313D01*
X93495190Y-62522932D02*
X93076142Y-62522932D01*
X93076142Y-62522932D02*
X92999952Y-62484837D01*
X92999952Y-62484837D02*
X92961856Y-62408646D01*
X92961856Y-62408646D02*
X92961856Y-62256265D01*
X92961856Y-62256265D02*
X92999952Y-62180075D01*
X93457095Y-62522932D02*
X93495190Y-62446741D01*
X93495190Y-62446741D02*
X93495190Y-62256265D01*
X93495190Y-62256265D02*
X93457095Y-62180075D01*
X93457095Y-62180075D02*
X93380904Y-62141979D01*
X93380904Y-62141979D02*
X93304714Y-62141979D01*
X93304714Y-62141979D02*
X93228523Y-62180075D01*
X93228523Y-62180075D02*
X93190428Y-62256265D01*
X93190428Y-62256265D02*
X93190428Y-62446741D01*
X93190428Y-62446741D02*
X93152333Y-62522932D01*
X92961856Y-62903885D02*
X93495190Y-62903885D01*
X93038047Y-62903885D02*
X92999952Y-62941980D01*
X92999952Y-62941980D02*
X92961856Y-63018170D01*
X92961856Y-63018170D02*
X92961856Y-63132456D01*
X92961856Y-63132456D02*
X92999952Y-63208647D01*
X92999952Y-63208647D02*
X93076142Y-63246742D01*
X93076142Y-63246742D02*
X93495190Y-63246742D01*
X93495190Y-63970552D02*
X92695190Y-63970552D01*
X93457095Y-63970552D02*
X93495190Y-63894361D01*
X93495190Y-63894361D02*
X93495190Y-63741980D01*
X93495190Y-63741980D02*
X93457095Y-63665790D01*
X93457095Y-63665790D02*
X93418999Y-63627695D01*
X93418999Y-63627695D02*
X93342809Y-63589599D01*
X93342809Y-63589599D02*
X93114237Y-63589599D01*
X93114237Y-63589599D02*
X93038047Y-63627695D01*
X93038047Y-63627695D02*
X92999952Y-63665790D01*
X92999952Y-63665790D02*
X92961856Y-63741980D01*
X92961856Y-63741980D02*
X92961856Y-63894361D01*
X92961856Y-63894361D02*
X92999952Y-63970552D01*
X93495190Y-64351505D02*
X92961856Y-64351505D01*
X93114237Y-64351505D02*
X93038047Y-64389600D01*
X93038047Y-64389600D02*
X92999952Y-64427695D01*
X92999952Y-64427695D02*
X92961856Y-64503886D01*
X92961856Y-64503886D02*
X92961856Y-64580076D01*
X92961856Y-65189600D02*
X93495190Y-65189600D01*
X92961856Y-64846743D02*
X93380904Y-64846743D01*
X93380904Y-64846743D02*
X93457095Y-64884838D01*
X93457095Y-64884838D02*
X93495190Y-64961028D01*
X93495190Y-64961028D02*
X93495190Y-65075314D01*
X93495190Y-65075314D02*
X93457095Y-65151505D01*
X93457095Y-65151505D02*
X93418999Y-65189600D01*
X93076142Y-66180077D02*
X93076142Y-66446743D01*
X93495190Y-66561029D02*
X93495190Y-66180077D01*
X93495190Y-66180077D02*
X92695190Y-66180077D01*
X92695190Y-66180077D02*
X92695190Y-66561029D01*
X92961856Y-66903887D02*
X93495190Y-66903887D01*
X93038047Y-66903887D02*
X92999952Y-66941982D01*
X92999952Y-66941982D02*
X92961856Y-67018172D01*
X92961856Y-67018172D02*
X92961856Y-67132458D01*
X92961856Y-67132458D02*
X92999952Y-67208649D01*
X92999952Y-67208649D02*
X93076142Y-67246744D01*
X93076142Y-67246744D02*
X93495190Y-67246744D01*
X93457095Y-67970554D02*
X93495190Y-67894363D01*
X93495190Y-67894363D02*
X93495190Y-67741982D01*
X93495190Y-67741982D02*
X93457095Y-67665792D01*
X93457095Y-67665792D02*
X93418999Y-67627697D01*
X93418999Y-67627697D02*
X93342809Y-67589601D01*
X93342809Y-67589601D02*
X93114237Y-67589601D01*
X93114237Y-67589601D02*
X93038047Y-67627697D01*
X93038047Y-67627697D02*
X92999952Y-67665792D01*
X92999952Y-67665792D02*
X92961856Y-67741982D01*
X92961856Y-67741982D02*
X92961856Y-67894363D01*
X92961856Y-67894363D02*
X92999952Y-67970554D01*
X93495190Y-68313411D02*
X92961856Y-68313411D01*
X92695190Y-68313411D02*
X92733285Y-68275315D01*
X92733285Y-68275315D02*
X92771380Y-68313411D01*
X92771380Y-68313411D02*
X92733285Y-68351506D01*
X92733285Y-68351506D02*
X92695190Y-68313411D01*
X92695190Y-68313411D02*
X92771380Y-68313411D01*
X92961856Y-69037220D02*
X93495190Y-69037220D01*
X92961856Y-68694363D02*
X93380904Y-68694363D01*
X93380904Y-68694363D02*
X93457095Y-68732458D01*
X93457095Y-68732458D02*
X93495190Y-68808648D01*
X93495190Y-68808648D02*
X93495190Y-68922934D01*
X93495190Y-68922934D02*
X93457095Y-68999125D01*
X93457095Y-68999125D02*
X93418999Y-69037220D01*
X94783145Y-52656265D02*
X93983145Y-52656265D01*
X94249811Y-53037217D02*
X94783145Y-53037217D01*
X94326002Y-53037217D02*
X94287907Y-53075312D01*
X94287907Y-53075312D02*
X94249811Y-53151502D01*
X94249811Y-53151502D02*
X94249811Y-53265788D01*
X94249811Y-53265788D02*
X94287907Y-53341979D01*
X94287907Y-53341979D02*
X94364097Y-53380074D01*
X94364097Y-53380074D02*
X94783145Y-53380074D01*
X94745050Y-53722931D02*
X94783145Y-53799122D01*
X94783145Y-53799122D02*
X94783145Y-53951503D01*
X94783145Y-53951503D02*
X94745050Y-54027693D01*
X94745050Y-54027693D02*
X94668859Y-54065789D01*
X94668859Y-54065789D02*
X94630764Y-54065789D01*
X94630764Y-54065789D02*
X94554573Y-54027693D01*
X94554573Y-54027693D02*
X94516478Y-53951503D01*
X94516478Y-53951503D02*
X94516478Y-53837217D01*
X94516478Y-53837217D02*
X94478383Y-53761027D01*
X94478383Y-53761027D02*
X94402192Y-53722931D01*
X94402192Y-53722931D02*
X94364097Y-53722931D01*
X94364097Y-53722931D02*
X94287907Y-53761027D01*
X94287907Y-53761027D02*
X94249811Y-53837217D01*
X94249811Y-53837217D02*
X94249811Y-53951503D01*
X94249811Y-53951503D02*
X94287907Y-54027693D01*
X94249811Y-54294360D02*
X94249811Y-54599122D01*
X93983145Y-54408646D02*
X94668859Y-54408646D01*
X94668859Y-54408646D02*
X94745050Y-54446741D01*
X94745050Y-54446741D02*
X94783145Y-54522931D01*
X94783145Y-54522931D02*
X94783145Y-54599122D01*
X94783145Y-54865789D02*
X94249811Y-54865789D01*
X93983145Y-54865789D02*
X94021240Y-54827693D01*
X94021240Y-54827693D02*
X94059335Y-54865789D01*
X94059335Y-54865789D02*
X94021240Y-54903884D01*
X94021240Y-54903884D02*
X93983145Y-54865789D01*
X93983145Y-54865789D02*
X94059335Y-54865789D01*
X94249811Y-55132455D02*
X94249811Y-55437217D01*
X93983145Y-55246741D02*
X94668859Y-55246741D01*
X94668859Y-55246741D02*
X94745050Y-55284836D01*
X94745050Y-55284836D02*
X94783145Y-55361026D01*
X94783145Y-55361026D02*
X94783145Y-55437217D01*
X94249811Y-56046741D02*
X94783145Y-56046741D01*
X94249811Y-55703884D02*
X94668859Y-55703884D01*
X94668859Y-55703884D02*
X94745050Y-55741979D01*
X94745050Y-55741979D02*
X94783145Y-55818169D01*
X94783145Y-55818169D02*
X94783145Y-55932455D01*
X94783145Y-55932455D02*
X94745050Y-56008646D01*
X94745050Y-56008646D02*
X94706954Y-56046741D01*
X94249811Y-56313408D02*
X94249811Y-56618170D01*
X93983145Y-56427694D02*
X94668859Y-56427694D01*
X94668859Y-56427694D02*
X94745050Y-56465789D01*
X94745050Y-56465789D02*
X94783145Y-56541979D01*
X94783145Y-56541979D02*
X94783145Y-56618170D01*
X94783145Y-56884837D02*
X94249811Y-56884837D01*
X93983145Y-56884837D02*
X94021240Y-56846741D01*
X94021240Y-56846741D02*
X94059335Y-56884837D01*
X94059335Y-56884837D02*
X94021240Y-56922932D01*
X94021240Y-56922932D02*
X93983145Y-56884837D01*
X93983145Y-56884837D02*
X94059335Y-56884837D01*
X94783145Y-57380074D02*
X94745050Y-57303884D01*
X94745050Y-57303884D02*
X94706954Y-57265789D01*
X94706954Y-57265789D02*
X94630764Y-57227693D01*
X94630764Y-57227693D02*
X94402192Y-57227693D01*
X94402192Y-57227693D02*
X94326002Y-57265789D01*
X94326002Y-57265789D02*
X94287907Y-57303884D01*
X94287907Y-57303884D02*
X94249811Y-57380074D01*
X94249811Y-57380074D02*
X94249811Y-57494360D01*
X94249811Y-57494360D02*
X94287907Y-57570551D01*
X94287907Y-57570551D02*
X94326002Y-57608646D01*
X94326002Y-57608646D02*
X94402192Y-57646741D01*
X94402192Y-57646741D02*
X94630764Y-57646741D01*
X94630764Y-57646741D02*
X94706954Y-57608646D01*
X94706954Y-57608646D02*
X94745050Y-57570551D01*
X94745050Y-57570551D02*
X94783145Y-57494360D01*
X94783145Y-57494360D02*
X94783145Y-57380074D01*
X94249811Y-57989599D02*
X94783145Y-57989599D01*
X94326002Y-57989599D02*
X94287907Y-58027694D01*
X94287907Y-58027694D02*
X94249811Y-58103884D01*
X94249811Y-58103884D02*
X94249811Y-58218170D01*
X94249811Y-58218170D02*
X94287907Y-58294361D01*
X94287907Y-58294361D02*
X94364097Y-58332456D01*
X94364097Y-58332456D02*
X94783145Y-58332456D01*
X94706954Y-58713409D02*
X94745050Y-58751504D01*
X94745050Y-58751504D02*
X94783145Y-58713409D01*
X94783145Y-58713409D02*
X94745050Y-58675313D01*
X94745050Y-58675313D02*
X94706954Y-58713409D01*
X94706954Y-58713409D02*
X94783145Y-58713409D01*
X94287907Y-58713409D02*
X94326002Y-58751504D01*
X94326002Y-58751504D02*
X94364097Y-58713409D01*
X94364097Y-58713409D02*
X94326002Y-58675313D01*
X94326002Y-58675313D02*
X94287907Y-58713409D01*
X94287907Y-58713409D02*
X94364097Y-58713409D01*
X93983145Y-59589599D02*
X93983145Y-60046742D01*
X94783145Y-59818170D02*
X93983145Y-59818170D01*
X93983145Y-60313409D02*
X94630764Y-60313409D01*
X94630764Y-60313409D02*
X94706954Y-60351504D01*
X94706954Y-60351504D02*
X94745050Y-60389599D01*
X94745050Y-60389599D02*
X94783145Y-60465790D01*
X94783145Y-60465790D02*
X94783145Y-60618171D01*
X94783145Y-60618171D02*
X94745050Y-60694361D01*
X94745050Y-60694361D02*
X94706954Y-60732456D01*
X94706954Y-60732456D02*
X94630764Y-60770552D01*
X94630764Y-60770552D02*
X93983145Y-60770552D01*
X94783145Y-61761028D02*
X93983145Y-61761028D01*
X93983145Y-61761028D02*
X93983145Y-61951504D01*
X93983145Y-61951504D02*
X94021240Y-62065790D01*
X94021240Y-62065790D02*
X94097430Y-62141980D01*
X94097430Y-62141980D02*
X94173621Y-62180075D01*
X94173621Y-62180075D02*
X94326002Y-62218171D01*
X94326002Y-62218171D02*
X94440288Y-62218171D01*
X94440288Y-62218171D02*
X94592669Y-62180075D01*
X94592669Y-62180075D02*
X94668859Y-62141980D01*
X94668859Y-62141980D02*
X94745050Y-62065790D01*
X94745050Y-62065790D02*
X94783145Y-61951504D01*
X94783145Y-61951504D02*
X94783145Y-61761028D01*
X94783145Y-62903885D02*
X94364097Y-62903885D01*
X94364097Y-62903885D02*
X94287907Y-62865790D01*
X94287907Y-62865790D02*
X94249811Y-62789599D01*
X94249811Y-62789599D02*
X94249811Y-62637218D01*
X94249811Y-62637218D02*
X94287907Y-62561028D01*
X94745050Y-62903885D02*
X94783145Y-62827694D01*
X94783145Y-62827694D02*
X94783145Y-62637218D01*
X94783145Y-62637218D02*
X94745050Y-62561028D01*
X94745050Y-62561028D02*
X94668859Y-62522932D01*
X94668859Y-62522932D02*
X94592669Y-62522932D01*
X94592669Y-62522932D02*
X94516478Y-62561028D01*
X94516478Y-62561028D02*
X94478383Y-62637218D01*
X94478383Y-62637218D02*
X94478383Y-62827694D01*
X94478383Y-62827694D02*
X94440288Y-62903885D01*
X94783145Y-63284838D02*
X94249811Y-63284838D01*
X94402192Y-63284838D02*
X94326002Y-63322933D01*
X94326002Y-63322933D02*
X94287907Y-63361028D01*
X94287907Y-63361028D02*
X94249811Y-63437219D01*
X94249811Y-63437219D02*
X94249811Y-63513409D01*
X94783145Y-63780076D02*
X94249811Y-63780076D01*
X94326002Y-63780076D02*
X94287907Y-63818171D01*
X94287907Y-63818171D02*
X94249811Y-63894361D01*
X94249811Y-63894361D02*
X94249811Y-64008647D01*
X94249811Y-64008647D02*
X94287907Y-64084838D01*
X94287907Y-64084838D02*
X94364097Y-64122933D01*
X94364097Y-64122933D02*
X94783145Y-64122933D01*
X94364097Y-64122933D02*
X94287907Y-64161028D01*
X94287907Y-64161028D02*
X94249811Y-64237219D01*
X94249811Y-64237219D02*
X94249811Y-64351504D01*
X94249811Y-64351504D02*
X94287907Y-64427695D01*
X94287907Y-64427695D02*
X94364097Y-64465790D01*
X94364097Y-64465790D02*
X94783145Y-64465790D01*
X94745050Y-64808647D02*
X94783145Y-64884838D01*
X94783145Y-64884838D02*
X94783145Y-65037219D01*
X94783145Y-65037219D02*
X94745050Y-65113409D01*
X94745050Y-65113409D02*
X94668859Y-65151505D01*
X94668859Y-65151505D02*
X94630764Y-65151505D01*
X94630764Y-65151505D02*
X94554573Y-65113409D01*
X94554573Y-65113409D02*
X94516478Y-65037219D01*
X94516478Y-65037219D02*
X94516478Y-64922933D01*
X94516478Y-64922933D02*
X94478383Y-64846743D01*
X94478383Y-64846743D02*
X94402192Y-64808647D01*
X94402192Y-64808647D02*
X94364097Y-64808647D01*
X94364097Y-64808647D02*
X94287907Y-64846743D01*
X94287907Y-64846743D02*
X94249811Y-64922933D01*
X94249811Y-64922933D02*
X94249811Y-65037219D01*
X94249811Y-65037219D02*
X94287907Y-65113409D01*
X94249811Y-65380076D02*
X94249811Y-65684838D01*
X93983145Y-65494362D02*
X94668859Y-65494362D01*
X94668859Y-65494362D02*
X94745050Y-65532457D01*
X94745050Y-65532457D02*
X94783145Y-65608647D01*
X94783145Y-65608647D02*
X94783145Y-65684838D01*
X94783145Y-66294362D02*
X94364097Y-66294362D01*
X94364097Y-66294362D02*
X94287907Y-66256267D01*
X94287907Y-66256267D02*
X94249811Y-66180076D01*
X94249811Y-66180076D02*
X94249811Y-66027695D01*
X94249811Y-66027695D02*
X94287907Y-65951505D01*
X94745050Y-66294362D02*
X94783145Y-66218171D01*
X94783145Y-66218171D02*
X94783145Y-66027695D01*
X94783145Y-66027695D02*
X94745050Y-65951505D01*
X94745050Y-65951505D02*
X94668859Y-65913409D01*
X94668859Y-65913409D02*
X94592669Y-65913409D01*
X94592669Y-65913409D02*
X94516478Y-65951505D01*
X94516478Y-65951505D02*
X94478383Y-66027695D01*
X94478383Y-66027695D02*
X94478383Y-66218171D01*
X94478383Y-66218171D02*
X94440288Y-66294362D01*
X94783145Y-67018172D02*
X93983145Y-67018172D01*
X94745050Y-67018172D02*
X94783145Y-66941981D01*
X94783145Y-66941981D02*
X94783145Y-66789600D01*
X94783145Y-66789600D02*
X94745050Y-66713410D01*
X94745050Y-66713410D02*
X94706954Y-66675315D01*
X94706954Y-66675315D02*
X94630764Y-66637219D01*
X94630764Y-66637219D02*
X94402192Y-66637219D01*
X94402192Y-66637219D02*
X94326002Y-66675315D01*
X94326002Y-66675315D02*
X94287907Y-66713410D01*
X94287907Y-66713410D02*
X94249811Y-66789600D01*
X94249811Y-66789600D02*
X94249811Y-66941981D01*
X94249811Y-66941981D02*
X94287907Y-67018172D01*
X94249811Y-67284839D02*
X94249811Y-67589601D01*
X93983145Y-67399125D02*
X94668859Y-67399125D01*
X94668859Y-67399125D02*
X94745050Y-67437220D01*
X94745050Y-67437220D02*
X94783145Y-67513410D01*
X94783145Y-67513410D02*
X94783145Y-67589601D01*
M02*
