%TF.GenerationSoftware,KiCad,Pcbnew,9.0.0*%
%TF.CreationDate,2025-02-25T16:03:33+01:00*%
%TF.ProjectId,2_In_6_Out,325f496e-5f36-45f4-9f75-742e6b696361,0*%
%TF.SameCoordinates,Original*%
%TF.FileFunction,Legend,Top*%
%TF.FilePolarity,Positive*%
%FSLAX46Y46*%
G04 Gerber Fmt 4.6, Leading zero omitted, Abs format (unit mm)*
G04 Created by KiCad (PCBNEW 9.0.0) date 2025-02-25 16:03:33*
%MOMM*%
%LPD*%
G01*
G04 APERTURE LIST*
%ADD10C,0.100000*%
%ADD11C,0.150000*%
%ADD12C,0.187500*%
%ADD13C,0.120000*%
%ADD14C,0.200000*%
G04 APERTURE END LIST*
D10*
X95046250Y-69630000D02*
X92656250Y-69630000D01*
X95046250Y-70610000D02*
X95046250Y-69630000D01*
D11*
G36*
X107557540Y-60108175D02*
G01*
X105635172Y-60108175D01*
X105635172Y-59128414D01*
X105718505Y-59128414D01*
X105718505Y-59878414D01*
X105719946Y-59893046D01*
X105731145Y-59920082D01*
X105751837Y-59940774D01*
X105778873Y-59951973D01*
X105808137Y-59951973D01*
X105835173Y-59940774D01*
X105855865Y-59920082D01*
X105867064Y-59893046D01*
X105868505Y-59878414D01*
X105868505Y-59466481D01*
X105975541Y-59695844D01*
X105978714Y-59701201D01*
X105979375Y-59703017D01*
X105980551Y-59704301D01*
X105983035Y-59708494D01*
X105991440Y-59716192D01*
X105999139Y-59724598D01*
X106002158Y-59726006D01*
X106004616Y-59728258D01*
X106015325Y-59732152D01*
X106025657Y-59736974D01*
X106028988Y-59737120D01*
X106032117Y-59738258D01*
X106043500Y-59737757D01*
X106054893Y-59738258D01*
X106058024Y-59737119D01*
X106061353Y-59736973D01*
X106071679Y-59732154D01*
X106082394Y-59728258D01*
X106084852Y-59726006D01*
X106087871Y-59724598D01*
X106095566Y-59716194D01*
X106103975Y-59708494D01*
X106106460Y-59704298D01*
X106107635Y-59703016D01*
X106108294Y-59701203D01*
X106111469Y-59695844D01*
X106218505Y-59466481D01*
X106218505Y-59878414D01*
X106219946Y-59893046D01*
X106231145Y-59920082D01*
X106251837Y-59940774D01*
X106278873Y-59951973D01*
X106308137Y-59951973D01*
X106335173Y-59940774D01*
X106340737Y-59935210D01*
X106398518Y-59935210D01*
X106398518Y-59964474D01*
X106409717Y-59991510D01*
X106430409Y-60012202D01*
X106457445Y-60023401D01*
X106472077Y-60024842D01*
X107043505Y-60024842D01*
X107058137Y-60023401D01*
X107085173Y-60012202D01*
X107105865Y-59991510D01*
X107117064Y-59964474D01*
X107117064Y-59935210D01*
X107105865Y-59908174D01*
X107085173Y-59887482D01*
X107058137Y-59876283D01*
X107043505Y-59874842D01*
X106472077Y-59874842D01*
X106457445Y-59876283D01*
X106430409Y-59887482D01*
X106409717Y-59908174D01*
X106398518Y-59935210D01*
X106340737Y-59935210D01*
X106355865Y-59920082D01*
X106367064Y-59893046D01*
X106368505Y-59878414D01*
X106368505Y-59363782D01*
X107041375Y-59363782D01*
X107041375Y-59393046D01*
X107052574Y-59420082D01*
X107073266Y-59440774D01*
X107100302Y-59451973D01*
X107114934Y-59453414D01*
X107147077Y-59453414D01*
X107147077Y-59771271D01*
X107148518Y-59785903D01*
X107149549Y-59788392D01*
X107149740Y-59791080D01*
X107154995Y-59804812D01*
X107190709Y-59876241D01*
X107192249Y-59878688D01*
X107192634Y-59879842D01*
X107193879Y-59881278D01*
X107198541Y-59888684D01*
X107205645Y-59894845D01*
X107211807Y-59901950D01*
X107219212Y-59906611D01*
X107220649Y-59907857D01*
X107221802Y-59908241D01*
X107224250Y-59909782D01*
X107295680Y-59945496D01*
X107309411Y-59950751D01*
X107312098Y-59950941D01*
X107314588Y-59951973D01*
X107329220Y-59953414D01*
X107400648Y-59953414D01*
X107415280Y-59951973D01*
X107442316Y-59940774D01*
X107463008Y-59920082D01*
X107474207Y-59893046D01*
X107474207Y-59863782D01*
X107463008Y-59836746D01*
X107442316Y-59816054D01*
X107415280Y-59804855D01*
X107400648Y-59803414D01*
X107346925Y-59803414D01*
X107313692Y-59786798D01*
X107297077Y-59753566D01*
X107297077Y-59453414D01*
X107400648Y-59453414D01*
X107415280Y-59451973D01*
X107442316Y-59440774D01*
X107463008Y-59420082D01*
X107474207Y-59393046D01*
X107474207Y-59363782D01*
X107463008Y-59336746D01*
X107442316Y-59316054D01*
X107415280Y-59304855D01*
X107400648Y-59303414D01*
X107297077Y-59303414D01*
X107297077Y-59128414D01*
X107295636Y-59113782D01*
X107284437Y-59086746D01*
X107263745Y-59066054D01*
X107236709Y-59054855D01*
X107207445Y-59054855D01*
X107180409Y-59066054D01*
X107159717Y-59086746D01*
X107148518Y-59113782D01*
X107147077Y-59128414D01*
X107147077Y-59303414D01*
X107114934Y-59303414D01*
X107100302Y-59304855D01*
X107073266Y-59316054D01*
X107052574Y-59336746D01*
X107041375Y-59363782D01*
X106368505Y-59363782D01*
X106368505Y-59128414D01*
X106367557Y-59118792D01*
X106367635Y-59117027D01*
X106367290Y-59116078D01*
X106367064Y-59113782D01*
X106362079Y-59101747D01*
X106357635Y-59089526D01*
X106356505Y-59088292D01*
X106355865Y-59086746D01*
X106346655Y-59077536D01*
X106337871Y-59067944D01*
X106336356Y-59067237D01*
X106335173Y-59066054D01*
X106323141Y-59061070D01*
X106311353Y-59055569D01*
X106309683Y-59055495D01*
X106308137Y-59054855D01*
X106295108Y-59054855D01*
X106282117Y-59054284D01*
X106280547Y-59054855D01*
X106278873Y-59054855D01*
X106266846Y-59059836D01*
X106254616Y-59064284D01*
X106253382Y-59065413D01*
X106251837Y-59066054D01*
X106242631Y-59075259D01*
X106233035Y-59084048D01*
X106231860Y-59086030D01*
X106231145Y-59086746D01*
X106230466Y-59088382D01*
X106225541Y-59096698D01*
X106043505Y-59486774D01*
X105861469Y-59096698D01*
X105856543Y-59088382D01*
X105855865Y-59086746D01*
X105855149Y-59086030D01*
X105853975Y-59084048D01*
X105844378Y-59075259D01*
X105835173Y-59066054D01*
X105833627Y-59065413D01*
X105832394Y-59064284D01*
X105820163Y-59059836D01*
X105808137Y-59054855D01*
X105806463Y-59054855D01*
X105804893Y-59054284D01*
X105791892Y-59054855D01*
X105778873Y-59054855D01*
X105777328Y-59055494D01*
X105775657Y-59055568D01*
X105763858Y-59061074D01*
X105751837Y-59066054D01*
X105750654Y-59067236D01*
X105749139Y-59067944D01*
X105740350Y-59077540D01*
X105731145Y-59086746D01*
X105730504Y-59088291D01*
X105729375Y-59089525D01*
X105724927Y-59101755D01*
X105719946Y-59113782D01*
X105719719Y-59116077D01*
X105719375Y-59117026D01*
X105719452Y-59118792D01*
X105718505Y-59128414D01*
X105635172Y-59128414D01*
X105635172Y-58970951D01*
X107557540Y-58970951D01*
X107557540Y-60108175D01*
G37*
G36*
X107557540Y-55028175D02*
G01*
X105635172Y-55028175D01*
X105635172Y-54048414D01*
X105718505Y-54048414D01*
X105718505Y-54798414D01*
X105719946Y-54813046D01*
X105731145Y-54840082D01*
X105751837Y-54860774D01*
X105778873Y-54871973D01*
X105808137Y-54871973D01*
X105835173Y-54860774D01*
X105855865Y-54840082D01*
X105867064Y-54813046D01*
X105868505Y-54798414D01*
X105868505Y-54386481D01*
X105975541Y-54615844D01*
X105978714Y-54621201D01*
X105979375Y-54623017D01*
X105980551Y-54624301D01*
X105983035Y-54628494D01*
X105991440Y-54636192D01*
X105999139Y-54644598D01*
X106002158Y-54646006D01*
X106004616Y-54648258D01*
X106015325Y-54652152D01*
X106025657Y-54656974D01*
X106028988Y-54657120D01*
X106032117Y-54658258D01*
X106043500Y-54657757D01*
X106054893Y-54658258D01*
X106058024Y-54657119D01*
X106061353Y-54656973D01*
X106071679Y-54652154D01*
X106082394Y-54648258D01*
X106084852Y-54646006D01*
X106087871Y-54644598D01*
X106095566Y-54636194D01*
X106103975Y-54628494D01*
X106106460Y-54624298D01*
X106107635Y-54623016D01*
X106108294Y-54621203D01*
X106111469Y-54615844D01*
X106218505Y-54386481D01*
X106218505Y-54798414D01*
X106219946Y-54813046D01*
X106231145Y-54840082D01*
X106251837Y-54860774D01*
X106278873Y-54871973D01*
X106308137Y-54871973D01*
X106335173Y-54860774D01*
X106340737Y-54855210D01*
X106398518Y-54855210D01*
X106398518Y-54884474D01*
X106409717Y-54911510D01*
X106430409Y-54932202D01*
X106457445Y-54943401D01*
X106472077Y-54944842D01*
X107043505Y-54944842D01*
X107058137Y-54943401D01*
X107085173Y-54932202D01*
X107105865Y-54911510D01*
X107117064Y-54884474D01*
X107117064Y-54855210D01*
X107105865Y-54828174D01*
X107085173Y-54807482D01*
X107058137Y-54796283D01*
X107043505Y-54794842D01*
X106472077Y-54794842D01*
X106457445Y-54796283D01*
X106430409Y-54807482D01*
X106409717Y-54828174D01*
X106398518Y-54855210D01*
X106340737Y-54855210D01*
X106355865Y-54840082D01*
X106367064Y-54813046D01*
X106368505Y-54798414D01*
X106368505Y-54283782D01*
X107041375Y-54283782D01*
X107041375Y-54313046D01*
X107052574Y-54340082D01*
X107073266Y-54360774D01*
X107100302Y-54371973D01*
X107114934Y-54373414D01*
X107147077Y-54373414D01*
X107147077Y-54691271D01*
X107148518Y-54705903D01*
X107149549Y-54708392D01*
X107149740Y-54711080D01*
X107154995Y-54724812D01*
X107190709Y-54796241D01*
X107192249Y-54798688D01*
X107192634Y-54799842D01*
X107193879Y-54801278D01*
X107198541Y-54808684D01*
X107205645Y-54814845D01*
X107211807Y-54821950D01*
X107219212Y-54826611D01*
X107220649Y-54827857D01*
X107221802Y-54828241D01*
X107224250Y-54829782D01*
X107295680Y-54865496D01*
X107309411Y-54870751D01*
X107312098Y-54870941D01*
X107314588Y-54871973D01*
X107329220Y-54873414D01*
X107400648Y-54873414D01*
X107415280Y-54871973D01*
X107442316Y-54860774D01*
X107463008Y-54840082D01*
X107474207Y-54813046D01*
X107474207Y-54783782D01*
X107463008Y-54756746D01*
X107442316Y-54736054D01*
X107415280Y-54724855D01*
X107400648Y-54723414D01*
X107346925Y-54723414D01*
X107313692Y-54706798D01*
X107297077Y-54673566D01*
X107297077Y-54373414D01*
X107400648Y-54373414D01*
X107415280Y-54371973D01*
X107442316Y-54360774D01*
X107463008Y-54340082D01*
X107474207Y-54313046D01*
X107474207Y-54283782D01*
X107463008Y-54256746D01*
X107442316Y-54236054D01*
X107415280Y-54224855D01*
X107400648Y-54223414D01*
X107297077Y-54223414D01*
X107297077Y-54048414D01*
X107295636Y-54033782D01*
X107284437Y-54006746D01*
X107263745Y-53986054D01*
X107236709Y-53974855D01*
X107207445Y-53974855D01*
X107180409Y-53986054D01*
X107159717Y-54006746D01*
X107148518Y-54033782D01*
X107147077Y-54048414D01*
X107147077Y-54223414D01*
X107114934Y-54223414D01*
X107100302Y-54224855D01*
X107073266Y-54236054D01*
X107052574Y-54256746D01*
X107041375Y-54283782D01*
X106368505Y-54283782D01*
X106368505Y-54048414D01*
X106367557Y-54038792D01*
X106367635Y-54037027D01*
X106367290Y-54036078D01*
X106367064Y-54033782D01*
X106362079Y-54021747D01*
X106357635Y-54009526D01*
X106356505Y-54008292D01*
X106355865Y-54006746D01*
X106346655Y-53997536D01*
X106337871Y-53987944D01*
X106336356Y-53987237D01*
X106335173Y-53986054D01*
X106323141Y-53981070D01*
X106311353Y-53975569D01*
X106309683Y-53975495D01*
X106308137Y-53974855D01*
X106295108Y-53974855D01*
X106282117Y-53974284D01*
X106280547Y-53974855D01*
X106278873Y-53974855D01*
X106266846Y-53979836D01*
X106254616Y-53984284D01*
X106253382Y-53985413D01*
X106251837Y-53986054D01*
X106242631Y-53995259D01*
X106233035Y-54004048D01*
X106231860Y-54006030D01*
X106231145Y-54006746D01*
X106230466Y-54008382D01*
X106225541Y-54016698D01*
X106043505Y-54406774D01*
X105861469Y-54016698D01*
X105856543Y-54008382D01*
X105855865Y-54006746D01*
X105855149Y-54006030D01*
X105853975Y-54004048D01*
X105844378Y-53995259D01*
X105835173Y-53986054D01*
X105833627Y-53985413D01*
X105832394Y-53984284D01*
X105820163Y-53979836D01*
X105808137Y-53974855D01*
X105806463Y-53974855D01*
X105804893Y-53974284D01*
X105791892Y-53974855D01*
X105778873Y-53974855D01*
X105777328Y-53975494D01*
X105775657Y-53975568D01*
X105763858Y-53981074D01*
X105751837Y-53986054D01*
X105750654Y-53987236D01*
X105749139Y-53987944D01*
X105740350Y-53997540D01*
X105731145Y-54006746D01*
X105730504Y-54008291D01*
X105729375Y-54009525D01*
X105724927Y-54021755D01*
X105719946Y-54033782D01*
X105719719Y-54036077D01*
X105719375Y-54037026D01*
X105719452Y-54038792D01*
X105718505Y-54048414D01*
X105635172Y-54048414D01*
X105635172Y-53890951D01*
X107557540Y-53890951D01*
X107557540Y-55028175D01*
G37*
G36*
X104251935Y-61655767D02*
G01*
X104270438Y-61674269D01*
X104292791Y-61718975D01*
X104292791Y-61897852D01*
X104270438Y-61942558D01*
X104251935Y-61961061D01*
X104207229Y-61983414D01*
X104135496Y-61983414D01*
X104090789Y-61961061D01*
X104072287Y-61942558D01*
X104049934Y-61897852D01*
X104049934Y-61718975D01*
X104072286Y-61674269D01*
X104090788Y-61655767D01*
X104135496Y-61633414D01*
X104207229Y-61633414D01*
X104251935Y-61655767D01*
G37*
G36*
X105168981Y-62288175D02*
G01*
X101495172Y-62288175D01*
X101495172Y-61308414D01*
X101578505Y-61308414D01*
X101578505Y-62058414D01*
X101579946Y-62073046D01*
X101591145Y-62100082D01*
X101611837Y-62120774D01*
X101638873Y-62131973D01*
X101668137Y-62131973D01*
X101695173Y-62120774D01*
X101715865Y-62100082D01*
X101727064Y-62073046D01*
X101728505Y-62058414D01*
X101728505Y-61740557D01*
X102007076Y-61740557D01*
X102007076Y-62058414D01*
X102008517Y-62073046D01*
X102019716Y-62100082D01*
X102040408Y-62120774D01*
X102067444Y-62131973D01*
X102096708Y-62131973D01*
X102123744Y-62120774D01*
X102129308Y-62115210D01*
X102187089Y-62115210D01*
X102187089Y-62144474D01*
X102198288Y-62171510D01*
X102218980Y-62192202D01*
X102246016Y-62203401D01*
X102260648Y-62204842D01*
X102832076Y-62204842D01*
X102846708Y-62203401D01*
X102873744Y-62192202D01*
X102894436Y-62171510D01*
X102905635Y-62144474D01*
X102905635Y-62115210D01*
X102894436Y-62088174D01*
X102873744Y-62067482D01*
X102846708Y-62056283D01*
X102832076Y-62054842D01*
X102260648Y-62054842D01*
X102246016Y-62056283D01*
X102218980Y-62067482D01*
X102198288Y-62088174D01*
X102187089Y-62115210D01*
X102129308Y-62115210D01*
X102144436Y-62100082D01*
X102155635Y-62073046D01*
X102157076Y-62058414D01*
X102157076Y-61543782D01*
X102829946Y-61543782D01*
X102829946Y-61573046D01*
X102841145Y-61600082D01*
X102861837Y-61620774D01*
X102888873Y-61631973D01*
X102903505Y-61633414D01*
X102935648Y-61633414D01*
X102935648Y-61951271D01*
X102937089Y-61965903D01*
X102938120Y-61968392D01*
X102938311Y-61971080D01*
X102943566Y-61984812D01*
X102979280Y-62056241D01*
X102980820Y-62058688D01*
X102981205Y-62059842D01*
X102982450Y-62061278D01*
X102987112Y-62068684D01*
X102994216Y-62074845D01*
X103000378Y-62081950D01*
X103007783Y-62086611D01*
X103009220Y-62087857D01*
X103010373Y-62088241D01*
X103012821Y-62089782D01*
X103084251Y-62125496D01*
X103097982Y-62130751D01*
X103100669Y-62130941D01*
X103103159Y-62131973D01*
X103117791Y-62133414D01*
X103187089Y-62133414D01*
X103187089Y-62144474D01*
X103198288Y-62171510D01*
X103218980Y-62192202D01*
X103246016Y-62203401D01*
X103260648Y-62204842D01*
X103832076Y-62204842D01*
X103846708Y-62203401D01*
X103873744Y-62192202D01*
X103894436Y-62171510D01*
X103905635Y-62144474D01*
X103905635Y-62115210D01*
X103894436Y-62088174D01*
X103873744Y-62067482D01*
X103846708Y-62056283D01*
X103832076Y-62054842D01*
X103262778Y-62054842D01*
X103262778Y-62043782D01*
X103251579Y-62016746D01*
X103230887Y-61996054D01*
X103203851Y-61984855D01*
X103189219Y-61983414D01*
X103135496Y-61983414D01*
X103102263Y-61966798D01*
X103085648Y-61933566D01*
X103085648Y-61701271D01*
X103899934Y-61701271D01*
X103899934Y-61915557D01*
X103901375Y-61930189D01*
X103902406Y-61932678D01*
X103902597Y-61935366D01*
X103907852Y-61949098D01*
X103943566Y-62020526D01*
X103947529Y-62026822D01*
X103948287Y-62028652D01*
X103949976Y-62030710D01*
X103951398Y-62032969D01*
X103952896Y-62034268D01*
X103957614Y-62040017D01*
X103993328Y-62075732D01*
X103999079Y-62080452D01*
X104000378Y-62081950D01*
X104002633Y-62083369D01*
X104004693Y-62085060D01*
X104006523Y-62085818D01*
X104012821Y-62089782D01*
X104084251Y-62125496D01*
X104097982Y-62130751D01*
X104100669Y-62130941D01*
X104103159Y-62131973D01*
X104117791Y-62133414D01*
X104224934Y-62133414D01*
X104239566Y-62131973D01*
X104242055Y-62130941D01*
X104244743Y-62130751D01*
X104258475Y-62125496D01*
X104329903Y-62089782D01*
X104336202Y-62085817D01*
X104338030Y-62085060D01*
X104340086Y-62083371D01*
X104342346Y-62081950D01*
X104343645Y-62080451D01*
X104349395Y-62075733D01*
X104385110Y-62040018D01*
X104389828Y-62034268D01*
X104391327Y-62032969D01*
X104392748Y-62030710D01*
X104394438Y-62028652D01*
X104395195Y-62026822D01*
X104399159Y-62020526D01*
X104434873Y-61949098D01*
X104440128Y-61935366D01*
X104440318Y-61932678D01*
X104441350Y-61930189D01*
X104442791Y-61915557D01*
X104442791Y-61701271D01*
X104441350Y-61686639D01*
X104440318Y-61684149D01*
X104440128Y-61681462D01*
X104434873Y-61667731D01*
X104399159Y-61596301D01*
X104395195Y-61590003D01*
X104394437Y-61588173D01*
X104392746Y-61586113D01*
X104391327Y-61583858D01*
X104389829Y-61582559D01*
X104385109Y-61576808D01*
X104366714Y-61558414D01*
X104614219Y-61558414D01*
X104614219Y-62058414D01*
X104615660Y-62073046D01*
X104626859Y-62100082D01*
X104647551Y-62120774D01*
X104674587Y-62131973D01*
X104703851Y-62131973D01*
X104730887Y-62120774D01*
X104751579Y-62100082D01*
X104762778Y-62073046D01*
X104764219Y-62058414D01*
X104764219Y-61660908D01*
X104769359Y-61655767D01*
X104814067Y-61633414D01*
X104885800Y-61633414D01*
X104919031Y-61650029D01*
X104935648Y-61683262D01*
X104935648Y-62058414D01*
X104937089Y-62073046D01*
X104948288Y-62100082D01*
X104968980Y-62120774D01*
X104996016Y-62131973D01*
X105025280Y-62131973D01*
X105052316Y-62120774D01*
X105073008Y-62100082D01*
X105084207Y-62073046D01*
X105085648Y-62058414D01*
X105085648Y-61665557D01*
X105084207Y-61650925D01*
X105083176Y-61648436D01*
X105082985Y-61645747D01*
X105077730Y-61632015D01*
X105042015Y-61560587D01*
X105040474Y-61558140D01*
X105040090Y-61556986D01*
X105038842Y-61555547D01*
X105034182Y-61548144D01*
X105027080Y-61541984D01*
X105020917Y-61534878D01*
X105013511Y-61530216D01*
X105012075Y-61528971D01*
X105010921Y-61528586D01*
X105008474Y-61527046D01*
X104937046Y-61491332D01*
X104923314Y-61486077D01*
X104920626Y-61485886D01*
X104918137Y-61484855D01*
X104903505Y-61483414D01*
X104796362Y-61483414D01*
X104781730Y-61484855D01*
X104779240Y-61485886D01*
X104776553Y-61486077D01*
X104762822Y-61491332D01*
X104738383Y-61503550D01*
X104730887Y-61496054D01*
X104703851Y-61484855D01*
X104674587Y-61484855D01*
X104647551Y-61496054D01*
X104626859Y-61516746D01*
X104615660Y-61543782D01*
X104614219Y-61558414D01*
X104366714Y-61558414D01*
X104349394Y-61541094D01*
X104343645Y-61536376D01*
X104342346Y-61534878D01*
X104340087Y-61533456D01*
X104338029Y-61531767D01*
X104336199Y-61531009D01*
X104329903Y-61527046D01*
X104258475Y-61491332D01*
X104244743Y-61486077D01*
X104242055Y-61485886D01*
X104239566Y-61484855D01*
X104224934Y-61483414D01*
X104117791Y-61483414D01*
X104103159Y-61484855D01*
X104100669Y-61485886D01*
X104097982Y-61486077D01*
X104084251Y-61491332D01*
X104012821Y-61527046D01*
X104006521Y-61531010D01*
X104004694Y-61531768D01*
X104002637Y-61533456D01*
X104000378Y-61534878D01*
X103999078Y-61536376D01*
X103993329Y-61541095D01*
X103957615Y-61576809D01*
X103952896Y-61582558D01*
X103951398Y-61583858D01*
X103949976Y-61586117D01*
X103948288Y-61588174D01*
X103947530Y-61590001D01*
X103943566Y-61596301D01*
X103907852Y-61667730D01*
X103902597Y-61681462D01*
X103902406Y-61684149D01*
X103901375Y-61686639D01*
X103899934Y-61701271D01*
X103085648Y-61701271D01*
X103085648Y-61633414D01*
X103189219Y-61633414D01*
X103203851Y-61631973D01*
X103230887Y-61620774D01*
X103251579Y-61600082D01*
X103262778Y-61573046D01*
X103262778Y-61543782D01*
X103251579Y-61516746D01*
X103230887Y-61496054D01*
X103203851Y-61484855D01*
X103189219Y-61483414D01*
X103085648Y-61483414D01*
X103085648Y-61308414D01*
X103084207Y-61293782D01*
X103073008Y-61266746D01*
X103052316Y-61246054D01*
X103025280Y-61234855D01*
X102996016Y-61234855D01*
X102968980Y-61246054D01*
X102948288Y-61266746D01*
X102937089Y-61293782D01*
X102935648Y-61308414D01*
X102935648Y-61483414D01*
X102903505Y-61483414D01*
X102888873Y-61484855D01*
X102861837Y-61496054D01*
X102841145Y-61516746D01*
X102829946Y-61543782D01*
X102157076Y-61543782D01*
X102157076Y-61308414D01*
X102155635Y-61293782D01*
X102144436Y-61266746D01*
X102123744Y-61246054D01*
X102096708Y-61234855D01*
X102067444Y-61234855D01*
X102040408Y-61246054D01*
X102019716Y-61266746D01*
X102008517Y-61293782D01*
X102007076Y-61308414D01*
X102007076Y-61590557D01*
X101728505Y-61590557D01*
X101728505Y-61308414D01*
X101727064Y-61293782D01*
X101715865Y-61266746D01*
X101695173Y-61246054D01*
X101668137Y-61234855D01*
X101638873Y-61234855D01*
X101611837Y-61246054D01*
X101591145Y-61266746D01*
X101579946Y-61293782D01*
X101578505Y-61308414D01*
X101495172Y-61308414D01*
X101495172Y-61151522D01*
X105168981Y-61151522D01*
X105168981Y-62288175D01*
G37*
G36*
X104323364Y-59835767D02*
G01*
X104341867Y-59854269D01*
X104364220Y-59898975D01*
X104364220Y-60077852D01*
X104341867Y-60122558D01*
X104323364Y-60141061D01*
X104278658Y-60163414D01*
X104206925Y-60163414D01*
X104162218Y-60141061D01*
X104143716Y-60122558D01*
X104121363Y-60077852D01*
X104121363Y-59898975D01*
X104143715Y-59854269D01*
X104162217Y-59835767D01*
X104206925Y-59813414D01*
X104278658Y-59813414D01*
X104323364Y-59835767D01*
G37*
G36*
X105240410Y-60468175D02*
G01*
X101495172Y-60468175D01*
X101495172Y-59488414D01*
X101578505Y-59488414D01*
X101578505Y-60238414D01*
X101579946Y-60253046D01*
X101591145Y-60280082D01*
X101611837Y-60300774D01*
X101638873Y-60311973D01*
X101668137Y-60311973D01*
X101695173Y-60300774D01*
X101715865Y-60280082D01*
X101727064Y-60253046D01*
X101728505Y-60238414D01*
X101728505Y-59826481D01*
X101835541Y-60055844D01*
X101838714Y-60061201D01*
X101839375Y-60063017D01*
X101840551Y-60064301D01*
X101843035Y-60068494D01*
X101851440Y-60076192D01*
X101859139Y-60084598D01*
X101862158Y-60086006D01*
X101864616Y-60088258D01*
X101875325Y-60092152D01*
X101885657Y-60096974D01*
X101888988Y-60097120D01*
X101892117Y-60098258D01*
X101903500Y-60097757D01*
X101914893Y-60098258D01*
X101918024Y-60097119D01*
X101921353Y-60096973D01*
X101931679Y-60092154D01*
X101942394Y-60088258D01*
X101944852Y-60086006D01*
X101947871Y-60084598D01*
X101955566Y-60076194D01*
X101963975Y-60068494D01*
X101966460Y-60064298D01*
X101967635Y-60063016D01*
X101968294Y-60061203D01*
X101971469Y-60055844D01*
X102078505Y-59826481D01*
X102078505Y-60238414D01*
X102079946Y-60253046D01*
X102091145Y-60280082D01*
X102111837Y-60300774D01*
X102138873Y-60311973D01*
X102168137Y-60311973D01*
X102195173Y-60300774D01*
X102200737Y-60295210D01*
X102258518Y-60295210D01*
X102258518Y-60324474D01*
X102269717Y-60351510D01*
X102290409Y-60372202D01*
X102317445Y-60383401D01*
X102332077Y-60384842D01*
X102903505Y-60384842D01*
X102918137Y-60383401D01*
X102945173Y-60372202D01*
X102965865Y-60351510D01*
X102977064Y-60324474D01*
X102977064Y-60295210D01*
X102965865Y-60268174D01*
X102945173Y-60247482D01*
X102918137Y-60236283D01*
X102903505Y-60234842D01*
X102332077Y-60234842D01*
X102317445Y-60236283D01*
X102290409Y-60247482D01*
X102269717Y-60268174D01*
X102258518Y-60295210D01*
X102200737Y-60295210D01*
X102215865Y-60280082D01*
X102227064Y-60253046D01*
X102228505Y-60238414D01*
X102228505Y-59723782D01*
X102901375Y-59723782D01*
X102901375Y-59753046D01*
X102912574Y-59780082D01*
X102933266Y-59800774D01*
X102960302Y-59811973D01*
X102974934Y-59813414D01*
X103007077Y-59813414D01*
X103007077Y-60131271D01*
X103008518Y-60145903D01*
X103009549Y-60148392D01*
X103009740Y-60151080D01*
X103014995Y-60164812D01*
X103050709Y-60236241D01*
X103052249Y-60238688D01*
X103052634Y-60239842D01*
X103053879Y-60241278D01*
X103058541Y-60248684D01*
X103065645Y-60254845D01*
X103071807Y-60261950D01*
X103079212Y-60266611D01*
X103080649Y-60267857D01*
X103081802Y-60268241D01*
X103084250Y-60269782D01*
X103155680Y-60305496D01*
X103169411Y-60310751D01*
X103172098Y-60310941D01*
X103174588Y-60311973D01*
X103189220Y-60313414D01*
X103258518Y-60313414D01*
X103258518Y-60324474D01*
X103269717Y-60351510D01*
X103290409Y-60372202D01*
X103317445Y-60383401D01*
X103332077Y-60384842D01*
X103903505Y-60384842D01*
X103918137Y-60383401D01*
X103945173Y-60372202D01*
X103965865Y-60351510D01*
X103977064Y-60324474D01*
X103977064Y-60295210D01*
X103965865Y-60268174D01*
X103945173Y-60247482D01*
X103918137Y-60236283D01*
X103903505Y-60234842D01*
X103334207Y-60234842D01*
X103334207Y-60223782D01*
X103323008Y-60196746D01*
X103302316Y-60176054D01*
X103275280Y-60164855D01*
X103260648Y-60163414D01*
X103206925Y-60163414D01*
X103173692Y-60146798D01*
X103157077Y-60113566D01*
X103157077Y-59881271D01*
X103971363Y-59881271D01*
X103971363Y-60095557D01*
X103972804Y-60110189D01*
X103973835Y-60112678D01*
X103974026Y-60115366D01*
X103979281Y-60129098D01*
X104014995Y-60200526D01*
X104018958Y-60206822D01*
X104019716Y-60208652D01*
X104021405Y-60210710D01*
X104022827Y-60212969D01*
X104024325Y-60214268D01*
X104029043Y-60220017D01*
X104064757Y-60255732D01*
X104070508Y-60260452D01*
X104071807Y-60261950D01*
X104074062Y-60263369D01*
X104076122Y-60265060D01*
X104077952Y-60265818D01*
X104084250Y-60269782D01*
X104155680Y-60305496D01*
X104169411Y-60310751D01*
X104172098Y-60310941D01*
X104174588Y-60311973D01*
X104189220Y-60313414D01*
X104296363Y-60313414D01*
X104310995Y-60311973D01*
X104313484Y-60310941D01*
X104316172Y-60310751D01*
X104329904Y-60305496D01*
X104401332Y-60269782D01*
X104407631Y-60265817D01*
X104409459Y-60265060D01*
X104411515Y-60263371D01*
X104413775Y-60261950D01*
X104415074Y-60260451D01*
X104420824Y-60255733D01*
X104456539Y-60220018D01*
X104461257Y-60214268D01*
X104462756Y-60212969D01*
X104464177Y-60210710D01*
X104465867Y-60208652D01*
X104466624Y-60206822D01*
X104470588Y-60200526D01*
X104506302Y-60129098D01*
X104511557Y-60115366D01*
X104511747Y-60112678D01*
X104512779Y-60110189D01*
X104514220Y-60095557D01*
X104514220Y-59881271D01*
X104512779Y-59866639D01*
X104511747Y-59864149D01*
X104511557Y-59861462D01*
X104506302Y-59847731D01*
X104470588Y-59776301D01*
X104466624Y-59770003D01*
X104465866Y-59768173D01*
X104464175Y-59766113D01*
X104462756Y-59763858D01*
X104461258Y-59762559D01*
X104456538Y-59756808D01*
X104438143Y-59738414D01*
X104685648Y-59738414D01*
X104685648Y-60238414D01*
X104687089Y-60253046D01*
X104698288Y-60280082D01*
X104718980Y-60300774D01*
X104746016Y-60311973D01*
X104775280Y-60311973D01*
X104802316Y-60300774D01*
X104823008Y-60280082D01*
X104834207Y-60253046D01*
X104835648Y-60238414D01*
X104835648Y-59840908D01*
X104840788Y-59835767D01*
X104885496Y-59813414D01*
X104957229Y-59813414D01*
X104990460Y-59830029D01*
X105007077Y-59863262D01*
X105007077Y-60238414D01*
X105008518Y-60253046D01*
X105019717Y-60280082D01*
X105040409Y-60300774D01*
X105067445Y-60311973D01*
X105096709Y-60311973D01*
X105123745Y-60300774D01*
X105144437Y-60280082D01*
X105155636Y-60253046D01*
X105157077Y-60238414D01*
X105157077Y-59845557D01*
X105155636Y-59830925D01*
X105154605Y-59828436D01*
X105154414Y-59825747D01*
X105149159Y-59812015D01*
X105113444Y-59740587D01*
X105111903Y-59738140D01*
X105111519Y-59736986D01*
X105110271Y-59735547D01*
X105105611Y-59728144D01*
X105098509Y-59721984D01*
X105092346Y-59714878D01*
X105084940Y-59710216D01*
X105083504Y-59708971D01*
X105082350Y-59708586D01*
X105079903Y-59707046D01*
X105008475Y-59671332D01*
X104994743Y-59666077D01*
X104992055Y-59665886D01*
X104989566Y-59664855D01*
X104974934Y-59663414D01*
X104867791Y-59663414D01*
X104853159Y-59664855D01*
X104850669Y-59665886D01*
X104847982Y-59666077D01*
X104834251Y-59671332D01*
X104809812Y-59683550D01*
X104802316Y-59676054D01*
X104775280Y-59664855D01*
X104746016Y-59664855D01*
X104718980Y-59676054D01*
X104698288Y-59696746D01*
X104687089Y-59723782D01*
X104685648Y-59738414D01*
X104438143Y-59738414D01*
X104420823Y-59721094D01*
X104415074Y-59716376D01*
X104413775Y-59714878D01*
X104411516Y-59713456D01*
X104409458Y-59711767D01*
X104407628Y-59711009D01*
X104401332Y-59707046D01*
X104329904Y-59671332D01*
X104316172Y-59666077D01*
X104313484Y-59665886D01*
X104310995Y-59664855D01*
X104296363Y-59663414D01*
X104189220Y-59663414D01*
X104174588Y-59664855D01*
X104172098Y-59665886D01*
X104169411Y-59666077D01*
X104155680Y-59671332D01*
X104084250Y-59707046D01*
X104077950Y-59711010D01*
X104076123Y-59711768D01*
X104074066Y-59713456D01*
X104071807Y-59714878D01*
X104070507Y-59716376D01*
X104064758Y-59721095D01*
X104029044Y-59756809D01*
X104024325Y-59762558D01*
X104022827Y-59763858D01*
X104021405Y-59766117D01*
X104019717Y-59768174D01*
X104018959Y-59770001D01*
X104014995Y-59776301D01*
X103979281Y-59847730D01*
X103974026Y-59861462D01*
X103973835Y-59864149D01*
X103972804Y-59866639D01*
X103971363Y-59881271D01*
X103157077Y-59881271D01*
X103157077Y-59813414D01*
X103260648Y-59813414D01*
X103275280Y-59811973D01*
X103302316Y-59800774D01*
X103323008Y-59780082D01*
X103334207Y-59753046D01*
X103334207Y-59723782D01*
X103323008Y-59696746D01*
X103302316Y-59676054D01*
X103275280Y-59664855D01*
X103260648Y-59663414D01*
X103157077Y-59663414D01*
X103157077Y-59488414D01*
X103155636Y-59473782D01*
X103144437Y-59446746D01*
X103123745Y-59426054D01*
X103096709Y-59414855D01*
X103067445Y-59414855D01*
X103040409Y-59426054D01*
X103019717Y-59446746D01*
X103008518Y-59473782D01*
X103007077Y-59488414D01*
X103007077Y-59663414D01*
X102974934Y-59663414D01*
X102960302Y-59664855D01*
X102933266Y-59676054D01*
X102912574Y-59696746D01*
X102901375Y-59723782D01*
X102228505Y-59723782D01*
X102228505Y-59488414D01*
X102227557Y-59478792D01*
X102227635Y-59477027D01*
X102227290Y-59476078D01*
X102227064Y-59473782D01*
X102222079Y-59461747D01*
X102217635Y-59449526D01*
X102216505Y-59448292D01*
X102215865Y-59446746D01*
X102206655Y-59437536D01*
X102197871Y-59427944D01*
X102196356Y-59427237D01*
X102195173Y-59426054D01*
X102183141Y-59421070D01*
X102171353Y-59415569D01*
X102169683Y-59415495D01*
X102168137Y-59414855D01*
X102155108Y-59414855D01*
X102142117Y-59414284D01*
X102140547Y-59414855D01*
X102138873Y-59414855D01*
X102126846Y-59419836D01*
X102114616Y-59424284D01*
X102113382Y-59425413D01*
X102111837Y-59426054D01*
X102102631Y-59435259D01*
X102093035Y-59444048D01*
X102091860Y-59446030D01*
X102091145Y-59446746D01*
X102090466Y-59448382D01*
X102085541Y-59456698D01*
X101903505Y-59846774D01*
X101721469Y-59456698D01*
X101716543Y-59448382D01*
X101715865Y-59446746D01*
X101715149Y-59446030D01*
X101713975Y-59444048D01*
X101704378Y-59435259D01*
X101695173Y-59426054D01*
X101693627Y-59425413D01*
X101692394Y-59424284D01*
X101680163Y-59419836D01*
X101668137Y-59414855D01*
X101666463Y-59414855D01*
X101664893Y-59414284D01*
X101651892Y-59414855D01*
X101638873Y-59414855D01*
X101637328Y-59415494D01*
X101635657Y-59415568D01*
X101623858Y-59421074D01*
X101611837Y-59426054D01*
X101610654Y-59427236D01*
X101609139Y-59427944D01*
X101600350Y-59437540D01*
X101591145Y-59446746D01*
X101590504Y-59448291D01*
X101589375Y-59449525D01*
X101584927Y-59461755D01*
X101579946Y-59473782D01*
X101579719Y-59476077D01*
X101579375Y-59477026D01*
X101579452Y-59478792D01*
X101578505Y-59488414D01*
X101495172Y-59488414D01*
X101495172Y-59330951D01*
X105240410Y-59330951D01*
X105240410Y-60468175D01*
G37*
G36*
X107557540Y-67728175D02*
G01*
X105706601Y-67728175D01*
X105706601Y-66748414D01*
X105789934Y-66748414D01*
X105789934Y-67498414D01*
X105791375Y-67513046D01*
X105802574Y-67540082D01*
X105823266Y-67560774D01*
X105850302Y-67571973D01*
X105879566Y-67571973D01*
X105906602Y-67560774D01*
X105927294Y-67540082D01*
X105938493Y-67513046D01*
X105939934Y-67498414D01*
X105939934Y-67180557D01*
X106218505Y-67180557D01*
X106218505Y-67498414D01*
X106219946Y-67513046D01*
X106231145Y-67540082D01*
X106251837Y-67560774D01*
X106278873Y-67571973D01*
X106308137Y-67571973D01*
X106335173Y-67560774D01*
X106340737Y-67555210D01*
X106398518Y-67555210D01*
X106398518Y-67584474D01*
X106409717Y-67611510D01*
X106430409Y-67632202D01*
X106457445Y-67643401D01*
X106472077Y-67644842D01*
X107043505Y-67644842D01*
X107058137Y-67643401D01*
X107085173Y-67632202D01*
X107105865Y-67611510D01*
X107117064Y-67584474D01*
X107117064Y-67555210D01*
X107105865Y-67528174D01*
X107085173Y-67507482D01*
X107058137Y-67496283D01*
X107043505Y-67494842D01*
X106472077Y-67494842D01*
X106457445Y-67496283D01*
X106430409Y-67507482D01*
X106409717Y-67528174D01*
X106398518Y-67555210D01*
X106340737Y-67555210D01*
X106355865Y-67540082D01*
X106367064Y-67513046D01*
X106368505Y-67498414D01*
X106368505Y-66983782D01*
X107041375Y-66983782D01*
X107041375Y-67013046D01*
X107052574Y-67040082D01*
X107073266Y-67060774D01*
X107100302Y-67071973D01*
X107114934Y-67073414D01*
X107147077Y-67073414D01*
X107147077Y-67391271D01*
X107148518Y-67405903D01*
X107149549Y-67408392D01*
X107149740Y-67411080D01*
X107154995Y-67424812D01*
X107190709Y-67496241D01*
X107192249Y-67498688D01*
X107192634Y-67499842D01*
X107193879Y-67501278D01*
X107198541Y-67508684D01*
X107205645Y-67514845D01*
X107211807Y-67521950D01*
X107219212Y-67526611D01*
X107220649Y-67527857D01*
X107221802Y-67528241D01*
X107224250Y-67529782D01*
X107295680Y-67565496D01*
X107309411Y-67570751D01*
X107312098Y-67570941D01*
X107314588Y-67571973D01*
X107329220Y-67573414D01*
X107400648Y-67573414D01*
X107415280Y-67571973D01*
X107442316Y-67560774D01*
X107463008Y-67540082D01*
X107474207Y-67513046D01*
X107474207Y-67483782D01*
X107463008Y-67456746D01*
X107442316Y-67436054D01*
X107415280Y-67424855D01*
X107400648Y-67423414D01*
X107346925Y-67423414D01*
X107313692Y-67406798D01*
X107297077Y-67373566D01*
X107297077Y-67073414D01*
X107400648Y-67073414D01*
X107415280Y-67071973D01*
X107442316Y-67060774D01*
X107463008Y-67040082D01*
X107474207Y-67013046D01*
X107474207Y-66983782D01*
X107463008Y-66956746D01*
X107442316Y-66936054D01*
X107415280Y-66924855D01*
X107400648Y-66923414D01*
X107297077Y-66923414D01*
X107297077Y-66748414D01*
X107295636Y-66733782D01*
X107284437Y-66706746D01*
X107263745Y-66686054D01*
X107236709Y-66674855D01*
X107207445Y-66674855D01*
X107180409Y-66686054D01*
X107159717Y-66706746D01*
X107148518Y-66733782D01*
X107147077Y-66748414D01*
X107147077Y-66923414D01*
X107114934Y-66923414D01*
X107100302Y-66924855D01*
X107073266Y-66936054D01*
X107052574Y-66956746D01*
X107041375Y-66983782D01*
X106368505Y-66983782D01*
X106368505Y-66748414D01*
X106367064Y-66733782D01*
X106355865Y-66706746D01*
X106335173Y-66686054D01*
X106308137Y-66674855D01*
X106278873Y-66674855D01*
X106251837Y-66686054D01*
X106231145Y-66706746D01*
X106219946Y-66733782D01*
X106218505Y-66748414D01*
X106218505Y-67030557D01*
X105939934Y-67030557D01*
X105939934Y-66748414D01*
X105938493Y-66733782D01*
X105927294Y-66706746D01*
X105906602Y-66686054D01*
X105879566Y-66674855D01*
X105850302Y-66674855D01*
X105823266Y-66686054D01*
X105802574Y-66706746D01*
X105791375Y-66733782D01*
X105789934Y-66748414D01*
X105706601Y-66748414D01*
X105706601Y-66591522D01*
X107557540Y-66591522D01*
X107557540Y-67728175D01*
G37*
G36*
X107557540Y-65188175D02*
G01*
X105635172Y-65188175D01*
X105635172Y-64208414D01*
X105718505Y-64208414D01*
X105718505Y-64958414D01*
X105719946Y-64973046D01*
X105731145Y-65000082D01*
X105751837Y-65020774D01*
X105778873Y-65031973D01*
X105808137Y-65031973D01*
X105835173Y-65020774D01*
X105855865Y-65000082D01*
X105867064Y-64973046D01*
X105868505Y-64958414D01*
X105868505Y-64546481D01*
X105975541Y-64775844D01*
X105978714Y-64781201D01*
X105979375Y-64783017D01*
X105980551Y-64784301D01*
X105983035Y-64788494D01*
X105991440Y-64796192D01*
X105999139Y-64804598D01*
X106002158Y-64806006D01*
X106004616Y-64808258D01*
X106015325Y-64812152D01*
X106025657Y-64816974D01*
X106028988Y-64817120D01*
X106032117Y-64818258D01*
X106043500Y-64817757D01*
X106054893Y-64818258D01*
X106058024Y-64817119D01*
X106061353Y-64816973D01*
X106071679Y-64812154D01*
X106082394Y-64808258D01*
X106084852Y-64806006D01*
X106087871Y-64804598D01*
X106095566Y-64796194D01*
X106103975Y-64788494D01*
X106106460Y-64784298D01*
X106107635Y-64783016D01*
X106108294Y-64781203D01*
X106111469Y-64775844D01*
X106218505Y-64546481D01*
X106218505Y-64958414D01*
X106219946Y-64973046D01*
X106231145Y-65000082D01*
X106251837Y-65020774D01*
X106278873Y-65031973D01*
X106308137Y-65031973D01*
X106335173Y-65020774D01*
X106340737Y-65015210D01*
X106398518Y-65015210D01*
X106398518Y-65044474D01*
X106409717Y-65071510D01*
X106430409Y-65092202D01*
X106457445Y-65103401D01*
X106472077Y-65104842D01*
X107043505Y-65104842D01*
X107058137Y-65103401D01*
X107085173Y-65092202D01*
X107105865Y-65071510D01*
X107117064Y-65044474D01*
X107117064Y-65015210D01*
X107105865Y-64988174D01*
X107085173Y-64967482D01*
X107058137Y-64956283D01*
X107043505Y-64954842D01*
X106472077Y-64954842D01*
X106457445Y-64956283D01*
X106430409Y-64967482D01*
X106409717Y-64988174D01*
X106398518Y-65015210D01*
X106340737Y-65015210D01*
X106355865Y-65000082D01*
X106367064Y-64973046D01*
X106368505Y-64958414D01*
X106368505Y-64443782D01*
X107041375Y-64443782D01*
X107041375Y-64473046D01*
X107052574Y-64500082D01*
X107073266Y-64520774D01*
X107100302Y-64531973D01*
X107114934Y-64533414D01*
X107147077Y-64533414D01*
X107147077Y-64851271D01*
X107148518Y-64865903D01*
X107149549Y-64868392D01*
X107149740Y-64871080D01*
X107154995Y-64884812D01*
X107190709Y-64956241D01*
X107192249Y-64958688D01*
X107192634Y-64959842D01*
X107193879Y-64961278D01*
X107198541Y-64968684D01*
X107205645Y-64974845D01*
X107211807Y-64981950D01*
X107219212Y-64986611D01*
X107220649Y-64987857D01*
X107221802Y-64988241D01*
X107224250Y-64989782D01*
X107295680Y-65025496D01*
X107309411Y-65030751D01*
X107312098Y-65030941D01*
X107314588Y-65031973D01*
X107329220Y-65033414D01*
X107400648Y-65033414D01*
X107415280Y-65031973D01*
X107442316Y-65020774D01*
X107463008Y-65000082D01*
X107474207Y-64973046D01*
X107474207Y-64943782D01*
X107463008Y-64916746D01*
X107442316Y-64896054D01*
X107415280Y-64884855D01*
X107400648Y-64883414D01*
X107346925Y-64883414D01*
X107313692Y-64866798D01*
X107297077Y-64833566D01*
X107297077Y-64533414D01*
X107400648Y-64533414D01*
X107415280Y-64531973D01*
X107442316Y-64520774D01*
X107463008Y-64500082D01*
X107474207Y-64473046D01*
X107474207Y-64443782D01*
X107463008Y-64416746D01*
X107442316Y-64396054D01*
X107415280Y-64384855D01*
X107400648Y-64383414D01*
X107297077Y-64383414D01*
X107297077Y-64208414D01*
X107295636Y-64193782D01*
X107284437Y-64166746D01*
X107263745Y-64146054D01*
X107236709Y-64134855D01*
X107207445Y-64134855D01*
X107180409Y-64146054D01*
X107159717Y-64166746D01*
X107148518Y-64193782D01*
X107147077Y-64208414D01*
X107147077Y-64383414D01*
X107114934Y-64383414D01*
X107100302Y-64384855D01*
X107073266Y-64396054D01*
X107052574Y-64416746D01*
X107041375Y-64443782D01*
X106368505Y-64443782D01*
X106368505Y-64208414D01*
X106367557Y-64198792D01*
X106367635Y-64197027D01*
X106367290Y-64196078D01*
X106367064Y-64193782D01*
X106362079Y-64181747D01*
X106357635Y-64169526D01*
X106356505Y-64168292D01*
X106355865Y-64166746D01*
X106346655Y-64157536D01*
X106337871Y-64147944D01*
X106336356Y-64147237D01*
X106335173Y-64146054D01*
X106323141Y-64141070D01*
X106311353Y-64135569D01*
X106309683Y-64135495D01*
X106308137Y-64134855D01*
X106295108Y-64134855D01*
X106282117Y-64134284D01*
X106280547Y-64134855D01*
X106278873Y-64134855D01*
X106266846Y-64139836D01*
X106254616Y-64144284D01*
X106253382Y-64145413D01*
X106251837Y-64146054D01*
X106242631Y-64155259D01*
X106233035Y-64164048D01*
X106231860Y-64166030D01*
X106231145Y-64166746D01*
X106230466Y-64168382D01*
X106225541Y-64176698D01*
X106043505Y-64566774D01*
X105861469Y-64176698D01*
X105856543Y-64168382D01*
X105855865Y-64166746D01*
X105855149Y-64166030D01*
X105853975Y-64164048D01*
X105844378Y-64155259D01*
X105835173Y-64146054D01*
X105833627Y-64145413D01*
X105832394Y-64144284D01*
X105820163Y-64139836D01*
X105808137Y-64134855D01*
X105806463Y-64134855D01*
X105804893Y-64134284D01*
X105791892Y-64134855D01*
X105778873Y-64134855D01*
X105777328Y-64135494D01*
X105775657Y-64135568D01*
X105763858Y-64141074D01*
X105751837Y-64146054D01*
X105750654Y-64147236D01*
X105749139Y-64147944D01*
X105740350Y-64157540D01*
X105731145Y-64166746D01*
X105730504Y-64168291D01*
X105729375Y-64169525D01*
X105724927Y-64181755D01*
X105719946Y-64193782D01*
X105719719Y-64196077D01*
X105719375Y-64197026D01*
X105719452Y-64198792D01*
X105718505Y-64208414D01*
X105635172Y-64208414D01*
X105635172Y-64050951D01*
X107557540Y-64050951D01*
X107557540Y-65188175D01*
G37*
D12*
X89348176Y-70202750D02*
X89919605Y-70202750D01*
X89633890Y-70488464D02*
X89633890Y-69917035D01*
X90205318Y-69738464D02*
X90669604Y-69738464D01*
X90669604Y-69738464D02*
X90419604Y-70024178D01*
X90419604Y-70024178D02*
X90526747Y-70024178D01*
X90526747Y-70024178D02*
X90598176Y-70059892D01*
X90598176Y-70059892D02*
X90633890Y-70095607D01*
X90633890Y-70095607D02*
X90669604Y-70167035D01*
X90669604Y-70167035D02*
X90669604Y-70345607D01*
X90669604Y-70345607D02*
X90633890Y-70417035D01*
X90633890Y-70417035D02*
X90598176Y-70452750D01*
X90598176Y-70452750D02*
X90526747Y-70488464D01*
X90526747Y-70488464D02*
X90312461Y-70488464D01*
X90312461Y-70488464D02*
X90241033Y-70452750D01*
X90241033Y-70452750D02*
X90205318Y-70417035D01*
X90991033Y-70417035D02*
X91026747Y-70452750D01*
X91026747Y-70452750D02*
X90991033Y-70488464D01*
X90991033Y-70488464D02*
X90955319Y-70452750D01*
X90955319Y-70452750D02*
X90991033Y-70417035D01*
X90991033Y-70417035D02*
X90991033Y-70488464D01*
X91276747Y-69738464D02*
X91741033Y-69738464D01*
X91741033Y-69738464D02*
X91491033Y-70024178D01*
X91491033Y-70024178D02*
X91598176Y-70024178D01*
X91598176Y-70024178D02*
X91669605Y-70059892D01*
X91669605Y-70059892D02*
X91705319Y-70095607D01*
X91705319Y-70095607D02*
X91741033Y-70167035D01*
X91741033Y-70167035D02*
X91741033Y-70345607D01*
X91741033Y-70345607D02*
X91705319Y-70417035D01*
X91705319Y-70417035D02*
X91669605Y-70452750D01*
X91669605Y-70452750D02*
X91598176Y-70488464D01*
X91598176Y-70488464D02*
X91383890Y-70488464D01*
X91383890Y-70488464D02*
X91312462Y-70452750D01*
X91312462Y-70452750D02*
X91276747Y-70417035D01*
X91955319Y-69738464D02*
X92205319Y-70488464D01*
X92205319Y-70488464D02*
X92455319Y-69738464D01*
D11*
G36*
X107557540Y-57568175D02*
G01*
X105706601Y-57568175D01*
X105706601Y-56588414D01*
X105789934Y-56588414D01*
X105789934Y-57338414D01*
X105791375Y-57353046D01*
X105802574Y-57380082D01*
X105823266Y-57400774D01*
X105850302Y-57411973D01*
X105879566Y-57411973D01*
X105906602Y-57400774D01*
X105927294Y-57380082D01*
X105938493Y-57353046D01*
X105939934Y-57338414D01*
X105939934Y-57020557D01*
X106218505Y-57020557D01*
X106218505Y-57338414D01*
X106219946Y-57353046D01*
X106231145Y-57380082D01*
X106251837Y-57400774D01*
X106278873Y-57411973D01*
X106308137Y-57411973D01*
X106335173Y-57400774D01*
X106340737Y-57395210D01*
X106398518Y-57395210D01*
X106398518Y-57424474D01*
X106409717Y-57451510D01*
X106430409Y-57472202D01*
X106457445Y-57483401D01*
X106472077Y-57484842D01*
X107043505Y-57484842D01*
X107058137Y-57483401D01*
X107085173Y-57472202D01*
X107105865Y-57451510D01*
X107117064Y-57424474D01*
X107117064Y-57395210D01*
X107105865Y-57368174D01*
X107085173Y-57347482D01*
X107058137Y-57336283D01*
X107043505Y-57334842D01*
X106472077Y-57334842D01*
X106457445Y-57336283D01*
X106430409Y-57347482D01*
X106409717Y-57368174D01*
X106398518Y-57395210D01*
X106340737Y-57395210D01*
X106355865Y-57380082D01*
X106367064Y-57353046D01*
X106368505Y-57338414D01*
X106368505Y-56823782D01*
X107041375Y-56823782D01*
X107041375Y-56853046D01*
X107052574Y-56880082D01*
X107073266Y-56900774D01*
X107100302Y-56911973D01*
X107114934Y-56913414D01*
X107147077Y-56913414D01*
X107147077Y-57231271D01*
X107148518Y-57245903D01*
X107149549Y-57248392D01*
X107149740Y-57251080D01*
X107154995Y-57264812D01*
X107190709Y-57336241D01*
X107192249Y-57338688D01*
X107192634Y-57339842D01*
X107193879Y-57341278D01*
X107198541Y-57348684D01*
X107205645Y-57354845D01*
X107211807Y-57361950D01*
X107219212Y-57366611D01*
X107220649Y-57367857D01*
X107221802Y-57368241D01*
X107224250Y-57369782D01*
X107295680Y-57405496D01*
X107309411Y-57410751D01*
X107312098Y-57410941D01*
X107314588Y-57411973D01*
X107329220Y-57413414D01*
X107400648Y-57413414D01*
X107415280Y-57411973D01*
X107442316Y-57400774D01*
X107463008Y-57380082D01*
X107474207Y-57353046D01*
X107474207Y-57323782D01*
X107463008Y-57296746D01*
X107442316Y-57276054D01*
X107415280Y-57264855D01*
X107400648Y-57263414D01*
X107346925Y-57263414D01*
X107313692Y-57246798D01*
X107297077Y-57213566D01*
X107297077Y-56913414D01*
X107400648Y-56913414D01*
X107415280Y-56911973D01*
X107442316Y-56900774D01*
X107463008Y-56880082D01*
X107474207Y-56853046D01*
X107474207Y-56823782D01*
X107463008Y-56796746D01*
X107442316Y-56776054D01*
X107415280Y-56764855D01*
X107400648Y-56763414D01*
X107297077Y-56763414D01*
X107297077Y-56588414D01*
X107295636Y-56573782D01*
X107284437Y-56546746D01*
X107263745Y-56526054D01*
X107236709Y-56514855D01*
X107207445Y-56514855D01*
X107180409Y-56526054D01*
X107159717Y-56546746D01*
X107148518Y-56573782D01*
X107147077Y-56588414D01*
X107147077Y-56763414D01*
X107114934Y-56763414D01*
X107100302Y-56764855D01*
X107073266Y-56776054D01*
X107052574Y-56796746D01*
X107041375Y-56823782D01*
X106368505Y-56823782D01*
X106368505Y-56588414D01*
X106367064Y-56573782D01*
X106355865Y-56546746D01*
X106335173Y-56526054D01*
X106308137Y-56514855D01*
X106278873Y-56514855D01*
X106251837Y-56526054D01*
X106231145Y-56546746D01*
X106219946Y-56573782D01*
X106218505Y-56588414D01*
X106218505Y-56870557D01*
X105939934Y-56870557D01*
X105939934Y-56588414D01*
X105938493Y-56573782D01*
X105927294Y-56546746D01*
X105906602Y-56526054D01*
X105879566Y-56514855D01*
X105850302Y-56514855D01*
X105823266Y-56526054D01*
X105802574Y-56546746D01*
X105791375Y-56573782D01*
X105789934Y-56588414D01*
X105706601Y-56588414D01*
X105706601Y-56431522D01*
X107557540Y-56431522D01*
X107557540Y-57568175D01*
G37*
G36*
X107557540Y-62648175D02*
G01*
X105706601Y-62648175D01*
X105706601Y-61668414D01*
X105789934Y-61668414D01*
X105789934Y-62418414D01*
X105791375Y-62433046D01*
X105802574Y-62460082D01*
X105823266Y-62480774D01*
X105850302Y-62491973D01*
X105879566Y-62491973D01*
X105906602Y-62480774D01*
X105927294Y-62460082D01*
X105938493Y-62433046D01*
X105939934Y-62418414D01*
X105939934Y-62100557D01*
X106218505Y-62100557D01*
X106218505Y-62418414D01*
X106219946Y-62433046D01*
X106231145Y-62460082D01*
X106251837Y-62480774D01*
X106278873Y-62491973D01*
X106308137Y-62491973D01*
X106335173Y-62480774D01*
X106340737Y-62475210D01*
X106398518Y-62475210D01*
X106398518Y-62504474D01*
X106409717Y-62531510D01*
X106430409Y-62552202D01*
X106457445Y-62563401D01*
X106472077Y-62564842D01*
X107043505Y-62564842D01*
X107058137Y-62563401D01*
X107085173Y-62552202D01*
X107105865Y-62531510D01*
X107117064Y-62504474D01*
X107117064Y-62475210D01*
X107105865Y-62448174D01*
X107085173Y-62427482D01*
X107058137Y-62416283D01*
X107043505Y-62414842D01*
X106472077Y-62414842D01*
X106457445Y-62416283D01*
X106430409Y-62427482D01*
X106409717Y-62448174D01*
X106398518Y-62475210D01*
X106340737Y-62475210D01*
X106355865Y-62460082D01*
X106367064Y-62433046D01*
X106368505Y-62418414D01*
X106368505Y-61903782D01*
X107041375Y-61903782D01*
X107041375Y-61933046D01*
X107052574Y-61960082D01*
X107073266Y-61980774D01*
X107100302Y-61991973D01*
X107114934Y-61993414D01*
X107147077Y-61993414D01*
X107147077Y-62311271D01*
X107148518Y-62325903D01*
X107149549Y-62328392D01*
X107149740Y-62331080D01*
X107154995Y-62344812D01*
X107190709Y-62416241D01*
X107192249Y-62418688D01*
X107192634Y-62419842D01*
X107193879Y-62421278D01*
X107198541Y-62428684D01*
X107205645Y-62434845D01*
X107211807Y-62441950D01*
X107219212Y-62446611D01*
X107220649Y-62447857D01*
X107221802Y-62448241D01*
X107224250Y-62449782D01*
X107295680Y-62485496D01*
X107309411Y-62490751D01*
X107312098Y-62490941D01*
X107314588Y-62491973D01*
X107329220Y-62493414D01*
X107400648Y-62493414D01*
X107415280Y-62491973D01*
X107442316Y-62480774D01*
X107463008Y-62460082D01*
X107474207Y-62433046D01*
X107474207Y-62403782D01*
X107463008Y-62376746D01*
X107442316Y-62356054D01*
X107415280Y-62344855D01*
X107400648Y-62343414D01*
X107346925Y-62343414D01*
X107313692Y-62326798D01*
X107297077Y-62293566D01*
X107297077Y-61993414D01*
X107400648Y-61993414D01*
X107415280Y-61991973D01*
X107442316Y-61980774D01*
X107463008Y-61960082D01*
X107474207Y-61933046D01*
X107474207Y-61903782D01*
X107463008Y-61876746D01*
X107442316Y-61856054D01*
X107415280Y-61844855D01*
X107400648Y-61843414D01*
X107297077Y-61843414D01*
X107297077Y-61668414D01*
X107295636Y-61653782D01*
X107284437Y-61626746D01*
X107263745Y-61606054D01*
X107236709Y-61594855D01*
X107207445Y-61594855D01*
X107180409Y-61606054D01*
X107159717Y-61626746D01*
X107148518Y-61653782D01*
X107147077Y-61668414D01*
X107147077Y-61843414D01*
X107114934Y-61843414D01*
X107100302Y-61844855D01*
X107073266Y-61856054D01*
X107052574Y-61876746D01*
X107041375Y-61903782D01*
X106368505Y-61903782D01*
X106368505Y-61668414D01*
X106367064Y-61653782D01*
X106355865Y-61626746D01*
X106335173Y-61606054D01*
X106308137Y-61594855D01*
X106278873Y-61594855D01*
X106251837Y-61606054D01*
X106231145Y-61626746D01*
X106219946Y-61653782D01*
X106218505Y-61668414D01*
X106218505Y-61950557D01*
X105939934Y-61950557D01*
X105939934Y-61668414D01*
X105938493Y-61653782D01*
X105927294Y-61626746D01*
X105906602Y-61606054D01*
X105879566Y-61594855D01*
X105850302Y-61594855D01*
X105823266Y-61606054D01*
X105802574Y-61626746D01*
X105791375Y-61653782D01*
X105789934Y-61668414D01*
X105706601Y-61668414D01*
X105706601Y-61511522D01*
X107557540Y-61511522D01*
X107557540Y-62648175D01*
G37*
D13*
%TO.C,R4*%
X99516250Y-57896359D02*
X99516250Y-58203641D01*
X100276250Y-57896359D02*
X100276250Y-58203641D01*
%TO.C,R8*%
X100516250Y-57896359D02*
X100516250Y-58203641D01*
X101276250Y-57896359D02*
X101276250Y-58203641D01*
%TO.C,J3*%
X107246250Y-52180000D02*
X109146250Y-52180000D01*
X107246250Y-69127500D02*
X109146250Y-69130000D01*
%TO.C,R6*%
X103052609Y-54970000D02*
X103359891Y-54970000D01*
X103052609Y-55730000D02*
X103359891Y-55730000D01*
%TO.C,D2*%
X99076250Y-60575000D02*
X101361250Y-60575000D01*
X101361250Y-59105000D02*
X99076250Y-59105000D01*
X101361250Y-60575000D02*
X101361250Y-59105000D01*
D10*
%TO.C,D7*%
X104306250Y-57230000D02*
G75*
G02*
X104206250Y-57230000I-50000J0D01*
G01*
X104206250Y-57230000D02*
G75*
G02*
X104306250Y-57230000I50000J0D01*
G01*
D14*
%TO.C,J2*%
X86646250Y-63500000D02*
X86646250Y-68000000D01*
X86646250Y-68000000D02*
X89446250Y-68000000D01*
X89446250Y-63500000D02*
X86646250Y-63500000D01*
X91946250Y-62750000D02*
X94346250Y-62750000D01*
X91946250Y-68750000D02*
X94346250Y-68750000D01*
X96146250Y-64550000D02*
X96146250Y-66950000D01*
D10*
%TO.C,D13*%
X103078139Y-67041888D02*
G75*
G02*
X102978137Y-67041888I-50001J0D01*
G01*
X102978137Y-67041888D02*
G75*
G02*
X103078139Y-67041888I50001J0D01*
G01*
D13*
%TO.C,R9*%
X98516250Y-57896359D02*
X98516250Y-58203641D01*
X99276250Y-57896359D02*
X99276250Y-58203641D01*
%TO.C,D1*%
X89571250Y-60015000D02*
X89571250Y-61485000D01*
X89571250Y-61485000D02*
X91856250Y-61485000D01*
X91856250Y-60015000D02*
X89571250Y-60015000D01*
D10*
%TO.C,D10*%
X104306250Y-63460000D02*
G75*
G02*
X104206250Y-63460000I-50000J0D01*
G01*
X104206250Y-63460000D02*
G75*
G02*
X104306250Y-63460000I50000J0D01*
G01*
D13*
%TO.C,C11*%
X97426250Y-64797836D02*
X97426250Y-64582164D01*
X98146250Y-64797836D02*
X98146250Y-64582164D01*
%TO.C,R3*%
X98516250Y-67896359D02*
X98516250Y-68203641D01*
X99276250Y-67896359D02*
X99276250Y-68203641D01*
D10*
%TO.C,D11*%
X102868139Y-53668112D02*
G75*
G02*
X102768137Y-53668112I-50001J0D01*
G01*
X102768137Y-53668112D02*
G75*
G02*
X102868139Y-53668112I50001J0D01*
G01*
D13*
%TO.C,R5*%
X103052609Y-53970000D02*
X103359891Y-53970000D01*
X103052609Y-54730000D02*
X103359891Y-54730000D01*
%TO.C,R12*%
X97516250Y-68203641D02*
X97516250Y-67896359D01*
X98276250Y-68203641D02*
X98276250Y-67896359D01*
%TO.C,R11*%
X97516250Y-58203641D02*
X97516250Y-57896359D01*
X98276250Y-58203641D02*
X98276250Y-57896359D01*
D14*
%TO.C,J1*%
X86646250Y-53500000D02*
X86646250Y-58000000D01*
X86646250Y-58000000D02*
X89446250Y-58000000D01*
X89446250Y-53500000D02*
X86646250Y-53500000D01*
X91946250Y-52750000D02*
X94346250Y-52750000D01*
X91946250Y-58750000D02*
X94346250Y-58750000D01*
X96146250Y-54550000D02*
X96146250Y-56950000D01*
D13*
%TO.C,R1*%
X99516250Y-67896359D02*
X99516250Y-68203641D01*
X100276250Y-67896359D02*
X100276250Y-68203641D01*
%TO.C,C1*%
X97426250Y-54797836D02*
X97426250Y-54582164D01*
X98146250Y-54797836D02*
X98146250Y-54582164D01*
%TO.C,R14*%
X103052609Y-63970000D02*
X103359891Y-63970000D01*
X103052609Y-64730000D02*
X103359891Y-64730000D01*
D10*
%TO.C,D5*%
X96676250Y-55210000D02*
G75*
G02*
X96576250Y-55210000I-50000J0D01*
G01*
X96576250Y-55210000D02*
G75*
G02*
X96676250Y-55210000I50000J0D01*
G01*
%TO.C,U2*%
X98646250Y-54750000D02*
X98896250Y-54500000D01*
X98646250Y-55150000D02*
X98646250Y-55170000D01*
X98646250Y-55550000D02*
X98646250Y-55570000D01*
X98646250Y-55950000D02*
X98646250Y-55970000D01*
X98646250Y-56350000D02*
X98646250Y-56370000D01*
X98646250Y-57000000D02*
X98646250Y-56750000D01*
X101146250Y-54500000D02*
X98896250Y-54500000D01*
X101146250Y-54500000D02*
X101146250Y-54750000D01*
X101146250Y-55150000D02*
X101146250Y-55170000D01*
X101146250Y-55550000D02*
X101146250Y-55570000D01*
X101146250Y-55950000D02*
X101146250Y-55970000D01*
X101146250Y-56350000D02*
X101146250Y-56370000D01*
X101146250Y-57000000D02*
X98646250Y-57000000D01*
X101146250Y-57000000D02*
X101146250Y-56750000D01*
D13*
%TO.C,R16*%
X103052609Y-65970000D02*
X103359891Y-65970000D01*
X103052609Y-66730000D02*
X103359891Y-66730000D01*
D10*
%TO.C,D9*%
X104596250Y-55890000D02*
G75*
G02*
X104496250Y-55890000I-50000J0D01*
G01*
X104496250Y-55890000D02*
G75*
G02*
X104596250Y-55890000I50000J0D01*
G01*
%TO.C,D6*%
X96676250Y-65210000D02*
G75*
G02*
X96576250Y-65210000I-50000J0D01*
G01*
X96576250Y-65210000D02*
G75*
G02*
X96676250Y-65210000I50000J0D01*
G01*
D13*
%TO.C,R2*%
X100516250Y-67896359D02*
X100516250Y-68203641D01*
X101276250Y-67896359D02*
X101276250Y-68203641D01*
%TO.C,R7*%
X103052609Y-55970000D02*
X103359891Y-55970000D01*
X103052609Y-56730000D02*
X103359891Y-56730000D01*
D10*
%TO.C,D8*%
X104596250Y-64810000D02*
G75*
G02*
X104496250Y-64810000I-50000J0D01*
G01*
X104496250Y-64810000D02*
G75*
G02*
X104596250Y-64810000I50000J0D01*
G01*
D13*
%TO.C,R10*%
X93948992Y-60227500D02*
X94423508Y-60227500D01*
X93948992Y-61272500D02*
X94423508Y-61272500D01*
D10*
%TO.C,U4*%
X98646250Y-64750000D02*
X98896250Y-64500000D01*
X98646250Y-65150000D02*
X98646250Y-65170000D01*
X98646250Y-65550000D02*
X98646250Y-65570000D01*
X98646250Y-65950000D02*
X98646250Y-65970000D01*
X98646250Y-66350000D02*
X98646250Y-66370000D01*
X98646250Y-67000000D02*
X98646250Y-66750000D01*
X101146250Y-64500000D02*
X98896250Y-64500000D01*
X101146250Y-64500000D02*
X101146250Y-64750000D01*
X101146250Y-65150000D02*
X101146250Y-65170000D01*
X101146250Y-65550000D02*
X101146250Y-65570000D01*
X101146250Y-65950000D02*
X101146250Y-65970000D01*
X101146250Y-66350000D02*
X101146250Y-66370000D01*
X101146250Y-67000000D02*
X98646250Y-67000000D01*
X101146250Y-67000000D02*
X101146250Y-66750000D01*
D13*
%TO.C,R15*%
X103052609Y-64970000D02*
X103359891Y-64970000D01*
X103052609Y-65730000D02*
X103359891Y-65730000D01*
%TO.C,D3*%
X99096250Y-62395000D02*
X101381250Y-62395000D01*
X101381250Y-60925000D02*
X99096250Y-60925000D01*
X101381250Y-62395000D02*
X101381250Y-60925000D01*
%TD*%
M02*
