  0
SECTION
  2
HEADER
  9
$ANGBASE
  50
0.0
  9
$ANGDIR
  70
1
  9
$MEASUREMENT
  70
1
  0
ENDSEC
  0
SECTION
  2
TABLES
  0
TABLE
  2
LTYPE
  70
4
  0
LTYPE
  5
40F
  2
CONTINUOUS
  70
0
  3
Solid line
  72
65
  73
0
  40
0.0
  0
LTYPE
  5
410
  2
DASHDOT
 70
0
  3
Dash Dot ____ _ ____ _
 72
65
 73
4
 40
2.0
 49
1.25
 49
-0.25
 49
0.25
 49
-0.25
  0
LTYPE
  5
411
  2
DASHED
 70
0
  3
Dashed __ __ __ __ __
 72
65
 73
2
 40
0.75
 49
0.5
 49
-0.25
  0
LTYPE
  5
43B
  2
DOTTED
 70
0
  3
Dotted .  .  .  .
 72
65
 73
2
 40
0.2
 49
0.0
 49
-0.2
  0
ENDTAB
  0
TABLE
  2
STYLE
  70
4
  0
STYLE
  2
KICAD
  70
0
  40
0
  41
1
  42
1
  50
0
  71
0
  3
isocp.shx
  0
STYLE
  2
KICADB
  70
0
  40
0
  41
1
  42
1
  50
0
  71
0
  3
isocp.shx
  0
STYLE
  2
KICADI
  70
0
  40
0
  41
1
  42
1
  50
15
  71
0
  3
isocp.shx
  0
STYLE
  2
KICADBI
  70
0
  40
0
  41
1
  42
1
  50
15
  71
0
  3
isocp.shx
  0
ENDTAB
  0
TABLE
  2
LAYER
  70
1
  0
LAYER
  2
BLACK
  70
0
  62
7
  6
CONTINUOUS
  0
ENDTAB
  0
ENDSEC
  0
SECTION
  2
ENTITIES
0
LINE
8
BLACK
6
CONTINUOUS
10
63.2109479999999948
20
-66.0136339999999961
11
63.2664439999999999
21
-66.0832230000000038
0
LINE
8
BLACK
6
CONTINUOUS
10
63.2664439999999999
20
-66.0832230000000038
11
63.2862499999999955
21
-66.1700000000000017
0
LINE
8
BLACK
6
CONTINUOUS
10
63.2862499999999955
20
-66.1700000000000017
11
63.2664439999999999
21
-66.2567769999999996
0
LINE
8
BLACK
6
CONTINUOUS
10
63.2664439999999999
20
-66.2567769999999996
11
63.2109479999999948
21
-66.3263659999999931
0
LINE
8
BLACK
6
CONTINUOUS
10
63.2109479999999948
20
-66.3263659999999931
11
63.130753999999996
21
-66.3649860000000018
0
LINE
8
BLACK
6
CONTINUOUS
10
63.130753999999996
20
-66.3649860000000018
11
63.0417459999999963
21
-66.3649860000000018
0
LINE
8
BLACK
6
CONTINUOUS
10
63.0417459999999963
20
-66.3649860000000018
11
62.9615519999999975
21
-66.3263659999999931
0
LINE
8
BLACK
6
CONTINUOUS
10
62.9615519999999975
20
-66.3263659999999931
11
62.9060559999999995
21
-66.2567769999999996
0
LINE
8
BLACK
6
CONTINUOUS
10
62.9060559999999995
20
-66.2567769999999996
11
62.8862499999999969
21
-66.1700000000000017
0
LINE
8
BLACK
6
CONTINUOUS
10
62.8862499999999969
20
-66.1700000000000017
11
62.9060559999999995
21
-66.0832230000000038
0
LINE
8
BLACK
6
CONTINUOUS
10
62.9060559999999995
20
-66.0832230000000038
11
62.9615519999999975
21
-66.0136339999999961
0
LINE
8
BLACK
6
CONTINUOUS
10
62.9615519999999975
20
-66.0136339999999961
11
63.0417459999999963
21
-65.9750140000000016
0
LINE
8
BLACK
6
CONTINUOUS
10
63.0417459999999963
20
-65.9750140000000016
11
63.130753999999996
21
-65.9750140000000016
0
LINE
8
BLACK
6
CONTINUOUS
10
63.130753999999996
20
-65.9750140000000016
11
63.2109479999999948
21
-66.0136339999999961
0
LINE
8
BLACK
6
CONTINUOUS
10
62.0209479999999971
20
-61.5936339999999944
11
62.0764439999999951
21
-61.663222999999995
0
LINE
8
BLACK
6
CONTINUOUS
10
62.0764439999999951
20
-61.663222999999995
11
62.0962499999999977
21
-61.75
0
LINE
8
BLACK
6
CONTINUOUS
10
62.0962499999999977
20
-61.75
11
62.0764439999999951
21
-61.8367769999999979
0
LINE
8
BLACK
6
CONTINUOUS
10
62.0764439999999951
20
-61.8367769999999979
11
62.0209479999999971
21
-61.9063659999999985
0
LINE
8
BLACK
6
CONTINUOUS
10
62.0209479999999971
20
-61.9063659999999985
11
61.9407539999999983
21
-61.9449860000000001
0
LINE
8
BLACK
6
CONTINUOUS
10
61.9407539999999983
20
-61.9449860000000001
11
61.8517459999999986
21
-61.9449860000000001
0
LINE
8
BLACK
6
CONTINUOUS
10
61.8517459999999986
20
-61.9449860000000001
11
61.7715519999999998
21
-61.9063659999999985
0
LINE
8
BLACK
6
CONTINUOUS
10
61.7715519999999998
20
-61.9063659999999985
11
61.7160559999999947
21
-61.8367769999999979
0
LINE
8
BLACK
6
CONTINUOUS
10
61.7160559999999947
20
-61.8367769999999979
11
61.6962499999999991
21
-61.75
0
LINE
8
BLACK
6
CONTINUOUS
10
61.6962499999999991
20
-61.75
11
61.7160559999999947
21
-61.663222999999995
0
LINE
8
BLACK
6
CONTINUOUS
10
61.7160559999999947
20
-61.663222999999995
11
61.7715519999999998
21
-61.5936339999999944
0
LINE
8
BLACK
6
CONTINUOUS
10
61.7715519999999998
20
-61.5936339999999944
11
61.8517459999999986
21
-61.5550139999999999
0
LINE
8
BLACK
6
CONTINUOUS
10
61.8517459999999986
20
-61.5550139999999999
11
61.9407539999999983
21
-61.5550139999999999
0
LINE
8
BLACK
6
CONTINUOUS
10
61.9407539999999983
20
-61.5550139999999999
11
62.0209479999999971
21
-61.5936339999999944
0
LINE
8
BLACK
6
CONTINUOUS
10
63.2109479999999948
20
-56.0136339999999961
11
63.2664439999999999
21
-56.0832229999999967
0
LINE
8
BLACK
6
CONTINUOUS
10
63.2664439999999999
20
-56.0832229999999967
11
63.2862499999999955
21
-56.1699999999999946
0
LINE
8
BLACK
6
CONTINUOUS
10
63.2862499999999955
20
-56.1699999999999946
11
63.2664439999999999
21
-56.2567769999999996
0
LINE
8
BLACK
6
CONTINUOUS
10
63.2664439999999999
20
-56.2567769999999996
11
63.2109479999999948
21
-56.3263660000000002
0
LINE
8
BLACK
6
CONTINUOUS
10
63.2109479999999948
20
-56.3263660000000002
11
63.130753999999996
21
-56.3649859999999947
0
LINE
8
BLACK
6
CONTINUOUS
10
63.130753999999996
20
-56.3649859999999947
11
63.0417459999999963
21
-56.3649859999999947
0
LINE
8
BLACK
6
CONTINUOUS
10
63.0417459999999963
20
-56.3649859999999947
11
62.9615519999999975
21
-56.3263660000000002
0
LINE
8
BLACK
6
CONTINUOUS
10
62.9615519999999975
20
-56.3263660000000002
11
62.9060559999999995
21
-56.2567769999999996
0
LINE
8
BLACK
6
CONTINUOUS
10
62.9060559999999995
20
-56.2567769999999996
11
62.8862499999999969
21
-56.1699999999999946
0
LINE
8
BLACK
6
CONTINUOUS
10
62.8862499999999969
20
-56.1699999999999946
11
62.9060559999999995
21
-56.0832229999999967
0
LINE
8
BLACK
6
CONTINUOUS
10
62.9060559999999995
20
-56.0832229999999967
11
62.9615519999999975
21
-56.0136339999999961
0
LINE
8
BLACK
6
CONTINUOUS
10
62.9615519999999975
20
-56.0136339999999961
11
63.0417459999999963
21
-55.9750139999999945
0
LINE
8
BLACK
6
CONTINUOUS
10
63.0417459999999963
20
-55.9750139999999945
11
63.130753999999996
21
-55.9750139999999945
0
LINE
8
BLACK
6
CONTINUOUS
10
63.130753999999996
20
-55.9750139999999945
11
63.2109479999999948
21
-56.0136339999999961
0
LINE
8
BLACK
6
CONTINUOUS
10
74.8277369999999991
20
-52.0685129999999958
11
74.8457499999999953
21
-52.1119999999999948
0
LINE
8
BLACK
6
CONTINUOUS
10
74.8457499999999953
20
-52.1119999999999948
11
74.8457499999999953
21
-54.6879999999999953
0
LINE
8
BLACK
6
CONTINUOUS
10
74.8457499999999953
20
-54.6879999999999953
11
74.8277369999999991
21
-54.7314869999999942
0
LINE
8
BLACK
6
CONTINUOUS
10
74.8277369999999991
20
-54.7314869999999942
11
74.7842500000000001
21
-54.7494999999999976
0
LINE
8
BLACK
6
CONTINUOUS
10
74.7842500000000001
20
-54.7494999999999976
11
74.082177999999999
21
-54.7494999999999976
0
LINE
8
BLACK
6
CONTINUOUS
10
74.082177999999999
20
-54.7494999999999976
11
73.9565109999999919
21
-54.7744969999999967
0
LINE
8
BLACK
6
CONTINUOUS
10
73.9565109999999919
20
-54.7744969999999967
11
73.9564969999999988
21
-54.7745010000000008
0
LINE
8
BLACK
6
CONTINUOUS
10
73.9564969999999988
20
-54.7745010000000008
11
73.838128999999995
21
-54.8235320000000002
0
LINE
8
BLACK
6
CONTINUOUS
10
73.838128999999995
20
-54.8235320000000002
11
73.838121000000001
21
-54.8235359999999972
0
LINE
8
BLACK
6
CONTINUOUS
10
73.838121000000001
20
-54.8235359999999972
11
73.7315809999999914
21
-54.894722999999999
0
LINE
8
BLACK
6
CONTINUOUS
10
73.7315809999999914
20
-54.894722999999999
11
73.6409730000000025
21
-54.9853309999999951
0
LINE
8
BLACK
6
CONTINUOUS
10
73.6409730000000025
20
-54.9853309999999951
11
73.5697859999999935
21
-55.0918709999999976
0
LINE
8
BLACK
6
CONTINUOUS
10
73.5697859999999935
20
-55.0918709999999976
11
73.5697820000000036
21
-55.0918789999999987
0
LINE
8
BLACK
6
CONTINUOUS
10
73.5697820000000036
20
-55.0918789999999987
11
73.52075099999999
21
-55.2102469999999954
0
LINE
8
BLACK
6
CONTINUOUS
10
73.52075099999999
20
-55.2102469999999954
11
73.5207470000000001
21
-55.2102609999999956
0
LINE
8
BLACK
6
CONTINUOUS
10
73.5207470000000001
20
-55.2102609999999956
11
73.495750000000001
21
-55.3359269999999981
0
LINE
8
BLACK
6
CONTINUOUS
10
73.495750000000001
20
-55.3359269999999981
11
73.495750000000001
21
-55.4640719999999945
0
LINE
8
BLACK
6
CONTINUOUS
10
73.495750000000001
20
-55.4640719999999945
11
73.5207470000000001
21
-55.589737999999997
0
LINE
8
BLACK
6
CONTINUOUS
10
73.5207470000000001
20
-55.589737999999997
11
73.52075099999999
21
-55.5897519999999972
0
LINE
8
BLACK
6
CONTINUOUS
10
73.52075099999999
20
-55.5897519999999972
11
73.5697820000000036
21
-55.708120000000001
0
LINE
8
BLACK
6
CONTINUOUS
10
73.5697820000000036
20
-55.708120000000001
11
73.569784999999996
21
-55.7081269999999975
0
LINE
8
BLACK
6
CONTINUOUS
10
73.569784999999996
20
-55.7081269999999975
11
73.5697859999999935
21
-55.708127999999995
0
LINE
8
BLACK
6
CONTINUOUS
10
73.5697859999999935
20
-55.708127999999995
11
73.6409730000000025
21
-55.8146679999999975
0
LINE
8
BLACK
6
CONTINUOUS
10
73.6409730000000025
20
-55.8146679999999975
11
73.7315809999999914
21
-55.9052760000000006
0
LINE
8
BLACK
6
CONTINUOUS
10
73.7315809999999914
20
-55.9052760000000006
11
73.7315799999999939
21
-55.9052760000000006
0
LINE
8
BLACK
6
CONTINUOUS
10
73.7315799999999939
20
-55.9052760000000006
11
73.7850310000000036
21
-55.9409899999999993
0
LINE
8
BLACK
6
CONTINUOUS
10
73.7850310000000036
20
-55.9409899999999993
11
73.838122999999996
21
-55.9764649999999975
0
LINE
8
BLACK
6
CONTINUOUS
10
73.838122999999996
20
-55.9764649999999975
11
73.885475999999997
21
-55.9960789999999946
0
LINE
8
BLACK
6
CONTINUOUS
10
73.885475999999997
20
-55.9960789999999946
11
73.9564969999999988
21
-56.0254979999999989
0
LINE
8
BLACK
6
CONTINUOUS
10
73.9564969999999988
20
-56.0254979999999989
11
73.9565020000000004
21
-56.0254989999999964
0
LINE
8
BLACK
6
CONTINUOUS
10
73.9565020000000004
20
-56.0254989999999964
11
73.9565059999999903
21
-56.0255009999999984
0
LINE
8
BLACK
6
CONTINUOUS
10
73.9565059999999903
20
-56.0255009999999984
11
74.0821770000000015
21
-56.050498999999995
0
LINE
8
BLACK
6
CONTINUOUS
10
74.0821770000000015
20
-56.050498999999995
11
74.082177999999999
21
-56.0504999999999995
0
LINE
8
BLACK
6
CONTINUOUS
10
74.082177999999999
20
-56.0504999999999995
11
74.0821809999999914
21
-56.0504999999999995
0
LINE
8
BLACK
6
CONTINUOUS
10
74.0821809999999914
20
-56.0504999999999995
11
74.7842500000000001
21
-56.0504999999999995
0
LINE
8
BLACK
6
CONTINUOUS
10
74.7842500000000001
20
-56.0504999999999995
11
74.8277369999999991
21
-56.0685129999999958
0
LINE
8
BLACK
6
CONTINUOUS
10
74.8277369999999991
20
-56.0685129999999958
11
74.8457499999999953
21
-56.1119999999999948
0
LINE
8
BLACK
6
CONTINUOUS
10
74.8457499999999953
20
-56.1119999999999948
11
74.8457499999999953
21
-57.2279999999999944
0
LINE
8
BLACK
6
CONTINUOUS
10
74.8457499999999953
20
-57.2279999999999944
11
74.8277369999999991
21
-57.2714870000000005
0
LINE
8
BLACK
6
CONTINUOUS
10
74.8277369999999991
20
-57.2714870000000005
11
74.7842500000000001
21
-57.2894999999999968
0
LINE
8
BLACK
6
CONTINUOUS
10
74.7842500000000001
20
-57.2894999999999968
11
74.082177999999999
21
-57.2894999999999968
0
LINE
8
BLACK
6
CONTINUOUS
10
74.082177999999999
20
-57.2894999999999968
11
73.9565109999999919
21
-57.3144969999999958
0
LINE
8
BLACK
6
CONTINUOUS
10
73.9565109999999919
20
-57.3144969999999958
11
73.9564969999999988
21
-57.3145009999999999
0
LINE
8
BLACK
6
CONTINUOUS
10
73.9564969999999988
20
-57.3145009999999999
11
73.838128999999995
21
-57.3635319999999993
0
LINE
8
BLACK
6
CONTINUOUS
10
73.838128999999995
20
-57.3635319999999993
11
73.838121000000001
21
-57.3635359999999963
0
LINE
8
BLACK
6
CONTINUOUS
10
73.838121000000001
20
-57.3635359999999963
11
73.7315809999999914
21
-57.4347229999999982
0
LINE
8
BLACK
6
CONTINUOUS
10
73.7315809999999914
20
-57.4347229999999982
11
73.6409730000000025
21
-57.5253309999999942
0
LINE
8
BLACK
6
CONTINUOUS
10
73.6409730000000025
20
-57.5253309999999942
11
73.569783000000001
21
-57.6318750000000009
0
LINE
8
BLACK
6
CONTINUOUS
10
73.569783000000001
20
-57.6318750000000009
11
73.5683870000000013
21
-57.634488999999995
0
LINE
8
BLACK
6
CONTINUOUS
10
73.5683870000000013
20
-57.634488999999995
11
73.5320030000000031
21
-57.6643509999999964
0
LINE
8
BLACK
6
CONTINUOUS
10
73.5320030000000031
20
-57.6643509999999964
11
73.5141479999999916
21
-57.6669999999999945
0
LINE
8
BLACK
6
CONTINUOUS
10
73.5141479999999916
20
-57.6669999999999945
11
73.0119459999999947
21
-57.6669999999999945
0
LINE
8
BLACK
6
CONTINUOUS
10
73.0119459999999947
20
-57.6669999999999945
11
72.9116070000000036
21
-57.7085620000000006
0
LINE
8
BLACK
6
CONTINUOUS
10
72.9116070000000036
20
-57.7085620000000006
11
71.4457510000000013
21
-59.1744169999999983
0
LINE
8
BLACK
6
CONTINUOUS
10
71.4457510000000013
20
-59.1744169999999983
11
71.445689999999999
21
-59.1744689999999949
0
LINE
8
BLACK
6
CONTINUOUS
10
71.445689999999999
20
-59.1744689999999949
11
71.4262080000000026
21
-59.1939549999999954
0
LINE
8
BLACK
6
CONTINUOUS
10
71.4262080000000026
20
-59.1939549999999954
11
71.4261599999999959
21
-59.1939749999999947
0
LINE
8
BLACK
6
CONTINUOUS
10
71.4261599999999959
20
-59.1939749999999947
11
71.3650859999999909
21
-59.2550639999999973
0
LINE
8
BLACK
6
CONTINUOUS
10
71.3650859999999909
20
-59.2550639999999973
11
71.3002539999999954
21
-59.3582669999999979
0
LINE
8
BLACK
6
CONTINUOUS
10
71.3002539999999954
20
-59.3582669999999979
11
71.3002499999999912
21
-59.358274999999999
0
LINE
8
BLACK
6
CONTINUOUS
10
71.3002499999999912
20
-59.358274999999999
11
71.2600099999999941
21
-59.4733039999999988
0
LINE
8
BLACK
6
CONTINUOUS
10
71.2600099999999941
20
-59.4733039999999988
11
71.2600099999999941
21
-59.4733049999999963
0
LINE
8
BLACK
6
CONTINUOUS
10
71.2600099999999941
20
-59.4733049999999963
11
71.2600089999999966
21
-59.4733079999999958
0
LINE
8
BLACK
6
CONTINUOUS
10
71.2600089999999966
20
-59.4733079999999958
11
71.2600089999999966
21
-59.4733099999999979
0
LINE
8
BLACK
6
CONTINUOUS
10
71.2600089999999966
20
-59.4733099999999979
11
71.2463690000000014
21
-59.5944219999999945
0
LINE
8
BLACK
6
CONTINUOUS
10
71.2463690000000014
20
-59.5944219999999945
11
71.2600180000000023
21
-59.7155319999999961
0
LINE
8
BLACK
6
CONTINUOUS
10
71.2600180000000023
20
-59.7155319999999961
11
71.2998979999999989
21
-59.8294999999999959
0
LINE
8
BLACK
6
CONTINUOUS
10
71.2998979999999989
20
-59.8294999999999959
11
71.3002719999999925
21
-59.8305699999999945
0
LINE
8
BLACK
6
CONTINUOUS
10
71.3002719999999925
20
-59.8305699999999945
11
71.3651129999999938
21
-59.9337710000000001
0
LINE
8
BLACK
6
CONTINUOUS
10
71.3651129999999938
20
-59.9337710000000001
11
71.3658760000000001
21
-59.9347279999999998
0
LINE
8
BLACK
6
CONTINUOUS
10
71.3658760000000001
20
-59.9347279999999998
11
71.3660119999999978
21
-59.9352019999999968
0
LINE
8
BLACK
6
CONTINUOUS
10
71.3660119999999978
20
-59.9352019999999968
11
71.3669489999999911
21
-59.9366929999999982
0
LINE
8
BLACK
6
CONTINUOUS
10
71.3669489999999911
20
-59.9366929999999982
11
71.3665189999999967
21
-59.9369619999999941
0
LINE
8
BLACK
6
CONTINUOUS
10
71.3665189999999967
20
-59.9369619999999941
11
71.3789000000000016
21
-59.9799599999999984
0
LINE
8
BLACK
6
CONTINUOUS
10
71.3789000000000016
20
-59.9799599999999984
11
71.361274999999992
21
-60.0165529999999947
0
LINE
8
BLACK
6
CONTINUOUS
10
71.361274999999992
20
-60.0165529999999947
11
70.9642359999999996
21
-60.4135929999999988
0
LINE
8
BLACK
6
CONTINUOUS
10
70.9642359999999996
20
-60.4135929999999988
11
70.9207490000000007
21
-60.431605999999995
0
LINE
8
BLACK
6
CONTINUOUS
10
70.9207490000000007
20
-60.431605999999995
11
70.8845749999999981
21
-60.4189469999999957
0
LINE
8
BLACK
6
CONTINUOUS
10
70.8845749999999981
20
-60.4189469999999957
11
70.8843760000000032
21
-60.4192649999999958
0
LINE
8
BLACK
6
CONTINUOUS
10
70.8843760000000032
20
-60.4192649999999958
11
70.8829819999999984
21
-60.4183889999999977
0
LINE
8
BLACK
6
CONTINUOUS
10
70.8829819999999984
20
-60.4183889999999977
11
70.8824010000000015
21
-60.4181859999999986
0
LINE
8
BLACK
6
CONTINUOUS
10
70.8824010000000015
20
-60.4181859999999986
11
70.8814449999999994
21
-60.4174229999999994
0
LINE
8
BLACK
6
CONTINUOUS
10
70.8814449999999994
20
-60.4174229999999994
11
70.7782490000000024
21
-60.3525879999999972
0
LINE
8
BLACK
6
CONTINUOUS
10
70.7782490000000024
20
-60.3525879999999972
11
70.7782419999999917
21
-60.3525849999999977
0
LINE
8
BLACK
6
CONTINUOUS
10
70.7782419999999917
20
-60.3525849999999977
11
70.6632099999999923
21
-60.3123369999999994
0
LINE
8
BLACK
6
CONTINUOUS
10
70.6632099999999923
20
-60.3123369999999994
11
70.6632029999999958
21
-60.3123359999999948
0
LINE
8
BLACK
6
CONTINUOUS
10
70.6632029999999958
20
-60.3123359999999948
11
70.5420950000000033
21
-60.2986930000000001
0
LINE
8
BLACK
6
CONTINUOUS
10
70.5420950000000033
20
-60.2986930000000001
11
70.5420889999999901
21
-60.2986930000000001
0
LINE
8
BLACK
6
CONTINUOUS
10
70.5420889999999901
20
-60.2986930000000001
11
70.42098399999999
21
-60.3123379999999969
0
LINE
8
BLACK
6
CONTINUOUS
10
70.42098399999999
20
-60.3123379999999969
11
70.4209829999999926
21
-60.3123379999999969
0
LINE
8
BLACK
6
CONTINUOUS
10
70.4209829999999926
20
-60.3123379999999969
11
70.3059360000000027
21
-60.3525949999999938
0
LINE
8
BLACK
6
CONTINUOUS
10
70.3059360000000027
20
-60.3525949999999938
11
70.2027319999999975
21
-60.4174409999999966
0
LINE
8
BLACK
6
CONTINUOUS
10
70.2027319999999975
20
-60.4174409999999966
11
70.2015430000000009
21
-60.4186300000000003
0
LINE
8
BLACK
6
CONTINUOUS
10
70.2015430000000009
20
-60.4186300000000003
11
70.2015310000000028
21
-60.4186399999999963
0
LINE
8
BLACK
6
CONTINUOUS
10
70.2015310000000028
20
-60.4186399999999963
11
70.1885659999999945
21
-60.431605999999995
0
LINE
8
BLACK
6
CONTINUOUS
10
70.1885659999999945
20
-60.431605999999995
11
70.1596440000000001
21
-60.4605279999999965
0
LINE
8
BLACK
6
CONTINUOUS
10
70.1596440000000001
20
-60.4605279999999965
11
70.1256039999999956
21
-60.4945669999999964
0
LINE
8
BLACK
6
CONTINUOUS
10
70.1256039999999956
20
-60.4945669999999964
11
69.6984759999999994
21
-60.9216939999999951
0
LINE
8
BLACK
6
CONTINUOUS
10
69.6984759999999994
20
-60.9216939999999951
11
69.698475000000002
21
-60.9216949999999997
0
LINE
8
BLACK
6
CONTINUOUS
10
69.698475000000002
20
-60.9216949999999997
11
69.474812
21
-61.1453559999999996
0
LINE
8
BLACK
6
CONTINUOUS
10
69.474812
20
-61.1453559999999996
11
69.4526809999999983
21
-61.1987869999999958
0
LINE
8
BLACK
6
CONTINUOUS
10
69.4526809999999983
20
-61.1987869999999958
11
69.4526800000000009
21
-61.1987869999999958
0
LINE
8
BLACK
6
CONTINUOUS
10
69.4526800000000009
20
-61.1987869999999958
11
69.4332509999999985
21
-61.2456910000000008
0
LINE
8
BLACK
6
CONTINUOUS
10
69.4332509999999985
20
-61.2456910000000008
11
69.433250000000001
21
-61.2456969999999998
0
LINE
8
BLACK
6
CONTINUOUS
10
69.433250000000001
20
-61.2456969999999998
11
69.433250000000001
21
-63.4746019999999973
0
LINE
8
BLACK
6
CONTINUOUS
10
69.433250000000001
20
-63.4746019999999973
11
69.4299239999999998
21
-63.4945529999999962
0
LINE
8
BLACK
6
CONTINUOUS
10
69.4299239999999998
20
-63.4945529999999962
11
69.4282769999999942
21
-63.4993519999999947
0
LINE
8
BLACK
6
CONTINUOUS
10
69.4282769999999942
20
-63.4993519999999947
11
69.4127029999999934
21
-63.6148179999999996
0
LINE
8
BLACK
6
CONTINUOUS
10
69.4127029999999934
20
-63.6148179999999996
11
69.409514999999999
21
-63.6277159999999995
0
LINE
8
BLACK
6
CONTINUOUS
10
69.409514999999999
20
-63.6277159999999995
11
69.380740000000003
21
-63.7064120000000003
0
LINE
8
BLACK
6
CONTINUOUS
10
69.380740000000003
20
-63.7064120000000003
11
69.3807379999999938
21
-63.7064179999999993
0
LINE
8
BLACK
6
CONTINUOUS
10
69.3807379999999938
20
-63.7064179999999993
11
69.3758229999999969
21
-63.7225079999999977
0
LINE
8
BLACK
6
CONTINUOUS
10
69.3758229999999969
20
-63.7225079999999977
11
69.3752130000000022
21
-63.7249780000000001
0
LINE
8
BLACK
6
CONTINUOUS
10
69.3752130000000022
20
-63.7249780000000001
11
69.3752089999999981
21
-63.7249949999999998
0
LINE
8
BLACK
6
CONTINUOUS
10
69.3752089999999981
20
-63.7249949999999998
11
69.3745380000000011
21
-63.7285210000000006
0
LINE
8
BLACK
6
CONTINUOUS
10
69.3745380000000011
20
-63.7285210000000006
11
69.3689219999999978
21
-63.7449299999999965
0
LINE
8
BLACK
6
CONTINUOUS
10
69.3689219999999978
20
-63.7449299999999965
11
69.3446769999999901
21
-63.7925139999999971
0
LINE
8
BLACK
6
CONTINUOUS
10
69.3446769999999901
20
-63.7925139999999971
11
69.3446739999999977
21
-63.7925229999999956
0
LINE
8
BLACK
6
CONTINUOUS
10
69.3446739999999977
20
-63.7925229999999956
11
69.3260690000000039
21
-63.9099999999999966
0
LINE
8
BLACK
6
CONTINUOUS
10
69.3260690000000039
20
-63.9099999999999966
11
69.3446749999999952
21
-64.0274809999999945
0
LINE
8
BLACK
6
CONTINUOUS
10
69.3446749999999952
20
-64.0274809999999945
11
69.3986759999999947
21
-64.1334650000000011
0
LINE
8
BLACK
6
CONTINUOUS
10
69.3986759999999947
20
-64.1334650000000011
11
69.4827839999999952
21
-64.2175730000000016
0
LINE
8
BLACK
6
CONTINUOUS
10
69.4827839999999952
20
-64.2175730000000016
11
69.5357759999999985
21
-64.2445730000000026
0
LINE
8
BLACK
6
CONTINUOUS
10
69.5357759999999985
20
-64.2445730000000026
11
69.5887680000000017
21
-64.2715740000000011
0
LINE
8
BLACK
6
CONTINUOUS
10
69.5887680000000017
20
-64.2715740000000011
11
69.7062499999999972
21
-64.290181000000004
0
LINE
8
BLACK
6
CONTINUOUS
10
69.7062499999999972
20
-64.290181000000004
11
69.8237319999999926
21
-64.2715740000000011
0
LINE
8
BLACK
6
CONTINUOUS
10
69.8237319999999926
20
-64.2715740000000011
11
69.9297150000000016
21
-64.2175730000000016
0
LINE
8
BLACK
6
CONTINUOUS
10
69.9297150000000016
20
-64.2175730000000016
11
69.9297159999999991
21
-64.2175730000000016
0
LINE
8
BLACK
6
CONTINUOUS
10
69.9297159999999991
20
-64.2175730000000016
11
70.0138230000000021
21
-64.1334659999999985
0
LINE
8
BLACK
6
CONTINUOUS
10
70.0138230000000021
20
-64.1334659999999985
11
70.0138230000000021
21
-64.1334650000000011
0
LINE
8
BLACK
6
CONTINUOUS
10
70.0138230000000021
20
-64.1334650000000011
11
70.0241070000000008
21
-64.1132810000000006
0
LINE
8
BLACK
6
CONTINUOUS
10
70.0241070000000008
20
-64.1132810000000006
11
70.0678240000000017
21
-64.027481999999992
0
LINE
8
BLACK
6
CONTINUOUS
10
70.0678240000000017
20
-64.027481999999992
11
70.0864309999999904
21
-63.9099999999999966
0
LINE
8
BLACK
6
CONTINUOUS
10
70.0864309999999904
20
-63.9099999999999966
11
70.0678240000000017
21
-63.7925179999999941
0
LINE
8
BLACK
6
CONTINUOUS
10
70.0678240000000017
20
-63.7925179999999941
11
70.0648979999999995
21
-63.7867759999999961
0
LINE
8
BLACK
6
CONTINUOUS
10
70.0648979999999995
20
-63.7867759999999961
11
70.043572999999995
21
-63.744923
0
LINE
8
BLACK
6
CONTINUOUS
10
70.043572999999995
20
-63.744923
11
70.0379549999999966
21
-63.7285019999999989
0
LINE
8
BLACK
6
CONTINUOUS
10
70.0379549999999966
20
-63.7285019999999989
11
70.0372819999999905
21
-63.7249679999999969
0
LINE
8
BLACK
6
CONTINUOUS
10
70.0372819999999905
20
-63.7249679999999969
11
70.0372799999999955
21
-63.7249599999999958
0
LINE
8
BLACK
6
CONTINUOUS
10
70.0372799999999955
20
-63.7249599999999958
11
70.0372770000000031
21
-63.7249439999999936
0
LINE
8
BLACK
6
CONTINUOUS
10
70.0372770000000031
20
-63.7249439999999936
11
70.0366700000000009
21
-63.7224900000000005
0
LINE
8
BLACK
6
CONTINUOUS
10
70.0366700000000009
20
-63.7224900000000005
11
70.0317620000000005
21
-63.7064269999999979
0
LINE
8
BLACK
6
CONTINUOUS
10
70.0317620000000005
20
-63.7064269999999979
11
70.0029799999999938
21
-63.6277159999999995
0
LINE
8
BLACK
6
CONTINUOUS
10
70.0029799999999938
20
-63.6277159999999995
11
69.9997939999999943
21
-63.6148199999999946
0
LINE
8
BLACK
6
CONTINUOUS
10
69.9997939999999943
20
-63.6148199999999946
11
69.9973189999999903
21
-63.5964649999999949
0
LINE
8
BLACK
6
CONTINUOUS
10
69.9973189999999903
20
-63.5964649999999949
11
69.9842220000000026
21
-63.4993519999999947
0
LINE
8
BLACK
6
CONTINUOUS
10
69.9842220000000026
20
-63.4993519999999947
11
69.981940999999992
21
-63.491895999999997
0
LINE
8
BLACK
6
CONTINUOUS
10
69.981940999999992
20
-63.491895999999997
11
69.9792499999999933
21
-63.473903
0
LINE
8
BLACK
6
CONTINUOUS
10
69.9792499999999933
20
-63.473903
11
69.9792499999999933
21
-61.4385549999999938
0
LINE
8
BLACK
6
CONTINUOUS
10
69.9792499999999933
20
-61.4385549999999938
11
69.9972630000000038
21
-61.3950679999999949
0
LINE
8
BLACK
6
CONTINUOUS
10
69.9972630000000038
20
-61.3950679999999949
11
70.0225119999999919
21
-61.3698189999999997
0
LINE
8
BLACK
6
CONTINUOUS
10
70.0225119999999919
20
-61.3698189999999997
11
70.0932049999999975
21
-61.2991269999999986
0
LINE
8
BLACK
6
CONTINUOUS
10
70.0932049999999975
20
-61.2991269999999986
11
70.0932049999999975
21
-61.299125999999994
0
LINE
8
BLACK
6
CONTINUOUS
10
70.0932049999999975
20
-61.299125999999994
11
70.1018519999999938
21
-61.2904789999999977
0
LINE
8
BLACK
6
CONTINUOUS
10
70.1018519999999938
20
-61.2904789999999977
11
70.1018529999999913
21
-61.2904759999999982
0
LINE
8
BLACK
6
CONTINUOUS
10
70.1018529999999913
20
-61.2904759999999982
11
70.498784999999998
21
-60.893544999999996
0
LINE
8
BLACK
6
CONTINUOUS
10
70.498784999999998
20
-60.893544999999996
11
70.5422709999999995
21
-60.8755329999999972
0
LINE
8
BLACK
6
CONTINUOUS
10
70.5422709999999995
20
-60.8755329999999972
11
70.5784379999999913
21
-60.888186999999995
0
LINE
8
BLACK
6
CONTINUOUS
10
70.5784379999999913
20
-60.888186999999995
11
70.5786389999999955
21
-60.8878679999999974
0
LINE
8
BLACK
6
CONTINUOUS
10
70.5786389999999955
20
-60.8878679999999974
11
70.5800389999999993
21
-60.8887469999999951
0
LINE
8
BLACK
6
CONTINUOUS
10
70.5800389999999993
20
-60.8887469999999951
11
70.5806139999999971
21
-60.8889489999999967
0
LINE
8
BLACK
6
CONTINUOUS
10
70.5806139999999971
20
-60.8889489999999967
11
70.5815589999999986
21
-60.8897019999999998
0
LINE
8
BLACK
6
CONTINUOUS
10
70.5815589999999986
20
-60.8897019999999998
11
70.5815630000000027
21
-60.8897059999999968
0
LINE
8
BLACK
6
CONTINUOUS
10
70.5815630000000027
20
-60.8897059999999968
11
70.6847640000000013
21
-60.954550999999995
0
LINE
8
BLACK
6
CONTINUOUS
10
70.6847640000000013
20
-60.954550999999995
11
70.7998070000000013
21
-60.994805999999997
0
LINE
8
BLACK
6
CONTINUOUS
10
70.7998070000000013
20
-60.994805999999997
11
70.7998079999999987
21
-60.994805999999997
0
LINE
8
BLACK
6
CONTINUOUS
10
70.7998079999999987
20
-60.994805999999997
11
70.7998089999999962
21
-60.9948069999999944
0
LINE
8
BLACK
6
CONTINUOUS
10
70.7998089999999962
20
-60.9948069999999944
11
70.9209189999999978
21
-61.0084519999999983
0
LINE
8
BLACK
6
CONTINUOUS
10
70.9209189999999978
20
-61.0084519999999983
11
70.9209230000000019
21
-61.0084519999999983
0
LINE
8
BLACK
6
CONTINUOUS
10
70.9209230000000019
20
-61.0084519999999983
11
70.9209269999999918
21
-61.0084519999999983
0
LINE
8
BLACK
6
CONTINUOUS
10
70.9209269999999918
20
-61.0084519999999983
11
71.042035999999996
21
-60.9948069999999944
0
LINE
8
BLACK
6
CONTINUOUS
10
71.042035999999996
20
-60.9948069999999944
11
71.042035999999996
21
-60.994805999999997
0
LINE
8
BLACK
6
CONTINUOUS
10
71.042035999999996
20
-60.994805999999997
11
71.0420390000000026
21
-60.994805999999997
0
LINE
8
BLACK
6
CONTINUOUS
10
71.0420390000000026
20
-60.994805999999997
11
71.1570820000000026
21
-60.954550999999995
0
LINE
8
BLACK
6
CONTINUOUS
10
71.1570820000000026
20
-60.954550999999995
11
71.2602830000000012
21
-60.8897059999999968
0
LINE
8
BLACK
6
CONTINUOUS
10
71.2602830000000012
20
-60.8897059999999968
11
71.2602880000000027
21
-60.8896999999999977
0
LINE
8
BLACK
6
CONTINUOUS
10
71.2602880000000027
20
-60.8896999999999977
11
71.2602940000000018
21
-60.8896960000000007
0
LINE
8
BLACK
6
CONTINUOUS
10
71.2602940000000018
20
-60.8896960000000007
11
71.2649779999999993
21
-60.8850109999999987
0
LINE
8
BLACK
6
CONTINUOUS
10
71.2649779999999993
20
-60.8850109999999987
11
71.2649799999999942
21
-60.8850109999999987
0
LINE
8
BLACK
6
CONTINUOUS
10
71.2649799999999942
20
-60.8850109999999987
11
71.8326879999999903
21
-60.317301999999998
0
LINE
8
BLACK
6
CONTINUOUS
10
71.8326879999999903
20
-60.317301999999998
11
71.8326879999999903
21
-60.3172999999999959
0
LINE
8
BLACK
6
CONTINUOUS
10
71.8326879999999903
20
-60.3172999999999959
11
71.8368260000000021
21
-60.3131629999999959
0
LINE
8
BLACK
6
CONTINUOUS
10
71.8368260000000021
20
-60.3131629999999959
11
71.837215999999998
21
-60.3126859999999994
0
LINE
8
BLACK
6
CONTINUOUS
10
71.837215999999998
20
-60.3126859999999994
11
71.8373279999999994
21
-60.3125749999999954
0
LINE
8
BLACK
6
CONTINUOUS
10
71.8373279999999994
20
-60.3125749999999954
11
71.9021709999999956
21
-60.2093899999999991
0
LINE
8
BLACK
6
CONTINUOUS
10
71.9021709999999956
20
-60.2093899999999991
11
71.9424300000000017
21
-60.0943639999999988
0
LINE
8
BLACK
6
CONTINUOUS
10
71.9424300000000017
20
-60.0943639999999988
11
71.9560879999999941
21
-59.9732649999999978
0
LINE
8
BLACK
6
CONTINUOUS
10
71.9560879999999941
20
-59.9732649999999978
11
71.9424589999999995
21
-59.8521619999999999
0
LINE
8
BLACK
6
CONTINUOUS
10
71.9424589999999995
20
-59.8521619999999999
11
71.9022269999999963
21
-59.7371259999999964
0
LINE
8
BLACK
6
CONTINUOUS
10
71.9022269999999963
20
-59.7371259999999964
11
71.8374089999999939
21
-59.6339259999999953
0
LINE
8
BLACK
6
CONTINUOUS
10
71.8374089999999939
20
-59.6339259999999953
11
71.8366189999999989
21
-59.6329349999999963
0
LINE
8
BLACK
6
CONTINUOUS
10
71.8366189999999989
20
-59.6329349999999963
11
71.8364759999999904
21
-59.632441
0
LINE
8
BLACK
6
CONTINUOUS
10
71.8364759999999904
20
-59.632441
11
71.8355719999999991
21
-59.6310009999999977
0
LINE
8
BLACK
6
CONTINUOUS
10
71.8355719999999991
20
-59.6310009999999977
11
71.8359859999999912
21
-59.6307399999999959
0
LINE
8
BLACK
6
CONTINUOUS
10
71.8359859999999912
20
-59.6307399999999959
11
71.8235930000000025
21
-59.5877029999999976
0
LINE
8
BLACK
6
CONTINUOUS
10
71.8235930000000025
20
-59.5877029999999976
11
71.8412179999999978
21
-59.5511099999999942
0
LINE
8
BLACK
6
CONTINUOUS
10
71.8412179999999978
20
-59.5511099999999942
11
73.1613169999999968
21
-58.2310129999999972
0
LINE
8
BLACK
6
CONTINUOUS
10
73.1613169999999968
20
-58.2310129999999972
11
73.2048039999999958
21
-58.2129999999999939
0
LINE
8
BLACK
6
CONTINUOUS
10
73.2048039999999958
20
-58.2129999999999939
11
73.5141479999999916
21
-58.2129999999999939
0
LINE
8
BLACK
6
CONTINUOUS
10
73.5141479999999916
20
-58.2129999999999939
11
73.5576349999999906
21
-58.2310129999999972
0
LINE
8
BLACK
6
CONTINUOUS
10
73.5576349999999906
20
-58.2310129999999972
11
73.5683870000000013
21
-58.2455110000000005
0
LINE
8
BLACK
6
CONTINUOUS
10
73.5683870000000013
20
-58.2455110000000005
11
73.569783000000001
21
-58.2481239999999971
0
LINE
8
BLACK
6
CONTINUOUS
10
73.569783000000001
20
-58.2481239999999971
11
73.6409730000000025
21
-58.3546679999999967
0
LINE
8
BLACK
6
CONTINUOUS
10
73.6409730000000025
20
-58.3546679999999967
11
73.7315809999999914
21
-58.4452759999999998
0
LINE
8
BLACK
6
CONTINUOUS
10
73.7315809999999914
20
-58.4452759999999998
11
73.7315799999999939
21
-58.4452759999999998
0
LINE
8
BLACK
6
CONTINUOUS
10
73.7315799999999939
20
-58.4452759999999998
11
73.7850310000000036
21
-58.4809899999999985
0
LINE
8
BLACK
6
CONTINUOUS
10
73.7850310000000036
20
-58.4809899999999985
11
73.838122999999996
21
-58.5164649999999966
0
LINE
8
BLACK
6
CONTINUOUS
10
73.838122999999996
20
-58.5164649999999966
11
73.885475999999997
21
-58.5360790000000009
0
LINE
8
BLACK
6
CONTINUOUS
10
73.885475999999997
20
-58.5360790000000009
11
73.9564969999999988
21
-58.5654979999999981
0
LINE
8
BLACK
6
CONTINUOUS
10
73.9564969999999988
20
-58.5654979999999981
11
73.9565020000000004
21
-58.5654989999999955
0
LINE
8
BLACK
6
CONTINUOUS
10
73.9565020000000004
20
-58.5654989999999955
11
73.9565059999999903
21
-58.5655009999999976
0
LINE
8
BLACK
6
CONTINUOUS
10
73.9565059999999903
20
-58.5655009999999976
11
74.0821770000000015
21
-58.5904989999999941
0
LINE
8
BLACK
6
CONTINUOUS
10
74.0821770000000015
20
-58.5904989999999941
11
74.082177999999999
21
-58.5904999999999987
0
LINE
8
BLACK
6
CONTINUOUS
10
74.082177999999999
20
-58.5904999999999987
11
74.0821809999999914
21
-58.5904999999999987
0
LINE
8
BLACK
6
CONTINUOUS
10
74.0821809999999914
20
-58.5904999999999987
11
74.7842500000000001
21
-58.5904999999999987
0
LINE
8
BLACK
6
CONTINUOUS
10
74.7842500000000001
20
-58.5904999999999987
11
74.8277369999999991
21
-58.608512999999995
0
LINE
8
BLACK
6
CONTINUOUS
10
74.8277369999999991
20
-58.608512999999995
11
74.8457499999999953
21
-58.6519999999999939
0
LINE
8
BLACK
6
CONTINUOUS
10
74.8457499999999953
20
-58.6519999999999939
11
74.8457499999999953
21
-59.7680000000000007
0
LINE
8
BLACK
6
CONTINUOUS
10
74.8457499999999953
20
-59.7680000000000007
11
74.8277369999999991
21
-59.8114869999999996
0
LINE
8
BLACK
6
CONTINUOUS
10
74.8277369999999991
20
-59.8114869999999996
11
74.7842500000000001
21
-59.8294999999999959
0
LINE
8
BLACK
6
CONTINUOUS
10
74.7842500000000001
20
-59.8294999999999959
11
74.082177999999999
21
-59.8294999999999959
0
LINE
8
BLACK
6
CONTINUOUS
10
74.082177999999999
20
-59.8294999999999959
11
73.9565109999999919
21
-59.854496999999995
0
LINE
8
BLACK
6
CONTINUOUS
10
73.9565109999999919
20
-59.854496999999995
11
73.9564969999999988
21
-59.8545009999999991
0
LINE
8
BLACK
6
CONTINUOUS
10
73.9564969999999988
20
-59.8545009999999991
11
73.838128999999995
21
-59.9035319999999984
0
LINE
8
BLACK
6
CONTINUOUS
10
73.838128999999995
20
-59.9035319999999984
11
73.838121000000001
21
-59.9035359999999955
0
LINE
8
BLACK
6
CONTINUOUS
10
73.838121000000001
20
-59.9035359999999955
11
73.7315809999999914
21
-59.9747229999999973
0
LINE
8
BLACK
6
CONTINUOUS
10
73.7315809999999914
20
-59.9747229999999973
11
73.6409730000000025
21
-60.0653310000000005
0
LINE
8
BLACK
6
CONTINUOUS
10
73.6409730000000025
20
-60.0653310000000005
11
73.5697859999999935
21
-60.1718709999999959
0
LINE
8
BLACK
6
CONTINUOUS
10
73.5697859999999935
20
-60.1718709999999959
11
73.5697820000000036
21
-60.171878999999997
0
LINE
8
BLACK
6
CONTINUOUS
10
73.5697820000000036
20
-60.171878999999997
11
73.52075099999999
21
-60.2902470000000008
0
LINE
8
BLACK
6
CONTINUOUS
10
73.52075099999999
20
-60.2902470000000008
11
73.5207470000000001
21
-60.2902609999999939
0
LINE
8
BLACK
6
CONTINUOUS
10
73.5207470000000001
20
-60.2902609999999939
11
73.495750000000001
21
-60.4159269999999964
0
LINE
8
BLACK
6
CONTINUOUS
10
73.495750000000001
20
-60.4159269999999964
11
73.495750000000001
21
-60.5440719999999999
0
LINE
8
BLACK
6
CONTINUOUS
10
73.495750000000001
20
-60.5440719999999999
11
73.5207470000000001
21
-60.6697379999999953
0
LINE
8
BLACK
6
CONTINUOUS
10
73.5207470000000001
20
-60.6697379999999953
11
73.52075099999999
21
-60.6697519999999955
0
LINE
8
BLACK
6
CONTINUOUS
10
73.52075099999999
20
-60.6697519999999955
11
73.5697820000000036
21
-60.7881199999999993
0
LINE
8
BLACK
6
CONTINUOUS
10
73.5697820000000036
20
-60.7881199999999993
11
73.569784999999996
21
-60.7881269999999958
0
LINE
8
BLACK
6
CONTINUOUS
10
73.569784999999996
20
-60.7881269999999958
11
73.5697859999999935
21
-60.7881280000000004
0
LINE
8
BLACK
6
CONTINUOUS
10
73.5697859999999935
20
-60.7881280000000004
11
73.6409730000000025
21
-60.8946679999999958
0
LINE
8
BLACK
6
CONTINUOUS
10
73.6409730000000025
20
-60.8946679999999958
11
73.7315809999999914
21
-60.9852759999999989
0
LINE
8
BLACK
6
CONTINUOUS
10
73.7315809999999914
20
-60.9852759999999989
11
73.7315799999999939
21
-60.9852759999999989
0
LINE
8
BLACK
6
CONTINUOUS
10
73.7315799999999939
20
-60.9852759999999989
11
73.7662660000000017
21
-61.0084519999999983
0
LINE
8
BLACK
6
CONTINUOUS
10
73.7662660000000017
20
-61.0084519999999983
11
73.838122999999996
21
-61.0564649999999958
0
LINE
8
BLACK
6
CONTINUOUS
10
73.838122999999996
20
-61.0564649999999958
11
73.885475999999997
21
-61.076079
0
LINE
8
BLACK
6
CONTINUOUS
10
73.885475999999997
20
-61.076079
11
73.9564969999999988
21
-61.1054979999999972
0
LINE
8
BLACK
6
CONTINUOUS
10
73.9564969999999988
20
-61.1054979999999972
11
73.9565020000000004
21
-61.1054989999999947
0
LINE
8
BLACK
6
CONTINUOUS
10
73.9565020000000004
20
-61.1054989999999947
11
73.9565059999999903
21
-61.1055009999999967
0
LINE
8
BLACK
6
CONTINUOUS
10
73.9565059999999903
20
-61.1055009999999967
11
74.0821770000000015
21
-61.1304990000000004
0
LINE
8
BLACK
6
CONTINUOUS
10
74.0821770000000015
20
-61.1304990000000004
11
74.082177999999999
21
-61.1304999999999978
0
LINE
8
BLACK
6
CONTINUOUS
10
74.082177999999999
20
-61.1304999999999978
11
74.0821809999999914
21
-61.1304999999999978
0
LINE
8
BLACK
6
CONTINUOUS
10
74.0821809999999914
20
-61.1304999999999978
11
74.7842500000000001
21
-61.1304999999999978
0
LINE
8
BLACK
6
CONTINUOUS
10
74.7842500000000001
20
-61.1304999999999978
11
74.8277369999999991
21
-61.1485129999999941
0
LINE
8
BLACK
6
CONTINUOUS
10
74.8277369999999991
20
-61.1485129999999941
11
74.8457499999999953
21
-61.1920000000000002
0
LINE
8
BLACK
6
CONTINUOUS
10
74.8457499999999953
20
-61.1920000000000002
11
74.8457499999999953
21
-62.3079999999999998
0
LINE
8
BLACK
6
CONTINUOUS
10
74.8457499999999953
20
-62.3079999999999998
11
74.8277369999999991
21
-62.3514869999999988
0
LINE
8
BLACK
6
CONTINUOUS
10
74.8277369999999991
20
-62.3514869999999988
11
74.7842500000000001
21
-62.3694999999999951
0
LINE
8
BLACK
6
CONTINUOUS
10
74.7842500000000001
20
-62.3694999999999951
11
74.082177999999999
21
-62.3694999999999951
0
LINE
8
BLACK
6
CONTINUOUS
10
74.082177999999999
20
-62.3694999999999951
11
73.9565109999999919
21
-62.3944969999999941
0
LINE
8
BLACK
6
CONTINUOUS
10
73.9565109999999919
20
-62.3944969999999941
11
73.9564969999999988
21
-62.3945009999999982
0
LINE
8
BLACK
6
CONTINUOUS
10
73.9564969999999988
20
-62.3945009999999982
11
73.838128999999995
21
-62.4435319999999976
0
LINE
8
BLACK
6
CONTINUOUS
10
73.838128999999995
20
-62.4435319999999976
11
73.838121000000001
21
-62.4435359999999946
0
LINE
8
BLACK
6
CONTINUOUS
10
73.838121000000001
20
-62.4435359999999946
11
73.7315809999999914
21
-62.5147229999999965
0
LINE
8
BLACK
6
CONTINUOUS
10
73.7315809999999914
20
-62.5147229999999965
11
73.6409730000000025
21
-62.6053309999999996
0
LINE
8
BLACK
6
CONTINUOUS
10
73.6409730000000025
20
-62.6053309999999996
11
73.569783000000001
21
-62.7118749999999991
0
LINE
8
BLACK
6
CONTINUOUS
10
73.569783000000001
20
-62.7118749999999991
11
73.5683870000000013
21
-62.7144890000000004
0
LINE
8
BLACK
6
CONTINUOUS
10
73.5683870000000013
20
-62.7144890000000004
11
73.5320030000000031
21
-62.7443509999999947
0
LINE
8
BLACK
6
CONTINUOUS
10
73.5320030000000031
20
-62.7443509999999947
11
73.5141479999999916
21
-62.7469999999999999
0
LINE
8
BLACK
6
CONTINUOUS
10
73.5141479999999916
20
-62.7469999999999999
11
71.7719459999999998
21
-62.7469999999999999
0
LINE
8
BLACK
6
CONTINUOUS
10
71.7719459999999998
20
-62.7469999999999999
11
71.6716069999999945
21
-62.7885619999999989
0
LINE
8
BLACK
6
CONTINUOUS
10
71.6716069999999945
20
-62.7885619999999989
11
70.5965980000000002
21
-63.8635710000000003
0
LINE
8
BLACK
6
CONTINUOUS
10
70.5965980000000002
20
-63.8635710000000003
11
70.5550360000000012
21
-63.9639099999999985
0
LINE
8
BLACK
6
CONTINUOUS
10
70.5550360000000012
20
-63.9639099999999985
11
70.5550360000000012
21
-64.6026919999999905
0
LINE
8
BLACK
6
CONTINUOUS
10
70.5550360000000012
20
-64.6026919999999905
11
70.555033999999992
21
-64.6027179999999959
0
LINE
8
BLACK
6
CONTINUOUS
10
70.555033999999992
20
-64.6027179999999959
11
70.5550350000000037
21
-64.6292839999999984
0
LINE
8
BLACK
6
CONTINUOUS
10
70.5550350000000037
20
-64.6292839999999984
11
70.5370240000000024
21
-64.6727709999999973
0
LINE
8
BLACK
6
CONTINUOUS
10
70.5370240000000024
20
-64.6727709999999973
11
70.4935370000000034
21
-64.6907860000000028
0
LINE
8
BLACK
6
CONTINUOUS
10
70.4935370000000034
20
-64.6907860000000028
11
70.1259409999999974
21
-64.6907860000000028
0
LINE
8
BLACK
6
CONTINUOUS
10
70.1259409999999974
20
-64.6907860000000028
11
70.1254950000000008
21
-64.6908289999999937
0
LINE
8
BLACK
6
CONTINUOUS
10
70.1254950000000008
20
-64.6908289999999937
11
70.1206040000000002
21
-64.6908289999999937
0
LINE
8
BLACK
6
CONTINUOUS
10
70.1206040000000002
20
-64.6908289999999937
11
69.9929569999999899
21
-64.7199489999999997
0
LINE
8
BLACK
6
CONTINUOUS
10
69.9929569999999899
20
-64.7199489999999997
11
69.875001999999995
21
-64.7767400000000038
0
LINE
8
BLACK
6
CONTINUOUS
10
69.875001999999995
20
-64.7767400000000038
11
69.7726320000000015
21
-64.8583629999999971
0
LINE
8
BLACK
6
CONTINUOUS
10
69.7726320000000015
20
-64.8583629999999971
11
69.772627
21
-64.8583670000000012
0
LINE
8
BLACK
6
CONTINUOUS
10
69.772627
20
-64.8583670000000012
11
69.6909929999999918
21
-64.9607170000000025
0
LINE
8
BLACK
6
CONTINUOUS
10
69.6909929999999918
20
-64.9607170000000025
11
69.6341800000000006
21
-65.0786700000000025
0
LINE
8
BLACK
6
CONTINUOUS
10
69.6341800000000006
20
-65.0786700000000025
11
69.6050389999999908
21
-65.2063079999999928
0
LINE
8
BLACK
6
CONTINUOUS
10
69.6050389999999908
20
-65.2063079999999928
11
69.6050379999999933
21
-65.2063160000000011
0
LINE
8
BLACK
6
CONTINUOUS
10
69.6050379999999933
20
-65.2063160000000011
11
69.6050379999999933
21
-65.2131859999999932
0
LINE
8
BLACK
6
CONTINUOUS
10
69.6050379999999933
20
-65.2131859999999932
11
69.6050359999999984
21
-65.2132199999999926
0
LINE
8
BLACK
6
CONTINUOUS
10
69.6050359999999984
20
-65.2132199999999926
11
69.6050359999999984
21
-65.2717760000000027
0
LINE
8
BLACK
6
CONTINUOUS
10
69.6050359999999984
20
-65.2717760000000027
11
69.6050340000000034
21
-65.3257660000000016
0
LINE
8
BLACK
6
CONTINUOUS
10
69.6050340000000034
20
-65.3257660000000016
11
69.6050359999999984
21
-65.3257869999999912
0
LINE
8
BLACK
6
CONTINUOUS
10
69.6050359999999984
20
-65.3257869999999912
11
69.6050359999999984
21
-65.4002780000000001
0
LINE
8
BLACK
6
CONTINUOUS
10
69.6050359999999984
20
-65.4002780000000001
11
69.6050139999999971
21
-65.4003280000000018
0
LINE
8
BLACK
6
CONTINUOUS
10
69.6050139999999971
20
-65.4003280000000018
11
69.6050120000000021
21
-65.4912399999999906
0
LINE
8
BLACK
6
CONTINUOUS
10
69.6050120000000021
20
-65.4912399999999906
11
69.6050120000000021
21
-65.4912470000000013
0
LINE
8
BLACK
6
CONTINUOUS
10
69.6050120000000021
20
-65.4912470000000013
11
69.6341429999999946
21
-65.6188909999999908
0
LINE
8
BLACK
6
CONTINUOUS
10
69.6341429999999946
20
-65.6188909999999908
11
69.634143999999992
21
-65.6188939999999974
0
LINE
8
BLACK
6
CONTINUOUS
10
69.634143999999992
20
-65.6188939999999974
11
69.6341450000000037
21
-65.6188959999999923
0
LINE
8
BLACK
6
CONTINUOUS
10
69.6341450000000037
20
-65.6188959999999923
11
69.6909559999999999
21
-65.7368649999999946
0
LINE
8
BLACK
6
CONTINUOUS
10
69.6909559999999999
20
-65.7368649999999946
11
69.772595999999993
21
-65.839232999999993
0
LINE
8
BLACK
6
CONTINUOUS
10
69.772595999999993
20
-65.839232999999993
11
69.7725969999999904
21
-65.8392339999999905
0
LINE
8
BLACK
6
CONTINUOUS
10
69.7725969999999904
20
-65.8392339999999905
11
69.8749669999999981
21
-65.9208639999999946
0
LINE
8
BLACK
6
CONTINUOUS
10
69.8749669999999981
20
-65.9208639999999946
11
69.8749739999999946
21
-65.9208679999999987
0
LINE
8
BLACK
6
CONTINUOUS
10
69.8749739999999946
20
-65.9208679999999987
11
69.9929389999999927
21
-65.9776669999999967
0
LINE
8
BLACK
6
CONTINUOUS
10
69.9929389999999927
20
-65.9776669999999967
11
69.9929410000000018
21
-65.9776669999999967
0
LINE
8
BLACK
6
CONTINUOUS
10
69.9929410000000018
20
-65.9776669999999967
11
69.9929439999999943
21
-65.9776689999999917
0
LINE
8
BLACK
6
CONTINUOUS
10
69.9929439999999943
20
-65.9776689999999917
11
70.120599999999996
21
-66.0067930000000018
0
LINE
8
BLACK
6
CONTINUOUS
10
70.120599999999996
20
-66.0067930000000018
11
70.1860619999999926
21
-66.0067859999999911
0
LINE
8
BLACK
6
CONTINUOUS
10
70.1860619999999926
20
-66.0067859999999911
11
70.1860690000000034
21
-66.0067859999999911
0
LINE
8
BLACK
6
CONTINUOUS
10
70.1860690000000034
20
-66.0067859999999911
11
70.4935359999999918
21
-66.0067859999999911
0
LINE
8
BLACK
6
CONTINUOUS
10
70.4935359999999918
20
-66.0067859999999911
11
70.5370229999999907
21
-66.0247990000000016
0
LINE
8
BLACK
6
CONTINUOUS
10
70.5370229999999907
20
-66.0247990000000016
11
70.5550360000000012
21
-66.0682860000000005
0
LINE
8
BLACK
6
CONTINUOUS
10
70.5550360000000012
20
-66.0682860000000005
11
70.5550360000000012
21
-66.0960889999999921
0
LINE
8
BLACK
6
CONTINUOUS
10
70.5550360000000012
20
-66.0960889999999921
11
70.5717590000000001
21
-66.136462999999992
0
LINE
8
BLACK
6
CONTINUOUS
10
70.5717590000000001
20
-66.136462999999992
11
70.5730369999999994
21
-66.1395469999999932
0
LINE
8
BLACK
6
CONTINUOUS
10
70.5730369999999994
20
-66.1395469999999932
11
70.5740069999999946
21
-66.142043000000001
0
LINE
8
BLACK
6
CONTINUOUS
10
70.5740069999999946
20
-66.142043000000001
11
70.587970999999996
21
-66.1804020000000008
0
LINE
8
BLACK
6
CONTINUOUS
10
70.587970999999996
20
-66.1804020000000008
11
70.587972999999991
21
-66.1804039999999958
0
LINE
8
BLACK
6
CONTINUOUS
10
70.587972999999991
20
-66.1804039999999958
11
70.5906619999999947
21
-66.1850609999999904
0
LINE
8
BLACK
6
CONTINUOUS
10
70.5906619999999947
20
-66.1850609999999904
11
70.5903199999999913
21
-66.1852579999999904
0
LINE
8
BLACK
6
CONTINUOUS
10
70.5903199999999913
20
-66.1852579999999904
11
70.5955179999999984
21
-66.1938229999999947
0
LINE
8
BLACK
6
CONTINUOUS
10
70.5955179999999984
20
-66.1938229999999947
11
70.596595999999991
21
-66.1964260000000024
0
LINE
8
BLACK
6
CONTINUOUS
10
70.596595999999991
20
-66.1964260000000024
11
70.6246799999999979
21
-66.2245099999999951
0
LINE
8
BLACK
6
CONTINUOUS
10
70.6246799999999979
20
-66.2245099999999951
11
70.6283030000000025
21
-66.2284640000000024
0
LINE
8
BLACK
6
CONTINUOUS
10
70.6283030000000025
20
-66.2284640000000024
11
70.6413579999999968
21
-66.2440210000000036
0
LINE
8
BLACK
6
CONTINUOUS
10
70.6413579999999968
20
-66.2440210000000036
11
70.6476320000000015
21
-66.2536690000000021
0
LINE
8
BLACK
6
CONTINUOUS
10
70.6476320000000015
20
-66.2536690000000021
11
70.6477330000000023
21
-66.2536079999999998
0
LINE
8
BLACK
6
CONTINUOUS
10
70.6477330000000023
20
-66.2536079999999998
11
70.6493210000000005
21
-66.256179000000003
0
LINE
8
BLACK
6
CONTINUOUS
10
70.6493210000000005
20
-66.256179000000003
11
70.6493229999999954
21
-66.2561829999999929
0
LINE
8
BLACK
6
CONTINUOUS
10
70.6493229999999954
20
-66.2561829999999929
11
70.7129779999999926
21
-66.3396869999999979
0
LINE
8
BLACK
6
CONTINUOUS
10
70.7129779999999926
20
-66.3396869999999979
11
70.7199579999999912
21
-66.3488430000000022
0
LINE
8
BLACK
6
CONTINUOUS
10
70.7199579999999912
20
-66.3488430000000022
11
70.7268239999999935
21
-66.3602180000000033
0
LINE
8
BLACK
6
CONTINUOUS
10
70.7268239999999935
20
-66.3602180000000033
11
70.7621199999999959
21
-66.4362040000000036
0
LINE
8
BLACK
6
CONTINUOUS
10
70.7621199999999959
20
-66.4362040000000036
11
70.762125999999995
21
-66.4362169999999992
0
LINE
8
BLACK
6
CONTINUOUS
10
70.762125999999995
20
-66.4362169999999992
11
70.7621309999999966
21
-66.4362259999999907
0
LINE
8
BLACK
6
CONTINUOUS
10
70.7621309999999966
20
-66.4362259999999907
11
70.768107999999998
21
-66.4474599999999924
0
LINE
8
BLACK
6
CONTINUOUS
10
70.768107999999998
20
-66.4474599999999924
11
70.7745549999999923
21
-66.4667199999999951
0
LINE
8
BLACK
6
CONTINUOUS
10
70.7745549999999923
20
-66.4667199999999951
11
70.774675000000002
21
-66.4674809999999923
0
LINE
8
BLACK
6
CONTINUOUS
10
70.774675000000002
20
-66.4674809999999923
11
70.8286760000000015
21
-66.5734649999999988
0
LINE
8
BLACK
6
CONTINUOUS
10
70.8286760000000015
20
-66.5734649999999988
11
70.912784000000002
21
-66.6575729999999993
0
LINE
8
BLACK
6
CONTINUOUS
10
70.912784000000002
20
-66.6575729999999993
11
70.9657759999999911
21
-66.6845730000000003
0
LINE
8
BLACK
6
CONTINUOUS
10
70.9657759999999911
20
-66.6845730000000003
11
71.0187679999999943
21
-66.7115739999999988
0
LINE
8
BLACK
6
CONTINUOUS
10
71.0187679999999943
20
-66.7115739999999988
11
71.1362499999999898
21
-66.7301810000000017
0
LINE
8
BLACK
6
CONTINUOUS
10
71.1362499999999898
20
-66.7301810000000017
11
71.2537319999999994
21
-66.7115739999999988
0
LINE
8
BLACK
6
CONTINUOUS
10
71.2537319999999994
20
-66.7115739999999988
11
71.3597149999999942
21
-66.6575729999999993
0
LINE
8
BLACK
6
CONTINUOUS
10
71.3597149999999942
20
-66.6575729999999993
11
71.3597159999999917
21
-66.6575729999999993
0
LINE
8
BLACK
6
CONTINUOUS
10
71.3597159999999917
20
-66.6575729999999993
11
71.4438229999999947
21
-66.5734659999999963
0
LINE
8
BLACK
6
CONTINUOUS
10
71.4438229999999947
20
-66.5734659999999963
11
71.4438229999999947
21
-66.5734649999999988
0
LINE
8
BLACK
6
CONTINUOUS
10
71.4438229999999947
20
-66.5734649999999988
11
71.4556869999999975
21
-66.5501799999999974
0
LINE
8
BLACK
6
CONTINUOUS
10
71.4556869999999975
20
-66.5501799999999974
11
71.4978239999999943
21
-66.4674820000000039
0
LINE
8
BLACK
6
CONTINUOUS
10
71.4978239999999943
20
-66.4674820000000039
11
71.5164309999999972
21
-66.3499999999999943
0
LINE
8
BLACK
6
CONTINUOUS
10
71.5164309999999972
20
-66.3499999999999943
11
71.4978239999999943
21
-66.2325179999999989
0
LINE
8
BLACK
6
CONTINUOUS
10
71.4978239999999943
20
-66.2325179999999989
11
71.4736539999999962
21
-66.1850809999999967
0
LINE
8
BLACK
6
CONTINUOUS
10
71.4736539999999962
20
-66.1850809999999967
11
71.4438229999999947
21
-66.1265339999999924
0
LINE
8
BLACK
6
CONTINUOUS
10
71.4438229999999947
20
-66.1265339999999924
11
71.3597149999999942
21
-66.0424259999999919
0
LINE
8
BLACK
6
CONTINUOUS
10
71.3597149999999942
20
-66.0424259999999919
11
71.2537299999999902
21
-65.9884249999999923
0
LINE
8
BLACK
6
CONTINUOUS
10
71.2537299999999902
20
-65.9884249999999923
11
71.2537310000000019
21
-65.9884249999999923
0
LINE
8
BLACK
6
CONTINUOUS
10
71.2537310000000019
20
-65.9884249999999923
11
71.2529699999999906
21
-65.9883049999999969
0
LINE
8
BLACK
6
CONTINUOUS
10
71.2529699999999906
20
-65.9883049999999969
11
71.233711999999997
21
-65.9818580000000026
0
LINE
8
BLACK
6
CONTINUOUS
10
71.233711999999997
20
-65.9818580000000026
11
71.2224760000000003
21
-65.9758810000000011
0
LINE
8
BLACK
6
CONTINUOUS
10
71.2224760000000003
20
-65.9758810000000011
11
71.2224669999999946
21
-65.9758759999999995
0
LINE
8
BLACK
6
CONTINUOUS
10
71.2224669999999946
20
-65.9758759999999995
11
71.222453999999999
21
-65.9758700000000005
0
LINE
8
BLACK
6
CONTINUOUS
10
71.222453999999999
20
-65.9758700000000005
11
71.1464679999999987
21
-65.940573999999998
0
LINE
8
BLACK
6
CONTINUOUS
10
71.1464679999999987
20
-65.940573999999998
11
71.1350929999999977
21
-65.9337079999999958
0
LINE
8
BLACK
6
CONTINUOUS
10
71.1350929999999977
20
-65.9337079999999958
11
71.0997720000000015
21
-65.9067829999999901
0
LINE
8
BLACK
6
CONTINUOUS
10
71.0997720000000015
20
-65.9067829999999901
11
71.0770979999999923
21
-65.8715579999999932
0
LINE
8
BLACK
6
CONTINUOUS
10
71.0770979999999923
20
-65.8715579999999932
11
71.076312999999999
21
-65.8681199999999905
0
LINE
8
BLACK
6
CONTINUOUS
10
71.076312999999999
20
-65.8681199999999905
11
71.0718770000000006
21
-65.8486829999999941
0
LINE
8
BLACK
6
CONTINUOUS
10
71.0718770000000006
20
-65.8486829999999941
11
71.015074999999996
21
-65.7307320000000033
0
LINE
8
BLACK
6
CONTINUOUS
10
71.015074999999996
20
-65.7307320000000033
11
71.0150720000000035
21
-65.7307279999999992
0
LINE
8
BLACK
6
CONTINUOUS
10
71.0150720000000035
20
-65.7307279999999992
11
71.0150709999999918
21
-65.73072599999999
0
LINE
8
BLACK
6
CONTINUOUS
10
71.0150709999999918
20
-65.73072599999999
11
70.9334539999999976
21
-65.6283779999999979
0
LINE
8
BLACK
6
CONTINUOUS
10
70.9334539999999976
20
-65.6283779999999979
11
70.9280509999999964
21
-65.6240689999999915
0
LINE
8
BLACK
6
CONTINUOUS
10
70.9280509999999964
20
-65.6240689999999915
11
70.8311029999999988
21
-65.5467469999999963
0
LINE
8
BLACK
6
CONTINUOUS
10
70.8311029999999988
20
-65.5467469999999963
11
70.8310999999999922
21
-65.5467450000000014
0
LINE
8
BLACK
6
CONTINUOUS
10
70.8310999999999922
20
-65.5467450000000014
11
70.713154000000003
21
-65.4899360000000001
0
LINE
8
BLACK
6
CONTINUOUS
10
70.713154000000003
20
-65.4899360000000001
11
70.6438119999999969
21
-65.474102000000002
0
LINE
8
BLACK
6
CONTINUOUS
10
70.6438119999999969
20
-65.474102000000002
11
70.5855260000000015
21
-65.4607929999999953
0
LINE
8
BLACK
6
CONTINUOUS
10
70.5855260000000015
20
-65.4607929999999953
11
70.5796469999999943
21
-65.4607910000000004
0
LINE
8
BLACK
6
CONTINUOUS
10
70.5796469999999943
20
-65.4607910000000004
11
70.5795779999999979
21
-65.4607859999999988
0
LINE
8
BLACK
6
CONTINUOUS
10
70.5795779999999979
20
-65.4607859999999988
11
70.5743389999999948
21
-65.4607859999999988
0
LINE
8
BLACK
6
CONTINUOUS
10
70.5743389999999948
20
-65.4607859999999988
11
70.5200679999999949
21
-65.4607859999999988
0
LINE
8
BLACK
6
CONTINUOUS
10
70.5200679999999949
20
-65.4607859999999988
11
70.5200540000000018
21
-65.4607850000000013
0
LINE
8
BLACK
6
CONTINUOUS
10
70.5200540000000018
20
-65.4607850000000013
11
70.4666840000000008
21
-65.4607799999999997
0
LINE
8
BLACK
6
CONTINUOUS
10
70.4666840000000008
20
-65.4607799999999997
11
70.4666139999999928
21
-65.4607859999999988
0
LINE
8
BLACK
6
CONTINUOUS
10
70.4666139999999928
20
-65.4607859999999988
11
70.2394579999999991
21
-65.4607859999999988
0
LINE
8
BLACK
6
CONTINUOUS
10
70.2394579999999991
20
-65.4607859999999988
11
70.2393869999999936
21
-65.4607799999999997
0
LINE
8
BLACK
6
CONTINUOUS
10
70.2393869999999936
20
-65.4607799999999997
11
70.2125429999999966
21
-65.4607829999999922
0
LINE
8
BLACK
6
CONTINUOUS
10
70.2125429999999966
20
-65.4607829999999922
11
70.1690540000000027
21
-65.4427749999999975
0
LINE
8
BLACK
6
CONTINUOUS
10
70.1690540000000027
20
-65.4427749999999975
11
70.1510370000000023
21
-65.3992920000000026
0
LINE
8
BLACK
6
CONTINUOUS
10
70.1510370000000023
20
-65.3992920000000026
11
70.1510379999999998
21
-65.3776610000000034
0
LINE
8
BLACK
6
CONTINUOUS
10
70.1510379999999998
20
-65.3776610000000034
11
70.1510359999999906
21
-65.3776569999999992
0
LINE
8
BLACK
6
CONTINUOUS
10
70.1510359999999906
20
-65.3776569999999992
11
70.1510370000000023
21
-65.3727179999999919
0
LINE
8
BLACK
6
CONTINUOUS
10
70.1510370000000023
20
-65.3727179999999919
11
70.1510359999999906
21
-65.3726920000000007
0
LINE
8
BLACK
6
CONTINUOUS
10
70.1510359999999906
20
-65.3726920000000007
11
70.1510359999999906
21
-65.2982879999999994
0
LINE
8
BLACK
6
CONTINUOUS
10
70.1510359999999906
20
-65.2982879999999994
11
70.1690490000000011
21
-65.2548010000000005
0
LINE
8
BLACK
6
CONTINUOUS
10
70.1690490000000011
20
-65.2548010000000005
11
70.2125339999999909
21
-65.23678799999999
0
LINE
8
BLACK
6
CONTINUOUS
10
70.2125339999999909
20
-65.23678799999999
11
70.2341409999999939
21
-65.2367909999999966
0
LINE
8
BLACK
6
CONTINUOUS
10
70.2341409999999939
20
-65.2367909999999966
11
70.2341419999999914
21
-65.2367899999999992
0
LINE
8
BLACK
6
CONTINUOUS
10
70.2341419999999914
20
-65.2367899999999992
11
70.2393869999999936
21
-65.2367909999999966
0
LINE
8
BLACK
6
CONTINUOUS
10
70.2393869999999936
20
-65.2367909999999966
11
70.2394579999999991
21
-65.2367859999999951
0
LINE
8
BLACK
6
CONTINUOUS
10
70.2394579999999991
20
-65.2367859999999951
11
70.4666139999999928
21
-65.2367859999999951
0
LINE
8
BLACK
6
CONTINUOUS
10
70.4666139999999928
20
-65.2367859999999951
11
70.4666840000000008
21
-65.2367909999999966
0
LINE
8
BLACK
6
CONTINUOUS
10
70.4666840000000008
20
-65.2367909999999966
11
70.4719290000000029
21
-65.2367899999999992
0
LINE
8
BLACK
6
CONTINUOUS
10
70.4719290000000029
20
-65.2367899999999992
11
70.4719309999999979
21
-65.2367909999999966
0
LINE
8
BLACK
6
CONTINUOUS
10
70.4719309999999979
20
-65.2367909999999966
11
70.4945400000000006
21
-65.23678799999999
0
LINE
8
BLACK
6
CONTINUOUS
10
70.4945400000000006
20
-65.23678799999999
11
70.4946619999999911
21
-65.2368379999999917
0
LINE
8
BLACK
6
CONTINUOUS
10
70.4946619999999911
20
-65.2368379999999917
11
70.5200679999999949
21
-65.2368349999999992
0
LINE
8
BLACK
6
CONTINUOUS
10
70.5200679999999949
20
-65.2368349999999992
11
70.5200679999999949
21
-65.2368359999999967
0
LINE
8
BLACK
6
CONTINUOUS
10
70.5200679999999949
20
-65.2368359999999967
11
70.5855320000000006
21
-65.2368290000000002
0
LINE
8
BLACK
6
CONTINUOUS
10
70.5855320000000006
20
-65.2368290000000002
11
70.7131749999999926
21
-65.2076809999999938
0
LINE
8
BLACK
6
CONTINUOUS
10
70.7131749999999926
20
-65.2076809999999938
11
70.8311309999999992
21
-65.1508620000000036
0
LINE
8
BLACK
6
CONTINUOUS
10
70.8311309999999992
20
-65.1508620000000036
11
70.8380659999999978
21
-65.1453309999999988
0
LINE
8
BLACK
6
CONTINUOUS
10
70.8380659999999978
20
-65.1453309999999988
11
70.8645520000000033
21
-65.1242039999999918
0
LINE
8
BLACK
6
CONTINUOUS
10
70.8645520000000033
20
-65.1242039999999918
11
70.933487999999997
21
-65.0692209999999989
0
LINE
8
BLACK
6
CONTINUOUS
10
70.933487999999997
20
-65.0692209999999989
11
71.0151129999999995
21
-64.9668509999999912
0
LINE
8
BLACK
6
CONTINUOUS
10
71.0151129999999995
20
-64.9668509999999912
11
71.0180659999999904
21
-64.960718
0
LINE
8
BLACK
6
CONTINUOUS
10
71.0180659999999904
20
-64.960718
11
71.0719119999999975
21
-64.8488889999999998
0
LINE
8
BLACK
6
CONTINUOUS
10
71.0719119999999975
20
-64.8488889999999998
11
71.071912999999995
21
-64.8488839999999982
0
LINE
8
BLACK
6
CONTINUOUS
10
71.071912999999995
20
-64.8488839999999982
11
71.0721149999999966
21
-64.847999999999999
0
LINE
8
BLACK
6
CONTINUOUS
10
71.0721149999999966
20
-64.847999999999999
11
71.1010399999999976
21
-64.7212379999999996
0
LINE
8
BLACK
6
CONTINUOUS
10
71.1010399999999976
20
-64.7212379999999996
11
71.1010359999999935
21
-64.6557739999999939
0
LINE
8
BLACK
6
CONTINUOUS
10
71.1010359999999935
20
-64.6557739999999939
11
71.1010359999999935
21
-64.4474829999999912
0
LINE
8
BLACK
6
CONTINUOUS
10
71.1010359999999935
20
-64.4474829999999912
11
71.1010359999999935
21
-64.1567679999999996
0
LINE
8
BLACK
6
CONTINUOUS
10
71.1010359999999935
20
-64.1567679999999996
11
71.1190489999999897
21
-64.1132810000000006
0
LINE
8
BLACK
6
CONTINUOUS
10
71.1190489999999897
20
-64.1132810000000006
11
71.9213170000000019
21
-63.3110129999999955
0
LINE
8
BLACK
6
CONTINUOUS
10
71.9213170000000019
20
-63.3110129999999955
11
71.9648040000000009
21
-63.2929999999999993
0
LINE
8
BLACK
6
CONTINUOUS
10
71.9648040000000009
20
-63.2929999999999993
11
73.5141479999999916
21
-63.2929999999999993
0
LINE
8
BLACK
6
CONTINUOUS
10
73.5141479999999916
20
-63.2929999999999993
11
73.5576349999999906
21
-63.3110129999999955
0
LINE
8
BLACK
6
CONTINUOUS
10
73.5576349999999906
20
-63.3110129999999955
11
73.5683870000000013
21
-63.3255109999999988
0
LINE
8
BLACK
6
CONTINUOUS
10
73.5683870000000013
20
-63.3255109999999988
11
73.569783000000001
21
-63.3281239999999954
0
LINE
8
BLACK
6
CONTINUOUS
10
73.569783000000001
20
-63.3281239999999954
11
73.6409730000000025
21
-63.4346679999999949
0
LINE
8
BLACK
6
CONTINUOUS
10
73.6409730000000025
20
-63.4346679999999949
11
73.7315809999999914
21
-63.5252759999999981
0
LINE
8
BLACK
6
CONTINUOUS
10
73.7315809999999914
20
-63.5252759999999981
11
73.7315799999999939
21
-63.5252759999999981
0
LINE
8
BLACK
6
CONTINUOUS
10
73.7315799999999939
20
-63.5252759999999981
11
73.7850310000000036
21
-63.5609899999999968
0
LINE
8
BLACK
6
CONTINUOUS
10
73.7850310000000036
20
-63.5609899999999968
11
73.838122999999996
21
-63.5964649999999949
0
LINE
8
BLACK
6
CONTINUOUS
10
73.838122999999996
20
-63.5964649999999949
11
73.8824309999999969
21
-63.6148179999999996
0
LINE
8
BLACK
6
CONTINUOUS
10
73.8824309999999969
20
-63.6148179999999996
11
73.9564969999999988
21
-63.6454979999999964
0
LINE
8
BLACK
6
CONTINUOUS
10
73.9564969999999988
20
-63.6454979999999964
11
73.9565020000000004
21
-63.6454989999999938
0
LINE
8
BLACK
6
CONTINUOUS
10
73.9565020000000004
20
-63.6454989999999938
11
73.9565059999999903
21
-63.6455009999999959
0
LINE
8
BLACK
6
CONTINUOUS
10
73.9565059999999903
20
-63.6455009999999959
11
74.0821770000000015
21
-63.6704989999999995
0
LINE
8
BLACK
6
CONTINUOUS
10
74.0821770000000015
20
-63.6704989999999995
11
74.082177999999999
21
-63.670499999999997
0
LINE
8
BLACK
6
CONTINUOUS
10
74.082177999999999
20
-63.670499999999997
11
74.0821809999999914
21
-63.670499999999997
0
LINE
8
BLACK
6
CONTINUOUS
10
74.0821809999999914
20
-63.670499999999997
11
74.7842500000000001
21
-63.670499999999997
0
LINE
8
BLACK
6
CONTINUOUS
10
74.7842500000000001
20
-63.670499999999997
11
74.8277369999999991
21
-63.6885130000000004
0
LINE
8
BLACK
6
CONTINUOUS
10
74.8277369999999991
20
-63.6885130000000004
11
74.8457499999999953
21
-63.7319999999999993
0
LINE
8
BLACK
6
CONTINUOUS
10
74.8457499999999953
20
-63.7319999999999993
11
74.8457499999999953
21
-64.847999999999999
0
LINE
8
BLACK
6
CONTINUOUS
10
74.8457499999999953
20
-64.847999999999999
11
74.8277369999999991
21
-64.8914869999999979
0
LINE
8
BLACK
6
CONTINUOUS
10
74.8277369999999991
20
-64.8914869999999979
11
74.7842500000000001
21
-64.9094999999999942
0
LINE
8
BLACK
6
CONTINUOUS
10
74.7842500000000001
20
-64.9094999999999942
11
74.082177999999999
21
-64.9094999999999942
0
LINE
8
BLACK
6
CONTINUOUS
10
74.082177999999999
20
-64.9094999999999942
11
73.9565109999999919
21
-64.9344969999999932
0
LINE
8
BLACK
6
CONTINUOUS
10
73.9565109999999919
20
-64.9344969999999932
11
73.9564969999999988
21
-64.9345009999999974
0
LINE
8
BLACK
6
CONTINUOUS
10
73.9564969999999988
20
-64.9345009999999974
11
73.838128999999995
21
-64.9835319999999967
0
LINE
8
BLACK
6
CONTINUOUS
10
73.838128999999995
20
-64.9835319999999967
11
73.838121000000001
21
-64.9835360000000009
0
LINE
8
BLACK
6
CONTINUOUS
10
73.838121000000001
20
-64.9835360000000009
11
73.7315809999999914
21
-65.0547229999999956
0
LINE
8
BLACK
6
CONTINUOUS
10
73.7315809999999914
20
-65.0547229999999956
11
73.6409730000000025
21
-65.1453309999999988
0
LINE
8
BLACK
6
CONTINUOUS
10
73.6409730000000025
20
-65.1453309999999988
11
73.5697859999999935
21
-65.2518709999999942
0
LINE
8
BLACK
6
CONTINUOUS
10
73.5697859999999935
20
-65.2518709999999942
11
73.5697820000000036
21
-65.2518790000000024
0
LINE
8
BLACK
6
CONTINUOUS
10
73.5697820000000036
20
-65.2518790000000024
11
73.52075099999999
21
-65.370246999999992
0
LINE
8
BLACK
6
CONTINUOUS
10
73.52075099999999
20
-65.370246999999992
11
73.5207470000000001
21
-65.3702609999999993
0
LINE
8
BLACK
6
CONTINUOUS
10
73.5207470000000001
20
-65.3702609999999993
11
73.495750000000001
21
-65.4959269999999947
0
LINE
8
BLACK
6
CONTINUOUS
10
73.495750000000001
20
-65.4959269999999947
11
73.495750000000001
21
-65.6240719999999982
0
LINE
8
BLACK
6
CONTINUOUS
10
73.495750000000001
20
-65.6240719999999982
11
73.5207470000000001
21
-65.7497379999999936
0
LINE
8
BLACK
6
CONTINUOUS
10
73.5207470000000001
20
-65.7497379999999936
11
73.52075099999999
21
-65.7497520000000009
0
LINE
8
BLACK
6
CONTINUOUS
10
73.52075099999999
20
-65.7497520000000009
11
73.5674240000000026
21
-65.8624269999999967
0
LINE
8
BLACK
6
CONTINUOUS
10
73.5674240000000026
20
-65.8624269999999967
11
73.569784999999996
21
-65.8681270000000012
0
LINE
8
BLACK
6
CONTINUOUS
10
73.569784999999996
20
-65.8681270000000012
11
73.5956139999999976
21
-65.9067829999999901
0
LINE
8
BLACK
6
CONTINUOUS
10
73.5956139999999976
20
-65.9067829999999901
11
73.6409730000000025
21
-65.9746679999999941
0
LINE
8
BLACK
6
CONTINUOUS
10
73.6409730000000025
20
-65.9746679999999941
11
73.7315809999999914
21
-66.0652759999999972
0
LINE
8
BLACK
6
CONTINUOUS
10
73.7315809999999914
20
-66.0652759999999972
11
73.7315799999999939
21
-66.0652759999999972
0
LINE
8
BLACK
6
CONTINUOUS
10
73.7315799999999939
20
-66.0652759999999972
11
73.7776959999999917
21
-66.0960889999999921
0
LINE
8
BLACK
6
CONTINUOUS
10
73.7776959999999917
20
-66.0960889999999921
11
73.838122999999996
21
-66.1364650000000012
0
LINE
8
BLACK
6
CONTINUOUS
10
73.838122999999996
20
-66.1364650000000012
11
73.885475999999997
21
-66.1560789999999912
0
LINE
8
BLACK
6
CONTINUOUS
10
73.885475999999997
20
-66.1560789999999912
11
73.9564969999999988
21
-66.1854979999999955
0
LINE
8
BLACK
6
CONTINUOUS
10
73.9564969999999988
20
-66.1854979999999955
11
73.9565020000000004
21
-66.185498999999993
0
LINE
8
BLACK
6
CONTINUOUS
10
73.9565020000000004
20
-66.185498999999993
11
73.9565059999999903
21
-66.1855010000000021
0
LINE
8
BLACK
6
CONTINUOUS
10
73.9565059999999903
20
-66.1855010000000021
11
74.0821770000000015
21
-66.2104989999999987
0
LINE
8
BLACK
6
CONTINUOUS
10
74.0821770000000015
20
-66.2104989999999987
11
74.082177999999999
21
-66.2104999999999961
0
LINE
8
BLACK
6
CONTINUOUS
10
74.082177999999999
20
-66.2104999999999961
11
74.0821809999999914
21
-66.2104999999999961
0
LINE
8
BLACK
6
CONTINUOUS
10
74.0821809999999914
20
-66.2104999999999961
11
74.7842500000000001
21
-66.2104999999999961
0
LINE
8
BLACK
6
CONTINUOUS
10
74.7842500000000001
20
-66.2104999999999961
11
74.8277369999999991
21
-66.2285129999999924
0
LINE
8
BLACK
6
CONTINUOUS
10
74.8277369999999991
20
-66.2285129999999924
11
74.8457499999999953
21
-66.2719999999999914
0
LINE
8
BLACK
6
CONTINUOUS
10
74.8457499999999953
20
-66.2719999999999914
11
74.8457499999999953
21
-67.387999999999991
0
LINE
8
BLACK
6
CONTINUOUS
10
74.8457499999999953
20
-67.387999999999991
11
74.8277369999999991
21
-67.43148699999999
0
LINE
8
BLACK
6
CONTINUOUS
10
74.8277369999999991
20
-67.43148699999999
11
74.7842500000000001
21
-67.4495000000000005
0
LINE
8
BLACK
6
CONTINUOUS
10
74.7842500000000001
20
-67.4495000000000005
11
74.082177999999999
21
-67.4495000000000005
0
LINE
8
BLACK
6
CONTINUOUS
10
74.082177999999999
20
-67.4495000000000005
11
73.9565109999999919
21
-67.4744969999999995
0
LINE
8
BLACK
6
CONTINUOUS
10
73.9565109999999919
20
-67.4744969999999995
11
73.9564969999999988
21
-67.4745010000000036
0
LINE
8
BLACK
6
CONTINUOUS
10
73.9564969999999988
20
-67.4745010000000036
11
73.838128999999995
21
-67.523532000000003
0
LINE
8
BLACK
6
CONTINUOUS
10
73.838128999999995
20
-67.523532000000003
11
73.838121000000001
21
-67.5235359999999929
0
LINE
8
BLACK
6
CONTINUOUS
10
73.838121000000001
20
-67.5235359999999929
11
73.7315809999999914
21
-67.5947230000000019
0
LINE
8
BLACK
6
CONTINUOUS
10
73.7315809999999914
20
-67.5947230000000019
11
73.6409730000000025
21
-67.6853309999999908
0
LINE
8
BLACK
6
CONTINUOUS
10
73.6409730000000025
20
-67.6853309999999908
11
73.5697859999999935
21
-67.7918710000000004
0
LINE
8
BLACK
6
CONTINUOUS
10
73.5697859999999935
20
-67.7918710000000004
11
73.5697820000000036
21
-67.7918789999999944
0
LINE
8
BLACK
6
CONTINUOUS
10
73.5697820000000036
20
-67.7918789999999944
11
73.52075099999999
21
-67.9102469999999983
0
LINE
8
BLACK
6
CONTINUOUS
10
73.52075099999999
20
-67.9102469999999983
11
73.5207470000000001
21
-67.9102609999999913
0
LINE
8
BLACK
6
CONTINUOUS
10
73.5207470000000001
20
-67.9102609999999913
11
73.495750000000001
21
-68.0359270000000009
0
LINE
8
BLACK
6
CONTINUOUS
10
73.495750000000001
20
-68.0359270000000009
11
73.495750000000001
21
-68.1640719999999902
0
LINE
8
BLACK
6
CONTINUOUS
10
73.495750000000001
20
-68.1640719999999902
11
73.5207470000000001
21
-68.2897379999999998
0
LINE
8
BLACK
6
CONTINUOUS
10
73.5207470000000001
20
-68.2897379999999998
11
73.52075099999999
21
-68.2897519999999929
0
LINE
8
BLACK
6
CONTINUOUS
10
73.52075099999999
20
-68.2897519999999929
11
73.5697820000000036
21
-68.4081199999999967
0
LINE
8
BLACK
6
CONTINUOUS
10
73.5697820000000036
20
-68.4081199999999967
11
73.569784999999996
21
-68.4081269999999932
0
LINE
8
BLACK
6
CONTINUOUS
10
73.569784999999996
20
-68.4081269999999932
11
73.5697859999999935
21
-68.4081279999999907
0
LINE
8
BLACK
6
CONTINUOUS
10
73.5697859999999935
20
-68.4081279999999907
11
73.6409730000000025
21
-68.5146680000000003
0
LINE
8
BLACK
6
CONTINUOUS
10
73.6409730000000025
20
-68.5146680000000003
11
73.7315809999999914
21
-68.6052760000000035
0
LINE
8
BLACK
6
CONTINUOUS
10
73.7315809999999914
20
-68.6052760000000035
11
73.7315799999999939
21
-68.6052760000000035
0
LINE
8
BLACK
6
CONTINUOUS
10
73.7315799999999939
20
-68.6052760000000035
11
73.7850310000000036
21
-68.6409900000000022
0
LINE
8
BLACK
6
CONTINUOUS
10
73.7850310000000036
20
-68.6409900000000022
11
73.838122999999996
21
-68.6764649999999932
0
LINE
8
BLACK
6
CONTINUOUS
10
73.838122999999996
20
-68.6764649999999932
11
73.885475999999997
21
-68.6960789999999974
0
LINE
8
BLACK
6
CONTINUOUS
10
73.885475999999997
20
-68.6960789999999974
11
73.9564969999999988
21
-68.7254980000000018
0
LINE
8
BLACK
6
CONTINUOUS
10
73.9564969999999988
20
-68.7254980000000018
11
73.9565020000000004
21
-68.7254989999999992
0
LINE
8
BLACK
6
CONTINUOUS
10
73.9565020000000004
20
-68.7254989999999992
11
73.9565059999999903
21
-68.7255009999999942
0
LINE
8
BLACK
6
CONTINUOUS
10
73.9565059999999903
20
-68.7255009999999942
11
74.0821770000000015
21
-68.7504989999999907
0
LINE
8
BLACK
6
CONTINUOUS
10
74.0821770000000015
20
-68.7504989999999907
11
74.082177999999999
21
-68.7505000000000024
0
LINE
8
BLACK
6
CONTINUOUS
10
74.082177999999999
20
-68.7505000000000024
11
74.0821809999999914
21
-68.7505000000000024
0
LINE
8
BLACK
6
CONTINUOUS
10
74.0821809999999914
20
-68.7505000000000024
11
74.7842500000000001
21
-68.7505000000000024
0
LINE
8
BLACK
6
CONTINUOUS
10
74.7842500000000001
20
-68.7505000000000024
11
74.8277369999999991
21
-68.7685129999999987
0
LINE
8
BLACK
6
CONTINUOUS
10
74.8277369999999991
20
-68.7685129999999987
11
74.8457499999999953
21
-68.8119999999999976
0
LINE
8
BLACK
6
CONTINUOUS
10
74.8457499999999953
20
-68.8119999999999976
11
74.8457499999999953
21
-71.387999999999991
0
LINE
8
BLACK
6
CONTINUOUS
10
74.8457499999999953
20
-71.387999999999991
11
74.8277369999999991
21
-71.43148699999999
0
LINE
8
BLACK
6
CONTINUOUS
10
74.8277369999999991
20
-71.43148699999999
11
74.7842500000000001
21
-71.4495000000000005
0
LINE
8
BLACK
6
CONTINUOUS
10
74.7842500000000001
20
-71.4495000000000005
11
61.1282499999999942
21
-71.4495000000000005
0
LINE
8
BLACK
6
CONTINUOUS
10
61.1282499999999942
20
-71.4495000000000005
11
61.0847629999999953
21
-71.43148699999999
0
LINE
8
BLACK
6
CONTINUOUS
10
61.0847629999999953
20
-71.43148699999999
11
61.066749999999999
21
-71.387999999999991
0
LINE
8
BLACK
6
CONTINUOUS
10
61.066749999999999
20
-71.387999999999991
11
61.066749999999999
21
-71.1859279999999899
0
LINE
8
BLACK
6
CONTINUOUS
10
61.066749999999999
20
-71.1859279999999899
11
61.0667489999999944
21
-71.1859269999999924
0
LINE
8
BLACK
6
CONTINUOUS
10
61.0667489999999944
20
-71.1859269999999924
11
61.0417519999999953
21
-71.060260999999997
0
LINE
8
BLACK
6
CONTINUOUS
10
61.0417519999999953
20
-71.060260999999997
11
61.0417479999999983
21
-71.0602469999999897
0
LINE
8
BLACK
6
CONTINUOUS
10
61.0417479999999983
20
-71.0602469999999897
11
61.0082169999999948
21
-70.9792989999999975
0
LINE
8
BLACK
6
CONTINUOUS
10
61.0082169999999948
20
-70.9792989999999975
11
60.9927149999999969
21
-70.9418730000000011
0
LINE
8
BLACK
6
CONTINUOUS
10
60.9927149999999969
20
-70.9418730000000011
11
60.9215260000000001
21
-70.8353309999999965
0
LINE
8
BLACK
6
CONTINUOUS
10
60.9215260000000001
20
-70.8353309999999965
11
60.8309189999999944
21
-70.7447239999999908
0
LINE
8
BLACK
6
CONTINUOUS
10
60.8309189999999944
20
-70.7447239999999908
11
60.8309179999999969
21
-70.7447229999999934
0
LINE
8
BLACK
6
CONTINUOUS
10
60.8309179999999969
20
-70.7447229999999934
11
60.8309189999999944
21
-70.7447229999999934
0
LINE
8
BLACK
6
CONTINUOUS
10
60.8309189999999944
20
-70.7447229999999934
11
60.7243779999999944
21
-70.6735359999999986
0
LINE
8
BLACK
6
CONTINUOUS
10
60.7243779999999944
20
-70.6735359999999986
11
60.724378999999999
21
-70.6735359999999986
0
LINE
8
BLACK
6
CONTINUOUS
10
60.724378999999999
20
-70.6735359999999986
11
60.7243769999999969
21
-70.6735350000000011
0
LINE
8
BLACK
6
CONTINUOUS
10
60.7243769999999969
20
-70.6735350000000011
11
60.7243700000000004
21
-70.6735319999999945
0
LINE
8
BLACK
6
CONTINUOUS
10
60.7243700000000004
20
-70.6735319999999945
11
60.6060019999999966
21
-70.6245009999999951
0
LINE
8
BLACK
6
CONTINUOUS
10
60.6060019999999966
20
-70.6245009999999951
11
60.6059879999999964
21
-70.624496999999991
0
LINE
8
BLACK
6
CONTINUOUS
10
60.6059879999999964
20
-70.624496999999991
11
60.4803219999999939
21
-70.5994999999999919
0
LINE
8
BLACK
6
CONTINUOUS
10
60.4803219999999939
20
-70.5994999999999919
11
60.4803189999999944
21
-70.5994999999999919
0
LINE
8
BLACK
6
CONTINUOUS
10
60.4803189999999944
20
-70.5994999999999919
11
60.3521809999999945
21
-70.5994999999999919
0
LINE
8
BLACK
6
CONTINUOUS
10
60.3521809999999945
20
-70.5994999999999919
11
60.352177999999995
21
-70.5994999999999919
0
LINE
8
BLACK
6
CONTINUOUS
10
60.352177999999995
20
-70.5994999999999919
11
60.226510999999995
21
-70.624496999999991
0
LINE
8
BLACK
6
CONTINUOUS
10
60.226510999999995
20
-70.624496999999991
11
60.2264969999999948
21
-70.6245009999999951
0
LINE
8
BLACK
6
CONTINUOUS
10
60.2264969999999948
20
-70.6245009999999951
11
60.1081289999999981
21
-70.6735319999999945
0
LINE
8
BLACK
6
CONTINUOUS
10
60.1081289999999981
20
-70.6735319999999945
11
60.108120999999997
21
-70.6735359999999986
0
LINE
8
BLACK
6
CONTINUOUS
10
60.108120999999997
20
-70.6735359999999986
11
60.0015809999999945
21
-70.7447229999999934
0
LINE
8
BLACK
6
CONTINUOUS
10
60.0015809999999945
20
-70.7447229999999934
11
59.9109729999999985
21
-70.8353309999999965
0
LINE
8
BLACK
6
CONTINUOUS
10
59.9109729999999985
20
-70.8353309999999965
11
59.8397859999999966
21
-70.9418709999999919
0
LINE
8
BLACK
6
CONTINUOUS
10
59.8397859999999966
20
-70.9418709999999919
11
59.8397819999999996
21
-70.9418780000000027
0
LINE
8
BLACK
6
CONTINUOUS
10
59.8397819999999996
20
-70.9418780000000027
11
59.8380669999999952
21
-70.9460199999999901
0
LINE
8
BLACK
6
CONTINUOUS
10
59.8380669999999952
20
-70.9460199999999901
11
59.8047819999999959
21
-70.9793019999999899
0
LINE
8
BLACK
6
CONTINUOUS
10
59.8047819999999959
20
-70.9793019999999899
11
59.7577119999999979
21
-70.9792989999999975
0
LINE
8
BLACK
6
CONTINUOUS
10
59.7577119999999979
20
-70.9792989999999975
11
59.7244329999999977
21
-70.9460199999999901
0
LINE
8
BLACK
6
CONTINUOUS
10
59.7244329999999977
20
-70.9460199999999901
11
59.7227169999999958
21
-70.9418780000000027
0
LINE
8
BLACK
6
CONTINUOUS
10
59.7227169999999958
20
-70.9418780000000027
11
59.7227149999999938
21
-70.9418730000000011
0
LINE
8
BLACK
6
CONTINUOUS
10
59.7227149999999938
20
-70.9418730000000011
11
59.6515259999999969
21
-70.8353309999999965
0
LINE
8
BLACK
6
CONTINUOUS
10
59.6515259999999969
20
-70.8353309999999965
11
59.5609189999999984
21
-70.7447239999999908
0
LINE
8
BLACK
6
CONTINUOUS
10
59.5609189999999984
20
-70.7447239999999908
11
59.5609179999999938
21
-70.7447229999999934
0
LINE
8
BLACK
6
CONTINUOUS
10
59.5609179999999938
20
-70.7447229999999934
11
59.5609189999999984
21
-70.7447229999999934
0
LINE
8
BLACK
6
CONTINUOUS
10
59.5609189999999984
20
-70.7447229999999934
11
59.4543779999999984
21
-70.6735359999999986
0
LINE
8
BLACK
6
CONTINUOUS
10
59.4543779999999984
20
-70.6735359999999986
11
59.4543789999999959
21
-70.6735359999999986
0
LINE
8
BLACK
6
CONTINUOUS
10
59.4543789999999959
20
-70.6735359999999986
11
59.4543769999999938
21
-70.6735350000000011
0
LINE
8
BLACK
6
CONTINUOUS
10
59.4543769999999938
20
-70.6735350000000011
11
59.4543699999999973
21
-70.6735319999999945
0
LINE
8
BLACK
6
CONTINUOUS
10
59.4543699999999973
20
-70.6735319999999945
11
59.3360020000000006
21
-70.6245009999999951
0
LINE
8
BLACK
6
CONTINUOUS
10
59.3360020000000006
20
-70.6245009999999951
11
59.3359880000000004
21
-70.624496999999991
0
LINE
8
BLACK
6
CONTINUOUS
10
59.3359880000000004
20
-70.624496999999991
11
59.2103219999999979
21
-70.5994999999999919
0
LINE
8
BLACK
6
CONTINUOUS
10
59.2103219999999979
20
-70.5994999999999919
11
59.2103189999999984
21
-70.5994999999999919
0
LINE
8
BLACK
6
CONTINUOUS
10
59.2103189999999984
20
-70.5994999999999919
11
59.0821809999999985
21
-70.5994999999999919
0
LINE
8
BLACK
6
CONTINUOUS
10
59.0821809999999985
20
-70.5994999999999919
11
59.082177999999999
21
-70.5994999999999919
0
LINE
8
BLACK
6
CONTINUOUS
10
59.082177999999999
20
-70.5994999999999919
11
58.956510999999999
21
-70.624496999999991
0
LINE
8
BLACK
6
CONTINUOUS
10
58.956510999999999
20
-70.624496999999991
11
58.9564969999999988
21
-70.6245009999999951
0
LINE
8
BLACK
6
CONTINUOUS
10
58.9564969999999988
20
-70.6245009999999951
11
58.838128999999995
21
-70.6735319999999945
0
LINE
8
BLACK
6
CONTINUOUS
10
58.838128999999995
20
-70.6735319999999945
11
58.8381209999999939
21
-70.6735359999999986
0
LINE
8
BLACK
6
CONTINUOUS
10
58.8381209999999939
20
-70.6735359999999986
11
58.7315809999999985
21
-70.7447229999999934
0
LINE
8
BLACK
6
CONTINUOUS
10
58.7315809999999985
20
-70.7447229999999934
11
58.6409729999999954
21
-70.8353309999999965
0
LINE
8
BLACK
6
CONTINUOUS
10
58.6409729999999954
20
-70.8353309999999965
11
58.5697860000000006
21
-70.9418709999999919
0
LINE
8
BLACK
6
CONTINUOUS
10
58.5697860000000006
20
-70.9418709999999919
11
58.5697819999999965
21
-70.9418790000000001
0
LINE
8
BLACK
6
CONTINUOUS
10
58.5697819999999965
20
-70.9418790000000001
11
58.5207509999999971
21
-71.0602469999999897
0
LINE
8
BLACK
6
CONTINUOUS
10
58.5207509999999971
20
-71.0602469999999897
11
58.5207470000000001
21
-71.060260999999997
0
LINE
8
BLACK
6
CONTINUOUS
10
58.5207470000000001
20
-71.060260999999997
11
58.4957499999999939
21
-71.1859269999999924
0
LINE
8
BLACK
6
CONTINUOUS
10
58.4957499999999939
20
-71.1859269999999924
11
58.4957499999999939
21
-71.387999999999991
0
LINE
8
BLACK
6
CONTINUOUS
10
58.4957499999999939
20
-71.387999999999991
11
58.4777369999999976
21
-71.43148699999999
0
LINE
8
BLACK
6
CONTINUOUS
10
58.4777369999999976
20
-71.43148699999999
11
58.4342499999999987
21
-71.4495000000000005
0
LINE
8
BLACK
6
CONTINUOUS
10
58.4342499999999987
20
-71.4495000000000005
11
55.5082499999999968
21
-71.4495000000000005
0
LINE
8
BLACK
6
CONTINUOUS
10
55.5082499999999968
20
-71.4495000000000005
11
55.4647629999999978
21
-71.43148699999999
0
LINE
8
BLACK
6
CONTINUOUS
10
55.4647629999999978
20
-71.43148699999999
11
55.4467499999999944
21
-71.387999999999991
0
LINE
8
BLACK
6
CONTINUOUS
10
55.4467499999999944
20
-71.387999999999991
11
55.4467499999999944
21
-66.1700000000000017
0
LINE
8
BLACK
6
CONTINUOUS
10
55.4467499999999944
20
-66.1700000000000017
11
55.4467499999999944
21
-61.75
0
LINE
8
BLACK
6
CONTINUOUS
10
55.4467499999999944
20
-61.75
11
55.4467499999999944
21
-59.5599999999999952
0
LINE
8
BLACK
6
CONTINUOUS
10
55.4467499999999944
20
-59.5599999999999952
11
55.4467499999999944
21
-56.1699999999999946
0
LINE
8
BLACK
6
CONTINUOUS
10
55.4467499999999944
20
-56.1699999999999946
11
55.4467499999999944
21
-52.1119999999999948
0
LINE
8
BLACK
6
CONTINUOUS
10
55.4467499999999944
20
-52.1119999999999948
11
55.4647629999999978
21
-52.0685129999999958
0
LINE
8
BLACK
6
CONTINUOUS
10
55.4647629999999978
20
-52.0685129999999958
11
55.5082499999999968
21
-52.0504999999999995
0
LINE
8
BLACK
6
CONTINUOUS
10
55.5082499999999968
20
-52.0504999999999995
11
74.7842500000000001
21
-52.0504999999999995
0
LINE
8
BLACK
6
CONTINUOUS
10
74.7842500000000001
20
-52.0504999999999995
11
74.8277369999999991
21
-52.0685129999999958
0
LINE
8
BLACK
6
CONTINUOUS
10
62.7246749999999977
20
-66.2874809999999997
11
62.7786759999999973
21
-66.393464999999992
0
LINE
8
BLACK
6
CONTINUOUS
10
62.7786759999999973
20
-66.393464999999992
11
62.8627839999999978
21
-66.4775729999999925
0
LINE
8
BLACK
6
CONTINUOUS
10
62.8627839999999978
20
-66.4775729999999925
11
62.9157759999999939
21
-66.5045729999999935
0
LINE
8
BLACK
6
CONTINUOUS
10
62.9157759999999939
20
-66.5045729999999935
11
62.9687679999999972
21
-66.531573999999992
0
LINE
8
BLACK
6
CONTINUOUS
10
62.9687679999999972
20
-66.531573999999992
11
63.0862499999999997
21
-66.5501809999999949
0
LINE
8
BLACK
6
CONTINUOUS
10
63.0862499999999997
20
-66.5501809999999949
11
63.2037319999999951
21
-66.531573999999992
0
LINE
8
BLACK
6
CONTINUOUS
10
63.2037319999999951
20
-66.531573999999992
11
63.3097149999999971
21
-66.4775729999999925
0
LINE
8
BLACK
6
CONTINUOUS
10
63.3097149999999971
20
-66.4775729999999925
11
63.3097159999999946
21
-66.4775729999999925
0
LINE
8
BLACK
6
CONTINUOUS
10
63.3097159999999946
20
-66.4775729999999925
11
63.3807629999999946
21
-66.4065259999999995
0
LINE
8
BLACK
6
CONTINUOUS
10
63.3807629999999946
20
-66.4065259999999995
11
63.4242500000000007
21
-66.3885130000000032
0
LINE
8
BLACK
6
CONTINUOUS
10
63.4242500000000007
20
-66.3885130000000032
11
63.4677369999999996
21
-66.4065259999999995
0
LINE
8
BLACK
6
CONTINUOUS
10
63.4677369999999996
20
-66.4065259999999995
11
63.4857499999999959
21
-66.4500129999999984
0
LINE
8
BLACK
6
CONTINUOUS
10
63.4857499999999959
20
-66.4500129999999984
11
63.4857499999999959
21
-70.2727299999999957
0
LINE
8
BLACK
6
CONTINUOUS
10
63.4857499999999959
20
-70.2727299999999957
11
63.5130399999999966
21
-70.3745799999999946
0
LINE
8
BLACK
6
CONTINUOUS
10
63.5130399999999966
20
-70.3745799999999946
11
63.5130419999999987
21
-70.3745839999999987
0
LINE
8
BLACK
6
CONTINUOUS
10
63.5130419999999987
20
-70.3745839999999987
11
63.5130429999999961
21
-70.3745869999999911
0
LINE
8
BLACK
6
CONTINUOUS
10
63.5130429999999961
20
-70.3745869999999911
11
63.5657700000000006
21
-70.4659130000000005
0
LINE
8
BLACK
6
CONTINUOUS
10
63.5657700000000006
20
-70.4659130000000005
11
63.6403369999999953
21
-70.5404800000000023
0
LINE
8
BLACK
6
CONTINUOUS
10
63.6403369999999953
20
-70.5404800000000023
11
63.7316629999999975
21
-70.5932069999999925
0
LINE
8
BLACK
6
CONTINUOUS
10
63.7316629999999975
20
-70.5932069999999925
11
63.7316669999999945
21
-70.59320799999999
0
LINE
8
BLACK
6
CONTINUOUS
10
63.7316669999999945
20
-70.59320799999999
11
63.7316689999999966
21
-70.5932090000000017
0
LINE
8
BLACK
6
CONTINUOUS
10
63.7316689999999966
20
-70.5932090000000017
11
63.8335189999999955
21
-70.6204989999999952
0
LINE
8
BLACK
6
CONTINUOUS
10
63.8335189999999955
20
-70.6204989999999952
11
63.8335209999999975
21
-70.6204999999999927
0
LINE
8
BLACK
6
CONTINUOUS
10
63.8335209999999975
20
-70.6204999999999927
11
63.8335229999999996
21
-70.6204999999999927
0
LINE
8
BLACK
6
CONTINUOUS
10
63.8335229999999996
20
-70.6204999999999927
11
63.9389789999999962
21
-70.6204999999999927
0
LINE
8
BLACK
6
CONTINUOUS
10
63.9389789999999962
20
-70.6204999999999927
11
63.9389789999999962
21
-70.6204989999999952
0
LINE
8
BLACK
6
CONTINUOUS
10
63.9389789999999962
20
-70.6204989999999952
11
64.0408369999999962
21
-70.5932069999999925
0
LINE
8
BLACK
6
CONTINUOUS
10
64.0408369999999962
20
-70.5932069999999925
11
64.1321629999999914
21
-70.5404800000000023
0
LINE
8
BLACK
6
CONTINUOUS
10
64.1321629999999914
20
-70.5404800000000023
11
64.2067299999999932
21
-70.4659130000000005
0
LINE
8
BLACK
6
CONTINUOUS
10
64.2067299999999932
20
-70.4659130000000005
11
64.2594569999999976
21
-70.3745869999999911
0
LINE
8
BLACK
6
CONTINUOUS
10
64.2594569999999976
20
-70.3745869999999911
11
64.2867490000000004
21
-70.2727289999999982
0
LINE
8
BLACK
6
CONTINUOUS
10
64.2867490000000004
20
-70.2727289999999982
11
64.2867499999999978
21
-70.2727289999999982
0
LINE
8
BLACK
6
CONTINUOUS
10
64.2867499999999978
20
-70.2727289999999982
11
64.2867499999999978
21
-69.5499999999999972
0
LINE
8
BLACK
6
CONTINUOUS
10
64.2867499999999978
20
-69.5499999999999972
11
64.2867499999999978
21
-65.4331189999999907
0
LINE
8
BLACK
6
CONTINUOUS
10
64.2867499999999978
20
-65.4331189999999907
11
64.3047629999999941
21
-65.3896319999999918
0
LINE
8
BLACK
6
CONTINUOUS
10
64.3047629999999941
20
-65.3896319999999918
11
64.3241479999999939
21
-65.370246999999992
0
LINE
8
BLACK
6
CONTINUOUS
10
64.3241479999999939
20
-65.370246999999992
11
64.3767299999999949
21
-65.317664999999991
0
LINE
8
BLACK
6
CONTINUOUS
10
64.3767299999999949
20
-65.317664999999991
11
64.4294569999999993
21
-65.2263399999999933
0
LINE
8
BLACK
6
CONTINUOUS
10
64.4294569999999993
20
-65.2263399999999933
11
64.432973000000004
21
-65.2132199999999926
0
LINE
8
BLACK
6
CONTINUOUS
10
64.432973000000004
20
-65.2132199999999926
11
64.4567490000000021
21
-65.1244829999999979
0
LINE
8
BLACK
6
CONTINUOUS
10
64.4567490000000021
20
-65.1244829999999979
11
64.4567499999999995
21
-65.124481000000003
0
LINE
8
BLACK
6
CONTINUOUS
10
64.4567499999999995
20
-65.124481000000003
11
64.4567499999999995
21
-62.6072699999999998
0
LINE
8
BLACK
6
CONTINUOUS
10
64.4567499999999995
20
-62.6072699999999998
11
64.4567490000000021
21
-62.6072689999999952
0
LINE
8
BLACK
6
CONTINUOUS
10
64.4567490000000021
20
-62.6072689999999952
11
64.4294589999999943
21
-62.5054189999999963
0
LINE
8
BLACK
6
CONTINUOUS
10
64.4294589999999943
20
-62.5054189999999963
11
64.4294579999999968
21
-62.5054169999999942
0
LINE
8
BLACK
6
CONTINUOUS
10
64.4294579999999968
20
-62.5054169999999942
11
64.4294569999999993
21
-62.5054129999999972
0
LINE
8
BLACK
6
CONTINUOUS
10
64.4294569999999993
20
-62.5054129999999972
11
64.3767299999999949
21
-62.414086999999995
0
LINE
8
BLACK
6
CONTINUOUS
10
64.3767299999999949
20
-62.414086999999995
11
64.3021629999999931
21
-62.3395200000000003
0
LINE
8
BLACK
6
CONTINUOUS
10
64.3021629999999931
20
-62.3395200000000003
11
64.2108369999999979
21
-62.2867929999999959
0
LINE
8
BLACK
6
CONTINUOUS
10
64.2108369999999979
20
-62.2867929999999959
11
64.2108339999999913
21
-62.2867919999999984
0
LINE
8
BLACK
6
CONTINUOUS
10
64.2108339999999913
20
-62.2867919999999984
11
64.2108300000000014
21
-62.2867899999999963
0
LINE
8
BLACK
6
CONTINUOUS
10
64.2108300000000014
20
-62.2867899999999963
11
64.1089800000000025
21
-62.2594999999999956
0
LINE
8
BLACK
6
CONTINUOUS
10
64.1089800000000025
20
-62.2594999999999956
11
64.1089769999999959
21
-62.2594999999999956
0
LINE
8
BLACK
6
CONTINUOUS
10
64.1089769999999959
20
-62.2594999999999956
11
64.0035230000000013
21
-62.2594999999999956
0
LINE
8
BLACK
6
CONTINUOUS
10
64.0035230000000013
20
-62.2594999999999956
11
64.0035199999999946
21
-62.2594999999999956
0
LINE
8
BLACK
6
CONTINUOUS
10
64.0035199999999946
20
-62.2594999999999956
11
63.9016689999999983
21
-62.2867899999999963
0
LINE
8
BLACK
6
CONTINUOUS
10
63.9016689999999983
20
-62.2867899999999963
11
63.9016629999999992
21
-62.2867929999999959
0
LINE
8
BLACK
6
CONTINUOUS
10
63.9016629999999992
20
-62.2867929999999959
11
63.8103379999999945
21
-62.3395189999999957
0
LINE
8
BLACK
6
CONTINUOUS
10
63.8103379999999945
20
-62.3395189999999957
11
63.810333
21
-62.3395229999999998
0
LINE
8
BLACK
6
CONTINUOUS
10
63.810333
20
-62.3395229999999998
11
63.7357729999999947
21
-62.414082999999998
0
LINE
8
BLACK
6
CONTINUOUS
10
63.7357729999999947
20
-62.414082999999998
11
63.7357689999999977
21
-62.4140879999999996
0
LINE
8
BLACK
6
CONTINUOUS
10
63.7357689999999977
20
-62.4140879999999996
11
63.6830429999999978
21
-62.5054129999999972
0
LINE
8
BLACK
6
CONTINUOUS
10
63.6830429999999978
20
-62.5054129999999972
11
63.6830399999999983
21
-62.5054189999999963
0
LINE
8
BLACK
6
CONTINUOUS
10
63.6830399999999983
20
-62.5054189999999963
11
63.6557499999999976
21
-62.6072689999999952
0
LINE
8
BLACK
6
CONTINUOUS
10
63.6557499999999976
20
-62.6072689999999952
11
63.6557499999999976
21
-64.880385000000004
0
LINE
8
BLACK
6
CONTINUOUS
10
63.6557499999999976
20
-64.880385000000004
11
63.6377369999999942
21
-64.9238720000000029
0
LINE
8
BLACK
6
CONTINUOUS
10
63.6377369999999942
20
-64.9238720000000029
11
63.5657730000000001
21
-64.9958349999999996
0
LINE
8
BLACK
6
CONTINUOUS
10
63.5657730000000001
20
-64.9958349999999996
11
63.565764999999999
21
-64.9958450000000028
0
LINE
8
BLACK
6
CONTINUOUS
10
63.565764999999999
20
-64.9958450000000028
11
63.5130419999999987
21
-65.0871640000000014
0
LINE
8
BLACK
6
CONTINUOUS
10
63.5130419999999987
20
-65.0871640000000014
11
63.5109479999999991
21
-65.0949799999999925
0
LINE
8
BLACK
6
CONTINUOUS
10
63.5109479999999991
20
-65.0949799999999925
11
63.5109469999999945
21
-65.0949880000000007
0
LINE
8
BLACK
6
CONTINUOUS
10
63.5109469999999945
20
-65.0949880000000007
11
63.4857499999999959
21
-65.1890219999999943
0
LINE
8
BLACK
6
CONTINUOUS
10
63.4857499999999959
20
-65.1890219999999943
11
63.4857499999999959
21
-65.8899869999999908
0
LINE
8
BLACK
6
CONTINUOUS
10
63.4857499999999959
20
-65.8899869999999908
11
63.4677369999999996
21
-65.9334740000000039
0
LINE
8
BLACK
6
CONTINUOUS
10
63.4677369999999996
20
-65.9334740000000039
11
63.4242500000000007
21
-65.9514870000000002
0
LINE
8
BLACK
6
CONTINUOUS
10
63.4242500000000007
20
-65.9514870000000002
11
63.3807629999999946
21
-65.9334740000000039
0
LINE
8
BLACK
6
CONTINUOUS
10
63.3807629999999946
20
-65.9334740000000039
11
63.3097149999999971
21
-65.8624259999999992
0
LINE
8
BLACK
6
CONTINUOUS
10
63.3097149999999971
20
-65.8624259999999992
11
63.2037300000000002
21
-65.8084249999999997
0
LINE
8
BLACK
6
CONTINUOUS
10
63.2037300000000002
20
-65.8084249999999997
11
63.2037309999999977
21
-65.8084249999999997
0
LINE
8
BLACK
6
CONTINUOUS
10
63.2037309999999977
20
-65.8084249999999997
11
63.0862499999999997
21
-65.7898189999999943
0
LINE
8
BLACK
6
CONTINUOUS
10
63.0862499999999997
20
-65.7898189999999943
11
62.9687679999999972
21
-65.8084249999999997
0
LINE
8
BLACK
6
CONTINUOUS
10
62.9687679999999972
20
-65.8084249999999997
11
62.8627839999999978
21
-65.8624259999999992
0
LINE
8
BLACK
6
CONTINUOUS
10
62.8627839999999978
20
-65.8624259999999992
11
62.8627839999999978
21
-65.8624269999999967
0
LINE
8
BLACK
6
CONTINUOUS
10
62.8627839999999978
20
-65.8624269999999967
11
62.7786769999999947
21
-65.9465339999999998
0
LINE
8
BLACK
6
CONTINUOUS
10
62.7786769999999947
20
-65.9465339999999998
11
62.7786759999999973
21
-65.9465339999999998
0
LINE
8
BLACK
6
CONTINUOUS
10
62.7786759999999973
20
-65.9465339999999998
11
62.7246749999999977
21
-66.0525179999999921
0
LINE
8
BLACK
6
CONTINUOUS
10
62.7246749999999977
20
-66.0525179999999921
11
62.7060689999999994
21
-66.1700000000000017
0
LINE
8
BLACK
6
CONTINUOUS
10
62.7060689999999994
20
-66.1700000000000017
11
62.7246749999999977
21
-66.2874809999999997
0
LINE
8
BLACK
6
CONTINUOUS
10
61.534675
20
-61.8674809999999979
11
61.5886759999999995
21
-61.9734649999999974
0
LINE
8
BLACK
6
CONTINUOUS
10
61.5886759999999995
20
-61.9734649999999974
11
61.672784
21
-62.0575729999999979
0
LINE
8
BLACK
6
CONTINUOUS
10
61.672784
20
-62.0575729999999979
11
61.7257759999999962
21
-62.0845729999999989
0
LINE
8
BLACK
6
CONTINUOUS
10
61.7257759999999962
20
-62.0845729999999989
11
61.7787679999999995
21
-62.1115739999999974
0
LINE
8
BLACK
6
CONTINUOUS
10
61.7787679999999995
20
-62.1115739999999974
11
61.8962499999999949
21
-62.1301810000000003
0
LINE
8
BLACK
6
CONTINUOUS
10
61.8962499999999949
20
-62.1301810000000003
11
62.0137319999999974
21
-62.1115739999999974
0
LINE
8
BLACK
6
CONTINUOUS
10
62.0137319999999974
20
-62.1115739999999974
11
62.1197149999999993
21
-62.0575729999999979
0
LINE
8
BLACK
6
CONTINUOUS
10
62.1197149999999993
20
-62.0575729999999979
11
62.1197159999999968
21
-62.0575729999999979
0
LINE
8
BLACK
6
CONTINUOUS
10
62.1197159999999968
20
-62.0575729999999979
11
62.2038229999999999
21
-61.9734659999999948
0
LINE
8
BLACK
6
CONTINUOUS
10
62.2038229999999999
20
-61.9734659999999948
11
62.2038229999999999
21
-61.9734649999999974
0
LINE
8
BLACK
6
CONTINUOUS
10
62.2038229999999999
20
-61.9734649999999974
11
62.2578239999999994
21
-61.8674819999999954
0
LINE
8
BLACK
6
CONTINUOUS
10
62.2578239999999994
20
-61.8674819999999954
11
62.2764309999999952
21
-61.75
0
LINE
8
BLACK
6
CONTINUOUS
10
62.2764309999999952
20
-61.75
11
62.2578239999999994
21
-61.6325179999999975
0
LINE
8
BLACK
6
CONTINUOUS
10
62.2578239999999994
20
-61.6325179999999975
11
62.2038229999999999
21
-61.5265339999999981
0
LINE
8
BLACK
6
CONTINUOUS
10
62.2038229999999999
20
-61.5265339999999981
11
62.1197149999999993
21
-61.4424259999999975
0
LINE
8
BLACK
6
CONTINUOUS
10
62.1197149999999993
20
-61.4424259999999975
11
62.0137299999999954
21
-61.388424999999998
0
LINE
8
BLACK
6
CONTINUOUS
10
62.0137299999999954
20
-61.388424999999998
11
62.0137309999999999
21
-61.388424999999998
0
LINE
8
BLACK
6
CONTINUOUS
10
62.0137309999999999
20
-61.388424999999998
11
61.8962499999999949
21
-61.3698189999999997
0
LINE
8
BLACK
6
CONTINUOUS
10
61.8962499999999949
20
-61.3698189999999997
11
61.7787679999999995
21
-61.388424999999998
0
LINE
8
BLACK
6
CONTINUOUS
10
61.7787679999999995
20
-61.388424999999998
11
61.672784
21
-61.4424259999999975
0
LINE
8
BLACK
6
CONTINUOUS
10
61.672784
20
-61.4424259999999975
11
61.672784
21
-61.442426999999995
0
LINE
8
BLACK
6
CONTINUOUS
10
61.672784
20
-61.442426999999995
11
61.588676999999997
21
-61.5265339999999981
0
LINE
8
BLACK
6
CONTINUOUS
10
61.588676999999997
20
-61.5265339999999981
11
61.5886759999999995
21
-61.5265339999999981
0
LINE
8
BLACK
6
CONTINUOUS
10
61.5886759999999995
20
-61.5265339999999981
11
61.534675
21
-61.6325179999999975
0
LINE
8
BLACK
6
CONTINUOUS
10
61.534675
20
-61.6325179999999975
11
61.5160689999999946
21
-61.75
0
LINE
8
BLACK
6
CONTINUOUS
10
61.5160689999999946
20
-61.75
11
61.534675
21
-61.8674809999999979
0
LINE
8
BLACK
6
CONTINUOUS
10
62.7246749999999977
20
-56.2874809999999997
11
62.7786759999999973
21
-56.3934649999999991
0
LINE
8
BLACK
6
CONTINUOUS
10
62.7786759999999973
20
-56.3934649999999991
11
62.8627839999999978
21
-56.4775729999999996
0
LINE
8
BLACK
6
CONTINUOUS
10
62.8627839999999978
20
-56.4775729999999996
11
62.9157759999999939
21
-56.5045730000000006
0
LINE
8
BLACK
6
CONTINUOUS
10
62.9157759999999939
20
-56.5045730000000006
11
62.9687679999999972
21
-56.5315739999999991
0
LINE
8
BLACK
6
CONTINUOUS
10
62.9687679999999972
20
-56.5315739999999991
11
63.0862499999999997
21
-56.5501809999999949
0
LINE
8
BLACK
6
CONTINUOUS
10
63.0862499999999997
20
-56.5501809999999949
11
63.2037319999999951
21
-56.5315739999999991
0
LINE
8
BLACK
6
CONTINUOUS
10
63.2037319999999951
20
-56.5315739999999991
11
63.3097149999999971
21
-56.4775729999999996
0
LINE
8
BLACK
6
CONTINUOUS
10
63.3097149999999971
20
-56.4775729999999996
11
63.3097159999999946
21
-56.4775729999999996
0
LINE
8
BLACK
6
CONTINUOUS
10
63.3097159999999946
20
-56.4775729999999996
11
63.3938229999999976
21
-56.3934659999999965
0
LINE
8
BLACK
6
CONTINUOUS
10
63.3938229999999976
20
-56.3934659999999965
11
63.3938229999999976
21
-56.3934649999999991
0
LINE
8
BLACK
6
CONTINUOUS
10
63.3938229999999976
20
-56.3934649999999991
11
63.4478239999999971
21
-56.2874819999999971
0
LINE
8
BLACK
6
CONTINUOUS
10
63.4478239999999971
20
-56.2874819999999971
11
63.466431
21
-56.1699999999999946
0
LINE
8
BLACK
6
CONTINUOUS
10
63.466431
20
-56.1699999999999946
11
63.4478239999999971
21
-56.0525179999999992
0
LINE
8
BLACK
6
CONTINUOUS
10
63.4478239999999971
20
-56.0525179999999992
11
63.4090719999999948
21
-55.9764629999999954
0
LINE
8
BLACK
6
CONTINUOUS
10
63.4090719999999948
20
-55.9764629999999954
11
63.3938229999999976
21
-55.9465339999999998
0
LINE
8
BLACK
6
CONTINUOUS
10
63.3938229999999976
20
-55.9465339999999998
11
63.3097149999999971
21
-55.8624259999999992
0
LINE
8
BLACK
6
CONTINUOUS
10
63.3097149999999971
20
-55.8624259999999992
11
63.2037300000000002
21
-55.8084249999999997
0
LINE
8
BLACK
6
CONTINUOUS
10
63.2037300000000002
20
-55.8084249999999997
11
63.2037309999999977
21
-55.8084249999999997
0
LINE
8
BLACK
6
CONTINUOUS
10
63.2037309999999977
20
-55.8084249999999997
11
63.0862499999999997
21
-55.7898189999999943
0
LINE
8
BLACK
6
CONTINUOUS
10
63.0862499999999997
20
-55.7898189999999943
11
62.9687679999999972
21
-55.8084249999999997
0
LINE
8
BLACK
6
CONTINUOUS
10
62.9687679999999972
20
-55.8084249999999997
11
62.8627839999999978
21
-55.8624259999999992
0
LINE
8
BLACK
6
CONTINUOUS
10
62.8627839999999978
20
-55.8624259999999992
11
62.8627839999999978
21
-55.8624269999999967
0
LINE
8
BLACK
6
CONTINUOUS
10
62.8627839999999978
20
-55.8624269999999967
11
62.7786769999999947
21
-55.9465339999999998
0
LINE
8
BLACK
6
CONTINUOUS
10
62.7786769999999947
20
-55.9465339999999998
11
62.7786759999999973
21
-55.9465339999999998
0
LINE
8
BLACK
6
CONTINUOUS
10
62.7786759999999973
20
-55.9465339999999998
11
62.7246749999999977
21
-56.0525179999999992
0
LINE
8
BLACK
6
CONTINUOUS
10
62.7246749999999977
20
-56.0525179999999992
11
62.7060689999999994
21
-56.1699999999999946
0
LINE
8
BLACK
6
CONTINUOUS
10
62.7060689999999994
20
-56.1699999999999946
11
62.7246749999999977
21
-56.2874809999999997
0
LINE
8
BLACK
6
CONTINUOUS
10
67.544674999999998
20
-69.6674809999999951
11
67.5986759999999975
21
-69.7734650000000016
0
LINE
8
BLACK
6
CONTINUOUS
10
67.5986759999999975
20
-69.7734650000000016
11
67.6827839999999981
21
-69.8575730000000021
0
LINE
8
BLACK
6
CONTINUOUS
10
67.6827839999999981
20
-69.8575730000000021
11
67.7357760000000013
21
-69.8845730000000032
0
LINE
8
BLACK
6
CONTINUOUS
10
67.7357760000000013
20
-69.8845730000000032
11
67.7887679999999904
21
-69.9115740000000017
0
LINE
8
BLACK
6
CONTINUOUS
10
67.7887679999999904
20
-69.9115740000000017
11
67.90625
21
-69.9301809999999904
0
LINE
8
BLACK
6
CONTINUOUS
10
67.90625
20
-69.9301809999999904
11
68.0237319999999954
21
-69.9115740000000017
0
LINE
8
BLACK
6
CONTINUOUS
10
68.0237319999999954
20
-69.9115740000000017
11
68.1297149999999903
21
-69.8575730000000021
0
LINE
8
BLACK
6
CONTINUOUS
10
68.1297149999999903
20
-69.8575730000000021
11
68.1297160000000019
21
-69.8575730000000021
0
LINE
8
BLACK
6
CONTINUOUS
10
68.1297160000000019
20
-69.8575730000000021
11
68.2138229999999908
21
-69.7734659999999991
0
LINE
8
BLACK
6
CONTINUOUS
10
68.2138229999999908
20
-69.7734659999999991
11
68.2138229999999908
21
-69.7734650000000016
0
LINE
8
BLACK
6
CONTINUOUS
10
68.2138229999999908
20
-69.7734650000000016
11
68.2678239999999903
21
-69.6674819999999926
0
LINE
8
BLACK
6
CONTINUOUS
10
68.2678239999999903
20
-69.6674819999999926
11
68.2864309999999932
21
-69.5499999999999972
0
LINE
8
BLACK
6
CONTINUOUS
10
68.2864309999999932
20
-69.5499999999999972
11
68.2678239999999903
21
-69.4325180000000017
0
LINE
8
BLACK
6
CONTINUOUS
10
68.2678239999999903
20
-69.4325180000000017
11
68.2138229999999908
21
-69.3265339999999952
0
LINE
8
BLACK
6
CONTINUOUS
10
68.2138229999999908
20
-69.3265339999999952
11
68.1297149999999903
21
-69.2424259999999947
0
LINE
8
BLACK
6
CONTINUOUS
10
68.1297149999999903
20
-69.2424259999999947
11
68.0237300000000005
21
-69.1884249999999952
0
LINE
8
BLACK
6
CONTINUOUS
10
68.0237300000000005
20
-69.1884249999999952
11
68.0237309999999979
21
-69.1884249999999952
0
LINE
8
BLACK
6
CONTINUOUS
10
68.0237309999999979
20
-69.1884249999999952
11
67.90625
21
-69.1698190000000039
0
LINE
8
BLACK
6
CONTINUOUS
10
67.90625
20
-69.1698190000000039
11
67.7887679999999904
21
-69.1884249999999952
0
LINE
8
BLACK
6
CONTINUOUS
10
67.7887679999999904
20
-69.1884249999999952
11
67.6827839999999981
21
-69.2424259999999947
0
LINE
8
BLACK
6
CONTINUOUS
10
67.6827839999999981
20
-69.2424259999999947
11
67.6827839999999981
21
-69.2424269999999922
0
LINE
8
BLACK
6
CONTINUOUS
10
67.6827839999999981
20
-69.2424269999999922
11
67.598676999999995
21
-69.3265339999999952
0
LINE
8
BLACK
6
CONTINUOUS
10
67.598676999999995
20
-69.3265339999999952
11
67.5986759999999975
21
-69.3265339999999952
0
LINE
8
BLACK
6
CONTINUOUS
10
67.5986759999999975
20
-69.3265339999999952
11
67.544674999999998
21
-69.4325180000000017
0
LINE
8
BLACK
6
CONTINUOUS
10
67.544674999999998
20
-69.4325180000000017
11
67.5260689999999926
21
-69.5499999999999972
0
LINE
8
BLACK
6
CONTINUOUS
10
67.5260689999999926
20
-69.5499999999999972
11
67.544674999999998
21
-69.6674809999999951
0
LINE
8
BLACK
6
CONTINUOUS
10
67.2546749999999918
20
-59.6774810000000002
11
67.3086759999999913
21
-59.7834649999999996
0
LINE
8
BLACK
6
CONTINUOUS
10
67.3086759999999913
20
-59.7834649999999996
11
67.3927839999999918
21
-59.8675730000000001
0
LINE
8
BLACK
6
CONTINUOUS
10
67.3927839999999918
20
-59.8675730000000001
11
67.4457759999999951
21
-59.8945729999999941
0
LINE
8
BLACK
6
CONTINUOUS
10
67.4457759999999951
20
-59.8945729999999941
11
67.4987679999999983
21
-59.9215739999999997
0
LINE
8
BLACK
6
CONTINUOUS
10
67.4987679999999983
20
-59.9215739999999997
11
67.6162499999999937
21
-59.9401809999999955
0
LINE
8
BLACK
6
CONTINUOUS
10
67.6162499999999937
20
-59.9401809999999955
11
67.7337320000000034
21
-59.9215739999999997
0
LINE
8
BLACK
6
CONTINUOUS
10
67.7337320000000034
20
-59.9215739999999997
11
67.8397149999999982
21
-59.8675730000000001
0
LINE
8
BLACK
6
CONTINUOUS
10
67.8397149999999982
20
-59.8675730000000001
11
67.8397159999999957
21
-59.8675730000000001
0
LINE
8
BLACK
6
CONTINUOUS
10
67.8397159999999957
20
-59.8675730000000001
11
67.9238229999999987
21
-59.7834659999999971
0
LINE
8
BLACK
6
CONTINUOUS
10
67.9238229999999987
20
-59.7834659999999971
11
67.9238229999999987
21
-59.7834649999999996
0
LINE
8
BLACK
6
CONTINUOUS
10
67.9238229999999987
20
-59.7834649999999996
11
67.9474349999999987
21
-59.7371239999999943
0
LINE
8
BLACK
6
CONTINUOUS
10
67.9474349999999987
20
-59.7371239999999943
11
67.9778239999999983
21
-59.6774819999999977
0
LINE
8
BLACK
6
CONTINUOUS
10
67.9778239999999983
20
-59.6774819999999977
11
67.9964310000000012
21
-59.5599999999999952
0
LINE
8
BLACK
6
CONTINUOUS
10
67.9964310000000012
20
-59.5599999999999952
11
67.9778239999999983
21
-59.4425179999999997
0
LINE
8
BLACK
6
CONTINUOUS
10
67.9778239999999983
20
-59.4425179999999997
11
67.9348959999999948
21
-59.3582669999999979
0
LINE
8
BLACK
6
CONTINUOUS
10
67.9348959999999948
20
-59.3582669999999979
11
67.9238229999999987
21
-59.3365340000000003
0
LINE
8
BLACK
6
CONTINUOUS
10
67.9238229999999987
20
-59.3365340000000003
11
67.8397149999999982
21
-59.2524259999999998
0
LINE
8
BLACK
6
CONTINUOUS
10
67.8397149999999982
20
-59.2524259999999998
11
67.7337299999999942
21
-59.1984250000000003
0
LINE
8
BLACK
6
CONTINUOUS
10
67.7337299999999942
20
-59.1984250000000003
11
67.7337309999999917
21
-59.1984250000000003
0
LINE
8
BLACK
6
CONTINUOUS
10
67.7337309999999917
20
-59.1984250000000003
11
67.6162499999999937
21
-59.1798189999999948
0
LINE
8
BLACK
6
CONTINUOUS
10
67.6162499999999937
20
-59.1798189999999948
11
67.4987679999999983
21
-59.1984250000000003
0
LINE
8
BLACK
6
CONTINUOUS
10
67.4987679999999983
20
-59.1984250000000003
11
67.3927839999999918
21
-59.2524259999999998
0
LINE
8
BLACK
6
CONTINUOUS
10
67.3927839999999918
20
-59.2524259999999998
11
67.3927839999999918
21
-59.2524269999999973
0
LINE
8
BLACK
6
CONTINUOUS
10
67.3927839999999918
20
-59.2524269999999973
11
67.308677000000003
21
-59.3365340000000003
0
LINE
8
BLACK
6
CONTINUOUS
10
67.308677000000003
20
-59.3365340000000003
11
67.3086759999999913
21
-59.3365340000000003
0
LINE
8
BLACK
6
CONTINUOUS
10
67.3086759999999913
20
-59.3365340000000003
11
67.2546749999999918
21
-59.4425179999999997
0
LINE
8
BLACK
6
CONTINUOUS
10
67.2546749999999918
20
-59.4425179999999997
11
67.2360690000000005
21
-59.5599999999999952
0
LINE
8
BLACK
6
CONTINUOUS
10
67.2360690000000005
20
-59.5599999999999952
11
67.2546749999999918
21
-59.6774810000000002
0
CIRCLE
8
BLACK
10
61.8962499999999949
20
-61.75
40
0.125
0
CIRCLE
8
BLACK
10
63.0862499999999997
20
-66.1700000000000017
40
0.125
0
CIRCLE
8
BLACK
10
63.0862499999999997
20
-56.1699999999999946
40
0.125
  0
ENDSEC
  0
EOF
