  0
SECTION
  2
HEADER
  9
$ANGBASE
  50
0.0
  9
$ANGDIR
  70
1
  9
$MEASUREMENT
  70
1
  0
ENDSEC
  0
SECTION
  2
TABLES
  0
TABLE
  2
LTYPE
  70
4
  0
LTYPE
  5
40F
  2
CONTINUOUS
  70
0
  3
Solid line
  72
65
  73
0
  40
0.0
  0
LTYPE
  5
410
  2
DASHDOT
 70
0
  3
Dash Dot ____ _ ____ _
 72
65
 73
4
 40
2.0
 49
1.25
 49
-0.25
 49
0.25
 49
-0.25
  0
LTYPE
  5
411
  2
DASHED
 70
0
  3
Dashed __ __ __ __ __
 72
65
 73
2
 40
0.75
 49
0.5
 49
-0.25
  0
LTYPE
  5
43B
  2
DOTTED
 70
0
  3
Dotted .  .  .  .
 72
65
 73
2
 40
0.2
 49
0.0
 49
-0.2
  0
ENDTAB
  0
TABLE
  2
STYLE
  70
4
  0
STYLE
  2
KICAD
  70
0
  40
0
  41
1
  42
1
  50
0
  71
0
  3
isocp.shx
  0
STYLE
  2
KICADB
  70
0
  40
0
  41
1
  42
1
  50
0
  71
0
  3
isocp.shx
  0
STYLE
  2
KICADI
  70
0
  40
0
  41
1
  42
1
  50
15
  71
0
  3
isocp.shx
  0
STYLE
  2
KICADBI
  70
0
  40
0
  41
1
  42
1
  50
15
  71
0
  3
isocp.shx
  0
ENDTAB
  0
TABLE
  2
LAYER
  70
1
  0
LAYER
  2
BLACK
  70
0
  62
7
  6
CONTINUOUS
  0
ENDTAB
  0
ENDSEC
  0
SECTION
  2
ENTITIES
0
LINE
8
BLACK
6
CONTINUOUS
10
63.2109479999999948
20
-66.0136339999999961
11
63.2664439999999999
21
-66.0832230000000038
0
LINE
8
BLACK
6
CONTINUOUS
10
63.2664439999999999
20
-66.0832230000000038
11
63.2862499999999955
21
-66.1700000000000017
0
LINE
8
BLACK
6
CONTINUOUS
10
63.2862499999999955
20
-66.1700000000000017
11
63.2664439999999999
21
-66.2567769999999996
0
LINE
8
BLACK
6
CONTINUOUS
10
63.2664439999999999
20
-66.2567769999999996
11
63.2109479999999948
21
-66.3263659999999931
0
LINE
8
BLACK
6
CONTINUOUS
10
63.2109479999999948
20
-66.3263659999999931
11
63.130753999999996
21
-66.3649860000000018
0
LINE
8
BLACK
6
CONTINUOUS
10
63.130753999999996
20
-66.3649860000000018
11
63.0417459999999963
21
-66.3649860000000018
0
LINE
8
BLACK
6
CONTINUOUS
10
63.0417459999999963
20
-66.3649860000000018
11
62.9615519999999975
21
-66.3263659999999931
0
LINE
8
BLACK
6
CONTINUOUS
10
62.9615519999999975
20
-66.3263659999999931
11
62.9060559999999995
21
-66.2567769999999996
0
LINE
8
BLACK
6
CONTINUOUS
10
62.9060559999999995
20
-66.2567769999999996
11
62.8862499999999969
21
-66.1700000000000017
0
LINE
8
BLACK
6
CONTINUOUS
10
62.8862499999999969
20
-66.1700000000000017
11
62.9060559999999995
21
-66.0832230000000038
0
LINE
8
BLACK
6
CONTINUOUS
10
62.9060559999999995
20
-66.0832230000000038
11
62.9615519999999975
21
-66.0136339999999961
0
LINE
8
BLACK
6
CONTINUOUS
10
62.9615519999999975
20
-66.0136339999999961
11
63.0417459999999963
21
-65.9750140000000016
0
LINE
8
BLACK
6
CONTINUOUS
10
63.0417459999999963
20
-65.9750140000000016
11
63.130753999999996
21
-65.9750140000000016
0
LINE
8
BLACK
6
CONTINUOUS
10
63.130753999999996
20
-65.9750140000000016
11
63.2109479999999948
21
-66.0136339999999961
0
LINE
8
BLACK
6
CONTINUOUS
10
62.0209479999999971
20
-61.5936339999999944
11
62.0764439999999951
21
-61.663222999999995
0
LINE
8
BLACK
6
CONTINUOUS
10
62.0764439999999951
20
-61.663222999999995
11
62.0962499999999977
21
-61.75
0
LINE
8
BLACK
6
CONTINUOUS
10
62.0962499999999977
20
-61.75
11
62.0764439999999951
21
-61.8367769999999979
0
LINE
8
BLACK
6
CONTINUOUS
10
62.0764439999999951
20
-61.8367769999999979
11
62.0209479999999971
21
-61.9063659999999985
0
LINE
8
BLACK
6
CONTINUOUS
10
62.0209479999999971
20
-61.9063659999999985
11
61.9407539999999983
21
-61.9449860000000001
0
LINE
8
BLACK
6
CONTINUOUS
10
61.9407539999999983
20
-61.9449860000000001
11
61.8517459999999986
21
-61.9449860000000001
0
LINE
8
BLACK
6
CONTINUOUS
10
61.8517459999999986
20
-61.9449860000000001
11
61.7715519999999998
21
-61.9063659999999985
0
LINE
8
BLACK
6
CONTINUOUS
10
61.7715519999999998
20
-61.9063659999999985
11
61.7160559999999947
21
-61.8367769999999979
0
LINE
8
BLACK
6
CONTINUOUS
10
61.7160559999999947
20
-61.8367769999999979
11
61.6962499999999991
21
-61.75
0
LINE
8
BLACK
6
CONTINUOUS
10
61.6962499999999991
20
-61.75
11
61.7160559999999947
21
-61.663222999999995
0
LINE
8
BLACK
6
CONTINUOUS
10
61.7160559999999947
20
-61.663222999999995
11
61.7715519999999998
21
-61.5936339999999944
0
LINE
8
BLACK
6
CONTINUOUS
10
61.7715519999999998
20
-61.5936339999999944
11
61.8517459999999986
21
-61.5550139999999999
0
LINE
8
BLACK
6
CONTINUOUS
10
61.8517459999999986
20
-61.5550139999999999
11
61.9407539999999983
21
-61.5550139999999999
0
LINE
8
BLACK
6
CONTINUOUS
10
61.9407539999999983
20
-61.5550139999999999
11
62.0209479999999971
21
-61.5936339999999944
0
LINE
8
BLACK
6
CONTINUOUS
10
63.2109479999999948
20
-56.0136339999999961
11
63.2664439999999999
21
-56.0832229999999967
0
LINE
8
BLACK
6
CONTINUOUS
10
63.2664439999999999
20
-56.0832229999999967
11
63.2862499999999955
21
-56.1699999999999946
0
LINE
8
BLACK
6
CONTINUOUS
10
63.2862499999999955
20
-56.1699999999999946
11
63.2664439999999999
21
-56.2567769999999996
0
LINE
8
BLACK
6
CONTINUOUS
10
63.2664439999999999
20
-56.2567769999999996
11
63.2109479999999948
21
-56.3263660000000002
0
LINE
8
BLACK
6
CONTINUOUS
10
63.2109479999999948
20
-56.3263660000000002
11
63.130753999999996
21
-56.3649859999999947
0
LINE
8
BLACK
6
CONTINUOUS
10
63.130753999999996
20
-56.3649859999999947
11
63.0417459999999963
21
-56.3649859999999947
0
LINE
8
BLACK
6
CONTINUOUS
10
63.0417459999999963
20
-56.3649859999999947
11
62.9615519999999975
21
-56.3263660000000002
0
LINE
8
BLACK
6
CONTINUOUS
10
62.9615519999999975
20
-56.3263660000000002
11
62.9060559999999995
21
-56.2567769999999996
0
LINE
8
BLACK
6
CONTINUOUS
10
62.9060559999999995
20
-56.2567769999999996
11
62.8862499999999969
21
-56.1699999999999946
0
LINE
8
BLACK
6
CONTINUOUS
10
62.8862499999999969
20
-56.1699999999999946
11
62.9060559999999995
21
-56.0832229999999967
0
LINE
8
BLACK
6
CONTINUOUS
10
62.9060559999999995
20
-56.0832229999999967
11
62.9615519999999975
21
-56.0136339999999961
0
LINE
8
BLACK
6
CONTINUOUS
10
62.9615519999999975
20
-56.0136339999999961
11
63.0417459999999963
21
-55.9750139999999945
0
LINE
8
BLACK
6
CONTINUOUS
10
63.0417459999999963
20
-55.9750139999999945
11
63.130753999999996
21
-55.9750139999999945
0
LINE
8
BLACK
6
CONTINUOUS
10
63.130753999999996
20
-55.9750139999999945
11
63.2109479999999948
21
-56.0136339999999961
0
CIRCLE
8
BLACK
10
61.8962499999999949
20
-61.75
40
0.125
0
CIRCLE
8
BLACK
10
63.0862499999999997
20
-66.1700000000000017
40
0.125
0
CIRCLE
8
BLACK
10
63.0862499999999997
20
-56.1699999999999946
40
0.125
  0
ENDSEC
  0
EOF
