<?xml version="1.0" standalone="no"?>
 <!DOCTYPE svg PUBLIC "-//W3C//DTD SVG 1.1//EN" 
 "http://www.w3.org/Graphics/SVG/1.1/DTD/svg11.dtd"> 
<svg
  xmlns:svg="http://www.w3.org/2000/svg"
  xmlns="http://www.w3.org/2000/svg"
  xmlns:xlink="http://www.w3.org/1999/xlink"
  version="1.1"
  width="297.0022mm" height="210.0072mm" viewBox="0.0000 0.0000 297.0022 210.0072">
<title>SVG Image created as trigger_scheme-HYDRA Clock Distribution Box.svg date 2025/09/05 14:54:20 </title>
  <desc>Image generated by Eeschema-SVG </desc>
<g style="fill:#000000; fill-opacity:1.0000;stroke:#000000; stroke-opacity:1.0000;
stroke-linecap:round; stroke-linejoin:round;"
 transform="translate(0 0) scale(1 1)">
</g>
<g style="fill:none; 
stroke:#725600; stroke-width:0.1524; stroke-opacity:1; 
stroke-linecap:round; stroke-linejoin:round;">
<text x="88.7095" y="104.7750"
textLength="9.2745" font-size="1.6933" lengthAdjust="spacingAndGlyphs"
text-anchor="end" opacity="0" stroke-opacity="0">Laser_out</text>
<g class="stroked-text"><desc>Laser_out</desc>
<path d="M80.4451 104.7195
L79.8403 104.7195
" />
<path d="M79.8403 104.7195
L79.8403 103.4495
" />
<path d="M81.4127 104.7195
L81.4127 104.0543
" />
<path d="M81.4127 104.0543
L81.3522 103.9333
" />
<path d="M81.3522 103.9333
L81.2313 103.8729
" />
<path d="M81.2313 103.8729
L80.9894 103.8729
" />
<path d="M80.9894 103.8729
L80.8684 103.9333
" />
<path d="M81.4127 104.6591
L81.2918 104.7195
" />
<path d="M81.2918 104.7195
L80.9894 104.7195
" />
<path d="M80.9894 104.7195
L80.8684 104.6591
" />
<path d="M80.8684 104.6591
L80.8080 104.5381
" />
<path d="M80.8080 104.5381
L80.8080 104.4171
" />
<path d="M80.8080 104.4171
L80.8684 104.2962
" />
<path d="M80.8684 104.2962
L80.9894 104.2357
" />
<path d="M80.9894 104.2357
L81.2918 104.2357
" />
<path d="M81.2918 104.2357
L81.4127 104.1752
" />
<path d="M81.9570 104.6591
L82.0779 104.7195
" />
<path d="M82.0779 104.7195
L82.3198 104.7195
" />
<path d="M82.3198 104.7195
L82.4408 104.6591
" />
<path d="M82.4408 104.6591
L82.5012 104.5381
" />
<path d="M82.5012 104.5381
L82.5012 104.4776
" />
<path d="M82.5012 104.4776
L82.4408 104.3567
" />
<path d="M82.4408 104.3567
L82.3198 104.2962
" />
<path d="M82.3198 104.2962
L82.1384 104.2962
" />
<path d="M82.1384 104.2962
L82.0174 104.2357
" />
<path d="M82.0174 104.2357
L81.9570 104.1148
" />
<path d="M81.9570 104.1148
L81.9570 104.0543
" />
<path d="M81.9570 104.0543
L82.0174 103.9333
" />
<path d="M82.0174 103.9333
L82.1384 103.8729
" />
<path d="M82.1384 103.8729
L82.3198 103.8729
" />
<path d="M82.3198 103.8729
L82.4408 103.9333
" />
<path d="M83.5293 104.6591
L83.4084 104.7195
" />
<path d="M83.4084 104.7195
L83.1665 104.7195
" />
<path d="M83.1665 104.7195
L83.0455 104.6591
" />
<path d="M83.0455 104.6591
L82.9851 104.5381
" />
<path d="M82.9851 104.5381
L82.9851 104.0543
" />
<path d="M82.9851 104.0543
L83.0455 103.9333
" />
<path d="M83.0455 103.9333
L83.1665 103.8729
" />
<path d="M83.1665 103.8729
L83.4084 103.8729
" />
<path d="M83.4084 103.8729
L83.5293 103.9333
" />
<path d="M83.5293 103.9333
L83.5898 104.0543
" />
<path d="M83.5898 104.0543
L83.5898 104.1752
" />
<path d="M83.5898 104.1752
L82.9851 104.2962
" />
<path d="M84.1341 104.7195
L84.1341 103.8729
" />
<path d="M84.1341 104.1148
L84.1946 103.9938
" />
<path d="M84.1946 103.9938
L84.2551 103.9333
" />
<path d="M84.2551 103.9333
L84.3760 103.8729
" />
<path d="M84.3760 103.8729
L84.4970 103.8729
" />
<path d="M84.6180 104.8405
L85.5856 104.8405
" />
<path d="M86.0694 104.7195
L85.9484 104.6591
" />
<path d="M85.9484 104.6591
L85.8879 104.5986
" />
<path d="M85.8879 104.5986
L85.8275 104.4776
" />
<path d="M85.8275 104.4776
L85.8275 104.1148
" />
<path d="M85.8275 104.1148
L85.8879 103.9938
" />
<path d="M85.8879 103.9938
L85.9484 103.9333
" />
<path d="M85.9484 103.9333
L86.0694 103.8729
" />
<path d="M86.0694 103.8729
L86.2508 103.8729
" />
<path d="M86.2508 103.8729
L86.3717 103.9333
" />
<path d="M86.3717 103.9333
L86.4322 103.9938
" />
<path d="M86.4322 103.9938
L86.4927 104.1148
" />
<path d="M86.4927 104.1148
L86.4927 104.4776
" />
<path d="M86.4927 104.4776
L86.4322 104.5986
" />
<path d="M86.4322 104.5986
L86.3717 104.6591
" />
<path d="M86.3717 104.6591
L86.2508 104.7195
" />
<path d="M86.2508 104.7195
L86.0694 104.7195
" />
<path d="M87.5812 103.8729
L87.5812 104.7195
" />
<path d="M87.0369 103.8729
L87.0369 104.5381
" />
<path d="M87.0369 104.5381
L87.0974 104.6591
" />
<path d="M87.0974 104.6591
L87.2184 104.7195
" />
<path d="M87.2184 104.7195
L87.3998 104.7195
" />
<path d="M87.3998 104.7195
L87.5207 104.6591
" />
<path d="M87.5207 104.6591
L87.5812 104.5986
" />
<path d="M88.0045 103.8729
L88.4883 103.8729
" />
<path d="M88.1859 103.4495
L88.1859 104.5381
" />
<path d="M88.1859 104.5381
L88.2464 104.6591
" />
<path d="M88.2464 104.6591
L88.3674 104.7195
" />
<path d="M88.3674 104.7195
L88.4883 104.7195
" />
</g><path style="fill:none; 
stroke:#725600; stroke-width:0.1524; stroke-opacity:1; 
stroke-linecap:round; stroke-linejoin:round;fill:none"
d="M 88.9000,104.1400
89.5350,104.7750
90.1700,104.7750
90.1700,103.5050
89.5350,103.5050
Z" /> 
</g>
<g style="fill:none; 
stroke:#725600; stroke-width:0.1524; stroke-opacity:1; 
stroke-linecap:round; stroke-linejoin:round;">
<text x="88.7095" y="99.6950"
textLength="13.9312" font-size="1.6933" lengthAdjust="spacingAndGlyphs"
text-anchor="end" opacity="0" stroke-opacity="0">Master Trigger</text>
<g class="stroked-text"><desc>Master Trigger</desc>
<path d="M75.1836 99.6395
L75.1836 98.3695
" />
<path d="M75.1836 98.3695
L75.6070 99.2767
" />
<path d="M75.6070 99.2767
L76.0303 98.3695
" />
<path d="M76.0303 98.3695
L76.0303 99.6395
" />
<path d="M77.1793 99.6395
L77.1793 98.9743
" />
<path d="M77.1793 98.9743
L77.1188 98.8533
" />
<path d="M77.1188 98.8533
L76.9979 98.7929
" />
<path d="M76.9979 98.7929
L76.7560 98.7929
" />
<path d="M76.7560 98.7929
L76.6350 98.8533
" />
<path d="M77.1793 99.5791
L77.0584 99.6395
" />
<path d="M77.0584 99.6395
L76.7560 99.6395
" />
<path d="M76.7560 99.6395
L76.6350 99.5791
" />
<path d="M76.6350 99.5791
L76.5746 99.4581
" />
<path d="M76.5746 99.4581
L76.5746 99.3371
" />
<path d="M76.5746 99.3371
L76.6350 99.2162
" />
<path d="M76.6350 99.2162
L76.7560 99.1557
" />
<path d="M76.7560 99.1557
L77.0584 99.1557
" />
<path d="M77.0584 99.1557
L77.1793 99.0952
" />
<path d="M77.7236 99.5791
L77.8445 99.6395
" />
<path d="M77.8445 99.6395
L78.0864 99.6395
" />
<path d="M78.0864 99.6395
L78.2074 99.5791
" />
<path d="M78.2074 99.5791
L78.2678 99.4581
" />
<path d="M78.2678 99.4581
L78.2678 99.3976
" />
<path d="M78.2678 99.3976
L78.2074 99.2767
" />
<path d="M78.2074 99.2767
L78.0864 99.2162
" />
<path d="M78.0864 99.2162
L77.9050 99.2162
" />
<path d="M77.9050 99.2162
L77.7840 99.1557
" />
<path d="M77.7840 99.1557
L77.7236 99.0348
" />
<path d="M77.7236 99.0348
L77.7236 98.9743
" />
<path d="M77.7236 98.9743
L77.7840 98.8533
" />
<path d="M77.7840 98.8533
L77.9050 98.7929
" />
<path d="M77.9050 98.7929
L78.0864 98.7929
" />
<path d="M78.0864 98.7929
L78.2074 98.8533
" />
<path d="M78.6307 98.7929
L79.1145 98.7929
" />
<path d="M78.8121 98.3695
L78.8121 99.4581
" />
<path d="M78.8121 99.4581
L78.8726 99.5791
" />
<path d="M78.8726 99.5791
L78.9936 99.6395
" />
<path d="M78.9936 99.6395
L79.1145 99.6395
" />
<path d="M80.0216 99.5791
L79.9007 99.6395
" />
<path d="M79.9007 99.6395
L79.6588 99.6395
" />
<path d="M79.6588 99.6395
L79.5378 99.5791
" />
<path d="M79.5378 99.5791
L79.4774 99.4581
" />
<path d="M79.4774 99.4581
L79.4774 98.9743
" />
<path d="M79.4774 98.9743
L79.5378 98.8533
" />
<path d="M79.5378 98.8533
L79.6588 98.7929
" />
<path d="M79.6588 98.7929
L79.9007 98.7929
" />
<path d="M79.9007 98.7929
L80.0216 98.8533
" />
<path d="M80.0216 98.8533
L80.0821 98.9743
" />
<path d="M80.0821 98.9743
L80.0821 99.0952
" />
<path d="M80.0821 99.0952
L79.4774 99.2162
" />
<path d="M80.6264 99.6395
L80.6264 98.7929
" />
<path d="M80.6264 99.0348
L80.6869 98.9138
" />
<path d="M80.6869 98.9138
L80.7474 98.8533
" />
<path d="M80.7474 98.8533
L80.8683 98.7929
" />
<path d="M80.8683 98.7929
L80.9893 98.7929
" />
<path d="M82.1988 98.3695
L82.9245 98.3695
" />
<path d="M82.5617 99.6395
L82.5617 98.3695
" />
<path d="M83.3478 99.6395
L83.3478 98.7929
" />
<path d="M83.3478 99.0348
L83.4083 98.9138
" />
<path d="M83.4083 98.9138
L83.4688 98.8533
" />
<path d="M83.4688 98.8533
L83.5897 98.7929
" />
<path d="M83.5897 98.7929
L83.7107 98.7929
" />
<path d="M84.1340 99.6395
L84.1340 98.7929
" />
<path d="M84.1340 98.3695
L84.0736 98.4300
" />
<path d="M84.0736 98.4300
L84.1340 98.4905
" />
<path d="M84.1340 98.4905
L84.1945 98.4300
" />
<path d="M84.1945 98.4300
L84.1340 98.3695
" />
<path d="M84.1340 98.3695
L84.1340 98.4905
" />
<path d="M85.2831 98.7929
L85.2831 99.8210
" />
<path d="M85.2831 99.8210
L85.2226 99.9419
" />
<path d="M85.2226 99.9419
L85.1622 100.0024
" />
<path d="M85.1622 100.0024
L85.0412 100.0629
" />
<path d="M85.0412 100.0629
L84.8598 100.0629
" />
<path d="M84.8598 100.0629
L84.7388 100.0024
" />
<path d="M85.2831 99.5791
L85.1622 99.6395
" />
<path d="M85.1622 99.6395
L84.9203 99.6395
" />
<path d="M84.9203 99.6395
L84.7993 99.5791
" />
<path d="M84.7993 99.5791
L84.7388 99.5186
" />
<path d="M84.7388 99.5186
L84.6784 99.3976
" />
<path d="M84.6784 99.3976
L84.6784 99.0348
" />
<path d="M84.6784 99.0348
L84.7388 98.9138
" />
<path d="M84.7388 98.9138
L84.7993 98.8533
" />
<path d="M84.7993 98.8533
L84.9203 98.7929
" />
<path d="M84.9203 98.7929
L85.1622 98.7929
" />
<path d="M85.1622 98.7929
L85.2831 98.8533
" />
<path d="M86.4321 98.7929
L86.4321 99.8210
" />
<path d="M86.4321 99.8210
L86.3716 99.9419
" />
<path d="M86.3716 99.9419
L86.3112 100.0024
" />
<path d="M86.3112 100.0024
L86.1902 100.0629
" />
<path d="M86.1902 100.0629
L86.0088 100.0629
" />
<path d="M86.0088 100.0629
L85.8878 100.0024
" />
<path d="M86.4321 99.5791
L86.3112 99.6395
" />
<path d="M86.3112 99.6395
L86.0693 99.6395
" />
<path d="M86.0693 99.6395
L85.9483 99.5791
" />
<path d="M85.9483 99.5791
L85.8878 99.5186
" />
<path d="M85.8878 99.5186
L85.8274 99.3976
" />
<path d="M85.8274 99.3976
L85.8274 99.0348
" />
<path d="M85.8274 99.0348
L85.8878 98.9138
" />
<path d="M85.8878 98.9138
L85.9483 98.8533
" />
<path d="M85.9483 98.8533
L86.0693 98.7929
" />
<path d="M86.0693 98.7929
L86.3112 98.7929
" />
<path d="M86.3112 98.7929
L86.4321 98.8533
" />
<path d="M87.5206 99.5791
L87.3997 99.6395
" />
<path d="M87.3997 99.6395
L87.1578 99.6395
" />
<path d="M87.1578 99.6395
L87.0368 99.5791
" />
<path d="M87.0368 99.5791
L86.9764 99.4581
" />
<path d="M86.9764 99.4581
L86.9764 98.9743
" />
<path d="M86.9764 98.9743
L87.0368 98.8533
" />
<path d="M87.0368 98.8533
L87.1578 98.7929
" />
<path d="M87.1578 98.7929
L87.3997 98.7929
" />
<path d="M87.3997 98.7929
L87.5206 98.8533
" />
<path d="M87.5206 98.8533
L87.5811 98.9743
" />
<path d="M87.5811 98.9743
L87.5811 99.0952
" />
<path d="M87.5811 99.0952
L86.9764 99.2162
" />
<path d="M88.1254 99.6395
L88.1254 98.7929
" />
<path d="M88.1254 99.0348
L88.1859 98.9138
" />
<path d="M88.1859 98.9138
L88.2464 98.8533
" />
<path d="M88.2464 98.8533
L88.3673 98.7929
" />
<path d="M88.3673 98.7929
L88.4883 98.7929
" />
</g><path style="fill:none; 
stroke:#725600; stroke-width:0.1524; stroke-opacity:1; 
stroke-linecap:round; stroke-linejoin:round;fill:none"
d="M 90.1700,99.0600
89.5350,98.4250
88.9000,98.4250
88.9000,99.6950
89.5350,99.6950
Z" /> 
</g>
<g style="fill:none; 
stroke:#725600; stroke-width:0.1524; stroke-opacity:1; 
stroke-linecap:round; stroke-linejoin:round;">
<text x="88.7095" y="102.2350"
textLength="8.0046" font-size="1.6933" lengthAdjust="spacingAndGlyphs"
text-anchor="end" opacity="0" stroke-opacity="0">Laser_in</text>
<g class="stroked-text"><desc>Laser_in</desc>
<path d="M81.7150 102.1795
L81.1102 102.1795
" />
<path d="M81.1102 102.1795
L81.1102 100.9095
" />
<path d="M82.6826 102.1795
L82.6826 101.5143
" />
<path d="M82.6826 101.5143
L82.6221 101.3933
" />
<path d="M82.6221 101.3933
L82.5012 101.3329
" />
<path d="M82.5012 101.3329
L82.2593 101.3329
" />
<path d="M82.2593 101.3329
L82.1383 101.3933
" />
<path d="M82.6826 102.1191
L82.5617 102.1795
" />
<path d="M82.5617 102.1795
L82.2593 102.1795
" />
<path d="M82.2593 102.1795
L82.1383 102.1191
" />
<path d="M82.1383 102.1191
L82.0779 101.9981
" />
<path d="M82.0779 101.9981
L82.0779 101.8771
" />
<path d="M82.0779 101.8771
L82.1383 101.7562
" />
<path d="M82.1383 101.7562
L82.2593 101.6957
" />
<path d="M82.2593 101.6957
L82.5617 101.6957
" />
<path d="M82.5617 101.6957
L82.6826 101.6352
" />
<path d="M83.2269 102.1191
L83.3478 102.1795
" />
<path d="M83.3478 102.1795
L83.5897 102.1795
" />
<path d="M83.5897 102.1795
L83.7107 102.1191
" />
<path d="M83.7107 102.1191
L83.7711 101.9981
" />
<path d="M83.7711 101.9981
L83.7711 101.9376
" />
<path d="M83.7711 101.9376
L83.7107 101.8167
" />
<path d="M83.7107 101.8167
L83.5897 101.7562
" />
<path d="M83.5897 101.7562
L83.4083 101.7562
" />
<path d="M83.4083 101.7562
L83.2873 101.6957
" />
<path d="M83.2873 101.6957
L83.2269 101.5748
" />
<path d="M83.2269 101.5748
L83.2269 101.5143
" />
<path d="M83.2269 101.5143
L83.2873 101.3933
" />
<path d="M83.2873 101.3933
L83.4083 101.3329
" />
<path d="M83.4083 101.3329
L83.5897 101.3329
" />
<path d="M83.5897 101.3329
L83.7107 101.3933
" />
<path d="M84.7992 102.1191
L84.6783 102.1795
" />
<path d="M84.6783 102.1795
L84.4364 102.1795
" />
<path d="M84.4364 102.1795
L84.3154 102.1191
" />
<path d="M84.3154 102.1191
L84.2550 101.9981
" />
<path d="M84.2550 101.9981
L84.2550 101.5143
" />
<path d="M84.2550 101.5143
L84.3154 101.3933
" />
<path d="M84.3154 101.3933
L84.4364 101.3329
" />
<path d="M84.4364 101.3329
L84.6783 101.3329
" />
<path d="M84.6783 101.3329
L84.7992 101.3933
" />
<path d="M84.7992 101.3933
L84.8597 101.5143
" />
<path d="M84.8597 101.5143
L84.8597 101.6352
" />
<path d="M84.8597 101.6352
L84.2550 101.7562
" />
<path d="M85.4040 102.1795
L85.4040 101.3329
" />
<path d="M85.4040 101.5748
L85.4645 101.4538
" />
<path d="M85.4645 101.4538
L85.5250 101.3933
" />
<path d="M85.5250 101.3933
L85.6459 101.3329
" />
<path d="M85.6459 101.3329
L85.7669 101.3329
" />
<path d="M85.8879 102.3005
L86.8555 102.3005
" />
<path d="M87.1578 102.1795
L87.1578 101.3329
" />
<path d="M87.1578 100.9095
L87.0974 100.9700
" />
<path d="M87.0974 100.9700
L87.1578 101.0305
" />
<path d="M87.1578 101.0305
L87.2183 100.9700
" />
<path d="M87.2183 100.9700
L87.1578 100.9095
" />
<path d="M87.1578 100.9095
L87.1578 101.0305
" />
<path d="M87.7626 101.3329
L87.7626 102.1795
" />
<path d="M87.7626 101.4538
L87.8231 101.3933
" />
<path d="M87.8231 101.3933
L87.9441 101.3329
" />
<path d="M87.9441 101.3329
L88.1255 101.3329
" />
<path d="M88.1255 101.3329
L88.2464 101.3933
" />
<path d="M88.2464 101.3933
L88.3069 101.5143
" />
<path d="M88.3069 101.5143
L88.3069 102.1795
" />
</g><path style="fill:none; 
stroke:#725600; stroke-width:0.1524; stroke-opacity:1; 
stroke-linecap:round; stroke-linejoin:round;fill:none"
d="M 90.1700,101.6000
89.5350,100.9650
88.9000,100.9650
88.9000,102.2350
89.5350,102.2350
Z" /> 
</g>
<g style="fill:none; 
stroke:#725600; stroke-width:0.1524; stroke-opacity:1; 
stroke-linecap:round; stroke-linejoin:round;">
<text x="88.7095" y="97.1550"
textLength="9.0328" font-size="1.6933" lengthAdjust="spacingAndGlyphs"
text-anchor="end" opacity="0" stroke-opacity="0">Heimtime</text>
<g class="stroked-text"><desc>Heimtime</desc>
<path d="M80.0820 97.0995
L80.0820 95.8295
" />
<path d="M80.0820 96.4343
L80.8077 96.4343
" />
<path d="M80.8077 97.0995
L80.8077 95.8295
" />
<path d="M81.8963 97.0391
L81.7754 97.0995
" />
<path d="M81.7754 97.0995
L81.5335 97.0995
" />
<path d="M81.5335 97.0995
L81.4125 97.0391
" />
<path d="M81.4125 97.0391
L81.3521 96.9181
" />
<path d="M81.3521 96.9181
L81.3521 96.4343
" />
<path d="M81.3521 96.4343
L81.4125 96.3133
" />
<path d="M81.4125 96.3133
L81.5335 96.2529
" />
<path d="M81.5335 96.2529
L81.7754 96.2529
" />
<path d="M81.7754 96.2529
L81.8963 96.3133
" />
<path d="M81.8963 96.3133
L81.9568 96.4343
" />
<path d="M81.9568 96.4343
L81.9568 96.5552
" />
<path d="M81.9568 96.5552
L81.3521 96.6762
" />
<path d="M82.5011 97.0995
L82.5011 96.2529
" />
<path d="M82.5011 95.8295
L82.4407 95.8900
" />
<path d="M82.4407 95.8900
L82.5011 95.9505
" />
<path d="M82.5011 95.9505
L82.5616 95.8900
" />
<path d="M82.5616 95.8900
L82.5011 95.8295
" />
<path d="M82.5011 95.8295
L82.5011 95.9505
" />
<path d="M83.1059 97.0995
L83.1059 96.2529
" />
<path d="M83.1059 96.3738
L83.1664 96.3133
" />
<path d="M83.1664 96.3133
L83.2874 96.2529
" />
<path d="M83.2874 96.2529
L83.4688 96.2529
" />
<path d="M83.4688 96.2529
L83.5897 96.3133
" />
<path d="M83.5897 96.3133
L83.6502 96.4343
" />
<path d="M83.6502 96.4343
L83.6502 97.0995
" />
<path d="M83.6502 96.4343
L83.7107 96.3133
" />
<path d="M83.7107 96.3133
L83.8316 96.2529
" />
<path d="M83.8316 96.2529
L84.0131 96.2529
" />
<path d="M84.0131 96.2529
L84.1340 96.3133
" />
<path d="M84.1340 96.3133
L84.1945 96.4343
" />
<path d="M84.1945 96.4343
L84.1945 97.0995
" />
<path d="M84.6178 96.2529
L85.1016 96.2529
" />
<path d="M84.7992 95.8295
L84.7992 96.9181
" />
<path d="M84.7992 96.9181
L84.8597 97.0391
" />
<path d="M84.8597 97.0391
L84.9807 97.0995
" />
<path d="M84.9807 97.0995
L85.1016 97.0995
" />
<path d="M85.5249 97.0995
L85.5249 96.2529
" />
<path d="M85.5249 95.8295
L85.4645 95.8900
" />
<path d="M85.4645 95.8900
L85.5249 95.9505
" />
<path d="M85.5249 95.9505
L85.5854 95.8900
" />
<path d="M85.5854 95.8900
L85.5249 95.8295
" />
<path d="M85.5249 95.8295
L85.5249 95.9505
" />
<path d="M86.1297 97.0995
L86.1297 96.2529
" />
<path d="M86.1297 96.3738
L86.1902 96.3133
" />
<path d="M86.1902 96.3133
L86.3112 96.2529
" />
<path d="M86.3112 96.2529
L86.4926 96.2529
" />
<path d="M86.4926 96.2529
L86.6135 96.3133
" />
<path d="M86.6135 96.3133
L86.6740 96.4343
" />
<path d="M86.6740 96.4343
L86.6740 97.0995
" />
<path d="M86.6740 96.4343
L86.7345 96.3133
" />
<path d="M86.7345 96.3133
L86.8554 96.2529
" />
<path d="M86.8554 96.2529
L87.0369 96.2529
" />
<path d="M87.0369 96.2529
L87.1578 96.3133
" />
<path d="M87.1578 96.3133
L87.2183 96.4343
" />
<path d="M87.2183 96.4343
L87.2183 97.0995
" />
<path d="M88.3068 97.0391
L88.1859 97.0995
" />
<path d="M88.1859 97.0995
L87.9440 97.0995
" />
<path d="M87.9440 97.0995
L87.8230 97.0391
" />
<path d="M87.8230 97.0391
L87.7626 96.9181
" />
<path d="M87.7626 96.9181
L87.7626 96.4343
" />
<path d="M87.7626 96.4343
L87.8230 96.3133
" />
<path d="M87.8230 96.3133
L87.9440 96.2529
" />
<path d="M87.9440 96.2529
L88.1859 96.2529
" />
<path d="M88.1859 96.2529
L88.3068 96.3133
" />
<path d="M88.3068 96.3133
L88.3673 96.4343
" />
<path d="M88.3673 96.4343
L88.3673 96.5552
" />
<path d="M88.3673 96.5552
L87.7626 96.6762
" />
</g><path style="fill:none; 
stroke:#725600; stroke-width:0.1524; stroke-opacity:1; 
stroke-linecap:round; stroke-linejoin:round;fill:none"
d="M 90.1700,96.5200
89.5350,95.8850
88.9000,95.8850
88.9000,97.1550
89.5350,97.1550
Z" /> 
</g>
<g style="fill:none; 
stroke:#725600; stroke-width:0.1524; stroke-opacity:1; 
stroke-linecap:round; stroke-linejoin:round;">
<text x="88.7095" y="94.6150"
textLength="9.1536" font-size="1.6933" lengthAdjust="spacingAndGlyphs"
text-anchor="end" opacity="0" stroke-opacity="0">Beam_Off</text>
<g class="stroked-text"><desc>Beam_Off</desc>
<path d="M80.3846 93.8943
L80.5660 93.9548
" />
<path d="M80.5660 93.9548
L80.6265 94.0152
" />
<path d="M80.6265 94.0152
L80.6869 94.1362
" />
<path d="M80.6869 94.1362
L80.6869 94.3176
" />
<path d="M80.6869 94.3176
L80.6265 94.4386
" />
<path d="M80.6265 94.4386
L80.5660 94.4991
" />
<path d="M80.5660 94.4991
L80.4450 94.5595
" />
<path d="M80.4450 94.5595
L79.9612 94.5595
" />
<path d="M79.9612 94.5595
L79.9612 93.2895
" />
<path d="M79.9612 93.2895
L80.3846 93.2895
" />
<path d="M80.3846 93.2895
L80.5055 93.3500
" />
<path d="M80.5055 93.3500
L80.5660 93.4105
" />
<path d="M80.5660 93.4105
L80.6265 93.5314
" />
<path d="M80.6265 93.5314
L80.6265 93.6524
" />
<path d="M80.6265 93.6524
L80.5660 93.7733
" />
<path d="M80.5660 93.7733
L80.5055 93.8338
" />
<path d="M80.5055 93.8338
L80.3846 93.8943
" />
<path d="M80.3846 93.8943
L79.9612 93.8943
" />
<path d="M81.7150 94.4991
L81.5941 94.5595
" />
<path d="M81.5941 94.5595
L81.3522 94.5595
" />
<path d="M81.3522 94.5595
L81.2312 94.4991
" />
<path d="M81.2312 94.4991
L81.1708 94.3781
" />
<path d="M81.1708 94.3781
L81.1708 93.8943
" />
<path d="M81.1708 93.8943
L81.2312 93.7733
" />
<path d="M81.2312 93.7733
L81.3522 93.7129
" />
<path d="M81.3522 93.7129
L81.5941 93.7129
" />
<path d="M81.5941 93.7129
L81.7150 93.7733
" />
<path d="M81.7150 93.7733
L81.7755 93.8943
" />
<path d="M81.7755 93.8943
L81.7755 94.0152
" />
<path d="M81.7755 94.0152
L81.1708 94.1362
" />
<path d="M82.8641 94.5595
L82.8641 93.8943
" />
<path d="M82.8641 93.8943
L82.8036 93.7733
" />
<path d="M82.8036 93.7733
L82.6827 93.7129
" />
<path d="M82.6827 93.7129
L82.4408 93.7129
" />
<path d="M82.4408 93.7129
L82.3198 93.7733
" />
<path d="M82.8641 94.4991
L82.7432 94.5595
" />
<path d="M82.7432 94.5595
L82.4408 94.5595
" />
<path d="M82.4408 94.5595
L82.3198 94.4991
" />
<path d="M82.3198 94.4991
L82.2594 94.3781
" />
<path d="M82.2594 94.3781
L82.2594 94.2571
" />
<path d="M82.2594 94.2571
L82.3198 94.1362
" />
<path d="M82.3198 94.1362
L82.4408 94.0757
" />
<path d="M82.4408 94.0757
L82.7432 94.0757
" />
<path d="M82.7432 94.0757
L82.8641 94.0152
" />
<path d="M83.4688 94.5595
L83.4688 93.7129
" />
<path d="M83.4688 93.8338
L83.5293 93.7733
" />
<path d="M83.5293 93.7733
L83.6503 93.7129
" />
<path d="M83.6503 93.7129
L83.8317 93.7129
" />
<path d="M83.8317 93.7129
L83.9526 93.7733
" />
<path d="M83.9526 93.7733
L84.0131 93.8943
" />
<path d="M84.0131 93.8943
L84.0131 94.5595
" />
<path d="M84.0131 93.8943
L84.0736 93.7733
" />
<path d="M84.0736 93.7733
L84.1945 93.7129
" />
<path d="M84.1945 93.7129
L84.3760 93.7129
" />
<path d="M84.3760 93.7129
L84.4969 93.7733
" />
<path d="M84.4969 93.7733
L84.5574 93.8943
" />
<path d="M84.5574 93.8943
L84.5574 94.5595
" />
<path d="M84.8598 94.6805
L85.8274 94.6805
" />
<path d="M86.3716 93.2895
L86.6135 93.2895
" />
<path d="M86.6135 93.2895
L86.7345 93.3500
" />
<path d="M86.7345 93.3500
L86.8554 93.4710
" />
<path d="M86.8554 93.4710
L86.9159 93.7129
" />
<path d="M86.9159 93.7129
L86.9159 94.1362
" />
<path d="M86.9159 94.1362
L86.8554 94.3781
" />
<path d="M86.8554 94.3781
L86.7345 94.4991
" />
<path d="M86.7345 94.4991
L86.6135 94.5595
" />
<path d="M86.6135 94.5595
L86.3716 94.5595
" />
<path d="M86.3716 94.5595
L86.2507 94.4991
" />
<path d="M86.2507 94.4991
L86.1297 94.3781
" />
<path d="M86.1297 94.3781
L86.0693 94.1362
" />
<path d="M86.0693 94.1362
L86.0693 93.7129
" />
<path d="M86.0693 93.7129
L86.1297 93.4710
" />
<path d="M86.1297 93.4710
L86.2507 93.3500
" />
<path d="M86.2507 93.3500
L86.3716 93.2895
" />
<path d="M87.2788 93.7129
L87.7626 93.7129
" />
<path d="M87.4602 94.5595
L87.4602 93.4710
" />
<path d="M87.4602 93.4710
L87.5207 93.3500
" />
<path d="M87.5207 93.3500
L87.6417 93.2895
" />
<path d="M87.6417 93.2895
L87.7626 93.2895
" />
<path d="M88.0045 93.7129
L88.4883 93.7129
" />
<path d="M88.1859 94.5595
L88.1859 93.4710
" />
<path d="M88.1859 93.4710
L88.2464 93.3500
" />
<path d="M88.2464 93.3500
L88.3674 93.2895
" />
<path d="M88.3674 93.2895
L88.4883 93.2895
" />
</g><path style="fill:none; 
stroke:#725600; stroke-width:0.1524; stroke-opacity:1; 
stroke-linecap:round; stroke-linejoin:round;fill:none"
d="M 90.1700,93.9800
89.5350,93.3450
88.9000,93.3450
88.9000,94.6150
89.5350,94.6150
Z" /> 
</g>
<g style="fill:none; 
stroke:#725600; stroke-width:0.1524; stroke-opacity:1; 
stroke-linecap:round; stroke-linejoin:round;">
<text x="88.7095" y="92.0750"
textLength="8.8512" font-size="1.6933" lengthAdjust="spacingAndGlyphs"
text-anchor="end" opacity="0" stroke-opacity="0">Beam_On</text>
<g class="stroked-text"><desc>Beam_On</desc>
<path d="M80.6870 91.3543
L80.8684 91.4148
" />
<path d="M80.8684 91.4148
L80.9289 91.4752
" />
<path d="M80.9289 91.4752
L80.9893 91.5962
" />
<path d="M80.9893 91.5962
L80.9893 91.7776
" />
<path d="M80.9893 91.7776
L80.9289 91.8986
" />
<path d="M80.9289 91.8986
L80.8684 91.9591
" />
<path d="M80.8684 91.9591
L80.7474 92.0195
" />
<path d="M80.7474 92.0195
L80.2636 92.0195
" />
<path d="M80.2636 92.0195
L80.2636 90.7495
" />
<path d="M80.2636 90.7495
L80.6870 90.7495
" />
<path d="M80.6870 90.7495
L80.8079 90.8100
" />
<path d="M80.8079 90.8100
L80.8684 90.8705
" />
<path d="M80.8684 90.8705
L80.9289 90.9914
" />
<path d="M80.9289 90.9914
L80.9289 91.1124
" />
<path d="M80.9289 91.1124
L80.8684 91.2333
" />
<path d="M80.8684 91.2333
L80.8079 91.2938
" />
<path d="M80.8079 91.2938
L80.6870 91.3543
" />
<path d="M80.6870 91.3543
L80.2636 91.3543
" />
<path d="M82.0174 91.9591
L81.8965 92.0195
" />
<path d="M81.8965 92.0195
L81.6546 92.0195
" />
<path d="M81.6546 92.0195
L81.5336 91.9591
" />
<path d="M81.5336 91.9591
L81.4732 91.8381
" />
<path d="M81.4732 91.8381
L81.4732 91.3543
" />
<path d="M81.4732 91.3543
L81.5336 91.2333
" />
<path d="M81.5336 91.2333
L81.6546 91.1729
" />
<path d="M81.6546 91.1729
L81.8965 91.1729
" />
<path d="M81.8965 91.1729
L82.0174 91.2333
" />
<path d="M82.0174 91.2333
L82.0779 91.3543
" />
<path d="M82.0779 91.3543
L82.0779 91.4752
" />
<path d="M82.0779 91.4752
L81.4732 91.5962
" />
<path d="M83.1665 92.0195
L83.1665 91.3543
" />
<path d="M83.1665 91.3543
L83.1060 91.2333
" />
<path d="M83.1060 91.2333
L82.9851 91.1729
" />
<path d="M82.9851 91.1729
L82.7432 91.1729
" />
<path d="M82.7432 91.1729
L82.6222 91.2333
" />
<path d="M83.1665 91.9591
L83.0456 92.0195
" />
<path d="M83.0456 92.0195
L82.7432 92.0195
" />
<path d="M82.7432 92.0195
L82.6222 91.9591
" />
<path d="M82.6222 91.9591
L82.5618 91.8381
" />
<path d="M82.5618 91.8381
L82.5618 91.7171
" />
<path d="M82.5618 91.7171
L82.6222 91.5962
" />
<path d="M82.6222 91.5962
L82.7432 91.5357
" />
<path d="M82.7432 91.5357
L83.0456 91.5357
" />
<path d="M83.0456 91.5357
L83.1665 91.4752
" />
<path d="M83.7712 92.0195
L83.7712 91.1729
" />
<path d="M83.7712 91.2938
L83.8317 91.2333
" />
<path d="M83.8317 91.2333
L83.9527 91.1729
" />
<path d="M83.9527 91.1729
L84.1341 91.1729
" />
<path d="M84.1341 91.1729
L84.2550 91.2333
" />
<path d="M84.2550 91.2333
L84.3155 91.3543
" />
<path d="M84.3155 91.3543
L84.3155 92.0195
" />
<path d="M84.3155 91.3543
L84.3760 91.2333
" />
<path d="M84.3760 91.2333
L84.4969 91.1729
" />
<path d="M84.4969 91.1729
L84.6784 91.1729
" />
<path d="M84.6784 91.1729
L84.7993 91.2333
" />
<path d="M84.7993 91.2333
L84.8598 91.3543
" />
<path d="M84.8598 91.3543
L84.8598 92.0195
" />
<path d="M85.1622 92.1405
L86.1298 92.1405
" />
<path d="M86.6740 90.7495
L86.9159 90.7495
" />
<path d="M86.9159 90.7495
L87.0369 90.8100
" />
<path d="M87.0369 90.8100
L87.1578 90.9310
" />
<path d="M87.1578 90.9310
L87.2183 91.1729
" />
<path d="M87.2183 91.1729
L87.2183 91.5962
" />
<path d="M87.2183 91.5962
L87.1578 91.8381
" />
<path d="M87.1578 91.8381
L87.0369 91.9591
" />
<path d="M87.0369 91.9591
L86.9159 92.0195
" />
<path d="M86.9159 92.0195
L86.6740 92.0195
" />
<path d="M86.6740 92.0195
L86.5531 91.9591
" />
<path d="M86.5531 91.9591
L86.4321 91.8381
" />
<path d="M86.4321 91.8381
L86.3717 91.5962
" />
<path d="M86.3717 91.5962
L86.3717 91.1729
" />
<path d="M86.3717 91.1729
L86.4321 90.9310
" />
<path d="M86.4321 90.9310
L86.5531 90.8100
" />
<path d="M86.5531 90.8100
L86.6740 90.7495
" />
<path d="M87.7626 91.1729
L87.7626 92.0195
" />
<path d="M87.7626 91.2938
L87.8231 91.2333
" />
<path d="M87.8231 91.2333
L87.9441 91.1729
" />
<path d="M87.9441 91.1729
L88.1255 91.1729
" />
<path d="M88.1255 91.1729
L88.2464 91.2333
" />
<path d="M88.2464 91.2333
L88.3069 91.3543
" />
<path d="M88.3069 91.3543
L88.3069 92.0195
" />
</g><path style="fill:none; 
stroke:#725600; stroke-width:0.1524; stroke-opacity:1; 
stroke-linecap:round; stroke-linejoin:round;fill:none"
d="M 90.1700,91.4400
89.5350,90.8050
88.9000,90.8050
88.9000,92.0750
89.5350,92.0750
Z" /> 
</g>
<g style="fill:none; 
stroke:#725600; stroke-width:0.1524; stroke-opacity:1; 
stroke-linecap:round; stroke-linejoin:round;">
<text x="105.6005" y="102.2350"
textLength="12.4194" font-size="1.6933" lengthAdjust="spacingAndGlyphs"
text-anchor="start" opacity="0" stroke-opacity="0">Heimtime_16</text>
<g class="stroked-text"><desc>Heimtime_16</desc>
<path d="M106.0030 102.1795
L106.0030 100.9095
" />
<path d="M106.0030 101.5143
L106.7287 101.5143
" />
<path d="M106.7287 102.1795
L106.7287 100.9095
" />
<path d="M107.8173 102.1191
L107.6964 102.1795
" />
<path d="M107.6964 102.1795
L107.4545 102.1795
" />
<path d="M107.4545 102.1795
L107.3335 102.1191
" />
<path d="M107.3335 102.1191
L107.2731 101.9981
" />
<path d="M107.2731 101.9981
L107.2731 101.5143
" />
<path d="M107.2731 101.5143
L107.3335 101.3933
" />
<path d="M107.3335 101.3933
L107.4545 101.3329
" />
<path d="M107.4545 101.3329
L107.6964 101.3329
" />
<path d="M107.6964 101.3329
L107.8173 101.3933
" />
<path d="M107.8173 101.3933
L107.8778 101.5143
" />
<path d="M107.8778 101.5143
L107.8778 101.6352
" />
<path d="M107.8778 101.6352
L107.2731 101.7562
" />
<path d="M108.4221 102.1795
L108.4221 101.3329
" />
<path d="M108.4221 100.9095
L108.3617 100.9700
" />
<path d="M108.3617 100.9700
L108.4221 101.0305
" />
<path d="M108.4221 101.0305
L108.4826 100.9700
" />
<path d="M108.4826 100.9700
L108.4221 100.9095
" />
<path d="M108.4221 100.9095
L108.4221 101.0305
" />
<path d="M109.0269 102.1795
L109.0269 101.3329
" />
<path d="M109.0269 101.4538
L109.0874 101.3933
" />
<path d="M109.0874 101.3933
L109.2084 101.3329
" />
<path d="M109.2084 101.3329
L109.3898 101.3329
" />
<path d="M109.3898 101.3329
L109.5107 101.3933
" />
<path d="M109.5107 101.3933
L109.5712 101.5143
" />
<path d="M109.5712 101.5143
L109.5712 102.1795
" />
<path d="M109.5712 101.5143
L109.6317 101.3933
" />
<path d="M109.6317 101.3933
L109.7526 101.3329
" />
<path d="M109.7526 101.3329
L109.9341 101.3329
" />
<path d="M109.9341 101.3329
L110.0550 101.3933
" />
<path d="M110.0550 101.3933
L110.1155 101.5143
" />
<path d="M110.1155 101.5143
L110.1155 102.1795
" />
<path d="M110.5388 101.3329
L111.0226 101.3329
" />
<path d="M110.7202 100.9095
L110.7202 101.9981
" />
<path d="M110.7202 101.9981
L110.7807 102.1191
" />
<path d="M110.7807 102.1191
L110.9017 102.1795
" />
<path d="M110.9017 102.1795
L111.0226 102.1795
" />
<path d="M111.4459 102.1795
L111.4459 101.3329
" />
<path d="M111.4459 100.9095
L111.3855 100.9700
" />
<path d="M111.3855 100.9700
L111.4459 101.0305
" />
<path d="M111.4459 101.0305
L111.5064 100.9700
" />
<path d="M111.5064 100.9700
L111.4459 100.9095
" />
<path d="M111.4459 100.9095
L111.4459 101.0305
" />
<path d="M112.0507 102.1795
L112.0507 101.3329
" />
<path d="M112.0507 101.4538
L112.1112 101.3933
" />
<path d="M112.1112 101.3933
L112.2322 101.3329
" />
<path d="M112.2322 101.3329
L112.4136 101.3329
" />
<path d="M112.4136 101.3329
L112.5345 101.3933
" />
<path d="M112.5345 101.3933
L112.5950 101.5143
" />
<path d="M112.5950 101.5143
L112.5950 102.1795
" />
<path d="M112.5950 101.5143
L112.6555 101.3933
" />
<path d="M112.6555 101.3933
L112.7764 101.3329
" />
<path d="M112.7764 101.3329
L112.9579 101.3329
" />
<path d="M112.9579 101.3329
L113.0788 101.3933
" />
<path d="M113.0788 101.3933
L113.1393 101.5143
" />
<path d="M113.1393 101.5143
L113.1393 102.1795
" />
<path d="M114.2278 102.1191
L114.1069 102.1795
" />
<path d="M114.1069 102.1795
L113.8650 102.1795
" />
<path d="M113.8650 102.1795
L113.7440 102.1191
" />
<path d="M113.7440 102.1191
L113.6836 101.9981
" />
<path d="M113.6836 101.9981
L113.6836 101.5143
" />
<path d="M113.6836 101.5143
L113.7440 101.3933
" />
<path d="M113.7440 101.3933
L113.8650 101.3329
" />
<path d="M113.8650 101.3329
L114.1069 101.3329
" />
<path d="M114.1069 101.3329
L114.2278 101.3933
" />
<path d="M114.2278 101.3933
L114.2883 101.5143
" />
<path d="M114.2883 101.5143
L114.2883 101.6352
" />
<path d="M114.2883 101.6352
L113.6836 101.7562
" />
<path d="M114.5303 102.3005
L115.4979 102.3005
" />
<path d="M116.4655 102.1795
L115.7398 102.1795
" />
<path d="M116.1026 102.1795
L116.1026 100.9095
" />
<path d="M116.1026 100.9095
L115.9817 101.0910
" />
<path d="M115.9817 101.0910
L115.8607 101.2119
" />
<path d="M115.8607 101.2119
L115.7398 101.2724
" />
<path d="M117.5540 100.9095
L117.3121 100.9095
" />
<path d="M117.3121 100.9095
L117.1912 100.9700
" />
<path d="M117.1912 100.9700
L117.1307 101.0305
" />
<path d="M117.1307 101.0305
L117.0097 101.2119
" />
<path d="M117.0097 101.2119
L116.9493 101.4538
" />
<path d="M116.9493 101.4538
L116.9493 101.9376
" />
<path d="M116.9493 101.9376
L117.0097 102.0586
" />
<path d="M117.0097 102.0586
L117.0702 102.1191
" />
<path d="M117.0702 102.1191
L117.1912 102.1795
" />
<path d="M117.1912 102.1795
L117.4331 102.1795
" />
<path d="M117.4331 102.1795
L117.5540 102.1191
" />
<path d="M117.5540 102.1191
L117.6145 102.0586
" />
<path d="M117.6145 102.0586
L117.6750 101.9376
" />
<path d="M117.6750 101.9376
L117.6750 101.6352
" />
<path d="M117.6750 101.6352
L117.6145 101.5143
" />
<path d="M117.6145 101.5143
L117.5540 101.4538
" />
<path d="M117.5540 101.4538
L117.4331 101.3933
" />
<path d="M117.4331 101.3933
L117.1912 101.3933
" />
<path d="M117.1912 101.3933
L117.0702 101.4538
" />
<path d="M117.0702 101.4538
L117.0097 101.5143
" />
<path d="M117.0097 101.5143
L116.9493 101.6352
" />
</g><path style="fill:none; 
stroke:#725600; stroke-width:0.1524; stroke-opacity:1; 
stroke-linecap:round; stroke-linejoin:round;fill:none"
d="M 105.4100,101.6000
104.7750,100.9650
104.1400,100.9650
104.1400,102.2350
104.7750,102.2350
Z" /> 
</g>
<g style="fill:none; 
stroke:#725600; stroke-width:0.1524; stroke-opacity:1; 
stroke-linecap:round; stroke-linejoin:round;">
<text x="105.6005" y="90.8050"
textLength="11.2099" font-size="1.6933" lengthAdjust="spacingAndGlyphs"
text-anchor="start" opacity="0" stroke-opacity="0">Heimtime_1</text>
<g class="stroked-text"><desc>Heimtime_1</desc>
<path d="M106.0030 90.7495
L106.0030 89.4795
" />
<path d="M106.0030 90.0843
L106.7287 90.0843
" />
<path d="M106.7287 90.7495
L106.7287 89.4795
" />
<path d="M107.8173 90.6891
L107.6964 90.7495
" />
<path d="M107.6964 90.7495
L107.4545 90.7495
" />
<path d="M107.4545 90.7495
L107.3335 90.6891
" />
<path d="M107.3335 90.6891
L107.2731 90.5681
" />
<path d="M107.2731 90.5681
L107.2731 90.0843
" />
<path d="M107.2731 90.0843
L107.3335 89.9633
" />
<path d="M107.3335 89.9633
L107.4545 89.9029
" />
<path d="M107.4545 89.9029
L107.6964 89.9029
" />
<path d="M107.6964 89.9029
L107.8173 89.9633
" />
<path d="M107.8173 89.9633
L107.8778 90.0843
" />
<path d="M107.8778 90.0843
L107.8778 90.2052
" />
<path d="M107.8778 90.2052
L107.2731 90.3262
" />
<path d="M108.4221 90.7495
L108.4221 89.9029
" />
<path d="M108.4221 89.4795
L108.3617 89.5400
" />
<path d="M108.3617 89.5400
L108.4221 89.6005
" />
<path d="M108.4221 89.6005
L108.4826 89.5400
" />
<path d="M108.4826 89.5400
L108.4221 89.4795
" />
<path d="M108.4221 89.4795
L108.4221 89.6005
" />
<path d="M109.0269 90.7495
L109.0269 89.9029
" />
<path d="M109.0269 90.0238
L109.0874 89.9633
" />
<path d="M109.0874 89.9633
L109.2084 89.9029
" />
<path d="M109.2084 89.9029
L109.3898 89.9029
" />
<path d="M109.3898 89.9029
L109.5107 89.9633
" />
<path d="M109.5107 89.9633
L109.5712 90.0843
" />
<path d="M109.5712 90.0843
L109.5712 90.7495
" />
<path d="M109.5712 90.0843
L109.6317 89.9633
" />
<path d="M109.6317 89.9633
L109.7526 89.9029
" />
<path d="M109.7526 89.9029
L109.9341 89.9029
" />
<path d="M109.9341 89.9029
L110.0550 89.9633
" />
<path d="M110.0550 89.9633
L110.1155 90.0843
" />
<path d="M110.1155 90.0843
L110.1155 90.7495
" />
<path d="M110.5388 89.9029
L111.0226 89.9029
" />
<path d="M110.7202 89.4795
L110.7202 90.5681
" />
<path d="M110.7202 90.5681
L110.7807 90.6891
" />
<path d="M110.7807 90.6891
L110.9017 90.7495
" />
<path d="M110.9017 90.7495
L111.0226 90.7495
" />
<path d="M111.4459 90.7495
L111.4459 89.9029
" />
<path d="M111.4459 89.4795
L111.3855 89.5400
" />
<path d="M111.3855 89.5400
L111.4459 89.6005
" />
<path d="M111.4459 89.6005
L111.5064 89.5400
" />
<path d="M111.5064 89.5400
L111.4459 89.4795
" />
<path d="M111.4459 89.4795
L111.4459 89.6005
" />
<path d="M112.0507 90.7495
L112.0507 89.9029
" />
<path d="M112.0507 90.0238
L112.1112 89.9633
" />
<path d="M112.1112 89.9633
L112.2322 89.9029
" />
<path d="M112.2322 89.9029
L112.4136 89.9029
" />
<path d="M112.4136 89.9029
L112.5345 89.9633
" />
<path d="M112.5345 89.9633
L112.5950 90.0843
" />
<path d="M112.5950 90.0843
L112.5950 90.7495
" />
<path d="M112.5950 90.0843
L112.6555 89.9633
" />
<path d="M112.6555 89.9633
L112.7764 89.9029
" />
<path d="M112.7764 89.9029
L112.9579 89.9029
" />
<path d="M112.9579 89.9029
L113.0788 89.9633
" />
<path d="M113.0788 89.9633
L113.1393 90.0843
" />
<path d="M113.1393 90.0843
L113.1393 90.7495
" />
<path d="M114.2278 90.6891
L114.1069 90.7495
" />
<path d="M114.1069 90.7495
L113.8650 90.7495
" />
<path d="M113.8650 90.7495
L113.7440 90.6891
" />
<path d="M113.7440 90.6891
L113.6836 90.5681
" />
<path d="M113.6836 90.5681
L113.6836 90.0843
" />
<path d="M113.6836 90.0843
L113.7440 89.9633
" />
<path d="M113.7440 89.9633
L113.8650 89.9029
" />
<path d="M113.8650 89.9029
L114.1069 89.9029
" />
<path d="M114.1069 89.9029
L114.2278 89.9633
" />
<path d="M114.2278 89.9633
L114.2883 90.0843
" />
<path d="M114.2883 90.0843
L114.2883 90.2052
" />
<path d="M114.2883 90.2052
L113.6836 90.3262
" />
<path d="M114.5303 90.8705
L115.4979 90.8705
" />
<path d="M116.4655 90.7495
L115.7398 90.7495
" />
<path d="M116.1026 90.7495
L116.1026 89.4795
" />
<path d="M116.1026 89.4795
L115.9817 89.6610
" />
<path d="M115.9817 89.6610
L115.8607 89.7819
" />
<path d="M115.8607 89.7819
L115.7398 89.8424
" />
</g><path style="fill:none; 
stroke:#725600; stroke-width:0.1524; stroke-opacity:1; 
stroke-linecap:round; stroke-linejoin:round;fill:none"
d="M 105.4100,90.1700
104.7750,89.5350
104.1400,89.5350
104.1400,90.8050
104.7750,90.8050
Z" /> 
</g>
<g style="fill:none; 
stroke:#725600; stroke-width:0.1524; stroke-opacity:1; 
stroke-linecap:round; stroke-linejoin:round;">
<text x="105.6005" y="93.3450"
textLength="15.1407" font-size="1.6933" lengthAdjust="spacingAndGlyphs"
text-anchor="start" opacity="0" stroke-opacity="0">MasterTrigger_1</text>
<g class="stroked-text"><desc>MasterTrigger_1</desc>
<path d="M106.0030 93.2895
L106.0030 92.0195
" />
<path d="M106.0030 92.0195
L106.4264 92.9267
" />
<path d="M106.4264 92.9267
L106.8497 92.0195
" />
<path d="M106.8497 92.0195
L106.8497 93.2895
" />
<path d="M107.9987 93.2895
L107.9987 92.6243
" />
<path d="M107.9987 92.6243
L107.9382 92.5033
" />
<path d="M107.9382 92.5033
L107.8173 92.4429
" />
<path d="M107.8173 92.4429
L107.5754 92.4429
" />
<path d="M107.5754 92.4429
L107.4544 92.5033
" />
<path d="M107.9987 93.2291
L107.8778 93.2895
" />
<path d="M107.8778 93.2895
L107.5754 93.2895
" />
<path d="M107.5754 93.2895
L107.4544 93.2291
" />
<path d="M107.4544 93.2291
L107.3940 93.1081
" />
<path d="M107.3940 93.1081
L107.3940 92.9871
" />
<path d="M107.3940 92.9871
L107.4544 92.8662
" />
<path d="M107.4544 92.8662
L107.5754 92.8057
" />
<path d="M107.5754 92.8057
L107.8778 92.8057
" />
<path d="M107.8778 92.8057
L107.9987 92.7452
" />
<path d="M108.5430 93.2291
L108.6639 93.2895
" />
<path d="M108.6639 93.2895
L108.9058 93.2895
" />
<path d="M108.9058 93.2895
L109.0268 93.2291
" />
<path d="M109.0268 93.2291
L109.0872 93.1081
" />
<path d="M109.0872 93.1081
L109.0872 93.0476
" />
<path d="M109.0872 93.0476
L109.0268 92.9267
" />
<path d="M109.0268 92.9267
L108.9058 92.8662
" />
<path d="M108.9058 92.8662
L108.7244 92.8662
" />
<path d="M108.7244 92.8662
L108.6034 92.8057
" />
<path d="M108.6034 92.8057
L108.5430 92.6848
" />
<path d="M108.5430 92.6848
L108.5430 92.6243
" />
<path d="M108.5430 92.6243
L108.6034 92.5033
" />
<path d="M108.6034 92.5033
L108.7244 92.4429
" />
<path d="M108.7244 92.4429
L108.9058 92.4429
" />
<path d="M108.9058 92.4429
L109.0268 92.5033
" />
<path d="M109.4501 92.4429
L109.9339 92.4429
" />
<path d="M109.6315 92.0195
L109.6315 93.1081
" />
<path d="M109.6315 93.1081
L109.6920 93.2291
" />
<path d="M109.6920 93.2291
L109.8130 93.2895
" />
<path d="M109.8130 93.2895
L109.9339 93.2895
" />
<path d="M110.8410 93.2291
L110.7201 93.2895
" />
<path d="M110.7201 93.2895
L110.4782 93.2895
" />
<path d="M110.4782 93.2895
L110.3572 93.2291
" />
<path d="M110.3572 93.2291
L110.2968 93.1081
" />
<path d="M110.2968 93.1081
L110.2968 92.6243
" />
<path d="M110.2968 92.6243
L110.3572 92.5033
" />
<path d="M110.3572 92.5033
L110.4782 92.4429
" />
<path d="M110.4782 92.4429
L110.7201 92.4429
" />
<path d="M110.7201 92.4429
L110.8410 92.5033
" />
<path d="M110.8410 92.5033
L110.9015 92.6243
" />
<path d="M110.9015 92.6243
L110.9015 92.7452
" />
<path d="M110.9015 92.7452
L110.2968 92.8662
" />
<path d="M111.4458 93.2895
L111.4458 92.4429
" />
<path d="M111.4458 92.6848
L111.5063 92.5638
" />
<path d="M111.5063 92.5638
L111.5668 92.5033
" />
<path d="M111.5668 92.5033
L111.6877 92.4429
" />
<path d="M111.6877 92.4429
L111.8087 92.4429
" />
<path d="M112.0506 92.0195
L112.7763 92.0195
" />
<path d="M112.4135 93.2895
L112.4135 92.0195
" />
<path d="M113.1996 93.2895
L113.1996 92.4429
" />
<path d="M113.1996 92.6848
L113.2601 92.5638
" />
<path d="M113.2601 92.5638
L113.3206 92.5033
" />
<path d="M113.3206 92.5033
L113.4415 92.4429
" />
<path d="M113.4415 92.4429
L113.5625 92.4429
" />
<path d="M113.9858 93.2895
L113.9858 92.4429
" />
<path d="M113.9858 92.0195
L113.9254 92.0800
" />
<path d="M113.9254 92.0800
L113.9858 92.1405
" />
<path d="M113.9858 92.1405
L114.0463 92.0800
" />
<path d="M114.0463 92.0800
L113.9858 92.0195
" />
<path d="M113.9858 92.0195
L113.9858 92.1405
" />
<path d="M115.1349 92.4429
L115.1349 93.4710
" />
<path d="M115.1349 93.4710
L115.0744 93.5919
" />
<path d="M115.0744 93.5919
L115.0140 93.6524
" />
<path d="M115.0140 93.6524
L114.8930 93.7129
" />
<path d="M114.8930 93.7129
L114.7116 93.7129
" />
<path d="M114.7116 93.7129
L114.5906 93.6524
" />
<path d="M115.1349 93.2291
L115.0140 93.2895
" />
<path d="M115.0140 93.2895
L114.7721 93.2895
" />
<path d="M114.7721 93.2895
L114.6511 93.2291
" />
<path d="M114.6511 93.2291
L114.5906 93.1686
" />
<path d="M114.5906 93.1686
L114.5302 93.0476
" />
<path d="M114.5302 93.0476
L114.5302 92.6848
" />
<path d="M114.5302 92.6848
L114.5906 92.5638
" />
<path d="M114.5906 92.5638
L114.6511 92.5033
" />
<path d="M114.6511 92.5033
L114.7721 92.4429
" />
<path d="M114.7721 92.4429
L115.0140 92.4429
" />
<path d="M115.0140 92.4429
L115.1349 92.5033
" />
<path d="M116.2839 92.4429
L116.2839 93.4710
" />
<path d="M116.2839 93.4710
L116.2234 93.5919
" />
<path d="M116.2234 93.5919
L116.1630 93.6524
" />
<path d="M116.1630 93.6524
L116.0420 93.7129
" />
<path d="M116.0420 93.7129
L115.8606 93.7129
" />
<path d="M115.8606 93.7129
L115.7396 93.6524
" />
<path d="M116.2839 93.2291
L116.1630 93.2895
" />
<path d="M116.1630 93.2895
L115.9211 93.2895
" />
<path d="M115.9211 93.2895
L115.8001 93.2291
" />
<path d="M115.8001 93.2291
L115.7396 93.1686
" />
<path d="M115.7396 93.1686
L115.6792 93.0476
" />
<path d="M115.6792 93.0476
L115.6792 92.6848
" />
<path d="M115.6792 92.6848
L115.7396 92.5638
" />
<path d="M115.7396 92.5638
L115.8001 92.5033
" />
<path d="M115.8001 92.5033
L115.9211 92.4429
" />
<path d="M115.9211 92.4429
L116.1630 92.4429
" />
<path d="M116.1630 92.4429
L116.2839 92.5033
" />
<path d="M117.3724 93.2291
L117.2515 93.2895
" />
<path d="M117.2515 93.2895
L117.0096 93.2895
" />
<path d="M117.0096 93.2895
L116.8886 93.2291
" />
<path d="M116.8886 93.2291
L116.8282 93.1081
" />
<path d="M116.8282 93.1081
L116.8282 92.6243
" />
<path d="M116.8282 92.6243
L116.8886 92.5033
" />
<path d="M116.8886 92.5033
L117.0096 92.4429
" />
<path d="M117.0096 92.4429
L117.2515 92.4429
" />
<path d="M117.2515 92.4429
L117.3724 92.5033
" />
<path d="M117.3724 92.5033
L117.4329 92.6243
" />
<path d="M117.4329 92.6243
L117.4329 92.7452
" />
<path d="M117.4329 92.7452
L116.8282 92.8662
" />
<path d="M117.9772 93.2895
L117.9772 92.4429
" />
<path d="M117.9772 92.6848
L118.0377 92.5638
" />
<path d="M118.0377 92.5638
L118.0982 92.5033
" />
<path d="M118.0982 92.5033
L118.2191 92.4429
" />
<path d="M118.2191 92.4429
L118.3401 92.4429
" />
<path d="M118.4611 93.4105
L119.4287 93.4105
" />
<path d="M120.3963 93.2895
L119.6706 93.2895
" />
<path d="M120.0334 93.2895
L120.0334 92.0195
" />
<path d="M120.0334 92.0195
L119.9125 92.2010
" />
<path d="M119.9125 92.2010
L119.7915 92.3219
" />
<path d="M119.7915 92.3219
L119.6706 92.3824
" />
</g><path style="fill:none; 
stroke:#725600; stroke-width:0.1524; stroke-opacity:1; 
stroke-linecap:round; stroke-linejoin:round;fill:none"
d="M 105.4100,92.7100
104.7750,92.0750
104.1400,92.0750
104.1400,93.3450
104.7750,93.3450
Z" /> 
</g>
<g style="fill:none; 
stroke:#725600; stroke-width:0.1524; stroke-opacity:1; 
stroke-linecap:round; stroke-linejoin:round;">
<text x="105.6005" y="104.7750"
textLength="16.3502" font-size="1.6933" lengthAdjust="spacingAndGlyphs"
text-anchor="start" opacity="0" stroke-opacity="0">MasterTrigger_16</text>
<g class="stroked-text"><desc>MasterTrigger_16</desc>
<path d="M106.0030 104.7195
L106.0030 103.4495
" />
<path d="M106.0030 103.4495
L106.4264 104.3567
" />
<path d="M106.4264 104.3567
L106.8497 103.4495
" />
<path d="M106.8497 103.4495
L106.8497 104.7195
" />
<path d="M107.9987 104.7195
L107.9987 104.0543
" />
<path d="M107.9987 104.0543
L107.9382 103.9333
" />
<path d="M107.9382 103.9333
L107.8173 103.8729
" />
<path d="M107.8173 103.8729
L107.5754 103.8729
" />
<path d="M107.5754 103.8729
L107.4544 103.9333
" />
<path d="M107.9987 104.6591
L107.8778 104.7195
" />
<path d="M107.8778 104.7195
L107.5754 104.7195
" />
<path d="M107.5754 104.7195
L107.4544 104.6591
" />
<path d="M107.4544 104.6591
L107.3940 104.5381
" />
<path d="M107.3940 104.5381
L107.3940 104.4171
" />
<path d="M107.3940 104.4171
L107.4544 104.2962
" />
<path d="M107.4544 104.2962
L107.5754 104.2357
" />
<path d="M107.5754 104.2357
L107.8778 104.2357
" />
<path d="M107.8778 104.2357
L107.9987 104.1752
" />
<path d="M108.5430 104.6591
L108.6639 104.7195
" />
<path d="M108.6639 104.7195
L108.9058 104.7195
" />
<path d="M108.9058 104.7195
L109.0268 104.6591
" />
<path d="M109.0268 104.6591
L109.0872 104.5381
" />
<path d="M109.0872 104.5381
L109.0872 104.4776
" />
<path d="M109.0872 104.4776
L109.0268 104.3567
" />
<path d="M109.0268 104.3567
L108.9058 104.2962
" />
<path d="M108.9058 104.2962
L108.7244 104.2962
" />
<path d="M108.7244 104.2962
L108.6034 104.2357
" />
<path d="M108.6034 104.2357
L108.5430 104.1148
" />
<path d="M108.5430 104.1148
L108.5430 104.0543
" />
<path d="M108.5430 104.0543
L108.6034 103.9333
" />
<path d="M108.6034 103.9333
L108.7244 103.8729
" />
<path d="M108.7244 103.8729
L108.9058 103.8729
" />
<path d="M108.9058 103.8729
L109.0268 103.9333
" />
<path d="M109.4501 103.8729
L109.9339 103.8729
" />
<path d="M109.6315 103.4495
L109.6315 104.5381
" />
<path d="M109.6315 104.5381
L109.6920 104.6591
" />
<path d="M109.6920 104.6591
L109.8130 104.7195
" />
<path d="M109.8130 104.7195
L109.9339 104.7195
" />
<path d="M110.8410 104.6591
L110.7201 104.7195
" />
<path d="M110.7201 104.7195
L110.4782 104.7195
" />
<path d="M110.4782 104.7195
L110.3572 104.6591
" />
<path d="M110.3572 104.6591
L110.2968 104.5381
" />
<path d="M110.2968 104.5381
L110.2968 104.0543
" />
<path d="M110.2968 104.0543
L110.3572 103.9333
" />
<path d="M110.3572 103.9333
L110.4782 103.8729
" />
<path d="M110.4782 103.8729
L110.7201 103.8729
" />
<path d="M110.7201 103.8729
L110.8410 103.9333
" />
<path d="M110.8410 103.9333
L110.9015 104.0543
" />
<path d="M110.9015 104.0543
L110.9015 104.1752
" />
<path d="M110.9015 104.1752
L110.2968 104.2962
" />
<path d="M111.4458 104.7195
L111.4458 103.8729
" />
<path d="M111.4458 104.1148
L111.5063 103.9938
" />
<path d="M111.5063 103.9938
L111.5668 103.9333
" />
<path d="M111.5668 103.9333
L111.6877 103.8729
" />
<path d="M111.6877 103.8729
L111.8087 103.8729
" />
<path d="M112.0506 103.4495
L112.7763 103.4495
" />
<path d="M112.4135 104.7195
L112.4135 103.4495
" />
<path d="M113.1996 104.7195
L113.1996 103.8729
" />
<path d="M113.1996 104.1148
L113.2601 103.9938
" />
<path d="M113.2601 103.9938
L113.3206 103.9333
" />
<path d="M113.3206 103.9333
L113.4415 103.8729
" />
<path d="M113.4415 103.8729
L113.5625 103.8729
" />
<path d="M113.9858 104.7195
L113.9858 103.8729
" />
<path d="M113.9858 103.4495
L113.9254 103.5100
" />
<path d="M113.9254 103.5100
L113.9858 103.5705
" />
<path d="M113.9858 103.5705
L114.0463 103.5100
" />
<path d="M114.0463 103.5100
L113.9858 103.4495
" />
<path d="M113.9858 103.4495
L113.9858 103.5705
" />
<path d="M115.1349 103.8729
L115.1349 104.9010
" />
<path d="M115.1349 104.9010
L115.0744 105.0219
" />
<path d="M115.0744 105.0219
L115.0140 105.0824
" />
<path d="M115.0140 105.0824
L114.8930 105.1429
" />
<path d="M114.8930 105.1429
L114.7116 105.1429
" />
<path d="M114.7116 105.1429
L114.5906 105.0824
" />
<path d="M115.1349 104.6591
L115.0140 104.7195
" />
<path d="M115.0140 104.7195
L114.7721 104.7195
" />
<path d="M114.7721 104.7195
L114.6511 104.6591
" />
<path d="M114.6511 104.6591
L114.5906 104.5986
" />
<path d="M114.5906 104.5986
L114.5302 104.4776
" />
<path d="M114.5302 104.4776
L114.5302 104.1148
" />
<path d="M114.5302 104.1148
L114.5906 103.9938
" />
<path d="M114.5906 103.9938
L114.6511 103.9333
" />
<path d="M114.6511 103.9333
L114.7721 103.8729
" />
<path d="M114.7721 103.8729
L115.0140 103.8729
" />
<path d="M115.0140 103.8729
L115.1349 103.9333
" />
<path d="M116.2839 103.8729
L116.2839 104.9010
" />
<path d="M116.2839 104.9010
L116.2234 105.0219
" />
<path d="M116.2234 105.0219
L116.1630 105.0824
" />
<path d="M116.1630 105.0824
L116.0420 105.1429
" />
<path d="M116.0420 105.1429
L115.8606 105.1429
" />
<path d="M115.8606 105.1429
L115.7396 105.0824
" />
<path d="M116.2839 104.6591
L116.1630 104.7195
" />
<path d="M116.1630 104.7195
L115.9211 104.7195
" />
<path d="M115.9211 104.7195
L115.8001 104.6591
" />
<path d="M115.8001 104.6591
L115.7396 104.5986
" />
<path d="M115.7396 104.5986
L115.6792 104.4776
" />
<path d="M115.6792 104.4776
L115.6792 104.1148
" />
<path d="M115.6792 104.1148
L115.7396 103.9938
" />
<path d="M115.7396 103.9938
L115.8001 103.9333
" />
<path d="M115.8001 103.9333
L115.9211 103.8729
" />
<path d="M115.9211 103.8729
L116.1630 103.8729
" />
<path d="M116.1630 103.8729
L116.2839 103.9333
" />
<path d="M117.3724 104.6591
L117.2515 104.7195
" />
<path d="M117.2515 104.7195
L117.0096 104.7195
" />
<path d="M117.0096 104.7195
L116.8886 104.6591
" />
<path d="M116.8886 104.6591
L116.8282 104.5381
" />
<path d="M116.8282 104.5381
L116.8282 104.0543
" />
<path d="M116.8282 104.0543
L116.8886 103.9333
" />
<path d="M116.8886 103.9333
L117.0096 103.8729
" />
<path d="M117.0096 103.8729
L117.2515 103.8729
" />
<path d="M117.2515 103.8729
L117.3724 103.9333
" />
<path d="M117.3724 103.9333
L117.4329 104.0543
" />
<path d="M117.4329 104.0543
L117.4329 104.1752
" />
<path d="M117.4329 104.1752
L116.8282 104.2962
" />
<path d="M117.9772 104.7195
L117.9772 103.8729
" />
<path d="M117.9772 104.1148
L118.0377 103.9938
" />
<path d="M118.0377 103.9938
L118.0982 103.9333
" />
<path d="M118.0982 103.9333
L118.2191 103.8729
" />
<path d="M118.2191 103.8729
L118.3401 103.8729
" />
<path d="M118.4611 104.8405
L119.4287 104.8405
" />
<path d="M120.3963 104.7195
L119.6706 104.7195
" />
<path d="M120.0334 104.7195
L120.0334 103.4495
" />
<path d="M120.0334 103.4495
L119.9125 103.6310
" />
<path d="M119.9125 103.6310
L119.7915 103.7519
" />
<path d="M119.7915 103.7519
L119.6706 103.8124
" />
<path d="M121.4848 103.4495
L121.2429 103.4495
" />
<path d="M121.2429 103.4495
L121.1220 103.5100
" />
<path d="M121.1220 103.5100
L121.0615 103.5705
" />
<path d="M121.0615 103.5705
L120.9405 103.7519
" />
<path d="M120.9405 103.7519
L120.8801 103.9938
" />
<path d="M120.8801 103.9938
L120.8801 104.4776
" />
<path d="M120.8801 104.4776
L120.9405 104.5986
" />
<path d="M120.9405 104.5986
L121.0010 104.6591
" />
<path d="M121.0010 104.6591
L121.1220 104.7195
" />
<path d="M121.1220 104.7195
L121.3639 104.7195
" />
<path d="M121.3639 104.7195
L121.4848 104.6591
" />
<path d="M121.4848 104.6591
L121.5453 104.5986
" />
<path d="M121.5453 104.5986
L121.6058 104.4776
" />
<path d="M121.6058 104.4776
L121.6058 104.1752
" />
<path d="M121.6058 104.1752
L121.5453 104.0543
" />
<path d="M121.5453 104.0543
L121.4848 103.9938
" />
<path d="M121.4848 103.9938
L121.3639 103.9333
" />
<path d="M121.3639 103.9333
L121.1220 103.9333
" />
<path d="M121.1220 103.9333
L121.0010 103.9938
" />
<path d="M121.0010 103.9938
L120.9405 104.0543
" />
<path d="M120.9405 104.0543
L120.8801 104.1752
" />
</g><path style="fill:none; 
stroke:#725600; stroke-width:0.1524; stroke-opacity:1; 
stroke-linecap:round; stroke-linejoin:round;fill:none"
d="M 105.4100,104.1400
104.7750,103.5050
104.1400,103.5050
104.1400,104.7750
104.7750,104.7750
Z" /> 
</g> 
</svg>
