<?xml version="1.0" standalone="no"?>
 <!DOCTYPE svg PUBLIC "-//W3C//DTD SVG 1.1//EN" 
 "http://www.w3.org/Graphics/SVG/1.1/DTD/svg11.dtd"> 
<svg
  xmlns:svg="http://www.w3.org/2000/svg"
  xmlns="http://www.w3.org/2000/svg"
  xmlns:xlink="http://www.w3.org/1999/xlink"
  version="1.1"
  width="104.2416mm" height="73.4822mm" viewBox="0.0000 0.0000 104.2416 73.4822">
<title>SVG Image created as HYDRA_VMM3_CARD-F_Silkscreen.svg date 2024/07/05 23:43:36 </title>
  <desc>Image generated by PCBNEW </desc>
<g style="fill:#000000; fill-opacity:1.0000;stroke:#000000; stroke-opacity:1.0000;
stroke-linecap:round; stroke-linejoin:round;"
 transform="translate(0 0) scale(1 1)">
</g>
<g style="fill:none; 
stroke:#F2EDA1; stroke-width:0.5000; stroke-opacity:1; 
stroke-linecap:round; stroke-linejoin:round;">
<path d="M72.7500 60.0000
L89.2500 60.0000
" />
<path d="M60.0000 60.0000
L68.2500 60.0000
" />
<path d="M39.7500 60.0000
L56.2500 60.0000
" />
</g>
<g style="fill:none; 
stroke:#F2EDA1; stroke-width:0.1588; stroke-opacity:1; 
stroke-linecap:round; stroke-linejoin:round;">
<text x="27.7280" y="51.2350"
textLength="2.6413" font-size="1.6933" lengthAdjust="spacingAndGlyphs"
text-anchor="middle" opacity="0">15</text>
<g class="stroked-text"><desc>15</desc>
<path d="M27.4861 51.1793
L26.7604 51.1793
" />
<path d="M27.1232 51.1793
L27.1232 49.9093
" />
<path d="M27.1232 49.9093
L27.0023 50.0907
" />
<path d="M27.0023 50.0907
L26.8813 50.2117
" />
<path d="M26.8813 50.2117
L26.7604 50.2721
" />
<path d="M28.6351 49.9093
L28.0304 49.9093
" />
<path d="M28.0304 49.9093
L27.9699 50.5140
" />
<path d="M27.9699 50.5140
L28.0304 50.4536
" />
<path d="M28.0304 50.4536
L28.1513 50.3931
" />
<path d="M28.1513 50.3931
L28.4537 50.3931
" />
<path d="M28.4537 50.3931
L28.5747 50.4536
" />
<path d="M28.5747 50.4536
L28.6351 50.5140
" />
<path d="M28.6351 50.5140
L28.6956 50.6350
" />
<path d="M28.6956 50.6350
L28.6956 50.9374
" />
<path d="M28.6956 50.9374
L28.6351 51.0583
" />
<path d="M28.6351 51.0583
L28.5747 51.1188
" />
<path d="M28.5747 51.1188
L28.4537 51.1793
" />
<path d="M28.4537 51.1793
L28.1513 51.1793
" />
<path d="M28.1513 51.1793
L28.0304 51.1188
" />
<path d="M28.0304 51.1188
L27.9699 51.0583
" />
</g><text x="61.4030" y="51.2350"
textLength="2.6413" font-size="1.6933" lengthAdjust="spacingAndGlyphs"
text-anchor="middle" opacity="0">16</text>
<g class="stroked-text"><desc>16</desc>
<path d="M61.1611 51.1793
L60.4354 51.1793
" />
<path d="M60.7982 51.1793
L60.7982 49.9093
" />
<path d="M60.7982 49.9093
L60.6773 50.0907
" />
<path d="M60.6773 50.0907
L60.5563 50.2117
" />
<path d="M60.5563 50.2117
L60.4354 50.2721
" />
<path d="M62.2497 49.9093
L62.0078 49.9093
" />
<path d="M62.0078 49.9093
L61.8868 49.9697
" />
<path d="M61.8868 49.9697
L61.8263 50.0302
" />
<path d="M61.8263 50.0302
L61.7054 50.2117
" />
<path d="M61.7054 50.2117
L61.6449 50.4536
" />
<path d="M61.6449 50.4536
L61.6449 50.9374
" />
<path d="M61.6449 50.9374
L61.7054 51.0583
" />
<path d="M61.7054 51.0583
L61.7659 51.1188
" />
<path d="M61.7659 51.1188
L61.8868 51.1793
" />
<path d="M61.8868 51.1793
L62.1287 51.1793
" />
<path d="M62.1287 51.1793
L62.2497 51.1188
" />
<path d="M62.2497 51.1188
L62.3101 51.0583
" />
<path d="M62.3101 51.0583
L62.3706 50.9374
" />
<path d="M62.3706 50.9374
L62.3706 50.6350
" />
<path d="M62.3706 50.6350
L62.3101 50.5140
" />
<path d="M62.3101 50.5140
L62.2497 50.4536
" />
<path d="M62.2497 50.4536
L62.1287 50.3931
" />
<path d="M62.1287 50.3931
L61.8868 50.3931
" />
<path d="M61.8868 50.3931
L61.7659 50.4536
" />
<path d="M61.7659 50.4536
L61.7054 50.5140
" />
<path d="M61.7054 50.5140
L61.6449 50.6350
" />
</g><text x="22.6480" y="51.2350"
textLength="2.6413" font-size="1.6933" lengthAdjust="spacingAndGlyphs"
text-anchor="middle" opacity="0">11</text>
<g class="stroked-text"><desc>11</desc>
<path d="M22.4061 51.1793
L21.6804 51.1793
" />
<path d="M22.0432 51.1793
L22.0432 49.9093
" />
<path d="M22.0432 49.9093
L21.9223 50.0907
" />
<path d="M21.9223 50.0907
L21.8013 50.2117
" />
<path d="M21.8013 50.2117
L21.6804 50.2721
" />
<path d="M23.6156 51.1793
L22.8899 51.1793
" />
<path d="M23.2528 51.1793
L23.2528 49.9093
" />
<path d="M23.2528 49.9093
L23.1318 50.0907
" />
<path d="M23.1318 50.0907
L23.0109 50.2117
" />
<path d="M23.0109 50.2117
L22.8899 50.2721
" />
</g><text x="61.4030" y="53.7750"
textLength="2.6413" font-size="1.6933" lengthAdjust="spacingAndGlyphs"
text-anchor="middle" opacity="0">10</text>
<g class="stroked-text"><desc>10</desc>
<path d="M61.1611 53.7193
L60.4354 53.7193
" />
<path d="M60.7982 53.7193
L60.7982 52.4493
" />
<path d="M60.7982 52.4493
L60.6773 52.6307
" />
<path d="M60.6773 52.6307
L60.5563 52.7517
" />
<path d="M60.5563 52.7517
L60.4354 52.8121
" />
<path d="M61.9473 52.4493
L62.0682 52.4493
" />
<path d="M62.0682 52.4493
L62.1892 52.5097
" />
<path d="M62.1892 52.5097
L62.2497 52.5702
" />
<path d="M62.2497 52.5702
L62.3101 52.6912
" />
<path d="M62.3101 52.6912
L62.3706 52.9331
" />
<path d="M62.3706 52.9331
L62.3706 53.2355
" />
<path d="M62.3706 53.2355
L62.3101 53.4774
" />
<path d="M62.3101 53.4774
L62.2497 53.5983
" />
<path d="M62.2497 53.5983
L62.1892 53.6588
" />
<path d="M62.1892 53.6588
L62.0682 53.7193
" />
<path d="M62.0682 53.7193
L61.9473 53.7193
" />
<path d="M61.9473 53.7193
L61.8263 53.6588
" />
<path d="M61.8263 53.6588
L61.7659 53.5983
" />
<path d="M61.7659 53.5983
L61.7054 53.4774
" />
<path d="M61.7054 53.4774
L61.6449 53.2355
" />
<path d="M61.6449 53.2355
L61.6449 52.9331
" />
<path d="M61.6449 52.9331
L61.7054 52.6912
" />
<path d="M61.7054 52.6912
L61.7659 52.5702
" />
<path d="M61.7659 52.5702
L61.8263 52.5097
" />
<path d="M61.8263 52.5097
L61.9473 52.4493
" />
</g><text x="27.7280" y="53.7750"
textLength="1.4318" font-size="1.6933" lengthAdjust="spacingAndGlyphs"
text-anchor="middle" opacity="0">9</text>
<g class="stroked-text"><desc>9</desc>
<path d="M27.4861 53.7193
L27.7280 53.7193
" />
<path d="M27.7280 53.7193
L27.8490 53.6588
" />
<path d="M27.8490 53.6588
L27.9094 53.5983
" />
<path d="M27.9094 53.5983
L28.0304 53.4169
" />
<path d="M28.0304 53.4169
L28.0909 53.1750
" />
<path d="M28.0909 53.1750
L28.0909 52.6912
" />
<path d="M28.0909 52.6912
L28.0304 52.5702
" />
<path d="M28.0304 52.5702
L27.9699 52.5097
" />
<path d="M27.9699 52.5097
L27.8490 52.4493
" />
<path d="M27.8490 52.4493
L27.6070 52.4493
" />
<path d="M27.6070 52.4493
L27.4861 52.5097
" />
<path d="M27.4861 52.5097
L27.4256 52.5702
" />
<path d="M27.4256 52.5702
L27.3651 52.6912
" />
<path d="M27.3651 52.6912
L27.3651 52.9936
" />
<path d="M27.3651 52.9936
L27.4256 53.1145
" />
<path d="M27.4256 53.1145
L27.4861 53.1750
" />
<path d="M27.4861 53.1750
L27.6070 53.2355
" />
<path d="M27.6070 53.2355
L27.8490 53.2355
" />
<path d="M27.8490 53.2355
L27.9699 53.1750
" />
<path d="M27.9699 53.1750
L28.0304 53.1145
" />
<path d="M28.0304 53.1145
L28.0909 52.9936
" />
</g><text x="25.1880" y="51.2350"
textLength="2.6413" font-size="1.6933" lengthAdjust="spacingAndGlyphs"
text-anchor="middle" opacity="0">12</text>
<g class="stroked-text"><desc>12</desc>
<path d="M24.9461 51.1793
L24.2204 51.1793
" />
<path d="M24.5832 51.1793
L24.5832 49.9093
" />
<path d="M24.5832 49.9093
L24.4623 50.0907
" />
<path d="M24.4623 50.0907
L24.3413 50.2117
" />
<path d="M24.3413 50.2117
L24.2204 50.2721
" />
<path d="M25.4299 50.0302
L25.4904 49.9697
" />
<path d="M25.4904 49.9697
L25.6113 49.9093
" />
<path d="M25.6113 49.9093
L25.9137 49.9093
" />
<path d="M25.9137 49.9093
L26.0347 49.9697
" />
<path d="M26.0347 49.9697
L26.0951 50.0302
" />
<path d="M26.0951 50.0302
L26.1556 50.1512
" />
<path d="M26.1556 50.1512
L26.1556 50.2721
" />
<path d="M26.1556 50.2721
L26.0951 50.4536
" />
<path d="M26.0951 50.4536
L25.3694 51.1793
" />
<path d="M25.3694 51.1793
L26.1556 51.1793
" />
</g><text x="25.1880" y="53.7750"
textLength="1.4318" font-size="1.6933" lengthAdjust="spacingAndGlyphs"
text-anchor="middle" opacity="0">8</text>
<g class="stroked-text"><desc>8</desc>
<path d="M25.0670 52.9936
L24.9461 52.9331
" />
<path d="M24.9461 52.9331
L24.8856 52.8726
" />
<path d="M24.8856 52.8726
L24.8251 52.7517
" />
<path d="M24.8251 52.7517
L24.8251 52.6912
" />
<path d="M24.8251 52.6912
L24.8856 52.5702
" />
<path d="M24.8856 52.5702
L24.9461 52.5097
" />
<path d="M24.9461 52.5097
L25.0670 52.4493
" />
<path d="M25.0670 52.4493
L25.3090 52.4493
" />
<path d="M25.3090 52.4493
L25.4299 52.5097
" />
<path d="M25.4299 52.5097
L25.4904 52.5702
" />
<path d="M25.4904 52.5702
L25.5509 52.6912
" />
<path d="M25.5509 52.6912
L25.5509 52.7517
" />
<path d="M25.5509 52.7517
L25.4904 52.8726
" />
<path d="M25.4904 52.8726
L25.4299 52.9331
" />
<path d="M25.4299 52.9331
L25.3090 52.9936
" />
<path d="M25.3090 52.9936
L25.0670 52.9936
" />
<path d="M25.0670 52.9936
L24.9461 53.0540
" />
<path d="M24.9461 53.0540
L24.8856 53.1145
" />
<path d="M24.8856 53.1145
L24.8251 53.2355
" />
<path d="M24.8251 53.2355
L24.8251 53.4774
" />
<path d="M24.8251 53.4774
L24.8856 53.5983
" />
<path d="M24.8856 53.5983
L24.9461 53.6588
" />
<path d="M24.9461 53.6588
L25.0670 53.7193
" />
<path d="M25.0670 53.7193
L25.3090 53.7193
" />
<path d="M25.3090 53.7193
L25.4299 53.6588
" />
<path d="M25.4299 53.6588
L25.4904 53.5983
" />
<path d="M25.4904 53.5983
L25.5509 53.4774
" />
<path d="M25.5509 53.4774
L25.5509 53.2355
" />
<path d="M25.5509 53.2355
L25.4904 53.1145
" />
<path d="M25.4904 53.1145
L25.4299 53.0540
" />
<path d="M25.4299 53.0540
L25.3090 52.9936
" />
</g><text x="22.6480" y="53.7750"
textLength="1.4318" font-size="1.6933" lengthAdjust="spacingAndGlyphs"
text-anchor="middle" opacity="0">7</text>
<g class="stroked-text"><desc>7</desc>
<path d="M22.2247 52.4493
L23.0713 52.4493
" />
<path d="M23.0713 52.4493
L22.5270 53.7193
" />
</g></g>
<g style="fill:none; 
stroke:#F2EDA1; stroke-width:0.1200; stroke-opacity:1; 
stroke-linecap:round; stroke-linejoin:round;">
<circle cx="14.4300" cy="33.1900" r="1.2000" /> 
</g>
<g style="fill:none; 
stroke:#F2EDA1; stroke-width:0.1000; stroke-opacity:1; 
stroke-linecap:round; stroke-linejoin:round;">
<circle cx="76.7980" cy="7.8260" r="0.7906" /> 
</g>
<g style="fill:#F2EDA1; fill-opacity:1.0000; stroke:none;">
<circle cx="80.5480" cy="7.8260" r="0.5500" /> 
</g>
<g style="fill:none; 
stroke:#F2EDA1; stroke-width:0.1200; stroke-opacity:1; 
stroke-linecap:round; stroke-linejoin:round;">
<path d="M13.4300 34.7300
L15.4300 34.7300
" />
<path d="M13.4300 36.7300
L13.4300 34.7300
" />
<path d="M15.4300 34.7300
L15.4300 36.7300
" />
<path d="M15.4300 36.7300
L13.4300 36.7300
" />
<circle cx="14.4300" cy="38.2700" r="1.2000" /> 
</g>
<g style="fill:none; 
stroke:#D0D2CD; stroke-width:0.0500; stroke-opacity:1; 
stroke-linecap:round; stroke-linejoin:round;">
<path d="M13.0300 5.0000 A0.7500 0.7500 0.0 0 0 12.2800 5.7500" />
<path d="M91.0300 60.0000 A0.7500 0.7500 0.0 0 0 90.2800 60.7500" />
<path d="M12.2800 59.2500 A0.7500 0.7500 0.0 0 0 13.0300 60.0000" />
<path d="M59.2100 59.9250 A0.9250 0.9250 0.0 0 0 57.3600 59.9250" />
<path d="M12.2800 59.2500
L12.2800 5.7500
" />
<path d="M59.9600 66.0000
L68.4200 66.0000
" />
<path d="M39.7500 66.0000
L56.6100 66.0000
" />
<path d="M71.9200 65.2500
L72.6700 66.0000
" />
<path d="M91.0300 60.0000
L91.5300 60.0000
" />
<path d="M92.2800 5.7500 A0.7500 0.7500 0.0 0 0 91.5300 5.0000" />
<path d="M57.3600 65.2500
L57.3600 59.9250
" />
<path d="M72.6700 66.0000
L89.5300 66.0000
" />
<path d="M89.5300 66.0000
L90.2800 65.2500
" />
<path d="M57.3600 65.2500
L56.6100 66.0000
" />
<path d="M39.0000 65.2500
L39.0000 60.7500
" />
<path d="M59.2100 65.2500
L59.2100 59.9250
" />
<path d="M71.9200 65.2500
L71.9200 60.3125
" />
<path d="M39.0000 60.7500 A0.7500 0.7500 0.0 0 0 38.2500 60.0000" />
<path d="M69.1700 65.2500
L69.1700 60.3750
" />
<path d="M91.5300 60.0000 A0.7500 0.7500 0.0 0 0 92.2800 59.2500" />
<path d="M90.2800 65.2500
L90.2800 60.7500
" />
<path d="M69.1700 65.2500
L68.4200 66.0000
" />
<path d="M39.0000 65.2500
L39.7500 66.0000
" />
<path d="M13.0300 5.0000
L91.5300 5.0000
" />
<path d="M59.2100 65.2500
L59.9600 66.0000
" />
<path d="M38.2500 60.0000
L13.0300 60.0000
" />
<path d="M71.9200 60.3125 A1.3764 1.3764 0.0 0 0 69.1686 60.3750" />
<path d="M92.2800 5.7500
L92.2800 59.2500
" />
</g> 
</svg>
