%TF.GenerationSoftware,KiCad,Pcbnew,9.0.0*%
%TF.CreationDate,2025-02-25T16:03:33+01:00*%
%TF.ProjectId,2_In_6_Out,325f496e-5f36-45f4-9f75-742e6b696361,0*%
%TF.SameCoordinates,Original*%
%TF.FileFunction,Copper,L1,Top*%
%TF.FilePolarity,Positive*%
%FSLAX46Y46*%
G04 Gerber Fmt 4.6, Leading zero omitted, Abs format (unit mm)*
G04 Created by KiCad (PCBNEW 9.0.0) date 2025-02-25 16:03:33*
%MOMM*%
%LPD*%
G01*
G04 APERTURE LIST*
G04 Aperture macros list*
%AMRoundRect*
0 Rectangle with rounded corners*
0 $1 Rounding radius*
0 $2 $3 $4 $5 $6 $7 $8 $9 X,Y pos of 4 corners*
0 Add a 4 corners polygon primitive as box body*
4,1,4,$2,$3,$4,$5,$6,$7,$8,$9,$2,$3,0*
0 Add four circle primitives for the rounded corners*
1,1,$1+$1,$2,$3*
1,1,$1+$1,$4,$5*
1,1,$1+$1,$6,$7*
1,1,$1+$1,$8,$9*
0 Add four rect primitives between the rounded corners*
20,1,$1+$1,$2,$3,$4,$5,0*
20,1,$1+$1,$4,$5,$6,$7,0*
20,1,$1+$1,$6,$7,$8,$9,0*
20,1,$1+$1,$8,$9,$2,$3,0*%
%AMOutline5P*
0 Free polygon, 5 corners , with rotation*
0 The origin of the aperture is its center*
0 number of corners: always 5*
0 $1 to $10 corner X, Y*
0 $11 Rotation angle, in degrees counterclockwise*
0 create outline with 5 corners*
4,1,5,$1,$2,$3,$4,$5,$6,$7,$8,$9,$10,$1,$2,$11*%
%AMOutline6P*
0 Free polygon, 6 corners , with rotation*
0 The origin of the aperture is its center*
0 number of corners: always 6*
0 $1 to $12 corner X, Y*
0 $13 Rotation angle, in degrees counterclockwise*
0 create outline with 6 corners*
4,1,6,$1,$2,$3,$4,$5,$6,$7,$8,$9,$10,$11,$12,$1,$2,$13*%
%AMOutline7P*
0 Free polygon, 7 corners , with rotation*
0 The origin of the aperture is its center*
0 number of corners: always 7*
0 $1 to $14 corner X, Y*
0 $15 Rotation angle, in degrees counterclockwise*
0 create outline with 7 corners*
4,1,7,$1,$2,$3,$4,$5,$6,$7,$8,$9,$10,$11,$12,$13,$14,$1,$2,$15*%
%AMOutline8P*
0 Free polygon, 8 corners , with rotation*
0 The origin of the aperture is its center*
0 number of corners: always 8*
0 $1 to $16 corner X, Y*
0 $17 Rotation angle, in degrees counterclockwise*
0 create outline with 8 corners*
4,1,8,$1,$2,$3,$4,$5,$6,$7,$8,$9,$10,$11,$12,$13,$14,$15,$16,$1,$2,$17*%
G04 Aperture macros list end*
%TA.AperFunction,Conductor*%
%ADD10C,0.200000*%
%TD*%
%TA.AperFunction,SMDPad,CuDef*%
%ADD11RoundRect,0.135000X-0.185000X0.135000X-0.185000X-0.135000X0.185000X-0.135000X0.185000X0.135000X0*%
%TD*%
%TA.AperFunction,CastellatedPad*%
%ADD12O,3.000000X1.000000*%
%TD*%
%TA.AperFunction,ComponentPad*%
%ADD13O,1.000000X2.000000*%
%TD*%
%TA.AperFunction,SMDPad,CuDef*%
%ADD14RoundRect,0.135000X-0.135000X-0.185000X0.135000X-0.185000X0.135000X0.185000X-0.135000X0.185000X0*%
%TD*%
%TA.AperFunction,SMDPad,CuDef*%
%ADD15RoundRect,0.218750X0.218750X0.256250X-0.218750X0.256250X-0.218750X-0.256250X0.218750X-0.256250X0*%
%TD*%
%TA.AperFunction,SMDPad,CuDef*%
%ADD16RoundRect,0.100000X0.130000X0.100000X-0.130000X0.100000X-0.130000X-0.100000X0.130000X-0.100000X0*%
%TD*%
%TA.AperFunction,SMDPad,CuDef*%
%ADD17C,1.600000*%
%TD*%
%TA.AperFunction,SMDPad,CuDef*%
%ADD18R,1.600000X1.600000*%
%TD*%
%TA.AperFunction,SMDPad,CuDef*%
%ADD19RoundRect,0.100000X-0.162635X0.021213X0.021213X-0.162635X0.162635X-0.021213X-0.021213X0.162635X0*%
%TD*%
%TA.AperFunction,SMDPad,CuDef*%
%ADD20RoundRect,0.218750X-0.218750X-0.256250X0.218750X-0.256250X0.218750X0.256250X-0.218750X0.256250X0*%
%TD*%
%TA.AperFunction,SMDPad,CuDef*%
%ADD21RoundRect,0.140000X0.170000X-0.140000X0.170000X0.140000X-0.170000X0.140000X-0.170000X-0.140000X0*%
%TD*%
%TA.AperFunction,SMDPad,CuDef*%
%ADD22RoundRect,0.100000X-0.021213X-0.162635X0.162635X0.021213X0.021213X0.162635X-0.162635X-0.021213X0*%
%TD*%
%TA.AperFunction,SMDPad,CuDef*%
%ADD23RoundRect,0.135000X0.185000X-0.135000X0.185000X0.135000X-0.185000X0.135000X-0.185000X-0.135000X0*%
%TD*%
%TA.AperFunction,SMDPad,CuDef*%
%ADD24RoundRect,0.100000X-0.100000X0.130000X-0.100000X-0.130000X0.100000X-0.130000X0.100000X0.130000X0*%
%TD*%
%TA.AperFunction,SMDPad,CuDef*%
%ADD25R,0.750000X0.200000*%
%TD*%
%TA.AperFunction,SMDPad,CuDef*%
%ADD26Outline5P,-0.750000X0.475000X0.750000X0.475000X0.750000X-0.475000X-0.560000X-0.475000X-0.750000X-0.285000X270.000000*%
%TD*%
%TA.AperFunction,SMDPad,CuDef*%
%ADD27RoundRect,0.100000X0.100000X-0.130000X0.100000X0.130000X-0.100000X0.130000X-0.100000X-0.130000X0*%
%TD*%
%TA.AperFunction,SMDPad,CuDef*%
%ADD28RoundRect,0.200000X-0.200000X-0.275000X0.200000X-0.275000X0.200000X0.275000X-0.200000X0.275000X0*%
%TD*%
%TA.AperFunction,ViaPad*%
%ADD29C,0.450000*%
%TD*%
%TA.AperFunction,Conductor*%
%ADD30C,0.245000*%
%TD*%
%TA.AperFunction,Conductor*%
%ADD31C,0.600000*%
%TD*%
%TA.AperFunction,Conductor*%
%ADD32C,0.150000*%
%TD*%
%TA.AperFunction,Conductor*%
%ADD33C,0.500000*%
%TD*%
G04 APERTURE END LIST*
%TO.N,3V3*%
D10*
X96966250Y-64990000D02*
X97996250Y-64990000D01*
X97996250Y-65350000D01*
X96966250Y-65350000D01*
X96966250Y-64990000D01*
%TA.AperFunction,Conductor*%
G36*
X96966250Y-64990000D02*
G01*
X97996250Y-64990000D01*
X97996250Y-65350000D01*
X96966250Y-65350000D01*
X96966250Y-64990000D01*
G37*
%TD.AperFunction*%
X96976250Y-54990000D02*
X97996250Y-54990000D01*
X97996250Y-55350000D01*
X96976250Y-55350000D01*
X96976250Y-54990000D01*
%TA.AperFunction,Conductor*%
G36*
X96976250Y-54990000D02*
G01*
X97996250Y-54990000D01*
X97996250Y-55350000D01*
X96976250Y-55350000D01*
X96976250Y-54990000D01*
G37*
%TD.AperFunction*%
%TD*%
D11*
%TO.P,R4,1*%
%TO.N,/ClockBuffers/MasterTrigger_EN_1*%
X99896250Y-57540000D03*
%TO.P,R4,2*%
%TO.N,3V3*%
X99896250Y-58560000D03*
%TD*%
%TO.P,R8,1*%
%TO.N,/ClockBuffers/MasterTrigger_EN_2*%
X100896250Y-57540000D03*
%TO.P,R8,2*%
%TO.N,3V3*%
X100896250Y-58560000D03*
%TD*%
D12*
%TO.P,J3,1,Pin_1*%
%TO.N,GND*%
X109146250Y-53130000D03*
%TO.P,J3,2,Pin_2*%
%TO.N,/ClockBuffers/MasterTrigger_out_3*%
X109146250Y-54400000D03*
%TO.P,J3,3,Pin_3*%
%TO.N,GND*%
X109146250Y-55670000D03*
%TO.P,J3,4,Pin_4*%
%TO.N,/ClockBuffers/Heimtime_out_3*%
X109146250Y-56940000D03*
%TO.P,J3,5,Pin_5*%
%TO.N,GND*%
X109146250Y-58210000D03*
%TO.P,J3,6,Pin_6*%
%TO.N,/ClockBuffers/MasterTrigger_out_2*%
X109146250Y-59480000D03*
%TO.P,J3,7,Pin_7*%
%TO.N,GND*%
X109146250Y-60750000D03*
%TO.P,J3,8,Pin_8*%
%TO.N,/ClockBuffers/Heimtime_out_2*%
X109146250Y-62020000D03*
%TO.P,J3,9,Pin_9*%
%TO.N,GND*%
X109146250Y-63290000D03*
%TO.P,J3,10,Pin_10*%
%TO.N,/ClockBuffers/MasterTrigger_out_1*%
X109146250Y-64560000D03*
%TO.P,J3,11,Pin_11*%
%TO.N,GND*%
X109146250Y-65830000D03*
%TO.P,J3,12,Pin_12*%
%TO.N,/ClockBuffers/Heimtime_out_1*%
X109146250Y-67100000D03*
%TO.P,J3,13,Pin_13*%
%TO.N,GND*%
X109146250Y-68370000D03*
%TD*%
D13*
%TO.P,J4,1,Pin_1*%
%TO.N,GND*%
X96956250Y-50750000D03*
%TO.P,J4,2,Pin_2*%
X95686250Y-50750000D03*
%TO.P,J4,3,Pin_3*%
X94416250Y-50750000D03*
%TO.P,J4,4,Pin_4*%
X93146250Y-50750000D03*
%TD*%
D14*
%TO.P,R6,1*%
%TO.N,Net-(U2-Out_2)*%
X102696250Y-55350000D03*
%TO.P,R6,2*%
%TO.N,/ClockBuffers/MasterTrigger_out_2*%
X103716250Y-55350000D03*
%TD*%
D15*
%TO.P,D2,1,K*%
%TO.N,GND*%
X100663750Y-59840000D03*
%TO.P,D2,2,A*%
%TO.N,Net-(D2-A)*%
X99088750Y-59840000D03*
%TD*%
D16*
%TO.P,D7,1,A1*%
%TO.N,/ClockBuffers/MasterTrigger_out_1*%
X103716250Y-57230000D03*
%TO.P,D7,2,A2*%
%TO.N,GND*%
X103076250Y-57230000D03*
%TD*%
D17*
%TO.P,J2,1,In*%
%TO.N,/ClockBuffers/Heimtime_in*%
X93146250Y-65750000D03*
D18*
%TO.P,J2,2,Ext*%
%TO.N,GND*%
X95686250Y-63210000D03*
X90606250Y-63210000D03*
X95686250Y-68290000D03*
X90606250Y-68290000D03*
%TD*%
D19*
%TO.P,D13,1,A1*%
%TO.N,/ClockBuffers/Heimtime_out_1*%
X103409976Y-67423726D03*
%TO.P,D13,2,A2*%
%TO.N,GND*%
X103862524Y-67876274D03*
%TD*%
D11*
%TO.P,R9,1*%
%TO.N,/ClockBuffers/MasterTrigger_EN_3*%
X98896250Y-57540000D03*
%TO.P,R9,2*%
%TO.N,3V3*%
X98896250Y-58560000D03*
%TD*%
D20*
%TO.P,D1,1,K*%
%TO.N,GND*%
X90268750Y-60750000D03*
%TO.P,D1,2,A*%
%TO.N,Net-(D1-A)*%
X91843750Y-60750000D03*
%TD*%
D16*
%TO.P,D10,1,A1*%
%TO.N,/ClockBuffers/Heimtime_out_3*%
X103716250Y-63460000D03*
%TO.P,D10,2,A2*%
%TO.N,GND*%
X103076250Y-63460000D03*
%TD*%
D21*
%TO.P,C11,1*%
%TO.N,3V3*%
X97786250Y-65170000D03*
%TO.P,C11,2*%
%TO.N,GND*%
X97786250Y-64210000D03*
%TD*%
D11*
%TO.P,R3,1*%
%TO.N,/ClockBuffers/Heimtime_EN_3*%
X98896250Y-67540000D03*
%TO.P,R3,2*%
%TO.N,3V3*%
X98896250Y-68560000D03*
%TD*%
D22*
%TO.P,D11,1,A1*%
%TO.N,/ClockBuffers/MasterTrigger_out_3*%
X103199976Y-53286274D03*
%TO.P,D11,2,A2*%
%TO.N,GND*%
X103652524Y-52833726D03*
%TD*%
D14*
%TO.P,R5,1*%
%TO.N,Net-(U2-Out_3)*%
X102696250Y-54350000D03*
%TO.P,R5,2*%
%TO.N,/ClockBuffers/MasterTrigger_out_3*%
X103716250Y-54350000D03*
%TD*%
D23*
%TO.P,R12,1*%
%TO.N,Net-(D3-A)*%
X97896250Y-68560000D03*
%TO.P,R12,2*%
%TO.N,/ClockBuffers/Heimtime_status*%
X97896250Y-67540000D03*
%TD*%
%TO.P,R11,1*%
%TO.N,Net-(D2-A)*%
X97896250Y-58560000D03*
%TO.P,R11,2*%
%TO.N,/ClockBuffers/MasterTrigger_status*%
X97896250Y-57540000D03*
%TD*%
D17*
%TO.P,J1,1,In*%
%TO.N,/ClockBuffers/MasterTrigger_in*%
X93146250Y-55750000D03*
D18*
%TO.P,J1,2,Ext*%
%TO.N,GND*%
X95686250Y-53210000D03*
X90606250Y-53210000D03*
X95686250Y-58290000D03*
X90606250Y-58290000D03*
%TD*%
D11*
%TO.P,R1,1*%
%TO.N,/ClockBuffers/Heimtime_EN_1*%
X99896250Y-67540000D03*
%TO.P,R1,2*%
%TO.N,3V3*%
X99896250Y-68560000D03*
%TD*%
D21*
%TO.P,C1,1*%
%TO.N,3V3*%
X97786250Y-55170000D03*
%TO.P,C1,2*%
%TO.N,GND*%
X97786250Y-54210000D03*
%TD*%
D14*
%TO.P,R14,1*%
%TO.N,Net-(U4-Out_3)*%
X102696250Y-64350000D03*
%TO.P,R14,2*%
%TO.N,/ClockBuffers/Heimtime_out_3*%
X103716250Y-64350000D03*
%TD*%
D24*
%TO.P,D5,1,A1*%
%TO.N,/ClockBuffers/MasterTrigger_in*%
X96626250Y-55750000D03*
%TO.P,D5,2,A2*%
%TO.N,GND*%
X96626250Y-56390000D03*
%TD*%
D25*
%TO.P,U2,1,GND*%
%TO.N,GND*%
X98896250Y-54950000D03*
D26*
X99896250Y-55750000D03*
D25*
%TO.P,U2,2,VDD*%
%TO.N,3V3*%
X98896250Y-55350000D03*
%TO.P,U2,3,CLK_In*%
%TO.N,/ClockBuffers/MasterTrigger_in*%
X98896250Y-55750000D03*
%TO.P,U2,4,E_OSC*%
%TO.N,/ClockBuffers/MasterTrigger_status*%
X98896250Y-56150000D03*
%TO.P,U2,5,OE_3*%
%TO.N,/ClockBuffers/MasterTrigger_EN_3*%
X98896250Y-56550000D03*
%TO.P,U2,6,OE_1*%
%TO.N,/ClockBuffers/MasterTrigger_EN_1*%
X100896250Y-56550000D03*
%TO.P,U2,7,OE_2*%
%TO.N,/ClockBuffers/MasterTrigger_EN_2*%
X100896250Y-56150000D03*
%TO.P,U2,8,Out_1*%
%TO.N,Net-(U2-Out_1)*%
X100896250Y-55750000D03*
%TO.P,U2,9,Out_2*%
%TO.N,Net-(U2-Out_2)*%
X100896250Y-55350000D03*
%TO.P,U2,10,Out_3*%
%TO.N,Net-(U2-Out_3)*%
X100896250Y-54950000D03*
%TD*%
D14*
%TO.P,R16,1*%
%TO.N,Net-(U4-Out_1)*%
X102696250Y-66350000D03*
%TO.P,R16,2*%
%TO.N,/ClockBuffers/Heimtime_out_1*%
X103716250Y-66350000D03*
%TD*%
D27*
%TO.P,D9,1,A1*%
%TO.N,/ClockBuffers/MasterTrigger_out_2*%
X104546250Y-55350000D03*
%TO.P,D9,2,A2*%
%TO.N,GND*%
X104546250Y-54710000D03*
%TD*%
D24*
%TO.P,D6,1,A1*%
%TO.N,/ClockBuffers/Heimtime_in*%
X96626250Y-65750000D03*
%TO.P,D6,2,A2*%
%TO.N,GND*%
X96626250Y-66390000D03*
%TD*%
D13*
%TO.P,J5,1,Pin_1*%
%TO.N,GND*%
X96956250Y-70750000D03*
%TO.P,J5,2,Pin_2*%
X95686250Y-70750000D03*
%TO.P,J5,3,Pin_3*%
%TO.N,3V3*%
X94416250Y-70750000D03*
%TO.P,J5,4,Pin_4*%
X93146250Y-70750000D03*
%TD*%
D11*
%TO.P,R2,1*%
%TO.N,/ClockBuffers/Heimtime_EN_2*%
X100896250Y-67540000D03*
%TO.P,R2,2*%
%TO.N,3V3*%
X100896250Y-68560000D03*
%TD*%
D14*
%TO.P,R7,1*%
%TO.N,Net-(U2-Out_1)*%
X102696250Y-56350000D03*
%TO.P,R7,2*%
%TO.N,/ClockBuffers/MasterTrigger_out_1*%
X103716250Y-56350000D03*
%TD*%
D24*
%TO.P,D8,1,A1*%
%TO.N,/ClockBuffers/Heimtime_out_2*%
X104546250Y-65350000D03*
%TO.P,D8,2,A2*%
%TO.N,GND*%
X104546250Y-65990000D03*
%TD*%
D28*
%TO.P,R10,1*%
%TO.N,Net-(D1-A)*%
X93361250Y-60750000D03*
%TO.P,R10,2*%
%TO.N,3V3*%
X95011250Y-60750000D03*
%TD*%
D25*
%TO.P,U4,1,GND*%
%TO.N,GND*%
X98896250Y-64950000D03*
D26*
X99896250Y-65750000D03*
D25*
%TO.P,U4,2,VDD*%
%TO.N,3V3*%
X98896250Y-65350000D03*
%TO.P,U4,3,CLK_In*%
%TO.N,/ClockBuffers/Heimtime_in*%
X98896250Y-65750000D03*
%TO.P,U4,4,E_OSC*%
%TO.N,/ClockBuffers/Heimtime_status*%
X98896250Y-66150000D03*
%TO.P,U4,5,OE_3*%
%TO.N,/ClockBuffers/Heimtime_EN_3*%
X98896250Y-66550000D03*
%TO.P,U4,6,OE_1*%
%TO.N,/ClockBuffers/Heimtime_EN_1*%
X100896250Y-66550000D03*
%TO.P,U4,7,OE_2*%
%TO.N,/ClockBuffers/Heimtime_EN_2*%
X100896250Y-66150000D03*
%TO.P,U4,8,Out_1*%
%TO.N,Net-(U4-Out_1)*%
X100896250Y-65750000D03*
%TO.P,U4,9,Out_2*%
%TO.N,Net-(U4-Out_2)*%
X100896250Y-65350000D03*
%TO.P,U4,10,Out_3*%
%TO.N,Net-(U4-Out_3)*%
X100896250Y-64950000D03*
%TD*%
D14*
%TO.P,R15,1*%
%TO.N,Net-(U4-Out_2)*%
X102696250Y-65350000D03*
%TO.P,R15,2*%
%TO.N,/ClockBuffers/Heimtime_out_2*%
X103716250Y-65350000D03*
%TD*%
D15*
%TO.P,D3,1,K*%
%TO.N,GND*%
X100683750Y-61660000D03*
%TO.P,D3,2,A*%
%TO.N,Net-(D3-A)*%
X99108750Y-61660000D03*
%TD*%
D29*
%TO.N,GND*%
X100216250Y-63240000D03*
X99626250Y-56760000D03*
X97656250Y-60480000D03*
X101346250Y-69630000D03*
X101816250Y-60810000D03*
X100326250Y-54140000D03*
X94356250Y-57020000D03*
X95436250Y-66640000D03*
X102606250Y-60800000D03*
X103996250Y-53150000D03*
X90696250Y-65050000D03*
X99476250Y-53250000D03*
X105876250Y-53690000D03*
X89766250Y-65790000D03*
X97786250Y-53630000D03*
X106526250Y-66060000D03*
X93826250Y-57980000D03*
X101106250Y-62910000D03*
X98986250Y-63350000D03*
X97431250Y-61856267D03*
X106436250Y-60860000D03*
X97266250Y-63420000D03*
X90346250Y-51640000D03*
X91416250Y-65840000D03*
X100876250Y-64260000D03*
X92556250Y-63400000D03*
X100116250Y-51630000D03*
X94506250Y-54920000D03*
X93346250Y-54230000D03*
X98626250Y-51710000D03*
X92196250Y-67950000D03*
X99206250Y-64260000D03*
X94396250Y-67050000D03*
X97096250Y-54510000D03*
X99656250Y-66730000D03*
X105207737Y-65945728D03*
X100286250Y-69860000D03*
X104226250Y-67570000D03*
X103110564Y-62838159D03*
X89866250Y-66990000D03*
X100376250Y-53480000D03*
X104816250Y-69870000D03*
X107686250Y-69560000D03*
X101746250Y-63500000D03*
X102366250Y-69170000D03*
X92096250Y-53950000D03*
X101906250Y-52270000D03*
X94156250Y-68170000D03*
X101076250Y-54140000D03*
X104956250Y-60750000D03*
X97236250Y-56440000D03*
X90596250Y-66250000D03*
X106616250Y-62850000D03*
X98956250Y-54160000D03*
X96522972Y-60499311D03*
X92896250Y-64250000D03*
X91626250Y-66770000D03*
X99443773Y-52281263D03*
X100386250Y-52540000D03*
X101096250Y-53110000D03*
X101722216Y-57994846D03*
X105846250Y-66080000D03*
X95366250Y-54770000D03*
X106496250Y-55300000D03*
X99626250Y-54130000D03*
X102026250Y-53230000D03*
X102106250Y-67900000D03*
X91446250Y-54530000D03*
X97996250Y-52730000D03*
X105126250Y-54700000D03*
X97100532Y-64515000D03*
X90476250Y-56340000D03*
X92756250Y-57160000D03*
X91496250Y-57050000D03*
X99716250Y-64280000D03*
X92556250Y-53310000D03*
X90426250Y-55110000D03*
X91433048Y-56048181D03*
X93276250Y-67370000D03*
X102656250Y-51650000D03*
X106536250Y-58530000D03*
X89746250Y-64720000D03*
X99476250Y-69330000D03*
X93906250Y-53340000D03*
X95336250Y-64890000D03*
X102466250Y-57330000D03*
X104676250Y-56580000D03*
X106696250Y-51520000D03*
X90296250Y-59850000D03*
X91556250Y-51620000D03*
X91906250Y-58310000D03*
X93996250Y-63830000D03*
X100296250Y-64290000D03*
X98155506Y-69784027D03*
X101026250Y-52040000D03*
X101976250Y-62660000D03*
X94496250Y-64750000D03*
X91896250Y-64750000D03*
X102646250Y-58180000D03*
X95336250Y-56510000D03*
X104526250Y-58890000D03*
%TO.N,3V3*%
X101906250Y-68550000D03*
X101616250Y-58560000D03*
X97086250Y-55170000D03*
X97086250Y-65170000D03*
X95896250Y-60750000D03*
%TO.N,/ClockBuffers/Heimtime_out_3*%
X103706250Y-62910000D03*
%TO.N,/ClockBuffers/Heimtime_out_2*%
X105136250Y-65350000D03*
%TO.N,Net-(D3-A)*%
X98056250Y-61660000D03*
X97886250Y-69220000D03*
%TD*%
D10*
%TO.N,3V3*%
X97966250Y-65350000D02*
X97786250Y-65170000D01*
X98896250Y-55350000D02*
X97966250Y-55350000D01*
D30*
X101906250Y-68550000D02*
X100906250Y-68550000D01*
D31*
X95011250Y-60750000D02*
X95896250Y-60750000D01*
D30*
X100896250Y-58560000D02*
X98896250Y-58560000D01*
X100896250Y-58560000D02*
X101616250Y-58560000D01*
D10*
X98896250Y-65350000D02*
X97966250Y-65350000D01*
D30*
X100906250Y-68550000D02*
X100896250Y-68560000D01*
D10*
X97966250Y-55350000D02*
X97786250Y-55170000D01*
X97786250Y-55170000D02*
X97086250Y-55170000D01*
D30*
X100896250Y-68560000D02*
X98896250Y-68560000D01*
D10*
%TO.N,/ClockBuffers/MasterTrigger_in*%
X98896250Y-55750000D02*
X98276250Y-55750000D01*
D30*
X98276250Y-55750000D02*
X93146250Y-55750000D01*
D10*
%TO.N,/ClockBuffers/Heimtime_in*%
X98896250Y-65750000D02*
X98266250Y-65750000D01*
D30*
X98266250Y-65750000D02*
X93146250Y-65750000D01*
D10*
%TO.N,Net-(U2-Out_3)*%
X100896250Y-54950000D02*
X101406250Y-54950000D01*
X102006250Y-54350000D02*
X102696250Y-54350000D01*
X101406250Y-54950000D02*
X102006250Y-54350000D01*
D30*
%TO.N,/ClockBuffers/MasterTrigger_out_3*%
X106136250Y-52160000D02*
X106296250Y-52160000D01*
X103336250Y-52160000D02*
X103886250Y-52160000D01*
X103716250Y-54350000D02*
X103766250Y-54400000D01*
X102956250Y-53040000D02*
X102956250Y-52540000D01*
X104936250Y-51860000D02*
X104936250Y-52594684D01*
X104486250Y-51475301D02*
X104636250Y-51475301D01*
X106976250Y-54430000D02*
X108693750Y-54430000D01*
X106606250Y-54060000D02*
X106976250Y-54430000D01*
X105986250Y-52160000D02*
X106136250Y-52160000D01*
X103716250Y-53800000D02*
X102956250Y-53040000D01*
X104186250Y-51860000D02*
X104186250Y-51775301D01*
X106606250Y-52470000D02*
X106606250Y-54060000D01*
X108693750Y-54430000D02*
X108723750Y-54400000D01*
X106296250Y-52160000D02*
X106606250Y-52470000D01*
X104936250Y-51775301D02*
X104936250Y-51860000D01*
X103716250Y-54350000D02*
X103716250Y-53800000D01*
X105686250Y-52594684D02*
X105686250Y-52460000D01*
X105236250Y-52894684D02*
X105386250Y-52894684D01*
X102956250Y-52540000D02*
X103336250Y-52160000D01*
X105686250Y-52460000D02*
G75*
G02*
X105986250Y-52159950I300050J0D01*
G01*
X104186250Y-51775301D02*
G75*
G02*
X104486250Y-51475250I300050J1D01*
G01*
X105386250Y-52894684D02*
G75*
G03*
X105686184Y-52594684I-50J299984D01*
G01*
X104936250Y-52594684D02*
G75*
G03*
X105236250Y-52894750I300050J-16D01*
G01*
X103886250Y-52160000D02*
G75*
G03*
X104186200Y-51860000I-50J300000D01*
G01*
X104636250Y-51475301D02*
G75*
G02*
X104936199Y-51775301I-50J-299999D01*
G01*
%TO.N,/ClockBuffers/MasterTrigger_out_2*%
X105576250Y-58950000D02*
X105576250Y-59120000D01*
X105576250Y-58686000D02*
X105576250Y-58860000D01*
X106622823Y-56946000D02*
X106622823Y-57120000D01*
X105576250Y-58860000D02*
X105576250Y-58950000D01*
X105576250Y-55720000D02*
X105576250Y-56250000D01*
X104529677Y-57816000D02*
X104529677Y-57990000D01*
X105924250Y-56598000D02*
X106274823Y-56598000D01*
X105924250Y-57468000D02*
X104877677Y-57468000D01*
X104877677Y-58338000D02*
X105228250Y-58338000D01*
X106274823Y-57468000D02*
X105924250Y-57468000D01*
X103716250Y-55350000D02*
X105206250Y-55350000D01*
X105936250Y-59480000D02*
X108723750Y-59480000D01*
X105576250Y-59120000D02*
X105936250Y-59480000D01*
X105206250Y-55350000D02*
X105576250Y-55720000D01*
X104529677Y-57990000D02*
G75*
G03*
X104877677Y-58338023I348023J0D01*
G01*
X104877677Y-57468000D02*
G75*
G03*
X104529700Y-57816000I23J-348000D01*
G01*
X105576250Y-56250000D02*
G75*
G03*
X105924250Y-56598050I348050J0D01*
G01*
X106274823Y-56598000D02*
G75*
G02*
X106622800Y-56946000I-23J-348000D01*
G01*
X105228250Y-58338000D02*
G75*
G02*
X105576200Y-58686000I-50J-348000D01*
G01*
X106622823Y-57120000D02*
G75*
G02*
X106274823Y-57468023I-348023J0D01*
G01*
D10*
%TO.N,Net-(U2-Out_2)*%
X100896250Y-55350000D02*
X102696250Y-55350000D01*
%TO.N,Net-(U2-Out_1)*%
X101686250Y-55750000D02*
X102286250Y-56350000D01*
X100896250Y-55750000D02*
X101686250Y-55750000D01*
X102286250Y-56350000D02*
X102696250Y-56350000D01*
D30*
%TO.N,/ClockBuffers/MasterTrigger_out_1*%
X103716250Y-56350000D02*
X103716250Y-59180000D01*
X105207976Y-62771726D02*
X106996250Y-64560000D01*
X104332798Y-59796548D02*
X104332798Y-59960000D01*
X103716250Y-60740000D02*
X103716250Y-61280000D01*
X103716250Y-61280000D02*
X105207976Y-62771726D01*
X106996250Y-64560000D02*
X108723750Y-64560000D01*
X103716250Y-60576548D02*
X103716250Y-60740000D01*
X104332798Y-59960000D02*
G75*
G02*
X104024524Y-60268298I-308298J0D01*
G01*
X104024524Y-59488274D02*
G75*
G02*
X104332726Y-59796548I-24J-308226D01*
G01*
X104024524Y-60268274D02*
G75*
G03*
X103716274Y-60576548I-24J-308226D01*
G01*
X103716250Y-59180000D02*
G75*
G03*
X104024524Y-59488250I308250J0D01*
G01*
%TO.N,/ClockBuffers/Heimtime_out_3*%
X103716250Y-62920000D02*
X103716250Y-64350000D01*
X103706250Y-62910000D02*
X103716250Y-62920000D01*
D10*
%TO.N,Net-(U4-Out_3)*%
X101336250Y-64950000D02*
X101936250Y-64350000D01*
X101936250Y-64350000D02*
X102696250Y-64350000D01*
X100896250Y-64950000D02*
X101336250Y-64950000D01*
%TO.N,Net-(U4-Out_2)*%
X100896250Y-65350000D02*
X102696250Y-65350000D01*
D30*
%TO.N,/ClockBuffers/Heimtime_out_2*%
X105136250Y-65350000D02*
X103716250Y-65350000D01*
D10*
%TO.N,Net-(U4-Out_1)*%
X102246250Y-66350000D02*
X102696250Y-66350000D01*
X100896250Y-65750000D02*
X101646250Y-65750000D01*
X101646250Y-65750000D02*
X102246250Y-66350000D01*
D30*
%TO.N,/ClockBuffers/Heimtime_out_1*%
X103066250Y-67760000D02*
X103066250Y-69210000D01*
X106655309Y-69400941D02*
X106786250Y-69270000D01*
X103716250Y-67110000D02*
X103066250Y-67760000D01*
X103066250Y-69210000D02*
X103416250Y-69560000D01*
X105864600Y-69560000D02*
X106101756Y-69560000D01*
X103716250Y-66350000D02*
X103716250Y-67110000D01*
X107256250Y-67100000D02*
X108723750Y-67100000D01*
X103416250Y-69560000D02*
X103781756Y-69560000D01*
X106786250Y-69270000D02*
X106786250Y-67570000D01*
X106786250Y-67570000D02*
X107256250Y-67100000D01*
X106496250Y-69560000D02*
X106655309Y-69400941D01*
X104704600Y-68637156D02*
X104941756Y-68637156D01*
X106101756Y-69560000D02*
X106496250Y-69560000D01*
X105403178Y-69098578D02*
G75*
G03*
X105864600Y-69560022I461422J-22D01*
G01*
X104243178Y-69098578D02*
G75*
G02*
X104704600Y-68637178I461422J-22D01*
G01*
X103781756Y-69560000D02*
G75*
G03*
X104243200Y-69098578I44J461400D01*
G01*
X104941756Y-68637156D02*
G75*
G02*
X105403244Y-69098578I44J-461444D01*
G01*
D32*
%TO.N,/ClockBuffers/Heimtime_EN_2*%
X101436250Y-66150000D02*
X101746250Y-66460000D01*
X101746250Y-67200000D02*
X101406250Y-67540000D01*
X101406250Y-67540000D02*
X100896250Y-67540000D01*
X100896250Y-66150000D02*
X101436250Y-66150000D01*
X101746250Y-66460000D02*
X101746250Y-67200000D01*
%TO.N,/ClockBuffers/Heimtime_EN_3*%
X98896250Y-66550000D02*
X98896250Y-67540000D01*
%TO.N,/ClockBuffers/Heimtime_EN_1*%
X100506250Y-66930000D02*
X99896250Y-67540000D01*
X100896250Y-66770000D02*
X100736250Y-66930000D01*
X100736250Y-66930000D02*
X100506250Y-66930000D01*
X100896250Y-66550000D02*
X100896250Y-66770000D01*
%TO.N,/ClockBuffers/MasterTrigger_EN_3*%
X98896250Y-56550000D02*
X98896250Y-57540000D01*
%TO.N,/ClockBuffers/MasterTrigger_EN_1*%
X100526250Y-56910000D02*
X99896250Y-57540000D01*
X100896250Y-56550000D02*
X100896250Y-56780000D01*
X100896250Y-56780000D02*
X100766250Y-56910000D01*
X100766250Y-56910000D02*
X100526250Y-56910000D01*
%TO.N,/ClockBuffers/MasterTrigger_EN_2*%
X100896250Y-56150000D02*
X101386250Y-56150000D01*
X101386250Y-56150000D02*
X101666250Y-56430000D01*
X101666250Y-56430000D02*
X101666250Y-57280000D01*
X101666250Y-57280000D02*
X101406250Y-57540000D01*
X101406250Y-57540000D02*
X100896250Y-57540000D01*
D10*
%TO.N,/ClockBuffers/MasterTrigger_status*%
X97896250Y-56575000D02*
X97896250Y-57540000D01*
X98896250Y-56150000D02*
X98321250Y-56150000D01*
X98321250Y-56150000D02*
X97896250Y-56575000D01*
%TO.N,/ClockBuffers/Heimtime_status*%
X98896250Y-66150000D02*
X98321250Y-66150000D01*
X98321250Y-66150000D02*
X97896250Y-66575000D01*
X97896250Y-66575000D02*
X97896250Y-67540000D01*
D31*
%TO.N,Net-(D1-A)*%
X91843750Y-60750000D02*
X93361250Y-60750000D01*
D33*
%TO.N,Net-(D2-A)*%
X97896250Y-58560000D02*
X97896250Y-59380000D01*
X98356250Y-59840000D02*
X99088750Y-59840000D01*
X97896250Y-59380000D02*
X98356250Y-59840000D01*
%TO.N,Net-(D3-A)*%
X97896250Y-68560000D02*
X97896250Y-69210000D01*
X97896250Y-69210000D02*
X97886250Y-69220000D01*
X98056250Y-61660000D02*
X99108750Y-61660000D01*
%TD*%
%TA.AperFunction,Conductor*%
%TO.N,GND*%
G36*
X92405441Y-51069407D02*
G01*
X92441405Y-51118907D01*
X92446250Y-51149500D01*
X92446250Y-51318944D01*
X92473151Y-51454183D01*
X92525916Y-51581571D01*
X92602521Y-51696220D01*
X92700029Y-51793728D01*
X92814678Y-51870333D01*
X92942063Y-51923097D01*
X92942069Y-51923099D01*
X92946250Y-51923929D01*
X92946250Y-51149500D01*
X92965157Y-51091309D01*
X93014657Y-51055345D01*
X93024371Y-51053806D01*
X93103463Y-51075000D01*
X93189037Y-51075000D01*
X93262263Y-51055378D01*
X93305441Y-51069407D01*
X93341405Y-51118907D01*
X93346250Y-51149500D01*
X93346250Y-51923929D01*
X93350430Y-51923099D01*
X93350436Y-51923097D01*
X93477821Y-51870333D01*
X93592470Y-51793728D01*
X93689980Y-51696218D01*
X93698934Y-51682818D01*
X93746983Y-51644938D01*
X93808121Y-51642535D01*
X93858995Y-51676527D01*
X93863566Y-51682818D01*
X93872519Y-51696218D01*
X93970029Y-51793728D01*
X94084678Y-51870333D01*
X94212063Y-51923097D01*
X94212069Y-51923099D01*
X94216250Y-51923929D01*
X94216250Y-51149500D01*
X94235157Y-51091309D01*
X94284657Y-51055345D01*
X94294371Y-51053806D01*
X94373463Y-51075000D01*
X94459037Y-51075000D01*
X94532263Y-51055378D01*
X94575441Y-51069407D01*
X94611405Y-51118907D01*
X94616250Y-51149500D01*
X94616250Y-51923929D01*
X94620430Y-51923099D01*
X94620436Y-51923097D01*
X94747821Y-51870333D01*
X94862470Y-51793728D01*
X94959980Y-51696218D01*
X94968934Y-51682818D01*
X95016983Y-51644938D01*
X95078121Y-51642535D01*
X95128995Y-51676527D01*
X95133566Y-51682818D01*
X95142519Y-51696218D01*
X95240029Y-51793728D01*
X95354678Y-51870333D01*
X95482063Y-51923097D01*
X95482069Y-51923099D01*
X95486250Y-51923929D01*
X95486250Y-51149500D01*
X95505157Y-51091309D01*
X95554657Y-51055345D01*
X95564371Y-51053806D01*
X95643463Y-51075000D01*
X95729037Y-51075000D01*
X95802263Y-51055378D01*
X95845441Y-51069407D01*
X95881405Y-51118907D01*
X95886250Y-51149500D01*
X95886250Y-51923929D01*
X95890430Y-51923099D01*
X95890436Y-51923097D01*
X96017821Y-51870333D01*
X96132470Y-51793728D01*
X96229980Y-51696218D01*
X96238934Y-51682818D01*
X96286983Y-51644938D01*
X96348121Y-51642535D01*
X96398995Y-51676527D01*
X96403566Y-51682818D01*
X96412519Y-51696218D01*
X96510029Y-51793728D01*
X96624678Y-51870333D01*
X96752063Y-51923097D01*
X96752069Y-51923099D01*
X96756250Y-51923929D01*
X96756250Y-51149500D01*
X96775157Y-51091309D01*
X96824657Y-51055345D01*
X96834371Y-51053806D01*
X96913463Y-51075000D01*
X96999037Y-51075000D01*
X97072263Y-51055378D01*
X97115441Y-51069407D01*
X97151405Y-51118907D01*
X97156250Y-51149500D01*
X97156250Y-51923929D01*
X97160430Y-51923099D01*
X97160436Y-51923097D01*
X97287821Y-51870333D01*
X97402470Y-51793728D01*
X97499978Y-51696220D01*
X97576583Y-51581571D01*
X97629348Y-51454183D01*
X97656249Y-51318944D01*
X97656250Y-51318942D01*
X97656250Y-51149500D01*
X97675157Y-51091309D01*
X97724657Y-51055345D01*
X97755250Y-51050500D01*
X104121648Y-51050500D01*
X104179839Y-51069407D01*
X104215803Y-51118907D01*
X104215803Y-51180093D01*
X104179839Y-51229593D01*
X104164618Y-51238687D01*
X104157978Y-51241886D01*
X104152662Y-51244447D01*
X104042912Y-51331986D01*
X103955390Y-51441752D01*
X103955390Y-51441753D01*
X103894485Y-51568239D01*
X103886676Y-51602457D01*
X103863249Y-51705109D01*
X103863249Y-51732777D01*
X103863250Y-51737997D01*
X103844344Y-51796189D01*
X103794845Y-51832154D01*
X103764250Y-51837000D01*
X103293726Y-51837000D01*
X103273188Y-51842503D01*
X103252650Y-51848006D01*
X103252649Y-51848005D01*
X103211576Y-51859011D01*
X103211572Y-51859013D01*
X103137927Y-51901532D01*
X103137922Y-51901536D01*
X102757924Y-52281533D01*
X102757925Y-52281534D01*
X102757923Y-52281536D01*
X102757922Y-52281535D01*
X102697787Y-52341671D01*
X102688171Y-52358327D01*
X102655261Y-52415325D01*
X102652005Y-52427479D01*
X102645494Y-52451780D01*
X102633250Y-52497476D01*
X102633250Y-52997477D01*
X102633250Y-53082523D01*
X102655262Y-53164674D01*
X102667815Y-53186416D01*
X102697786Y-53238327D01*
X102714546Y-53255087D01*
X102719855Y-53262939D01*
X102725825Y-53283673D01*
X102735623Y-53302903D01*
X102736842Y-53318390D01*
X102736842Y-53363661D01*
X102777425Y-53468419D01*
X102777426Y-53468420D01*
X102793132Y-53488248D01*
X102881104Y-53576220D01*
X102968159Y-53663274D01*
X102995937Y-53717791D01*
X102986366Y-53778223D01*
X102943101Y-53821488D01*
X102885234Y-53831431D01*
X102870567Y-53829500D01*
X102870566Y-53829500D01*
X102521934Y-53829500D01*
X102507266Y-53831431D01*
X102473075Y-53835932D01*
X102473074Y-53835932D01*
X102365848Y-53885933D01*
X102282183Y-53969598D01*
X102271579Y-53992340D01*
X102229851Y-54037088D01*
X102181855Y-54049500D01*
X101966685Y-54049500D01*
X101890264Y-54069977D01*
X101890259Y-54069979D01*
X101826145Y-54106994D01*
X101826146Y-54106995D01*
X101821741Y-54109538D01*
X101310775Y-54620504D01*
X101256258Y-54648281D01*
X101240771Y-54649500D01*
X100501502Y-54649500D01*
X100501501Y-54649500D01*
X100501491Y-54649501D01*
X100443022Y-54661132D01*
X100443016Y-54661134D01*
X100376701Y-54705445D01*
X100376695Y-54705451D01*
X100332384Y-54771766D01*
X100332382Y-54771772D01*
X100320751Y-54830241D01*
X100320750Y-54830253D01*
X100320750Y-55069751D01*
X100332871Y-55130686D01*
X100332871Y-55169314D01*
X100320750Y-55230248D01*
X100320750Y-55469751D01*
X100332871Y-55530686D01*
X100332871Y-55569314D01*
X100320750Y-55630248D01*
X100320750Y-55869751D01*
X100332871Y-55930686D01*
X100332871Y-55969314D01*
X100320750Y-56030248D01*
X100320750Y-56269751D01*
X100332871Y-56330686D01*
X100332871Y-56369314D01*
X100320750Y-56430248D01*
X100320750Y-56669747D01*
X100321194Y-56674257D01*
X100308079Y-56734020D01*
X100292674Y-56753959D01*
X100207769Y-56838865D01*
X100069914Y-56976721D01*
X100006132Y-57040503D01*
X99951615Y-57068281D01*
X99936128Y-57069500D01*
X99671934Y-57069500D01*
X99655648Y-57071644D01*
X99623075Y-57075932D01*
X99623074Y-57075932D01*
X99515848Y-57125933D01*
X99515846Y-57125934D01*
X99515846Y-57125935D01*
X99466251Y-57175529D01*
X99411737Y-57203305D01*
X99351305Y-57193734D01*
X99337894Y-57185497D01*
X99331686Y-57180967D01*
X99276654Y-57125935D01*
X99220176Y-57099598D01*
X99212394Y-57093920D01*
X99199832Y-57076555D01*
X99184162Y-57061942D01*
X99181324Y-57050969D01*
X99176533Y-57044346D01*
X99176557Y-57032536D01*
X99171750Y-57013947D01*
X99171750Y-56949500D01*
X99190657Y-56891309D01*
X99240157Y-56855345D01*
X99270750Y-56850500D01*
X99290997Y-56850500D01*
X99290998Y-56850500D01*
X99349481Y-56838867D01*
X99415802Y-56794552D01*
X99460117Y-56728231D01*
X99471750Y-56669748D01*
X99471750Y-56430252D01*
X99464914Y-56395887D01*
X99459629Y-56369315D01*
X99459629Y-56330685D01*
X99471748Y-56269758D01*
X99471750Y-56269746D01*
X99471750Y-56030253D01*
X99471748Y-56030241D01*
X99459629Y-55969315D01*
X99459629Y-55930685D01*
X99471748Y-55869758D01*
X99471750Y-55869746D01*
X99471750Y-55630253D01*
X99471748Y-55630241D01*
X99459629Y-55569315D01*
X99459629Y-55530685D01*
X99471748Y-55469758D01*
X99471750Y-55469746D01*
X99471750Y-55230253D01*
X99471748Y-55230241D01*
X99462129Y-55181884D01*
X99460117Y-55171769D01*
X99415802Y-55105448D01*
X99394982Y-55091536D01*
X99349483Y-55061134D01*
X99349481Y-55061133D01*
X99349478Y-55061132D01*
X99349477Y-55061132D01*
X99291008Y-55049501D01*
X99290998Y-55049500D01*
X99290997Y-55049500D01*
X98497565Y-55049500D01*
X98439374Y-55030593D01*
X98428340Y-55021273D01*
X98376210Y-54970283D01*
X98284022Y-54880111D01*
X98267513Y-54858841D01*
X98236711Y-54805491D01*
X98236710Y-54805489D01*
X98180761Y-54749540D01*
X98157512Y-54736117D01*
X98112242Y-54709980D01*
X98112238Y-54709978D01*
X98035814Y-54689500D01*
X98035812Y-54689500D01*
X97015812Y-54689500D01*
X96936688Y-54689500D01*
X96936685Y-54689500D01*
X96860261Y-54709978D01*
X96860257Y-54709980D01*
X96791741Y-54749538D01*
X96735788Y-54805491D01*
X96696230Y-54874007D01*
X96696228Y-54874011D01*
X96675750Y-54950435D01*
X96675750Y-55044965D01*
X96675391Y-55053394D01*
X96674644Y-55062124D01*
X96660750Y-55113982D01*
X96660750Y-55224727D01*
X96660391Y-55228929D01*
X96650055Y-55253413D01*
X96641843Y-55278691D01*
X96638299Y-55281265D01*
X96636597Y-55285299D01*
X96613850Y-55299029D01*
X96592343Y-55314655D01*
X96586404Y-55315595D01*
X96584215Y-55316917D01*
X96580217Y-55316575D01*
X96561751Y-55319500D01*
X96481389Y-55319500D01*
X96481385Y-55319501D01*
X96456259Y-55322414D01*
X96353485Y-55367794D01*
X96323274Y-55398005D01*
X96268757Y-55425781D01*
X96253271Y-55427000D01*
X94759915Y-55427000D01*
X94754355Y-55426844D01*
X94745875Y-55426367D01*
X94725901Y-55421746D01*
X94587624Y-55417465D01*
X94586340Y-55417393D01*
X94586122Y-55417308D01*
X94580912Y-55416937D01*
X94475526Y-55405167D01*
X94465801Y-55403588D01*
X94399737Y-55389453D01*
X94389152Y-55386566D01*
X94345408Y-55371989D01*
X94329990Y-55365351D01*
X94230984Y-55312361D01*
X94217150Y-55303401D01*
X94061357Y-55182946D01*
X94060047Y-55181913D01*
X93990053Y-55125684D01*
X93913461Y-55064153D01*
X93909136Y-55060773D01*
X93908656Y-55060407D01*
X93904232Y-55057138D01*
X93720509Y-54925048D01*
X93717391Y-54922848D01*
X93717066Y-54922624D01*
X93703140Y-54916716D01*
X93686804Y-54907895D01*
X93620161Y-54863366D01*
X93438085Y-54787949D01*
X93244793Y-54749500D01*
X93244791Y-54749500D01*
X93047709Y-54749500D01*
X93047706Y-54749500D01*
X92854415Y-54787949D01*
X92854413Y-54787949D01*
X92672336Y-54863367D01*
X92508468Y-54972861D01*
X92508464Y-54972864D01*
X92369114Y-55112214D01*
X92369111Y-55112218D01*
X92259617Y-55276086D01*
X92184199Y-55458163D01*
X92184199Y-55458165D01*
X92145750Y-55651456D01*
X92145750Y-55848543D01*
X92184199Y-56041834D01*
X92184199Y-56041836D01*
X92259617Y-56223913D01*
X92259618Y-56223914D01*
X92369111Y-56387782D01*
X92508468Y-56527139D01*
X92672336Y-56636632D01*
X92854415Y-56712051D01*
X93047709Y-56750500D01*
X93047710Y-56750500D01*
X93244790Y-56750500D01*
X93244791Y-56750500D01*
X93438085Y-56712051D01*
X93620164Y-56636632D01*
X93690673Y-56589518D01*
X93703659Y-56582193D01*
X93722378Y-56573423D01*
X93970654Y-56390669D01*
X93974727Y-56387593D01*
X93975185Y-56387238D01*
X93979157Y-56384079D01*
X93979171Y-56384067D01*
X93979217Y-56384031D01*
X94039908Y-56334540D01*
X94061269Y-56317121D01*
X94062557Y-56316090D01*
X94204782Y-56204401D01*
X94212493Y-56198921D01*
X94261801Y-56167326D01*
X94271461Y-56161876D01*
X94320058Y-56137940D01*
X94331801Y-56133066D01*
X94387792Y-56113948D01*
X94399430Y-56110753D01*
X94474163Y-56095071D01*
X94484004Y-56093520D01*
X94586096Y-56082670D01*
X94593579Y-56082163D01*
X94725620Y-56078246D01*
X94738623Y-56075356D01*
X94760097Y-56073000D01*
X96253271Y-56073000D01*
X96311462Y-56091907D01*
X96323274Y-56101995D01*
X96353485Y-56132206D01*
X96456259Y-56177585D01*
X96481385Y-56180500D01*
X96771114Y-56180499D01*
X96796241Y-56177585D01*
X96899015Y-56132206D01*
X96929226Y-56101995D01*
X96983743Y-56074219D01*
X96999229Y-56073000D01*
X97734271Y-56073000D01*
X97792462Y-56091907D01*
X97828426Y-56141407D01*
X97828426Y-56202593D01*
X97804275Y-56242004D01*
X97711739Y-56334540D01*
X97711738Y-56334539D01*
X97655789Y-56390489D01*
X97616230Y-56459007D01*
X97616228Y-56459011D01*
X97595750Y-56535435D01*
X97595750Y-57025604D01*
X97576843Y-57083795D01*
X97538591Y-57115328D01*
X97515848Y-57125933D01*
X97432183Y-57209598D01*
X97382182Y-57316824D01*
X97382182Y-57316825D01*
X97375750Y-57365685D01*
X97375750Y-57714314D01*
X97382182Y-57763174D01*
X97382182Y-57763175D01*
X97432183Y-57870401D01*
X97432184Y-57870402D01*
X97432185Y-57870404D01*
X97515846Y-57954065D01*
X97515847Y-57954065D01*
X97515848Y-57954066D01*
X97529165Y-57960276D01*
X97573913Y-58002005D01*
X97585587Y-58062066D01*
X97559728Y-58117518D01*
X97529165Y-58139724D01*
X97515848Y-58145933D01*
X97432183Y-58229598D01*
X97382182Y-58336824D01*
X97382182Y-58336825D01*
X97375750Y-58385685D01*
X97375750Y-58734314D01*
X97382182Y-58783174D01*
X97382182Y-58783175D01*
X97435845Y-58898254D01*
X97432729Y-58899706D01*
X97445750Y-58940991D01*
X97445750Y-59439308D01*
X97456918Y-59480988D01*
X97476452Y-59553891D01*
X97535757Y-59656609D01*
X97535759Y-59656611D01*
X97535761Y-59656614D01*
X98079636Y-60200489D01*
X98079638Y-60200490D01*
X98079640Y-60200492D01*
X98182357Y-60259796D01*
X98182360Y-60259797D01*
X98182363Y-60259799D01*
X98186801Y-60260988D01*
X98296941Y-60290500D01*
X98437773Y-60290500D01*
X98495964Y-60309407D01*
X98521772Y-60339624D01*
X98522014Y-60339449D01*
X98524238Y-60342510D01*
X98525979Y-60344549D01*
X98526592Y-60345751D01*
X98620499Y-60439658D01*
X98738830Y-60499951D01*
X98805380Y-60510491D01*
X98837001Y-60515500D01*
X98837004Y-60515500D01*
X99340499Y-60515500D01*
X99369053Y-60510976D01*
X99438670Y-60499951D01*
X99557001Y-60439658D01*
X99650908Y-60345751D01*
X99711201Y-60227420D01*
X99726750Y-60129246D01*
X99726750Y-59550754D01*
X99726471Y-59548993D01*
X99715700Y-59480988D01*
X99711201Y-59452580D01*
X99650908Y-59334249D01*
X99557001Y-59240342D01*
X99552881Y-59238243D01*
X99438673Y-59180050D01*
X99438670Y-59180049D01*
X99414126Y-59176161D01*
X99340499Y-59164500D01*
X99340496Y-59164500D01*
X99314825Y-59164500D01*
X99256634Y-59145593D01*
X99220670Y-59096093D01*
X99220670Y-59034907D01*
X99249749Y-58990894D01*
X99260299Y-58981691D01*
X99276654Y-58974065D01*
X99328629Y-58922089D01*
X99331174Y-58919870D01*
X99356360Y-58909128D01*
X99380763Y-58896695D01*
X99384227Y-58897243D01*
X99387455Y-58895867D01*
X99414151Y-58901982D01*
X99441195Y-58906266D01*
X99445039Y-58909059D01*
X99447095Y-58909530D01*
X99449529Y-58912321D01*
X99466250Y-58924469D01*
X99515846Y-58974065D01*
X99515847Y-58974065D01*
X99515848Y-58974066D01*
X99623074Y-59024067D01*
X99623075Y-59024067D01*
X99623077Y-59024068D01*
X99671934Y-59030500D01*
X99671935Y-59030500D01*
X100120564Y-59030500D01*
X100120566Y-59030500D01*
X100169423Y-59024068D01*
X100276654Y-58974065D01*
X100326248Y-58924470D01*
X100380763Y-58896695D01*
X100441195Y-58906266D01*
X100466250Y-58924469D01*
X100515846Y-58974065D01*
X100515847Y-58974065D01*
X100515848Y-58974066D01*
X100623074Y-59024067D01*
X100623075Y-59024067D01*
X100623077Y-59024068D01*
X100671934Y-59030500D01*
X100671935Y-59030500D01*
X101120564Y-59030500D01*
X101120566Y-59030500D01*
X101169423Y-59024068D01*
X101276654Y-58974065D01*
X101298257Y-58952461D01*
X101352772Y-58924683D01*
X101413204Y-58934254D01*
X101417757Y-58936725D01*
X101452013Y-58956503D01*
X101560232Y-58985500D01*
X101560234Y-58985500D01*
X101672266Y-58985500D01*
X101672268Y-58985500D01*
X101780487Y-58956503D01*
X101780489Y-58956501D01*
X101780491Y-58956501D01*
X101819023Y-58934254D01*
X101877513Y-58900485D01*
X101956735Y-58821263D01*
X102012753Y-58724237D01*
X102041750Y-58616018D01*
X102041750Y-58503982D01*
X102012753Y-58395763D01*
X102012751Y-58395760D01*
X102012751Y-58395758D01*
X101956736Y-58298739D01*
X101956735Y-58298737D01*
X101877513Y-58219515D01*
X101866248Y-58213011D01*
X101780490Y-58163498D01*
X101780492Y-58163498D01*
X101714944Y-58145935D01*
X101672268Y-58134500D01*
X101560232Y-58134500D01*
X101493346Y-58152422D01*
X101452009Y-58163498D01*
X101417760Y-58183272D01*
X101391856Y-58188777D01*
X101366538Y-58196520D01*
X101362832Y-58194947D01*
X101357912Y-58195993D01*
X101308685Y-58176603D01*
X101303155Y-58172436D01*
X101276654Y-58145935D01*
X101253903Y-58135326D01*
X101245598Y-58129068D01*
X101233724Y-58112112D01*
X101218587Y-58097997D01*
X101216568Y-58087613D01*
X101210501Y-58078949D01*
X101210861Y-58058252D01*
X101206912Y-58037936D01*
X101211381Y-58028349D01*
X101211566Y-58017773D01*
X101224021Y-58001242D01*
X101232769Y-57982483D01*
X101244673Y-57973833D01*
X101248386Y-57968907D01*
X101253685Y-57967286D01*
X101263334Y-57960275D01*
X101276654Y-57954065D01*
X101360315Y-57870404D01*
X101360317Y-57870400D01*
X101365283Y-57863309D01*
X101366916Y-57864453D01*
X101400990Y-57827913D01*
X101448987Y-57815500D01*
X101461049Y-57815500D01*
X101461050Y-57815500D01*
X101562308Y-57773557D01*
X101639807Y-57696058D01*
X101639806Y-57696058D01*
X101899808Y-57436058D01*
X101900187Y-57435144D01*
X101941750Y-57334801D01*
X101941750Y-56668448D01*
X101960657Y-56610257D01*
X102010157Y-56574293D01*
X102071343Y-56574293D01*
X102084136Y-56579461D01*
X102097023Y-56585744D01*
X102101739Y-56590460D01*
X102170261Y-56630021D01*
X102209283Y-56640477D01*
X102217844Y-56644651D01*
X102233336Y-56659608D01*
X102251396Y-56671336D01*
X102260384Y-56685720D01*
X102261863Y-56687148D01*
X102262093Y-56688456D01*
X102264182Y-56691798D01*
X102282183Y-56730401D01*
X102282184Y-56730402D01*
X102282185Y-56730404D01*
X102365846Y-56814065D01*
X102365847Y-56814065D01*
X102365848Y-56814066D01*
X102473074Y-56864067D01*
X102473075Y-56864067D01*
X102473077Y-56864068D01*
X102521934Y-56870500D01*
X102521935Y-56870500D01*
X102870564Y-56870500D01*
X102870566Y-56870500D01*
X102919423Y-56864068D01*
X103026654Y-56814065D01*
X103110315Y-56730404D01*
X103116525Y-56717085D01*
X103158253Y-56672337D01*
X103218314Y-56660662D01*
X103273767Y-56686519D01*
X103281840Y-56694993D01*
X103290382Y-56705093D01*
X103302185Y-56730404D01*
X103364447Y-56792666D01*
X103367112Y-56795817D01*
X103377195Y-56820498D01*
X103389303Y-56844261D01*
X103388632Y-56848492D01*
X103390253Y-56852458D01*
X103383903Y-56878352D01*
X103379732Y-56904693D01*
X103376279Y-56909444D01*
X103375682Y-56911883D01*
X103372638Y-56914457D01*
X103361528Y-56929750D01*
X103334044Y-56957235D01*
X103288664Y-57060011D01*
X103285750Y-57085130D01*
X103285750Y-57374859D01*
X103285751Y-57374864D01*
X103288664Y-57399990D01*
X103304589Y-57436056D01*
X103334044Y-57502765D01*
X103364255Y-57532976D01*
X103392031Y-57587491D01*
X103393250Y-57602978D01*
X103393250Y-59138968D01*
X103393225Y-59139044D01*
X103393226Y-59251128D01*
X103400493Y-59282964D01*
X103424885Y-59389826D01*
X103486613Y-59517998D01*
X103541471Y-59586783D01*
X103575316Y-59629221D01*
X103644424Y-59684328D01*
X103686544Y-59717914D01*
X103686548Y-59717916D01*
X103686550Y-59717917D01*
X103814716Y-59779630D01*
X103814717Y-59779630D01*
X103814721Y-59779632D01*
X103823979Y-59781744D01*
X103876504Y-59813121D01*
X103900556Y-59869381D01*
X103886945Y-59929034D01*
X103840871Y-59969293D01*
X103823982Y-59974781D01*
X103814718Y-59976895D01*
X103814710Y-59976897D01*
X103686525Y-60038626D01*
X103686524Y-60038626D01*
X103575298Y-60127330D01*
X103486598Y-60238569D01*
X103424880Y-60366758D01*
X103393240Y-60505457D01*
X103393239Y-60505467D01*
X103393250Y-60576498D01*
X103393250Y-61322523D01*
X103402913Y-61358589D01*
X103402915Y-61358596D01*
X103404256Y-61363598D01*
X103415262Y-61404674D01*
X103427286Y-61425499D01*
X103457786Y-61478327D01*
X103517923Y-61538464D01*
X103517925Y-61538465D01*
X105009649Y-63030190D01*
X105009651Y-63030191D01*
X106797923Y-64818464D01*
X106797925Y-64818465D01*
X106797927Y-64818467D01*
X106871572Y-64860986D01*
X106871570Y-64860986D01*
X106871574Y-64860987D01*
X106871576Y-64860988D01*
X106953726Y-64883000D01*
X107114482Y-64883000D01*
X107125657Y-64883633D01*
X107134740Y-64884664D01*
X107145694Y-64888020D01*
X107315444Y-64905194D01*
X107315981Y-64905255D01*
X107316204Y-64905356D01*
X107326383Y-64907002D01*
X107421719Y-64928307D01*
X107429316Y-64930326D01*
X107534756Y-64962916D01*
X107542491Y-64965663D01*
X107555942Y-64971080D01*
X107558369Y-64972057D01*
X107597631Y-65003954D01*
X107599054Y-65002787D01*
X107602132Y-65006538D01*
X107602136Y-65006542D01*
X107699708Y-65104114D01*
X107712984Y-65112985D01*
X107750863Y-65161033D01*
X107753265Y-65222171D01*
X107719273Y-65273045D01*
X107712988Y-65277612D01*
X107700029Y-65286271D01*
X107602521Y-65383779D01*
X107525916Y-65498428D01*
X107473153Y-65625810D01*
X107473151Y-65625816D01*
X107472319Y-65630000D01*
X108746750Y-65630000D01*
X108804941Y-65648907D01*
X108840905Y-65698407D01*
X108842443Y-65708121D01*
X108821250Y-65787213D01*
X108821250Y-65872787D01*
X108840871Y-65946013D01*
X108826843Y-65989191D01*
X108777343Y-66025155D01*
X108746750Y-66030000D01*
X107472319Y-66030000D01*
X107473151Y-66034183D01*
X107473153Y-66034189D01*
X107525916Y-66161571D01*
X107602521Y-66276220D01*
X107700029Y-66373728D01*
X107712981Y-66382382D01*
X107750862Y-66430431D01*
X107753266Y-66491569D01*
X107719275Y-66542444D01*
X107712987Y-66547012D01*
X107699712Y-66555882D01*
X107602132Y-66653462D01*
X107594104Y-66665477D01*
X107557986Y-66698034D01*
X107500757Y-66728227D01*
X107429990Y-66765561D01*
X107383797Y-66777000D01*
X107298773Y-66777000D01*
X107213726Y-66777000D01*
X107171009Y-66788446D01*
X107131571Y-66799013D01*
X107057927Y-66841532D01*
X107057922Y-66841536D01*
X106587924Y-67311533D01*
X106587925Y-67311534D01*
X106587923Y-67311536D01*
X106587922Y-67311535D01*
X106527787Y-67371671D01*
X106514070Y-67395430D01*
X106514069Y-67395429D01*
X106485261Y-67445325D01*
X106485261Y-67445326D01*
X106485262Y-67445327D01*
X106463250Y-67527476D01*
X106463250Y-69095201D01*
X106460781Y-69102798D01*
X106462031Y-69110688D01*
X106451506Y-69131343D01*
X106444343Y-69153392D01*
X106434254Y-69165205D01*
X106391455Y-69208004D01*
X106336938Y-69235781D01*
X106321451Y-69237000D01*
X105874354Y-69237000D01*
X105855039Y-69235098D01*
X105830949Y-69230306D01*
X105795261Y-69215523D01*
X105795239Y-69215508D01*
X105783105Y-69207400D01*
X105755793Y-69180086D01*
X105747671Y-69167930D01*
X105747670Y-69167926D01*
X105732892Y-69132246D01*
X105728143Y-69108365D01*
X105726243Y-69089072D01*
X105726240Y-69021299D01*
X105696086Y-68869743D01*
X105636942Y-68726983D01*
X105615569Y-68695000D01*
X105551087Y-68598508D01*
X105441806Y-68489242D01*
X105313320Y-68403405D01*
X105313318Y-68403404D01*
X105170547Y-68344281D01*
X105170541Y-68344280D01*
X105018992Y-68314148D01*
X105018984Y-68314147D01*
X104941733Y-68314155D01*
X104941725Y-68314156D01*
X104655747Y-68314156D01*
X104655412Y-68314178D01*
X104627339Y-68314178D01*
X104475799Y-68344321D01*
X104475791Y-68344323D01*
X104333047Y-68403448D01*
X104333046Y-68403449D01*
X104204572Y-68489290D01*
X104095311Y-68598544D01*
X104009469Y-68727009D01*
X103950331Y-68869764D01*
X103920182Y-69021302D01*
X103920181Y-69021311D01*
X103920180Y-69040953D01*
X103920180Y-69047420D01*
X103920176Y-69047435D01*
X103920177Y-69082765D01*
X103920177Y-69088852D01*
X103920175Y-69088855D01*
X103918275Y-69108158D01*
X103913486Y-69132237D01*
X103898704Y-69167926D01*
X103890587Y-69180074D01*
X103863268Y-69207392D01*
X103851120Y-69215508D01*
X103815428Y-69230289D01*
X103791240Y-69235098D01*
X103771927Y-69236998D01*
X103722693Y-69236994D01*
X103722619Y-69237000D01*
X103591049Y-69237000D01*
X103532858Y-69218093D01*
X103521045Y-69208004D01*
X103418246Y-69105205D01*
X103390469Y-69050688D01*
X103389250Y-69035201D01*
X103389250Y-67985860D01*
X103408157Y-67927669D01*
X103457657Y-67891705D01*
X103482427Y-67887782D01*
X103487358Y-67886860D01*
X103487362Y-67886860D01*
X103592122Y-67846276D01*
X103611950Y-67830570D01*
X103816819Y-67625700D01*
X103832526Y-67605872D01*
X103873110Y-67501112D01*
X103873110Y-67450937D01*
X103892017Y-67392746D01*
X103902107Y-67380933D01*
X103917356Y-67365684D01*
X103974715Y-67308326D01*
X104017238Y-67234673D01*
X104019915Y-67224678D01*
X104019918Y-67224675D01*
X104019917Y-67224675D01*
X104039250Y-67152523D01*
X104039250Y-66862476D01*
X104058157Y-66804285D01*
X104068240Y-66792478D01*
X104130315Y-66730404D01*
X104180318Y-66623173D01*
X104186750Y-66574316D01*
X104186750Y-66125684D01*
X104180318Y-66076827D01*
X104178533Y-66073000D01*
X104130316Y-65969598D01*
X104130315Y-65969597D01*
X104130315Y-65969596D01*
X104080720Y-65920001D01*
X104073602Y-65906031D01*
X104062517Y-65894946D01*
X104060064Y-65879459D01*
X104052945Y-65865487D01*
X104055397Y-65849999D01*
X104052945Y-65834514D01*
X104060062Y-65820543D01*
X104062516Y-65805055D01*
X104080722Y-65779997D01*
X104093303Y-65767416D01*
X104130315Y-65730404D01*
X104130315Y-65730402D01*
X104130994Y-65729724D01*
X104185510Y-65701946D01*
X104245942Y-65711517D01*
X104270998Y-65729720D01*
X104273482Y-65732203D01*
X104273485Y-65732206D01*
X104376259Y-65777585D01*
X104401385Y-65780500D01*
X104691114Y-65780499D01*
X104716241Y-65777585D01*
X104760537Y-65758026D01*
X104812681Y-65735003D01*
X104813017Y-65734968D01*
X104813273Y-65734743D01*
X104825009Y-65733745D01*
X104873550Y-65728794D01*
X104874182Y-65728933D01*
X104875173Y-65729153D01*
X105031758Y-65767416D01*
X105035911Y-65768385D01*
X105036356Y-65768484D01*
X105052837Y-65768705D01*
X105062809Y-65770925D01*
X105063779Y-65771497D01*
X105066918Y-65771932D01*
X105080232Y-65775500D01*
X105080233Y-65775500D01*
X105192266Y-65775500D01*
X105192268Y-65775500D01*
X105300487Y-65746503D01*
X105300489Y-65746501D01*
X105300491Y-65746501D01*
X105348600Y-65718725D01*
X105397513Y-65690485D01*
X105476735Y-65611263D01*
X105532753Y-65514237D01*
X105561750Y-65406018D01*
X105561750Y-65293982D01*
X105532753Y-65185763D01*
X105532751Y-65185760D01*
X105532751Y-65185758D01*
X105476736Y-65088739D01*
X105476735Y-65088737D01*
X105397513Y-65009515D01*
X105392357Y-65006538D01*
X105300490Y-64953498D01*
X105300492Y-64953498D01*
X105258501Y-64942247D01*
X105192268Y-64924500D01*
X105080232Y-64924500D01*
X105080230Y-64924500D01*
X105064077Y-64928828D01*
X105059907Y-64929849D01*
X105051422Y-64931731D01*
X105031759Y-64932583D01*
X104875193Y-64970840D01*
X104874114Y-64971080D01*
X104844666Y-64968250D01*
X104815149Y-64966047D01*
X104813227Y-64965229D01*
X104813209Y-64965228D01*
X104813195Y-64965216D01*
X104812678Y-64964996D01*
X104716241Y-64922415D01*
X104716240Y-64922414D01*
X104716238Y-64922414D01*
X104691118Y-64919500D01*
X104401390Y-64919500D01*
X104401385Y-64919501D01*
X104376259Y-64922414D01*
X104305862Y-64953498D01*
X104279297Y-64965228D01*
X104273483Y-64967795D01*
X104273479Y-64967797D01*
X104270994Y-64970283D01*
X104266538Y-64972552D01*
X104265916Y-64972979D01*
X104265860Y-64972897D01*
X104257027Y-64977397D01*
X104245943Y-64988482D01*
X104230450Y-64990935D01*
X104216474Y-64998055D01*
X104200991Y-64995601D01*
X104185511Y-64998053D01*
X104171535Y-64990932D01*
X104156043Y-64988477D01*
X104130994Y-64970276D01*
X104130315Y-64969597D01*
X104130315Y-64969596D01*
X104080720Y-64920001D01*
X104052945Y-64865487D01*
X104062516Y-64805055D01*
X104080719Y-64779999D01*
X104130315Y-64730404D01*
X104180318Y-64623173D01*
X104186750Y-64574316D01*
X104186750Y-64125684D01*
X104180318Y-64076827D01*
X104177124Y-64069978D01*
X104130316Y-63969598D01*
X104130315Y-63969597D01*
X104130315Y-63969596D01*
X104068244Y-63907525D01*
X104064619Y-63900410D01*
X104058157Y-63895715D01*
X104050993Y-63873666D01*
X104040469Y-63853011D01*
X104039250Y-63837524D01*
X104039250Y-63832978D01*
X104058157Y-63774787D01*
X104068240Y-63762980D01*
X104098456Y-63732765D01*
X104143835Y-63629991D01*
X104146750Y-63604865D01*
X104146749Y-63315136D01*
X104143835Y-63290009D01*
X104100172Y-63191123D01*
X104093965Y-63130256D01*
X104094175Y-63129308D01*
X104095334Y-63124179D01*
X104096679Y-63120234D01*
X104099407Y-63111610D01*
X104099690Y-63110642D01*
X104101949Y-63102265D01*
X104123503Y-63015022D01*
X104124457Y-63010985D01*
X104124564Y-63010511D01*
X104124814Y-62993770D01*
X104127086Y-62983722D01*
X104127619Y-62982824D01*
X104128024Y-62979923D01*
X104131750Y-62966020D01*
X104131750Y-62853983D01*
X104129016Y-62843779D01*
X104102753Y-62745763D01*
X104102751Y-62745760D01*
X104102751Y-62745758D01*
X104046736Y-62648739D01*
X104046735Y-62648737D01*
X103967513Y-62569515D01*
X103967510Y-62569513D01*
X103870490Y-62513498D01*
X103870492Y-62513498D01*
X103828501Y-62502247D01*
X103762268Y-62484500D01*
X103650232Y-62484500D01*
X103583998Y-62502247D01*
X103542008Y-62513498D01*
X103444989Y-62569513D01*
X103365763Y-62648739D01*
X103309748Y-62745758D01*
X103280750Y-62853983D01*
X103280750Y-62966020D01*
X103288167Y-62993702D01*
X103288419Y-62994643D01*
X103290278Y-63001578D01*
X103292695Y-63025963D01*
X103328358Y-63143290D01*
X103328787Y-63144887D01*
X103327286Y-63173907D01*
X103326732Y-63202958D01*
X103325640Y-63205735D01*
X103325627Y-63205991D01*
X103325457Y-63206200D01*
X103323743Y-63210562D01*
X103288665Y-63290008D01*
X103288664Y-63290011D01*
X103285750Y-63315130D01*
X103285750Y-63604859D01*
X103285751Y-63604864D01*
X103288664Y-63629990D01*
X103314006Y-63687385D01*
X103334044Y-63732765D01*
X103364255Y-63762976D01*
X103367880Y-63770091D01*
X103374343Y-63774787D01*
X103381506Y-63796835D01*
X103392031Y-63817491D01*
X103393250Y-63832978D01*
X103393250Y-63837524D01*
X103374343Y-63895715D01*
X103364259Y-63907521D01*
X103332556Y-63939225D01*
X103302183Y-63969598D01*
X103295974Y-63982915D01*
X103254245Y-64027663D01*
X103194184Y-64039337D01*
X103138732Y-64013478D01*
X103116526Y-63982915D01*
X103110316Y-63969598D01*
X103110315Y-63969597D01*
X103110315Y-63969596D01*
X103026654Y-63885935D01*
X103026652Y-63885934D01*
X103026651Y-63885933D01*
X102919425Y-63835932D01*
X102886851Y-63831644D01*
X102870566Y-63829500D01*
X102521934Y-63829500D01*
X102505648Y-63831644D01*
X102473075Y-63835932D01*
X102473074Y-63835932D01*
X102365848Y-63885933D01*
X102282183Y-63969598D01*
X102271579Y-63992340D01*
X102229851Y-64037088D01*
X102181855Y-64049500D01*
X101896685Y-64049500D01*
X101820262Y-64069978D01*
X101769155Y-64099485D01*
X101769154Y-64099484D01*
X101751741Y-64109538D01*
X101240775Y-64620504D01*
X101186258Y-64648281D01*
X101170771Y-64649500D01*
X100501502Y-64649500D01*
X100501501Y-64649500D01*
X100501491Y-64649501D01*
X100443022Y-64661132D01*
X100443016Y-64661134D01*
X100376701Y-64705445D01*
X100376695Y-64705451D01*
X100332384Y-64771766D01*
X100332382Y-64771772D01*
X100320751Y-64830241D01*
X100320750Y-64830253D01*
X100320750Y-65069751D01*
X100332871Y-65130686D01*
X100332871Y-65169314D01*
X100320750Y-65230248D01*
X100320750Y-65469751D01*
X100332871Y-65530686D01*
X100332871Y-65569314D01*
X100320750Y-65630248D01*
X100320750Y-65869751D01*
X100332871Y-65930686D01*
X100332871Y-65969314D01*
X100320750Y-66030248D01*
X100320750Y-66269751D01*
X100332871Y-66330686D01*
X100332871Y-66369314D01*
X100320750Y-66430248D01*
X100320750Y-66669747D01*
X100321194Y-66674257D01*
X100308079Y-66734020D01*
X100292674Y-66753959D01*
X100006132Y-67040503D01*
X99951615Y-67068281D01*
X99936128Y-67069500D01*
X99671934Y-67069500D01*
X99655648Y-67071644D01*
X99623075Y-67075932D01*
X99623074Y-67075932D01*
X99515848Y-67125933D01*
X99515846Y-67125934D01*
X99515846Y-67125935D01*
X99466251Y-67175529D01*
X99411737Y-67203305D01*
X99351305Y-67193734D01*
X99337894Y-67185497D01*
X99331686Y-67180967D01*
X99276654Y-67125935D01*
X99220176Y-67099598D01*
X99212394Y-67093920D01*
X99199832Y-67076555D01*
X99184162Y-67061942D01*
X99181324Y-67050969D01*
X99176533Y-67044346D01*
X99176557Y-67032536D01*
X99171750Y-67013947D01*
X99171750Y-66949500D01*
X99190657Y-66891309D01*
X99240157Y-66855345D01*
X99270750Y-66850500D01*
X99290997Y-66850500D01*
X99290998Y-66850500D01*
X99349481Y-66838867D01*
X99415802Y-66794552D01*
X99460117Y-66728231D01*
X99471750Y-66669748D01*
X99471750Y-66430252D01*
X99463876Y-66390669D01*
X99459629Y-66369315D01*
X99459629Y-66330685D01*
X99471748Y-66269758D01*
X99471750Y-66269746D01*
X99471750Y-66030253D01*
X99471748Y-66030241D01*
X99459629Y-65969315D01*
X99459629Y-65930685D01*
X99471748Y-65869758D01*
X99471750Y-65869746D01*
X99471750Y-65630253D01*
X99471748Y-65630241D01*
X99459629Y-65569315D01*
X99459629Y-65530685D01*
X99471748Y-65469758D01*
X99471750Y-65469746D01*
X99471750Y-65230253D01*
X99471750Y-65230252D01*
X99460117Y-65171769D01*
X99460115Y-65171767D01*
X99459373Y-65168033D01*
X99459374Y-65129403D01*
X99471248Y-65069707D01*
X99471250Y-65069697D01*
X99471250Y-64830302D01*
X99471249Y-64830299D01*
X99459646Y-64771963D01*
X99415443Y-64705810D01*
X99415439Y-64705806D01*
X99349285Y-64661603D01*
X99329919Y-64657750D01*
X99036964Y-64950706D01*
X99022992Y-64957824D01*
X99011905Y-64968912D01*
X98996417Y-64971364D01*
X98982447Y-64978483D01*
X98966960Y-64976030D01*
X98951473Y-64978483D01*
X98937502Y-64971364D01*
X98922015Y-64968912D01*
X98896956Y-64950706D01*
X98896249Y-64949999D01*
X98895568Y-64950681D01*
X98841062Y-64978478D01*
X98780626Y-64968928D01*
X98755537Y-64950706D01*
X98462582Y-64657751D01*
X98462578Y-64657751D01*
X98443214Y-64661603D01*
X98377060Y-64705806D01*
X98377054Y-64705812D01*
X98347933Y-64749394D01*
X98299883Y-64787273D01*
X98238744Y-64789674D01*
X98195617Y-64764396D01*
X98180761Y-64749540D01*
X98180692Y-64749500D01*
X98112242Y-64709980D01*
X98112238Y-64709978D01*
X98035814Y-64689500D01*
X98035812Y-64689500D01*
X97005812Y-64689500D01*
X96926688Y-64689500D01*
X96926685Y-64689500D01*
X96850261Y-64709978D01*
X96850257Y-64709980D01*
X96781741Y-64749538D01*
X96725788Y-64805491D01*
X96686230Y-64874007D01*
X96686228Y-64874011D01*
X96665750Y-64950435D01*
X96665750Y-65082288D01*
X96665685Y-65085867D01*
X96665279Y-65097077D01*
X96660750Y-65113982D01*
X96660750Y-65222282D01*
X96660685Y-65224079D01*
X96650772Y-65251208D01*
X96641843Y-65278691D01*
X96640328Y-65279791D01*
X96639687Y-65281548D01*
X96615724Y-65297667D01*
X96592343Y-65314655D01*
X96589894Y-65315042D01*
X96588919Y-65315699D01*
X96586340Y-65315605D01*
X96561751Y-65319500D01*
X96481389Y-65319500D01*
X96481385Y-65319501D01*
X96456259Y-65322414D01*
X96353485Y-65367794D01*
X96323274Y-65398005D01*
X96268757Y-65425781D01*
X96253271Y-65427000D01*
X94759915Y-65427000D01*
X94754355Y-65426844D01*
X94745875Y-65426367D01*
X94725901Y-65421746D01*
X94587624Y-65417465D01*
X94586340Y-65417393D01*
X94586122Y-65417308D01*
X94580912Y-65416937D01*
X94475526Y-65405167D01*
X94465801Y-65403588D01*
X94399737Y-65389453D01*
X94389152Y-65386566D01*
X94345408Y-65371989D01*
X94329990Y-65365351D01*
X94230984Y-65312361D01*
X94217150Y-65303401D01*
X94061357Y-65182946D01*
X94060047Y-65181913D01*
X93975487Y-65113982D01*
X93913461Y-65064153D01*
X93909136Y-65060773D01*
X93908656Y-65060407D01*
X93904232Y-65057138D01*
X93720509Y-64925048D01*
X93717353Y-64922822D01*
X93717066Y-64922624D01*
X93703140Y-64916716D01*
X93686804Y-64907895D01*
X93620161Y-64863366D01*
X93438085Y-64787949D01*
X93244793Y-64749500D01*
X93244791Y-64749500D01*
X93047709Y-64749500D01*
X93047706Y-64749500D01*
X92854415Y-64787949D01*
X92854413Y-64787949D01*
X92672336Y-64863367D01*
X92508468Y-64972861D01*
X92508464Y-64972864D01*
X92369114Y-65112214D01*
X92369111Y-65112218D01*
X92259617Y-65276086D01*
X92184199Y-65458163D01*
X92184199Y-65458165D01*
X92145750Y-65651456D01*
X92145750Y-65848543D01*
X92184199Y-66041834D01*
X92184199Y-66041836D01*
X92259617Y-66223913D01*
X92259618Y-66223914D01*
X92369111Y-66387782D01*
X92508468Y-66527139D01*
X92672336Y-66636632D01*
X92854415Y-66712051D01*
X93047709Y-66750500D01*
X93047710Y-66750500D01*
X93244790Y-66750500D01*
X93244791Y-66750500D01*
X93438085Y-66712051D01*
X93620164Y-66636632D01*
X93690673Y-66589518D01*
X93703659Y-66582193D01*
X93722378Y-66573423D01*
X93970654Y-66390669D01*
X93974727Y-66387593D01*
X93975185Y-66387238D01*
X93979157Y-66384079D01*
X93979171Y-66384067D01*
X93979217Y-66384031D01*
X94039908Y-66334540D01*
X94061269Y-66317121D01*
X94062557Y-66316090D01*
X94204782Y-66204401D01*
X94212493Y-66198921D01*
X94261801Y-66167326D01*
X94271461Y-66161876D01*
X94272081Y-66161571D01*
X94320058Y-66137940D01*
X94331801Y-66133066D01*
X94387792Y-66113948D01*
X94399430Y-66110753D01*
X94474163Y-66095071D01*
X94484004Y-66093520D01*
X94586096Y-66082670D01*
X94593579Y-66082163D01*
X94725620Y-66078246D01*
X94738623Y-66075356D01*
X94760097Y-66073000D01*
X96253271Y-66073000D01*
X96311462Y-66091907D01*
X96323274Y-66101995D01*
X96353485Y-66132206D01*
X96456259Y-66177585D01*
X96481385Y-66180500D01*
X96771114Y-66180499D01*
X96796241Y-66177585D01*
X96899015Y-66132206D01*
X96929226Y-66101995D01*
X96983743Y-66074219D01*
X96999229Y-66073000D01*
X97734271Y-66073000D01*
X97792462Y-66091907D01*
X97828426Y-66141407D01*
X97828426Y-66202593D01*
X97804275Y-66242004D01*
X97711739Y-66334540D01*
X97711738Y-66334539D01*
X97655789Y-66390489D01*
X97616230Y-66459007D01*
X97616228Y-66459011D01*
X97595750Y-66535435D01*
X97595750Y-67025604D01*
X97576843Y-67083795D01*
X97538591Y-67115328D01*
X97515848Y-67125933D01*
X97432183Y-67209598D01*
X97382182Y-67316824D01*
X97382182Y-67316825D01*
X97382182Y-67316827D01*
X97375750Y-67365684D01*
X97375750Y-67714316D01*
X97379763Y-67744798D01*
X97382182Y-67763174D01*
X97382182Y-67763175D01*
X97432183Y-67870401D01*
X97432184Y-67870402D01*
X97432185Y-67870404D01*
X97515846Y-67954065D01*
X97515847Y-67954065D01*
X97515848Y-67954066D01*
X97529165Y-67960276D01*
X97573913Y-68002005D01*
X97585587Y-68062066D01*
X97559728Y-68117518D01*
X97529165Y-68139724D01*
X97515848Y-68145933D01*
X97432183Y-68229598D01*
X97382182Y-68336824D01*
X97382182Y-68336825D01*
X97375750Y-68385685D01*
X97375750Y-68734314D01*
X97382182Y-68783174D01*
X97382182Y-68783175D01*
X97435845Y-68898254D01*
X97432729Y-68899706D01*
X97445750Y-68940991D01*
X97445750Y-69110339D01*
X97442377Y-69135960D01*
X97435751Y-69160689D01*
X97435751Y-69160691D01*
X97435751Y-69279309D01*
X97466451Y-69393887D01*
X97466452Y-69393889D01*
X97466453Y-69393892D01*
X97525757Y-69496609D01*
X97525759Y-69496611D01*
X97525761Y-69496614D01*
X97609636Y-69580489D01*
X97609638Y-69580490D01*
X97609640Y-69580492D01*
X97712357Y-69639796D01*
X97712358Y-69639796D01*
X97712363Y-69639799D01*
X97826941Y-69670499D01*
X97826943Y-69670499D01*
X97945557Y-69670499D01*
X97945559Y-69670499D01*
X98060137Y-69639799D01*
X98162864Y-69580489D01*
X98256739Y-69486614D01*
X98316049Y-69383887D01*
X98329235Y-69334674D01*
X98346750Y-69269309D01*
X98346750Y-69043976D01*
X98365657Y-68985785D01*
X98415157Y-68949821D01*
X98476343Y-68949821D01*
X98508465Y-68969505D01*
X98508751Y-68969097D01*
X98515427Y-68973771D01*
X98515751Y-68973970D01*
X98515846Y-68974065D01*
X98515847Y-68974065D01*
X98515848Y-68974066D01*
X98623074Y-69024067D01*
X98623075Y-69024067D01*
X98623077Y-69024068D01*
X98671934Y-69030500D01*
X98671935Y-69030500D01*
X99120564Y-69030500D01*
X99120566Y-69030500D01*
X99169423Y-69024068D01*
X99276654Y-68974065D01*
X99326248Y-68924470D01*
X99380763Y-68896695D01*
X99441195Y-68906266D01*
X99466250Y-68924469D01*
X99515846Y-68974065D01*
X99515847Y-68974065D01*
X99515848Y-68974066D01*
X99623074Y-69024067D01*
X99623075Y-69024067D01*
X99623077Y-69024068D01*
X99671934Y-69030500D01*
X99671935Y-69030500D01*
X100120564Y-69030500D01*
X100120566Y-69030500D01*
X100169423Y-69024068D01*
X100276654Y-68974065D01*
X100326248Y-68924470D01*
X100380763Y-68896695D01*
X100441195Y-68906266D01*
X100466250Y-68924469D01*
X100515846Y-68974065D01*
X100515847Y-68974065D01*
X100515848Y-68974066D01*
X100623074Y-69024067D01*
X100623075Y-69024067D01*
X100623077Y-69024068D01*
X100671934Y-69030500D01*
X100671935Y-69030500D01*
X101120564Y-69030500D01*
X101120566Y-69030500D01*
X101169423Y-69024068D01*
X101276654Y-68974065D01*
X101348724Y-68901994D01*
X101355839Y-68898369D01*
X101360535Y-68891907D01*
X101382583Y-68884743D01*
X101403239Y-68874219D01*
X101418726Y-68873000D01*
X101588595Y-68873000D01*
X101638271Y-68889140D01*
X101639368Y-68887241D01*
X101742009Y-68946501D01*
X101742007Y-68946501D01*
X101742011Y-68946502D01*
X101742013Y-68946503D01*
X101850232Y-68975500D01*
X101850234Y-68975500D01*
X101962266Y-68975500D01*
X101962268Y-68975500D01*
X102070487Y-68946503D01*
X102070489Y-68946501D01*
X102070491Y-68946501D01*
X102108646Y-68924472D01*
X102167513Y-68890485D01*
X102246735Y-68811263D01*
X102302753Y-68714237D01*
X102331750Y-68606018D01*
X102331750Y-68493982D01*
X102302753Y-68385763D01*
X102302751Y-68385760D01*
X102302751Y-68385758D01*
X102246736Y-68288739D01*
X102246735Y-68288737D01*
X102167513Y-68209515D01*
X102167510Y-68209513D01*
X102070490Y-68153498D01*
X102070492Y-68153498D01*
X102019085Y-68139724D01*
X101962268Y-68124500D01*
X101850232Y-68124500D01*
X101793415Y-68139724D01*
X101742008Y-68153498D01*
X101639368Y-68212759D01*
X101638271Y-68210859D01*
X101618860Y-68217166D01*
X101591196Y-68226966D01*
X101588595Y-68227000D01*
X101398727Y-68227000D01*
X101340536Y-68208093D01*
X101328724Y-68198004D01*
X101276654Y-68145935D01*
X101276650Y-68145933D01*
X101263335Y-68139724D01*
X101218587Y-68097997D01*
X101206912Y-68037936D01*
X101232769Y-67982483D01*
X101263334Y-67960275D01*
X101276654Y-67954065D01*
X101360315Y-67870404D01*
X101360317Y-67870400D01*
X101365283Y-67863309D01*
X101366916Y-67864453D01*
X101400990Y-67827913D01*
X101448987Y-67815500D01*
X101461049Y-67815500D01*
X101461050Y-67815500D01*
X101562308Y-67773557D01*
X101639807Y-67696058D01*
X101639806Y-67696058D01*
X101979808Y-67356058D01*
X101996059Y-67316824D01*
X102021750Y-67254801D01*
X102021750Y-66729964D01*
X102030444Y-66703203D01*
X102037723Y-66676043D01*
X102039821Y-66674343D01*
X102040657Y-66671773D01*
X102063425Y-66655230D01*
X102085274Y-66637539D01*
X102087970Y-66637397D01*
X102090157Y-66635809D01*
X102146372Y-66634338D01*
X102190619Y-66646194D01*
X102205795Y-66650261D01*
X102257109Y-66683586D01*
X102269894Y-66704047D01*
X102282183Y-66730401D01*
X102282184Y-66730402D01*
X102282185Y-66730404D01*
X102365846Y-66814065D01*
X102365847Y-66814065D01*
X102365848Y-66814066D01*
X102473074Y-66864067D01*
X102473075Y-66864067D01*
X102473077Y-66864068D01*
X102521934Y-66870500D01*
X102521935Y-66870500D01*
X102870564Y-66870500D01*
X102870566Y-66870500D01*
X102919423Y-66864068D01*
X103026654Y-66814065D01*
X103110315Y-66730404D01*
X103116525Y-66717085D01*
X103158253Y-66672337D01*
X103218314Y-66660662D01*
X103273767Y-66686519D01*
X103281689Y-66694815D01*
X103290332Y-66704985D01*
X103302185Y-66730404D01*
X103367091Y-66795310D01*
X103369689Y-66798367D01*
X103379874Y-66823129D01*
X103392031Y-66846989D01*
X103392585Y-66854032D01*
X103392964Y-66854953D01*
X103392732Y-66855905D01*
X103393250Y-66862476D01*
X103393250Y-66869275D01*
X103374343Y-66927466D01*
X103330013Y-66961590D01*
X103227830Y-67001175D01*
X103207999Y-67016884D01*
X103003138Y-67221746D01*
X103003128Y-67221757D01*
X102987427Y-67241578D01*
X102987426Y-67241580D01*
X102946842Y-67346338D01*
X102946842Y-67381609D01*
X102944843Y-67387760D01*
X102946049Y-67394117D01*
X102936360Y-67413868D01*
X102927935Y-67439800D01*
X102919941Y-67449452D01*
X102918888Y-67450570D01*
X102867925Y-67501534D01*
X102867923Y-67501536D01*
X102807786Y-67561673D01*
X102803126Y-67569745D01*
X102797374Y-67579706D01*
X102797374Y-67579707D01*
X102765262Y-67635324D01*
X102759013Y-67658643D01*
X102759014Y-67658644D01*
X102751521Y-67686607D01*
X102743250Y-67717476D01*
X102743250Y-69252524D01*
X102747748Y-69269309D01*
X102765262Y-69334674D01*
X102778971Y-69358418D01*
X102807786Y-69408327D01*
X102867923Y-69468464D01*
X102867925Y-69468465D01*
X102873567Y-69474107D01*
X102873566Y-69474107D01*
X102873569Y-69474109D01*
X103217924Y-69818465D01*
X103277488Y-69852854D01*
X103291577Y-69860988D01*
X103373726Y-69883000D01*
X103373727Y-69883000D01*
X103373728Y-69883000D01*
X103830811Y-69883000D01*
X103831076Y-69882981D01*
X103858987Y-69882984D01*
X104010543Y-69852850D01*
X104153307Y-69793725D01*
X104281792Y-69707882D01*
X104391059Y-69598621D01*
X104476908Y-69470140D01*
X104536039Y-69327379D01*
X104566181Y-69175824D01*
X104566178Y-69108344D01*
X104568081Y-69089026D01*
X104568116Y-69088852D01*
X104572875Y-69064931D01*
X104587653Y-69029256D01*
X104595787Y-69017084D01*
X104623089Y-68989783D01*
X104635263Y-68981649D01*
X104670942Y-68966872D01*
X104687911Y-68963497D01*
X104695149Y-68962058D01*
X104714460Y-68960156D01*
X104755758Y-68960156D01*
X104890614Y-68960156D01*
X104890629Y-68960161D01*
X104932052Y-68960156D01*
X104932053Y-68960157D01*
X104951342Y-68962055D01*
X104975458Y-68966850D01*
X105011143Y-68981628D01*
X105023311Y-68989757D01*
X105050630Y-69017073D01*
X105058761Y-69029241D01*
X105073543Y-69064921D01*
X105078274Y-69088693D01*
X105080178Y-69108017D01*
X105080178Y-69139453D01*
X105080180Y-69139479D01*
X105080181Y-69149752D01*
X105080189Y-69149778D01*
X105080197Y-69157605D01*
X105080191Y-69157622D01*
X105080197Y-69157698D01*
X105080197Y-69165205D01*
X105080197Y-69175822D01*
X105088604Y-69218093D01*
X105110336Y-69327374D01*
X105110338Y-69327379D01*
X105143865Y-69408327D01*
X105169462Y-69470130D01*
X105169463Y-69470132D01*
X105169465Y-69470135D01*
X105187157Y-69496614D01*
X105255304Y-69598609D01*
X105364562Y-69707873D01*
X105493037Y-69793720D01*
X105517320Y-69803779D01*
X105635780Y-69852850D01*
X105635787Y-69852852D01*
X105635792Y-69852854D01*
X105787341Y-69882999D01*
X105814089Y-69882999D01*
X105814101Y-69883000D01*
X105822076Y-69883000D01*
X106538773Y-69883000D01*
X106538774Y-69883000D01*
X106579848Y-69871994D01*
X106620924Y-69860988D01*
X106657750Y-69839726D01*
X106694577Y-69818464D01*
X106754714Y-69758327D01*
X106754714Y-69758325D01*
X106768638Y-69744402D01*
X106768638Y-69744400D01*
X106913773Y-69599268D01*
X106913773Y-69599266D01*
X106927695Y-69585345D01*
X106927699Y-69585340D01*
X106936970Y-69576069D01*
X107044715Y-69468326D01*
X107087238Y-69394673D01*
X107090128Y-69383886D01*
X107109250Y-69312524D01*
X107109250Y-67744798D01*
X107128157Y-67686607D01*
X107138246Y-67674795D01*
X107319942Y-67493098D01*
X107334282Y-67485791D01*
X107345760Y-67474509D01*
X107360857Y-67472250D01*
X107374459Y-67465320D01*
X107406265Y-67465455D01*
X107444224Y-67471801D01*
X107455206Y-67474288D01*
X107512210Y-67490652D01*
X107523352Y-67494584D01*
X107557346Y-67508917D01*
X107598706Y-67543080D01*
X107599059Y-67542791D01*
X107600536Y-67544592D01*
X107601198Y-67545138D01*
X107602136Y-67546542D01*
X107602139Y-67546545D01*
X107699708Y-67644114D01*
X107712984Y-67652985D01*
X107750863Y-67701035D01*
X107753265Y-67762173D01*
X107719272Y-67813047D01*
X107712984Y-67817615D01*
X107700030Y-67826270D01*
X107602521Y-67923779D01*
X107525916Y-68038428D01*
X107473153Y-68165810D01*
X107473151Y-68165816D01*
X107472319Y-68170000D01*
X108746750Y-68170000D01*
X108804941Y-68188907D01*
X108840905Y-68238407D01*
X108842443Y-68248121D01*
X108821250Y-68327213D01*
X108821250Y-68412787D01*
X108840871Y-68486013D01*
X108826843Y-68529191D01*
X108777343Y-68565155D01*
X108746750Y-68570000D01*
X107472319Y-68570000D01*
X107473151Y-68574183D01*
X107473153Y-68574189D01*
X107525916Y-68701571D01*
X107602521Y-68816220D01*
X107700029Y-68913728D01*
X107814678Y-68990333D01*
X107942066Y-69043098D01*
X108077305Y-69069999D01*
X108077307Y-69070000D01*
X108746750Y-69070000D01*
X108804941Y-69088907D01*
X108840905Y-69138407D01*
X108845750Y-69169000D01*
X108845750Y-70350500D01*
X108826843Y-70408691D01*
X108777343Y-70444655D01*
X108746750Y-70449500D01*
X97755250Y-70449500D01*
X97697059Y-70430593D01*
X97661095Y-70381093D01*
X97656250Y-70350500D01*
X97656250Y-70181057D01*
X97656249Y-70181055D01*
X97629348Y-70045816D01*
X97576583Y-69918428D01*
X97499978Y-69803779D01*
X97402470Y-69706271D01*
X97287821Y-69629666D01*
X97160439Y-69576903D01*
X97160433Y-69576901D01*
X97156250Y-69576069D01*
X97156250Y-70350500D01*
X97137343Y-70408691D01*
X97087843Y-70444655D01*
X97078128Y-70446193D01*
X96999037Y-70425000D01*
X96913463Y-70425000D01*
X96840236Y-70444621D01*
X96797059Y-70430593D01*
X96761095Y-70381093D01*
X96756250Y-70350500D01*
X96756250Y-69576069D01*
X96752066Y-69576901D01*
X96752060Y-69576903D01*
X96624678Y-69629666D01*
X96510029Y-69706271D01*
X96412520Y-69803780D01*
X96403565Y-69817183D01*
X96355515Y-69855062D01*
X96294376Y-69857464D01*
X96243503Y-69823470D01*
X96238935Y-69817183D01*
X96229979Y-69803780D01*
X96132470Y-69706271D01*
X96017821Y-69629666D01*
X95890439Y-69576903D01*
X95890433Y-69576901D01*
X95886250Y-69576069D01*
X95886250Y-70350500D01*
X95867343Y-70408691D01*
X95817843Y-70444655D01*
X95808128Y-70446193D01*
X95729037Y-70425000D01*
X95643463Y-70425000D01*
X95570236Y-70444621D01*
X95527059Y-70430593D01*
X95491095Y-70381093D01*
X95486250Y-70350500D01*
X95486250Y-69576069D01*
X95482066Y-69576901D01*
X95482060Y-69576903D01*
X95354678Y-69629666D01*
X95240029Y-69706271D01*
X95142521Y-69803779D01*
X95133862Y-69816738D01*
X95085810Y-69854615D01*
X95024671Y-69857014D01*
X94973799Y-69823018D01*
X94969237Y-69816738D01*
X94960364Y-69803458D01*
X94862792Y-69705886D01*
X94862791Y-69705885D01*
X94748067Y-69629228D01*
X94748056Y-69629222D01*
X94620578Y-69576420D01*
X94485245Y-69549500D01*
X94485243Y-69549500D01*
X94347257Y-69549500D01*
X94347254Y-69549500D01*
X94211922Y-69576420D01*
X94211920Y-69576420D01*
X94084443Y-69629222D01*
X94084432Y-69629228D01*
X93969708Y-69705885D01*
X93872139Y-69803454D01*
X93872136Y-69803458D01*
X93863565Y-69816286D01*
X93815515Y-69854165D01*
X93754377Y-69856567D01*
X93703503Y-69822574D01*
X93698935Y-69816286D01*
X93690364Y-69803458D01*
X93592792Y-69705886D01*
X93592791Y-69705885D01*
X93478067Y-69629228D01*
X93478056Y-69629222D01*
X93350578Y-69576420D01*
X93215245Y-69549500D01*
X93215243Y-69549500D01*
X93077257Y-69549500D01*
X93077254Y-69549500D01*
X92941922Y-69576420D01*
X92941920Y-69576420D01*
X92814443Y-69629222D01*
X92814432Y-69629228D01*
X92699708Y-69705885D01*
X92602135Y-69803458D01*
X92525478Y-69918182D01*
X92525472Y-69918193D01*
X92472670Y-70045670D01*
X92472670Y-70045672D01*
X92445750Y-70181004D01*
X92445750Y-70350500D01*
X92426843Y-70408691D01*
X92377343Y-70444655D01*
X92346750Y-70449500D01*
X89545750Y-70449500D01*
X89487559Y-70430593D01*
X89451595Y-70381093D01*
X89446750Y-70350500D01*
X89446750Y-64650000D01*
X98737671Y-64650000D01*
X98896250Y-64808579D01*
X99054830Y-64650000D01*
X98737671Y-64650000D01*
X89446750Y-64650000D01*
X89446750Y-61600691D01*
X97605750Y-61600691D01*
X97605750Y-61719309D01*
X97631570Y-61815670D01*
X97636452Y-61833890D01*
X97695757Y-61936608D01*
X97695759Y-61936610D01*
X97695761Y-61936613D01*
X97779637Y-62020489D01*
X97779639Y-62020490D01*
X97779641Y-62020492D01*
X97882360Y-62079797D01*
X97882361Y-62079797D01*
X97882364Y-62079799D01*
X97996941Y-62110500D01*
X98457773Y-62110500D01*
X98515964Y-62129407D01*
X98541772Y-62159624D01*
X98542014Y-62159449D01*
X98544238Y-62162510D01*
X98545979Y-62164549D01*
X98546592Y-62165751D01*
X98640499Y-62259658D01*
X98758830Y-62319951D01*
X98825380Y-62330491D01*
X98857001Y-62335500D01*
X98857004Y-62335500D01*
X99360499Y-62335500D01*
X99389053Y-62330976D01*
X99458670Y-62319951D01*
X99577001Y-62259658D01*
X99670908Y-62165751D01*
X99731201Y-62047420D01*
X99746750Y-61949246D01*
X99746750Y-61370754D01*
X99744823Y-61358589D01*
X99738632Y-61319500D01*
X99731201Y-61272580D01*
X99670908Y-61154249D01*
X99577001Y-61060342D01*
X99535598Y-61039246D01*
X99458673Y-61000050D01*
X99458670Y-61000049D01*
X99434126Y-60996161D01*
X99360499Y-60984500D01*
X99360496Y-60984500D01*
X98857004Y-60984500D01*
X98857001Y-60984500D01*
X98758830Y-61000049D01*
X98758826Y-61000050D01*
X98640500Y-61060341D01*
X98546591Y-61154250D01*
X98545981Y-61155449D01*
X98545029Y-61156400D01*
X98542014Y-61160551D01*
X98541356Y-61160073D01*
X98502714Y-61198712D01*
X98457773Y-61209500D01*
X97996941Y-61209500D01*
X97926817Y-61228289D01*
X97882359Y-61240202D01*
X97779641Y-61299507D01*
X97695757Y-61383391D01*
X97636452Y-61486109D01*
X97619287Y-61550169D01*
X97605750Y-61600691D01*
X89446750Y-61600691D01*
X89446750Y-60460751D01*
X91205750Y-60460751D01*
X91205750Y-61039248D01*
X91221299Y-61137419D01*
X91221300Y-61137423D01*
X91251259Y-61196220D01*
X91281592Y-61255751D01*
X91375499Y-61349658D01*
X91493830Y-61409951D01*
X91560380Y-61420491D01*
X91592001Y-61425500D01*
X91592004Y-61425500D01*
X92095499Y-61425500D01*
X92124053Y-61420976D01*
X92193670Y-61409951D01*
X92312001Y-61349658D01*
X92382164Y-61279494D01*
X92436679Y-61251719D01*
X92452166Y-61250500D01*
X92779351Y-61250500D01*
X92837542Y-61269407D01*
X92849348Y-61279490D01*
X92922908Y-61353050D01*
X93035946Y-61410646D01*
X93129731Y-61425500D01*
X93592768Y-61425499D01*
X93592770Y-61425499D01*
X93592771Y-61425498D01*
X93639661Y-61418072D01*
X93686549Y-61410647D01*
X93686549Y-61410646D01*
X93686554Y-61410646D01*
X93799592Y-61353050D01*
X93889300Y-61263342D01*
X93946896Y-61150304D01*
X93961750Y-61056519D01*
X93961749Y-60443482D01*
X93961748Y-60443477D01*
X94410750Y-60443477D01*
X94410750Y-61056520D01*
X94410751Y-61056523D01*
X94425602Y-61150299D01*
X94425604Y-61150304D01*
X94483200Y-61263342D01*
X94572908Y-61353050D01*
X94685946Y-61410646D01*
X94779731Y-61425500D01*
X95242768Y-61425499D01*
X95242770Y-61425499D01*
X95242771Y-61425498D01*
X95289661Y-61418072D01*
X95336549Y-61410647D01*
X95336549Y-61410646D01*
X95336554Y-61410646D01*
X95449592Y-61353050D01*
X95523147Y-61279494D01*
X95577662Y-61251719D01*
X95593149Y-61250500D01*
X95962140Y-61250500D01*
X95962142Y-61250500D01*
X96089436Y-61216392D01*
X96089438Y-61216390D01*
X96089440Y-61216390D01*
X96203559Y-61150503D01*
X96203559Y-61150502D01*
X96203564Y-61150500D01*
X96296750Y-61057314D01*
X96297207Y-61056522D01*
X96362640Y-60943190D01*
X96362640Y-60943188D01*
X96362642Y-60943186D01*
X96396750Y-60815892D01*
X96396750Y-60684108D01*
X96362642Y-60556814D01*
X96362640Y-60556811D01*
X96362640Y-60556809D01*
X96296753Y-60442690D01*
X96296751Y-60442688D01*
X96296750Y-60442686D01*
X96203564Y-60349500D01*
X96203561Y-60349498D01*
X96203559Y-60349496D01*
X96089439Y-60283609D01*
X96089441Y-60283609D01*
X96040049Y-60270375D01*
X95962142Y-60249500D01*
X95962140Y-60249500D01*
X95593149Y-60249500D01*
X95534958Y-60230593D01*
X95523151Y-60220509D01*
X95449592Y-60146950D01*
X95336554Y-60089354D01*
X95336555Y-60089354D01*
X95242772Y-60074500D01*
X94779729Y-60074500D01*
X94779726Y-60074501D01*
X94685950Y-60089352D01*
X94685945Y-60089354D01*
X94572909Y-60146949D01*
X94483199Y-60236659D01*
X94425604Y-60349695D01*
X94410750Y-60443477D01*
X93961748Y-60443477D01*
X93961748Y-60443475D01*
X93946897Y-60349700D01*
X93946896Y-60349698D01*
X93946896Y-60349696D01*
X93889300Y-60236658D01*
X93799592Y-60146950D01*
X93686554Y-60089354D01*
X93686555Y-60089354D01*
X93592772Y-60074500D01*
X93129729Y-60074500D01*
X93129726Y-60074501D01*
X93035950Y-60089352D01*
X93035945Y-60089354D01*
X92922909Y-60146949D01*
X92922908Y-60146949D01*
X92922908Y-60146950D01*
X92849352Y-60220505D01*
X92794838Y-60248281D01*
X92779351Y-60249500D01*
X92452166Y-60249500D01*
X92393975Y-60230593D01*
X92382168Y-60220509D01*
X92312001Y-60150342D01*
X92266838Y-60127330D01*
X92193673Y-60090050D01*
X92193670Y-60090049D01*
X92169126Y-60086161D01*
X92095499Y-60074500D01*
X92095496Y-60074500D01*
X91592004Y-60074500D01*
X91592001Y-60074500D01*
X91493830Y-60090049D01*
X91493826Y-60090050D01*
X91375500Y-60150341D01*
X91281591Y-60244250D01*
X91221300Y-60362576D01*
X91221299Y-60362580D01*
X91205750Y-60460751D01*
X89446750Y-60460751D01*
X89446750Y-51149500D01*
X89465657Y-51091309D01*
X89515157Y-51055345D01*
X89545750Y-51050500D01*
X92347250Y-51050500D01*
X92405441Y-51069407D01*
G37*
%TD.AperFunction*%
%TA.AperFunction,Conductor*%
G36*
X104218343Y-58152422D02*
G01*
X104234768Y-58188585D01*
X104240342Y-58213009D01*
X104305944Y-58349239D01*
X104400206Y-58467447D01*
X104400209Y-58467450D01*
X104400213Y-58467455D01*
X104518423Y-58561732D01*
X104654647Y-58627342D01*
X104802055Y-58660996D01*
X104835144Y-58660997D01*
X104835153Y-58661000D01*
X104877656Y-58661000D01*
X104928814Y-58661003D01*
X104928817Y-58661001D01*
X104936771Y-58661002D01*
X104936808Y-58661000D01*
X105154250Y-58661000D01*
X105212441Y-58679907D01*
X105248405Y-58729407D01*
X105253250Y-58760000D01*
X105253250Y-58817476D01*
X105253250Y-58907476D01*
X105253250Y-59162524D01*
X105255424Y-59170636D01*
X105275262Y-59244674D01*
X105293159Y-59275672D01*
X105317786Y-59318327D01*
X105377923Y-59378464D01*
X105377925Y-59378465D01*
X105383567Y-59384107D01*
X105383566Y-59384107D01*
X105383569Y-59384109D01*
X105737924Y-59738465D01*
X105789954Y-59768504D01*
X105811577Y-59780988D01*
X105893726Y-59803000D01*
X105893727Y-59803000D01*
X105978773Y-59803000D01*
X107114482Y-59803000D01*
X107125657Y-59803633D01*
X107134740Y-59804664D01*
X107145694Y-59808020D01*
X107315444Y-59825194D01*
X107315981Y-59825255D01*
X107316204Y-59825356D01*
X107326383Y-59827002D01*
X107421719Y-59848307D01*
X107429316Y-59850326D01*
X107534756Y-59882916D01*
X107542493Y-59885664D01*
X107558369Y-59892057D01*
X107597631Y-59923954D01*
X107599054Y-59922787D01*
X107602132Y-59926538D01*
X107602136Y-59926542D01*
X107699708Y-60024114D01*
X107712984Y-60032985D01*
X107750863Y-60081033D01*
X107753265Y-60142171D01*
X107719273Y-60193045D01*
X107712988Y-60197612D01*
X107700029Y-60206271D01*
X107602521Y-60303779D01*
X107525916Y-60418428D01*
X107473153Y-60545810D01*
X107473151Y-60545816D01*
X107472319Y-60550000D01*
X108746750Y-60550000D01*
X108804941Y-60568907D01*
X108840905Y-60618407D01*
X108842443Y-60628121D01*
X108821250Y-60707213D01*
X108821250Y-60792787D01*
X108840871Y-60866013D01*
X108826843Y-60909191D01*
X108777343Y-60945155D01*
X108746750Y-60950000D01*
X107472319Y-60950000D01*
X107473151Y-60954183D01*
X107473153Y-60954189D01*
X107525916Y-61081571D01*
X107602521Y-61196220D01*
X107700030Y-61293729D01*
X107712984Y-61302385D01*
X107750863Y-61350436D01*
X107753265Y-61411574D01*
X107719271Y-61462447D01*
X107712986Y-61467014D01*
X107699707Y-61475887D01*
X107699704Y-61475889D01*
X107602135Y-61573458D01*
X107525478Y-61688182D01*
X107525472Y-61688193D01*
X107472670Y-61815670D01*
X107472670Y-61815672D01*
X107445750Y-61951004D01*
X107445750Y-62088995D01*
X107472670Y-62224327D01*
X107472670Y-62224329D01*
X107525472Y-62351806D01*
X107525478Y-62351817D01*
X107602135Y-62466541D01*
X107602136Y-62466542D01*
X107699708Y-62564114D01*
X107712984Y-62572985D01*
X107750863Y-62621033D01*
X107753265Y-62682171D01*
X107719273Y-62733045D01*
X107712988Y-62737612D01*
X107700029Y-62746271D01*
X107602521Y-62843779D01*
X107525916Y-62958428D01*
X107473153Y-63085810D01*
X107473151Y-63085816D01*
X107472319Y-63090000D01*
X108746750Y-63090000D01*
X108804941Y-63108907D01*
X108840905Y-63158407D01*
X108842443Y-63168121D01*
X108821250Y-63247213D01*
X108821250Y-63332787D01*
X108840871Y-63406013D01*
X108826843Y-63449191D01*
X108777343Y-63485155D01*
X108746750Y-63490000D01*
X107472319Y-63490000D01*
X107473151Y-63494183D01*
X107473153Y-63494189D01*
X107525916Y-63621571D01*
X107602521Y-63736220D01*
X107700030Y-63833729D01*
X107712984Y-63842385D01*
X107750863Y-63890436D01*
X107753265Y-63951574D01*
X107726329Y-63996322D01*
X107720119Y-64002247D01*
X107699708Y-64015886D01*
X107602136Y-64113458D01*
X107599596Y-64117257D01*
X107592565Y-64123968D01*
X107582247Y-64128924D01*
X107562440Y-64143670D01*
X107520493Y-64161226D01*
X107506618Y-64165862D01*
X107315114Y-64214450D01*
X107300322Y-64217028D01*
X107173401Y-64229335D01*
X107113657Y-64216132D01*
X107093842Y-64200801D01*
X105466441Y-62573401D01*
X105466440Y-62573399D01*
X104068246Y-61175205D01*
X104040469Y-61120688D01*
X104039250Y-61105201D01*
X104039250Y-60683120D01*
X104058157Y-60624929D01*
X104107657Y-60588965D01*
X104116198Y-60586607D01*
X104234361Y-60559630D01*
X104362523Y-60497901D01*
X104473737Y-60409203D01*
X104562427Y-60297981D01*
X104624146Y-60169814D01*
X104655799Y-60031127D01*
X104655798Y-59960000D01*
X104655798Y-59908842D01*
X104655798Y-59754024D01*
X104655798Y-59747951D01*
X104655733Y-59746970D01*
X104655737Y-59725473D01*
X104654012Y-59717912D01*
X104633783Y-59629221D01*
X104624103Y-59586783D01*
X104562399Y-59458611D01*
X104557587Y-59452576D01*
X104473721Y-59347384D01*
X104362514Y-59258680D01*
X104362512Y-59258679D01*
X104357644Y-59256334D01*
X104234357Y-59196946D01*
X104234353Y-59196945D01*
X104234355Y-59196945D01*
X104116212Y-59169969D01*
X104063690Y-59138582D01*
X104039648Y-59082318D01*
X104039250Y-59073453D01*
X104039250Y-58210613D01*
X104058157Y-58152422D01*
X104107657Y-58116458D01*
X104168843Y-58116458D01*
X104218343Y-58152422D01*
G37*
%TD.AperFunction*%
%TA.AperFunction,Conductor*%
G36*
X104582662Y-52148442D02*
G01*
X104611658Y-52202320D01*
X104613250Y-52220002D01*
X104613250Y-52643163D01*
X104613312Y-52644127D01*
X104613312Y-52656606D01*
X104613312Y-52664855D01*
X104644539Y-52801715D01*
X104705435Y-52928195D01*
X104707230Y-52930446D01*
X104792947Y-53037954D01*
X104902684Y-53125488D01*
X104902686Y-53125490D01*
X104902687Y-53125490D01*
X104902688Y-53125491D01*
X105029155Y-53186416D01*
X105166008Y-53217673D01*
X105193701Y-53217677D01*
X105193726Y-53217684D01*
X105236196Y-53217684D01*
X105287354Y-53217692D01*
X105287357Y-53217690D01*
X105294964Y-53217692D01*
X105295081Y-53217684D01*
X105327452Y-53217684D01*
X105335129Y-53217686D01*
X105335146Y-53217692D01*
X105345276Y-53217690D01*
X105345480Y-53217756D01*
X105386304Y-53217749D01*
X105386304Y-53217750D01*
X105456500Y-53217738D01*
X105593367Y-53186478D01*
X105719847Y-53125547D01*
X105829599Y-53038002D01*
X105917121Y-52928230D01*
X105978023Y-52801736D01*
X105978029Y-52801712D01*
X105997860Y-52714797D01*
X106009254Y-52664863D01*
X106009250Y-52594667D01*
X106009250Y-52593696D01*
X106009250Y-52582000D01*
X106028157Y-52523809D01*
X106077657Y-52487845D01*
X106108250Y-52483000D01*
X106121452Y-52483000D01*
X106136364Y-52487845D01*
X106138843Y-52487845D01*
X106140848Y-52489302D01*
X106179643Y-52501907D01*
X106191456Y-52511996D01*
X106254254Y-52574794D01*
X106282031Y-52629311D01*
X106283250Y-52644798D01*
X106283250Y-54102526D01*
X106284392Y-54106789D01*
X106284396Y-54106802D01*
X106285130Y-54109540D01*
X106305262Y-54184674D01*
X106311612Y-54195672D01*
X106347786Y-54258327D01*
X106407923Y-54318464D01*
X106407925Y-54318465D01*
X106717784Y-54628324D01*
X106717786Y-54628327D01*
X106777923Y-54688464D01*
X106807340Y-54705448D01*
X106851576Y-54730988D01*
X106854648Y-54731811D01*
X106870717Y-54736117D01*
X106870718Y-54736117D01*
X106933726Y-54753000D01*
X106933727Y-54753000D01*
X107018773Y-54753000D01*
X107115418Y-54753000D01*
X107143885Y-54757181D01*
X107146871Y-54758078D01*
X107289974Y-54771769D01*
X107330549Y-54775651D01*
X107341606Y-54777344D01*
X107444917Y-54799209D01*
X107452423Y-54801111D01*
X107564392Y-54834208D01*
X107572254Y-54836897D01*
X107586028Y-54842262D01*
X107620101Y-54864507D01*
X107699708Y-54944114D01*
X107712984Y-54952985D01*
X107750863Y-55001033D01*
X107753265Y-55062171D01*
X107719273Y-55113045D01*
X107712988Y-55117612D01*
X107700029Y-55126271D01*
X107602521Y-55223779D01*
X107525916Y-55338428D01*
X107473153Y-55465810D01*
X107473151Y-55465816D01*
X107472319Y-55470000D01*
X108746750Y-55470000D01*
X108804941Y-55488907D01*
X108840905Y-55538407D01*
X108842443Y-55548121D01*
X108821250Y-55627213D01*
X108821250Y-55712787D01*
X108840871Y-55786013D01*
X108826843Y-55829191D01*
X108777343Y-55865155D01*
X108746750Y-55870000D01*
X107472319Y-55870000D01*
X107473151Y-55874183D01*
X107473153Y-55874189D01*
X107525916Y-56001571D01*
X107602521Y-56116220D01*
X107700030Y-56213729D01*
X107712984Y-56222385D01*
X107750863Y-56270436D01*
X107753265Y-56331574D01*
X107719271Y-56382447D01*
X107712987Y-56387012D01*
X107711837Y-56387782D01*
X107699707Y-56395887D01*
X107699704Y-56395889D01*
X107602135Y-56493458D01*
X107525478Y-56608182D01*
X107525472Y-56608193D01*
X107472670Y-56735670D01*
X107472670Y-56735672D01*
X107445750Y-56871004D01*
X107445750Y-57008995D01*
X107454319Y-57052073D01*
X107470319Y-57132511D01*
X107472670Y-57144327D01*
X107472670Y-57144329D01*
X107525472Y-57271806D01*
X107525478Y-57271817D01*
X107602135Y-57386541D01*
X107602136Y-57386542D01*
X107699708Y-57484114D01*
X107712984Y-57492985D01*
X107750863Y-57541033D01*
X107753265Y-57602171D01*
X107719273Y-57653045D01*
X107712988Y-57657612D01*
X107700029Y-57666271D01*
X107602521Y-57763779D01*
X107525916Y-57878428D01*
X107473153Y-58005810D01*
X107473151Y-58005816D01*
X107472319Y-58010000D01*
X108746750Y-58010000D01*
X108804941Y-58028907D01*
X108840905Y-58078407D01*
X108842443Y-58088121D01*
X108821250Y-58167213D01*
X108821250Y-58252787D01*
X108840871Y-58326013D01*
X108826843Y-58369191D01*
X108777343Y-58405155D01*
X108746750Y-58410000D01*
X107472319Y-58410000D01*
X107473151Y-58414183D01*
X107473153Y-58414189D01*
X107525916Y-58541571D01*
X107602521Y-58656220D01*
X107700030Y-58753729D01*
X107712984Y-58762385D01*
X107750863Y-58810436D01*
X107753265Y-58871574D01*
X107726329Y-58916322D01*
X107720119Y-58922247D01*
X107699708Y-58935886D01*
X107602136Y-59033458D01*
X107599596Y-59037257D01*
X107592565Y-59043968D01*
X107582247Y-59048924D01*
X107562440Y-59063670D01*
X107520493Y-59081226D01*
X107506618Y-59085862D01*
X107315114Y-59134450D01*
X107300322Y-59137028D01*
X107146594Y-59151934D01*
X107142612Y-59153031D01*
X107141114Y-59153444D01*
X107114821Y-59157000D01*
X106111049Y-59157000D01*
X106103451Y-59154531D01*
X106095562Y-59155781D01*
X106074906Y-59145256D01*
X106052858Y-59138093D01*
X106041045Y-59128004D01*
X105928246Y-59015205D01*
X105900469Y-58960688D01*
X105899250Y-58945201D01*
X105899250Y-58637309D01*
X105899200Y-58636554D01*
X105899200Y-58627340D01*
X105899201Y-58610403D01*
X105865560Y-58463000D01*
X105799966Y-58326777D01*
X105705705Y-58208563D01*
X105705703Y-58208561D01*
X105705702Y-58208560D01*
X105587508Y-58114288D01*
X105587506Y-58114287D01*
X105587505Y-58114286D01*
X105451292Y-58048672D01*
X105380583Y-58032524D01*
X105303891Y-58015009D01*
X105303895Y-58015009D01*
X105276875Y-58015005D01*
X105276875Y-58015004D01*
X105270787Y-58015003D01*
X105270774Y-58015000D01*
X105228300Y-58015000D01*
X105228297Y-58015000D01*
X105228079Y-58014999D01*
X105177138Y-58014993D01*
X105177137Y-58014993D01*
X105169561Y-58014992D01*
X105169457Y-58015000D01*
X104951677Y-58015000D01*
X104936765Y-58010155D01*
X104921084Y-58010155D01*
X104908398Y-58000938D01*
X104893486Y-57996093D01*
X104884269Y-57983407D01*
X104871584Y-57974191D01*
X104866738Y-57959278D01*
X104857522Y-57946593D01*
X104852677Y-57916000D01*
X104852677Y-57890000D01*
X104871584Y-57831809D01*
X104921084Y-57795845D01*
X104951677Y-57791000D01*
X105881726Y-57791000D01*
X106215692Y-57791000D01*
X106215728Y-57791002D01*
X106223683Y-57791002D01*
X106223686Y-57791003D01*
X106233813Y-57791002D01*
X106233885Y-57791025D01*
X106274844Y-57791022D01*
X106274844Y-57791023D01*
X106350447Y-57791018D01*
X106497860Y-57757364D01*
X106634089Y-57691751D01*
X106732106Y-57613580D01*
X106752301Y-57597474D01*
X106752301Y-57597473D01*
X106752303Y-57597472D01*
X106846575Y-57479251D01*
X106912178Y-57343018D01*
X106945823Y-57195603D01*
X106945823Y-57120000D01*
X106945823Y-57068842D01*
X106945823Y-56903476D01*
X106945823Y-56897019D01*
X106945800Y-56896678D01*
X106945800Y-56887327D01*
X106945801Y-56870400D01*
X106912157Y-56722989D01*
X106846556Y-56586761D01*
X106815784Y-56548173D01*
X106752293Y-56468552D01*
X106752290Y-56468549D01*
X106752287Y-56468545D01*
X106634077Y-56374268D01*
X106497853Y-56308658D01*
X106350445Y-56275004D01*
X106350441Y-56275003D01*
X106323430Y-56275002D01*
X106323430Y-56275001D01*
X106317350Y-56275000D01*
X106317347Y-56275000D01*
X106274846Y-56275000D01*
X106274845Y-56275000D01*
X106274837Y-56274999D01*
X106223686Y-56274997D01*
X106223684Y-56274997D01*
X106215728Y-56274997D01*
X106215692Y-56275000D01*
X105998250Y-56275000D01*
X105940059Y-56256093D01*
X105904095Y-56206593D01*
X105899250Y-56176000D01*
X105899250Y-55677477D01*
X105898377Y-55674219D01*
X105878438Y-55599805D01*
X105877238Y-55595326D01*
X105851063Y-55549991D01*
X105834714Y-55521673D01*
X105774577Y-55461536D01*
X105774574Y-55461534D01*
X105464715Y-55151675D01*
X105464714Y-55151673D01*
X105404577Y-55091536D01*
X105360328Y-55065989D01*
X105330924Y-55049012D01*
X105258335Y-55029562D01*
X105253996Y-55028399D01*
X105253990Y-55028397D01*
X105248776Y-55027000D01*
X105248774Y-55027000D01*
X104919229Y-55027000D01*
X104861038Y-55008093D01*
X104849226Y-54998005D01*
X104839698Y-54988477D01*
X104819015Y-54967794D01*
X104716241Y-54922415D01*
X104716240Y-54922414D01*
X104716238Y-54922414D01*
X104691118Y-54919500D01*
X104401390Y-54919500D01*
X104401385Y-54919501D01*
X104376259Y-54922414D01*
X104273483Y-54967795D01*
X104273479Y-54967797D01*
X104270994Y-54970283D01*
X104266538Y-54972552D01*
X104265916Y-54972979D01*
X104265860Y-54972897D01*
X104257027Y-54977397D01*
X104245943Y-54988482D01*
X104230450Y-54990935D01*
X104216474Y-54998055D01*
X104200991Y-54995601D01*
X104185511Y-54998053D01*
X104171535Y-54990932D01*
X104156043Y-54988477D01*
X104130994Y-54970276D01*
X104130315Y-54969597D01*
X104130315Y-54969596D01*
X104080720Y-54920001D01*
X104052945Y-54865487D01*
X104062516Y-54805055D01*
X104080719Y-54779999D01*
X104130315Y-54730404D01*
X104180318Y-54623173D01*
X104186750Y-54574316D01*
X104186750Y-54125684D01*
X104180318Y-54076827D01*
X104161787Y-54037088D01*
X104130316Y-53969598D01*
X104130315Y-53969597D01*
X104130315Y-53969596D01*
X104068244Y-53907525D01*
X104040469Y-53853011D01*
X104039250Y-53837524D01*
X104039250Y-53757476D01*
X104017238Y-53675327D01*
X104017238Y-53675326D01*
X104017237Y-53675325D01*
X104010279Y-53663274D01*
X104001093Y-53647363D01*
X103974717Y-53601677D01*
X103974713Y-53601672D01*
X103692106Y-53319064D01*
X103664329Y-53264548D01*
X103663110Y-53249061D01*
X103663110Y-53208889D01*
X103663109Y-53208886D01*
X103645981Y-53164674D01*
X103622526Y-53104128D01*
X103606820Y-53084300D01*
X103401950Y-52879431D01*
X103382122Y-52863724D01*
X103382120Y-52863723D01*
X103382118Y-52863722D01*
X103342486Y-52848368D01*
X103320803Y-52830698D01*
X103298157Y-52814245D01*
X103297272Y-52811523D01*
X103295055Y-52809716D01*
X103279250Y-52756054D01*
X103279250Y-52714797D01*
X103298157Y-52656606D01*
X103308247Y-52644793D01*
X103441045Y-52511996D01*
X103495561Y-52484219D01*
X103511048Y-52483000D01*
X103827419Y-52483000D01*
X103827535Y-52483008D01*
X103835143Y-52483007D01*
X103835146Y-52483008D01*
X103845242Y-52483006D01*
X103845394Y-52483055D01*
X103886304Y-52483048D01*
X103886304Y-52483050D01*
X103956497Y-52483039D01*
X104093360Y-52451780D01*
X104219837Y-52390854D01*
X104329587Y-52303313D01*
X104417109Y-52193548D01*
X104425052Y-52177051D01*
X104467333Y-52132825D01*
X104527534Y-52121897D01*
X104582662Y-52148442D01*
G37*
%TD.AperFunction*%
%TA.AperFunction,Conductor*%
G36*
X105039049Y-55675468D02*
G01*
X105046939Y-55674219D01*
X105067594Y-55684743D01*
X105089643Y-55691907D01*
X105101456Y-55701996D01*
X105224254Y-55824794D01*
X105252031Y-55879311D01*
X105253250Y-55894798D01*
X105253250Y-56298597D01*
X105253299Y-56299349D01*
X105253299Y-56325597D01*
X105286940Y-56473000D01*
X105352534Y-56609223D01*
X105443248Y-56722989D01*
X105446797Y-56727439D01*
X105551927Y-56811291D01*
X105564995Y-56821714D01*
X105701208Y-56887328D01*
X105848607Y-56920990D01*
X105881705Y-56920994D01*
X105881726Y-56921000D01*
X105924204Y-56921000D01*
X105975362Y-56921007D01*
X105975364Y-56921006D01*
X105982938Y-56921007D01*
X105983043Y-56921000D01*
X106200823Y-56921000D01*
X106215735Y-56925845D01*
X106231416Y-56925845D01*
X106244101Y-56935061D01*
X106259014Y-56939907D01*
X106268230Y-56952592D01*
X106280916Y-56961809D01*
X106285761Y-56976721D01*
X106294978Y-56989407D01*
X106299823Y-57020000D01*
X106299823Y-57046000D01*
X106280916Y-57104191D01*
X106231416Y-57140155D01*
X106200823Y-57145000D01*
X104936808Y-57145000D01*
X104936772Y-57144997D01*
X104918682Y-57144997D01*
X104918611Y-57144974D01*
X104802056Y-57144981D01*
X104654640Y-57178636D01*
X104654638Y-57178637D01*
X104518410Y-57244249D01*
X104518403Y-57244254D01*
X104400198Y-57338525D01*
X104400196Y-57338527D01*
X104323152Y-57435144D01*
X104272089Y-57468853D01*
X104210965Y-57466109D01*
X104163128Y-57427962D01*
X104146749Y-57373424D01*
X104146749Y-57085136D01*
X104143835Y-57060009D01*
X104098456Y-56957235D01*
X104070971Y-56929750D01*
X104043196Y-56875234D01*
X104052768Y-56814802D01*
X104070971Y-56789747D01*
X104130315Y-56730404D01*
X104180318Y-56623173D01*
X104186750Y-56574316D01*
X104186750Y-56125684D01*
X104180318Y-56076827D01*
X104178533Y-56073000D01*
X104130316Y-55969598D01*
X104130315Y-55969597D01*
X104130315Y-55969596D01*
X104080720Y-55920001D01*
X104073602Y-55906031D01*
X104062517Y-55894946D01*
X104060064Y-55879459D01*
X104052945Y-55865487D01*
X104055397Y-55849999D01*
X104052945Y-55834514D01*
X104060062Y-55820543D01*
X104062516Y-55805055D01*
X104080722Y-55779997D01*
X104089719Y-55771000D01*
X104130315Y-55730404D01*
X104130315Y-55730402D01*
X104130994Y-55729724D01*
X104185510Y-55701946D01*
X104245942Y-55711517D01*
X104270998Y-55729720D01*
X104273482Y-55732203D01*
X104273485Y-55732206D01*
X104376259Y-55777585D01*
X104401385Y-55780500D01*
X104691114Y-55780499D01*
X104716241Y-55777585D01*
X104819015Y-55732206D01*
X104849226Y-55701995D01*
X104903743Y-55674219D01*
X104919229Y-55673000D01*
X105031452Y-55673000D01*
X105039049Y-55675468D01*
G37*
%TD.AperFunction*%
%TA.AperFunction,Conductor*%
G36*
X108804941Y-51069407D02*
G01*
X108840905Y-51118907D01*
X108845750Y-51149500D01*
X108845750Y-52331000D01*
X108826843Y-52389191D01*
X108777343Y-52425155D01*
X108746750Y-52430000D01*
X108077305Y-52430000D01*
X107942066Y-52456901D01*
X107814678Y-52509666D01*
X107700029Y-52586271D01*
X107602521Y-52683779D01*
X107525916Y-52798428D01*
X107473153Y-52925810D01*
X107473151Y-52925816D01*
X107472319Y-52930000D01*
X108746750Y-52930000D01*
X108804941Y-52948907D01*
X108840905Y-52998407D01*
X108842443Y-53008121D01*
X108821250Y-53087213D01*
X108821250Y-53172787D01*
X108840871Y-53246013D01*
X108826843Y-53289191D01*
X108777343Y-53325155D01*
X108746750Y-53330000D01*
X107472319Y-53330000D01*
X107473151Y-53334183D01*
X107473153Y-53334189D01*
X107525916Y-53461571D01*
X107602521Y-53576220D01*
X107700029Y-53673728D01*
X107712981Y-53682382D01*
X107750862Y-53730431D01*
X107753266Y-53791569D01*
X107719275Y-53842444D01*
X107712987Y-53847012D01*
X107699712Y-53855882D01*
X107602135Y-53953459D01*
X107596721Y-53961562D01*
X107557226Y-53995819D01*
X107544389Y-54001976D01*
X107521734Y-54012844D01*
X107521728Y-54012847D01*
X107519634Y-54013852D01*
X107519632Y-54013852D01*
X107519631Y-54013853D01*
X107478809Y-54033434D01*
X107462914Y-54039442D01*
X107312790Y-54081863D01*
X107296853Y-54084982D01*
X107266793Y-54088338D01*
X107156313Y-54100671D01*
X107096386Y-54088338D01*
X107075327Y-54072287D01*
X106958246Y-53955206D01*
X106930469Y-53900689D01*
X106929250Y-53885202D01*
X106929250Y-52427475D01*
X106919437Y-52390854D01*
X106912095Y-52363454D01*
X106907238Y-52345326D01*
X106864714Y-52271673D01*
X106710718Y-52117677D01*
X106554715Y-51961673D01*
X106554715Y-51961674D01*
X106554714Y-51961673D01*
X106554714Y-51961672D01*
X106494578Y-51901536D01*
X106436872Y-51868219D01*
X106436872Y-51868220D01*
X106420924Y-51859012D01*
X106379848Y-51848006D01*
X106379847Y-51848005D01*
X106349779Y-51839948D01*
X106338774Y-51837000D01*
X106338773Y-51837000D01*
X106045042Y-51837000D01*
X106037369Y-51836996D01*
X106037354Y-51836992D01*
X106028272Y-51836993D01*
X106027202Y-51836993D01*
X106027051Y-51836944D01*
X105986196Y-51836950D01*
X105916045Y-51836960D01*
X105916002Y-51836961D01*
X105816705Y-51859640D01*
X105779145Y-51868219D01*
X105779136Y-51868221D01*
X105652662Y-51929146D01*
X105652657Y-51929149D01*
X105542916Y-52016684D01*
X105542914Y-52016685D01*
X105542913Y-52016687D01*
X105509824Y-52058185D01*
X105455390Y-52126452D01*
X105455390Y-52126453D01*
X105447447Y-52142949D01*
X105405166Y-52187175D01*
X105344964Y-52198101D01*
X105289837Y-52171556D01*
X105260841Y-52117677D01*
X105259250Y-52099997D01*
X105259250Y-51726627D01*
X105259199Y-51725856D01*
X105259200Y-51705114D01*
X105259198Y-51705106D01*
X105259198Y-51705103D01*
X105227968Y-51568260D01*
X105227967Y-51568257D01*
X105167067Y-51441780D01*
X105079552Y-51332023D01*
X104969810Y-51244490D01*
X104957768Y-51238689D01*
X104913551Y-51196402D01*
X104902634Y-51136199D01*
X104929188Y-51081076D01*
X104983071Y-51052089D01*
X105000736Y-51050500D01*
X108746750Y-51050500D01*
X108804941Y-51069407D01*
G37*
%TD.AperFunction*%
%TD*%
%TA.AperFunction,Conductor*%
%TO.N,3V3*%
G36*
X98086787Y-54974651D02*
G01*
X98364774Y-55246558D01*
X98368292Y-55254792D01*
X98368293Y-55254921D01*
X98368293Y-55438300D01*
X98364866Y-55446573D01*
X98356593Y-55450000D01*
X97756611Y-55450000D01*
X97748338Y-55446573D01*
X97744911Y-55438300D01*
X97745042Y-55436555D01*
X97772440Y-55254921D01*
X97784491Y-55175026D01*
X97789113Y-55167358D01*
X97789414Y-55167144D01*
X98071992Y-54973366D01*
X98080752Y-54971514D01*
X98086787Y-54974651D01*
G37*
%TD.AperFunction*%
%TD*%
%TA.AperFunction,Conductor*%
%TO.N,3V3*%
G36*
X98086787Y-64974651D02*
G01*
X98364774Y-65246558D01*
X98368292Y-65254792D01*
X98368293Y-65254921D01*
X98368293Y-65438300D01*
X98364866Y-65446573D01*
X98356593Y-65450000D01*
X97756611Y-65450000D01*
X97748338Y-65446573D01*
X97744911Y-65438300D01*
X97745042Y-65436555D01*
X97772440Y-65254921D01*
X97784491Y-65175026D01*
X97789113Y-65167358D01*
X97789414Y-65167144D01*
X98071992Y-64973366D01*
X98080752Y-64971514D01*
X98086787Y-64974651D01*
G37*
%TD.AperFunction*%
%TD*%
%TA.AperFunction,Conductor*%
%TO.N,3V3*%
G36*
X97568419Y-54907548D02*
G01*
X97687514Y-55050383D01*
X97781002Y-55162507D01*
X97783668Y-55171056D01*
X97781002Y-55177493D01*
X97568421Y-55432450D01*
X97560491Y-55436609D01*
X97554527Y-55435578D01*
X97203042Y-55273138D01*
X97196969Y-55266556D01*
X97196250Y-55262517D01*
X97196250Y-55077482D01*
X97199677Y-55069209D01*
X97203042Y-55066861D01*
X97554529Y-54904420D01*
X97563474Y-54904061D01*
X97568419Y-54907548D01*
G37*
%TD.AperFunction*%
%TD*%
%TA.AperFunction,Conductor*%
%TO.N,3V3*%
G36*
X97142420Y-54953010D02*
G01*
X97171962Y-54961883D01*
X97523594Y-55067497D01*
X97530530Y-55073157D01*
X97531927Y-55078701D01*
X97531927Y-55261298D01*
X97528500Y-55269571D01*
X97523593Y-55272503D01*
X97142420Y-55386989D01*
X97133510Y-55386087D01*
X97127849Y-55379150D01*
X97127591Y-55378127D01*
X97085724Y-55172329D01*
X97085724Y-55167668D01*
X97127590Y-54961881D01*
X97132596Y-54954459D01*
X97141386Y-54952750D01*
X97142420Y-54953010D01*
G37*
%TD.AperFunction*%
%TD*%
%TA.AperFunction,Conductor*%
%TO.N,/ClockBuffers/MasterTrigger_in*%
G36*
X93600206Y-55091663D02*
G01*
X93600517Y-55091878D01*
X93604684Y-55094874D01*
X93784286Y-55224001D01*
X93784778Y-55224375D01*
X93933516Y-55343864D01*
X94111578Y-55481537D01*
X94111583Y-55481539D01*
X94111585Y-55481541D01*
X94255856Y-55558756D01*
X94255860Y-55558757D01*
X94255865Y-55558760D01*
X94340215Y-55586870D01*
X94437636Y-55607714D01*
X94570273Y-55622527D01*
X94719542Y-55627148D01*
X94727703Y-55630829D01*
X94730878Y-55638842D01*
X94730878Y-55861141D01*
X94727451Y-55869414D01*
X94719525Y-55872836D01*
X94600921Y-55876355D01*
X94575907Y-55877098D01*
X94575900Y-55877098D01*
X94575877Y-55877100D01*
X94447004Y-55890796D01*
X94339009Y-55913457D01*
X94246842Y-55944928D01*
X94165326Y-55985079D01*
X94165321Y-55985081D01*
X94089361Y-56033752D01*
X94089348Y-56033761D01*
X93933529Y-56156126D01*
X93933515Y-56156137D01*
X93896422Y-56186383D01*
X93849290Y-56224816D01*
X93848832Y-56225171D01*
X93600556Y-56407925D01*
X93591862Y-56410069D01*
X93584197Y-56405438D01*
X93583899Y-56405012D01*
X93463463Y-56225171D01*
X93149608Y-55756508D01*
X93147852Y-55747729D01*
X93149607Y-55743492D01*
X93583976Y-55094873D01*
X93591425Y-55089906D01*
X93600206Y-55091663D01*
G37*
%TD.AperFunction*%
%TD*%
%TA.AperFunction,Conductor*%
%TO.N,/ClockBuffers/Heimtime_in*%
G36*
X93600206Y-65091663D02*
G01*
X93600517Y-65091878D01*
X93604684Y-65094874D01*
X93784286Y-65224001D01*
X93784778Y-65224375D01*
X93933516Y-65343864D01*
X94111578Y-65481537D01*
X94111583Y-65481539D01*
X94111585Y-65481541D01*
X94255856Y-65558756D01*
X94255860Y-65558757D01*
X94255865Y-65558760D01*
X94340215Y-65586870D01*
X94437636Y-65607714D01*
X94570273Y-65622527D01*
X94719542Y-65627148D01*
X94727703Y-65630829D01*
X94730878Y-65638842D01*
X94730878Y-65861141D01*
X94727451Y-65869414D01*
X94719525Y-65872836D01*
X94600921Y-65876355D01*
X94575907Y-65877098D01*
X94575900Y-65877098D01*
X94575877Y-65877100D01*
X94447004Y-65890796D01*
X94339009Y-65913457D01*
X94246842Y-65944928D01*
X94165326Y-65985079D01*
X94165321Y-65985081D01*
X94089361Y-66033752D01*
X94089348Y-66033761D01*
X93933529Y-66156126D01*
X93933515Y-66156137D01*
X93896422Y-66186383D01*
X93849290Y-66224816D01*
X93848832Y-66225171D01*
X93600556Y-66407925D01*
X93591862Y-66410069D01*
X93584197Y-66405438D01*
X93583899Y-66405012D01*
X93463463Y-66225171D01*
X93149608Y-65756508D01*
X93147852Y-65747729D01*
X93149607Y-65743492D01*
X93583976Y-65094873D01*
X93591425Y-65089906D01*
X93600206Y-65091663D01*
G37*
%TD.AperFunction*%
%TD*%
%TA.AperFunction,Conductor*%
%TO.N,/ClockBuffers/MasterTrigger_out_3*%
G36*
X107876634Y-53986920D02*
G01*
X108837667Y-54299353D01*
X108844476Y-54305170D01*
X108845750Y-54310480D01*
X108845750Y-54526999D01*
X108842323Y-54535272D01*
X108838819Y-54537683D01*
X108056325Y-54886991D01*
X108047374Y-54887234D01*
X108043007Y-54884294D01*
X108016855Y-54856301D01*
X108016833Y-54856280D01*
X107945482Y-54795895D01*
X107945480Y-54795894D01*
X107863228Y-54742399D01*
X107863229Y-54742399D01*
X107858015Y-54739768D01*
X107752702Y-54686643D01*
X107752697Y-54686641D01*
X107752693Y-54686639D01*
X107752681Y-54686634D01*
X107634932Y-54640772D01*
X107634919Y-54640767D01*
X107597342Y-54629659D01*
X107499207Y-54600650D01*
X107499203Y-54600649D01*
X107499185Y-54600644D01*
X107367293Y-54572729D01*
X107367288Y-54572728D01*
X107166443Y-54553512D01*
X107158533Y-54549313D01*
X107155857Y-54541865D01*
X107155857Y-54317966D01*
X107159284Y-54309693D01*
X107166257Y-54306338D01*
X107344563Y-54286433D01*
X107544028Y-54230070D01*
X107544032Y-54230067D01*
X107544035Y-54230067D01*
X107610609Y-54198132D01*
X107699887Y-54155309D01*
X107805881Y-54072246D01*
X107863485Y-53991264D01*
X107871072Y-53986511D01*
X107876634Y-53986920D01*
G37*
%TD.AperFunction*%
%TD*%
%TA.AperFunction,Conductor*%
%TO.N,/ClockBuffers/MasterTrigger_out_2*%
G36*
X108055941Y-58992837D02*
G01*
X108838821Y-59342316D01*
X108844977Y-59348816D01*
X108845750Y-59352998D01*
X108845750Y-59606999D01*
X108842323Y-59615272D01*
X108838819Y-59617683D01*
X108056401Y-59966957D01*
X108047450Y-59967200D01*
X108043010Y-59964181D01*
X107997439Y-59914474D01*
X107997432Y-59914468D01*
X107921828Y-59851050D01*
X107835978Y-59794830D01*
X107724721Y-59737511D01*
X107607522Y-59690316D01*
X107607518Y-59690314D01*
X107478398Y-59650406D01*
X107478400Y-59650406D01*
X107353514Y-59622497D01*
X107166379Y-59603564D01*
X107158493Y-59599321D01*
X107155857Y-59591923D01*
X107155857Y-59368120D01*
X107159284Y-59359847D01*
X107166428Y-59356475D01*
X107343199Y-59339336D01*
X107343205Y-59339334D01*
X107343213Y-59339334D01*
X107579023Y-59279504D01*
X107784284Y-59193596D01*
X107940691Y-59094636D01*
X108043022Y-58995132D01*
X108051339Y-58991823D01*
X108055941Y-58992837D01*
G37*
%TD.AperFunction*%
%TD*%
%TA.AperFunction,Conductor*%
%TO.N,/ClockBuffers/MasterTrigger_out_1*%
G36*
X108055941Y-64072837D02*
G01*
X108838821Y-64422316D01*
X108844977Y-64428816D01*
X108845750Y-64432998D01*
X108845750Y-64686999D01*
X108842323Y-64695272D01*
X108838819Y-64697683D01*
X108056401Y-65046957D01*
X108047450Y-65047200D01*
X108043010Y-65044181D01*
X107997439Y-64994474D01*
X107997432Y-64994468D01*
X107921828Y-64931050D01*
X107835978Y-64874830D01*
X107724721Y-64817511D01*
X107607522Y-64770316D01*
X107607518Y-64770314D01*
X107478398Y-64730406D01*
X107478400Y-64730406D01*
X107353514Y-64702497D01*
X107166379Y-64683564D01*
X107158493Y-64679321D01*
X107155857Y-64671923D01*
X107155857Y-64448120D01*
X107159284Y-64439847D01*
X107166428Y-64436475D01*
X107343199Y-64419336D01*
X107343205Y-64419334D01*
X107343213Y-64419334D01*
X107579023Y-64359504D01*
X107784284Y-64273596D01*
X107940691Y-64174636D01*
X108043022Y-64075132D01*
X108051339Y-64071823D01*
X108055941Y-64072837D01*
G37*
%TD.AperFunction*%
%TD*%
%TA.AperFunction,Conductor*%
%TO.N,/ClockBuffers/Heimtime_out_3*%
G36*
X103914975Y-62951463D02*
G01*
X103922399Y-62956470D01*
X103924108Y-62965260D01*
X103924001Y-62965734D01*
X103902447Y-63052977D01*
X103902164Y-63053945D01*
X103878490Y-63123413D01*
X103855860Y-63192147D01*
X103855855Y-63192170D01*
X103843388Y-63260041D01*
X103839290Y-63344544D01*
X103835467Y-63352641D01*
X103827604Y-63355677D01*
X103604271Y-63355677D01*
X103595998Y-63352250D01*
X103592637Y-63345215D01*
X103579387Y-63220674D01*
X103579387Y-63220671D01*
X103545139Y-63132080D01*
X103528945Y-63096252D01*
X103528414Y-63094837D01*
X103515842Y-63053478D01*
X103489313Y-62966199D01*
X103490185Y-62957286D01*
X103497104Y-62951602D01*
X103498165Y-62951333D01*
X103703920Y-62909474D01*
X103708580Y-62909474D01*
X103914975Y-62951463D01*
G37*
%TD.AperFunction*%
%TD*%
%TA.AperFunction,Conductor*%
%TO.N,/ClockBuffers/Heimtime_out_2*%
G36*
X105089388Y-65133576D02*
G01*
X105094681Y-65140799D01*
X105094780Y-65141244D01*
X105136775Y-65347668D01*
X105136775Y-65352332D01*
X105094780Y-65558755D01*
X105089773Y-65566179D01*
X105080983Y-65567888D01*
X105080538Y-65567789D01*
X104699496Y-65474680D01*
X104692273Y-65469387D01*
X104690573Y-65463314D01*
X104690573Y-65236685D01*
X104694000Y-65228412D01*
X104699494Y-65225320D01*
X105080539Y-65132210D01*
X105089388Y-65133576D01*
G37*
%TD.AperFunction*%
%TD*%
%TA.AperFunction,Conductor*%
%TO.N,/ClockBuffers/Heimtime_out_1*%
G36*
X107876393Y-66686839D02*
G01*
X108094389Y-66757605D01*
X108837664Y-66998889D01*
X108844473Y-67004700D01*
X108845750Y-67010015D01*
X108845750Y-67188909D01*
X108842323Y-67197182D01*
X108837674Y-67200034D01*
X107877259Y-67512870D01*
X107868331Y-67512174D01*
X107863648Y-67507839D01*
X107843202Y-67474323D01*
X107815547Y-67442521D01*
X107797518Y-67421788D01*
X107797515Y-67421785D01*
X107797513Y-67421783D01*
X107780897Y-67408172D01*
X107742557Y-67376766D01*
X107742552Y-67376763D01*
X107667530Y-67332355D01*
X107586418Y-67298155D01*
X107586417Y-67298154D01*
X107586413Y-67298153D01*
X107550301Y-67287787D01*
X107495230Y-67271978D01*
X107495226Y-67271977D01*
X107432082Y-67261421D01*
X107406733Y-67257183D01*
X107406731Y-67257183D01*
X107406724Y-67257182D01*
X107276749Y-67257593D01*
X107268465Y-67254192D01*
X107113615Y-67099342D01*
X107110188Y-67091069D01*
X107113615Y-67082796D01*
X107119288Y-67079662D01*
X107261707Y-67047201D01*
X107499868Y-66961043D01*
X107684420Y-66863677D01*
X107803648Y-66770139D01*
X107863443Y-66690917D01*
X107871162Y-66686380D01*
X107876393Y-66686839D01*
G37*
%TD.AperFunction*%
%TD*%
M02*
