%TF.GenerationSoftware,KiCad,Pcbnew,9.0.0*%
%TF.CreationDate,2025-02-25T16:03:33+01:00*%
%TF.ProjectId,2_In_6_Out,325f496e-5f36-45f4-9f75-742e6b696361,0*%
%TF.SameCoordinates,Original*%
%TF.FileFunction,Copper,L2,Inr*%
%TF.FilePolarity,Positive*%
%FSLAX46Y46*%
G04 Gerber Fmt 4.6, Leading zero omitted, Abs format (unit mm)*
G04 Created by KiCad (PCBNEW 9.0.0) date 2025-02-25 16:03:33*
%MOMM*%
%LPD*%
G01*
G04 APERTURE LIST*
%TA.AperFunction,CastellatedPad*%
%ADD10O,3.000000X1.000000*%
%TD*%
%TA.AperFunction,ComponentPad*%
%ADD11O,1.000000X2.000000*%
%TD*%
%TA.AperFunction,ViaPad*%
%ADD12C,0.450000*%
%TD*%
G04 APERTURE END LIST*
D10*
%TO.N,GND*%
%TO.C,J3*%
X109146250Y-53130000D03*
%TO.N,/ClockBuffers/MasterTrigger_out_3*%
X109146250Y-54400000D03*
%TO.N,GND*%
X109146250Y-55670000D03*
%TO.N,/ClockBuffers/Heimtime_out_3*%
X109146250Y-56940000D03*
%TO.N,GND*%
X109146250Y-58210000D03*
%TO.N,/ClockBuffers/MasterTrigger_out_2*%
X109146250Y-59480000D03*
%TO.N,GND*%
X109146250Y-60750000D03*
%TO.N,/ClockBuffers/Heimtime_out_2*%
X109146250Y-62020000D03*
%TO.N,GND*%
X109146250Y-63290000D03*
%TO.N,/ClockBuffers/MasterTrigger_out_1*%
X109146250Y-64560000D03*
%TO.N,GND*%
X109146250Y-65830000D03*
%TO.N,/ClockBuffers/Heimtime_out_1*%
X109146250Y-67100000D03*
%TO.N,GND*%
X109146250Y-68370000D03*
%TD*%
D11*
%TO.N,GND*%
%TO.C,J4*%
X96956250Y-50750000D03*
X95686250Y-50750000D03*
X94416250Y-50750000D03*
X93146250Y-50750000D03*
%TD*%
%TO.N,GND*%
%TO.C,J5*%
X96956250Y-70750000D03*
X95686250Y-70750000D03*
%TO.N,3V3*%
X94416250Y-70750000D03*
X93146250Y-70750000D03*
%TD*%
D12*
%TO.N,GND*%
X100216250Y-63240000D03*
X99626250Y-56760000D03*
X97656250Y-60480000D03*
X101346250Y-69630000D03*
X101816250Y-60810000D03*
X100326250Y-54140000D03*
X94356250Y-57020000D03*
X95436250Y-66640000D03*
X102606250Y-60800000D03*
X103996250Y-53150000D03*
X90696250Y-65050000D03*
X99476250Y-53250000D03*
X105876250Y-53690000D03*
X89766250Y-65790000D03*
X97786250Y-53630000D03*
X106526250Y-66060000D03*
X93826250Y-57980000D03*
X101106250Y-62910000D03*
X98986250Y-63350000D03*
X97431250Y-61856267D03*
X106436250Y-60860000D03*
X97266250Y-63420000D03*
X90346250Y-51640000D03*
X91416250Y-65840000D03*
X100876250Y-64260000D03*
X92556250Y-63400000D03*
X100116250Y-51630000D03*
X94506250Y-54920000D03*
X93346250Y-54230000D03*
X98626250Y-51710000D03*
X92196250Y-67950000D03*
X99206250Y-64260000D03*
X94396250Y-67050000D03*
X97096250Y-54510000D03*
X99656250Y-66730000D03*
X105207737Y-65945728D03*
X100286250Y-69860000D03*
X104226250Y-67570000D03*
X103110564Y-62838159D03*
X89866250Y-66990000D03*
X100376250Y-53480000D03*
X104816250Y-69870000D03*
X107686250Y-69560000D03*
X101746250Y-63500000D03*
X102366250Y-69170000D03*
X92096250Y-53950000D03*
X101906250Y-52270000D03*
X94156250Y-68170000D03*
X101076250Y-54140000D03*
X104956250Y-60750000D03*
X97236250Y-56440000D03*
X90596250Y-66250000D03*
X106616250Y-62850000D03*
X98956250Y-54160000D03*
X96522972Y-60499311D03*
X92896250Y-64250000D03*
X91626250Y-66770000D03*
X99443773Y-52281263D03*
X100386250Y-52540000D03*
X101096250Y-53110000D03*
X101722216Y-57994846D03*
X105846250Y-66080000D03*
X95366250Y-54770000D03*
X106496250Y-55300000D03*
X99626250Y-54130000D03*
X102026250Y-53230000D03*
X102106250Y-67900000D03*
X91446250Y-54530000D03*
X97996250Y-52730000D03*
X105126250Y-54700000D03*
X97100532Y-64515000D03*
X90476250Y-56340000D03*
X92756250Y-57160000D03*
X91496250Y-57050000D03*
X99716250Y-64280000D03*
X92556250Y-53310000D03*
X90426250Y-55110000D03*
X91433048Y-56048181D03*
X93276250Y-67370000D03*
X102656250Y-51650000D03*
X106536250Y-58530000D03*
X89746250Y-64720000D03*
X99476250Y-69330000D03*
X93906250Y-53340000D03*
X95336250Y-64890000D03*
X102466250Y-57330000D03*
X104676250Y-56580000D03*
X106696250Y-51520000D03*
X90296250Y-59850000D03*
X91556250Y-51620000D03*
X91906250Y-58310000D03*
X93996250Y-63830000D03*
X100296250Y-64290000D03*
X98155506Y-69784027D03*
X101026250Y-52040000D03*
X101976250Y-62660000D03*
X94496250Y-64750000D03*
X91896250Y-64750000D03*
X102646250Y-58180000D03*
X95336250Y-56510000D03*
X104526250Y-58890000D03*
%TO.N,3V3*%
X101906250Y-68550000D03*
X101616250Y-58560000D03*
X97086250Y-55170000D03*
X97086250Y-65170000D03*
X95896250Y-60750000D03*
%TO.N,/ClockBuffers/Heimtime_out_3*%
X103706250Y-62910000D03*
%TO.N,/ClockBuffers/Heimtime_out_2*%
X105136250Y-65350000D03*
%TO.N,Net-(D3-A)*%
X98056250Y-61660000D03*
X97886250Y-69220000D03*
%TD*%
%TA.AperFunction,Conductor*%
%TO.N,GND*%
G36*
X92405441Y-51069407D02*
G01*
X92441405Y-51118907D01*
X92446250Y-51149500D01*
X92446250Y-51318944D01*
X92473151Y-51454183D01*
X92525916Y-51581571D01*
X92602521Y-51696220D01*
X92700029Y-51793728D01*
X92814678Y-51870333D01*
X92942063Y-51923097D01*
X92942069Y-51923099D01*
X92946250Y-51923929D01*
X92946250Y-51149500D01*
X92965157Y-51091309D01*
X93014657Y-51055345D01*
X93024371Y-51053806D01*
X93103463Y-51075000D01*
X93189037Y-51075000D01*
X93262263Y-51055378D01*
X93305441Y-51069407D01*
X93341405Y-51118907D01*
X93346250Y-51149500D01*
X93346250Y-51923929D01*
X93350430Y-51923099D01*
X93350436Y-51923097D01*
X93477821Y-51870333D01*
X93592470Y-51793728D01*
X93689980Y-51696218D01*
X93698934Y-51682818D01*
X93746983Y-51644938D01*
X93808121Y-51642535D01*
X93858995Y-51676527D01*
X93863566Y-51682818D01*
X93872519Y-51696218D01*
X93970029Y-51793728D01*
X94084678Y-51870333D01*
X94212063Y-51923097D01*
X94212069Y-51923099D01*
X94216250Y-51923929D01*
X94216250Y-51149500D01*
X94235157Y-51091309D01*
X94284657Y-51055345D01*
X94294371Y-51053806D01*
X94373463Y-51075000D01*
X94459037Y-51075000D01*
X94532263Y-51055378D01*
X94575441Y-51069407D01*
X94611405Y-51118907D01*
X94616250Y-51149500D01*
X94616250Y-51923929D01*
X94620430Y-51923099D01*
X94620436Y-51923097D01*
X94747821Y-51870333D01*
X94862470Y-51793728D01*
X94959980Y-51696218D01*
X94968934Y-51682818D01*
X95016983Y-51644938D01*
X95078121Y-51642535D01*
X95128995Y-51676527D01*
X95133566Y-51682818D01*
X95142519Y-51696218D01*
X95240029Y-51793728D01*
X95354678Y-51870333D01*
X95482063Y-51923097D01*
X95482069Y-51923099D01*
X95486250Y-51923929D01*
X95486250Y-51149500D01*
X95505157Y-51091309D01*
X95554657Y-51055345D01*
X95564371Y-51053806D01*
X95643463Y-51075000D01*
X95729037Y-51075000D01*
X95802263Y-51055378D01*
X95845441Y-51069407D01*
X95881405Y-51118907D01*
X95886250Y-51149500D01*
X95886250Y-51923929D01*
X95890430Y-51923099D01*
X95890436Y-51923097D01*
X96017821Y-51870333D01*
X96132470Y-51793728D01*
X96229980Y-51696218D01*
X96238934Y-51682818D01*
X96286983Y-51644938D01*
X96348121Y-51642535D01*
X96398995Y-51676527D01*
X96403566Y-51682818D01*
X96412519Y-51696218D01*
X96510029Y-51793728D01*
X96624678Y-51870333D01*
X96752063Y-51923097D01*
X96752069Y-51923099D01*
X96756250Y-51923929D01*
X96756250Y-51149500D01*
X96775157Y-51091309D01*
X96824657Y-51055345D01*
X96834371Y-51053806D01*
X96913463Y-51075000D01*
X96999037Y-51075000D01*
X97072263Y-51055378D01*
X97115441Y-51069407D01*
X97151405Y-51118907D01*
X97156250Y-51149500D01*
X97156250Y-51923929D01*
X97160430Y-51923099D01*
X97160436Y-51923097D01*
X97287821Y-51870333D01*
X97402470Y-51793728D01*
X97499978Y-51696220D01*
X97576583Y-51581571D01*
X97629348Y-51454183D01*
X97656249Y-51318944D01*
X97656250Y-51318942D01*
X97656250Y-51149500D01*
X97675157Y-51091309D01*
X97724657Y-51055345D01*
X97755250Y-51050500D01*
X108746750Y-51050500D01*
X108804941Y-51069407D01*
X108840905Y-51118907D01*
X108845750Y-51149500D01*
X108845750Y-52331000D01*
X108826843Y-52389191D01*
X108777343Y-52425155D01*
X108746750Y-52430000D01*
X108077305Y-52430000D01*
X107942066Y-52456901D01*
X107814678Y-52509666D01*
X107700029Y-52586271D01*
X107602521Y-52683779D01*
X107525916Y-52798428D01*
X107473153Y-52925810D01*
X107473151Y-52925816D01*
X107472319Y-52930000D01*
X108746750Y-52930000D01*
X108804941Y-52948907D01*
X108840905Y-52998407D01*
X108842443Y-53008121D01*
X108821250Y-53087213D01*
X108821250Y-53172787D01*
X108840871Y-53246013D01*
X108826843Y-53289191D01*
X108777343Y-53325155D01*
X108746750Y-53330000D01*
X107472319Y-53330000D01*
X107473151Y-53334183D01*
X107473153Y-53334189D01*
X107525916Y-53461571D01*
X107602521Y-53576220D01*
X107700030Y-53673729D01*
X107712984Y-53682385D01*
X107750863Y-53730436D01*
X107753265Y-53791574D01*
X107719271Y-53842447D01*
X107712986Y-53847014D01*
X107699707Y-53855887D01*
X107699704Y-53855889D01*
X107602135Y-53953458D01*
X107525478Y-54068182D01*
X107525472Y-54068193D01*
X107472670Y-54195670D01*
X107472670Y-54195672D01*
X107445750Y-54331004D01*
X107445750Y-54468995D01*
X107472670Y-54604327D01*
X107472670Y-54604329D01*
X107525472Y-54731806D01*
X107525478Y-54731817D01*
X107602135Y-54846541D01*
X107602136Y-54846542D01*
X107699708Y-54944114D01*
X107712984Y-54952985D01*
X107750863Y-55001033D01*
X107753265Y-55062171D01*
X107719273Y-55113045D01*
X107712988Y-55117612D01*
X107700029Y-55126271D01*
X107602521Y-55223779D01*
X107525916Y-55338428D01*
X107473153Y-55465810D01*
X107473151Y-55465816D01*
X107472319Y-55470000D01*
X108746750Y-55470000D01*
X108804941Y-55488907D01*
X108840905Y-55538407D01*
X108842443Y-55548121D01*
X108821250Y-55627213D01*
X108821250Y-55712787D01*
X108840871Y-55786013D01*
X108826843Y-55829191D01*
X108777343Y-55865155D01*
X108746750Y-55870000D01*
X107472319Y-55870000D01*
X107473151Y-55874183D01*
X107473153Y-55874189D01*
X107525916Y-56001571D01*
X107602521Y-56116220D01*
X107700030Y-56213729D01*
X107712984Y-56222385D01*
X107750863Y-56270436D01*
X107753265Y-56331574D01*
X107719271Y-56382447D01*
X107712986Y-56387014D01*
X107699707Y-56395887D01*
X107699704Y-56395889D01*
X107602135Y-56493458D01*
X107525478Y-56608182D01*
X107525472Y-56608193D01*
X107472670Y-56735670D01*
X107472670Y-56735672D01*
X107445750Y-56871004D01*
X107445750Y-57008995D01*
X107472670Y-57144327D01*
X107472670Y-57144329D01*
X107525472Y-57271806D01*
X107525478Y-57271817D01*
X107602135Y-57386541D01*
X107602136Y-57386542D01*
X107699708Y-57484114D01*
X107712984Y-57492985D01*
X107750863Y-57541033D01*
X107753265Y-57602171D01*
X107719273Y-57653045D01*
X107712988Y-57657612D01*
X107700029Y-57666271D01*
X107602521Y-57763779D01*
X107525916Y-57878428D01*
X107473153Y-58005810D01*
X107473151Y-58005816D01*
X107472319Y-58010000D01*
X108746750Y-58010000D01*
X108804941Y-58028907D01*
X108840905Y-58078407D01*
X108842443Y-58088121D01*
X108821250Y-58167213D01*
X108821250Y-58252787D01*
X108840871Y-58326013D01*
X108826843Y-58369191D01*
X108777343Y-58405155D01*
X108746750Y-58410000D01*
X107472319Y-58410000D01*
X107473151Y-58414183D01*
X107473153Y-58414189D01*
X107525916Y-58541571D01*
X107602521Y-58656220D01*
X107700030Y-58753729D01*
X107712984Y-58762385D01*
X107750863Y-58810436D01*
X107753265Y-58871574D01*
X107719271Y-58922447D01*
X107712986Y-58927014D01*
X107699707Y-58935887D01*
X107699704Y-58935889D01*
X107602135Y-59033458D01*
X107525478Y-59148182D01*
X107525472Y-59148193D01*
X107472670Y-59275670D01*
X107472670Y-59275672D01*
X107445750Y-59411004D01*
X107445750Y-59548995D01*
X107472670Y-59684327D01*
X107472670Y-59684329D01*
X107525472Y-59811806D01*
X107525478Y-59811817D01*
X107602135Y-59926541D01*
X107602136Y-59926542D01*
X107699708Y-60024114D01*
X107712984Y-60032985D01*
X107750863Y-60081033D01*
X107753265Y-60142171D01*
X107719273Y-60193045D01*
X107712988Y-60197612D01*
X107700029Y-60206271D01*
X107602521Y-60303779D01*
X107525916Y-60418428D01*
X107473153Y-60545810D01*
X107473151Y-60545816D01*
X107472319Y-60550000D01*
X108746750Y-60550000D01*
X108804941Y-60568907D01*
X108840905Y-60618407D01*
X108842443Y-60628121D01*
X108821250Y-60707213D01*
X108821250Y-60792787D01*
X108840871Y-60866013D01*
X108826843Y-60909191D01*
X108777343Y-60945155D01*
X108746750Y-60950000D01*
X107472319Y-60950000D01*
X107473151Y-60954183D01*
X107473153Y-60954189D01*
X107525916Y-61081571D01*
X107602521Y-61196220D01*
X107700030Y-61293729D01*
X107712984Y-61302385D01*
X107750863Y-61350436D01*
X107753265Y-61411574D01*
X107719271Y-61462447D01*
X107712986Y-61467014D01*
X107699707Y-61475887D01*
X107699704Y-61475889D01*
X107602135Y-61573458D01*
X107525478Y-61688182D01*
X107525472Y-61688193D01*
X107472670Y-61815670D01*
X107472670Y-61815672D01*
X107445750Y-61951004D01*
X107445750Y-62088995D01*
X107472670Y-62224327D01*
X107472670Y-62224329D01*
X107525472Y-62351806D01*
X107525478Y-62351817D01*
X107602135Y-62466541D01*
X107602136Y-62466542D01*
X107699708Y-62564114D01*
X107712984Y-62572985D01*
X107750863Y-62621033D01*
X107753265Y-62682171D01*
X107719273Y-62733045D01*
X107712988Y-62737612D01*
X107700029Y-62746271D01*
X107602521Y-62843779D01*
X107525916Y-62958428D01*
X107473153Y-63085810D01*
X107473151Y-63085816D01*
X107472319Y-63090000D01*
X108746750Y-63090000D01*
X108804941Y-63108907D01*
X108840905Y-63158407D01*
X108842443Y-63168121D01*
X108821250Y-63247213D01*
X108821250Y-63332787D01*
X108840871Y-63406013D01*
X108826843Y-63449191D01*
X108777343Y-63485155D01*
X108746750Y-63490000D01*
X107472319Y-63490000D01*
X107473151Y-63494183D01*
X107473153Y-63494189D01*
X107525916Y-63621571D01*
X107602521Y-63736220D01*
X107700030Y-63833729D01*
X107712984Y-63842385D01*
X107750863Y-63890436D01*
X107753265Y-63951574D01*
X107719271Y-64002447D01*
X107712986Y-64007014D01*
X107699707Y-64015887D01*
X107699704Y-64015889D01*
X107602135Y-64113458D01*
X107525478Y-64228182D01*
X107525472Y-64228193D01*
X107472670Y-64355670D01*
X107472670Y-64355672D01*
X107445750Y-64491004D01*
X107445750Y-64628995D01*
X107472670Y-64764327D01*
X107472670Y-64764329D01*
X107525472Y-64891806D01*
X107525478Y-64891817D01*
X107601612Y-65005758D01*
X107602136Y-65006542D01*
X107699708Y-65104114D01*
X107712984Y-65112985D01*
X107750863Y-65161033D01*
X107753265Y-65222171D01*
X107719273Y-65273045D01*
X107712988Y-65277612D01*
X107700029Y-65286271D01*
X107602521Y-65383779D01*
X107525916Y-65498428D01*
X107473153Y-65625810D01*
X107473151Y-65625816D01*
X107472319Y-65630000D01*
X108746750Y-65630000D01*
X108804941Y-65648907D01*
X108840905Y-65698407D01*
X108842443Y-65708121D01*
X108821250Y-65787213D01*
X108821250Y-65872787D01*
X108840871Y-65946013D01*
X108826843Y-65989191D01*
X108777343Y-66025155D01*
X108746750Y-66030000D01*
X107472319Y-66030000D01*
X107473151Y-66034183D01*
X107473153Y-66034189D01*
X107525916Y-66161571D01*
X107602521Y-66276220D01*
X107700030Y-66373729D01*
X107712984Y-66382385D01*
X107750863Y-66430436D01*
X107753265Y-66491574D01*
X107719271Y-66542447D01*
X107712986Y-66547014D01*
X107699707Y-66555887D01*
X107699704Y-66555889D01*
X107602135Y-66653458D01*
X107525478Y-66768182D01*
X107525472Y-66768193D01*
X107472670Y-66895670D01*
X107472670Y-66895672D01*
X107445750Y-67031004D01*
X107445750Y-67168995D01*
X107472670Y-67304327D01*
X107472670Y-67304329D01*
X107525472Y-67431806D01*
X107525478Y-67431817D01*
X107602135Y-67546541D01*
X107602136Y-67546542D01*
X107699708Y-67644114D01*
X107712984Y-67652985D01*
X107750863Y-67701033D01*
X107753265Y-67762171D01*
X107719273Y-67813045D01*
X107712988Y-67817612D01*
X107700029Y-67826271D01*
X107602521Y-67923779D01*
X107525916Y-68038428D01*
X107473153Y-68165810D01*
X107473151Y-68165816D01*
X107472319Y-68170000D01*
X108746750Y-68170000D01*
X108804941Y-68188907D01*
X108840905Y-68238407D01*
X108842443Y-68248121D01*
X108821250Y-68327213D01*
X108821250Y-68412787D01*
X108840871Y-68486013D01*
X108826843Y-68529191D01*
X108777343Y-68565155D01*
X108746750Y-68570000D01*
X107472319Y-68570000D01*
X107473151Y-68574183D01*
X107473153Y-68574189D01*
X107525916Y-68701571D01*
X107602521Y-68816220D01*
X107700029Y-68913728D01*
X107814678Y-68990333D01*
X107942066Y-69043098D01*
X108077305Y-69069999D01*
X108077307Y-69070000D01*
X108746750Y-69070000D01*
X108804941Y-69088907D01*
X108840905Y-69138407D01*
X108845750Y-69169000D01*
X108845750Y-70350500D01*
X108826843Y-70408691D01*
X108777343Y-70444655D01*
X108746750Y-70449500D01*
X97755250Y-70449500D01*
X97697059Y-70430593D01*
X97661095Y-70381093D01*
X97656250Y-70350500D01*
X97656250Y-70181057D01*
X97656249Y-70181055D01*
X97629348Y-70045816D01*
X97576583Y-69918428D01*
X97499978Y-69803779D01*
X97402470Y-69706271D01*
X97287821Y-69629666D01*
X97160439Y-69576903D01*
X97160433Y-69576901D01*
X97156250Y-69576069D01*
X97156250Y-70350500D01*
X97137343Y-70408691D01*
X97087843Y-70444655D01*
X97078128Y-70446193D01*
X96999037Y-70425000D01*
X96913463Y-70425000D01*
X96840236Y-70444621D01*
X96797059Y-70430593D01*
X96761095Y-70381093D01*
X96756250Y-70350500D01*
X96756250Y-69576069D01*
X96752066Y-69576901D01*
X96752060Y-69576903D01*
X96624678Y-69629666D01*
X96510029Y-69706271D01*
X96412520Y-69803780D01*
X96403565Y-69817183D01*
X96355515Y-69855062D01*
X96294376Y-69857464D01*
X96243503Y-69823470D01*
X96238935Y-69817183D01*
X96229979Y-69803780D01*
X96132470Y-69706271D01*
X96017821Y-69629666D01*
X95890439Y-69576903D01*
X95890433Y-69576901D01*
X95886250Y-69576069D01*
X95886250Y-70350500D01*
X95867343Y-70408691D01*
X95817843Y-70444655D01*
X95808128Y-70446193D01*
X95729037Y-70425000D01*
X95643463Y-70425000D01*
X95570236Y-70444621D01*
X95527059Y-70430593D01*
X95491095Y-70381093D01*
X95486250Y-70350500D01*
X95486250Y-69576069D01*
X95482066Y-69576901D01*
X95482060Y-69576903D01*
X95354678Y-69629666D01*
X95240029Y-69706271D01*
X95142521Y-69803779D01*
X95133862Y-69816738D01*
X95085810Y-69854615D01*
X95024671Y-69857014D01*
X94973799Y-69823018D01*
X94969237Y-69816738D01*
X94960364Y-69803458D01*
X94862792Y-69705886D01*
X94862791Y-69705885D01*
X94748067Y-69629228D01*
X94748056Y-69629222D01*
X94620578Y-69576420D01*
X94485245Y-69549500D01*
X94485243Y-69549500D01*
X94347257Y-69549500D01*
X94347254Y-69549500D01*
X94211922Y-69576420D01*
X94211920Y-69576420D01*
X94084443Y-69629222D01*
X94084432Y-69629228D01*
X93969708Y-69705885D01*
X93872139Y-69803454D01*
X93872136Y-69803458D01*
X93863565Y-69816286D01*
X93815515Y-69854165D01*
X93754377Y-69856567D01*
X93703503Y-69822574D01*
X93698935Y-69816286D01*
X93690364Y-69803458D01*
X93592792Y-69705886D01*
X93592791Y-69705885D01*
X93478067Y-69629228D01*
X93478056Y-69629222D01*
X93350578Y-69576420D01*
X93215245Y-69549500D01*
X93215243Y-69549500D01*
X93077257Y-69549500D01*
X93077254Y-69549500D01*
X92941922Y-69576420D01*
X92941920Y-69576420D01*
X92814443Y-69629222D01*
X92814432Y-69629228D01*
X92699708Y-69705885D01*
X92602135Y-69803458D01*
X92525478Y-69918182D01*
X92525472Y-69918193D01*
X92472670Y-70045670D01*
X92472670Y-70045672D01*
X92445750Y-70181004D01*
X92445750Y-70350500D01*
X92426843Y-70408691D01*
X92377343Y-70444655D01*
X92346750Y-70449500D01*
X89545750Y-70449500D01*
X89487559Y-70430593D01*
X89451595Y-70381093D01*
X89446750Y-70350500D01*
X89446750Y-69163982D01*
X97460750Y-69163982D01*
X97460750Y-69276018D01*
X97486322Y-69371455D01*
X97489748Y-69384241D01*
X97545763Y-69481260D01*
X97545765Y-69481263D01*
X97624987Y-69560485D01*
X97624989Y-69560486D01*
X97722009Y-69616501D01*
X97722007Y-69616501D01*
X97722011Y-69616502D01*
X97722013Y-69616503D01*
X97830232Y-69645500D01*
X97830234Y-69645500D01*
X97942266Y-69645500D01*
X97942268Y-69645500D01*
X98050487Y-69616503D01*
X98050489Y-69616501D01*
X98050491Y-69616501D01*
X98079314Y-69599859D01*
X98147513Y-69560485D01*
X98226735Y-69481263D01*
X98282753Y-69384237D01*
X98311750Y-69276018D01*
X98311750Y-69163982D01*
X98282753Y-69055763D01*
X98282751Y-69055760D01*
X98282751Y-69055758D01*
X98226736Y-68958739D01*
X98226735Y-68958737D01*
X98147513Y-68879515D01*
X98147510Y-68879513D01*
X98050490Y-68823498D01*
X98050492Y-68823498D01*
X98004829Y-68811263D01*
X97942268Y-68794500D01*
X97830232Y-68794500D01*
X97767671Y-68811263D01*
X97722008Y-68823498D01*
X97624989Y-68879513D01*
X97545763Y-68958739D01*
X97489748Y-69055758D01*
X97485932Y-69070000D01*
X97460750Y-69163982D01*
X89446750Y-69163982D01*
X89446750Y-68493982D01*
X101480750Y-68493982D01*
X101480750Y-68606018D01*
X101506322Y-68701455D01*
X101509748Y-68714241D01*
X101565763Y-68811260D01*
X101565765Y-68811263D01*
X101644987Y-68890485D01*
X101644989Y-68890486D01*
X101742009Y-68946501D01*
X101742007Y-68946501D01*
X101742011Y-68946502D01*
X101742013Y-68946503D01*
X101850232Y-68975500D01*
X101850234Y-68975500D01*
X101962266Y-68975500D01*
X101962268Y-68975500D01*
X102070487Y-68946503D01*
X102070489Y-68946501D01*
X102070491Y-68946501D01*
X102099314Y-68929859D01*
X102167513Y-68890485D01*
X102246735Y-68811263D01*
X102302753Y-68714237D01*
X102331750Y-68606018D01*
X102331750Y-68493982D01*
X102302753Y-68385763D01*
X102302751Y-68385760D01*
X102302751Y-68385758D01*
X102246736Y-68288739D01*
X102246735Y-68288737D01*
X102167513Y-68209515D01*
X102167510Y-68209513D01*
X102070490Y-68153498D01*
X102070492Y-68153498D01*
X102028501Y-68142247D01*
X101962268Y-68124500D01*
X101850232Y-68124500D01*
X101783998Y-68142247D01*
X101742008Y-68153498D01*
X101644989Y-68209513D01*
X101565763Y-68288739D01*
X101509748Y-68385758D01*
X101509747Y-68385763D01*
X101480750Y-68493982D01*
X89446750Y-68493982D01*
X89446750Y-65113982D01*
X96660750Y-65113982D01*
X96660750Y-65226018D01*
X96676895Y-65286271D01*
X96689748Y-65334241D01*
X96745763Y-65431260D01*
X96745765Y-65431263D01*
X96824987Y-65510485D01*
X96824989Y-65510486D01*
X96922009Y-65566501D01*
X96922007Y-65566501D01*
X96922011Y-65566502D01*
X96922013Y-65566503D01*
X97030232Y-65595500D01*
X97030234Y-65595500D01*
X97142266Y-65595500D01*
X97142268Y-65595500D01*
X97250487Y-65566503D01*
X97250489Y-65566501D01*
X97250491Y-65566501D01*
X97279314Y-65549859D01*
X97347513Y-65510485D01*
X97426735Y-65431263D01*
X97482753Y-65334237D01*
X97493539Y-65293982D01*
X104710750Y-65293982D01*
X104710750Y-65406018D01*
X104735511Y-65498428D01*
X104739748Y-65514241D01*
X104786664Y-65595500D01*
X104795765Y-65611263D01*
X104874987Y-65690485D01*
X104874989Y-65690486D01*
X104972009Y-65746501D01*
X104972007Y-65746501D01*
X104972011Y-65746502D01*
X104972013Y-65746503D01*
X105080232Y-65775500D01*
X105080234Y-65775500D01*
X105192266Y-65775500D01*
X105192268Y-65775500D01*
X105300487Y-65746503D01*
X105300489Y-65746501D01*
X105300491Y-65746501D01*
X105330803Y-65729000D01*
X105397513Y-65690485D01*
X105476735Y-65611263D01*
X105532753Y-65514237D01*
X105561750Y-65406018D01*
X105561750Y-65293982D01*
X105532753Y-65185763D01*
X105532751Y-65185760D01*
X105532751Y-65185758D01*
X105476736Y-65088739D01*
X105476735Y-65088737D01*
X105397513Y-65009515D01*
X105392362Y-65006541D01*
X105300490Y-64953498D01*
X105300492Y-64953498D01*
X105258501Y-64942247D01*
X105192268Y-64924500D01*
X105080232Y-64924500D01*
X105013998Y-64942247D01*
X104972008Y-64953498D01*
X104874989Y-65009513D01*
X104795763Y-65088739D01*
X104739748Y-65185758D01*
X104723536Y-65246263D01*
X104710750Y-65293982D01*
X97493539Y-65293982D01*
X97511750Y-65226018D01*
X97511750Y-65113982D01*
X97482753Y-65005763D01*
X97482751Y-65005760D01*
X97482751Y-65005758D01*
X97426736Y-64908739D01*
X97426735Y-64908737D01*
X97347513Y-64829515D01*
X97347510Y-64829513D01*
X97250490Y-64773498D01*
X97250492Y-64773498D01*
X97208501Y-64762247D01*
X97142268Y-64744500D01*
X97030232Y-64744500D01*
X96963998Y-64762247D01*
X96922008Y-64773498D01*
X96824989Y-64829513D01*
X96745763Y-64908739D01*
X96689748Y-65005758D01*
X96673536Y-65066263D01*
X96660750Y-65113982D01*
X89446750Y-65113982D01*
X89446750Y-62853982D01*
X103280750Y-62853982D01*
X103280750Y-62966018D01*
X103286412Y-62987149D01*
X103309748Y-63074241D01*
X103361892Y-63164555D01*
X103365765Y-63171263D01*
X103444987Y-63250485D01*
X103444989Y-63250486D01*
X103542009Y-63306501D01*
X103542007Y-63306501D01*
X103542011Y-63306502D01*
X103542013Y-63306503D01*
X103650232Y-63335500D01*
X103650234Y-63335500D01*
X103762266Y-63335500D01*
X103762268Y-63335500D01*
X103870487Y-63306503D01*
X103870489Y-63306501D01*
X103870491Y-63306501D01*
X103899314Y-63289859D01*
X103967513Y-63250485D01*
X104046735Y-63171263D01*
X104096068Y-63085816D01*
X104102751Y-63074241D01*
X104102751Y-63074239D01*
X104102753Y-63074237D01*
X104131750Y-62966018D01*
X104131750Y-62853982D01*
X104102753Y-62745763D01*
X104102751Y-62745760D01*
X104102751Y-62745758D01*
X104046736Y-62648739D01*
X104046735Y-62648737D01*
X103967513Y-62569515D01*
X103967510Y-62569513D01*
X103870490Y-62513498D01*
X103870492Y-62513498D01*
X103828501Y-62502247D01*
X103762268Y-62484500D01*
X103650232Y-62484500D01*
X103583998Y-62502247D01*
X103542008Y-62513498D01*
X103444989Y-62569513D01*
X103365763Y-62648739D01*
X103309748Y-62745758D01*
X103309747Y-62745763D01*
X103280750Y-62853982D01*
X89446750Y-62853982D01*
X89446750Y-61603982D01*
X97630750Y-61603982D01*
X97630750Y-61716018D01*
X97656322Y-61811455D01*
X97659748Y-61824241D01*
X97715763Y-61921260D01*
X97715765Y-61921263D01*
X97794987Y-62000485D01*
X97794989Y-62000486D01*
X97892009Y-62056501D01*
X97892007Y-62056501D01*
X97892011Y-62056502D01*
X97892013Y-62056503D01*
X98000232Y-62085500D01*
X98000234Y-62085500D01*
X98112266Y-62085500D01*
X98112268Y-62085500D01*
X98220487Y-62056503D01*
X98220489Y-62056501D01*
X98220491Y-62056501D01*
X98249314Y-62039859D01*
X98317513Y-62000485D01*
X98396735Y-61921263D01*
X98452753Y-61824237D01*
X98481750Y-61716018D01*
X98481750Y-61603982D01*
X98452753Y-61495763D01*
X98452751Y-61495760D01*
X98452751Y-61495758D01*
X98396736Y-61398739D01*
X98396735Y-61398737D01*
X98317513Y-61319515D01*
X98317487Y-61319500D01*
X98220490Y-61263498D01*
X98220492Y-61263498D01*
X98178501Y-61252247D01*
X98112268Y-61234500D01*
X98000232Y-61234500D01*
X97933998Y-61252247D01*
X97892008Y-61263498D01*
X97794989Y-61319513D01*
X97715763Y-61398739D01*
X97659748Y-61495758D01*
X97659747Y-61495763D01*
X97630750Y-61603982D01*
X89446750Y-61603982D01*
X89446750Y-60693982D01*
X95470750Y-60693982D01*
X95470750Y-60806018D01*
X95482803Y-60851000D01*
X95499748Y-60914241D01*
X95555763Y-61011260D01*
X95555765Y-61011263D01*
X95634987Y-61090485D01*
X95634989Y-61090486D01*
X95732009Y-61146501D01*
X95732007Y-61146501D01*
X95732011Y-61146502D01*
X95732013Y-61146503D01*
X95840232Y-61175500D01*
X95840234Y-61175500D01*
X95952266Y-61175500D01*
X95952268Y-61175500D01*
X96060487Y-61146503D01*
X96060489Y-61146501D01*
X96060491Y-61146501D01*
X96089314Y-61129859D01*
X96157513Y-61090485D01*
X96236735Y-61011263D01*
X96292753Y-60914237D01*
X96321750Y-60806018D01*
X96321750Y-60693982D01*
X96292753Y-60585763D01*
X96292751Y-60585760D01*
X96292751Y-60585758D01*
X96236736Y-60488739D01*
X96236735Y-60488737D01*
X96157513Y-60409515D01*
X96157510Y-60409513D01*
X96060490Y-60353498D01*
X96060492Y-60353498D01*
X96018501Y-60342247D01*
X95952268Y-60324500D01*
X95840232Y-60324500D01*
X95773998Y-60342247D01*
X95732008Y-60353498D01*
X95634989Y-60409513D01*
X95555763Y-60488739D01*
X95499748Y-60585758D01*
X95499747Y-60585763D01*
X95470750Y-60693982D01*
X89446750Y-60693982D01*
X89446750Y-58503982D01*
X101190750Y-58503982D01*
X101190750Y-58616018D01*
X101201522Y-58656220D01*
X101219748Y-58724241D01*
X101267195Y-58806420D01*
X101275765Y-58821263D01*
X101354987Y-58900485D01*
X101354989Y-58900486D01*
X101452009Y-58956501D01*
X101452007Y-58956501D01*
X101452011Y-58956502D01*
X101452013Y-58956503D01*
X101560232Y-58985500D01*
X101560234Y-58985500D01*
X101672266Y-58985500D01*
X101672268Y-58985500D01*
X101780487Y-58956503D01*
X101780489Y-58956501D01*
X101780491Y-58956501D01*
X101831563Y-58927014D01*
X101877513Y-58900485D01*
X101956735Y-58821263D01*
X102012753Y-58724237D01*
X102041750Y-58616018D01*
X102041750Y-58503982D01*
X102012753Y-58395763D01*
X102012751Y-58395760D01*
X102012751Y-58395758D01*
X101956736Y-58298739D01*
X101956735Y-58298737D01*
X101877513Y-58219515D01*
X101877510Y-58219513D01*
X101780490Y-58163498D01*
X101780492Y-58163498D01*
X101738501Y-58152247D01*
X101672268Y-58134500D01*
X101560232Y-58134500D01*
X101493998Y-58152247D01*
X101452008Y-58163498D01*
X101354989Y-58219513D01*
X101275763Y-58298739D01*
X101219748Y-58395758D01*
X101215932Y-58410000D01*
X101190750Y-58503982D01*
X89446750Y-58503982D01*
X89446750Y-55113982D01*
X96660750Y-55113982D01*
X96660750Y-55226018D01*
X96686322Y-55321455D01*
X96689748Y-55334241D01*
X96745763Y-55431260D01*
X96745765Y-55431263D01*
X96824987Y-55510485D01*
X96824989Y-55510486D01*
X96922009Y-55566501D01*
X96922007Y-55566501D01*
X96922011Y-55566502D01*
X96922013Y-55566503D01*
X97030232Y-55595500D01*
X97030234Y-55595500D01*
X97142266Y-55595500D01*
X97142268Y-55595500D01*
X97250487Y-55566503D01*
X97250489Y-55566501D01*
X97250491Y-55566501D01*
X97288502Y-55544555D01*
X97347513Y-55510485D01*
X97426735Y-55431263D01*
X97476539Y-55345000D01*
X97482751Y-55334241D01*
X97482751Y-55334239D01*
X97482753Y-55334237D01*
X97511750Y-55226018D01*
X97511750Y-55113982D01*
X97482753Y-55005763D01*
X97482751Y-55005760D01*
X97482751Y-55005758D01*
X97426736Y-54908739D01*
X97426735Y-54908737D01*
X97347513Y-54829515D01*
X97347510Y-54829513D01*
X97250490Y-54773498D01*
X97250492Y-54773498D01*
X97208501Y-54762247D01*
X97142268Y-54744500D01*
X97030232Y-54744500D01*
X96963998Y-54762247D01*
X96922008Y-54773498D01*
X96824989Y-54829513D01*
X96745763Y-54908739D01*
X96689748Y-55005758D01*
X96674633Y-55062171D01*
X96660750Y-55113982D01*
X89446750Y-55113982D01*
X89446750Y-51149500D01*
X89465657Y-51091309D01*
X89515157Y-51055345D01*
X89545750Y-51050500D01*
X92347250Y-51050500D01*
X92405441Y-51069407D01*
G37*
%TD.AperFunction*%
%TD*%
M02*
