%TF.GenerationSoftware,KiCad,Pcbnew,9.0.0*%
%TF.CreationDate,2025-02-25T16:03:33+01:00*%
%TF.ProjectId,2_In_6_Out,325f496e-5f36-45f4-9f75-742e6b696361,0*%
%TF.SameCoordinates,Original*%
%TF.FileFunction,Soldermask,Top*%
%TF.FilePolarity,Negative*%
%FSLAX46Y46*%
G04 Gerber Fmt 4.6, Leading zero omitted, Abs format (unit mm)*
G04 Created by KiCad (PCBNEW 9.0.0) date 2025-02-25 16:03:33*
%MOMM*%
%LPD*%
G01*
G04 APERTURE LIST*
G04 Aperture macros list*
%AMRoundRect*
0 Rectangle with rounded corners*
0 $1 Rounding radius*
0 $2 $3 $4 $5 $6 $7 $8 $9 X,Y pos of 4 corners*
0 Add a 4 corners polygon primitive as box body*
4,1,4,$2,$3,$4,$5,$6,$7,$8,$9,$2,$3,0*
0 Add four circle primitives for the rounded corners*
1,1,$1+$1,$2,$3*
1,1,$1+$1,$4,$5*
1,1,$1+$1,$6,$7*
1,1,$1+$1,$8,$9*
0 Add four rect primitives between the rounded corners*
20,1,$1+$1,$2,$3,$4,$5,0*
20,1,$1+$1,$4,$5,$6,$7,0*
20,1,$1+$1,$6,$7,$8,$9,0*
20,1,$1+$1,$8,$9,$2,$3,0*%
%AMOutline5P*
0 Free polygon, 5 corners , with rotation*
0 The origin of the aperture is its center*
0 number of corners: always 5*
0 $1 to $10 corner X, Y*
0 $11 Rotation angle, in degrees counterclockwise*
0 create outline with 5 corners*
4,1,5,$1,$2,$3,$4,$5,$6,$7,$8,$9,$10,$1,$2,$11*%
%AMOutline6P*
0 Free polygon, 6 corners , with rotation*
0 The origin of the aperture is its center*
0 number of corners: always 6*
0 $1 to $12 corner X, Y*
0 $13 Rotation angle, in degrees counterclockwise*
0 create outline with 6 corners*
4,1,6,$1,$2,$3,$4,$5,$6,$7,$8,$9,$10,$11,$12,$1,$2,$13*%
%AMOutline7P*
0 Free polygon, 7 corners , with rotation*
0 The origin of the aperture is its center*
0 number of corners: always 7*
0 $1 to $14 corner X, Y*
0 $15 Rotation angle, in degrees counterclockwise*
0 create outline with 7 corners*
4,1,7,$1,$2,$3,$4,$5,$6,$7,$8,$9,$10,$11,$12,$13,$14,$1,$2,$15*%
%AMOutline8P*
0 Free polygon, 8 corners , with rotation*
0 The origin of the aperture is its center*
0 number of corners: always 8*
0 $1 to $16 corner X, Y*
0 $17 Rotation angle, in degrees counterclockwise*
0 create outline with 8 corners*
4,1,8,$1,$2,$3,$4,$5,$6,$7,$8,$9,$10,$11,$12,$13,$14,$15,$16,$1,$2,$17*%
G04 Aperture macros list end*
%ADD10RoundRect,0.135000X-0.185000X0.135000X-0.185000X-0.135000X0.185000X-0.135000X0.185000X0.135000X0*%
%ADD11O,3.000000X1.000000*%
%ADD12O,1.000000X2.000000*%
%ADD13RoundRect,0.135000X-0.135000X-0.185000X0.135000X-0.185000X0.135000X0.185000X-0.135000X0.185000X0*%
%ADD14RoundRect,0.218750X0.218750X0.256250X-0.218750X0.256250X-0.218750X-0.256250X0.218750X-0.256250X0*%
%ADD15RoundRect,0.100000X0.130000X0.100000X-0.130000X0.100000X-0.130000X-0.100000X0.130000X-0.100000X0*%
%ADD16C,1.804000*%
%ADD17RoundRect,0.102000X-0.800000X0.800000X-0.800000X-0.800000X0.800000X-0.800000X0.800000X0.800000X0*%
%ADD18RoundRect,0.100000X-0.162635X0.021213X0.021213X-0.162635X0.162635X-0.021213X-0.021213X0.162635X0*%
%ADD19RoundRect,0.218750X-0.218750X-0.256250X0.218750X-0.256250X0.218750X0.256250X-0.218750X0.256250X0*%
%ADD20RoundRect,0.140000X0.170000X-0.140000X0.170000X0.140000X-0.170000X0.140000X-0.170000X-0.140000X0*%
%ADD21RoundRect,0.100000X-0.021213X-0.162635X0.162635X0.021213X0.021213X0.162635X-0.162635X-0.021213X0*%
%ADD22RoundRect,0.135000X0.185000X-0.135000X0.185000X0.135000X-0.185000X0.135000X-0.185000X-0.135000X0*%
%ADD23RoundRect,0.100000X-0.100000X0.130000X-0.100000X-0.130000X0.100000X-0.130000X0.100000X0.130000X0*%
%ADD24R,0.750000X0.200000*%
%ADD25Outline5P,-0.750000X0.475000X0.750000X0.475000X0.750000X-0.475000X-0.560000X-0.475000X-0.750000X-0.285000X270.000000*%
%ADD26RoundRect,0.100000X0.100000X-0.130000X0.100000X0.130000X-0.100000X0.130000X-0.100000X-0.130000X0*%
%ADD27RoundRect,0.200000X-0.200000X-0.275000X0.200000X-0.275000X0.200000X0.275000X-0.200000X0.275000X0*%
G04 APERTURE END LIST*
D10*
%TO.C,R4*%
X99896250Y-57540000D03*
X99896250Y-58560000D03*
%TD*%
%TO.C,R8*%
X100896250Y-57540000D03*
X100896250Y-58560000D03*
%TD*%
D11*
%TO.C,J3*%
X109146250Y-53130000D03*
X109146250Y-54400000D03*
X109146250Y-55670000D03*
X109146250Y-56940000D03*
X109146250Y-58210000D03*
X109146250Y-59480000D03*
X109146250Y-60750000D03*
X109146250Y-62020000D03*
X109146250Y-63290000D03*
X109146250Y-64560000D03*
X109146250Y-65830000D03*
X109146250Y-67100000D03*
X109146250Y-68370000D03*
%TD*%
D12*
%TO.C,J4*%
X96956250Y-50750000D03*
X95686250Y-50750000D03*
X94416250Y-50750000D03*
X93146250Y-50750000D03*
%TD*%
D13*
%TO.C,R6*%
X102696250Y-55350000D03*
X103716250Y-55350000D03*
%TD*%
D14*
%TO.C,D2*%
X100663750Y-59840000D03*
X99088750Y-59840000D03*
%TD*%
D15*
%TO.C,D7*%
X103716250Y-57230000D03*
X103076250Y-57230000D03*
%TD*%
D16*
%TO.C,J2*%
X93146250Y-65750000D03*
D17*
X95686250Y-63210000D03*
X90606250Y-63210000D03*
X95686250Y-68290000D03*
X90606250Y-68290000D03*
%TD*%
D18*
%TO.C,D13*%
X103409976Y-67423726D03*
X103862524Y-67876274D03*
%TD*%
D10*
%TO.C,R9*%
X98896250Y-57540000D03*
X98896250Y-58560000D03*
%TD*%
D19*
%TO.C,D1*%
X90268750Y-60750000D03*
X91843750Y-60750000D03*
%TD*%
D15*
%TO.C,D10*%
X103716250Y-63460000D03*
X103076250Y-63460000D03*
%TD*%
D20*
%TO.C,C11*%
X97786250Y-65170000D03*
X97786250Y-64210000D03*
%TD*%
D10*
%TO.C,R3*%
X98896250Y-67540000D03*
X98896250Y-68560000D03*
%TD*%
D21*
%TO.C,D11*%
X103199976Y-53286274D03*
X103652524Y-52833726D03*
%TD*%
D13*
%TO.C,R5*%
X102696250Y-54350000D03*
X103716250Y-54350000D03*
%TD*%
D22*
%TO.C,R12*%
X97896250Y-68560000D03*
X97896250Y-67540000D03*
%TD*%
%TO.C,R11*%
X97896250Y-58560000D03*
X97896250Y-57540000D03*
%TD*%
D16*
%TO.C,J1*%
X93146250Y-55750000D03*
D17*
X95686250Y-53210000D03*
X90606250Y-53210000D03*
X95686250Y-58290000D03*
X90606250Y-58290000D03*
%TD*%
D10*
%TO.C,R1*%
X99896250Y-67540000D03*
X99896250Y-68560000D03*
%TD*%
D20*
%TO.C,C1*%
X97786250Y-55170000D03*
X97786250Y-54210000D03*
%TD*%
D13*
%TO.C,R14*%
X102696250Y-64350000D03*
X103716250Y-64350000D03*
%TD*%
D23*
%TO.C,D5*%
X96626250Y-55750000D03*
X96626250Y-56390000D03*
%TD*%
D24*
%TO.C,U2*%
X98896250Y-54950000D03*
D25*
X99896250Y-55750000D03*
D24*
X98896250Y-55350000D03*
X98896250Y-55750000D03*
X98896250Y-56150000D03*
X98896250Y-56550000D03*
X100896250Y-56550000D03*
X100896250Y-56150000D03*
X100896250Y-55750000D03*
X100896250Y-55350000D03*
X100896250Y-54950000D03*
%TD*%
D13*
%TO.C,R16*%
X102696250Y-66350000D03*
X103716250Y-66350000D03*
%TD*%
D26*
%TO.C,D9*%
X104546250Y-55350000D03*
X104546250Y-54710000D03*
%TD*%
D23*
%TO.C,D6*%
X96626250Y-65750000D03*
X96626250Y-66390000D03*
%TD*%
D12*
%TO.C,J5*%
X96956250Y-70750000D03*
X95686250Y-70750000D03*
X94416250Y-70750000D03*
X93146250Y-70750000D03*
%TD*%
D10*
%TO.C,R2*%
X100896250Y-67540000D03*
X100896250Y-68560000D03*
%TD*%
D13*
%TO.C,R7*%
X102696250Y-56350000D03*
X103716250Y-56350000D03*
%TD*%
D23*
%TO.C,D8*%
X104546250Y-65350000D03*
X104546250Y-65990000D03*
%TD*%
D27*
%TO.C,R10*%
X93361250Y-60750000D03*
X95011250Y-60750000D03*
%TD*%
D24*
%TO.C,U4*%
X98896250Y-64950000D03*
D25*
X99896250Y-65750000D03*
D24*
X98896250Y-65350000D03*
X98896250Y-65750000D03*
X98896250Y-66150000D03*
X98896250Y-66550000D03*
X100896250Y-66550000D03*
X100896250Y-66150000D03*
X100896250Y-65750000D03*
X100896250Y-65350000D03*
X100896250Y-64950000D03*
%TD*%
D13*
%TO.C,R15*%
X102696250Y-65350000D03*
X103716250Y-65350000D03*
%TD*%
D14*
%TO.C,D3*%
X100683750Y-61660000D03*
X99108750Y-61660000D03*
%TD*%
M02*
