M48
; DRILL file {KiCad 9.0.0} date 2025-02-25T16:02:52+0100
; FORMAT={-:-/ absolute / metric / decimal}
; #@! TF.CreationDate,2025-02-25T16:02:52+01:00
; #@! TF.GenerationSoftware,Kicad,Pcbnew,9.0.0
; #@! TF.FileFunction,Plated,1,4,PTH
FMAT,2
METRIC
; #@! TA.AperFunction,Plated,PTH,ViaDrill
T1C0.250
; #@! TA.AperFunction,Plated,PTH,ComponentDrill
T2C0.650
%
G90
G05
T1
X89.746Y-64.72
X89.766Y-65.79
X89.866Y-66.99
X90.296Y-59.85
X90.346Y-51.64
X90.426Y-55.11
X90.476Y-56.34
X90.596Y-66.25
X90.696Y-65.05
X91.416Y-65.84
X91.433Y-56.048
X91.446Y-54.53
X91.496Y-57.05
X91.556Y-51.62
X91.626Y-66.77
X91.896Y-64.75
X91.906Y-58.31
X92.096Y-53.95
X92.196Y-67.95
X92.556Y-53.31
X92.556Y-63.4
X92.756Y-57.16
X92.896Y-64.25
X93.276Y-67.37
X93.346Y-54.23
X93.826Y-57.98
X93.906Y-53.34
X93.996Y-63.83
X94.156Y-68.17
X94.356Y-57.02
X94.396Y-67.05
X94.496Y-64.75
X94.506Y-54.92
X95.336Y-56.51
X95.336Y-64.89
X95.366Y-54.77
X95.436Y-66.64
X95.896Y-60.75
X96.523Y-60.499
X97.086Y-55.17
X97.086Y-65.17
X97.096Y-54.51
X97.101Y-64.515
X97.236Y-56.44
X97.266Y-63.42
X97.431Y-61.856
X97.656Y-60.48
X97.786Y-53.63
X97.886Y-69.22
X97.996Y-52.73
X98.056Y-61.66
X98.156Y-69.784
X98.626Y-51.71
X98.956Y-54.16
X98.986Y-63.35
X99.206Y-64.26
X99.444Y-52.281
X99.476Y-53.25
X99.476Y-69.33
X99.626Y-54.13
X99.626Y-56.76
X99.656Y-66.73
X99.716Y-64.28
X100.116Y-51.63
X100.216Y-63.24
X100.286Y-69.86
X100.296Y-64.29
X100.326Y-54.14
X100.376Y-53.48
X100.386Y-52.54
X100.876Y-64.26
X101.026Y-52.04
X101.076Y-54.14
X101.096Y-53.11
X101.106Y-62.91
X101.346Y-69.63
X101.616Y-58.56
X101.722Y-57.995
X101.746Y-63.5
X101.816Y-60.81
X101.906Y-52.27
X101.906Y-68.55
X101.976Y-62.66
X102.026Y-53.23
X102.106Y-67.9
X102.366Y-69.17
X102.466Y-57.33
X102.606Y-60.8
X102.646Y-58.18
X102.656Y-51.65
X103.111Y-62.838
X103.706Y-62.91
X103.996Y-53.15
X104.226Y-67.57
X104.526Y-58.89
X104.676Y-56.58
X104.816Y-69.87
X104.956Y-60.75
X105.126Y-54.7
X105.136Y-65.35
X105.208Y-65.946
X105.846Y-66.08
X105.876Y-53.69
X106.436Y-60.86
X106.496Y-55.3
X106.526Y-66.06
X106.536Y-58.53
X106.616Y-62.85
X106.696Y-51.52
X107.686Y-69.56
T2
X93.146Y-50.75
X93.146Y-70.75
X94.416Y-50.75
X94.416Y-70.75
X95.686Y-50.75
X95.686Y-70.75
X96.956Y-50.75
X96.956Y-70.75
X109.146Y-53.13
X109.146Y-54.4
X109.146Y-55.67
X109.146Y-56.94
X109.146Y-58.21
X109.146Y-59.48
X109.146Y-60.75
X109.146Y-62.02
X109.146Y-63.29
X109.146Y-64.56
X109.146Y-65.83
X109.146Y-67.1
X109.146Y-68.37
M30
