%TF.GenerationSoftware,KiCad,Pcbnew,9.0.0*%
%TF.CreationDate,2025-02-25T16:03:33+01:00*%
%TF.ProjectId,2_In_6_Out,325f496e-5f36-45f4-9f75-742e6b696361,0*%
%TF.SameCoordinates,Original*%
%TF.FileFunction,Paste,Top*%
%TF.FilePolarity,Positive*%
%FSLAX46Y46*%
G04 Gerber Fmt 4.6, Leading zero omitted, Abs format (unit mm)*
G04 Created by KiCad (PCBNEW 9.0.0) date 2025-02-25 16:03:33*
%MOMM*%
%LPD*%
G01*
G04 APERTURE LIST*
G04 Aperture macros list*
%AMRoundRect*
0 Rectangle with rounded corners*
0 $1 Rounding radius*
0 $2 $3 $4 $5 $6 $7 $8 $9 X,Y pos of 4 corners*
0 Add a 4 corners polygon primitive as box body*
4,1,4,$2,$3,$4,$5,$6,$7,$8,$9,$2,$3,0*
0 Add four circle primitives for the rounded corners*
1,1,$1+$1,$2,$3*
1,1,$1+$1,$4,$5*
1,1,$1+$1,$6,$7*
1,1,$1+$1,$8,$9*
0 Add four rect primitives between the rounded corners*
20,1,$1+$1,$2,$3,$4,$5,0*
20,1,$1+$1,$4,$5,$6,$7,0*
20,1,$1+$1,$6,$7,$8,$9,0*
20,1,$1+$1,$8,$9,$2,$3,0*%
%AMOutline5P*
0 Free polygon, 5 corners , with rotation*
0 The origin of the aperture is its center*
0 number of corners: always 5*
0 $1 to $10 corner X, Y*
0 $11 Rotation angle, in degrees counterclockwise*
0 create outline with 5 corners*
4,1,5,$1,$2,$3,$4,$5,$6,$7,$8,$9,$10,$1,$2,$11*%
%AMOutline6P*
0 Free polygon, 6 corners , with rotation*
0 The origin of the aperture is its center*
0 number of corners: always 6*
0 $1 to $12 corner X, Y*
0 $13 Rotation angle, in degrees counterclockwise*
0 create outline with 6 corners*
4,1,6,$1,$2,$3,$4,$5,$6,$7,$8,$9,$10,$11,$12,$1,$2,$13*%
%AMOutline7P*
0 Free polygon, 7 corners , with rotation*
0 The origin of the aperture is its center*
0 number of corners: always 7*
0 $1 to $14 corner X, Y*
0 $15 Rotation angle, in degrees counterclockwise*
0 create outline with 7 corners*
4,1,7,$1,$2,$3,$4,$5,$6,$7,$8,$9,$10,$11,$12,$13,$14,$1,$2,$15*%
%AMOutline8P*
0 Free polygon, 8 corners , with rotation*
0 The origin of the aperture is its center*
0 number of corners: always 8*
0 $1 to $16 corner X, Y*
0 $17 Rotation angle, in degrees counterclockwise*
0 create outline with 8 corners*
4,1,8,$1,$2,$3,$4,$5,$6,$7,$8,$9,$10,$11,$12,$13,$14,$15,$16,$1,$2,$17*%
G04 Aperture macros list end*
%ADD10RoundRect,0.135000X-0.185000X0.135000X-0.185000X-0.135000X0.185000X-0.135000X0.185000X0.135000X0*%
%ADD11RoundRect,0.135000X-0.135000X-0.185000X0.135000X-0.185000X0.135000X0.185000X-0.135000X0.185000X0*%
%ADD12RoundRect,0.218750X0.218750X0.256250X-0.218750X0.256250X-0.218750X-0.256250X0.218750X-0.256250X0*%
%ADD13RoundRect,0.079500X0.079500X0.100500X-0.079500X0.100500X-0.079500X-0.100500X0.079500X-0.100500X0*%
%ADD14C,1.600000*%
%ADD15R,1.600000X1.600000*%
%ADD16RoundRect,0.079500X-0.127279X-0.014849X-0.014849X-0.127279X0.127279X0.014849X0.014849X0.127279X0*%
%ADD17RoundRect,0.218750X-0.218750X-0.256250X0.218750X-0.256250X0.218750X0.256250X-0.218750X0.256250X0*%
%ADD18RoundRect,0.140000X0.170000X-0.140000X0.170000X0.140000X-0.170000X0.140000X-0.170000X-0.140000X0*%
%ADD19RoundRect,0.079500X0.014849X-0.127279X0.127279X-0.014849X-0.014849X0.127279X-0.127279X0.014849X0*%
%ADD20RoundRect,0.135000X0.185000X-0.135000X0.185000X0.135000X-0.185000X0.135000X-0.185000X-0.135000X0*%
%ADD21RoundRect,0.079500X-0.100500X0.079500X-0.100500X-0.079500X0.100500X-0.079500X0.100500X0.079500X0*%
%ADD22R,0.750000X0.200000*%
%ADD23Outline5P,-0.750000X0.475000X0.750000X0.475000X0.750000X-0.475000X-0.560000X-0.475000X-0.750000X-0.285000X270.000000*%
%ADD24RoundRect,0.079500X0.100500X-0.079500X0.100500X0.079500X-0.100500X0.079500X-0.100500X-0.079500X0*%
%ADD25RoundRect,0.200000X-0.200000X-0.275000X0.200000X-0.275000X0.200000X0.275000X-0.200000X0.275000X0*%
G04 APERTURE END LIST*
D10*
%TO.C,R4*%
X99896250Y-57540000D03*
X99896250Y-58560000D03*
%TD*%
%TO.C,R8*%
X100896250Y-57540000D03*
X100896250Y-58560000D03*
%TD*%
D11*
%TO.C,R6*%
X102696250Y-55350000D03*
X103716250Y-55350000D03*
%TD*%
D12*
%TO.C,D2*%
X100663750Y-59840000D03*
X99088750Y-59840000D03*
%TD*%
D13*
%TO.C,D7*%
X103741250Y-57230000D03*
X103051250Y-57230000D03*
%TD*%
D14*
%TO.C,J2*%
X93146250Y-65750000D03*
D15*
X95686250Y-63210000D03*
X90606250Y-63210000D03*
X95686250Y-68290000D03*
X90606250Y-68290000D03*
%TD*%
D16*
%TO.C,D13*%
X103392298Y-67406048D03*
X103880202Y-67893952D03*
%TD*%
D10*
%TO.C,R9*%
X98896250Y-57540000D03*
X98896250Y-58560000D03*
%TD*%
D17*
%TO.C,D1*%
X90268750Y-60750000D03*
X91843750Y-60750000D03*
%TD*%
D13*
%TO.C,D10*%
X103741250Y-63460000D03*
X103051250Y-63460000D03*
%TD*%
D18*
%TO.C,C11*%
X97786250Y-65170000D03*
X97786250Y-64210000D03*
%TD*%
D10*
%TO.C,R3*%
X98896250Y-67540000D03*
X98896250Y-68560000D03*
%TD*%
D19*
%TO.C,D11*%
X103182298Y-53303952D03*
X103670202Y-52816048D03*
%TD*%
D11*
%TO.C,R5*%
X102696250Y-54350000D03*
X103716250Y-54350000D03*
%TD*%
D20*
%TO.C,R12*%
X97896250Y-68560000D03*
X97896250Y-67540000D03*
%TD*%
%TO.C,R11*%
X97896250Y-58560000D03*
X97896250Y-57540000D03*
%TD*%
D14*
%TO.C,J1*%
X93146250Y-55750000D03*
D15*
X95686250Y-53210000D03*
X90606250Y-53210000D03*
X95686250Y-58290000D03*
X90606250Y-58290000D03*
%TD*%
D10*
%TO.C,R1*%
X99896250Y-67540000D03*
X99896250Y-68560000D03*
%TD*%
D18*
%TO.C,C1*%
X97786250Y-55170000D03*
X97786250Y-54210000D03*
%TD*%
D11*
%TO.C,R14*%
X102696250Y-64350000D03*
X103716250Y-64350000D03*
%TD*%
D21*
%TO.C,D5*%
X96626250Y-55725000D03*
X96626250Y-56415000D03*
%TD*%
D22*
%TO.C,U2*%
X98896250Y-54950000D03*
D23*
X99896250Y-55750000D03*
D22*
X98896250Y-55350000D03*
X98896250Y-55750000D03*
X98896250Y-56150000D03*
X98896250Y-56550000D03*
X100896250Y-56550000D03*
X100896250Y-56150000D03*
X100896250Y-55750000D03*
X100896250Y-55350000D03*
X100896250Y-54950000D03*
%TD*%
D11*
%TO.C,R16*%
X102696250Y-66350000D03*
X103716250Y-66350000D03*
%TD*%
D24*
%TO.C,D9*%
X104546250Y-55375000D03*
X104546250Y-54685000D03*
%TD*%
D21*
%TO.C,D6*%
X96626250Y-65725000D03*
X96626250Y-66415000D03*
%TD*%
D10*
%TO.C,R2*%
X100896250Y-67540000D03*
X100896250Y-68560000D03*
%TD*%
D11*
%TO.C,R7*%
X102696250Y-56350000D03*
X103716250Y-56350000D03*
%TD*%
D21*
%TO.C,D8*%
X104546250Y-65325000D03*
X104546250Y-66015000D03*
%TD*%
D25*
%TO.C,R10*%
X93361250Y-60750000D03*
X95011250Y-60750000D03*
%TD*%
D22*
%TO.C,U4*%
X98896250Y-64950000D03*
D23*
X99896250Y-65750000D03*
D22*
X98896250Y-65350000D03*
X98896250Y-65750000D03*
X98896250Y-66150000D03*
X98896250Y-66550000D03*
X100896250Y-66550000D03*
X100896250Y-66150000D03*
X100896250Y-65750000D03*
X100896250Y-65350000D03*
X100896250Y-64950000D03*
%TD*%
D11*
%TO.C,R15*%
X102696250Y-65350000D03*
X103716250Y-65350000D03*
%TD*%
D12*
%TO.C,D3*%
X100683750Y-61660000D03*
X99108750Y-61660000D03*
%TD*%
M02*
