M48
; DRILL file {KiCad 8.0.2} date 2024-07-11T13:13:56+0200
; FORMAT={-:-/ absolute / inch / decimal}
; #@! TF.CreationDate,2024-07-11T13:13:56+02:00
; #@! TF.GenerationSoftware,Kicad,Pcbnew,8.0.2
; #@! TF.FileFunction,Plated,1,6,PTH
FMAT,2
INCH
; #@! TA.AperFunction,Plated,PTH,ViaDrill
T1C0.0079
; #@! TA.AperFunction,Plated,PTH,ViaDrill
T2C0.0118
; #@! TA.AperFunction,Plated,PTH,ComponentDrill
T3C0.0197
; #@! TA.AperFunction,Plated,PTH,ComponentDrill
T4C0.0394
; #@! TA.AperFunction,Plated,PTH,ComponentDrill
T5C0.0512
; #@! TA.AperFunction,Plated,PTH,ComponentDrill
T6C0.0866
%
G90
G05
T1
X2.5955Y-1.7311
X2.7815Y-2.1681
X2.8009Y-2.1174
X2.8036Y-2.2176
X2.8165Y-2.1653
X2.8213Y-2.183
X2.8343Y-2.196
X2.8504Y-2.0953
X2.852Y-2.1299
X2.852Y-2.2008
X2.8524Y-1.7311
X2.8524Y-2.1642
X2.8543Y-2.237
X2.8697Y-2.1346
X2.8697Y-2.196
X2.8827Y-2.1476
X2.8827Y-2.183
X2.8874Y-2.1653
X2.9011Y-2.1146
X2.9039Y-2.2149
X2.9118Y-2.6441
X2.9232Y-2.1642
X2.926Y-2.6602
X2.9272Y-2.628
X2.9366Y-2.1229
X2.9409Y-2.674
X2.9417Y-2.6146
X2.9417Y-2.6453
X2.9539Y-2.689
X2.9551Y-2.6323
X2.9563Y-2.6594
X2.9701Y-2.6461
X2.9701Y-2.6736
X2.9709Y-2.7047
X2.985Y-2.6594
X2.9866Y-2.6894
X3.0024Y-2.6736
X3.3839Y-2.1961
X3.3839Y-2.2354
X3.3839Y-2.2748
X3.3839Y-2.3142
X3.3839Y-2.3535
X3.3839Y-2.3929
X3.3839Y-2.4323
X3.3839Y-2.4717
X3.3839Y-2.511
X3.3839Y-2.5504
X3.4045Y-2.1961
X3.4045Y-2.2354
X3.4045Y-2.2748
X3.4045Y-2.3142
X3.4045Y-2.3535
X3.4045Y-2.3929
X3.4045Y-2.4323
X3.4045Y-2.4717
X3.4045Y-2.511
X3.4045Y-2.5504
X3.4251Y-2.1961
X3.4251Y-2.2354
X3.4251Y-2.2748
X3.4251Y-2.3142
X3.4251Y-2.3535
X3.4251Y-2.3929
X3.4251Y-2.4323
X3.4251Y-2.4717
X3.4251Y-2.511
X3.4251Y-2.5504
X3.4457Y-2.1961
X3.4457Y-2.2354
X3.4457Y-2.2748
X3.4457Y-2.3142
X3.4457Y-2.3535
X3.4457Y-2.3929
X3.4457Y-2.4323
X3.4457Y-2.4717
X3.4457Y-2.511
X3.4457Y-2.5504
X3.6569Y-1.8728
X3.6959Y-3.0094
X3.7723Y-3.0606
X3.7723Y-3.1
X3.7723Y-3.1394
X3.7723Y-3.1787
X3.7723Y-3.2181
X3.7723Y-3.2575
X3.7723Y-3.2969
X3.7723Y-3.3362
X3.7723Y-3.3756
X3.7723Y-3.415
X3.7929Y-3.0606
X3.7929Y-3.1
X3.7929Y-3.1394
X3.7929Y-3.1787
X3.7929Y-3.2181
X3.7929Y-3.2575
X3.7929Y-3.2969
X3.7929Y-3.3362
X3.7929Y-3.3756
X3.7929Y-3.415
X3.8135Y-3.0606
X3.8135Y-3.1
X3.8135Y-3.1394
X3.8135Y-3.1787
X3.8135Y-3.2181
X3.8135Y-3.2575
X3.8135Y-3.2969
X3.8135Y-3.3362
X3.8135Y-3.3756
X3.8135Y-3.415
X3.8341Y-3.0606
X3.8341Y-3.1
X3.8341Y-3.1394
X3.8341Y-3.1787
X3.8341Y-3.2181
X3.8341Y-3.2575
X3.8341Y-3.2969
X3.8341Y-3.3362
X3.8341Y-3.3756
X3.8341Y-3.415
X4.0925Y-1.763
X4.0925Y-1.8024
X4.0925Y-1.8417
X4.0925Y-1.8811
X4.0925Y-1.9205
X4.0925Y-1.9598
X4.0925Y-1.9992
X4.0925Y-2.0386
X4.0925Y-2.078
X4.0925Y-2.1173
X4.1131Y-1.763
X4.1131Y-1.8024
X4.1131Y-1.8417
X4.1131Y-1.8811
X4.1131Y-1.9205
X4.1131Y-1.9598
X4.1131Y-1.9992
X4.1131Y-2.0386
X4.1131Y-2.078
X4.1131Y-2.1173
X4.1337Y-1.763
X4.1337Y-1.8024
X4.1337Y-1.8417
X4.1337Y-1.8811
X4.1337Y-1.9205
X4.1337Y-1.9598
X4.1337Y-1.9992
X4.1337Y-2.0386
X4.1337Y-2.078
X4.1337Y-2.1173
X4.1543Y-1.763
X4.1543Y-1.8024
X4.1543Y-1.8417
X4.1543Y-1.8811
X4.1543Y-1.9205
X4.1543Y-1.9598
X4.1543Y-1.9992
X4.1543Y-2.0386
X4.1543Y-2.078
X4.1543Y-2.1173
X5.1673Y-1.7157
X5.1673Y-1.7542
X5.1673Y-1.8329
X5.1673Y-1.8728
X5.1673Y-1.9117
X5.1673Y-1.9516
X5.1673Y-1.9909
X5.1673Y-2.0691
X5.1673Y-2.1091
X5.1673Y-2.1479
X5.1673Y-2.1878
X5.1673Y-2.2272
X5.1673Y-2.3054
X5.1673Y-2.3453
X5.1673Y-2.3841
X5.1673Y-2.424
X5.1673Y-2.4634
X5.1673Y-2.5416
X5.1673Y-2.5815
X5.1673Y-2.6203
X5.1673Y-2.6602
X5.1673Y-2.6996
X5.1673Y-2.7778
X5.1673Y-2.8177
X5.1673Y-2.8565
X5.1673Y-2.8965
X5.1673Y-2.9358
X5.1875Y-3.0337
X5.1947Y-1.853
X5.1947Y-1.9317
X5.1947Y-2.0892
X5.1947Y-2.168
X5.1947Y-2.3254
X5.1947Y-2.4042
X5.1947Y-2.5617
X5.1947Y-2.6404
X5.1947Y-2.7979
X5.1947Y-2.8766
X5.1949Y-1.7354
X5.1949Y-1.7739
X5.1949Y-1.8925
X5.1949Y-1.9713
X5.1949Y-2.0106
X5.1949Y-2.1287
X5.1949Y-2.2075
X5.1949Y-2.2469
X5.1949Y-2.365
X5.1949Y-2.4437
X5.1949Y-2.4831
X5.1949Y-2.6012
X5.1949Y-2.6799
X5.1949Y-2.7193
X5.1949Y-2.8374
X5.1949Y-2.9161
X5.1949Y-2.9555
X5.1987Y-3.0043
T2
X1.5217Y-1.5465
X1.5217Y-1.6252
X1.5217Y-1.7039
X1.5217Y-1.7827
X1.5217Y-1.8614
X1.5217Y-1.9402
X1.5217Y-2.0189
X1.5217Y-2.0976
X1.5217Y-2.1764
X1.5217Y-2.4126
X1.5217Y-2.4913
X1.5217Y-2.5701
X1.5217Y-2.6488
X1.5217Y-2.7276
X1.5217Y-2.8063
X1.5217Y-2.885
X1.5217Y-2.9638
X1.5413Y-1.5071
X1.5413Y-1.5858
X1.5413Y-1.6646
X1.5413Y-1.7433
X1.5413Y-1.822
X1.5413Y-1.9008
X1.5413Y-1.9795
X1.5413Y-2.0583
X1.5413Y-2.137
X1.5413Y-2.3732
X1.5413Y-2.452
X1.5413Y-2.5307
X1.5413Y-2.6094
X1.5413Y-2.6882
X1.5413Y-2.7669
X1.5413Y-2.8457
X1.5413Y-2.9244
X1.5413Y-3.0031
X1.561Y-1.5465
X1.561Y-1.6252
X1.561Y-1.7039
X1.561Y-1.7827
X1.561Y-1.8614
X1.561Y-1.9402
X1.561Y-2.0189
X1.561Y-2.0976
X1.561Y-2.4126
X1.561Y-2.4913
X1.561Y-2.5701
X1.561Y-2.6488
X1.561Y-2.7276
X1.561Y-2.8063
X1.561Y-2.885
X1.561Y-2.9638
X1.5807Y-1.5071
X1.5807Y-1.5858
X1.5807Y-1.6646
X1.5807Y-1.7433
X1.5807Y-1.822
X1.5807Y-1.9008
X1.5807Y-1.9795
X1.5807Y-2.0583
X1.5807Y-2.137
X1.5807Y-2.3732
X1.5807Y-2.452
X1.5807Y-2.5307
X1.5807Y-2.6094
X1.5807Y-2.6882
X1.5807Y-2.7669
X1.5807Y-2.8457
X1.5807Y-2.9244
X1.5807Y-3.0031
X1.6004Y-1.5465
X1.6004Y-1.6252
X1.6004Y-1.7039
X1.6004Y-1.7827
X1.6004Y-1.8614
X1.6004Y-1.9402
X1.6004Y-2.0189
X1.6004Y-2.0976
X1.6004Y-2.1764
X1.6004Y-2.4126
X1.6004Y-2.4913
X1.6004Y-2.5701
X1.6004Y-2.6488
X1.6004Y-2.7276
X1.6004Y-2.8063
X1.6004Y-2.885
X1.6004Y-2.9638
X1.6201Y-1.5071
X1.6201Y-1.5858
X1.6201Y-1.6646
X1.6201Y-1.7433
X1.6201Y-1.822
X1.6201Y-1.9008
X1.6201Y-1.9795
X1.6201Y-2.0583
X1.6201Y-2.137
X1.6201Y-2.3732
X1.6201Y-2.452
X1.6201Y-2.5307
X1.6201Y-2.6094
X1.6201Y-2.6882
X1.6201Y-2.7669
X1.6201Y-2.8457
X1.6201Y-2.9244
X1.6201Y-3.0031
X1.6398Y-1.4677
X1.6398Y-1.5465
X1.6398Y-1.6252
X1.6398Y-1.7039
X1.6398Y-1.7827
X1.6398Y-1.8614
X1.6398Y-1.9402
X1.6398Y-2.0189
X1.6398Y-2.0976
X1.6398Y-2.1764
X1.6398Y-2.3339
X1.6398Y-2.4126
X1.6398Y-2.4913
X1.6398Y-2.5701
X1.6398Y-2.6488
X1.6398Y-2.7276
X1.6398Y-2.8063
X1.6398Y-2.885
X1.6398Y-2.9638
X1.6398Y-3.0425
X1.6594Y-1.4283
X1.6594Y-1.5071
X1.6594Y-1.5858
X1.6594Y-1.6646
X1.6594Y-1.7433
X1.6594Y-1.822
X1.6594Y-1.9008
X1.6594Y-1.9795
X1.6594Y-2.0583
X1.6594Y-2.137
X1.6594Y-2.2157
X1.6594Y-2.2945
X1.6594Y-2.3732
X1.6594Y-2.452
X1.6594Y-2.5307
X1.6594Y-2.6094
X1.6594Y-2.6882
X1.6594Y-2.7669
X1.6594Y-2.8457
X1.6594Y-2.9244
X1.6594Y-3.0031
X1.6594Y-3.0819
X1.6594Y-3.1606
X1.6791Y-1.389
X1.6791Y-1.4677
X1.6791Y-1.5465
X1.6791Y-1.6252
X1.6791Y-1.7039
X1.6791Y-1.7827
X1.6791Y-1.8614
X1.6791Y-1.9402
X1.6791Y-2.0189
X1.6791Y-2.0976
X1.6791Y-2.1764
X1.6791Y-2.2551
X1.6791Y-2.3339
X1.6791Y-2.4126
X1.6791Y-2.4913
X1.6791Y-2.5701
X1.6791Y-2.6488
X1.6791Y-2.7276
X1.6791Y-2.8063
X1.6791Y-2.885
X1.6791Y-2.9638
X1.6791Y-3.0425
X1.6791Y-3.1213
X1.6988Y-1.4283
X1.6988Y-1.5071
X1.6988Y-1.5858
X1.6988Y-1.6646
X1.6988Y-1.7433
X1.6988Y-1.822
X1.6988Y-1.9008
X1.6988Y-1.9795
X1.6988Y-2.0583
X1.6988Y-2.137
X1.6988Y-2.2157
X1.6988Y-2.2945
X1.6988Y-2.3732
X1.6988Y-2.452
X1.6988Y-2.5307
X1.6988Y-2.6094
X1.6988Y-2.6882
X1.6988Y-2.7669
X1.6988Y-2.8457
X1.6988Y-2.9244
X1.6988Y-3.0031
X1.6988Y-3.0819
X1.6988Y-3.1606
X1.7185Y-1.389
X1.7185Y-1.4677
X1.7185Y-1.5465
X1.7185Y-1.6252
X1.7185Y-1.7039
X1.7185Y-1.7827
X1.7185Y-1.8614
X1.7185Y-1.9402
X1.7185Y-2.0189
X1.7185Y-2.0976
X1.7185Y-2.1764
X1.7185Y-2.2551
X1.7185Y-2.3339
X1.7185Y-2.4126
X1.7185Y-2.4913
X1.7185Y-2.5701
X1.7185Y-2.6488
X1.7185Y-2.7276
X1.7185Y-2.8063
X1.7185Y-2.885
X1.7185Y-2.9638
X1.7185Y-3.0425
X1.7185Y-3.1213
X1.7382Y-1.4283
X1.7382Y-1.5071
X1.7382Y-1.5858
X1.7382Y-1.6646
X1.7382Y-1.7433
X1.7382Y-1.822
X1.7382Y-1.9008
X1.7382Y-1.9795
X1.7382Y-2.0583
X1.7382Y-2.137
X1.7382Y-2.2157
X1.7382Y-2.2945
X1.7382Y-2.3732
X1.7382Y-2.452
X1.7382Y-2.5307
X1.7382Y-2.6094
X1.7382Y-2.6882
X1.7382Y-2.7669
X1.7382Y-2.8457
X1.7382Y-2.9244
X1.7382Y-3.0031
X1.7382Y-3.0819
X1.7382Y-3.1606
X1.7579Y-1.389
X1.7579Y-1.4677
X1.7579Y-1.5465
X1.7579Y-1.6252
X1.7579Y-1.7039
X1.7579Y-1.7827
X1.7579Y-1.8614
X1.7579Y-1.9402
X1.7579Y-2.0189
X1.7579Y-2.0976
X1.7579Y-2.1764
X1.7579Y-2.2551
X1.7579Y-2.3339
X1.7579Y-2.4126
X1.7579Y-2.4913
X1.7579Y-2.5701
X1.7579Y-2.6488
X1.7579Y-2.7276
X1.7579Y-2.8063
X1.7579Y-2.885
X1.7579Y-2.9638
X1.7579Y-3.0425
X1.7579Y-3.1213
X1.7776Y-1.4283
X1.7776Y-1.5071
X1.7776Y-1.5858
X1.7776Y-1.6646
X1.7776Y-1.7433
X1.7776Y-1.822
X1.7776Y-1.9008
X1.7776Y-1.9795
X1.7776Y-2.0583
X1.7776Y-2.137
X1.7776Y-2.2157
X1.7776Y-2.2945
X1.7776Y-2.3732
X1.7776Y-2.452
X1.7776Y-2.5307
X1.7776Y-2.6094
X1.7776Y-2.6882
X1.7776Y-2.7669
X1.7776Y-2.8457
X1.7776Y-2.9244
X1.7776Y-3.0031
X1.7776Y-3.0819
X1.7776Y-3.1606
X1.7972Y-1.389
X1.7972Y-1.4677
X1.7972Y-1.5465
X1.7972Y-1.6252
X1.7972Y-1.7039
X1.7972Y-1.7827
X1.7972Y-1.8614
X1.7972Y-1.9402
X1.7972Y-2.0189
X1.7972Y-2.0976
X1.7972Y-2.1764
X1.7972Y-2.2551
X1.7972Y-2.3339
X1.7972Y-2.4126
X1.7972Y-2.4913
X1.7972Y-2.5701
X1.7972Y-2.6488
X1.7972Y-2.7276
X1.7972Y-2.8063
X1.7972Y-2.885
X1.7972Y-2.9638
X1.7972Y-3.0425
X1.7972Y-3.1213
X1.8169Y-1.4283
X1.8169Y-1.5071
X1.8169Y-1.5858
X1.8169Y-1.6646
X1.8169Y-1.7433
X1.8169Y-1.822
X1.8169Y-1.9008
X1.8169Y-1.9795
X1.8169Y-2.0583
X1.8169Y-2.137
X1.8169Y-2.2157
X1.8169Y-2.2945
X1.8169Y-2.3732
X1.8169Y-2.452
X1.8169Y-2.5307
X1.8169Y-2.6094
X1.8169Y-2.6882
X1.8169Y-2.7669
X1.8169Y-2.8457
X1.8169Y-2.9244
X1.8169Y-3.0031
X1.8169Y-3.0819
X1.8169Y-3.1606
X1.8366Y-1.389
X1.8366Y-1.4677
X1.8366Y-1.5465
X1.8366Y-1.6252
X1.8366Y-1.7039
X1.8366Y-1.7827
X1.8366Y-1.8614
X1.8366Y-1.9402
X1.8366Y-2.0189
X1.8366Y-2.0976
X1.8366Y-2.1764
X1.8366Y-2.2551
X1.8366Y-2.3339
X1.8366Y-2.4126
X1.8366Y-2.4913
X1.8366Y-2.5701
X1.8366Y-2.6488
X1.8366Y-2.7276
X1.8366Y-2.8063
X1.8366Y-2.885
X1.8366Y-2.9638
X1.8366Y-3.0425
X1.8366Y-3.1213
X1.8563Y-1.4283
X1.8563Y-1.5071
X1.8563Y-1.5858
X1.8563Y-1.6646
X1.8563Y-1.7433
X1.8563Y-1.822
X1.8563Y-1.9008
X1.8563Y-1.9795
X1.8563Y-2.0583
X1.8563Y-2.137
X1.8563Y-2.2157
X1.8563Y-2.2945
X1.8563Y-2.3732
X1.8563Y-2.452
X1.8563Y-2.5307
X1.8563Y-2.6094
X1.8563Y-2.6882
X1.8563Y-2.7669
X1.8563Y-2.8457
X1.8563Y-2.9244
X1.8563Y-3.0031
X1.8563Y-3.0819
X1.8563Y-3.1606
X1.876Y-1.389
X1.876Y-1.4677
X1.876Y-1.5465
X1.876Y-1.6252
X1.876Y-1.7039
X1.876Y-1.7827
X1.876Y-1.8614
X1.876Y-1.9402
X1.876Y-2.0189
X1.876Y-2.0976
X1.876Y-2.1764
X1.876Y-2.2551
X1.876Y-2.3339
X1.876Y-2.4126
X1.876Y-2.4913
X1.876Y-2.5701
X1.876Y-2.6488
X1.876Y-2.7276
X1.876Y-2.8063
X1.876Y-2.885
X1.876Y-2.9638
X1.876Y-3.0425
X1.876Y-3.1213
X1.8957Y-1.4283
X1.8957Y-1.5071
X1.8957Y-1.5858
X1.8957Y-1.6646
X1.8957Y-1.7433
X1.8957Y-1.822
X1.8957Y-1.9008
X1.8957Y-1.9795
X1.8957Y-2.0583
X1.8957Y-2.137
X1.8957Y-2.2157
X1.8957Y-2.2945
X1.8957Y-2.3732
X1.8957Y-2.452
X1.8957Y-2.5307
X1.8957Y-2.6094
X1.8957Y-2.6882
X1.8957Y-2.7669
X1.8957Y-2.8457
X1.8957Y-2.9244
X1.8957Y-3.0031
X1.8957Y-3.0819
X1.8957Y-3.1606
X1.9154Y-1.389
X1.9154Y-1.4677
X1.9154Y-1.5465
X1.9154Y-1.6252
X1.9154Y-1.7039
X1.9154Y-1.7827
X1.9154Y-1.8614
X1.9154Y-1.9402
X1.9154Y-2.0189
X1.9154Y-2.0976
X1.9154Y-2.1764
X1.9154Y-2.2551
X1.9154Y-2.3339
X1.9154Y-2.4126
X1.9154Y-2.4913
X1.9154Y-2.5701
X1.9154Y-2.6488
X1.9154Y-2.7276
X1.9154Y-2.8063
X1.9154Y-2.885
X1.9154Y-2.9638
X1.9154Y-3.0425
X1.9154Y-3.1213
X1.935Y-1.4283
X1.935Y-1.5071
X1.935Y-1.5858
X1.935Y-1.6646
X1.935Y-1.7433
X1.935Y-1.822
X1.935Y-1.9008
X1.935Y-1.9795
X1.935Y-2.0583
X1.935Y-2.137
X1.935Y-2.2157
X1.935Y-2.2945
X1.935Y-2.3732
X1.935Y-2.452
X1.935Y-2.5307
X1.935Y-2.6094
X1.935Y-2.6882
X1.935Y-2.7669
X1.935Y-2.8457
X1.935Y-2.9244
X1.935Y-3.0031
X1.935Y-3.0819
X1.935Y-3.1606
X1.9547Y-1.389
X1.9547Y-1.4677
X1.9547Y-1.5465
X1.9547Y-1.6252
X1.9547Y-1.7039
X1.9547Y-1.7827
X1.9547Y-1.8614
X1.9547Y-1.9402
X1.9547Y-2.0189
X1.9547Y-2.0976
X1.9547Y-2.1764
X1.9547Y-2.2551
X1.9547Y-2.3339
X1.9547Y-2.4126
X1.9547Y-2.4913
X1.9547Y-2.5701
X1.9547Y-2.6488
X1.9547Y-2.7276
X1.9547Y-2.8063
X1.9547Y-2.885
X1.9547Y-2.9638
X1.9547Y-3.0425
X1.9547Y-3.1213
X1.9744Y-1.4283
X1.9744Y-1.5071
X1.9744Y-1.5858
X1.9744Y-1.6646
X1.9744Y-1.7433
X1.9744Y-1.822
X1.9744Y-1.9008
X1.9744Y-1.9795
X1.9744Y-2.0583
X1.9744Y-2.137
X1.9744Y-2.2157
X1.9744Y-2.2945
X1.9744Y-2.3732
X1.9744Y-2.452
X1.9744Y-2.5307
X1.9744Y-2.6094
X1.9744Y-2.6882
X1.9744Y-2.7669
X1.9744Y-2.8457
X1.9744Y-2.9244
X1.9744Y-3.0031
X1.9744Y-3.0819
X1.9744Y-3.1606
X1.9941Y-1.389
X1.9941Y-1.4677
X1.9941Y-1.5465
X1.9941Y-1.6252
X1.9941Y-1.7039
X1.9941Y-1.7827
X1.9941Y-1.8614
X1.9941Y-1.9402
X1.9941Y-2.0189
X1.9941Y-2.0976
X1.9941Y-2.1764
X1.9941Y-2.2551
X1.9941Y-2.3339
X1.9941Y-2.4126
X1.9941Y-2.4913
X1.9941Y-2.5701
X1.9941Y-2.6488
X1.9941Y-2.7276
X1.9941Y-2.8063
X1.9941Y-2.885
X1.9941Y-2.9638
X1.9941Y-3.0425
X1.9941Y-3.1213
X2.0138Y-1.5071
X2.0138Y-1.5858
X2.0138Y-1.6646
X2.0138Y-1.7433
X2.0138Y-1.822
X2.0138Y-1.9008
X2.0138Y-1.9795
X2.0138Y-2.0583
X2.0138Y-2.137
X2.0138Y-2.3732
X2.0138Y-2.452
X2.0138Y-2.5307
X2.0138Y-2.6094
X2.0138Y-2.6882
X2.0138Y-2.7669
X2.0138Y-2.8457
X2.0138Y-2.9244
X2.0138Y-3.0031
X2.0335Y-1.5465
X2.0335Y-1.6252
X2.0335Y-1.7039
X2.0335Y-1.7827
X2.0335Y-1.8614
X2.0335Y-1.9402
X2.0335Y-2.0189
X2.0335Y-2.0976
X2.0335Y-2.1764
X2.0335Y-2.4126
X2.0335Y-2.4913
X2.0335Y-2.5701
X2.0335Y-2.6488
X2.0335Y-2.7276
X2.0335Y-2.8063
X2.0335Y-2.885
X2.0335Y-2.9638
X2.0335Y-3.0425
X2.0531Y-1.5071
X2.0531Y-1.5858
X2.0531Y-1.6646
X2.0531Y-1.7433
X2.0531Y-1.822
X2.0531Y-1.9008
X2.0531Y-1.9795
X2.0531Y-2.0583
X2.0531Y-2.137
X2.0531Y-2.3732
X2.0531Y-2.452
X2.0531Y-2.5307
X2.0531Y-2.6094
X2.0531Y-2.6882
X2.0531Y-2.7669
X2.0531Y-2.8457
X2.0531Y-2.9244
X2.0531Y-3.0031
X2.0728Y-1.5465
X2.0728Y-1.6252
X2.0728Y-1.7039
X2.0728Y-1.7827
X2.0728Y-1.8614
X2.0728Y-1.9402
X2.0728Y-2.0189
X2.0728Y-2.0976
X2.0728Y-2.4126
X2.0728Y-2.4913
X2.0728Y-2.5701
X2.0728Y-2.6488
X2.0728Y-2.7276
X2.0728Y-2.8063
X2.0728Y-2.885
X2.0728Y-2.9638
X2.0925Y-1.5071
X2.0925Y-1.5858
X2.0925Y-1.6646
X2.0925Y-1.7433
X2.0925Y-1.822
X2.0925Y-1.9008
X2.0925Y-1.9795
X2.0925Y-2.0583
X2.0925Y-2.137
X2.0925Y-2.3732
X2.0925Y-2.452
X2.0925Y-2.5307
X2.0925Y-2.6094
X2.0925Y-2.6882
X2.0925Y-2.7669
X2.0925Y-2.8457
X2.0925Y-2.9244
X2.0925Y-3.0031
X2.1122Y-1.5465
X2.1122Y-1.6252
X2.1122Y-1.7039
X2.1122Y-1.7827
X2.1122Y-1.8614
X2.1122Y-1.9402
X2.1122Y-2.0189
X2.1122Y-2.0976
X2.1122Y-2.4126
X2.1122Y-2.4913
X2.1122Y-2.5701
X2.1122Y-2.6488
X2.1122Y-2.7276
X2.1122Y-2.8063
X2.1122Y-2.885
X2.1122Y-2.9638
X2.1319Y-1.5071
X2.1319Y-1.5858
X2.1319Y-1.6646
X2.1319Y-1.7433
X2.1319Y-1.822
X2.1319Y-1.9008
X2.1319Y-1.9795
X2.1319Y-2.0583
X2.1319Y-2.137
X2.1319Y-2.3732
X2.1319Y-2.452
X2.1319Y-2.5307
X2.1319Y-2.6094
X2.1319Y-2.6882
X2.1319Y-2.7669
X2.1319Y-2.8457
X2.1319Y-2.9244
X2.1319Y-3.0031
T3
X5.4252Y-1.7433
X5.4252Y-1.7827
X5.4252Y-1.822
X5.4252Y-1.8614
X5.4252Y-1.9008
X5.4252Y-1.9402
T4
X2.5374Y-2.4004
X2.5374Y-2.5004
X2.5374Y-2.6004
T5
X2.8609Y-1.3654
X2.8609Y-1.4654
X2.8609Y-3.0858
X2.8609Y-3.1858
X2.9609Y-1.3654
X2.9609Y-1.4654
X2.9609Y-3.0858
X2.9609Y-3.1858
X3.0609Y-1.3654
X3.0609Y-1.4654
X3.0609Y-3.0858
X3.0609Y-3.1858
X3.1609Y-1.3654
X3.1609Y-1.4654
X3.1609Y-3.0858
X3.1609Y-3.1858
X4.3867Y-1.3654
X4.3867Y-1.4654
X4.3867Y-3.0858
X4.3867Y-3.1858
X4.4867Y-1.3654
X4.4867Y-1.4654
X4.4867Y-3.0858
X4.4867Y-3.1858
X4.5867Y-1.3646
X4.5867Y-1.4646
X4.5867Y-3.085
X4.5867Y-3.185
X4.6867Y-1.3646
X4.6867Y-1.4646
X4.6867Y-3.085
X4.6867Y-3.185
X5.2363Y-1.3646
X5.2363Y-1.4646
X5.2363Y-3.085
X5.2363Y-3.185
X5.3363Y-1.3646
X5.3363Y-1.4646
X5.3363Y-3.085
X5.3363Y-3.185
X5.4363Y-1.3646
X5.4363Y-1.4646
X5.4363Y-3.085
X5.4363Y-3.185
T6
X1.561Y-1.4087
X1.561Y-2.2669
X1.561Y-3.1252
X2.0886Y-1.4087
X2.0886Y-2.2669
X2.0886Y-3.1252
X5.4902Y-2.2669
M30
