M48
; DRILL file {KiCad 9.0.4} date 2025-08-26T10:42:27+0200
; FORMAT={-:-/ absolute / metric / decimal}
; #@! TF.CreationDate,2025-08-26T10:42:27+02:00
; #@! TF.GenerationSoftware,Kicad,Pcbnew,9.0.4
; #@! TF.FileFunction,Plated,1,3,Blind
FMAT,2
METRIC
; #@! TA.AperFunction,Plated,Buried,ViaDrill
T1C0.150
%
G90
G05
T1
X153.49Y-100.33
X154.13Y-101.35
X156.63Y-135.46
X157.83Y-135.46
X159.03Y-135.46
X160.23Y-135.46
X161.43Y-135.46
X162.63Y-135.46
X163.83Y-135.46
X168.44Y-135.46
X169.64Y-135.46
X170.84Y-135.46
X172.04Y-135.46
X173.24Y-135.46
X174.44Y-135.46
X175.64Y-135.46
X179.898Y-110.388
X179.97Y-114.7
X179.98Y-115.69
X179.99Y-111.21
X179.99Y-112.19
X181.15Y-135.46
X182.35Y-135.46
X182.63Y-82.7
X182.64Y-84.69
X182.64Y-85.72
X182.64Y-86.69
X182.64Y-87.7
X182.64Y-92.7
X182.64Y-115.2
X182.65Y-93.7
X182.65Y-108.71
X182.65Y-110.72
X182.66Y-90.7
X182.66Y-94.7
X182.66Y-96.72
X182.66Y-97.71
X182.66Y-106.69
X182.67Y-88.71
X182.67Y-91.72
X182.67Y-98.69
X182.67Y-99.69
X182.68Y-100.71
X182.68Y-102.72
X182.68Y-105.71
X182.68Y-111.7
X182.69Y-103.73
X182.69Y-104.71
X182.69Y-112.71
X182.69Y-114.21
X182.7Y-109.69
X183.55Y-135.46
X184.75Y-135.46
X185.95Y-135.46
X185.99Y-99.17
X186.18Y-104.19
X187.15Y-135.46
X188.35Y-135.46
X188.6Y-98.66
X188.83Y-103.86
X189.55Y-135.46
X190.75Y-135.46
X191.29Y-103.93
X191.35Y-135.46
X191.95Y-135.46
X192.48Y-105.13
X192.55Y-135.46
X192.62Y-106.19
X192.64Y-103.7
X193.15Y-135.46
X193.75Y-135.46
X194.35Y-135.46
X194.95Y-135.46
X195.55Y-135.46
X196.15Y-135.46
X196.75Y-135.46
M30
