%TF.GenerationSoftware,KiCad,Pcbnew,8.0.7*%
%TF.CreationDate,2025-02-18T16:04:48+01:00*%
%TF.ProjectId,HYDRA_VMM3_CARD_V3_Flex,48594452-415f-4564-9d4d-335f43415244,rev?*%
%TF.SameCoordinates,Original*%
%TF.FileFunction,Copper,L8,Bot*%
%TF.FilePolarity,Positive*%
%FSLAX46Y46*%
G04 Gerber Fmt 4.6, Leading zero omitted, Abs format (unit mm)*
G04 Created by KiCad (PCBNEW 8.0.7) date 2025-02-18 16:04:48*
%MOMM*%
%LPD*%
G01*
G04 APERTURE LIST*
G04 Aperture macros list*
%AMRoundRect*
0 Rectangle with rounded corners*
0 $1 Rounding radius*
0 $2 $3 $4 $5 $6 $7 $8 $9 X,Y pos of 4 corners*
0 Add a 4 corners polygon primitive as box body*
4,1,4,$2,$3,$4,$5,$6,$7,$8,$9,$2,$3,0*
0 Add four circle primitives for the rounded corners*
1,1,$1+$1,$2,$3*
1,1,$1+$1,$4,$5*
1,1,$1+$1,$6,$7*
1,1,$1+$1,$8,$9*
0 Add four rect primitives between the rounded corners*
20,1,$1+$1,$2,$3,$4,$5,0*
20,1,$1+$1,$4,$5,$6,$7,0*
20,1,$1+$1,$6,$7,$8,$9,0*
20,1,$1+$1,$8,$9,$2,$3,0*%
%AMFreePoly0*
4,1,21,-0.249646,0.790354,-0.249500,0.790000,0.250000,0.790000,0.250000,-0.790000,-0.249500,-0.790000,-0.249646,-0.790354,-0.250000,-0.790500,-0.330000,-0.790500,-0.330354,-0.790354,-0.330500,-0.790000,-0.330500,-0.270000,-0.330354,-0.269646,-0.250500,-0.189792,-0.250500,0.189792,-0.330354,0.269646,-0.330500,0.270000,-0.330500,0.790000,-0.330354,0.790354,-0.330000,0.790500,-0.250000,0.790500,
-0.249646,0.790354,-0.249646,0.790354,$1*%
%AMFreePoly1*
4,1,21,0.330354,0.790354,0.330500,0.790000,0.330500,0.270000,0.330354,0.269646,0.250500,0.189792,0.250500,-0.189792,0.330354,-0.269646,0.330500,-0.270000,0.330500,-0.790000,0.330354,-0.790354,0.330000,-0.790500,0.250000,-0.790500,0.249646,-0.790354,0.249500,-0.790000,-0.250000,-0.790000,-0.250000,0.790000,0.249500,0.790000,0.249646,0.790354,0.250000,0.790500,0.330000,0.790500,
0.330354,0.790354,0.330354,0.790354,$1*%
G04 Aperture macros list end*
%TA.AperFunction,ComponentPad*%
%ADD10C,2.000000*%
%TD*%
%TA.AperFunction,SMDPad,CuDef*%
%ADD11RoundRect,0.095000X-0.095000X-0.965000X0.095000X-0.965000X0.095000X0.965000X-0.095000X0.965000X0*%
%TD*%
%TA.AperFunction,ComponentPad*%
%ADD12C,1.600000*%
%TD*%
%TA.AperFunction,ComponentPad*%
%ADD13R,1.600000X1.600000*%
%TD*%
%TA.AperFunction,SMDPad,CuDef*%
%ADD14RoundRect,0.100000X0.100000X-0.130000X0.100000X0.130000X-0.100000X0.130000X-0.100000X-0.130000X0*%
%TD*%
%TA.AperFunction,SMDPad,CuDef*%
%ADD15RoundRect,0.237500X0.250000X0.237500X-0.250000X0.237500X-0.250000X-0.237500X0.250000X-0.237500X0*%
%TD*%
%TA.AperFunction,SMDPad,CuDef*%
%ADD16RoundRect,0.237500X-0.237500X0.287500X-0.237500X-0.287500X0.237500X-0.287500X0.237500X0.287500X0*%
%TD*%
%TA.AperFunction,SMDPad,CuDef*%
%ADD17R,0.550000X0.600000*%
%TD*%
%TA.AperFunction,SMDPad,CuDef*%
%ADD18FreePoly0,270.000000*%
%TD*%
%TA.AperFunction,SMDPad,CuDef*%
%ADD19FreePoly1,270.000000*%
%TD*%
%TA.AperFunction,SMDPad,CuDef*%
%ADD20R,0.500000X0.500000*%
%TD*%
%TA.AperFunction,SMDPad,CuDef*%
%ADD21R,0.300000X0.700000*%
%TD*%
%TA.AperFunction,SMDPad,CuDef*%
%ADD22R,0.300000X1.000000*%
%TD*%
%TA.AperFunction,SMDPad,CuDef*%
%ADD23RoundRect,0.237500X0.287500X0.237500X-0.287500X0.237500X-0.287500X-0.237500X0.287500X-0.237500X0*%
%TD*%
%TA.AperFunction,SMDPad,CuDef*%
%ADD24RoundRect,0.237500X0.237500X-0.287500X0.237500X0.287500X-0.237500X0.287500X-0.237500X-0.287500X0*%
%TD*%
%TA.AperFunction,ViaPad*%
%ADD25C,0.350000*%
%TD*%
%TA.AperFunction,Conductor*%
%ADD26C,0.100000*%
%TD*%
%TA.AperFunction,Conductor*%
%ADD27C,0.200000*%
%TD*%
%TA.AperFunction,Conductor*%
%ADD28C,0.395000*%
%TD*%
%TA.AperFunction,Conductor*%
%ADD29C,0.800000*%
%TD*%
G04 APERTURE END LIST*
D10*
X134778000Y-122000000D03*
X193073000Y-121980000D03*
X193073000Y-78280000D03*
X129698000Y-78300000D03*
X190533000Y-78280000D03*
X129698000Y-122000000D03*
X132238000Y-80840000D03*
D11*
X147630000Y-135460000D03*
X148230000Y-135460000D03*
X148830000Y-135460000D03*
X149430000Y-135460000D03*
X150030000Y-135460000D03*
X150630000Y-135460000D03*
X151230000Y-135460000D03*
X151830000Y-135460000D03*
X152430000Y-135460000D03*
X153030000Y-135460000D03*
X153630000Y-135460000D03*
X154230000Y-135460000D03*
X154830000Y-135460000D03*
X155430000Y-135460000D03*
X156030000Y-135460000D03*
X156630000Y-135460000D03*
X157230000Y-135460000D03*
X157830000Y-135460000D03*
X158430000Y-135460000D03*
X159030000Y-135460000D03*
X159630000Y-135460000D03*
X160230000Y-135460000D03*
X160830000Y-135460000D03*
X161430000Y-135460000D03*
X162030000Y-135460000D03*
X162630000Y-135460000D03*
X163230000Y-135460000D03*
X163830000Y-135460000D03*
X167840000Y-135460000D03*
X168440000Y-135460000D03*
X169040000Y-135460000D03*
X169640000Y-135460000D03*
X170240000Y-135460000D03*
X170840000Y-135460000D03*
X171440000Y-135460000D03*
X172040000Y-135460000D03*
X172640000Y-135460000D03*
X173240000Y-135460000D03*
X173840000Y-135460000D03*
X174440000Y-135460000D03*
X175040000Y-135460000D03*
X175640000Y-135460000D03*
X180550000Y-135460000D03*
X181150000Y-135460000D03*
X181750000Y-135460000D03*
X182350000Y-135460000D03*
X182950000Y-135460000D03*
X183550000Y-135460000D03*
X184150000Y-135460000D03*
X184750000Y-135460000D03*
X185350000Y-135460000D03*
X185950000Y-135460000D03*
X186550000Y-135460000D03*
X187150000Y-135460000D03*
X187750000Y-135460000D03*
X188350000Y-135460000D03*
X188950000Y-135460000D03*
X189550000Y-135460000D03*
X190150000Y-135460000D03*
X190750000Y-135460000D03*
X191350000Y-135460000D03*
X191950000Y-135460000D03*
X192550000Y-135460000D03*
X193150000Y-135460000D03*
X193750000Y-135460000D03*
X194350000Y-135460000D03*
X194950000Y-135460000D03*
X195550000Y-135460000D03*
X196150000Y-135460000D03*
X196750000Y-135460000D03*
D10*
X190533000Y-121980000D03*
X193073000Y-124520000D03*
X193073000Y-80820000D03*
X171493000Y-124540000D03*
X137318000Y-80840000D03*
D12*
X121980000Y-104590000D03*
D10*
X129698000Y-80840000D03*
X190533000Y-124520000D03*
X134778000Y-80840000D03*
X137318000Y-122000000D03*
X134778000Y-124540000D03*
X171493000Y-80840000D03*
X132238000Y-122000000D03*
X174033000Y-80820000D03*
D13*
X121980000Y-107130000D03*
D10*
X174033000Y-78280000D03*
X171493000Y-122000000D03*
X134778000Y-78300000D03*
X190533000Y-80820000D03*
D12*
X121980000Y-109670000D03*
D10*
X171493000Y-78300000D03*
X132238000Y-78300000D03*
X132238000Y-124540000D03*
X129698000Y-124540000D03*
X137318000Y-124540000D03*
X137318000Y-78300000D03*
D14*
X186191000Y-79608500D03*
X186191000Y-78968500D03*
D15*
X119072500Y-116220000D03*
X117247500Y-116220000D03*
X118972500Y-98230000D03*
X117147500Y-98230000D03*
D16*
X115580000Y-96435000D03*
X115580000Y-98185000D03*
D17*
X117735000Y-88860000D03*
D18*
X116760000Y-89860000D03*
D19*
X116760000Y-87860000D03*
D20*
X115760000Y-88860000D03*
D21*
X152446646Y-127310000D03*
X151946647Y-127310000D03*
X151446645Y-127310000D03*
X150946646Y-127310000D03*
D22*
X153236646Y-129960000D03*
X150156653Y-129960000D03*
D14*
X181291000Y-79608500D03*
X181291000Y-78968500D03*
D23*
X130264999Y-104590000D03*
X128515001Y-104590000D03*
D14*
X187401000Y-79608500D03*
X187401000Y-78968500D03*
D23*
X130264999Y-109670000D03*
X128515001Y-109670000D03*
D24*
X115690000Y-118015000D03*
X115690000Y-116265000D03*
D14*
X188611000Y-79608500D03*
X188611000Y-78968500D03*
X182501000Y-79608500D03*
X182501000Y-78968500D03*
X180081000Y-79608500D03*
X180081000Y-78968500D03*
D17*
X117725000Y-85000000D03*
D18*
X116750000Y-86000000D03*
D19*
X116750000Y-84000000D03*
D20*
X115750000Y-85000000D03*
D25*
X133890000Y-113670000D03*
X131890000Y-111170000D03*
X133390000Y-113670000D03*
X133890000Y-111670000D03*
X132890000Y-111170000D03*
X131390000Y-111170000D03*
X131890000Y-110170000D03*
X131890000Y-111670000D03*
X131890000Y-109670000D03*
X132890000Y-108670000D03*
X132890000Y-111670000D03*
X132390000Y-113670000D03*
X147630000Y-136260000D03*
X132390000Y-110170000D03*
X131890000Y-110670000D03*
X131890000Y-112670000D03*
X133390000Y-110170000D03*
X132890000Y-112170000D03*
X148230000Y-135460000D03*
X133390000Y-114170000D03*
X149430000Y-135460000D03*
X148230000Y-135860000D03*
X131890000Y-112170000D03*
X133890000Y-110170000D03*
X131890000Y-109170000D03*
X133390000Y-111170000D03*
X148230000Y-134660000D03*
X148830000Y-136260000D03*
X131390000Y-108670000D03*
X132390000Y-111170000D03*
X132390000Y-112670000D03*
X131390000Y-110670000D03*
X132390000Y-112170000D03*
X133890000Y-109170000D03*
X132390000Y-109170000D03*
X132890000Y-110170000D03*
X133890000Y-112670000D03*
X133890000Y-111170000D03*
X132390000Y-111670000D03*
X147630000Y-134660000D03*
X133390000Y-109670000D03*
X133890000Y-114170000D03*
X133890000Y-108670000D03*
X132390000Y-108670000D03*
X131390000Y-112170000D03*
X147630000Y-135060000D03*
X132390000Y-110670000D03*
X131390000Y-111670000D03*
X131890000Y-108670000D03*
X148230000Y-136260000D03*
X133390000Y-110670000D03*
X131390000Y-109670000D03*
X148830000Y-135860000D03*
X132890000Y-113670000D03*
X132390000Y-114170000D03*
X133890000Y-112170000D03*
X148830000Y-135460000D03*
X147630000Y-135860000D03*
X149430000Y-135860000D03*
X133390000Y-112670000D03*
X131890000Y-113670000D03*
X132390000Y-113170000D03*
X133390000Y-111670000D03*
X149430000Y-136260000D03*
X131390000Y-110170000D03*
X148230000Y-135060000D03*
X132890000Y-109670000D03*
X133390000Y-112170000D03*
X133390000Y-113170000D03*
X133890000Y-113170000D03*
X133890000Y-109670000D03*
X131390000Y-113170000D03*
X131390000Y-109170000D03*
X132890000Y-110670000D03*
X149430000Y-135060000D03*
X133890000Y-110670000D03*
X133390000Y-109170000D03*
X148830000Y-134660000D03*
X132890000Y-109170000D03*
X133390000Y-108670000D03*
X132390000Y-109670000D03*
X131390000Y-112670000D03*
X132890000Y-112670000D03*
X131890000Y-113170000D03*
X147630000Y-135460000D03*
X148830000Y-135060000D03*
X149430000Y-134660000D03*
X132890000Y-113170000D03*
X132890000Y-114170000D03*
X132890000Y-103590000D03*
X132890000Y-106590000D03*
X130890000Y-103590000D03*
X133390000Y-103590000D03*
X130890000Y-106590000D03*
X131390000Y-105590000D03*
X132390000Y-103590000D03*
X131390000Y-104590000D03*
X133890000Y-104590000D03*
X131390000Y-102590000D03*
X133890000Y-102590000D03*
X131890000Y-102590000D03*
X130890000Y-105590000D03*
X132390000Y-104590000D03*
X133390000Y-104590000D03*
X132890000Y-105590000D03*
X131890000Y-105590000D03*
X133390000Y-102590000D03*
X133890000Y-103590000D03*
X131390000Y-103590000D03*
X132890000Y-102590000D03*
X133890000Y-105590000D03*
X131390000Y-106590000D03*
X131890000Y-103590000D03*
X133890000Y-106590000D03*
X153260000Y-127310000D03*
X131890000Y-104590000D03*
X133390000Y-106590000D03*
X132390000Y-102590000D03*
X132390000Y-106590000D03*
X131890000Y-106590000D03*
X132390000Y-105590000D03*
X132890000Y-104590000D03*
X130890000Y-102590000D03*
X133390000Y-105590000D03*
X152775000Y-127310000D03*
X188670000Y-82180000D03*
X188690000Y-90180000D03*
X188730000Y-86180000D03*
X186550000Y-135460000D03*
X170840000Y-135460000D03*
X194980000Y-117120000D03*
X197070000Y-119330000D03*
X190190000Y-114440000D03*
X188700000Y-84150000D03*
X198050000Y-121570000D03*
X189545190Y-113454810D03*
X188720000Y-88180000D03*
X193750000Y-135460000D03*
X168440000Y-135460000D03*
X188780000Y-94180000D03*
X182350000Y-135460000D03*
X191196174Y-115275508D03*
X196150000Y-135460000D03*
X159030000Y-135460000D03*
X161430000Y-135460000D03*
X160230000Y-135460000D03*
X194950000Y-135460000D03*
X188790000Y-96170000D03*
X189330000Y-110310000D03*
X188690000Y-85170000D03*
X184750000Y-135460000D03*
X187750000Y-135460000D03*
X183550000Y-135460000D03*
X190420000Y-111650000D03*
X186180000Y-108180000D03*
X162630000Y-135460000D03*
X192550000Y-135460000D03*
X185350000Y-135460000D03*
X188790000Y-93170000D03*
X185880000Y-106190000D03*
X157830000Y-135460000D03*
X181150000Y-135460000D03*
X188750000Y-91180000D03*
X188780000Y-92190000D03*
X156630000Y-135460000D03*
X163830000Y-135460000D03*
X190150000Y-135460000D03*
X188720000Y-87180000D03*
X192240000Y-116250000D03*
X186190000Y-109680000D03*
X191350000Y-135460000D03*
X169640000Y-135460000D03*
X188950000Y-135460000D03*
X172040000Y-135460000D03*
X182850000Y-117560000D03*
X188565000Y-80465000D03*
X179960000Y-120680000D03*
X174440000Y-135460000D03*
X182501000Y-80330000D03*
X182910000Y-118920000D03*
X188770000Y-81180000D03*
X180081000Y-81659000D03*
X182940000Y-120170000D03*
X175640000Y-135460000D03*
X183166844Y-116563269D03*
X173240000Y-135460000D03*
X183294657Y-119153542D03*
X197558449Y-116587371D03*
X181298000Y-89426000D03*
X189216566Y-94289142D03*
X152110000Y-100938500D03*
X153630000Y-135060000D03*
X117860000Y-89435002D03*
X154830000Y-135860000D03*
X189236303Y-93227587D03*
X116330000Y-113200000D03*
X117900000Y-84424998D03*
X115130000Y-110300000D03*
X115730000Y-104300000D03*
X147590000Y-108480000D03*
X154230000Y-135060000D03*
X191360000Y-114830000D03*
X155430000Y-134660000D03*
X185977505Y-83119829D03*
X153630000Y-135460000D03*
X185870288Y-89108816D03*
X151450000Y-126670000D03*
X154830000Y-135460000D03*
X147736000Y-79213500D03*
X150000000Y-130490000D03*
X115130000Y-113800000D03*
X189137396Y-85218367D03*
X151230000Y-136260000D03*
X134390000Y-107890000D03*
X115130000Y-109700000D03*
X154230000Y-135860000D03*
X187398000Y-89426000D03*
X116330000Y-109700000D03*
X153630000Y-135860000D03*
X194985886Y-117585507D03*
X115130000Y-104900000D03*
X150030000Y-135460000D03*
X189118911Y-82211319D03*
X115130000Y-100800000D03*
X155430000Y-135460000D03*
X179723138Y-120297379D03*
X187398000Y-83426000D03*
X136780000Y-107860000D03*
X151230000Y-134660000D03*
X147230000Y-109290000D03*
X149320000Y-109790000D03*
X147790000Y-111680000D03*
X154230000Y-136260000D03*
X149680000Y-113300000D03*
X189200000Y-84180000D03*
X130670000Y-107860000D03*
X189181024Y-91309307D03*
X116330000Y-104900000D03*
X140040000Y-107860000D03*
X155430000Y-135860000D03*
X151230000Y-135460000D03*
X151450000Y-127960000D03*
X190030000Y-112980000D03*
X150030000Y-135060000D03*
X190677308Y-111280819D03*
X154830000Y-135060000D03*
X115730000Y-109700000D03*
X185542177Y-105892716D03*
X116330000Y-113800000D03*
X191402884Y-110363885D03*
X185368259Y-95077667D03*
X198192304Y-121143091D03*
X157736000Y-79213500D03*
X154230000Y-134660000D03*
X183080151Y-117004842D03*
X182642632Y-119832253D03*
X146157552Y-108617539D03*
X115130000Y-101400000D03*
X115730000Y-104900000D03*
X197095673Y-118880730D03*
X148345137Y-108884725D03*
X148787663Y-110780074D03*
X186225416Y-109231393D03*
X149980000Y-126560000D03*
X192540687Y-113555270D03*
X115130000Y-113200000D03*
X115130000Y-104300000D03*
X196492875Y-115208557D03*
X189239808Y-96156770D03*
X116330000Y-110900000D03*
X148590000Y-112480000D03*
X154830000Y-134660000D03*
X115730000Y-113200000D03*
X189466182Y-107988441D03*
X150030000Y-134660000D03*
X150030000Y-135860000D03*
X151230000Y-135060000D03*
X149660000Y-111240000D03*
X116330000Y-110300000D03*
X189230003Y-92190000D03*
X115730000Y-110300000D03*
X156736000Y-80213500D03*
X115730000Y-110900000D03*
X115730000Y-100800000D03*
X185955486Y-96251323D03*
X155430000Y-135060000D03*
X189129839Y-90275100D03*
X129190000Y-107860000D03*
X198233879Y-118086020D03*
X115130000Y-110900000D03*
X158736000Y-80213500D03*
X115130000Y-103700000D03*
X146736000Y-80213500D03*
X115730000Y-101400000D03*
X189162556Y-88261524D03*
X150000000Y-115980000D03*
X153060000Y-126620000D03*
X148736000Y-80213500D03*
X151230000Y-135860000D03*
X190757975Y-109509957D03*
X153630000Y-136260000D03*
X187398000Y-95426000D03*
X184163624Y-93064568D03*
X149990000Y-120710000D03*
X183380000Y-92090000D03*
X153030000Y-128000000D03*
X145680000Y-109410000D03*
X181298000Y-83426000D03*
X115730000Y-103700000D03*
X150030000Y-136260000D03*
X116330000Y-104300000D03*
X117869364Y-85575002D03*
X190559181Y-114697308D03*
X186180000Y-107660000D03*
X144640000Y-108150000D03*
X117840000Y-88284998D03*
X155430000Y-136260000D03*
X154230000Y-135460000D03*
X116330000Y-100200000D03*
X183360000Y-117620000D03*
X196009115Y-114254490D03*
X189161729Y-87265892D03*
X185348736Y-93581747D03*
X116330000Y-101400000D03*
X115730000Y-100200000D03*
X153630000Y-134660000D03*
X115730000Y-113800000D03*
X115730000Y-114400000D03*
X147910000Y-110300000D03*
X115130000Y-100200000D03*
X189756909Y-110167696D03*
X189175260Y-86245160D03*
X190056214Y-108956654D03*
X192148703Y-112333257D03*
X116330000Y-100800000D03*
X115130000Y-114400000D03*
X142130000Y-107840000D03*
X146580000Y-110150000D03*
X116330000Y-103700000D03*
X116330000Y-114400000D03*
X192655810Y-116077941D03*
X154830000Y-136260000D03*
X198787412Y-119685075D03*
X186394770Y-85748426D03*
X182367446Y-115558072D03*
X186409854Y-84678465D03*
X186427975Y-87637336D03*
X186391717Y-86806976D03*
X151821000Y-134883500D03*
X152430000Y-135460000D03*
X152431000Y-134863500D03*
X151841000Y-136143500D03*
X151830000Y-135460000D03*
X152431000Y-135973500D03*
X169660000Y-95650000D03*
X177540000Y-129440000D03*
X188750000Y-116250000D03*
X172140000Y-106810000D03*
X177910000Y-95470000D03*
X182320000Y-94670000D03*
X166980000Y-108270000D03*
X167090000Y-103980000D03*
X194970000Y-132100000D03*
X178940000Y-106860000D03*
X156620000Y-119440000D03*
X188979647Y-133082560D03*
X166020000Y-107490000D03*
X167280000Y-115850000D03*
X158976448Y-117219559D03*
X191376441Y-130820704D03*
X199270000Y-128900000D03*
X171010000Y-96070000D03*
X184080000Y-126870000D03*
X156670000Y-108780000D03*
X158310000Y-103290000D03*
X162680000Y-132470000D03*
X180910000Y-113680000D03*
X175320000Y-95890000D03*
X170840000Y-132480000D03*
X174990000Y-122270000D03*
X187443030Y-109918737D03*
X161400000Y-119640000D03*
X197670000Y-125900000D03*
X176590000Y-90620000D03*
X166550000Y-94900000D03*
X183580000Y-98470000D03*
X189867109Y-128442362D03*
X181100000Y-128280000D03*
X175080000Y-86530000D03*
X186840000Y-100080000D03*
X163040000Y-108640000D03*
X160260000Y-115370000D03*
X173520608Y-114867380D03*
X169610065Y-110202170D03*
X197760000Y-130840000D03*
X156690000Y-132110000D03*
X171870000Y-110550000D03*
X170550000Y-127900000D03*
X169020000Y-128930000D03*
X162610000Y-123010000D03*
X192405532Y-118059984D03*
X187760000Y-116660000D03*
X167734834Y-120767497D03*
X183501141Y-131705755D03*
X182230000Y-85620000D03*
X196590000Y-120620000D03*
X191170623Y-119020469D03*
X169655802Y-131584380D03*
X182000000Y-93060000D03*
X168420000Y-132110000D03*
X163070000Y-98540000D03*
X174710000Y-90670000D03*
X165950000Y-101070000D03*
X173550000Y-129060000D03*
X181000000Y-102820000D03*
X182510000Y-130880000D03*
X197710000Y-120390000D03*
X177180000Y-86210000D03*
X169110000Y-116630000D03*
X199080000Y-123310000D03*
X193870000Y-131600000D03*
X176540000Y-112030000D03*
X164172133Y-123438955D03*
X162840000Y-113540000D03*
X185250865Y-96917908D03*
X185770000Y-114330000D03*
X178940000Y-100150000D03*
X196290000Y-129240000D03*
X194920000Y-127370000D03*
X183380000Y-86670000D03*
X161220000Y-104210000D03*
X170570000Y-92960000D03*
X165836734Y-124495091D03*
X157970000Y-131920000D03*
X185755000Y-120120000D03*
X170430000Y-106530000D03*
X157718671Y-116693580D03*
X189200000Y-111840000D03*
X159182266Y-131741166D03*
X160165619Y-128996926D03*
X162520000Y-101300000D03*
X181370000Y-121040000D03*
X157720000Y-126300000D03*
X182330000Y-125460000D03*
X186642626Y-121124387D03*
X157790000Y-110340000D03*
X175030000Y-118640000D03*
X158884973Y-108689544D03*
X179610000Y-91700000D03*
X189730000Y-116570000D03*
X171550000Y-90120000D03*
X161560000Y-105760000D03*
X165750000Y-115260000D03*
X164500000Y-129750000D03*
X194400000Y-117560000D03*
X185120000Y-84630000D03*
X184980000Y-131950000D03*
X158953580Y-123073939D03*
X194532318Y-126041151D03*
X177340000Y-121050000D03*
X187850000Y-132700000D03*
X192131108Y-126452787D03*
X176670000Y-100450000D03*
X171000000Y-100420000D03*
X171640000Y-101660000D03*
X175800000Y-93660000D03*
X174770000Y-100200000D03*
X165110000Y-100460000D03*
X192470000Y-131690000D03*
X187810000Y-127980000D03*
X168050000Y-101140000D03*
X188800000Y-122870000D03*
X161420000Y-129890000D03*
X177790000Y-124680000D03*
X178970000Y-122700000D03*
X196000000Y-127760000D03*
X163790000Y-105420000D03*
X186180000Y-81470000D03*
X182410000Y-81170000D03*
X117735000Y-88860000D03*
X117725000Y-85000000D03*
X118173500Y-109598500D03*
X119373500Y-111998500D03*
X119973500Y-111998500D03*
X118773500Y-111998500D03*
X118773500Y-109598500D03*
X120573500Y-109598500D03*
X119973500Y-111398500D03*
X119373500Y-110798500D03*
X119373500Y-108998500D03*
X118173500Y-112513500D03*
X120573500Y-108998500D03*
X118173500Y-111398500D03*
X118773500Y-113113500D03*
X118773500Y-110798500D03*
X120573500Y-112513500D03*
X118773500Y-108998500D03*
X120573500Y-113113500D03*
X120573500Y-111398500D03*
X119973500Y-110198500D03*
X119373500Y-110198500D03*
X118773500Y-111398500D03*
X120573500Y-110198500D03*
X119373500Y-114313500D03*
X119373500Y-109598500D03*
X120573500Y-114313500D03*
X118773500Y-114313500D03*
X118173500Y-111998500D03*
X118773500Y-110198500D03*
X118773500Y-112513500D03*
X119373500Y-114913500D03*
X118773500Y-113713500D03*
X119373500Y-111398500D03*
X118773500Y-114913500D03*
X120573500Y-110798500D03*
X119973500Y-108998500D03*
X118173500Y-110798500D03*
X118173500Y-113113500D03*
X119973500Y-109598500D03*
X119973500Y-113713500D03*
X118173500Y-114913500D03*
X120573500Y-113713500D03*
X119973500Y-113113500D03*
X120573500Y-111998500D03*
X119973500Y-112513500D03*
X119373500Y-113713500D03*
X119373500Y-112513500D03*
X118173500Y-108998500D03*
X118173500Y-110198500D03*
X119973500Y-114313500D03*
X119373500Y-113113500D03*
X119973500Y-110798500D03*
X118173500Y-114313500D03*
X118173500Y-113713500D03*
X119973500Y-114913500D03*
X120573500Y-103013500D03*
X119373500Y-100113500D03*
X118173500Y-100113500D03*
X119973500Y-101313500D03*
X119973500Y-105413500D03*
X118173500Y-104213500D03*
X118173500Y-101313500D03*
X120573500Y-100113500D03*
X119373500Y-104213500D03*
X118173500Y-104813500D03*
X118773500Y-100113500D03*
X119973500Y-99513500D03*
X120573500Y-100713500D03*
X118773500Y-102513500D03*
X118773500Y-104213500D03*
X119373500Y-105413500D03*
X118173500Y-102513500D03*
X119373500Y-102513500D03*
X119973500Y-104213500D03*
X118773500Y-101313500D03*
X118773500Y-104813500D03*
X119373500Y-101913500D03*
X118773500Y-103613500D03*
X118773500Y-99513500D03*
X120573500Y-101913500D03*
X120573500Y-104213500D03*
X119373500Y-99513500D03*
X119973500Y-103013500D03*
X119373500Y-103013500D03*
X118173500Y-105413500D03*
X118773500Y-100713500D03*
X119373500Y-103613500D03*
X119373500Y-104813500D03*
X119973500Y-103613500D03*
X119973500Y-102513500D03*
X120573500Y-104813500D03*
X118773500Y-101913500D03*
X118173500Y-101913500D03*
X120573500Y-101313500D03*
X119973500Y-104813500D03*
X118173500Y-103013500D03*
X120573500Y-102513500D03*
X119973500Y-101913500D03*
X118173500Y-99513500D03*
X118173500Y-100713500D03*
X119373500Y-100713500D03*
X120573500Y-105413500D03*
X120573500Y-103613500D03*
X119373500Y-101313500D03*
X119973500Y-100713500D03*
X118773500Y-105413500D03*
X118173500Y-103613500D03*
X118773500Y-103013500D03*
X119973500Y-100113500D03*
D26*
X156030000Y-104670000D02*
X178510000Y-82190000D01*
X156030000Y-135460000D02*
X156030000Y-104670000D01*
X178510000Y-82190000D02*
X188660000Y-82190000D01*
X188660000Y-82190000D02*
X188670000Y-82180000D01*
X163230000Y-109290000D02*
X182340000Y-90180000D01*
X163230000Y-135460000D02*
X163230000Y-109290000D01*
X182340000Y-90180000D02*
X188690000Y-90180000D01*
X159630000Y-106550000D02*
X180000000Y-86180000D01*
X180000000Y-86180000D02*
X188730000Y-86180000D01*
X159630000Y-135460000D02*
X159630000Y-106550000D01*
X196230000Y-118370000D02*
X196230000Y-126910000D01*
X194350000Y-128790000D02*
X194350000Y-135460000D01*
X196230000Y-126910000D02*
X194350000Y-128790000D01*
X194980000Y-117120000D02*
X196230000Y-118370000D01*
X197070000Y-119330000D02*
X197070000Y-127570000D01*
X195550000Y-129090000D02*
X195550000Y-135460000D01*
X197070000Y-127570000D02*
X195550000Y-129090000D01*
X191800000Y-120920000D02*
X191800000Y-125700000D01*
X190750000Y-126750000D02*
X190750000Y-135460000D01*
X190120000Y-114510000D02*
X190120000Y-119240000D01*
X191800000Y-125700000D02*
X190750000Y-126750000D01*
X190190000Y-114440000D02*
X190120000Y-114510000D01*
X190120000Y-119240000D02*
X191800000Y-120920000D01*
X157230000Y-105320000D02*
X157230000Y-135460000D01*
X188700000Y-84150000D02*
X178400000Y-84150000D01*
X178400000Y-84150000D02*
X157230000Y-105320000D01*
X198050000Y-121570000D02*
X198050000Y-128450000D01*
X196750000Y-129750000D02*
X196750000Y-135460000D01*
X198050000Y-128450000D02*
X196750000Y-129750000D01*
X189190000Y-113810000D02*
X189190000Y-131750000D01*
X189550000Y-132110000D02*
X189550000Y-135460000D01*
X189190000Y-131750000D02*
X189550000Y-132110000D01*
X189545190Y-113454810D02*
X189190000Y-113810000D01*
X162030000Y-135460000D02*
X162030000Y-108160000D01*
X182010000Y-88180000D02*
X188720000Y-88180000D01*
X162030000Y-108160000D02*
X182010000Y-88180000D01*
X171440000Y-135460000D02*
X171440000Y-127590000D01*
X170060000Y-109740000D02*
X185620000Y-94180000D01*
X185620000Y-94180000D02*
X188780000Y-94180000D01*
X170060000Y-126210000D02*
X170060000Y-109740000D01*
X171440000Y-127590000D02*
X170060000Y-126210000D01*
X194530000Y-121250000D02*
X194530000Y-125410000D01*
X191196174Y-115275508D02*
X191180000Y-115291682D01*
X191180000Y-115291682D02*
X191180000Y-117900000D01*
X191180000Y-117900000D02*
X194530000Y-121250000D01*
X194530000Y-125410000D02*
X191950000Y-127990000D01*
X191950000Y-127990000D02*
X191950000Y-135460000D01*
D27*
X151946647Y-127896647D02*
X152720000Y-128670000D01*
X152720000Y-128670000D02*
X152720000Y-130840000D01*
X151946647Y-127310000D02*
X151946647Y-127896647D01*
X152720000Y-130840000D02*
X153030000Y-131150000D01*
X153030000Y-131150000D02*
X153030000Y-135460000D01*
D26*
X183800000Y-120170000D02*
X183800000Y-101160000D01*
X181750000Y-135460000D02*
X181750000Y-122220000D01*
X181750000Y-122220000D02*
X183800000Y-120170000D01*
X183800000Y-101160000D02*
X188790000Y-96170000D01*
X187150000Y-112490000D02*
X187150000Y-135460000D01*
X189330000Y-110310000D02*
X187150000Y-112490000D01*
X158430000Y-135460000D02*
X158430000Y-105970000D01*
X179230000Y-85170000D02*
X188690000Y-85170000D01*
X158430000Y-105970000D02*
X179230000Y-85170000D01*
X188350000Y-113720000D02*
X188350000Y-135460000D01*
X190420000Y-111650000D02*
X188350000Y-113720000D01*
X186180000Y-108180000D02*
X185430000Y-108930000D01*
X184150000Y-130390000D02*
X184150000Y-135460000D01*
X185430000Y-129110000D02*
X184150000Y-130390000D01*
X185430000Y-108930000D02*
X185430000Y-129110000D01*
X170240000Y-128870000D02*
X168640000Y-127270000D01*
X170240000Y-135460000D02*
X170240000Y-128870000D01*
X184840000Y-93170000D02*
X188790000Y-93170000D01*
X168640000Y-127270000D02*
X168640000Y-109370000D01*
X168640000Y-109370000D02*
X184840000Y-93170000D01*
X185880000Y-106190000D02*
X184670000Y-107400000D01*
X184670000Y-120610000D02*
X182950000Y-122330000D01*
X182950000Y-122330000D02*
X182950000Y-135460000D01*
X184670000Y-107400000D02*
X184670000Y-120610000D01*
X164960000Y-128240000D02*
X164960000Y-109380000D01*
X167840000Y-135460000D02*
X167840000Y-131120000D01*
X167840000Y-131120000D02*
X164960000Y-128240000D01*
X183160000Y-91180000D02*
X188750000Y-91180000D01*
X164960000Y-109380000D02*
X183160000Y-91180000D01*
X169040000Y-135460000D02*
X169040000Y-130060000D01*
X169040000Y-130060000D02*
X166660000Y-127680000D01*
X183940000Y-92190000D02*
X188780000Y-92190000D01*
X166660000Y-109470000D02*
X183940000Y-92190000D01*
X166660000Y-127680000D02*
X166660000Y-109470000D01*
D27*
X150630000Y-128190000D02*
X150630000Y-135460000D01*
X150946646Y-127310000D02*
X150946646Y-127873354D01*
X150946646Y-127873354D02*
X150630000Y-128190000D01*
D26*
X160830000Y-135460000D02*
X160830000Y-107340000D01*
X160830000Y-107340000D02*
X180990000Y-87180000D01*
X180990000Y-87180000D02*
X188720000Y-87180000D01*
X192240000Y-116250000D02*
X192240000Y-117020000D01*
X192240000Y-117020000D02*
X195460000Y-120240000D01*
X195460000Y-126160000D02*
X193150000Y-128470000D01*
X195460000Y-120240000D02*
X195460000Y-126160000D01*
X193150000Y-128470000D02*
X193150000Y-135460000D01*
X185950000Y-132810000D02*
X185950000Y-135460000D01*
X186190000Y-109680000D02*
X186190000Y-132570000D01*
X186190000Y-132570000D02*
X185950000Y-132810000D01*
X182850000Y-117560000D02*
X182716000Y-117694000D01*
X182716000Y-117694000D02*
X176886000Y-117694000D01*
X173840000Y-132990000D02*
X173840000Y-135460000D01*
X176886000Y-117694000D02*
X174180000Y-120400000D01*
X174180000Y-132650000D02*
X173840000Y-132990000D01*
X174180000Y-120400000D02*
X174180000Y-132650000D01*
D27*
X188611000Y-80419000D02*
X188611000Y-79608500D01*
X188565000Y-80465000D02*
X188611000Y-80419000D01*
D26*
X179960000Y-120680000D02*
X180550000Y-121270000D01*
X180550000Y-121270000D02*
X180550000Y-135460000D01*
D27*
X182501000Y-80330000D02*
X182501000Y-79608500D01*
D26*
X175730000Y-120820000D02*
X175730000Y-132200000D01*
X175040000Y-132890000D02*
X175040000Y-135460000D01*
X182910000Y-118920000D02*
X182694000Y-118704000D01*
X177846000Y-118704000D02*
X175730000Y-120820000D01*
X182694000Y-118704000D02*
X177846000Y-118704000D01*
X175730000Y-132200000D02*
X175040000Y-132890000D01*
D27*
X187401000Y-79608500D02*
X187401000Y-79961000D01*
X187401000Y-79961000D02*
X188620000Y-81180000D01*
X188620000Y-81180000D02*
X188770000Y-81180000D01*
X180081000Y-81659000D02*
X180081000Y-79608500D01*
D26*
X182416731Y-116563269D02*
X182300000Y-116680000D01*
X172640000Y-132210000D02*
X172640000Y-135460000D01*
X176170000Y-116680000D02*
X172910000Y-119940000D01*
X172910000Y-131940000D02*
X172640000Y-132210000D01*
X182300000Y-116680000D02*
X176170000Y-116680000D01*
X183166844Y-116563269D02*
X182416731Y-116563269D01*
X172910000Y-119940000D02*
X172910000Y-131940000D01*
D27*
X123920000Y-114045000D02*
X123980000Y-114105000D01*
D28*
X123687000Y-114107000D02*
X123702000Y-114092000D01*
D29*
X123687000Y-100147000D02*
X123702000Y-100162000D01*
D27*
X186191000Y-81459000D02*
X186180000Y-81470000D01*
X186191000Y-79608500D02*
X186191000Y-81459000D01*
X181291000Y-79608500D02*
X181291000Y-80051000D01*
X181291000Y-80051000D02*
X182410000Y-81170000D01*
D26*
X119072500Y-113442500D02*
X118930000Y-113300000D01*
D29*
X119072500Y-116220000D02*
X119072500Y-113442500D01*
D26*
X118972500Y-100514500D02*
X118773500Y-100713500D01*
D29*
X118972500Y-98230000D02*
X118972500Y-100514500D01*
X117202500Y-116265000D02*
X115690000Y-116265000D01*
X117127500Y-98210000D02*
X115527500Y-98210000D01*
X117147500Y-98230000D02*
X117127500Y-98210000D01*
%TA.AperFunction,Conductor*%
G36*
X198832396Y-76650736D02*
G01*
X198971417Y-76664428D01*
X198980839Y-76666302D01*
X199112205Y-76706151D01*
X199121072Y-76709824D01*
X199186123Y-76744595D01*
X199242144Y-76774539D01*
X199250130Y-76779875D01*
X199356245Y-76866961D01*
X199363038Y-76873754D01*
X199450124Y-76979869D01*
X199455460Y-76987855D01*
X199520173Y-77108923D01*
X199523849Y-77117798D01*
X199563697Y-77249161D01*
X199565571Y-77258582D01*
X199579264Y-77397603D01*
X199579500Y-77402406D01*
X199579500Y-130397593D01*
X199579264Y-130402396D01*
X199565571Y-130541417D01*
X199563697Y-130550838D01*
X199523849Y-130682201D01*
X199520173Y-130691076D01*
X199455460Y-130812144D01*
X199450124Y-130820130D01*
X199363038Y-130926245D01*
X199356245Y-130933038D01*
X199250130Y-131020124D01*
X199242144Y-131025460D01*
X199121076Y-131090173D01*
X199112201Y-131093849D01*
X198980838Y-131133697D01*
X198971417Y-131135571D01*
X198832396Y-131149264D01*
X198827593Y-131149500D01*
X198492467Y-131149500D01*
X198389316Y-131167687D01*
X198320062Y-131179899D01*
X198320061Y-131179899D01*
X198320057Y-131179900D01*
X198155556Y-131239774D01*
X198155548Y-131239778D01*
X198003945Y-131327307D01*
X198003939Y-131327312D01*
X197869838Y-131439835D01*
X197869835Y-131439838D01*
X197757312Y-131573939D01*
X197757307Y-131573945D01*
X197669778Y-131725548D01*
X197669774Y-131725556D01*
X197609900Y-131890057D01*
X197579500Y-132062467D01*
X197579500Y-136525943D01*
X197565148Y-136560591D01*
X196990591Y-137135148D01*
X196955943Y-137149500D01*
X180344057Y-137149500D01*
X180309409Y-137135148D01*
X179734851Y-136560590D01*
X179720499Y-136525942D01*
X179720499Y-131758319D01*
X179721844Y-131749521D01*
X179721693Y-131749502D01*
X179722245Y-131745248D01*
X179720550Y-131707948D01*
X179720499Y-131705723D01*
X179720499Y-131662674D01*
X179719557Y-131657938D01*
X179719889Y-131657871D01*
X179717817Y-131648584D01*
X179714706Y-131581107D01*
X179668650Y-131345271D01*
X179588449Y-131118759D01*
X179475843Y-130906487D01*
X179333274Y-130713059D01*
X179313154Y-130692826D01*
X179163843Y-130542678D01*
X178971212Y-130399030D01*
X178971210Y-130399029D01*
X178971209Y-130399028D01*
X178759569Y-130285238D01*
X178759564Y-130285236D01*
X178759560Y-130285234D01*
X178533512Y-130203775D01*
X178533506Y-130203773D01*
X178297937Y-130156402D01*
X178105949Y-130146601D01*
X178057954Y-130144151D01*
X178057953Y-130144151D01*
X177818779Y-130167286D01*
X177585600Y-130225304D01*
X177363474Y-130316948D01*
X177363470Y-130316950D01*
X177157214Y-130440234D01*
X176971307Y-130592478D01*
X176809785Y-130770378D01*
X176676145Y-130970080D01*
X176573291Y-131187253D01*
X176503458Y-131417174D01*
X176468160Y-131654845D01*
X176468159Y-131654854D01*
X176468082Y-131775016D01*
X176468082Y-131819168D01*
X176468756Y-131822991D01*
X176469500Y-131831500D01*
X176469500Y-136525943D01*
X176455148Y-136560591D01*
X175880591Y-137135148D01*
X175845943Y-137149500D01*
X167634057Y-137149500D01*
X167599409Y-137135148D01*
X167024852Y-136560591D01*
X167010500Y-136525943D01*
X167010500Y-131222163D01*
X167010500Y-131222157D01*
X166974783Y-131019596D01*
X166904434Y-130826315D01*
X166864386Y-130756950D01*
X166801594Y-130648190D01*
X166801591Y-130648186D01*
X166669379Y-130490621D01*
X166511814Y-130358409D01*
X166511813Y-130358408D01*
X166511809Y-130358405D01*
X166333691Y-130255569D01*
X166333683Y-130255565D01*
X166140408Y-130185218D01*
X166140405Y-130185217D01*
X166140404Y-130185217D01*
X165937843Y-130149500D01*
X165732157Y-130149500D01*
X165732156Y-130149500D01*
X165610952Y-130170871D01*
X165529596Y-130185217D01*
X165529595Y-130185217D01*
X165529591Y-130185218D01*
X165336316Y-130255565D01*
X165336308Y-130255569D01*
X165158190Y-130358405D01*
X165000621Y-130490621D01*
X164868405Y-130648190D01*
X164765569Y-130826308D01*
X164765565Y-130826316D01*
X164695218Y-131019591D01*
X164695217Y-131019595D01*
X164695217Y-131019596D01*
X164688903Y-131055405D01*
X164659500Y-131222156D01*
X164659500Y-136525943D01*
X164645148Y-136560591D01*
X164070591Y-137135148D01*
X164035943Y-137149500D01*
X147424057Y-137149500D01*
X147389409Y-137135148D01*
X146814852Y-136560591D01*
X146800500Y-136525943D01*
X146800500Y-134475745D01*
X147339500Y-134475745D01*
X147339500Y-134475746D01*
X147339500Y-134475748D01*
X147339500Y-136444251D01*
X147339501Y-136444254D01*
X147350843Y-136501280D01*
X147350843Y-136501281D01*
X147350844Y-136501282D01*
X147394052Y-136565949D01*
X147458718Y-136609156D01*
X147458720Y-136609157D01*
X147515745Y-136620500D01*
X147744254Y-136620499D01*
X147801280Y-136609157D01*
X147865948Y-136565948D01*
X147889257Y-136531061D01*
X147920438Y-136510226D01*
X147957220Y-136517541D01*
X147970741Y-136531061D01*
X147994052Y-136565949D01*
X148058718Y-136609156D01*
X148058720Y-136609157D01*
X148115745Y-136620500D01*
X148344254Y-136620499D01*
X148401280Y-136609157D01*
X148465948Y-136565948D01*
X148489257Y-136531061D01*
X148520438Y-136510226D01*
X148557220Y-136517541D01*
X148570741Y-136531061D01*
X148594052Y-136565949D01*
X148658718Y-136609156D01*
X148658720Y-136609157D01*
X148715745Y-136620500D01*
X148944254Y-136620499D01*
X149001280Y-136609157D01*
X149065948Y-136565948D01*
X149089257Y-136531061D01*
X149120438Y-136510226D01*
X149157220Y-136517541D01*
X149170741Y-136531061D01*
X149194052Y-136565949D01*
X149258718Y-136609156D01*
X149258720Y-136609157D01*
X149315745Y-136620500D01*
X149544254Y-136620499D01*
X149601280Y-136609157D01*
X149665948Y-136565948D01*
X149669528Y-136560591D01*
X149698292Y-136517541D01*
X149709157Y-136501280D01*
X149720500Y-136444255D01*
X149720499Y-134475746D01*
X149720499Y-134475745D01*
X150339500Y-134475745D01*
X150339500Y-134475746D01*
X150339500Y-134475748D01*
X150339500Y-136444251D01*
X150339501Y-136444254D01*
X150350843Y-136501280D01*
X150350843Y-136501281D01*
X150350844Y-136501282D01*
X150394052Y-136565949D01*
X150458718Y-136609156D01*
X150458720Y-136609157D01*
X150515745Y-136620500D01*
X150744254Y-136620499D01*
X150801280Y-136609157D01*
X150865948Y-136565948D01*
X150869528Y-136560591D01*
X150898292Y-136517541D01*
X150909157Y-136501280D01*
X150920500Y-136444255D01*
X150920499Y-134475746D01*
X150909157Y-134418720D01*
X150865948Y-134354052D01*
X150865947Y-134354051D01*
X150865943Y-134354048D01*
X150852276Y-134344915D01*
X150831441Y-134313732D01*
X150830500Y-134304174D01*
X150830500Y-128293346D01*
X150844852Y-128258698D01*
X151116620Y-127986930D01*
X151116622Y-127986928D01*
X151147146Y-127913236D01*
X151147146Y-127833472D01*
X151147146Y-127773319D01*
X151161498Y-127738671D01*
X151168926Y-127732575D01*
X151169103Y-127732457D01*
X151169203Y-127732307D01*
X151191314Y-127699216D01*
X151191315Y-127699212D01*
X151191590Y-127697833D01*
X151197146Y-127669899D01*
X151197145Y-126950102D01*
X151197144Y-126950095D01*
X151696147Y-126950095D01*
X151696147Y-127669894D01*
X151696148Y-127669898D01*
X151701703Y-127697832D01*
X151701978Y-127699213D01*
X151709144Y-127709939D01*
X151724190Y-127732457D01*
X151724363Y-127732573D01*
X151724481Y-127732749D01*
X151727603Y-127735871D01*
X151726982Y-127736491D01*
X151745204Y-127763752D01*
X151746147Y-127773319D01*
X151746147Y-127856765D01*
X151746147Y-127936529D01*
X151776671Y-128010221D01*
X151776672Y-128010222D01*
X151776672Y-128010223D01*
X152505148Y-128738698D01*
X152519500Y-128773346D01*
X152519500Y-130800118D01*
X152519500Y-130879882D01*
X152550024Y-130953574D01*
X152550025Y-130953575D01*
X152550025Y-130953576D01*
X152815148Y-131218698D01*
X152829500Y-131253346D01*
X152829500Y-134304174D01*
X152815148Y-134338822D01*
X152807724Y-134344915D01*
X152794056Y-134354048D01*
X152794051Y-134354052D01*
X152750843Y-134418719D01*
X152750843Y-134418720D01*
X152739500Y-134475745D01*
X152739500Y-134475746D01*
X152739500Y-134475748D01*
X152739500Y-136444251D01*
X152739501Y-136444254D01*
X152750843Y-136501280D01*
X152750843Y-136501281D01*
X152750844Y-136501282D01*
X152794052Y-136565949D01*
X152858718Y-136609156D01*
X152858720Y-136609157D01*
X152915745Y-136620500D01*
X153144254Y-136620499D01*
X153201280Y-136609157D01*
X153265948Y-136565948D01*
X153269528Y-136560591D01*
X153298292Y-136517541D01*
X153309157Y-136501280D01*
X153320500Y-136444255D01*
X153320499Y-134475746D01*
X153320499Y-134475745D01*
X155739500Y-134475745D01*
X155739500Y-134475746D01*
X155739500Y-134475748D01*
X155739500Y-136444251D01*
X155739501Y-136444254D01*
X155750843Y-136501280D01*
X155750843Y-136501281D01*
X155750844Y-136501282D01*
X155794052Y-136565949D01*
X155858718Y-136609156D01*
X155858720Y-136609157D01*
X155915745Y-136620500D01*
X156144254Y-136620499D01*
X156201280Y-136609157D01*
X156265948Y-136565948D01*
X156289257Y-136531061D01*
X156320438Y-136510226D01*
X156357220Y-136517541D01*
X156370741Y-136531061D01*
X156394052Y-136565949D01*
X156458718Y-136609156D01*
X156458720Y-136609157D01*
X156515745Y-136620500D01*
X156744254Y-136620499D01*
X156801280Y-136609157D01*
X156865948Y-136565948D01*
X156889257Y-136531061D01*
X156920438Y-136510226D01*
X156957220Y-136517541D01*
X156970741Y-136531061D01*
X156994052Y-136565949D01*
X157058718Y-136609156D01*
X157058720Y-136609157D01*
X157115745Y-136620500D01*
X157344254Y-136620499D01*
X157401280Y-136609157D01*
X157465948Y-136565948D01*
X157489257Y-136531061D01*
X157520438Y-136510226D01*
X157557220Y-136517541D01*
X157570741Y-136531061D01*
X157594052Y-136565949D01*
X157658718Y-136609156D01*
X157658720Y-136609157D01*
X157715745Y-136620500D01*
X157944254Y-136620499D01*
X158001280Y-136609157D01*
X158065948Y-136565948D01*
X158089257Y-136531061D01*
X158120438Y-136510226D01*
X158157220Y-136517541D01*
X158170741Y-136531061D01*
X158194052Y-136565949D01*
X158258718Y-136609156D01*
X158258720Y-136609157D01*
X158315745Y-136620500D01*
X158544254Y-136620499D01*
X158601280Y-136609157D01*
X158665948Y-136565948D01*
X158689257Y-136531061D01*
X158720438Y-136510226D01*
X158757220Y-136517541D01*
X158770741Y-136531061D01*
X158794052Y-136565949D01*
X158858718Y-136609156D01*
X158858720Y-136609157D01*
X158915745Y-136620500D01*
X159144254Y-136620499D01*
X159201280Y-136609157D01*
X159265948Y-136565948D01*
X159289257Y-136531061D01*
X159320438Y-136510226D01*
X159357220Y-136517541D01*
X159370741Y-136531061D01*
X159394052Y-136565949D01*
X159458718Y-136609156D01*
X159458720Y-136609157D01*
X159515745Y-136620500D01*
X159744254Y-136620499D01*
X159801280Y-136609157D01*
X159865948Y-136565948D01*
X159889257Y-136531061D01*
X159920438Y-136510226D01*
X159957220Y-136517541D01*
X159970741Y-136531061D01*
X159994052Y-136565949D01*
X160058718Y-136609156D01*
X160058720Y-136609157D01*
X160115745Y-136620500D01*
X160344254Y-136620499D01*
X160401280Y-136609157D01*
X160465948Y-136565948D01*
X160489257Y-136531061D01*
X160520438Y-136510226D01*
X160557220Y-136517541D01*
X160570741Y-136531061D01*
X160594052Y-136565949D01*
X160658718Y-136609156D01*
X160658720Y-136609157D01*
X160715745Y-136620500D01*
X160944254Y-136620499D01*
X161001280Y-136609157D01*
X161065948Y-136565948D01*
X161089257Y-136531061D01*
X161120438Y-136510226D01*
X161157220Y-136517541D01*
X161170741Y-136531061D01*
X161194052Y-136565949D01*
X161258718Y-136609156D01*
X161258720Y-136609157D01*
X161315745Y-136620500D01*
X161544254Y-136620499D01*
X161601280Y-136609157D01*
X161665948Y-136565948D01*
X161689257Y-136531061D01*
X161720438Y-136510226D01*
X161757220Y-136517541D01*
X161770741Y-136531061D01*
X161794052Y-136565949D01*
X161858718Y-136609156D01*
X161858720Y-136609157D01*
X161915745Y-136620500D01*
X162144254Y-136620499D01*
X162201280Y-136609157D01*
X162265948Y-136565948D01*
X162289257Y-136531061D01*
X162320438Y-136510226D01*
X162357220Y-136517541D01*
X162370741Y-136531061D01*
X162394052Y-136565949D01*
X162458718Y-136609156D01*
X162458720Y-136609157D01*
X162515745Y-136620500D01*
X162744254Y-136620499D01*
X162801280Y-136609157D01*
X162865948Y-136565948D01*
X162889257Y-136531061D01*
X162920438Y-136510226D01*
X162957220Y-136517541D01*
X162970741Y-136531061D01*
X162994052Y-136565949D01*
X163058718Y-136609156D01*
X163058720Y-136609157D01*
X163115745Y-136620500D01*
X163344254Y-136620499D01*
X163401280Y-136609157D01*
X163465948Y-136565948D01*
X163489257Y-136531061D01*
X163520438Y-136510226D01*
X163557220Y-136517541D01*
X163570741Y-136531061D01*
X163594052Y-136565949D01*
X163658718Y-136609156D01*
X163658720Y-136609157D01*
X163715745Y-136620500D01*
X163944254Y-136620499D01*
X164001280Y-136609157D01*
X164065948Y-136565948D01*
X164069528Y-136560591D01*
X164098292Y-136517541D01*
X164109157Y-136501280D01*
X164120500Y-136444255D01*
X164120499Y-134475746D01*
X164109157Y-134418720D01*
X164065948Y-134354052D01*
X164065947Y-134354050D01*
X164001281Y-134310843D01*
X163989875Y-134308574D01*
X163944255Y-134299500D01*
X163944251Y-134299500D01*
X163715748Y-134299500D01*
X163686011Y-134305415D01*
X163658720Y-134310843D01*
X163658719Y-134310843D01*
X163658717Y-134310844D01*
X163594051Y-134354051D01*
X163570742Y-134388938D01*
X163539560Y-134409773D01*
X163502777Y-134402457D01*
X163489258Y-134388938D01*
X163465948Y-134354051D01*
X163402277Y-134311509D01*
X163381442Y-134280327D01*
X163380500Y-134270767D01*
X163380500Y-109372635D01*
X163389850Y-109350062D01*
X164809500Y-109350062D01*
X164809500Y-128269936D01*
X164818990Y-128292848D01*
X164832412Y-128325252D01*
X164832413Y-128325254D01*
X167675148Y-131167987D01*
X167689500Y-131202635D01*
X167689500Y-134270767D01*
X167675148Y-134305415D01*
X167667723Y-134311509D01*
X167604050Y-134354052D01*
X167560843Y-134418718D01*
X167560843Y-134418720D01*
X167549500Y-134475745D01*
X167549500Y-134475746D01*
X167549500Y-134475748D01*
X167549500Y-136444251D01*
X167549501Y-136444254D01*
X167560843Y-136501280D01*
X167560843Y-136501281D01*
X167560844Y-136501282D01*
X167604052Y-136565949D01*
X167668718Y-136609156D01*
X167668720Y-136609157D01*
X167725745Y-136620500D01*
X167954254Y-136620499D01*
X168011280Y-136609157D01*
X168075948Y-136565948D01*
X168099257Y-136531061D01*
X168130438Y-136510226D01*
X168167220Y-136517541D01*
X168180741Y-136531061D01*
X168204052Y-136565949D01*
X168268718Y-136609156D01*
X168268720Y-136609157D01*
X168325745Y-136620500D01*
X168554254Y-136620499D01*
X168611280Y-136609157D01*
X168675948Y-136565948D01*
X168699257Y-136531061D01*
X168730438Y-136510226D01*
X168767220Y-136517541D01*
X168780741Y-136531061D01*
X168804052Y-136565949D01*
X168868718Y-136609156D01*
X168868720Y-136609157D01*
X168925745Y-136620500D01*
X169154254Y-136620499D01*
X169211280Y-136609157D01*
X169275948Y-136565948D01*
X169299257Y-136531061D01*
X169330438Y-136510226D01*
X169367220Y-136517541D01*
X169380741Y-136531061D01*
X169404052Y-136565949D01*
X169468718Y-136609156D01*
X169468720Y-136609157D01*
X169525745Y-136620500D01*
X169754254Y-136620499D01*
X169811280Y-136609157D01*
X169875948Y-136565948D01*
X169899257Y-136531061D01*
X169930438Y-136510226D01*
X169967220Y-136517541D01*
X169980741Y-136531061D01*
X170004052Y-136565949D01*
X170068718Y-136609156D01*
X170068720Y-136609157D01*
X170125745Y-136620500D01*
X170354254Y-136620499D01*
X170411280Y-136609157D01*
X170475948Y-136565948D01*
X170499257Y-136531061D01*
X170530438Y-136510226D01*
X170567220Y-136517541D01*
X170580741Y-136531061D01*
X170604052Y-136565949D01*
X170668718Y-136609156D01*
X170668720Y-136609157D01*
X170725745Y-136620500D01*
X170954254Y-136620499D01*
X171011280Y-136609157D01*
X171075948Y-136565948D01*
X171099257Y-136531061D01*
X171130438Y-136510226D01*
X171167220Y-136517541D01*
X171180741Y-136531061D01*
X171204052Y-136565949D01*
X171268718Y-136609156D01*
X171268720Y-136609157D01*
X171325745Y-136620500D01*
X171554254Y-136620499D01*
X171611280Y-136609157D01*
X171675948Y-136565948D01*
X171699257Y-136531061D01*
X171730438Y-136510226D01*
X171767220Y-136517541D01*
X171780741Y-136531061D01*
X171804052Y-136565949D01*
X171868718Y-136609156D01*
X171868720Y-136609157D01*
X171925745Y-136620500D01*
X172154254Y-136620499D01*
X172211280Y-136609157D01*
X172275948Y-136565948D01*
X172299257Y-136531061D01*
X172330438Y-136510226D01*
X172367220Y-136517541D01*
X172380741Y-136531061D01*
X172404052Y-136565949D01*
X172468718Y-136609156D01*
X172468720Y-136609157D01*
X172525745Y-136620500D01*
X172754254Y-136620499D01*
X172811280Y-136609157D01*
X172875948Y-136565948D01*
X172899257Y-136531061D01*
X172930438Y-136510226D01*
X172967220Y-136517541D01*
X172980741Y-136531061D01*
X173004052Y-136565949D01*
X173068718Y-136609156D01*
X173068720Y-136609157D01*
X173125745Y-136620500D01*
X173354254Y-136620499D01*
X173411280Y-136609157D01*
X173475948Y-136565948D01*
X173499257Y-136531061D01*
X173530438Y-136510226D01*
X173567220Y-136517541D01*
X173580741Y-136531061D01*
X173604052Y-136565949D01*
X173668718Y-136609156D01*
X173668720Y-136609157D01*
X173725745Y-136620500D01*
X173954254Y-136620499D01*
X174011280Y-136609157D01*
X174075948Y-136565948D01*
X174099257Y-136531061D01*
X174130438Y-136510226D01*
X174167220Y-136517541D01*
X174180741Y-136531061D01*
X174204052Y-136565949D01*
X174268718Y-136609156D01*
X174268720Y-136609157D01*
X174325745Y-136620500D01*
X174554254Y-136620499D01*
X174611280Y-136609157D01*
X174675948Y-136565948D01*
X174699257Y-136531061D01*
X174730438Y-136510226D01*
X174767220Y-136517541D01*
X174780741Y-136531061D01*
X174804052Y-136565949D01*
X174868718Y-136609156D01*
X174868720Y-136609157D01*
X174925745Y-136620500D01*
X175154254Y-136620499D01*
X175211280Y-136609157D01*
X175275948Y-136565948D01*
X175299257Y-136531061D01*
X175330438Y-136510226D01*
X175367220Y-136517541D01*
X175380741Y-136531061D01*
X175404052Y-136565949D01*
X175468718Y-136609156D01*
X175468720Y-136609157D01*
X175525745Y-136620500D01*
X175754254Y-136620499D01*
X175811280Y-136609157D01*
X175875948Y-136565948D01*
X175879528Y-136560591D01*
X175908292Y-136517541D01*
X175919157Y-136501280D01*
X175930500Y-136444255D01*
X175930499Y-134475746D01*
X175919157Y-134418720D01*
X175875948Y-134354052D01*
X175875947Y-134354050D01*
X175811281Y-134310843D01*
X175799875Y-134308574D01*
X175754255Y-134299500D01*
X175754251Y-134299500D01*
X175525748Y-134299500D01*
X175496011Y-134305415D01*
X175468720Y-134310843D01*
X175468719Y-134310843D01*
X175468717Y-134310844D01*
X175404051Y-134354051D01*
X175380742Y-134388938D01*
X175349560Y-134409773D01*
X175312777Y-134402457D01*
X175299258Y-134388938D01*
X175275948Y-134354051D01*
X175212277Y-134311509D01*
X175191442Y-134280327D01*
X175190500Y-134270767D01*
X175190500Y-132972635D01*
X175204852Y-132937987D01*
X175857586Y-132285253D01*
X175857587Y-132285252D01*
X175867840Y-132260499D01*
X175880500Y-132229936D01*
X175880500Y-120902636D01*
X175894852Y-120867988D01*
X176082843Y-120679997D01*
X179679103Y-120679997D01*
X179679103Y-120680002D01*
X179700483Y-120787492D01*
X179761375Y-120878624D01*
X179797312Y-120902636D01*
X179852505Y-120939515D01*
X179860569Y-120941119D01*
X179874011Y-120945912D01*
X179874948Y-120946410D01*
X179874950Y-120946411D01*
X179973408Y-120976042D01*
X179974915Y-120976484D01*
X179975224Y-120976572D01*
X179976500Y-120976926D01*
X180027237Y-120990689D01*
X180043690Y-120998692D01*
X180080431Y-121026075D01*
X180080434Y-121026078D01*
X180098993Y-121039912D01*
X180098994Y-121039913D01*
X180098995Y-121039913D01*
X180100985Y-121041396D01*
X180110107Y-121046148D01*
X180122117Y-121054957D01*
X180385148Y-121317988D01*
X180399500Y-121352636D01*
X180399500Y-134270767D01*
X180385148Y-134305415D01*
X180377723Y-134311509D01*
X180314050Y-134354052D01*
X180270843Y-134418718D01*
X180270843Y-134418720D01*
X180259500Y-134475745D01*
X180259500Y-134475746D01*
X180259500Y-134475748D01*
X180259500Y-136444251D01*
X180259501Y-136444254D01*
X180270843Y-136501280D01*
X180270843Y-136501281D01*
X180270844Y-136501282D01*
X180314052Y-136565949D01*
X180378718Y-136609156D01*
X180378720Y-136609157D01*
X180435745Y-136620500D01*
X180664254Y-136620499D01*
X180721280Y-136609157D01*
X180785948Y-136565948D01*
X180809257Y-136531061D01*
X180840438Y-136510226D01*
X180877220Y-136517541D01*
X180890741Y-136531061D01*
X180914052Y-136565949D01*
X180978718Y-136609156D01*
X180978720Y-136609157D01*
X181035745Y-136620500D01*
X181264254Y-136620499D01*
X181321280Y-136609157D01*
X181385948Y-136565948D01*
X181409257Y-136531061D01*
X181440438Y-136510226D01*
X181477220Y-136517541D01*
X181490741Y-136531061D01*
X181514052Y-136565949D01*
X181578718Y-136609156D01*
X181578720Y-136609157D01*
X181635745Y-136620500D01*
X181864254Y-136620499D01*
X181921280Y-136609157D01*
X181985948Y-136565948D01*
X182009257Y-136531061D01*
X182040438Y-136510226D01*
X182077220Y-136517541D01*
X182090741Y-136531061D01*
X182114052Y-136565949D01*
X182178718Y-136609156D01*
X182178720Y-136609157D01*
X182235745Y-136620500D01*
X182464254Y-136620499D01*
X182521280Y-136609157D01*
X182585948Y-136565948D01*
X182609257Y-136531061D01*
X182640438Y-136510226D01*
X182677220Y-136517541D01*
X182690741Y-136531061D01*
X182714052Y-136565949D01*
X182778718Y-136609156D01*
X182778720Y-136609157D01*
X182835745Y-136620500D01*
X183064254Y-136620499D01*
X183121280Y-136609157D01*
X183185948Y-136565948D01*
X183209257Y-136531061D01*
X183240438Y-136510226D01*
X183277220Y-136517541D01*
X183290741Y-136531061D01*
X183314052Y-136565949D01*
X183378718Y-136609156D01*
X183378720Y-136609157D01*
X183435745Y-136620500D01*
X183664254Y-136620499D01*
X183721280Y-136609157D01*
X183785948Y-136565948D01*
X183809257Y-136531061D01*
X183840438Y-136510226D01*
X183877220Y-136517541D01*
X183890741Y-136531061D01*
X183914052Y-136565949D01*
X183978718Y-136609156D01*
X183978720Y-136609157D01*
X184035745Y-136620500D01*
X184264254Y-136620499D01*
X184321280Y-136609157D01*
X184385948Y-136565948D01*
X184409257Y-136531061D01*
X184440438Y-136510226D01*
X184477220Y-136517541D01*
X184490741Y-136531061D01*
X184514052Y-136565949D01*
X184578718Y-136609156D01*
X184578720Y-136609157D01*
X184635745Y-136620500D01*
X184864254Y-136620499D01*
X184921280Y-136609157D01*
X184985948Y-136565948D01*
X185009257Y-136531061D01*
X185040438Y-136510226D01*
X185077220Y-136517541D01*
X185090741Y-136531061D01*
X185114052Y-136565949D01*
X185178718Y-136609156D01*
X185178720Y-136609157D01*
X185235745Y-136620500D01*
X185464254Y-136620499D01*
X185521280Y-136609157D01*
X185585948Y-136565948D01*
X185609257Y-136531061D01*
X185640438Y-136510226D01*
X185677220Y-136517541D01*
X185690741Y-136531061D01*
X185714052Y-136565949D01*
X185778718Y-136609156D01*
X185778720Y-136609157D01*
X185835745Y-136620500D01*
X186064254Y-136620499D01*
X186121280Y-136609157D01*
X186185948Y-136565948D01*
X186209257Y-136531061D01*
X186240438Y-136510226D01*
X186277220Y-136517541D01*
X186290741Y-136531061D01*
X186314052Y-136565949D01*
X186378718Y-136609156D01*
X186378720Y-136609157D01*
X186435745Y-136620500D01*
X186664254Y-136620499D01*
X186721280Y-136609157D01*
X186785948Y-136565948D01*
X186809257Y-136531061D01*
X186840438Y-136510226D01*
X186877220Y-136517541D01*
X186890741Y-136531061D01*
X186914052Y-136565949D01*
X186978718Y-136609156D01*
X186978720Y-136609157D01*
X187035745Y-136620500D01*
X187264254Y-136620499D01*
X187321280Y-136609157D01*
X187385948Y-136565948D01*
X187409257Y-136531061D01*
X187440438Y-136510226D01*
X187477220Y-136517541D01*
X187490741Y-136531061D01*
X187514052Y-136565949D01*
X187578718Y-136609156D01*
X187578720Y-136609157D01*
X187635745Y-136620500D01*
X187864254Y-136620499D01*
X187921280Y-136609157D01*
X187985948Y-136565948D01*
X188009257Y-136531061D01*
X188040438Y-136510226D01*
X188077220Y-136517541D01*
X188090741Y-136531061D01*
X188114052Y-136565949D01*
X188178718Y-136609156D01*
X188178720Y-136609157D01*
X188235745Y-136620500D01*
X188464254Y-136620499D01*
X188521280Y-136609157D01*
X188585948Y-136565948D01*
X188609257Y-136531061D01*
X188640438Y-136510226D01*
X188677220Y-136517541D01*
X188690741Y-136531061D01*
X188714052Y-136565949D01*
X188778718Y-136609156D01*
X188778720Y-136609157D01*
X188835745Y-136620500D01*
X189064254Y-136620499D01*
X189121280Y-136609157D01*
X189185948Y-136565948D01*
X189209257Y-136531061D01*
X189240438Y-136510226D01*
X189277220Y-136517541D01*
X189290741Y-136531061D01*
X189314052Y-136565949D01*
X189378718Y-136609156D01*
X189378720Y-136609157D01*
X189435745Y-136620500D01*
X189664254Y-136620499D01*
X189721280Y-136609157D01*
X189785948Y-136565948D01*
X189809257Y-136531061D01*
X189840438Y-136510226D01*
X189877220Y-136517541D01*
X189890741Y-136531061D01*
X189914052Y-136565949D01*
X189978718Y-136609156D01*
X189978720Y-136609157D01*
X190035745Y-136620500D01*
X190264254Y-136620499D01*
X190321280Y-136609157D01*
X190385948Y-136565948D01*
X190409257Y-136531061D01*
X190440438Y-136510226D01*
X190477220Y-136517541D01*
X190490741Y-136531061D01*
X190514052Y-136565949D01*
X190578718Y-136609156D01*
X190578720Y-136609157D01*
X190635745Y-136620500D01*
X190864254Y-136620499D01*
X190921280Y-136609157D01*
X190985948Y-136565948D01*
X191009257Y-136531061D01*
X191040438Y-136510226D01*
X191077220Y-136517541D01*
X191090741Y-136531061D01*
X191114052Y-136565949D01*
X191178718Y-136609156D01*
X191178720Y-136609157D01*
X191235745Y-136620500D01*
X191464254Y-136620499D01*
X191521280Y-136609157D01*
X191585948Y-136565948D01*
X191609257Y-136531061D01*
X191640438Y-136510226D01*
X191677220Y-136517541D01*
X191690741Y-136531061D01*
X191714052Y-136565949D01*
X191778718Y-136609156D01*
X191778720Y-136609157D01*
X191835745Y-136620500D01*
X192064254Y-136620499D01*
X192121280Y-136609157D01*
X192185948Y-136565948D01*
X192209257Y-136531061D01*
X192240438Y-136510226D01*
X192277220Y-136517541D01*
X192290741Y-136531061D01*
X192314052Y-136565949D01*
X192378718Y-136609156D01*
X192378720Y-136609157D01*
X192435745Y-136620500D01*
X192664254Y-136620499D01*
X192721280Y-136609157D01*
X192785948Y-136565948D01*
X192809257Y-136531061D01*
X192840438Y-136510226D01*
X192877220Y-136517541D01*
X192890741Y-136531061D01*
X192914052Y-136565949D01*
X192978718Y-136609156D01*
X192978720Y-136609157D01*
X193035745Y-136620500D01*
X193264254Y-136620499D01*
X193321280Y-136609157D01*
X193385948Y-136565948D01*
X193409257Y-136531061D01*
X193440438Y-136510226D01*
X193477220Y-136517541D01*
X193490741Y-136531061D01*
X193514052Y-136565949D01*
X193578718Y-136609156D01*
X193578720Y-136609157D01*
X193635745Y-136620500D01*
X193864254Y-136620499D01*
X193921280Y-136609157D01*
X193985948Y-136565948D01*
X194009257Y-136531061D01*
X194040438Y-136510226D01*
X194077220Y-136517541D01*
X194090741Y-136531061D01*
X194114052Y-136565949D01*
X194178718Y-136609156D01*
X194178720Y-136609157D01*
X194235745Y-136620500D01*
X194464254Y-136620499D01*
X194521280Y-136609157D01*
X194585948Y-136565948D01*
X194609257Y-136531061D01*
X194640438Y-136510226D01*
X194677220Y-136517541D01*
X194690741Y-136531061D01*
X194714052Y-136565949D01*
X194778718Y-136609156D01*
X194778720Y-136609157D01*
X194835745Y-136620500D01*
X195064254Y-136620499D01*
X195121280Y-136609157D01*
X195185948Y-136565948D01*
X195209257Y-136531061D01*
X195240438Y-136510226D01*
X195277220Y-136517541D01*
X195290741Y-136531061D01*
X195314052Y-136565949D01*
X195378718Y-136609156D01*
X195378720Y-136609157D01*
X195435745Y-136620500D01*
X195664254Y-136620499D01*
X195721280Y-136609157D01*
X195785948Y-136565948D01*
X195809257Y-136531061D01*
X195840438Y-136510226D01*
X195877220Y-136517541D01*
X195890741Y-136531061D01*
X195914052Y-136565949D01*
X195978718Y-136609156D01*
X195978720Y-136609157D01*
X196035745Y-136620500D01*
X196264254Y-136620499D01*
X196321280Y-136609157D01*
X196385948Y-136565948D01*
X196409257Y-136531061D01*
X196440438Y-136510226D01*
X196477220Y-136517541D01*
X196490741Y-136531061D01*
X196514052Y-136565949D01*
X196578718Y-136609156D01*
X196578720Y-136609157D01*
X196635745Y-136620500D01*
X196864254Y-136620499D01*
X196921280Y-136609157D01*
X196985948Y-136565948D01*
X196989528Y-136560591D01*
X197018292Y-136517541D01*
X197029157Y-136501280D01*
X197040500Y-136444255D01*
X197040499Y-134475746D01*
X197029157Y-134418720D01*
X197009258Y-134388938D01*
X196985948Y-134354051D01*
X196922277Y-134311509D01*
X196901442Y-134280327D01*
X196900500Y-134270767D01*
X196900500Y-129832635D01*
X196914852Y-129797987D01*
X197540204Y-129172635D01*
X198177588Y-128535251D01*
X198184739Y-128517987D01*
X198192215Y-128499938D01*
X198192215Y-128499936D01*
X198200500Y-128479936D01*
X198200500Y-121948745D01*
X198203325Y-121932349D01*
X198203989Y-121930476D01*
X198205856Y-121925221D01*
X198216170Y-121854523D01*
X198222146Y-121837232D01*
X198248313Y-121791587D01*
X198248883Y-121790574D01*
X198249127Y-121790139D01*
X198249163Y-121790075D01*
X198249318Y-121789794D01*
X198249873Y-121788775D01*
X198298520Y-121698243D01*
X198300769Y-121693811D01*
X198301249Y-121692807D01*
X198301251Y-121692793D01*
X198301335Y-121692558D01*
X198302151Y-121690919D01*
X198302417Y-121690364D01*
X198302426Y-121690368D01*
X198306862Y-121681464D01*
X198309515Y-121677495D01*
X198330897Y-121570000D01*
X198330897Y-121569997D01*
X198309516Y-121462507D01*
X198248624Y-121371375D01*
X198157492Y-121310483D01*
X198050003Y-121289103D01*
X198049997Y-121289103D01*
X197942507Y-121310483D01*
X197851375Y-121371375D01*
X197790483Y-121462507D01*
X197769103Y-121569997D01*
X197769103Y-121570002D01*
X197790483Y-121677492D01*
X197790485Y-121677495D01*
X197795049Y-121684326D01*
X197801162Y-121697213D01*
X197801473Y-121698231D01*
X197801480Y-121698248D01*
X197850148Y-121788821D01*
X197850982Y-121790344D01*
X197851108Y-121790569D01*
X197851685Y-121791588D01*
X197877853Y-121837238D01*
X197883828Y-121854530D01*
X197894144Y-121925218D01*
X197894146Y-121925227D01*
X197897238Y-121935047D01*
X197899500Y-121949763D01*
X197899500Y-128367363D01*
X197885148Y-128402011D01*
X196622413Y-129664746D01*
X196608990Y-129697149D01*
X196608990Y-129697151D01*
X196599500Y-129720064D01*
X196599500Y-129720065D01*
X196599500Y-134270767D01*
X196585148Y-134305415D01*
X196577723Y-134311509D01*
X196514051Y-134354051D01*
X196490742Y-134388938D01*
X196459560Y-134409773D01*
X196422777Y-134402457D01*
X196409258Y-134388938D01*
X196385947Y-134354050D01*
X196321281Y-134310843D01*
X196309875Y-134308574D01*
X196264255Y-134299500D01*
X196264251Y-134299500D01*
X196035748Y-134299500D01*
X196006011Y-134305415D01*
X195978720Y-134310843D01*
X195978719Y-134310843D01*
X195978717Y-134310844D01*
X195914051Y-134354051D01*
X195890742Y-134388938D01*
X195859560Y-134409773D01*
X195822777Y-134402457D01*
X195809258Y-134388938D01*
X195785948Y-134354051D01*
X195722277Y-134311509D01*
X195701442Y-134280327D01*
X195700500Y-134270767D01*
X195700500Y-129172635D01*
X195714852Y-129137987D01*
X196450828Y-128402011D01*
X197197588Y-127655251D01*
X197204739Y-127637987D01*
X197212215Y-127619938D01*
X197212215Y-127619936D01*
X197213158Y-127617660D01*
X197220500Y-127599936D01*
X197220500Y-119708745D01*
X197223325Y-119692349D01*
X197223989Y-119690476D01*
X197225856Y-119685221D01*
X197236170Y-119614523D01*
X197242146Y-119597232D01*
X197268313Y-119551587D01*
X197268883Y-119550574D01*
X197269127Y-119550139D01*
X197269163Y-119550075D01*
X197269318Y-119549794D01*
X197269873Y-119548775D01*
X197318520Y-119458243D01*
X197320769Y-119453811D01*
X197321249Y-119452807D01*
X197321251Y-119452793D01*
X197321335Y-119452558D01*
X197322151Y-119450919D01*
X197322417Y-119450364D01*
X197322426Y-119450368D01*
X197326862Y-119441464D01*
X197329515Y-119437495D01*
X197350897Y-119330000D01*
X197350897Y-119329997D01*
X197329516Y-119222507D01*
X197268624Y-119131375D01*
X197177492Y-119070483D01*
X197070003Y-119049103D01*
X197069997Y-119049103D01*
X196962507Y-119070483D01*
X196871375Y-119131375D01*
X196810483Y-119222507D01*
X196789103Y-119329997D01*
X196789103Y-119330002D01*
X196810483Y-119437492D01*
X196810485Y-119437495D01*
X196815049Y-119444326D01*
X196821162Y-119457213D01*
X196821473Y-119458231D01*
X196821480Y-119458248D01*
X196870148Y-119548821D01*
X196870982Y-119550344D01*
X196871108Y-119550569D01*
X196871685Y-119551588D01*
X196897853Y-119597238D01*
X196903828Y-119614530D01*
X196914144Y-119685218D01*
X196914146Y-119685227D01*
X196917238Y-119695047D01*
X196919500Y-119709763D01*
X196919500Y-127487364D01*
X196905148Y-127522012D01*
X195422414Y-129004745D01*
X195422411Y-129004750D01*
X195414129Y-129024747D01*
X195414128Y-129024749D01*
X195399500Y-129060062D01*
X195399500Y-134270767D01*
X195385148Y-134305415D01*
X195377723Y-134311509D01*
X195314051Y-134354051D01*
X195290742Y-134388938D01*
X195259560Y-134409773D01*
X195222777Y-134402457D01*
X195209258Y-134388938D01*
X195185947Y-134354050D01*
X195121281Y-134310843D01*
X195109875Y-134308574D01*
X195064255Y-134299500D01*
X195064251Y-134299500D01*
X194835748Y-134299500D01*
X194806011Y-134305415D01*
X194778720Y-134310843D01*
X194778719Y-134310843D01*
X194778717Y-134310844D01*
X194714051Y-134354051D01*
X194690742Y-134388938D01*
X194659560Y-134409773D01*
X194622777Y-134402457D01*
X194609258Y-134388938D01*
X194585948Y-134354051D01*
X194522277Y-134311509D01*
X194501442Y-134280327D01*
X194500500Y-134270767D01*
X194500500Y-128872635D01*
X194514852Y-128837987D01*
X195416312Y-127936527D01*
X196357587Y-126995252D01*
X196364297Y-126979049D01*
X196380500Y-126939936D01*
X196380500Y-118340064D01*
X196371009Y-118317151D01*
X196357588Y-118284748D01*
X196357586Y-118284746D01*
X196357585Y-118284744D01*
X195354231Y-117281391D01*
X195344633Y-117267797D01*
X195341386Y-117260973D01*
X195298688Y-117203685D01*
X195290689Y-117187240D01*
X195276926Y-117136500D01*
X195276572Y-117135224D01*
X195276484Y-117134915D01*
X195276042Y-117133408D01*
X195246411Y-117034950D01*
X195244839Y-117030146D01*
X195244468Y-117029098D01*
X195244467Y-117029097D01*
X195244465Y-117029090D01*
X195244378Y-117028910D01*
X195243966Y-117027682D01*
X195243568Y-117026556D01*
X195243587Y-117026549D01*
X195240439Y-117017152D01*
X195239515Y-117012505D01*
X195189307Y-116937364D01*
X195178624Y-116921375D01*
X195087492Y-116860483D01*
X194980003Y-116839103D01*
X194979997Y-116839103D01*
X194872507Y-116860483D01*
X194781375Y-116921375D01*
X194720483Y-117012507D01*
X194699103Y-117119997D01*
X194699103Y-117120002D01*
X194720483Y-117227492D01*
X194781375Y-117318624D01*
X194817876Y-117343013D01*
X194872505Y-117379515D01*
X194880568Y-117381118D01*
X194894010Y-117385912D01*
X194894389Y-117386113D01*
X194894949Y-117386411D01*
X194953184Y-117403937D01*
X194960952Y-117406275D01*
X194964797Y-117407432D01*
X194969724Y-117408786D01*
X194970813Y-117409057D01*
X194975708Y-117410152D01*
X195042658Y-117423468D01*
X195060320Y-117430785D01*
X195092821Y-117452502D01*
X195109425Y-117463596D01*
X195116850Y-117469690D01*
X196065148Y-118417988D01*
X196079500Y-118452636D01*
X196079500Y-126827363D01*
X196065148Y-126862011D01*
X194222413Y-128704746D01*
X194208990Y-128737149D01*
X194208990Y-128737151D01*
X194202405Y-128753050D01*
X194199500Y-128760065D01*
X194199500Y-134270767D01*
X194185148Y-134305415D01*
X194177723Y-134311509D01*
X194114051Y-134354051D01*
X194090742Y-134388938D01*
X194059560Y-134409773D01*
X194022777Y-134402457D01*
X194009258Y-134388938D01*
X193985947Y-134354050D01*
X193921281Y-134310843D01*
X193909875Y-134308574D01*
X193864255Y-134299500D01*
X193864251Y-134299500D01*
X193635748Y-134299500D01*
X193606011Y-134305415D01*
X193578720Y-134310843D01*
X193578719Y-134310843D01*
X193578717Y-134310844D01*
X193514051Y-134354051D01*
X193490742Y-134388938D01*
X193459560Y-134409773D01*
X193422777Y-134402457D01*
X193409258Y-134388938D01*
X193385948Y-134354051D01*
X193322277Y-134311509D01*
X193301442Y-134280327D01*
X193300500Y-134270767D01*
X193300500Y-128552635D01*
X193314852Y-128517987D01*
X195587585Y-126245254D01*
X195587587Y-126245252D01*
X195600264Y-126214646D01*
X195610500Y-126189936D01*
X195610500Y-120210064D01*
X195599043Y-120182406D01*
X195587588Y-120154749D01*
X193996854Y-118564015D01*
X192404852Y-116972012D01*
X192390500Y-116937364D01*
X192390500Y-116628745D01*
X192393325Y-116612349D01*
X192393989Y-116610476D01*
X192395856Y-116605221D01*
X192406170Y-116534523D01*
X192412146Y-116517232D01*
X192438313Y-116471587D01*
X192438883Y-116470574D01*
X192439127Y-116470139D01*
X192439163Y-116470075D01*
X192439318Y-116469794D01*
X192439873Y-116468775D01*
X192488520Y-116378243D01*
X192490769Y-116373811D01*
X192491249Y-116372807D01*
X192491251Y-116372793D01*
X192491335Y-116372558D01*
X192492151Y-116370919D01*
X192492417Y-116370364D01*
X192492426Y-116370368D01*
X192496862Y-116361464D01*
X192499515Y-116357495D01*
X192520897Y-116250000D01*
X192520897Y-116249997D01*
X192499516Y-116142507D01*
X192438624Y-116051375D01*
X192347492Y-115990483D01*
X192240003Y-115969103D01*
X192239997Y-115969103D01*
X192132507Y-115990483D01*
X192041375Y-116051375D01*
X191980483Y-116142507D01*
X191959103Y-116249997D01*
X191959103Y-116250002D01*
X191980483Y-116357492D01*
X191980485Y-116357495D01*
X191985049Y-116364326D01*
X191991162Y-116377213D01*
X191991473Y-116378231D01*
X191991480Y-116378248D01*
X192040148Y-116468821D01*
X192040982Y-116470344D01*
X192041108Y-116470569D01*
X192041685Y-116471588D01*
X192067853Y-116517238D01*
X192073828Y-116534530D01*
X192084144Y-116605218D01*
X192084146Y-116605227D01*
X192087238Y-116615047D01*
X192089500Y-116629763D01*
X192089500Y-117049936D01*
X192098990Y-117072848D01*
X192112412Y-117105252D01*
X192112413Y-117105254D01*
X195295148Y-120287987D01*
X195309500Y-120322635D01*
X195309500Y-126077363D01*
X195295148Y-126112011D01*
X193022413Y-128384746D01*
X193008990Y-128417149D01*
X193008990Y-128417151D01*
X192999500Y-128440064D01*
X192999500Y-128440065D01*
X192999500Y-134270767D01*
X192985148Y-134305415D01*
X192977723Y-134311509D01*
X192914051Y-134354051D01*
X192890742Y-134388938D01*
X192859560Y-134409773D01*
X192822777Y-134402457D01*
X192809258Y-134388938D01*
X192785947Y-134354050D01*
X192721281Y-134310843D01*
X192709875Y-134308574D01*
X192664255Y-134299500D01*
X192664251Y-134299500D01*
X192435748Y-134299500D01*
X192406011Y-134305415D01*
X192378720Y-134310843D01*
X192378719Y-134310843D01*
X192378717Y-134310844D01*
X192314051Y-134354051D01*
X192290742Y-134388938D01*
X192259560Y-134409773D01*
X192222777Y-134402457D01*
X192209258Y-134388938D01*
X192185948Y-134354051D01*
X192122277Y-134311509D01*
X192101442Y-134280327D01*
X192100500Y-134270767D01*
X192100500Y-128072636D01*
X192114852Y-128037988D01*
X193376026Y-126776814D01*
X194657588Y-125495252D01*
X194666112Y-125474671D01*
X194676403Y-125449827D01*
X194676403Y-125449824D01*
X194680500Y-125439936D01*
X194680500Y-121220064D01*
X194657587Y-121164749D01*
X194657587Y-121164748D01*
X191344852Y-117852012D01*
X191330500Y-117817364D01*
X191330500Y-115653802D01*
X191333962Y-115635711D01*
X191334746Y-115633737D01*
X191335519Y-115631792D01*
X191335666Y-115630993D01*
X191335674Y-115630947D01*
X191347724Y-115565281D01*
X191355829Y-115545954D01*
X191384574Y-115505064D01*
X191387058Y-115501367D01*
X191387588Y-115500541D01*
X191389889Y-115496785D01*
X191389890Y-115496781D01*
X191389903Y-115496762D01*
X191442217Y-115407214D01*
X191445477Y-115401191D01*
X191445485Y-115401177D01*
X191446169Y-115399809D01*
X191446170Y-115399801D01*
X191446192Y-115399746D01*
X191446852Y-115398443D01*
X191447424Y-115397298D01*
X191447430Y-115397301D01*
X191451497Y-115389277D01*
X191455688Y-115383004D01*
X191455689Y-115383003D01*
X191477071Y-115275508D01*
X191477071Y-115275505D01*
X191455690Y-115168015D01*
X191394798Y-115076883D01*
X191303666Y-115015991D01*
X191196177Y-114994611D01*
X191196171Y-114994611D01*
X191088681Y-115015991D01*
X190997549Y-115076883D01*
X190936657Y-115168015D01*
X190915277Y-115275505D01*
X190915277Y-115275510D01*
X190936657Y-115383000D01*
X190939173Y-115386765D01*
X190944482Y-115398436D01*
X190944714Y-115398348D01*
X190945568Y-115400596D01*
X190989079Y-115488129D01*
X190989596Y-115489201D01*
X191011521Y-115536134D01*
X191015816Y-115551372D01*
X191020038Y-115588739D01*
X191020039Y-115588752D01*
X191023992Y-115623744D01*
X191023993Y-115623747D01*
X191027582Y-115636193D01*
X191029500Y-115649769D01*
X191029500Y-117929936D01*
X191038990Y-117952848D01*
X191052412Y-117985252D01*
X191052413Y-117985254D01*
X194365148Y-121297987D01*
X194379500Y-121332635D01*
X194379500Y-125327364D01*
X194365148Y-125362012D01*
X191822414Y-127904745D01*
X191822411Y-127904750D01*
X191809250Y-127936527D01*
X191809249Y-127936529D01*
X191799500Y-127960062D01*
X191799500Y-134270767D01*
X191785148Y-134305415D01*
X191777723Y-134311509D01*
X191714051Y-134354051D01*
X191690742Y-134388938D01*
X191659560Y-134409773D01*
X191622777Y-134402457D01*
X191609258Y-134388938D01*
X191585947Y-134354050D01*
X191521281Y-134310843D01*
X191509875Y-134308574D01*
X191464255Y-134299500D01*
X191464251Y-134299500D01*
X191235748Y-134299500D01*
X191206011Y-134305415D01*
X191178720Y-134310843D01*
X191178719Y-134310843D01*
X191178717Y-134310844D01*
X191114051Y-134354051D01*
X191090742Y-134388938D01*
X191059560Y-134409773D01*
X191022777Y-134402457D01*
X191009258Y-134388938D01*
X190985948Y-134354051D01*
X190922277Y-134311509D01*
X190901442Y-134280327D01*
X190900500Y-134270767D01*
X190900500Y-126832635D01*
X190914852Y-126797987D01*
X191417587Y-126295252D01*
X191927587Y-125785252D01*
X191934297Y-125769049D01*
X191950500Y-125729936D01*
X191950500Y-120890064D01*
X191933878Y-120849936D01*
X191927588Y-120834749D01*
X190284852Y-119192012D01*
X190270500Y-119157364D01*
X190270500Y-114806497D01*
X190274045Y-114788199D01*
X190275471Y-114784657D01*
X190282657Y-114746519D01*
X190294840Y-114722320D01*
X190307779Y-114708335D01*
X190311828Y-114704434D01*
X190354719Y-114667611D01*
X190372925Y-114651981D01*
X190375736Y-114649480D01*
X190376355Y-114648909D01*
X190376361Y-114648899D01*
X190376463Y-114648784D01*
X190377040Y-114648276D01*
X190378289Y-114647125D01*
X190378317Y-114647155D01*
X190386143Y-114640281D01*
X190388624Y-114638624D01*
X190449515Y-114547495D01*
X190465931Y-114464969D01*
X190470897Y-114440002D01*
X190470897Y-114439997D01*
X190449516Y-114332507D01*
X190388624Y-114241375D01*
X190297492Y-114180483D01*
X190190003Y-114159103D01*
X190189997Y-114159103D01*
X190082507Y-114180483D01*
X189991375Y-114241375D01*
X189930483Y-114332507D01*
X189909103Y-114439997D01*
X189909103Y-114440001D01*
X189911032Y-114449699D01*
X189911809Y-114463282D01*
X189911669Y-114464969D01*
X189911670Y-114464973D01*
X189923180Y-114565418D01*
X189923181Y-114565433D01*
X189924316Y-114575340D01*
X189924319Y-114575365D01*
X189925878Y-114585006D01*
X189926325Y-114587137D01*
X189928775Y-114596610D01*
X189928780Y-114596627D01*
X189950698Y-114667611D01*
X189952560Y-114676489D01*
X189963413Y-114771202D01*
X189963999Y-114776312D01*
X189967564Y-114788612D01*
X189969500Y-114802250D01*
X189969500Y-119269936D01*
X189978990Y-119292848D01*
X189992412Y-119325252D01*
X189992413Y-119325254D01*
X191635148Y-120967987D01*
X191649500Y-121002635D01*
X191649500Y-125617363D01*
X191635148Y-125652011D01*
X190622413Y-126664746D01*
X190608990Y-126697149D01*
X190608990Y-126697151D01*
X190599500Y-126720064D01*
X190599500Y-126720065D01*
X190599500Y-134270767D01*
X190585148Y-134305415D01*
X190577723Y-134311509D01*
X190514051Y-134354051D01*
X190490742Y-134388938D01*
X190459560Y-134409773D01*
X190422777Y-134402457D01*
X190409258Y-134388938D01*
X190385947Y-134354050D01*
X190321281Y-134310843D01*
X190309875Y-134308574D01*
X190264255Y-134299500D01*
X190264251Y-134299500D01*
X190035748Y-134299500D01*
X190006011Y-134305415D01*
X189978720Y-134310843D01*
X189978719Y-134310843D01*
X189978717Y-134310844D01*
X189914051Y-134354051D01*
X189890742Y-134388938D01*
X189859560Y-134409773D01*
X189822777Y-134402457D01*
X189809258Y-134388938D01*
X189785948Y-134354051D01*
X189722277Y-134311509D01*
X189701442Y-134280327D01*
X189700500Y-134270767D01*
X189700500Y-132080066D01*
X189700499Y-132080062D01*
X189687840Y-132049501D01*
X189687839Y-132049499D01*
X189683429Y-132038851D01*
X189677588Y-132024748D01*
X189354852Y-131702012D01*
X189340500Y-131667364D01*
X189340500Y-113892635D01*
X189354851Y-113857988D01*
X189374387Y-113838451D01*
X189389524Y-113828151D01*
X189645821Y-113716889D01*
X189646010Y-113717325D01*
X189648347Y-113716467D01*
X189648225Y-113716172D01*
X189652680Y-113714325D01*
X189652685Y-113714325D01*
X189743814Y-113653434D01*
X189804705Y-113562305D01*
X189826087Y-113454810D01*
X189826087Y-113454807D01*
X189804706Y-113347317D01*
X189743814Y-113256185D01*
X189652682Y-113195293D01*
X189545193Y-113173913D01*
X189545187Y-113173913D01*
X189437697Y-113195293D01*
X189346565Y-113256185D01*
X189285674Y-113347316D01*
X189283828Y-113351772D01*
X189283548Y-113351656D01*
X189282717Y-113353934D01*
X189283137Y-113354117D01*
X189185497Y-113579033D01*
X189185497Y-113579035D01*
X189171847Y-113610476D01*
X189161549Y-113625610D01*
X189062412Y-113724748D01*
X189062411Y-113724750D01*
X189053126Y-113747169D01*
X189053125Y-113747171D01*
X189039500Y-113780062D01*
X189039500Y-131779936D01*
X189048990Y-131802848D01*
X189062412Y-131835252D01*
X189062413Y-131835254D01*
X189385148Y-132157988D01*
X189399500Y-132192636D01*
X189399500Y-134270767D01*
X189385148Y-134305415D01*
X189377723Y-134311509D01*
X189314051Y-134354051D01*
X189290742Y-134388938D01*
X189259560Y-134409773D01*
X189222777Y-134402457D01*
X189209258Y-134388938D01*
X189185947Y-134354050D01*
X189121281Y-134310843D01*
X189109875Y-134308574D01*
X189064255Y-134299500D01*
X189064251Y-134299500D01*
X188835748Y-134299500D01*
X188806011Y-134305415D01*
X188778720Y-134310843D01*
X188778719Y-134310843D01*
X188778717Y-134310844D01*
X188714051Y-134354051D01*
X188690742Y-134388938D01*
X188659560Y-134409773D01*
X188622777Y-134402457D01*
X188609258Y-134388938D01*
X188585948Y-134354051D01*
X188522277Y-134311509D01*
X188501442Y-134280327D01*
X188500500Y-134270767D01*
X188500500Y-113802634D01*
X188514851Y-113767987D01*
X190258608Y-112024229D01*
X190272201Y-112014633D01*
X190279025Y-112011387D01*
X190336310Y-111968690D01*
X190352757Y-111960690D01*
X190403498Y-111946926D01*
X190404774Y-111946572D01*
X190405083Y-111946484D01*
X190406590Y-111946042D01*
X190505049Y-111916411D01*
X190509853Y-111914839D01*
X190510901Y-111914468D01*
X190510910Y-111914461D01*
X190511074Y-111914384D01*
X190512258Y-111913987D01*
X190513442Y-111913568D01*
X190513449Y-111913588D01*
X190522842Y-111910440D01*
X190527495Y-111909515D01*
X190618624Y-111848624D01*
X190679515Y-111757495D01*
X190687523Y-111717239D01*
X190700897Y-111650002D01*
X190700897Y-111649997D01*
X190679516Y-111542507D01*
X190679513Y-111542503D01*
X190659126Y-111511991D01*
X190618624Y-111451375D01*
X190527492Y-111390483D01*
X190420003Y-111369103D01*
X190419997Y-111369103D01*
X190312507Y-111390483D01*
X190221375Y-111451375D01*
X190160485Y-111542503D01*
X190160484Y-111542505D01*
X190158880Y-111550568D01*
X190154095Y-111563992D01*
X190153589Y-111564942D01*
X190153586Y-111564951D01*
X190136019Y-111623324D01*
X190136019Y-111623325D01*
X190123971Y-111663354D01*
X190123506Y-111664934D01*
X190123468Y-111665071D01*
X190123086Y-111666442D01*
X190109306Y-111717239D01*
X190101304Y-111733691D01*
X190058611Y-111790976D01*
X190058610Y-111790977D01*
X190053848Y-111800114D01*
X190045045Y-111812113D01*
X188222414Y-113634745D01*
X188222411Y-113634750D01*
X188214674Y-113653432D01*
X188214673Y-113653434D01*
X188199500Y-113690062D01*
X188199500Y-134270767D01*
X188185148Y-134305415D01*
X188177723Y-134311509D01*
X188114051Y-134354051D01*
X188090742Y-134388938D01*
X188059560Y-134409773D01*
X188022777Y-134402457D01*
X188009258Y-134388938D01*
X187985947Y-134354050D01*
X187921281Y-134310843D01*
X187909875Y-134308574D01*
X187864255Y-134299500D01*
X187864251Y-134299500D01*
X187635748Y-134299500D01*
X187606011Y-134305415D01*
X187578720Y-134310843D01*
X187578719Y-134310843D01*
X187578717Y-134310844D01*
X187514051Y-134354051D01*
X187490742Y-134388938D01*
X187459560Y-134409773D01*
X187422777Y-134402457D01*
X187409258Y-134388938D01*
X187385948Y-134354051D01*
X187322277Y-134311509D01*
X187301442Y-134280327D01*
X187300500Y-134270767D01*
X187300500Y-112572634D01*
X187314851Y-112537987D01*
X189168608Y-110684229D01*
X189182201Y-110674633D01*
X189189025Y-110671387D01*
X189246310Y-110628690D01*
X189262757Y-110620690D01*
X189313498Y-110606926D01*
X189314774Y-110606572D01*
X189315083Y-110606484D01*
X189316590Y-110606042D01*
X189415049Y-110576411D01*
X189419853Y-110574839D01*
X189420901Y-110574468D01*
X189420910Y-110574461D01*
X189421074Y-110574384D01*
X189422258Y-110573987D01*
X189423442Y-110573568D01*
X189423449Y-110573588D01*
X189432842Y-110570440D01*
X189437495Y-110569515D01*
X189528624Y-110508624D01*
X189589515Y-110417495D01*
X189597523Y-110377239D01*
X189610897Y-110310002D01*
X189610897Y-110309997D01*
X189589516Y-110202507D01*
X189589513Y-110202503D01*
X189569126Y-110171991D01*
X189528624Y-110111375D01*
X189437492Y-110050483D01*
X189330003Y-110029103D01*
X189329997Y-110029103D01*
X189222507Y-110050483D01*
X189131375Y-110111375D01*
X189070485Y-110202503D01*
X189070484Y-110202505D01*
X189068880Y-110210568D01*
X189064095Y-110223992D01*
X189063589Y-110224942D01*
X189063586Y-110224951D01*
X189046019Y-110283324D01*
X189046019Y-110283325D01*
X189033971Y-110323354D01*
X189033506Y-110324934D01*
X189033468Y-110325071D01*
X189033086Y-110326442D01*
X189019306Y-110377239D01*
X189011304Y-110393691D01*
X188968611Y-110450976D01*
X188968610Y-110450977D01*
X188963848Y-110460114D01*
X188955045Y-110472113D01*
X187022414Y-112404745D01*
X187022411Y-112404750D01*
X187012155Y-112429513D01*
X187012154Y-112429515D01*
X186999500Y-112460062D01*
X186999500Y-134270767D01*
X186985148Y-134305415D01*
X186977723Y-134311509D01*
X186914051Y-134354051D01*
X186890742Y-134388938D01*
X186859560Y-134409773D01*
X186822777Y-134402457D01*
X186809258Y-134388938D01*
X186785947Y-134354050D01*
X186721281Y-134310843D01*
X186709875Y-134308574D01*
X186664255Y-134299500D01*
X186664251Y-134299500D01*
X186435748Y-134299500D01*
X186406011Y-134305415D01*
X186378720Y-134310843D01*
X186378719Y-134310843D01*
X186378717Y-134310844D01*
X186314051Y-134354051D01*
X186290742Y-134388938D01*
X186259560Y-134409773D01*
X186222777Y-134402457D01*
X186209258Y-134388938D01*
X186185948Y-134354051D01*
X186122277Y-134311509D01*
X186101442Y-134280327D01*
X186100500Y-134270767D01*
X186100500Y-132892635D01*
X186114852Y-132857987D01*
X186317585Y-132655254D01*
X186317587Y-132655252D01*
X186332162Y-132620064D01*
X186340500Y-132599936D01*
X186340500Y-110058745D01*
X186343325Y-110042349D01*
X186343989Y-110040476D01*
X186345856Y-110035221D01*
X186356170Y-109964523D01*
X186362146Y-109947232D01*
X186388313Y-109901587D01*
X186388883Y-109900574D01*
X186389127Y-109900139D01*
X186389163Y-109900075D01*
X186389318Y-109899794D01*
X186389873Y-109898775D01*
X186438520Y-109808243D01*
X186440769Y-109803811D01*
X186441249Y-109802807D01*
X186441251Y-109802793D01*
X186441335Y-109802558D01*
X186442151Y-109800919D01*
X186442417Y-109800364D01*
X186442426Y-109800368D01*
X186446862Y-109791464D01*
X186449515Y-109787495D01*
X186464917Y-109710064D01*
X186470897Y-109680002D01*
X186470897Y-109679997D01*
X186449516Y-109572507D01*
X186388624Y-109481375D01*
X186297492Y-109420483D01*
X186190003Y-109399103D01*
X186189997Y-109399103D01*
X186082507Y-109420483D01*
X185991375Y-109481375D01*
X185930483Y-109572507D01*
X185909103Y-109679997D01*
X185909103Y-109680002D01*
X185930483Y-109787492D01*
X185930485Y-109787495D01*
X185935049Y-109794326D01*
X185941162Y-109807213D01*
X185941473Y-109808231D01*
X185941480Y-109808248D01*
X185990148Y-109898821D01*
X185990982Y-109900344D01*
X185991108Y-109900569D01*
X185991685Y-109901588D01*
X186017853Y-109947238D01*
X186023828Y-109964530D01*
X186034144Y-110035218D01*
X186034146Y-110035227D01*
X186037238Y-110045047D01*
X186039500Y-110059763D01*
X186039500Y-132487363D01*
X186025148Y-132522011D01*
X185822413Y-132724746D01*
X185808990Y-132757149D01*
X185808990Y-132757151D01*
X185799500Y-132780064D01*
X185799500Y-132780065D01*
X185799500Y-134270767D01*
X185785148Y-134305415D01*
X185777723Y-134311509D01*
X185714051Y-134354051D01*
X185690742Y-134388938D01*
X185659560Y-134409773D01*
X185622777Y-134402457D01*
X185609258Y-134388938D01*
X185585947Y-134354050D01*
X185521281Y-134310843D01*
X185509875Y-134308574D01*
X185464255Y-134299500D01*
X185464251Y-134299500D01*
X185235748Y-134299500D01*
X185206011Y-134305415D01*
X185178720Y-134310843D01*
X185178719Y-134310843D01*
X185178717Y-134310844D01*
X185114051Y-134354051D01*
X185090742Y-134388938D01*
X185059560Y-134409773D01*
X185022777Y-134402457D01*
X185009258Y-134388938D01*
X184985947Y-134354050D01*
X184921281Y-134310843D01*
X184909875Y-134308574D01*
X184864255Y-134299500D01*
X184864251Y-134299500D01*
X184635748Y-134299500D01*
X184606011Y-134305415D01*
X184578720Y-134310843D01*
X184578719Y-134310843D01*
X184578717Y-134310844D01*
X184514051Y-134354051D01*
X184490742Y-134388938D01*
X184459560Y-134409773D01*
X184422777Y-134402457D01*
X184409258Y-134388938D01*
X184385948Y-134354051D01*
X184322277Y-134311509D01*
X184301442Y-134280327D01*
X184300500Y-134270767D01*
X184300500Y-130472635D01*
X184314852Y-130437987D01*
X185557585Y-129195254D01*
X185557587Y-129195252D01*
X185565871Y-129175252D01*
X185580500Y-129139936D01*
X185580500Y-109012635D01*
X185594852Y-108977987D01*
X185728094Y-108844745D01*
X186018609Y-108554229D01*
X186032200Y-108544634D01*
X186039025Y-108541387D01*
X186096310Y-108498690D01*
X186112757Y-108490690D01*
X186163498Y-108476926D01*
X186164774Y-108476572D01*
X186165083Y-108476484D01*
X186166590Y-108476042D01*
X186265049Y-108446411D01*
X186269853Y-108444839D01*
X186270901Y-108444468D01*
X186270910Y-108444461D01*
X186271074Y-108444384D01*
X186272258Y-108443987D01*
X186273442Y-108443568D01*
X186273449Y-108443588D01*
X186282842Y-108440440D01*
X186287495Y-108439515D01*
X186378624Y-108378624D01*
X186439515Y-108287495D01*
X186447523Y-108247239D01*
X186460897Y-108180002D01*
X186460897Y-108179997D01*
X186439516Y-108072507D01*
X186439513Y-108072503D01*
X186411718Y-108030904D01*
X186378624Y-107981375D01*
X186287492Y-107920483D01*
X186180003Y-107899103D01*
X186179997Y-107899103D01*
X186072507Y-107920483D01*
X185981375Y-107981375D01*
X185920485Y-108072503D01*
X185920484Y-108072505D01*
X185918880Y-108080568D01*
X185914095Y-108093992D01*
X185913589Y-108094942D01*
X185913586Y-108094951D01*
X185896019Y-108153324D01*
X185896019Y-108153325D01*
X185883971Y-108193354D01*
X185883506Y-108194934D01*
X185883468Y-108195071D01*
X185883086Y-108196442D01*
X185869306Y-108247239D01*
X185861304Y-108263691D01*
X185818609Y-108320978D01*
X185813848Y-108330114D01*
X185805044Y-108342115D01*
X185302414Y-108844745D01*
X185302411Y-108844750D01*
X185297024Y-108857758D01*
X185297023Y-108857760D01*
X185279500Y-108900062D01*
X185279500Y-129027363D01*
X185265148Y-129062011D01*
X184022413Y-130304746D01*
X184008990Y-130337149D01*
X184008990Y-130337151D01*
X183999500Y-130360064D01*
X183999500Y-130360065D01*
X183999500Y-134270767D01*
X183985148Y-134305415D01*
X183977723Y-134311509D01*
X183914051Y-134354051D01*
X183890742Y-134388938D01*
X183859560Y-134409773D01*
X183822777Y-134402457D01*
X183809258Y-134388938D01*
X183785947Y-134354050D01*
X183721281Y-134310843D01*
X183709875Y-134308574D01*
X183664255Y-134299500D01*
X183664251Y-134299500D01*
X183435748Y-134299500D01*
X183406011Y-134305415D01*
X183378720Y-134310843D01*
X183378719Y-134310843D01*
X183378717Y-134310844D01*
X183314051Y-134354051D01*
X183290742Y-134388938D01*
X183259560Y-134409773D01*
X183222777Y-134402457D01*
X183209258Y-134388938D01*
X183185948Y-134354051D01*
X183122277Y-134311509D01*
X183101442Y-134280327D01*
X183100500Y-134270767D01*
X183100500Y-123557001D01*
X183647500Y-123557001D01*
X183647500Y-123694998D01*
X183674417Y-123830318D01*
X183674420Y-123830328D01*
X183727225Y-123957811D01*
X183758137Y-124004074D01*
X183803883Y-124072539D01*
X183901460Y-124170116D01*
X183947102Y-124200613D01*
X184016189Y-124246775D01*
X184143672Y-124299580D01*
X184143678Y-124299581D01*
X184143681Y-124299582D01*
X184279001Y-124326499D01*
X184279007Y-124326500D01*
X184416993Y-124326500D01*
X184552328Y-124299580D01*
X184679811Y-124246775D01*
X184794542Y-124170114D01*
X184892114Y-124072542D01*
X184968775Y-123957811D01*
X185021580Y-123830328D01*
X185048500Y-123694993D01*
X185048500Y-123557007D01*
X185021580Y-123421672D01*
X184968775Y-123294189D01*
X184922613Y-123225102D01*
X184892116Y-123179460D01*
X184794539Y-123081883D01*
X184726074Y-123036137D01*
X184679811Y-123005225D01*
X184679808Y-123005223D01*
X184679807Y-123005223D01*
X184552329Y-122952420D01*
X184552318Y-122952417D01*
X184416998Y-122925500D01*
X184416993Y-122925500D01*
X184279007Y-122925500D01*
X184279001Y-122925500D01*
X184143681Y-122952417D01*
X184143670Y-122952420D01*
X184016192Y-123005223D01*
X183901460Y-123081883D01*
X183803883Y-123179460D01*
X183727223Y-123294192D01*
X183674420Y-123421670D01*
X183674417Y-123421681D01*
X183647500Y-123557001D01*
X183100500Y-123557001D01*
X183100500Y-122412635D01*
X183114852Y-122377987D01*
X184797586Y-120695253D01*
X184797587Y-120695252D01*
X184808254Y-120669500D01*
X184820500Y-120639936D01*
X184820500Y-107482634D01*
X184834851Y-107447987D01*
X185718608Y-106564229D01*
X185732201Y-106554633D01*
X185739025Y-106551387D01*
X185796310Y-106508690D01*
X185812757Y-106500690D01*
X185863498Y-106486926D01*
X185864774Y-106486572D01*
X185865083Y-106486484D01*
X185866590Y-106486042D01*
X185965049Y-106456411D01*
X185969853Y-106454839D01*
X185970901Y-106454468D01*
X185970910Y-106454461D01*
X185971074Y-106454384D01*
X185972258Y-106453987D01*
X185973442Y-106453568D01*
X185973449Y-106453588D01*
X185982842Y-106450440D01*
X185987495Y-106449515D01*
X186078624Y-106388624D01*
X186139515Y-106297495D01*
X186147523Y-106257239D01*
X186160897Y-106190002D01*
X186160897Y-106189997D01*
X186139516Y-106082507D01*
X186139513Y-106082503D01*
X186096405Y-106017987D01*
X186078624Y-105991375D01*
X185987492Y-105930483D01*
X185880003Y-105909103D01*
X185879997Y-105909103D01*
X185772507Y-105930483D01*
X185681375Y-105991375D01*
X185620485Y-106082503D01*
X185620484Y-106082505D01*
X185618880Y-106090568D01*
X185614095Y-106103992D01*
X185613589Y-106104942D01*
X185613586Y-106104951D01*
X185596019Y-106163324D01*
X185596019Y-106163325D01*
X185583971Y-106203354D01*
X185583506Y-106204934D01*
X185583468Y-106205071D01*
X185583086Y-106206442D01*
X185569306Y-106257239D01*
X185561304Y-106273691D01*
X185518609Y-106330978D01*
X185513848Y-106340114D01*
X185505044Y-106352115D01*
X184542413Y-107314746D01*
X184528990Y-107347149D01*
X184528990Y-107347151D01*
X184519500Y-107370064D01*
X184519500Y-107370065D01*
X184519500Y-120527363D01*
X184505148Y-120562011D01*
X182822413Y-122244746D01*
X182808990Y-122277149D01*
X182808990Y-122277151D01*
X182799500Y-122300064D01*
X182799500Y-122300065D01*
X182799500Y-134270767D01*
X182785148Y-134305415D01*
X182777723Y-134311509D01*
X182714051Y-134354051D01*
X182690742Y-134388938D01*
X182659560Y-134409773D01*
X182622777Y-134402457D01*
X182609258Y-134388938D01*
X182585947Y-134354050D01*
X182521281Y-134310843D01*
X182509875Y-134308574D01*
X182464255Y-134299500D01*
X182464251Y-134299500D01*
X182235748Y-134299500D01*
X182206011Y-134305415D01*
X182178720Y-134310843D01*
X182178719Y-134310843D01*
X182178717Y-134310844D01*
X182114051Y-134354051D01*
X182090742Y-134388938D01*
X182059560Y-134409773D01*
X182022777Y-134402457D01*
X182009258Y-134388938D01*
X181985948Y-134354051D01*
X181922277Y-134311509D01*
X181901442Y-134280327D01*
X181900500Y-134270767D01*
X181900500Y-122302635D01*
X181914852Y-122267987D01*
X182893736Y-121289103D01*
X183927588Y-120255251D01*
X183939043Y-120227593D01*
X183950500Y-120199936D01*
X183950500Y-101242634D01*
X183964851Y-101207987D01*
X188628608Y-96544229D01*
X188642201Y-96534633D01*
X188649025Y-96531387D01*
X188706310Y-96488690D01*
X188722757Y-96480690D01*
X188773498Y-96466926D01*
X188774774Y-96466572D01*
X188775083Y-96466484D01*
X188776590Y-96466042D01*
X188875049Y-96436411D01*
X188879853Y-96434839D01*
X188880901Y-96434468D01*
X188880910Y-96434461D01*
X188881074Y-96434384D01*
X188882258Y-96433987D01*
X188883442Y-96433568D01*
X188883449Y-96433588D01*
X188892842Y-96430440D01*
X188897495Y-96429515D01*
X188988624Y-96368624D01*
X189049515Y-96277495D01*
X189057523Y-96237239D01*
X189070897Y-96170002D01*
X189070897Y-96169997D01*
X189049516Y-96062507D01*
X189049513Y-96062503D01*
X189029126Y-96031991D01*
X188988624Y-95971375D01*
X188897492Y-95910483D01*
X188790003Y-95889103D01*
X188789997Y-95889103D01*
X188682507Y-95910483D01*
X188591375Y-95971375D01*
X188530485Y-96062503D01*
X188530484Y-96062505D01*
X188528880Y-96070568D01*
X188524095Y-96083992D01*
X188523589Y-96084942D01*
X188523586Y-96084951D01*
X188506019Y-96143324D01*
X188506019Y-96143325D01*
X188493971Y-96183354D01*
X188493506Y-96184934D01*
X188493468Y-96185071D01*
X188493086Y-96186442D01*
X188479306Y-96237239D01*
X188471304Y-96253691D01*
X188428612Y-96310974D01*
X188428603Y-96310988D01*
X188423847Y-96320115D01*
X188415043Y-96332116D01*
X183672413Y-101074746D01*
X183658990Y-101107149D01*
X183658990Y-101107151D01*
X183649500Y-101130064D01*
X183649500Y-101130065D01*
X183649500Y-120087363D01*
X183635148Y-120122011D01*
X181622413Y-122134746D01*
X181608990Y-122167149D01*
X181608990Y-122167151D01*
X181599500Y-122190064D01*
X181599500Y-122190065D01*
X181599500Y-134270767D01*
X181585148Y-134305415D01*
X181577723Y-134311509D01*
X181514051Y-134354051D01*
X181490742Y-134388938D01*
X181459560Y-134409773D01*
X181422777Y-134402457D01*
X181409258Y-134388938D01*
X181385947Y-134354050D01*
X181321281Y-134310843D01*
X181309875Y-134308574D01*
X181264255Y-134299500D01*
X181264251Y-134299500D01*
X181035748Y-134299500D01*
X181006011Y-134305415D01*
X180978720Y-134310843D01*
X180978719Y-134310843D01*
X180978717Y-134310844D01*
X180914051Y-134354051D01*
X180890742Y-134388938D01*
X180859560Y-134409773D01*
X180822777Y-134402457D01*
X180809258Y-134388938D01*
X180785948Y-134354051D01*
X180722277Y-134311509D01*
X180701442Y-134280327D01*
X180700500Y-134270767D01*
X180700500Y-121240066D01*
X180700499Y-121240062D01*
X180691009Y-121217151D01*
X180691008Y-121217149D01*
X180677588Y-121184749D01*
X180677588Y-121184748D01*
X180677586Y-121184746D01*
X180677585Y-121184744D01*
X180334231Y-120841391D01*
X180324633Y-120827797D01*
X180321386Y-120820973D01*
X180278688Y-120763685D01*
X180270689Y-120747240D01*
X180256926Y-120696500D01*
X180256572Y-120695224D01*
X180256484Y-120694915D01*
X180256042Y-120693408D01*
X180226411Y-120594950D01*
X180224839Y-120590146D01*
X180224468Y-120589098D01*
X180224467Y-120589097D01*
X180224465Y-120589090D01*
X180224378Y-120588910D01*
X180223966Y-120587682D01*
X180223568Y-120586556D01*
X180223587Y-120586549D01*
X180220439Y-120577152D01*
X180219515Y-120572505D01*
X180183013Y-120517876D01*
X180158624Y-120481375D01*
X180067492Y-120420483D01*
X179960003Y-120399103D01*
X179959997Y-120399103D01*
X179852507Y-120420483D01*
X179761375Y-120481375D01*
X179700483Y-120572507D01*
X179679103Y-120679997D01*
X176082843Y-120679997D01*
X176592843Y-120169997D01*
X182659103Y-120169997D01*
X182659103Y-120170002D01*
X182680483Y-120277492D01*
X182741375Y-120368624D01*
X182801991Y-120409126D01*
X182832505Y-120429515D01*
X182832507Y-120429516D01*
X182939997Y-120450897D01*
X182940000Y-120450897D01*
X182940003Y-120450897D01*
X183047492Y-120429516D01*
X183047492Y-120429515D01*
X183047495Y-120429515D01*
X183138624Y-120368624D01*
X183199515Y-120277495D01*
X183203940Y-120255253D01*
X183220897Y-120170002D01*
X183220897Y-120169997D01*
X183199516Y-120062507D01*
X183138624Y-119971375D01*
X183047492Y-119910483D01*
X182940003Y-119889103D01*
X182939997Y-119889103D01*
X182832507Y-119910483D01*
X182741375Y-119971375D01*
X182680483Y-120062507D01*
X182659103Y-120169997D01*
X176592843Y-120169997D01*
X177893988Y-118868852D01*
X177928636Y-118854500D01*
X182577482Y-118854500D01*
X182612130Y-118868852D01*
X182625794Y-118895320D01*
X182628414Y-118910794D01*
X182629102Y-118918957D01*
X182629102Y-118919996D01*
X182634839Y-118948841D01*
X182635092Y-118950216D01*
X182641854Y-118990136D01*
X182641856Y-118990147D01*
X182643904Y-118999156D01*
X182644464Y-119001619D01*
X182644465Y-119001620D01*
X182646033Y-119007089D01*
X182645892Y-119007129D01*
X182647401Y-119011993D01*
X182650484Y-119027492D01*
X182650485Y-119027495D01*
X182711375Y-119118624D01*
X182769354Y-119157364D01*
X182802505Y-119179515D01*
X182802507Y-119179516D01*
X182909997Y-119200897D01*
X182910000Y-119200897D01*
X182910003Y-119200897D01*
X183017492Y-119179516D01*
X183017492Y-119179515D01*
X183017495Y-119179515D01*
X183108624Y-119118624D01*
X183169515Y-119027495D01*
X183176947Y-118990136D01*
X183190897Y-118920002D01*
X183190897Y-118919997D01*
X183169516Y-118812507D01*
X183108624Y-118721375D01*
X183017492Y-118660483D01*
X183014683Y-118659319D01*
X183012242Y-118658229D01*
X182905516Y-118607019D01*
X182903283Y-118605981D01*
X182902708Y-118605722D01*
X182900535Y-118604773D01*
X182864493Y-118589531D01*
X182818203Y-118569955D01*
X182817408Y-118569687D01*
X182803132Y-118564883D01*
X182803118Y-118564879D01*
X182799726Y-118564016D01*
X182799723Y-118564015D01*
X182784078Y-118561268D01*
X182784053Y-118561265D01*
X182736976Y-118556620D01*
X182726777Y-118554064D01*
X182723939Y-118553500D01*
X182723936Y-118553500D01*
X182707751Y-118553500D01*
X182702940Y-118553263D01*
X182672658Y-118550275D01*
X182667527Y-118549895D01*
X182666601Y-118549849D01*
X182666363Y-118549838D01*
X182666362Y-118549838D01*
X182666361Y-118549838D01*
X182649407Y-118552779D01*
X182641033Y-118553500D01*
X177816062Y-118553500D01*
X177797550Y-118561169D01*
X177797316Y-118561266D01*
X177760748Y-118576411D01*
X175602414Y-120734745D01*
X175602411Y-120734750D01*
X175593518Y-120756222D01*
X175593517Y-120756224D01*
X175579500Y-120790062D01*
X175579500Y-132117363D01*
X175565148Y-132152011D01*
X174912413Y-132804746D01*
X174898990Y-132837149D01*
X174898990Y-132837151D01*
X174889500Y-132860064D01*
X174889500Y-132860065D01*
X174889500Y-134270767D01*
X174875148Y-134305415D01*
X174867723Y-134311509D01*
X174804051Y-134354051D01*
X174780742Y-134388938D01*
X174749560Y-134409773D01*
X174712777Y-134402457D01*
X174699258Y-134388938D01*
X174675947Y-134354050D01*
X174611281Y-134310843D01*
X174599875Y-134308574D01*
X174554255Y-134299500D01*
X174554251Y-134299500D01*
X174325748Y-134299500D01*
X174296011Y-134305415D01*
X174268720Y-134310843D01*
X174268719Y-134310843D01*
X174268717Y-134310844D01*
X174204051Y-134354051D01*
X174180742Y-134388938D01*
X174149560Y-134409773D01*
X174112777Y-134402457D01*
X174099258Y-134388938D01*
X174075948Y-134354051D01*
X174012277Y-134311509D01*
X173991442Y-134280327D01*
X173990500Y-134270767D01*
X173990500Y-133072635D01*
X174004852Y-133037987D01*
X174150204Y-132892635D01*
X174307588Y-132735251D01*
X174323188Y-132697587D01*
X174330500Y-132679936D01*
X174330500Y-120482636D01*
X174344852Y-120447988D01*
X176933988Y-117858852D01*
X176968636Y-117844500D01*
X182538712Y-117844500D01*
X182547242Y-117845248D01*
X182569711Y-117849220D01*
X182666637Y-117847146D01*
X182668464Y-117847091D01*
X182668877Y-117847075D01*
X182670773Y-117846984D01*
X182713127Y-117844579D01*
X182715905Y-117844500D01*
X182745935Y-117844500D01*
X182745936Y-117844500D01*
X182745936Y-117844499D01*
X182750670Y-117843558D01*
X182750818Y-117844303D01*
X182759595Y-117842456D01*
X182840870Y-117840719D01*
X182840872Y-117840718D01*
X182842949Y-117840674D01*
X182845486Y-117840897D01*
X182849997Y-117840897D01*
X182849998Y-117840896D01*
X182850000Y-117840897D01*
X182957495Y-117819515D01*
X183048624Y-117758624D01*
X183109515Y-117667495D01*
X183129622Y-117566414D01*
X183130897Y-117560002D01*
X183130897Y-117559997D01*
X183109516Y-117452507D01*
X183109513Y-117452503D01*
X183089126Y-117421991D01*
X183048624Y-117361375D01*
X182957492Y-117300483D01*
X182850003Y-117279103D01*
X182849997Y-117279103D01*
X182742507Y-117300483D01*
X182651378Y-117361373D01*
X182651376Y-117361375D01*
X182632604Y-117389468D01*
X182628424Y-117394867D01*
X182627734Y-117395640D01*
X182627729Y-117395647D01*
X182622842Y-117403937D01*
X182621373Y-117406275D01*
X182590485Y-117452502D01*
X182590485Y-117452503D01*
X182590203Y-117453921D01*
X182584364Y-117469225D01*
X182579177Y-117478027D01*
X182575254Y-117485322D01*
X182574461Y-117486948D01*
X182571172Y-117494406D01*
X182564930Y-117510186D01*
X182538838Y-117537125D01*
X182537370Y-117537732D01*
X182531447Y-117540072D01*
X182513443Y-117543500D01*
X176856062Y-117543500D01*
X176833424Y-117552878D01*
X176833422Y-117552879D01*
X176800750Y-117566411D01*
X176800745Y-117566414D01*
X174052414Y-120314745D01*
X174052411Y-120314750D01*
X174039676Y-120345498D01*
X174039675Y-120345500D01*
X174029500Y-120370062D01*
X174029500Y-132567363D01*
X174015148Y-132602011D01*
X173712413Y-132904746D01*
X173698990Y-132937149D01*
X173698990Y-132937151D01*
X173698644Y-132937987D01*
X173689500Y-132960065D01*
X173689500Y-134270767D01*
X173675148Y-134305415D01*
X173667723Y-134311509D01*
X173604051Y-134354051D01*
X173580742Y-134388938D01*
X173549560Y-134409773D01*
X173512777Y-134402457D01*
X173499258Y-134388938D01*
X173475947Y-134354050D01*
X173411281Y-134310843D01*
X173399875Y-134308574D01*
X173354255Y-134299500D01*
X173354251Y-134299500D01*
X173125748Y-134299500D01*
X173096011Y-134305415D01*
X173068720Y-134310843D01*
X173068719Y-134310843D01*
X173068717Y-134310844D01*
X173004051Y-134354051D01*
X172980742Y-134388938D01*
X172949560Y-134409773D01*
X172912777Y-134402457D01*
X172899258Y-134388938D01*
X172875948Y-134354051D01*
X172812277Y-134311509D01*
X172791442Y-134280327D01*
X172790500Y-134270767D01*
X172790500Y-132292635D01*
X172804852Y-132257987D01*
X172912841Y-132149998D01*
X173037588Y-132025251D01*
X173049043Y-131997593D01*
X173060500Y-131969936D01*
X173060500Y-120022635D01*
X173074852Y-119987987D01*
X176217987Y-116844852D01*
X176252635Y-116830500D01*
X182329934Y-116830500D01*
X182329936Y-116830500D01*
X182348563Y-116822784D01*
X182352846Y-116821010D01*
X182352848Y-116821009D01*
X182354963Y-116820133D01*
X182385252Y-116807588D01*
X182464718Y-116728120D01*
X182499365Y-116713769D01*
X182788103Y-116713769D01*
X182804498Y-116716593D01*
X182811621Y-116719123D01*
X182811624Y-116719123D01*
X182811626Y-116719124D01*
X182811624Y-116719124D01*
X182882312Y-116729439D01*
X182899605Y-116735413D01*
X182923932Y-116749359D01*
X182945344Y-116761633D01*
X182946702Y-116762396D01*
X182946762Y-116762429D01*
X182946767Y-116762432D01*
X182947048Y-116762587D01*
X182948067Y-116763142D01*
X182948117Y-116763169D01*
X182948187Y-116763207D01*
X183008282Y-116795498D01*
X183038600Y-116811789D01*
X183043032Y-116814038D01*
X183044036Y-116814518D01*
X183044038Y-116814518D01*
X183044297Y-116814609D01*
X183045961Y-116815438D01*
X183046479Y-116815686D01*
X183046474Y-116815694D01*
X183055381Y-116820133D01*
X183059347Y-116822783D01*
X183059351Y-116822785D01*
X183166841Y-116844166D01*
X183166844Y-116844166D01*
X183166847Y-116844166D01*
X183274336Y-116822785D01*
X183274336Y-116822784D01*
X183274339Y-116822784D01*
X183365468Y-116761893D01*
X183426359Y-116670764D01*
X183429623Y-116654359D01*
X183447741Y-116563271D01*
X183447741Y-116563266D01*
X183426360Y-116455776D01*
X183365468Y-116364644D01*
X183274336Y-116303752D01*
X183166847Y-116282372D01*
X183166841Y-116282372D01*
X183059350Y-116303753D01*
X183059345Y-116303755D01*
X183052514Y-116308319D01*
X183039641Y-116314427D01*
X183038608Y-116314743D01*
X183038596Y-116314748D01*
X182947985Y-116363436D01*
X182946687Y-116364147D01*
X182946383Y-116364315D01*
X182945344Y-116364901D01*
X182899601Y-116391122D01*
X182882309Y-116397097D01*
X182811626Y-116407412D01*
X182811618Y-116407414D01*
X182801796Y-116410507D01*
X182787081Y-116412769D01*
X182386793Y-116412769D01*
X182331479Y-116435681D01*
X182252012Y-116515148D01*
X182217364Y-116529500D01*
X176140062Y-116529500D01*
X176100950Y-116545702D01*
X176084746Y-116552413D01*
X176084744Y-116552415D01*
X172782413Y-119854745D01*
X172782413Y-119854746D01*
X172768990Y-119887149D01*
X172768990Y-119887151D01*
X172768182Y-119889103D01*
X172759500Y-119910065D01*
X172759500Y-131857364D01*
X172745148Y-131892012D01*
X172512414Y-132124745D01*
X172512411Y-132124750D01*
X172501954Y-132149998D01*
X172501953Y-132150000D01*
X172489500Y-132180062D01*
X172489500Y-134270767D01*
X172475148Y-134305415D01*
X172467723Y-134311509D01*
X172404051Y-134354051D01*
X172380742Y-134388938D01*
X172349560Y-134409773D01*
X172312777Y-134402457D01*
X172299258Y-134388938D01*
X172275947Y-134354050D01*
X172211281Y-134310843D01*
X172199875Y-134308574D01*
X172154255Y-134299500D01*
X172154251Y-134299500D01*
X171925748Y-134299500D01*
X171896011Y-134305415D01*
X171868720Y-134310843D01*
X171868719Y-134310843D01*
X171868717Y-134310844D01*
X171804051Y-134354051D01*
X171780742Y-134388938D01*
X171749560Y-134409773D01*
X171712777Y-134402457D01*
X171699258Y-134388938D01*
X171675948Y-134354051D01*
X171612277Y-134311509D01*
X171591442Y-134280327D01*
X171590500Y-134270767D01*
X171590500Y-127560066D01*
X171590499Y-127560062D01*
X171577840Y-127529501D01*
X171577839Y-127529499D01*
X171567588Y-127504749D01*
X170224852Y-126162012D01*
X170210500Y-126127364D01*
X170210500Y-109822635D01*
X170224852Y-109787987D01*
X185667987Y-94344852D01*
X185702635Y-94330500D01*
X188401259Y-94330500D01*
X188417654Y-94333324D01*
X188424777Y-94335854D01*
X188424780Y-94335854D01*
X188424782Y-94335855D01*
X188424780Y-94335855D01*
X188495468Y-94346170D01*
X188512762Y-94352145D01*
X188558500Y-94378364D01*
X188559858Y-94379127D01*
X188559918Y-94379160D01*
X188559923Y-94379163D01*
X188560204Y-94379318D01*
X188561223Y-94379873D01*
X188561273Y-94379900D01*
X188561343Y-94379938D01*
X188646923Y-94425923D01*
X188651756Y-94428520D01*
X188656188Y-94430769D01*
X188657192Y-94431249D01*
X188657194Y-94431249D01*
X188657453Y-94431340D01*
X188659117Y-94432169D01*
X188659635Y-94432417D01*
X188659630Y-94432425D01*
X188668537Y-94436864D01*
X188672503Y-94439514D01*
X188672507Y-94439516D01*
X188779997Y-94460897D01*
X188780000Y-94460897D01*
X188780003Y-94460897D01*
X188887492Y-94439516D01*
X188887492Y-94439515D01*
X188887495Y-94439515D01*
X188978624Y-94378624D01*
X189039515Y-94287495D01*
X189060897Y-94180000D01*
X189060897Y-94179997D01*
X189039516Y-94072507D01*
X189026090Y-94052414D01*
X188996316Y-94007853D01*
X188978624Y-93981375D01*
X188887492Y-93920483D01*
X188780003Y-93899103D01*
X188779997Y-93899103D01*
X188672506Y-93920484D01*
X188672501Y-93920486D01*
X188665670Y-93925050D01*
X188652797Y-93931158D01*
X188651764Y-93931474D01*
X188651752Y-93931479D01*
X188561141Y-93980167D01*
X188559843Y-93980878D01*
X188559539Y-93981046D01*
X188558500Y-93981632D01*
X188512757Y-94007853D01*
X188495465Y-94013828D01*
X188424782Y-94024143D01*
X188424774Y-94024145D01*
X188414952Y-94027238D01*
X188400237Y-94029500D01*
X185590062Y-94029500D01*
X185560158Y-94041888D01*
X185534746Y-94052414D01*
X185534745Y-94052415D01*
X169932414Y-109654745D01*
X169932411Y-109654750D01*
X169921954Y-109679998D01*
X169921953Y-109680000D01*
X169909500Y-109710062D01*
X169909500Y-126239937D01*
X169917025Y-126258102D01*
X169917025Y-126258103D01*
X169932412Y-126295252D01*
X169932413Y-126295254D01*
X171275148Y-127637987D01*
X171289500Y-127672635D01*
X171289500Y-134270767D01*
X171275148Y-134305415D01*
X171267723Y-134311509D01*
X171204051Y-134354051D01*
X171180742Y-134388938D01*
X171149560Y-134409773D01*
X171112777Y-134402457D01*
X171099258Y-134388938D01*
X171075947Y-134354050D01*
X171011281Y-134310843D01*
X170999875Y-134308574D01*
X170954255Y-134299500D01*
X170954251Y-134299500D01*
X170725748Y-134299500D01*
X170696011Y-134305415D01*
X170668720Y-134310843D01*
X170668719Y-134310843D01*
X170668717Y-134310844D01*
X170604051Y-134354051D01*
X170580742Y-134388938D01*
X170549560Y-134409773D01*
X170512777Y-134402457D01*
X170499258Y-134388938D01*
X170475948Y-134354051D01*
X170412277Y-134311509D01*
X170391442Y-134280327D01*
X170390500Y-134270767D01*
X170390500Y-128840064D01*
X170379043Y-128812407D01*
X170379042Y-128812404D01*
X170367588Y-128784749D01*
X168804852Y-127222012D01*
X168790500Y-127187364D01*
X168790500Y-109452635D01*
X168804852Y-109417987D01*
X184887987Y-93334852D01*
X184922635Y-93320500D01*
X188411259Y-93320500D01*
X188427654Y-93323324D01*
X188434777Y-93325854D01*
X188434780Y-93325854D01*
X188434782Y-93325855D01*
X188434780Y-93325855D01*
X188505468Y-93336170D01*
X188522762Y-93342145D01*
X188568500Y-93368364D01*
X188569858Y-93369127D01*
X188569918Y-93369160D01*
X188569923Y-93369163D01*
X188570204Y-93369318D01*
X188571223Y-93369873D01*
X188571273Y-93369900D01*
X188571343Y-93369938D01*
X188656923Y-93415923D01*
X188661756Y-93418520D01*
X188666188Y-93420769D01*
X188667192Y-93421249D01*
X188667194Y-93421249D01*
X188667453Y-93421340D01*
X188669117Y-93422169D01*
X188669635Y-93422417D01*
X188669630Y-93422425D01*
X188678537Y-93426864D01*
X188682503Y-93429514D01*
X188682507Y-93429516D01*
X188789997Y-93450897D01*
X188790000Y-93450897D01*
X188790003Y-93450897D01*
X188897492Y-93429516D01*
X188897492Y-93429515D01*
X188897495Y-93429515D01*
X188988624Y-93368624D01*
X189049515Y-93277495D01*
X189070897Y-93170000D01*
X189070897Y-93169997D01*
X189049516Y-93062507D01*
X189036090Y-93042414D01*
X189006316Y-92997853D01*
X188988624Y-92971375D01*
X188897492Y-92910483D01*
X188790003Y-92889103D01*
X188789997Y-92889103D01*
X188682506Y-92910484D01*
X188682501Y-92910486D01*
X188675670Y-92915050D01*
X188662797Y-92921158D01*
X188661764Y-92921474D01*
X188661752Y-92921479D01*
X188571141Y-92970167D01*
X188569843Y-92970878D01*
X188569539Y-92971046D01*
X188568500Y-92971632D01*
X188522757Y-92997853D01*
X188505465Y-93003828D01*
X188434782Y-93014143D01*
X188434774Y-93014145D01*
X188424952Y-93017238D01*
X188410237Y-93019500D01*
X184810062Y-93019500D01*
X184786502Y-93029260D01*
X184786501Y-93029260D01*
X184754748Y-93042412D01*
X184754746Y-93042414D01*
X168512414Y-109284745D01*
X168512411Y-109284750D01*
X168501648Y-109310738D01*
X168501647Y-109310740D01*
X168489500Y-109340062D01*
X168489500Y-127299937D01*
X168493668Y-127309999D01*
X168493670Y-127310002D01*
X168512411Y-127355250D01*
X168512414Y-127355255D01*
X170075148Y-128917987D01*
X170089500Y-128952635D01*
X170089500Y-134270767D01*
X170075148Y-134305415D01*
X170067723Y-134311509D01*
X170004051Y-134354051D01*
X169980742Y-134388938D01*
X169949560Y-134409773D01*
X169912777Y-134402457D01*
X169899258Y-134388938D01*
X169875947Y-134354050D01*
X169811281Y-134310843D01*
X169799875Y-134308574D01*
X169754255Y-134299500D01*
X169754251Y-134299500D01*
X169525748Y-134299500D01*
X169496011Y-134305415D01*
X169468720Y-134310843D01*
X169468719Y-134310843D01*
X169468717Y-134310844D01*
X169404051Y-134354051D01*
X169380742Y-134388938D01*
X169349560Y-134409773D01*
X169312777Y-134402457D01*
X169299258Y-134388938D01*
X169275948Y-134354051D01*
X169212277Y-134311509D01*
X169191442Y-134280327D01*
X169190500Y-134270767D01*
X169190500Y-130030066D01*
X169190499Y-130030062D01*
X169167587Y-129974749D01*
X169167586Y-129974747D01*
X166824852Y-127632012D01*
X166810500Y-127597364D01*
X166810500Y-109552635D01*
X166824852Y-109517987D01*
X183987987Y-92354852D01*
X184022635Y-92340500D01*
X188401259Y-92340500D01*
X188417654Y-92343324D01*
X188424777Y-92345854D01*
X188424780Y-92345854D01*
X188424782Y-92345855D01*
X188424780Y-92345855D01*
X188495468Y-92356170D01*
X188512762Y-92362145D01*
X188558500Y-92388364D01*
X188559858Y-92389127D01*
X188559918Y-92389160D01*
X188559923Y-92389163D01*
X188560204Y-92389318D01*
X188561223Y-92389873D01*
X188561273Y-92389900D01*
X188561343Y-92389938D01*
X188646923Y-92435923D01*
X188651756Y-92438520D01*
X188656188Y-92440769D01*
X188657192Y-92441249D01*
X188657194Y-92441249D01*
X188657453Y-92441340D01*
X188659117Y-92442169D01*
X188659635Y-92442417D01*
X188659630Y-92442425D01*
X188668537Y-92446864D01*
X188672503Y-92449514D01*
X188672507Y-92449516D01*
X188779997Y-92470897D01*
X188780000Y-92470897D01*
X188780003Y-92470897D01*
X188887492Y-92449516D01*
X188887492Y-92449515D01*
X188887495Y-92449515D01*
X188978624Y-92388624D01*
X189039515Y-92297495D01*
X189060897Y-92190000D01*
X189060897Y-92189997D01*
X189039516Y-92082507D01*
X189026090Y-92062414D01*
X188996316Y-92017853D01*
X188978624Y-91991375D01*
X188887492Y-91930483D01*
X188780003Y-91909103D01*
X188779997Y-91909103D01*
X188672506Y-91930484D01*
X188672501Y-91930486D01*
X188665670Y-91935050D01*
X188652797Y-91941158D01*
X188651764Y-91941474D01*
X188651752Y-91941479D01*
X188561141Y-91990167D01*
X188559843Y-91990878D01*
X188559539Y-91991046D01*
X188558500Y-91991632D01*
X188512757Y-92017853D01*
X188495465Y-92023828D01*
X188424782Y-92034143D01*
X188424774Y-92034145D01*
X188414952Y-92037238D01*
X188400237Y-92039500D01*
X183910062Y-92039500D01*
X183880158Y-92051888D01*
X183854746Y-92062414D01*
X183854745Y-92062415D01*
X166532414Y-109384745D01*
X166532411Y-109384750D01*
X166521981Y-109409934D01*
X166521980Y-109409936D01*
X166509500Y-109440062D01*
X166509500Y-109440064D01*
X166509500Y-127709936D01*
X166512670Y-127717588D01*
X166523649Y-127744094D01*
X166532411Y-127765250D01*
X166532414Y-127765255D01*
X168875148Y-130107987D01*
X168889500Y-130142635D01*
X168889500Y-134270767D01*
X168875148Y-134305415D01*
X168867723Y-134311509D01*
X168804051Y-134354051D01*
X168780742Y-134388938D01*
X168749560Y-134409773D01*
X168712777Y-134402457D01*
X168699258Y-134388938D01*
X168675947Y-134354050D01*
X168611281Y-134310843D01*
X168599875Y-134308574D01*
X168554255Y-134299500D01*
X168554251Y-134299500D01*
X168325748Y-134299500D01*
X168296011Y-134305415D01*
X168268720Y-134310843D01*
X168268719Y-134310843D01*
X168268717Y-134310844D01*
X168204051Y-134354051D01*
X168180742Y-134388938D01*
X168149560Y-134409773D01*
X168112777Y-134402457D01*
X168099258Y-134388938D01*
X168075948Y-134354051D01*
X168012277Y-134311509D01*
X167991442Y-134280327D01*
X167990500Y-134270767D01*
X167990500Y-131090066D01*
X167990499Y-131090062D01*
X167967587Y-131034749D01*
X167967586Y-131034747D01*
X165124852Y-128192012D01*
X165110500Y-128157364D01*
X165110500Y-109462636D01*
X165124852Y-109427988D01*
X183207988Y-91344852D01*
X183242636Y-91330500D01*
X188371259Y-91330500D01*
X188387654Y-91333324D01*
X188394777Y-91335854D01*
X188394780Y-91335854D01*
X188394782Y-91335855D01*
X188394780Y-91335855D01*
X188465468Y-91346170D01*
X188482762Y-91352145D01*
X188528500Y-91378364D01*
X188529858Y-91379127D01*
X188529918Y-91379160D01*
X188529923Y-91379163D01*
X188530204Y-91379318D01*
X188531223Y-91379873D01*
X188531273Y-91379900D01*
X188531343Y-91379938D01*
X188616923Y-91425923D01*
X188621756Y-91428520D01*
X188626188Y-91430769D01*
X188627192Y-91431249D01*
X188627194Y-91431249D01*
X188627453Y-91431340D01*
X188629117Y-91432169D01*
X188629635Y-91432417D01*
X188629630Y-91432425D01*
X188638537Y-91436864D01*
X188642503Y-91439514D01*
X188642507Y-91439516D01*
X188749997Y-91460897D01*
X188750000Y-91460897D01*
X188750003Y-91460897D01*
X188857492Y-91439516D01*
X188857492Y-91439515D01*
X188857495Y-91439515D01*
X188948624Y-91378624D01*
X189009515Y-91287495D01*
X189030897Y-91180000D01*
X189030897Y-91179997D01*
X189009516Y-91072507D01*
X188948624Y-90981375D01*
X188857492Y-90920483D01*
X188750003Y-90899103D01*
X188749997Y-90899103D01*
X188642506Y-90920484D01*
X188642501Y-90920486D01*
X188635670Y-90925050D01*
X188622797Y-90931158D01*
X188621764Y-90931474D01*
X188621752Y-90931479D01*
X188531141Y-90980167D01*
X188529843Y-90980878D01*
X188529539Y-90981046D01*
X188528500Y-90981632D01*
X188482757Y-91007853D01*
X188465465Y-91013828D01*
X188394782Y-91024143D01*
X188394774Y-91024145D01*
X188384952Y-91027238D01*
X188370237Y-91029500D01*
X183130064Y-91029500D01*
X183130062Y-91029500D01*
X183130059Y-91029501D01*
X183110623Y-91037552D01*
X183074750Y-91052409D01*
X164832414Y-109294745D01*
X164832412Y-109294747D01*
X164832412Y-109294748D01*
X164825789Y-109310740D01*
X164822947Y-109317601D01*
X164822946Y-109317603D01*
X164809500Y-109350062D01*
X163389850Y-109350062D01*
X163394852Y-109337987D01*
X182387987Y-90344852D01*
X182422635Y-90330500D01*
X188311259Y-90330500D01*
X188327654Y-90333324D01*
X188334777Y-90335854D01*
X188334780Y-90335854D01*
X188334782Y-90335855D01*
X188334780Y-90335855D01*
X188405468Y-90346170D01*
X188422762Y-90352145D01*
X188468500Y-90378364D01*
X188469858Y-90379127D01*
X188469918Y-90379160D01*
X188469923Y-90379163D01*
X188470204Y-90379318D01*
X188471223Y-90379873D01*
X188471273Y-90379900D01*
X188471343Y-90379938D01*
X188556923Y-90425923D01*
X188561756Y-90428520D01*
X188566188Y-90430769D01*
X188567192Y-90431249D01*
X188567194Y-90431249D01*
X188567453Y-90431340D01*
X188569117Y-90432169D01*
X188569635Y-90432417D01*
X188569630Y-90432425D01*
X188578537Y-90436864D01*
X188582503Y-90439514D01*
X188582507Y-90439516D01*
X188689997Y-90460897D01*
X188690000Y-90460897D01*
X188690003Y-90460897D01*
X188797492Y-90439516D01*
X188797492Y-90439515D01*
X188797495Y-90439515D01*
X188888624Y-90378624D01*
X188949515Y-90287495D01*
X188970897Y-90180000D01*
X188970897Y-90179997D01*
X188949516Y-90072507D01*
X188936090Y-90052414D01*
X188906316Y-90007853D01*
X188888624Y-89981375D01*
X188797492Y-89920483D01*
X188690003Y-89899103D01*
X188689997Y-89899103D01*
X188582506Y-89920484D01*
X188582501Y-89920486D01*
X188575670Y-89925050D01*
X188562797Y-89931158D01*
X188561764Y-89931474D01*
X188561752Y-89931479D01*
X188471141Y-89980167D01*
X188469843Y-89980878D01*
X188469539Y-89981046D01*
X188468500Y-89981632D01*
X188422757Y-90007853D01*
X188405465Y-90013828D01*
X188334782Y-90024143D01*
X188334774Y-90024145D01*
X188324952Y-90027238D01*
X188310237Y-90029500D01*
X182310062Y-90029500D01*
X182280158Y-90041888D01*
X182254746Y-90052414D01*
X182254745Y-90052415D01*
X163102411Y-109204748D01*
X163102410Y-109204749D01*
X163092161Y-109229498D01*
X163092160Y-109229501D01*
X163079500Y-109260062D01*
X163079500Y-134270767D01*
X163065148Y-134305415D01*
X163057723Y-134311509D01*
X162994051Y-134354051D01*
X162970742Y-134388938D01*
X162939560Y-134409773D01*
X162902777Y-134402457D01*
X162889258Y-134388938D01*
X162865947Y-134354050D01*
X162801281Y-134310843D01*
X162789875Y-134308574D01*
X162744255Y-134299500D01*
X162744251Y-134299500D01*
X162515748Y-134299500D01*
X162486011Y-134305415D01*
X162458720Y-134310843D01*
X162458719Y-134310843D01*
X162458717Y-134310844D01*
X162394051Y-134354051D01*
X162370742Y-134388938D01*
X162339560Y-134409773D01*
X162302777Y-134402457D01*
X162289258Y-134388938D01*
X162265948Y-134354051D01*
X162202277Y-134311509D01*
X162181442Y-134280327D01*
X162180500Y-134270767D01*
X162180500Y-108242636D01*
X162194852Y-108207988D01*
X182057988Y-88344852D01*
X182092636Y-88330500D01*
X188341259Y-88330500D01*
X188357654Y-88333324D01*
X188364777Y-88335854D01*
X188364780Y-88335854D01*
X188364782Y-88335855D01*
X188364780Y-88335855D01*
X188435468Y-88346170D01*
X188452762Y-88352145D01*
X188498500Y-88378364D01*
X188499858Y-88379127D01*
X188499918Y-88379160D01*
X188499923Y-88379163D01*
X188500204Y-88379318D01*
X188501223Y-88379873D01*
X188501273Y-88379900D01*
X188501343Y-88379938D01*
X188558220Y-88410500D01*
X188591756Y-88428520D01*
X188596188Y-88430769D01*
X188597192Y-88431249D01*
X188597194Y-88431249D01*
X188597453Y-88431340D01*
X188599117Y-88432169D01*
X188599635Y-88432417D01*
X188599630Y-88432425D01*
X188608537Y-88436864D01*
X188612503Y-88439514D01*
X188612507Y-88439516D01*
X188719997Y-88460897D01*
X188720000Y-88460897D01*
X188720003Y-88460897D01*
X188827492Y-88439516D01*
X188827492Y-88439515D01*
X188827495Y-88439515D01*
X188918624Y-88378624D01*
X188979515Y-88287495D01*
X189000897Y-88180000D01*
X189000897Y-88179997D01*
X188979516Y-88072507D01*
X188918624Y-87981375D01*
X188827492Y-87920483D01*
X188720003Y-87899103D01*
X188719997Y-87899103D01*
X188612506Y-87920484D01*
X188612501Y-87920486D01*
X188605670Y-87925050D01*
X188592797Y-87931158D01*
X188591764Y-87931474D01*
X188591752Y-87931479D01*
X188501141Y-87980167D01*
X188499843Y-87980878D01*
X188499539Y-87981046D01*
X188498500Y-87981632D01*
X188452757Y-88007853D01*
X188435465Y-88013828D01*
X188364782Y-88024143D01*
X188364774Y-88024145D01*
X188354952Y-88027238D01*
X188340237Y-88029500D01*
X181980064Y-88029500D01*
X181980062Y-88029500D01*
X181980059Y-88029501D01*
X181960623Y-88037552D01*
X181924750Y-88052409D01*
X161902411Y-108074748D01*
X161891169Y-108101893D01*
X161891168Y-108101895D01*
X161879500Y-108130062D01*
X161879500Y-134270767D01*
X161865148Y-134305415D01*
X161857723Y-134311509D01*
X161794051Y-134354051D01*
X161770742Y-134388938D01*
X161739560Y-134409773D01*
X161702777Y-134402457D01*
X161689258Y-134388938D01*
X161665947Y-134354050D01*
X161601281Y-134310843D01*
X161589875Y-134308574D01*
X161544255Y-134299500D01*
X161544251Y-134299500D01*
X161315748Y-134299500D01*
X161286011Y-134305415D01*
X161258720Y-134310843D01*
X161258719Y-134310843D01*
X161258717Y-134310844D01*
X161194051Y-134354051D01*
X161170742Y-134388938D01*
X161139560Y-134409773D01*
X161102777Y-134402457D01*
X161089258Y-134388938D01*
X161065948Y-134354051D01*
X161002277Y-134311509D01*
X160981442Y-134280327D01*
X160980500Y-134270767D01*
X160980500Y-107422635D01*
X160994852Y-107387987D01*
X181037987Y-87344852D01*
X181072635Y-87330500D01*
X188341259Y-87330500D01*
X188357654Y-87333324D01*
X188364777Y-87335854D01*
X188364780Y-87335854D01*
X188364782Y-87335855D01*
X188364780Y-87335855D01*
X188435468Y-87346170D01*
X188452762Y-87352145D01*
X188498500Y-87378364D01*
X188499858Y-87379127D01*
X188499918Y-87379160D01*
X188499923Y-87379163D01*
X188500204Y-87379318D01*
X188501223Y-87379873D01*
X188501273Y-87379900D01*
X188501343Y-87379938D01*
X188586923Y-87425923D01*
X188591756Y-87428520D01*
X188596188Y-87430769D01*
X188597192Y-87431249D01*
X188597194Y-87431249D01*
X188597453Y-87431340D01*
X188599117Y-87432169D01*
X188599635Y-87432417D01*
X188599630Y-87432425D01*
X188608537Y-87436864D01*
X188612503Y-87439514D01*
X188612507Y-87439516D01*
X188719997Y-87460897D01*
X188720000Y-87460897D01*
X188720003Y-87460897D01*
X188827492Y-87439516D01*
X188827492Y-87439515D01*
X188827495Y-87439515D01*
X188918624Y-87378624D01*
X188979515Y-87287495D01*
X189000897Y-87180000D01*
X189000897Y-87179997D01*
X188979516Y-87072507D01*
X188966090Y-87052414D01*
X188936316Y-87007853D01*
X188918624Y-86981375D01*
X188827492Y-86920483D01*
X188720003Y-86899103D01*
X188719997Y-86899103D01*
X188612506Y-86920484D01*
X188612501Y-86920486D01*
X188605670Y-86925050D01*
X188592797Y-86931158D01*
X188591764Y-86931474D01*
X188591752Y-86931479D01*
X188501141Y-86980167D01*
X188499843Y-86980878D01*
X188499539Y-86981046D01*
X188498500Y-86981632D01*
X188452757Y-87007853D01*
X188435465Y-87013828D01*
X188364782Y-87024143D01*
X188364774Y-87024145D01*
X188354952Y-87027238D01*
X188340237Y-87029500D01*
X180960062Y-87029500D01*
X180930158Y-87041888D01*
X180904746Y-87052414D01*
X180904745Y-87052415D01*
X160702414Y-107254745D01*
X160702411Y-107254750D01*
X160689700Y-107285440D01*
X160689699Y-107285442D01*
X160679500Y-107310061D01*
X160679500Y-134270767D01*
X160665148Y-134305415D01*
X160657723Y-134311509D01*
X160594051Y-134354051D01*
X160570742Y-134388938D01*
X160539560Y-134409773D01*
X160502777Y-134402457D01*
X160489258Y-134388938D01*
X160465947Y-134354050D01*
X160401281Y-134310843D01*
X160389875Y-134308574D01*
X160344255Y-134299500D01*
X160344251Y-134299500D01*
X160115748Y-134299500D01*
X160086011Y-134305415D01*
X160058720Y-134310843D01*
X160058719Y-134310843D01*
X160058717Y-134310844D01*
X159994051Y-134354051D01*
X159970742Y-134388938D01*
X159939560Y-134409773D01*
X159902777Y-134402457D01*
X159889258Y-134388938D01*
X159865948Y-134354051D01*
X159802277Y-134311509D01*
X159781442Y-134280327D01*
X159780500Y-134270767D01*
X159780500Y-106632635D01*
X159794852Y-106597987D01*
X180047987Y-86344852D01*
X180082635Y-86330500D01*
X188351259Y-86330500D01*
X188367654Y-86333324D01*
X188374777Y-86335854D01*
X188374780Y-86335854D01*
X188374782Y-86335855D01*
X188374780Y-86335855D01*
X188445468Y-86346170D01*
X188462762Y-86352145D01*
X188508500Y-86378364D01*
X188509858Y-86379127D01*
X188509918Y-86379160D01*
X188509923Y-86379163D01*
X188510204Y-86379318D01*
X188511223Y-86379873D01*
X188511273Y-86379900D01*
X188511343Y-86379938D01*
X188596923Y-86425923D01*
X188601756Y-86428520D01*
X188606188Y-86430769D01*
X188607192Y-86431249D01*
X188607194Y-86431249D01*
X188607453Y-86431340D01*
X188609117Y-86432169D01*
X188609635Y-86432417D01*
X188609630Y-86432425D01*
X188618537Y-86436864D01*
X188622503Y-86439514D01*
X188622507Y-86439516D01*
X188729997Y-86460897D01*
X188730000Y-86460897D01*
X188730003Y-86460897D01*
X188837492Y-86439516D01*
X188837492Y-86439515D01*
X188837495Y-86439515D01*
X188928624Y-86378624D01*
X188989515Y-86287495D01*
X189010897Y-86180000D01*
X189010897Y-86179997D01*
X188989516Y-86072507D01*
X188976090Y-86052414D01*
X188946316Y-86007853D01*
X188928624Y-85981375D01*
X188837492Y-85920483D01*
X188730003Y-85899103D01*
X188729997Y-85899103D01*
X188622506Y-85920484D01*
X188622501Y-85920486D01*
X188615670Y-85925050D01*
X188602797Y-85931158D01*
X188601764Y-85931474D01*
X188601752Y-85931479D01*
X188511141Y-85980167D01*
X188509843Y-85980878D01*
X188509539Y-85981046D01*
X188508500Y-85981632D01*
X188462757Y-86007853D01*
X188445465Y-86013828D01*
X188374782Y-86024143D01*
X188374774Y-86024145D01*
X188364952Y-86027238D01*
X188350237Y-86029500D01*
X179970062Y-86029500D01*
X179940158Y-86041888D01*
X179914746Y-86052414D01*
X179914744Y-86052415D01*
X159502413Y-106464745D01*
X159502413Y-106464746D01*
X159488990Y-106497149D01*
X159488990Y-106497151D01*
X159479500Y-106520064D01*
X159479500Y-106520065D01*
X159479500Y-134270767D01*
X159465148Y-134305415D01*
X159457723Y-134311509D01*
X159394051Y-134354051D01*
X159370742Y-134388938D01*
X159339560Y-134409773D01*
X159302777Y-134402457D01*
X159289258Y-134388938D01*
X159265947Y-134354050D01*
X159201281Y-134310843D01*
X159189875Y-134308574D01*
X159144255Y-134299500D01*
X159144251Y-134299500D01*
X158915748Y-134299500D01*
X158886011Y-134305415D01*
X158858720Y-134310843D01*
X158858719Y-134310843D01*
X158858717Y-134310844D01*
X158794051Y-134354051D01*
X158770742Y-134388938D01*
X158739560Y-134409773D01*
X158702777Y-134402457D01*
X158689258Y-134388938D01*
X158665948Y-134354051D01*
X158602277Y-134311509D01*
X158581442Y-134280327D01*
X158580500Y-134270767D01*
X158580500Y-106052635D01*
X158594852Y-106017987D01*
X179277987Y-85334852D01*
X179312635Y-85320500D01*
X188311259Y-85320500D01*
X188327654Y-85323324D01*
X188334777Y-85325854D01*
X188334780Y-85325854D01*
X188334782Y-85325855D01*
X188334780Y-85325855D01*
X188405468Y-85336170D01*
X188422762Y-85342145D01*
X188468500Y-85368364D01*
X188469858Y-85369127D01*
X188469918Y-85369160D01*
X188469923Y-85369163D01*
X188470204Y-85369318D01*
X188471223Y-85369873D01*
X188471273Y-85369900D01*
X188471343Y-85369938D01*
X188554928Y-85414851D01*
X188561756Y-85418520D01*
X188566188Y-85420769D01*
X188567192Y-85421249D01*
X188567194Y-85421249D01*
X188567453Y-85421340D01*
X188569117Y-85422169D01*
X188569635Y-85422417D01*
X188569630Y-85422425D01*
X188578537Y-85426864D01*
X188582503Y-85429514D01*
X188582507Y-85429516D01*
X188689997Y-85450897D01*
X188690000Y-85450897D01*
X188690003Y-85450897D01*
X188797492Y-85429516D01*
X188797492Y-85429515D01*
X188797495Y-85429515D01*
X188888624Y-85368624D01*
X188949515Y-85277495D01*
X188956251Y-85243635D01*
X188970897Y-85170002D01*
X188970897Y-85169997D01*
X188949516Y-85062507D01*
X188936090Y-85042414D01*
X188906316Y-84997853D01*
X188888624Y-84971375D01*
X188797492Y-84910483D01*
X188690003Y-84889103D01*
X188689997Y-84889103D01*
X188582506Y-84910484D01*
X188582501Y-84910486D01*
X188575670Y-84915050D01*
X188562797Y-84921158D01*
X188561764Y-84921474D01*
X188561752Y-84921479D01*
X188471141Y-84970167D01*
X188469843Y-84970878D01*
X188469539Y-84971046D01*
X188468500Y-84971632D01*
X188422757Y-84997853D01*
X188405465Y-85003828D01*
X188334782Y-85014143D01*
X188334774Y-85014145D01*
X188324952Y-85017238D01*
X188310237Y-85019500D01*
X179200062Y-85019500D01*
X179170158Y-85031888D01*
X179144746Y-85042414D01*
X179144745Y-85042415D01*
X158302414Y-105884745D01*
X158302411Y-105884750D01*
X158292326Y-105909101D01*
X158292325Y-105909103D01*
X158279500Y-105940062D01*
X158279500Y-134270767D01*
X158265148Y-134305415D01*
X158257723Y-134311509D01*
X158194051Y-134354051D01*
X158170742Y-134388938D01*
X158139560Y-134409773D01*
X158102777Y-134402457D01*
X158089258Y-134388938D01*
X158065947Y-134354050D01*
X158001281Y-134310843D01*
X157989875Y-134308574D01*
X157944255Y-134299500D01*
X157944251Y-134299500D01*
X157715748Y-134299500D01*
X157686011Y-134305415D01*
X157658720Y-134310843D01*
X157658719Y-134310843D01*
X157658717Y-134310844D01*
X157594051Y-134354051D01*
X157570742Y-134388938D01*
X157539560Y-134409773D01*
X157502777Y-134402457D01*
X157489258Y-134388938D01*
X157465948Y-134354051D01*
X157402277Y-134311509D01*
X157381442Y-134280327D01*
X157380500Y-134270767D01*
X157380500Y-105402635D01*
X157394852Y-105367987D01*
X178447987Y-84314852D01*
X178482635Y-84300500D01*
X188321259Y-84300500D01*
X188337654Y-84303324D01*
X188344777Y-84305854D01*
X188344780Y-84305854D01*
X188344782Y-84305855D01*
X188344780Y-84305855D01*
X188415468Y-84316170D01*
X188432761Y-84322144D01*
X188478411Y-84348313D01*
X188478500Y-84348364D01*
X188479858Y-84349127D01*
X188479918Y-84349160D01*
X188479923Y-84349163D01*
X188480204Y-84349318D01*
X188481223Y-84349873D01*
X188481273Y-84349900D01*
X188481343Y-84349938D01*
X188566923Y-84395923D01*
X188571756Y-84398520D01*
X188576188Y-84400769D01*
X188577192Y-84401249D01*
X188577194Y-84401249D01*
X188577453Y-84401340D01*
X188579117Y-84402169D01*
X188579635Y-84402417D01*
X188579630Y-84402425D01*
X188588537Y-84406864D01*
X188592503Y-84409514D01*
X188592507Y-84409516D01*
X188699997Y-84430897D01*
X188700000Y-84430897D01*
X188700003Y-84430897D01*
X188807492Y-84409516D01*
X188807492Y-84409515D01*
X188807495Y-84409515D01*
X188898624Y-84348624D01*
X188959515Y-84257495D01*
X188980897Y-84150000D01*
X188980897Y-84149997D01*
X188959516Y-84042507D01*
X188946090Y-84022414D01*
X188916316Y-83977853D01*
X188898624Y-83951375D01*
X188807492Y-83890483D01*
X188700003Y-83869103D01*
X188699997Y-83869103D01*
X188592506Y-83890484D01*
X188592501Y-83890486D01*
X188585670Y-83895050D01*
X188572797Y-83901158D01*
X188571764Y-83901474D01*
X188571752Y-83901479D01*
X188481141Y-83950167D01*
X188479843Y-83950878D01*
X188479539Y-83951046D01*
X188478500Y-83951632D01*
X188432757Y-83977853D01*
X188415465Y-83983828D01*
X188344782Y-83994143D01*
X188344774Y-83994145D01*
X188334952Y-83997238D01*
X188320237Y-83999500D01*
X178370062Y-83999500D01*
X178340158Y-84011888D01*
X178314746Y-84022414D01*
X178314745Y-84022415D01*
X157102414Y-105234745D01*
X157102411Y-105234750D01*
X157090758Y-105262886D01*
X157090757Y-105262888D01*
X157079500Y-105290062D01*
X157079500Y-134270767D01*
X157065148Y-134305415D01*
X157057723Y-134311509D01*
X156994051Y-134354051D01*
X156970742Y-134388938D01*
X156939560Y-134409773D01*
X156902777Y-134402457D01*
X156889258Y-134388938D01*
X156865947Y-134354050D01*
X156801281Y-134310843D01*
X156789875Y-134308574D01*
X156744255Y-134299500D01*
X156744251Y-134299500D01*
X156515748Y-134299500D01*
X156486011Y-134305415D01*
X156458720Y-134310843D01*
X156458719Y-134310843D01*
X156458717Y-134310844D01*
X156394051Y-134354051D01*
X156370742Y-134388938D01*
X156339560Y-134409773D01*
X156302777Y-134402457D01*
X156289258Y-134388938D01*
X156265948Y-134354051D01*
X156202277Y-134311509D01*
X156181442Y-134280327D01*
X156180500Y-134270767D01*
X156180500Y-104752636D01*
X156194852Y-104717988D01*
X178557988Y-82354852D01*
X178592636Y-82340500D01*
X188294718Y-82340500D01*
X188310197Y-82343009D01*
X188319069Y-82345963D01*
X188390754Y-82354975D01*
X188406815Y-82359896D01*
X188453871Y-82383775D01*
X188453849Y-82383817D01*
X188454045Y-82383864D01*
X188509212Y-82412141D01*
X188543639Y-82429788D01*
X188543658Y-82429797D01*
X188543675Y-82429806D01*
X188547255Y-82431557D01*
X188548058Y-82431931D01*
X188548071Y-82431933D01*
X188548278Y-82432005D01*
X188549297Y-82432508D01*
X188550450Y-82433045D01*
X188550437Y-82433071D01*
X188559712Y-82437649D01*
X188562505Y-82439515D01*
X188605503Y-82448067D01*
X188669997Y-82460897D01*
X188670000Y-82460897D01*
X188670003Y-82460897D01*
X188777492Y-82439516D01*
X188777492Y-82439515D01*
X188777495Y-82439515D01*
X188868624Y-82378624D01*
X188929515Y-82287495D01*
X188950897Y-82180000D01*
X188950897Y-82179997D01*
X188929516Y-82072507D01*
X188922771Y-82062413D01*
X188872886Y-81987754D01*
X188868624Y-81981375D01*
X188777492Y-81920483D01*
X188670003Y-81899103D01*
X188669997Y-81899103D01*
X188562506Y-81920484D01*
X188562504Y-81920485D01*
X188553392Y-81926573D01*
X188541538Y-81932357D01*
X188539601Y-81932996D01*
X188539598Y-81932997D01*
X188449623Y-81983942D01*
X188446866Y-81985560D01*
X188446245Y-81985936D01*
X188443359Y-81987754D01*
X188400759Y-82015544D01*
X188382163Y-82022817D01*
X188314135Y-82034327D01*
X188308513Y-82036204D01*
X188306191Y-82036979D01*
X188290679Y-82039500D01*
X178480064Y-82039500D01*
X178457151Y-82048990D01*
X178424748Y-82062412D01*
X178424746Y-82062413D01*
X155902413Y-104584746D01*
X155888990Y-104617149D01*
X155888990Y-104617151D01*
X155879500Y-104640064D01*
X155879500Y-104640065D01*
X155879500Y-134270767D01*
X155865148Y-134305415D01*
X155857723Y-134311509D01*
X155794050Y-134354052D01*
X155750843Y-134418718D01*
X155750843Y-134418720D01*
X155739500Y-134475745D01*
X153320499Y-134475745D01*
X153309157Y-134418720D01*
X153265948Y-134354052D01*
X153265947Y-134354051D01*
X153265943Y-134354048D01*
X153252276Y-134344915D01*
X153231441Y-134313732D01*
X153230500Y-134304174D01*
X153230500Y-131110120D01*
X153230499Y-131110116D01*
X153223181Y-131092448D01*
X153199976Y-131036426D01*
X153143574Y-130980024D01*
X152934852Y-130771302D01*
X152920500Y-130736654D01*
X152920500Y-128630120D01*
X152920499Y-128630116D01*
X152889976Y-128556426D01*
X152833574Y-128500024D01*
X152161499Y-127827949D01*
X152147147Y-127793301D01*
X152147147Y-127793094D01*
X152161499Y-127758446D01*
X152196147Y-127744094D01*
X152225975Y-127754218D01*
X152250868Y-127773319D01*
X152262167Y-127781989D01*
X152314493Y-127803663D01*
X152314502Y-127803665D01*
X152373994Y-127815499D01*
X152374000Y-127815500D01*
X153516000Y-127815500D01*
X153575507Y-127803663D01*
X153627833Y-127781989D01*
X153662989Y-127761692D01*
X153711989Y-127697833D01*
X153733663Y-127645507D01*
X153745500Y-127586000D01*
X153745500Y-127034000D01*
X153737793Y-126995253D01*
X153733665Y-126974502D01*
X153733663Y-126974493D01*
X153723560Y-126950102D01*
X153711989Y-126922167D01*
X153710723Y-126919975D01*
X153706266Y-126912255D01*
X153691692Y-126887011D01*
X153627833Y-126838011D01*
X153627832Y-126838010D01*
X153575506Y-126816336D01*
X153575497Y-126816334D01*
X153516005Y-126804500D01*
X153516000Y-126804500D01*
X152374000Y-126804500D01*
X152373994Y-126804500D01*
X152314502Y-126816334D01*
X152314493Y-126816336D01*
X152262165Y-126838011D01*
X152227012Y-126858307D01*
X152227009Y-126858310D01*
X152220490Y-126866805D01*
X152188011Y-126885554D01*
X152154395Y-126877715D01*
X152135859Y-126865330D01*
X152106548Y-126859500D01*
X151786752Y-126859500D01*
X151786751Y-126859500D01*
X151786749Y-126859501D01*
X151757434Y-126865331D01*
X151757433Y-126865331D01*
X151757431Y-126865332D01*
X151757430Y-126865332D01*
X151724190Y-126887542D01*
X151701977Y-126920786D01*
X151701977Y-126920787D01*
X151696147Y-126950095D01*
X151197144Y-126950095D01*
X151191315Y-126920787D01*
X151191313Y-126920784D01*
X151191313Y-126920783D01*
X151169103Y-126887543D01*
X151135858Y-126865330D01*
X151106547Y-126859500D01*
X150786751Y-126859500D01*
X150786750Y-126859500D01*
X150786748Y-126859501D01*
X150757433Y-126865331D01*
X150757432Y-126865331D01*
X150757430Y-126865332D01*
X150757429Y-126865332D01*
X150724189Y-126887542D01*
X150701976Y-126920786D01*
X150701976Y-126920787D01*
X150696146Y-126950095D01*
X150696146Y-127669894D01*
X150696147Y-127669898D01*
X150701702Y-127697832D01*
X150701977Y-127699213D01*
X150724191Y-127732460D01*
X150727602Y-127735871D01*
X150726323Y-127737149D01*
X150743218Y-127762434D01*
X150735902Y-127799216D01*
X150729808Y-127806641D01*
X150599923Y-127936527D01*
X150516426Y-128020024D01*
X150498462Y-128037988D01*
X150460024Y-128076425D01*
X150429500Y-128150116D01*
X150429500Y-134304174D01*
X150415148Y-134338822D01*
X150407724Y-134344915D01*
X150394056Y-134354048D01*
X150394051Y-134354052D01*
X150350843Y-134418719D01*
X150350843Y-134418720D01*
X150339500Y-134475745D01*
X149720499Y-134475745D01*
X149709157Y-134418720D01*
X149665948Y-134354052D01*
X149665947Y-134354050D01*
X149601281Y-134310843D01*
X149589875Y-134308574D01*
X149544255Y-134299500D01*
X149544251Y-134299500D01*
X149315748Y-134299500D01*
X149286011Y-134305415D01*
X149258720Y-134310843D01*
X149258719Y-134310843D01*
X149258717Y-134310844D01*
X149194051Y-134354051D01*
X149170742Y-134388938D01*
X149139560Y-134409773D01*
X149102777Y-134402457D01*
X149089258Y-134388938D01*
X149065947Y-134354050D01*
X149001281Y-134310843D01*
X148989875Y-134308574D01*
X148944255Y-134299500D01*
X148944251Y-134299500D01*
X148715748Y-134299500D01*
X148686011Y-134305415D01*
X148658720Y-134310843D01*
X148658719Y-134310843D01*
X148658717Y-134310844D01*
X148594051Y-134354051D01*
X148570742Y-134388938D01*
X148539560Y-134409773D01*
X148502777Y-134402457D01*
X148489258Y-134388938D01*
X148465947Y-134354050D01*
X148401281Y-134310843D01*
X148389875Y-134308574D01*
X148344255Y-134299500D01*
X148344251Y-134299500D01*
X148115748Y-134299500D01*
X148086011Y-134305415D01*
X148058720Y-134310843D01*
X148058719Y-134310843D01*
X148058717Y-134310844D01*
X147994051Y-134354051D01*
X147970742Y-134388938D01*
X147939560Y-134409773D01*
X147902777Y-134402457D01*
X147889258Y-134388938D01*
X147865947Y-134354050D01*
X147801281Y-134310843D01*
X147789875Y-134308574D01*
X147744255Y-134299500D01*
X147744251Y-134299500D01*
X147515748Y-134299500D01*
X147486011Y-134305415D01*
X147458720Y-134310843D01*
X147458719Y-134310843D01*
X147458717Y-134310844D01*
X147394050Y-134354052D01*
X147350843Y-134418718D01*
X147350843Y-134418720D01*
X147339500Y-134475745D01*
X146800500Y-134475745D01*
X146800500Y-132062474D01*
X146800500Y-132062468D01*
X146770101Y-131890062D01*
X146710225Y-131725555D01*
X146700059Y-131707948D01*
X146622692Y-131573945D01*
X146622687Y-131573939D01*
X146510164Y-131439838D01*
X146510161Y-131439835D01*
X146376060Y-131327312D01*
X146376054Y-131327307D01*
X146224451Y-131239778D01*
X146224443Y-131239774D01*
X146059942Y-131179900D01*
X146059943Y-131179900D01*
X146059938Y-131179899D01*
X145887532Y-131149500D01*
X145552407Y-131149500D01*
X145547604Y-131149264D01*
X145408582Y-131135571D01*
X145399161Y-131133697D01*
X145267798Y-131093849D01*
X145258923Y-131090173D01*
X145137855Y-131025460D01*
X145129869Y-131020124D01*
X145023754Y-130933038D01*
X145016961Y-130926245D01*
X144929875Y-130820130D01*
X144924539Y-130812144D01*
X144918111Y-130800118D01*
X144859824Y-130691072D01*
X144856151Y-130682205D01*
X144816302Y-130550838D01*
X144814428Y-130541417D01*
X144800736Y-130402396D01*
X144800500Y-130397593D01*
X144800500Y-127301583D01*
X144769709Y-127107176D01*
X144769709Y-127107174D01*
X144708884Y-126919975D01*
X144708883Y-126919973D01*
X144619527Y-126744600D01*
X144619525Y-126744597D01*
X144619524Y-126744595D01*
X144503828Y-126585354D01*
X144503824Y-126585350D01*
X144503822Y-126585347D01*
X144364652Y-126446177D01*
X144364653Y-126446177D01*
X144205399Y-126330472D01*
X144030026Y-126241116D01*
X143842826Y-126180291D01*
X143842823Y-126180290D01*
X143693482Y-126156637D01*
X143648417Y-126149500D01*
X143648416Y-126149500D01*
X115632407Y-126149500D01*
X115627604Y-126149264D01*
X115488582Y-126135571D01*
X115479161Y-126133697D01*
X115347798Y-126093849D01*
X115338923Y-126090173D01*
X115217855Y-126025460D01*
X115209869Y-126020124D01*
X115103754Y-125933038D01*
X115096961Y-125926245D01*
X115009875Y-125820130D01*
X115004539Y-125812144D01*
X114981500Y-125769042D01*
X114939824Y-125691072D01*
X114936151Y-125682205D01*
X114896302Y-125550838D01*
X114894428Y-125541417D01*
X114880736Y-125402396D01*
X114880500Y-125397593D01*
X114880500Y-115937900D01*
X115114500Y-115937900D01*
X115114500Y-116592098D01*
X115114501Y-116592103D01*
X115120980Y-116641328D01*
X115171356Y-116749359D01*
X115171357Y-116749361D01*
X115255638Y-116833642D01*
X115255640Y-116833643D01*
X115255641Y-116833644D01*
X115363670Y-116884019D01*
X115412897Y-116890500D01*
X115967102Y-116890499D01*
X116016330Y-116884019D01*
X116102172Y-116843989D01*
X116116522Y-116839814D01*
X116553968Y-116782640D01*
X116562363Y-116782271D01*
X116985678Y-116800096D01*
X117003656Y-116799317D01*
X117007597Y-116798807D01*
X117007603Y-116798804D01*
X117010930Y-116797886D01*
X117011093Y-116798477D01*
X117025398Y-116795499D01*
X117537098Y-116795499D01*
X117537102Y-116795499D01*
X117586330Y-116789019D01*
X117694359Y-116738644D01*
X117778644Y-116654359D01*
X117829019Y-116546330D01*
X117835500Y-116497103D01*
X117835499Y-115942898D01*
X117830961Y-115908425D01*
X117840668Y-115872202D01*
X117873147Y-115853451D01*
X117894683Y-115855430D01*
X117901932Y-115857786D01*
X117925490Y-115865441D01*
X117925494Y-115865441D01*
X117925498Y-115865443D01*
X117989000Y-115875500D01*
X118437499Y-115875500D01*
X118472147Y-115889852D01*
X118486499Y-115924500D01*
X118486080Y-115930894D01*
X118484500Y-115942895D01*
X118484500Y-116497098D01*
X118484501Y-116497103D01*
X118490980Y-116546328D01*
X118541356Y-116654359D01*
X118541357Y-116654361D01*
X118625638Y-116738642D01*
X118625640Y-116738643D01*
X118625641Y-116738644D01*
X118733670Y-116789019D01*
X118782897Y-116795500D01*
X119362102Y-116795499D01*
X119411330Y-116789019D01*
X119519359Y-116738644D01*
X119603644Y-116654359D01*
X119654019Y-116546330D01*
X119660500Y-116497103D01*
X119660499Y-115942898D01*
X119658919Y-115930894D01*
X119668627Y-115894669D01*
X119701106Y-115875919D01*
X119707500Y-115875500D01*
X120352367Y-115875500D01*
X120355572Y-115875421D01*
X120362456Y-115875252D01*
X120372174Y-115874774D01*
X120444459Y-115857787D01*
X120500513Y-115833259D01*
X120554659Y-115798586D01*
X120623359Y-115737518D01*
X120623362Y-115737517D01*
X120664044Y-115701356D01*
X124372731Y-112404745D01*
X124954208Y-111887877D01*
X124986762Y-111875500D01*
X129030886Y-111875500D01*
X129030887Y-111875500D01*
X129063148Y-111872952D01*
X129077570Y-111870659D01*
X129093818Y-111868077D01*
X129093837Y-111868073D01*
X129093848Y-111868072D01*
X129098513Y-111867275D01*
X129182568Y-111831234D01*
X129196289Y-111821240D01*
X129232744Y-111812442D01*
X129264744Y-111831999D01*
X129264778Y-111832046D01*
X129273684Y-111844304D01*
X129273691Y-111844312D01*
X132215686Y-114786307D01*
X132227543Y-114797268D01*
X132239354Y-114807356D01*
X132239355Y-114807357D01*
X132239357Y-114807358D01*
X132309315Y-114846536D01*
X132367506Y-114865443D01*
X132431008Y-114875500D01*
X132431009Y-114875500D01*
X134290678Y-114875500D01*
X134290689Y-114875500D01*
X134323157Y-114872919D01*
X134354044Y-114867977D01*
X134358901Y-114867140D01*
X134442885Y-114830933D01*
X134492272Y-114794815D01*
X134519939Y-114770490D01*
X134566602Y-114691833D01*
X134585328Y-114633583D01*
X134595188Y-114570047D01*
X134575739Y-108350652D01*
X134575080Y-108334844D01*
X134573861Y-108319666D01*
X134552122Y-108242820D01*
X134552119Y-108242815D01*
X134552118Y-108242811D01*
X134534374Y-108207988D01*
X134524344Y-108188304D01*
X134504742Y-108157109D01*
X134504741Y-108157107D01*
X134463840Y-108122962D01*
X134434536Y-108098498D01*
X134408725Y-108085347D01*
X134380026Y-108070724D01*
X134380019Y-108070721D01*
X134356651Y-108063128D01*
X134349551Y-108060187D01*
X134259833Y-108014473D01*
X134258439Y-108013769D01*
X134258437Y-108013768D01*
X134258436Y-108013768D01*
X134258347Y-108013723D01*
X134240403Y-108004751D01*
X134239817Y-108004707D01*
X134237962Y-108003720D01*
X134219650Y-107993465D01*
X134219649Y-107993464D01*
X134219648Y-107993464D01*
X134161457Y-107974557D01*
X134161455Y-107974556D01*
X134161453Y-107974556D01*
X134117113Y-107967534D01*
X134097955Y-107964500D01*
X130912470Y-107964500D01*
X130912463Y-107964500D01*
X130864508Y-107970175D01*
X130819568Y-107980963D01*
X130819552Y-107980968D01*
X130774230Y-107997687D01*
X130774226Y-107997688D01*
X130730102Y-108020171D01*
X130715522Y-108024908D01*
X130677664Y-108030904D01*
X130662334Y-108030904D01*
X130624475Y-108024908D01*
X130609895Y-108020170D01*
X130565776Y-107997690D01*
X130520442Y-107980966D01*
X130520432Y-107980963D01*
X130475492Y-107970175D01*
X130427535Y-107964500D01*
X130427530Y-107964500D01*
X129489000Y-107964500D01*
X129477736Y-107965386D01*
X129456865Y-107967029D01*
X129456860Y-107967029D01*
X129456856Y-107967030D01*
X129452329Y-107967746D01*
X129426272Y-107971873D01*
X129421713Y-107972647D01*
X129421710Y-107972648D01*
X129363131Y-107997687D01*
X129337617Y-108008592D01*
X129288117Y-108044556D01*
X129288114Y-108044558D01*
X129288112Y-108044560D01*
X129265760Y-108064089D01*
X129230225Y-108076077D01*
X129204721Y-108066830D01*
X129165400Y-108038262D01*
X129085770Y-107997688D01*
X129040442Y-107980966D01*
X129040432Y-107980963D01*
X128995492Y-107970175D01*
X128947535Y-107964500D01*
X128947530Y-107964500D01*
X117989000Y-107964500D01*
X117977736Y-107965386D01*
X117956865Y-107967029D01*
X117956860Y-107967029D01*
X117956856Y-107967030D01*
X117952329Y-107967746D01*
X117926272Y-107971873D01*
X117921713Y-107972647D01*
X117921710Y-107972648D01*
X117863131Y-107997687D01*
X117837617Y-108008592D01*
X117788117Y-108044556D01*
X117788110Y-108044561D01*
X117788106Y-108044565D01*
X117788105Y-108044565D01*
X117760374Y-108068794D01*
X117760372Y-108068796D01*
X117760372Y-108068797D01*
X117753339Y-108080568D01*
X117713466Y-108147303D01*
X117713464Y-108147307D01*
X117694557Y-108205498D01*
X117694556Y-108205501D01*
X117684500Y-108269001D01*
X117684500Y-115570997D01*
X117687029Y-115603134D01*
X117687032Y-115603159D01*
X117688825Y-115614479D01*
X117680068Y-115650945D01*
X117648091Y-115670539D01*
X117619720Y-115666551D01*
X117586331Y-115650981D01*
X117576484Y-115649684D01*
X117537103Y-115644500D01*
X117537099Y-115644500D01*
X116957901Y-115644500D01*
X116957896Y-115644501D01*
X116908668Y-115650980D01*
X116900678Y-115654706D01*
X116887947Y-115658642D01*
X116447315Y-115731306D01*
X116432992Y-115731546D01*
X116116521Y-115690183D01*
X116102163Y-115686005D01*
X116016331Y-115645981D01*
X116006484Y-115644684D01*
X115967103Y-115639500D01*
X115967099Y-115639500D01*
X115412901Y-115639500D01*
X115412896Y-115639501D01*
X115363671Y-115645980D01*
X115255640Y-115696356D01*
X115255638Y-115696357D01*
X115171357Y-115780638D01*
X115171356Y-115780640D01*
X115120981Y-115888668D01*
X115114500Y-115937900D01*
X114880500Y-115937900D01*
X114880500Y-98952501D01*
X117684500Y-98952501D01*
X117684500Y-105490997D01*
X117687029Y-105523134D01*
X117687032Y-105523155D01*
X117691873Y-105553727D01*
X117692647Y-105558286D01*
X117692648Y-105558289D01*
X117710620Y-105600335D01*
X117728592Y-105642383D01*
X117764556Y-105691883D01*
X117764565Y-105691893D01*
X117764565Y-105691894D01*
X117788794Y-105719625D01*
X117788797Y-105719628D01*
X117867307Y-105766536D01*
X117925498Y-105785443D01*
X117989000Y-105795500D01*
X117989001Y-105795500D01*
X129026989Y-105795500D01*
X129027000Y-105795500D01*
X129059144Y-105792970D01*
X129089737Y-105788125D01*
X129094287Y-105787352D01*
X129116242Y-105777967D01*
X129153742Y-105777547D01*
X129180557Y-105803766D01*
X129184500Y-105823025D01*
X129184500Y-106990997D01*
X129187029Y-107023134D01*
X129187032Y-107023155D01*
X129191873Y-107053727D01*
X129192647Y-107058286D01*
X129192648Y-107058289D01*
X129210620Y-107100335D01*
X129228592Y-107142383D01*
X129264556Y-107191883D01*
X129264565Y-107191893D01*
X129264565Y-107191894D01*
X129288794Y-107219625D01*
X129288797Y-107219628D01*
X129367307Y-107266536D01*
X129425498Y-107285443D01*
X129489000Y-107295500D01*
X129489001Y-107295500D01*
X134416521Y-107295500D01*
X134416524Y-107295500D01*
X134449156Y-107292893D01*
X134480200Y-107287900D01*
X134485231Y-107287026D01*
X134569154Y-107250679D01*
X134618481Y-107214478D01*
X134646109Y-107190105D01*
X134692640Y-107111371D01*
X134711268Y-107053090D01*
X134721021Y-106989539D01*
X134718979Y-106564232D01*
X134697971Y-102187543D01*
X134697971Y-102187539D01*
X134695366Y-102155893D01*
X134690522Y-102125775D01*
X134689826Y-102121713D01*
X134653882Y-102037617D01*
X134617918Y-101988117D01*
X134597340Y-101964565D01*
X134593679Y-101960374D01*
X134593678Y-101960373D01*
X134593677Y-101960372D01*
X134515167Y-101913464D01*
X134456976Y-101894557D01*
X134456974Y-101894556D01*
X134456972Y-101894556D01*
X134412632Y-101887534D01*
X134393474Y-101884500D01*
X129489000Y-101884500D01*
X129477736Y-101885386D01*
X129456865Y-101887029D01*
X129456860Y-101887029D01*
X129456856Y-101887030D01*
X129452329Y-101887746D01*
X129426272Y-101891873D01*
X129421713Y-101892647D01*
X129421710Y-101892648D01*
X129373006Y-101913466D01*
X129337617Y-101928592D01*
X129288117Y-101964556D01*
X129288110Y-101964561D01*
X129288106Y-101964565D01*
X129288105Y-101964565D01*
X129260374Y-101988794D01*
X129213466Y-102067303D01*
X129213464Y-102067307D01*
X129194557Y-102125498D01*
X129194556Y-102125501D01*
X129189743Y-102155893D01*
X129184732Y-102187539D01*
X129184500Y-102189001D01*
X129184500Y-103357655D01*
X129170148Y-103392303D01*
X129135500Y-103406655D01*
X129120360Y-103404257D01*
X129090510Y-103394559D01*
X129090498Y-103394556D01*
X129046158Y-103387534D01*
X129027000Y-103384500D01*
X129026999Y-103384500D01*
X125584674Y-103384500D01*
X125551643Y-103371693D01*
X124671234Y-102568214D01*
X120462894Y-98727597D01*
X120454207Y-98720102D01*
X120445675Y-98713145D01*
X120404267Y-98690571D01*
X120379309Y-98676964D01*
X120321118Y-98658057D01*
X120321116Y-98658056D01*
X120321114Y-98658056D01*
X120276774Y-98651034D01*
X120257616Y-98648000D01*
X120257615Y-98648000D01*
X119594667Y-98648000D01*
X119560019Y-98633648D01*
X119545667Y-98599000D01*
X119546040Y-98592969D01*
X119548388Y-98574036D01*
X119552607Y-98559358D01*
X119554019Y-98556330D01*
X119560500Y-98507103D01*
X119560499Y-97952898D01*
X119554019Y-97903670D01*
X119503644Y-97795641D01*
X119503643Y-97795640D01*
X119503642Y-97795638D01*
X119419361Y-97711357D01*
X119419359Y-97711356D01*
X119311331Y-97660981D01*
X119301484Y-97659684D01*
X119262103Y-97654500D01*
X119262099Y-97654500D01*
X118682901Y-97654500D01*
X118682896Y-97654501D01*
X118633671Y-97660980D01*
X118525640Y-97711356D01*
X118525638Y-97711357D01*
X118441357Y-97795638D01*
X118441356Y-97795640D01*
X118390981Y-97903668D01*
X118390981Y-97903670D01*
X118384501Y-97952896D01*
X118384500Y-97952900D01*
X118384500Y-98507098D01*
X118384501Y-98507103D01*
X118390980Y-98556328D01*
X118390981Y-98556330D01*
X118392390Y-98559353D01*
X118392393Y-98559358D01*
X118396609Y-98574031D01*
X118398958Y-98592968D01*
X118388981Y-98629120D01*
X118356363Y-98647627D01*
X118350331Y-98648000D01*
X117989000Y-98648000D01*
X117977736Y-98648886D01*
X117956865Y-98650529D01*
X117956860Y-98650529D01*
X117956856Y-98650530D01*
X117952329Y-98651246D01*
X117926272Y-98655373D01*
X117921713Y-98656147D01*
X117921710Y-98656148D01*
X117858641Y-98683106D01*
X117837617Y-98692092D01*
X117788117Y-98728056D01*
X117788110Y-98728061D01*
X117788106Y-98728065D01*
X117788105Y-98728065D01*
X117760374Y-98752294D01*
X117760372Y-98752296D01*
X117760372Y-98752297D01*
X117759568Y-98753643D01*
X117713466Y-98830803D01*
X117713464Y-98830807D01*
X117694557Y-98888998D01*
X117694556Y-98889001D01*
X117684500Y-98952501D01*
X114880500Y-98952501D01*
X114880500Y-97857900D01*
X115004500Y-97857900D01*
X115004500Y-98512098D01*
X115004501Y-98512103D01*
X115010980Y-98561328D01*
X115061356Y-98669359D01*
X115061357Y-98669361D01*
X115145638Y-98753642D01*
X115145640Y-98753643D01*
X115145641Y-98753644D01*
X115253670Y-98804019D01*
X115302897Y-98810500D01*
X115857102Y-98810499D01*
X115906330Y-98804019D01*
X115966511Y-98775955D01*
X115982271Y-98771615D01*
X116328680Y-98736467D01*
X116339963Y-98736629D01*
X116797637Y-98796394D01*
X116804910Y-98798514D01*
X116805069Y-98797969D01*
X116808667Y-98799018D01*
X116808668Y-98799018D01*
X116808670Y-98799019D01*
X116857897Y-98805500D01*
X117437102Y-98805499D01*
X117486330Y-98799019D01*
X117594359Y-98748644D01*
X117678644Y-98664359D01*
X117729019Y-98556330D01*
X117735500Y-98507103D01*
X117735499Y-97952898D01*
X117729019Y-97903670D01*
X117678644Y-97795641D01*
X117678643Y-97795640D01*
X117678642Y-97795638D01*
X117594361Y-97711357D01*
X117594359Y-97711356D01*
X117486331Y-97660981D01*
X117474023Y-97659360D01*
X117437103Y-97654500D01*
X117437100Y-97654500D01*
X116918823Y-97654500D01*
X116912993Y-97654152D01*
X116881723Y-97650404D01*
X116881722Y-97650404D01*
X116428292Y-97685405D01*
X116416740Y-97684928D01*
X116032613Y-97623146D01*
X116018577Y-97617455D01*
X116018245Y-97618168D01*
X115906331Y-97565981D01*
X115896484Y-97564684D01*
X115857103Y-97559500D01*
X115857099Y-97559500D01*
X115302901Y-97559500D01*
X115302896Y-97559501D01*
X115253671Y-97565980D01*
X115145640Y-97616356D01*
X115145638Y-97616357D01*
X115061357Y-97700638D01*
X115061356Y-97700640D01*
X115010981Y-97808668D01*
X115004500Y-97857900D01*
X114880500Y-97857900D01*
X114880500Y-88190000D01*
X115970000Y-88190000D01*
X115970000Y-88610000D01*
X115976364Y-88616364D01*
X115995648Y-88624352D01*
X116010000Y-88659000D01*
X116010000Y-89061000D01*
X115995648Y-89095648D01*
X115976364Y-89103635D01*
X115970000Y-89110000D01*
X115970000Y-89530000D01*
X116469704Y-89530000D01*
X116504352Y-89544352D01*
X116570000Y-89610000D01*
X116570001Y-89610000D01*
X116949999Y-89610000D01*
X116950000Y-89610000D01*
X117015648Y-89544352D01*
X117050296Y-89530000D01*
X117550000Y-89530000D01*
X117550000Y-89309499D01*
X117564352Y-89274851D01*
X117599000Y-89260499D01*
X118019895Y-89260499D01*
X118019898Y-89260499D01*
X118049213Y-89254669D01*
X118082457Y-89232457D01*
X118104669Y-89199213D01*
X118110500Y-89169899D01*
X118110499Y-88550102D01*
X118104669Y-88520787D01*
X118104667Y-88520784D01*
X118104667Y-88520783D01*
X118082457Y-88487543D01*
X118049212Y-88465330D01*
X118019904Y-88459500D01*
X118019899Y-88459500D01*
X117599000Y-88459500D01*
X117564352Y-88445148D01*
X117550000Y-88410500D01*
X117550000Y-88190000D01*
X117050296Y-88190000D01*
X117015648Y-88175648D01*
X116950000Y-88110000D01*
X116570000Y-88110000D01*
X116504352Y-88175648D01*
X116469704Y-88190000D01*
X115970000Y-88190000D01*
X114880500Y-88190000D01*
X114880500Y-84330000D01*
X115960000Y-84330000D01*
X115960000Y-84750000D01*
X115966364Y-84756364D01*
X115985648Y-84764352D01*
X116000000Y-84799000D01*
X116000000Y-85201000D01*
X115985648Y-85235648D01*
X115966364Y-85243635D01*
X115960000Y-85250000D01*
X115960000Y-85670000D01*
X116459704Y-85670000D01*
X116494352Y-85684352D01*
X116560000Y-85750000D01*
X116560001Y-85750000D01*
X116939999Y-85750000D01*
X116940000Y-85750000D01*
X117005648Y-85684352D01*
X117040296Y-85670000D01*
X117540000Y-85670000D01*
X117540000Y-85449499D01*
X117554352Y-85414851D01*
X117589000Y-85400499D01*
X118009895Y-85400499D01*
X118009898Y-85400499D01*
X118039213Y-85394669D01*
X118072457Y-85372457D01*
X118094669Y-85339213D01*
X118100500Y-85309899D01*
X118100499Y-84690102D01*
X118094669Y-84660787D01*
X118094667Y-84660784D01*
X118094667Y-84660783D01*
X118072457Y-84627543D01*
X118039212Y-84605330D01*
X118009904Y-84599500D01*
X118009899Y-84599500D01*
X117589000Y-84599500D01*
X117554352Y-84585148D01*
X117540000Y-84550500D01*
X117540000Y-84330000D01*
X117040296Y-84330000D01*
X117005648Y-84315648D01*
X116940000Y-84250000D01*
X116560000Y-84250000D01*
X116494352Y-84315648D01*
X116459704Y-84330000D01*
X115960000Y-84330000D01*
X114880500Y-84330000D01*
X114880500Y-79458752D01*
X179780500Y-79458752D01*
X179780500Y-79758248D01*
X179792133Y-79816731D01*
X179809882Y-79843295D01*
X179836447Y-79883052D01*
X179858723Y-79897936D01*
X179879558Y-79929118D01*
X179880500Y-79938678D01*
X179880500Y-81288347D01*
X179879206Y-81299533D01*
X179875177Y-81316714D01*
X179875177Y-81316715D01*
X179872401Y-81398275D01*
X179871143Y-81407762D01*
X179859927Y-81455743D01*
X179857653Y-81462926D01*
X179824924Y-81544030D01*
X179824603Y-81543900D01*
X179823161Y-81546975D01*
X179823331Y-81547046D01*
X179821485Y-81551503D01*
X179800103Y-81658998D01*
X179800103Y-81659002D01*
X179821483Y-81766492D01*
X179882375Y-81857624D01*
X179942991Y-81898126D01*
X179973505Y-81918515D01*
X179973507Y-81918516D01*
X180080997Y-81939897D01*
X180081000Y-81939897D01*
X180081003Y-81939897D01*
X180188492Y-81918516D01*
X180188492Y-81918515D01*
X180188495Y-81918515D01*
X180279624Y-81857624D01*
X180340515Y-81766495D01*
X180361897Y-81659000D01*
X180361897Y-81658998D01*
X180361897Y-81658997D01*
X180340515Y-81551506D01*
X180338668Y-81547045D01*
X180338850Y-81546969D01*
X180337436Y-81543945D01*
X180337096Y-81544083D01*
X180304346Y-81462934D01*
X180302071Y-81455749D01*
X180299200Y-81443465D01*
X180290852Y-81407754D01*
X180289596Y-81398275D01*
X180286823Y-81316717D01*
X180286495Y-81315265D01*
X180282701Y-81298443D01*
X180281500Y-81287661D01*
X180281500Y-79938678D01*
X180295852Y-79904030D01*
X180303277Y-79897936D01*
X180325552Y-79883052D01*
X180329930Y-79876500D01*
X180369867Y-79816731D01*
X180381500Y-79758248D01*
X180381500Y-79458752D01*
X180990500Y-79458752D01*
X180990500Y-79758248D01*
X181002133Y-79816731D01*
X181019882Y-79843295D01*
X181046447Y-79883052D01*
X181068723Y-79897936D01*
X181089558Y-79929118D01*
X181090500Y-79938678D01*
X181090500Y-80011118D01*
X181090500Y-80090882D01*
X181121024Y-80164574D01*
X181121025Y-80164575D01*
X181121025Y-80164576D01*
X182006137Y-81049687D01*
X182013134Y-81058515D01*
X182022429Y-81073507D01*
X182022433Y-81073511D01*
X182024180Y-81075382D01*
X182024210Y-81075413D01*
X182030569Y-81082219D01*
X182030569Y-81082220D01*
X182078143Y-81133145D01*
X182083952Y-81140730D01*
X182108343Y-81180002D01*
X182109956Y-81182599D01*
X182113426Y-81189284D01*
X182115416Y-81193966D01*
X182121903Y-81209232D01*
X182121903Y-81209233D01*
X182123835Y-81213779D01*
X182146094Y-81266160D01*
X182147638Y-81269792D01*
X182147310Y-81269931D01*
X182148460Y-81273108D01*
X182148638Y-81273035D01*
X182150485Y-81277495D01*
X182211375Y-81368624D01*
X182255745Y-81398271D01*
X182302505Y-81429515D01*
X182302507Y-81429516D01*
X182409997Y-81450897D01*
X182410000Y-81450897D01*
X182410003Y-81450897D01*
X182517492Y-81429516D01*
X182517492Y-81429515D01*
X182517495Y-81429515D01*
X182608624Y-81368624D01*
X182669515Y-81277495D01*
X182670403Y-81273035D01*
X182690897Y-81170002D01*
X182690897Y-81169997D01*
X182669516Y-81062507D01*
X182663629Y-81053697D01*
X182615306Y-80981376D01*
X182608624Y-80971375D01*
X182530249Y-80919007D01*
X182527750Y-80915268D01*
X182523480Y-80913453D01*
X182519596Y-80911354D01*
X182514326Y-80909172D01*
X182510963Y-80908134D01*
X182429286Y-80873427D01*
X182422607Y-80869960D01*
X182380734Y-80843955D01*
X182373139Y-80838137D01*
X182335091Y-80802593D01*
X182313508Y-80782429D01*
X182304410Y-80776680D01*
X182297668Y-80772420D01*
X182289195Y-80765645D01*
X181505852Y-79982302D01*
X181491500Y-79947654D01*
X181491500Y-79938678D01*
X181505852Y-79904030D01*
X181513277Y-79897936D01*
X181535552Y-79883052D01*
X181539930Y-79876500D01*
X181579867Y-79816731D01*
X181591500Y-79758248D01*
X181591500Y-79458752D01*
X182200500Y-79458752D01*
X182200500Y-79758248D01*
X182212133Y-79816731D01*
X182229882Y-79843295D01*
X182256447Y-79883052D01*
X182278723Y-79897936D01*
X182299558Y-79929118D01*
X182300500Y-79938678D01*
X182300500Y-79959347D01*
X182299206Y-79970533D01*
X182295177Y-79987714D01*
X182295177Y-79987715D01*
X182292401Y-80069275D01*
X182291143Y-80078762D01*
X182279927Y-80126743D01*
X182277653Y-80133926D01*
X182244924Y-80215030D01*
X182244603Y-80214900D01*
X182243161Y-80217975D01*
X182243331Y-80218046D01*
X182241485Y-80222503D01*
X182220103Y-80329998D01*
X182220103Y-80330002D01*
X182241483Y-80437492D01*
X182302375Y-80528624D01*
X182362991Y-80569126D01*
X182393505Y-80589515D01*
X182393507Y-80589516D01*
X182500997Y-80610897D01*
X182501000Y-80610897D01*
X182501003Y-80610897D01*
X182608492Y-80589516D01*
X182608492Y-80589515D01*
X182608495Y-80589515D01*
X182699624Y-80528624D01*
X182760515Y-80437495D01*
X182778568Y-80346739D01*
X182781897Y-80330002D01*
X182781897Y-80329997D01*
X182765667Y-80248408D01*
X182760515Y-80222505D01*
X182760513Y-80222503D01*
X182758668Y-80218045D01*
X182758850Y-80217969D01*
X182757436Y-80214945D01*
X182757096Y-80215083D01*
X182724346Y-80133934D01*
X182722071Y-80126749D01*
X182716728Y-80103891D01*
X182710852Y-80078754D01*
X182709596Y-80069275D01*
X182706823Y-79987717D01*
X182702701Y-79969443D01*
X182701500Y-79958661D01*
X182701500Y-79938678D01*
X182715852Y-79904030D01*
X182723277Y-79897936D01*
X182745552Y-79883052D01*
X182749930Y-79876500D01*
X182789867Y-79816731D01*
X182801500Y-79758248D01*
X182801500Y-79458752D01*
X182789867Y-79400269D01*
X182763301Y-79360512D01*
X182745552Y-79333947D01*
X182705795Y-79307382D01*
X182679231Y-79289633D01*
X182620748Y-79278000D01*
X182381252Y-79278000D01*
X182322769Y-79289633D01*
X182256447Y-79333947D01*
X182212133Y-79400269D01*
X182200500Y-79458752D01*
X181591500Y-79458752D01*
X181579867Y-79400269D01*
X181553301Y-79360512D01*
X181535552Y-79333947D01*
X181495795Y-79307382D01*
X181469231Y-79289633D01*
X181410748Y-79278000D01*
X181171252Y-79278000D01*
X181112769Y-79289633D01*
X181046447Y-79333947D01*
X181002133Y-79400269D01*
X180990500Y-79458752D01*
X180381500Y-79458752D01*
X180369867Y-79400269D01*
X180343301Y-79360512D01*
X180325552Y-79333947D01*
X180285795Y-79307382D01*
X180259231Y-79289633D01*
X180200748Y-79278000D01*
X179961252Y-79278000D01*
X179902769Y-79289633D01*
X179836447Y-79333947D01*
X179792133Y-79400269D01*
X179780500Y-79458752D01*
X114880500Y-79458752D01*
X114880500Y-79161927D01*
X183697500Y-79161927D01*
X183697500Y-79290072D01*
X183722497Y-79415737D01*
X183722498Y-79415742D01*
X183740314Y-79458752D01*
X183771535Y-79534127D01*
X183842724Y-79640669D01*
X183933331Y-79731276D01*
X184039873Y-79802465D01*
X184158256Y-79851501D01*
X184283931Y-79876500D01*
X184412069Y-79876500D01*
X184537744Y-79851501D01*
X184656127Y-79802465D01*
X184762669Y-79731276D01*
X184853276Y-79640669D01*
X184924465Y-79534127D01*
X184955686Y-79458752D01*
X185890500Y-79458752D01*
X185890500Y-79758248D01*
X185902133Y-79816731D01*
X185919882Y-79843295D01*
X185946447Y-79883052D01*
X185968723Y-79897936D01*
X185989558Y-79929118D01*
X185990500Y-79938678D01*
X185990500Y-81099640D01*
X185988892Y-81112089D01*
X185985026Y-81126804D01*
X185985026Y-81126806D01*
X185980308Y-81204735D01*
X185978207Y-81216261D01*
X185963561Y-81263583D01*
X185961693Y-81268623D01*
X185926225Y-81350249D01*
X185925039Y-81353093D01*
X185924351Y-81354814D01*
X185921167Y-81360857D01*
X185920484Y-81362506D01*
X185899103Y-81469997D01*
X185899103Y-81470002D01*
X185920483Y-81577492D01*
X185981375Y-81668624D01*
X186041991Y-81709126D01*
X186072505Y-81729515D01*
X186072507Y-81729516D01*
X186179997Y-81750897D01*
X186180000Y-81750897D01*
X186180003Y-81750897D01*
X186287492Y-81729516D01*
X186287492Y-81729515D01*
X186287495Y-81729515D01*
X186378624Y-81668624D01*
X186439515Y-81577495D01*
X186444686Y-81551503D01*
X186460897Y-81470002D01*
X186460897Y-81469997D01*
X186459086Y-81460897D01*
X186458634Y-81458629D01*
X186457809Y-81445692D01*
X186457963Y-81443476D01*
X186457455Y-81439516D01*
X186443205Y-81328327D01*
X186443202Y-81328307D01*
X186441273Y-81317651D01*
X186441267Y-81317620D01*
X186441266Y-81317619D01*
X186441265Y-81317609D01*
X186440714Y-81315263D01*
X186437688Y-81304825D01*
X186412508Y-81232202D01*
X186410203Y-81222385D01*
X186396953Y-81118991D01*
X186393573Y-81107742D01*
X186391500Y-81093641D01*
X186391500Y-79938678D01*
X186405852Y-79904030D01*
X186413277Y-79897936D01*
X186435552Y-79883052D01*
X186439930Y-79876500D01*
X186479867Y-79816731D01*
X186491500Y-79758248D01*
X186491500Y-79458752D01*
X187100500Y-79458752D01*
X187100500Y-79758248D01*
X187112133Y-79816731D01*
X187129882Y-79843295D01*
X187156447Y-79883052D01*
X187178723Y-79897936D01*
X187199558Y-79929118D01*
X187200500Y-79938678D01*
X187200500Y-80000882D01*
X187231024Y-80074574D01*
X187231025Y-80074575D01*
X187231025Y-80074576D01*
X188323987Y-81167537D01*
X188328083Y-81172187D01*
X188344942Y-81193962D01*
X188344951Y-81193971D01*
X188385511Y-81229230D01*
X188388012Y-81231562D01*
X188450024Y-81293574D01*
X188506426Y-81349976D01*
X188560046Y-81372185D01*
X188568514Y-81376711D01*
X188571375Y-81378622D01*
X188571376Y-81378624D01*
X188662505Y-81439515D01*
X188662507Y-81439516D01*
X188769997Y-81460897D01*
X188770000Y-81460897D01*
X188770003Y-81460897D01*
X188877492Y-81439516D01*
X188877492Y-81439515D01*
X188877495Y-81439515D01*
X188968624Y-81378624D01*
X189029515Y-81287495D01*
X189031505Y-81277495D01*
X189050897Y-81180002D01*
X189050897Y-81179997D01*
X189029516Y-81072507D01*
X188968624Y-80981375D01*
X188877492Y-80920483D01*
X188770004Y-80899103D01*
X188769999Y-80899103D01*
X188764090Y-80900278D01*
X188751206Y-80900803D01*
X188751205Y-80900921D01*
X188749158Y-80900887D01*
X188748924Y-80900897D01*
X188748794Y-80900882D01*
X188678782Y-80906609D01*
X188673628Y-80906758D01*
X188662345Y-80906491D01*
X188636110Y-80898132D01*
X188613089Y-80882610D01*
X188613088Y-80882609D01*
X188613086Y-80882608D01*
X188613083Y-80882606D01*
X188607447Y-80879919D01*
X188593887Y-80870337D01*
X188550122Y-80826572D01*
X188535770Y-80791924D01*
X188550122Y-80757276D01*
X188575208Y-80743866D01*
X188672495Y-80724515D01*
X188763624Y-80663624D01*
X188824515Y-80572495D01*
X188845897Y-80465000D01*
X188845213Y-80461567D01*
X188844837Y-80448828D01*
X188844487Y-80448815D01*
X188844580Y-80446404D01*
X188838529Y-80344698D01*
X188837829Y-80332934D01*
X188837403Y-80327852D01*
X188837280Y-80326715D01*
X188836591Y-80321547D01*
X188823898Y-80241472D01*
X188823383Y-80236738D01*
X188816969Y-80128890D01*
X188812915Y-80112389D01*
X188811500Y-80100698D01*
X188811500Y-79938678D01*
X188825852Y-79904030D01*
X188833277Y-79897936D01*
X188855552Y-79883052D01*
X188859930Y-79876500D01*
X188899867Y-79816731D01*
X188911500Y-79758248D01*
X188911500Y-79458752D01*
X188899867Y-79400269D01*
X188873301Y-79360512D01*
X188855552Y-79333947D01*
X188815795Y-79307382D01*
X188789231Y-79289633D01*
X188730748Y-79278000D01*
X188491252Y-79278000D01*
X188432769Y-79289633D01*
X188366447Y-79333947D01*
X188322133Y-79400269D01*
X188310500Y-79458752D01*
X188310500Y-79758248D01*
X188322133Y-79816731D01*
X188339882Y-79843295D01*
X188366447Y-79883052D01*
X188388723Y-79897936D01*
X188409558Y-79929118D01*
X188410500Y-79938678D01*
X188410500Y-80095469D01*
X188407687Y-80111831D01*
X188405140Y-80119020D01*
X188405137Y-80119032D01*
X188395388Y-80186241D01*
X188389460Y-80203482D01*
X188364709Y-80246879D01*
X188363851Y-80248408D01*
X188363796Y-80248508D01*
X188363301Y-80249421D01*
X188316402Y-80336877D01*
X188314173Y-80341278D01*
X188313700Y-80342270D01*
X188313616Y-80342514D01*
X188312881Y-80343987D01*
X188312543Y-80344698D01*
X188312530Y-80344692D01*
X188308094Y-80353598D01*
X188305485Y-80357502D01*
X188305484Y-80357505D01*
X188286133Y-80454789D01*
X188265298Y-80485971D01*
X188228515Y-80493287D01*
X188203427Y-80479877D01*
X187658386Y-79934836D01*
X187644034Y-79900188D01*
X187652292Y-79872965D01*
X187666633Y-79851502D01*
X187689867Y-79816731D01*
X187701500Y-79758248D01*
X187701500Y-79458752D01*
X187689867Y-79400269D01*
X187663301Y-79360512D01*
X187645552Y-79333947D01*
X187605795Y-79307382D01*
X187579231Y-79289633D01*
X187520748Y-79278000D01*
X187281252Y-79278000D01*
X187222769Y-79289633D01*
X187156447Y-79333947D01*
X187112133Y-79400269D01*
X187100500Y-79458752D01*
X186491500Y-79458752D01*
X186479867Y-79400269D01*
X186453301Y-79360512D01*
X186435552Y-79333947D01*
X186395795Y-79307382D01*
X186369231Y-79289633D01*
X186310748Y-79278000D01*
X186071252Y-79278000D01*
X186012769Y-79289633D01*
X185946447Y-79333947D01*
X185902133Y-79400269D01*
X185890500Y-79458752D01*
X184955686Y-79458752D01*
X184973501Y-79415744D01*
X184998500Y-79290069D01*
X184998500Y-79161931D01*
X184973501Y-79036256D01*
X184924465Y-78917873D01*
X184853276Y-78811331D01*
X184762669Y-78720724D01*
X184656127Y-78649535D01*
X184537744Y-78600499D01*
X184537742Y-78600498D01*
X184537737Y-78600497D01*
X184412072Y-78575500D01*
X184412069Y-78575500D01*
X184283931Y-78575500D01*
X184283927Y-78575500D01*
X184158262Y-78600497D01*
X184158257Y-78600498D01*
X184039874Y-78649534D01*
X183933331Y-78720723D01*
X183842723Y-78811331D01*
X183771534Y-78917874D01*
X183722498Y-79036257D01*
X183722497Y-79036262D01*
X183697500Y-79161927D01*
X114880500Y-79161927D01*
X114880500Y-77402406D01*
X114880736Y-77397603D01*
X114894428Y-77258582D01*
X114896302Y-77249161D01*
X114936153Y-77117790D01*
X114939822Y-77108930D01*
X115004542Y-76987850D01*
X115009871Y-76979874D01*
X115096961Y-76873753D01*
X115103754Y-76866961D01*
X115209874Y-76779871D01*
X115217850Y-76774542D01*
X115338930Y-76709822D01*
X115347790Y-76706153D01*
X115479162Y-76666301D01*
X115488581Y-76664428D01*
X115627604Y-76650736D01*
X115632407Y-76650500D01*
X115674170Y-76650500D01*
X198785830Y-76650500D01*
X198827593Y-76650500D01*
X198832396Y-76650736D01*
G37*
%TD.AperFunction*%
%TA.AperFunction,Conductor*%
G36*
X188627537Y-85019180D02*
G01*
X188628017Y-85020184D01*
X188689093Y-85165466D01*
X188689140Y-85174420D01*
X188689093Y-85174534D01*
X188628017Y-85319815D01*
X188621651Y-85326114D01*
X188612697Y-85326067D01*
X188611693Y-85325587D01*
X188521160Y-85276940D01*
X188520879Y-85276785D01*
X188449759Y-85236016D01*
X188449755Y-85236015D01*
X188350011Y-85221460D01*
X188342319Y-85216875D01*
X188340000Y-85209883D01*
X188340000Y-85130116D01*
X188343427Y-85121843D01*
X188350010Y-85118539D01*
X188449758Y-85103983D01*
X188520920Y-85063189D01*
X188521062Y-85063110D01*
X188611694Y-85014411D01*
X188620603Y-85013514D01*
X188627537Y-85019180D01*
G37*
%TD.AperFunction*%
%TA.AperFunction,Conductor*%
G36*
X180177964Y-81312427D02*
G01*
X180181384Y-81320302D01*
X180184672Y-81417006D01*
X180184672Y-81417010D01*
X180202052Y-81491363D01*
X180238362Y-81581334D01*
X180238280Y-81590289D01*
X180232046Y-81596499D01*
X180085534Y-81658093D01*
X180076580Y-81658140D01*
X180076466Y-81658093D01*
X179929953Y-81596499D01*
X179923654Y-81590133D01*
X179923637Y-81581335D01*
X179923637Y-81581334D01*
X179959945Y-81491365D01*
X179977326Y-81417013D01*
X179980616Y-81320302D01*
X179984322Y-81312150D01*
X179992309Y-81309000D01*
X180169691Y-81309000D01*
X180177964Y-81312427D01*
G37*
%TD.AperFunction*%
%TA.AperFunction,Conductor*%
G36*
X134451665Y-102108907D02*
G01*
X134487629Y-102158407D01*
X134492473Y-102188525D01*
X134515523Y-106990525D01*
X134496895Y-107048806D01*
X134447568Y-107085007D01*
X134416524Y-107090000D01*
X129489000Y-107090000D01*
X129430809Y-107071093D01*
X129394845Y-107021593D01*
X129390000Y-106991000D01*
X129390000Y-102189000D01*
X129408907Y-102130809D01*
X129458407Y-102094845D01*
X129489000Y-102090000D01*
X134393474Y-102090000D01*
X134451665Y-102108907D01*
G37*
%TD.AperFunction*%
%TA.AperFunction,Conductor*%
G36*
X195138717Y-117057939D02*
G01*
X195145016Y-117064305D01*
X195145387Y-117065353D01*
X195175018Y-117163811D01*
X195175106Y-117164120D01*
X195196556Y-117243195D01*
X195196557Y-117243197D01*
X195256797Y-117324020D01*
X195258993Y-117332701D01*
X195255689Y-117339285D01*
X195204035Y-117390938D01*
X195195762Y-117394365D01*
X195187489Y-117390938D01*
X195186033Y-117389163D01*
X195184510Y-117386883D01*
X195184509Y-117386882D01*
X195093381Y-117325992D01*
X194996290Y-117306679D01*
X194995201Y-117306408D01*
X194925353Y-117285387D01*
X194918419Y-117279721D01*
X194917521Y-117270811D01*
X194917892Y-117269763D01*
X194977435Y-117123845D01*
X194983732Y-117117481D01*
X195129764Y-117057892D01*
X195138717Y-117057939D01*
G37*
%TD.AperFunction*%
%TA.AperFunction,Conductor*%
G36*
X116925368Y-115762870D02*
G01*
X116928113Y-115765637D01*
X117244364Y-116214135D01*
X117246331Y-116222871D01*
X117245147Y-116226343D01*
X117000953Y-116688465D01*
X116994057Y-116694179D01*
X116990116Y-116694689D01*
X116296208Y-116665471D01*
X116288086Y-116661699D01*
X116285000Y-116653781D01*
X116285000Y-115874928D01*
X116288427Y-115866655D01*
X116294794Y-115863384D01*
X116916648Y-115760835D01*
X116925368Y-115762870D01*
G37*
%TD.AperFunction*%
%TA.AperFunction,Conductor*%
G36*
X116898355Y-97758371D02*
G01*
X116901088Y-97761790D01*
X117145429Y-98224189D01*
X117146264Y-98233104D01*
X117145135Y-98235645D01*
X116872768Y-98692688D01*
X116865589Y-98698040D01*
X116861202Y-98698300D01*
X116195185Y-98611329D01*
X116187425Y-98606859D01*
X116185000Y-98599727D01*
X116185000Y-97820831D01*
X116188427Y-97812558D01*
X116195799Y-97809166D01*
X116889843Y-97755591D01*
X116898355Y-97758371D01*
G37*
%TD.AperFunction*%
%TA.AperFunction,Conductor*%
G36*
X188667537Y-86029180D02*
G01*
X188668017Y-86030184D01*
X188729093Y-86175466D01*
X188729140Y-86184420D01*
X188729093Y-86184534D01*
X188668017Y-86329815D01*
X188661651Y-86336114D01*
X188652697Y-86336067D01*
X188651693Y-86335587D01*
X188561160Y-86286940D01*
X188560879Y-86286785D01*
X188489759Y-86246016D01*
X188489755Y-86246015D01*
X188390011Y-86231460D01*
X188382319Y-86226875D01*
X188380000Y-86219883D01*
X188380000Y-86140116D01*
X188383427Y-86131843D01*
X188390010Y-86128539D01*
X188489758Y-86113983D01*
X188560920Y-86073189D01*
X188561062Y-86073110D01*
X188651694Y-86024411D01*
X188660603Y-86023514D01*
X188667537Y-86029180D01*
G37*
%TD.AperFunction*%
%TA.AperFunction,Conductor*%
G36*
X182662305Y-118655266D02*
G01*
X182773703Y-118666256D01*
X182777110Y-118667123D01*
X182859415Y-118701930D01*
X182859919Y-118702157D01*
X182967035Y-118753554D01*
X182973012Y-118760223D01*
X182972807Y-118768523D01*
X182912850Y-118915465D01*
X182906551Y-118921831D01*
X182906471Y-118921864D01*
X182761865Y-118981394D01*
X182752910Y-118981375D01*
X182746592Y-118975029D01*
X182745875Y-118972529D01*
X182737288Y-118921831D01*
X182729352Y-118874982D01*
X182729252Y-118874238D01*
X182720575Y-118788420D01*
X182720574Y-118788419D01*
X182656071Y-118757195D01*
X182650118Y-118750506D01*
X182649469Y-118746664D01*
X182649469Y-118666910D01*
X182652896Y-118658637D01*
X182661169Y-118655210D01*
X182662305Y-118655266D01*
G37*
%TD.AperFunction*%
%TA.AperFunction,Conductor*%
G36*
X185730235Y-106127891D02*
G01*
X185876152Y-106187434D01*
X185882518Y-106193733D01*
X185882565Y-106193847D01*
X185942107Y-106339763D01*
X185942060Y-106348717D01*
X185935694Y-106355016D01*
X185934646Y-106355387D01*
X185836187Y-106385018D01*
X185835878Y-106385106D01*
X185777242Y-106401012D01*
X185756804Y-106406556D01*
X185753143Y-106409285D01*
X185675979Y-106466797D01*
X185667298Y-106468993D01*
X185660714Y-106465689D01*
X185604310Y-106409285D01*
X185600883Y-106401012D01*
X185603201Y-106394022D01*
X185663442Y-106313195D01*
X185684900Y-106234088D01*
X185684979Y-106233811D01*
X185697042Y-106193733D01*
X185714612Y-106135352D01*
X185720278Y-106128419D01*
X185729188Y-106127521D01*
X185730235Y-106127891D01*
G37*
%TD.AperFunction*%
%TA.AperFunction,Conductor*%
G36*
X188627537Y-90029180D02*
G01*
X188628017Y-90030184D01*
X188689093Y-90175466D01*
X188689140Y-90184420D01*
X188689093Y-90184534D01*
X188628017Y-90329815D01*
X188621651Y-90336114D01*
X188612697Y-90336067D01*
X188611693Y-90335587D01*
X188521160Y-90286940D01*
X188520879Y-90286785D01*
X188449759Y-90246016D01*
X188449755Y-90246015D01*
X188350011Y-90231460D01*
X188342319Y-90226875D01*
X188340000Y-90219883D01*
X188340000Y-90140116D01*
X188343427Y-90131843D01*
X188350010Y-90128539D01*
X188449758Y-90113983D01*
X188520920Y-90073189D01*
X188521062Y-90073110D01*
X188611694Y-90024411D01*
X188620603Y-90023514D01*
X188627537Y-90029180D01*
G37*
%TD.AperFunction*%
%TA.AperFunction,Conductor*%
G36*
X186288977Y-81125615D02*
G01*
X186292309Y-81132401D01*
X186307591Y-81251650D01*
X186307594Y-81251662D01*
X186338009Y-81339385D01*
X186338560Y-81341731D01*
X186353319Y-81456888D01*
X186350972Y-81465529D01*
X186343201Y-81469980D01*
X186341781Y-81470075D01*
X186182394Y-81470986D01*
X186177793Y-81470072D01*
X186125658Y-81448154D01*
X186029235Y-81407618D01*
X186022937Y-81401253D01*
X186022984Y-81392299D01*
X186022990Y-81392284D01*
X186061833Y-81302893D01*
X186084492Y-81229684D01*
X186090334Y-81133179D01*
X186094255Y-81125130D01*
X186102013Y-81122188D01*
X186280704Y-81122188D01*
X186288977Y-81125615D01*
G37*
%TD.AperFunction*%
%TA.AperFunction,Conductor*%
G36*
X115977878Y-97721199D02*
G01*
X116520158Y-97808417D01*
X116527782Y-97813115D01*
X116530000Y-97819969D01*
X116530000Y-98599427D01*
X116526573Y-98607700D01*
X116519481Y-98611067D01*
X115948231Y-98669028D01*
X115939654Y-98666454D01*
X115937682Y-98664397D01*
X115584572Y-98192447D01*
X115582360Y-98183770D01*
X115584999Y-98177892D01*
X115967083Y-97725205D01*
X115975038Y-97721094D01*
X115977878Y-97721199D01*
G37*
%TD.AperFunction*%
%TA.AperFunction,Conductor*%
G36*
X191200708Y-115276414D02*
G01*
X191345555Y-115337308D01*
X191351854Y-115343674D01*
X191351807Y-115352628D01*
X191351123Y-115353996D01*
X191298795Y-115443567D01*
X191298265Y-115444393D01*
X191250066Y-115512959D01*
X191250065Y-115512960D01*
X191249802Y-115514394D01*
X191231907Y-115611904D01*
X191231760Y-115612703D01*
X191226896Y-115620222D01*
X191220252Y-115622291D01*
X191140453Y-115622291D01*
X191132180Y-115618864D01*
X191128827Y-115611904D01*
X191125027Y-115578276D01*
X191117811Y-115514394D01*
X191084398Y-115442872D01*
X191040042Y-115353639D01*
X191039429Y-115344706D01*
X191045312Y-115337955D01*
X191045955Y-115337660D01*
X191191640Y-115276413D01*
X191200594Y-115276367D01*
X191200708Y-115276414D01*
G37*
%TD.AperFunction*%
%TA.AperFunction,Conductor*%
G36*
X153568326Y-126981674D02*
G01*
X153590000Y-127034000D01*
X153590000Y-127586000D01*
X153568326Y-127638326D01*
X153516000Y-127660000D01*
X152374000Y-127660000D01*
X152321674Y-127638326D01*
X152300000Y-127586000D01*
X152300000Y-127034000D01*
X152321674Y-126981674D01*
X152374000Y-126960000D01*
X153516000Y-126960000D01*
X153568326Y-126981674D01*
G37*
%TD.AperFunction*%
%TA.AperFunction,Conductor*%
G36*
X197074521Y-119330901D02*
G01*
X197219815Y-119391982D01*
X197226114Y-119398348D01*
X197226067Y-119407302D01*
X197225587Y-119408306D01*
X197176940Y-119498838D01*
X197176785Y-119499119D01*
X197136016Y-119570238D01*
X197136015Y-119570242D01*
X197121461Y-119669989D01*
X197116876Y-119677681D01*
X197109884Y-119680000D01*
X197030116Y-119680000D01*
X197021843Y-119676573D01*
X197018539Y-119669989D01*
X197003983Y-119570241D01*
X197003982Y-119570239D01*
X196963207Y-119499109D01*
X196963093Y-119498905D01*
X196914411Y-119408305D01*
X196913514Y-119399396D01*
X196919180Y-119392462D01*
X196920170Y-119391988D01*
X197065466Y-119330905D01*
X197074420Y-119330859D01*
X197074521Y-119330901D01*
G37*
%TD.AperFunction*%
%TA.AperFunction,Conductor*%
G36*
X188554108Y-80970083D02*
G01*
X188614628Y-81010889D01*
X188679276Y-81012422D01*
X188757396Y-81006031D01*
X188765921Y-81008772D01*
X188770011Y-81016738D01*
X188770050Y-81017645D01*
X188770687Y-81175794D01*
X188767293Y-81184081D01*
X188767213Y-81184161D01*
X188653970Y-81296116D01*
X188645677Y-81299496D01*
X188638068Y-81296626D01*
X188559102Y-81227981D01*
X188492398Y-81182254D01*
X188491337Y-81181434D01*
X188484849Y-81175794D01*
X188414161Y-81114345D01*
X188410166Y-81106332D01*
X188413008Y-81097840D01*
X188413551Y-81097257D01*
X188539297Y-80971511D01*
X188547569Y-80968085D01*
X188554108Y-80970083D01*
G37*
%TD.AperFunction*%
%TA.AperFunction,Conductor*%
G36*
X116072717Y-115790856D02*
G01*
X116629818Y-115863669D01*
X116637576Y-115868138D01*
X116640000Y-115875269D01*
X116640000Y-116654730D01*
X116636573Y-116663003D01*
X116629816Y-116666331D01*
X116072723Y-116739142D01*
X116064076Y-116736817D01*
X116062047Y-116734819D01*
X115694775Y-116272273D01*
X115692315Y-116263665D01*
X115694775Y-116257726D01*
X116062046Y-115795181D01*
X116069872Y-115790834D01*
X116072717Y-115790856D01*
G37*
%TD.AperFunction*%
%TA.AperFunction,Conductor*%
G36*
X183104381Y-116412449D02*
G01*
X183104861Y-116413453D01*
X183165937Y-116558735D01*
X183165984Y-116567689D01*
X183165937Y-116567803D01*
X183104861Y-116713084D01*
X183098495Y-116719383D01*
X183089541Y-116719336D01*
X183088537Y-116718856D01*
X182998004Y-116670209D01*
X182997723Y-116670054D01*
X182926603Y-116629285D01*
X182926599Y-116629284D01*
X182826855Y-116614729D01*
X182819163Y-116610144D01*
X182816844Y-116603152D01*
X182816844Y-116523385D01*
X182820271Y-116515112D01*
X182826854Y-116511808D01*
X182926602Y-116497252D01*
X182997764Y-116456458D01*
X182997906Y-116456379D01*
X183088538Y-116407680D01*
X183097447Y-116406783D01*
X183104381Y-116412449D01*
G37*
%TD.AperFunction*%
%TA.AperFunction,Conductor*%
G36*
X130472474Y-108180789D02*
G01*
X130552518Y-108221574D01*
X130670000Y-108240181D01*
X130787482Y-108221574D01*
X130867525Y-108180789D01*
X130912470Y-108170000D01*
X134097955Y-108170000D01*
X134156146Y-108188907D01*
X134164910Y-108196392D01*
X134166533Y-108197571D01*
X134166535Y-108197573D01*
X134166537Y-108197574D01*
X134272511Y-108251571D01*
X134272515Y-108251572D01*
X134272518Y-108251574D01*
X134286726Y-108253824D01*
X134341243Y-108281601D01*
X134369021Y-108336117D01*
X134370240Y-108351295D01*
X134389689Y-114570690D01*
X134370963Y-114628940D01*
X134321576Y-114665058D01*
X134290689Y-114670000D01*
X132431008Y-114670000D01*
X132372817Y-114651093D01*
X132361004Y-114641004D01*
X129418996Y-111698996D01*
X129391219Y-111644479D01*
X129390000Y-111628992D01*
X129390000Y-108269000D01*
X129408907Y-108210809D01*
X129458407Y-108174845D01*
X129489000Y-108170000D01*
X130427530Y-108170000D01*
X130472474Y-108180789D01*
G37*
%TD.AperFunction*%
%TA.AperFunction,Conductor*%
G36*
X188637537Y-83999180D02*
G01*
X188638017Y-84000184D01*
X188699093Y-84145466D01*
X188699140Y-84154420D01*
X188699093Y-84154534D01*
X188638017Y-84299815D01*
X188631651Y-84306114D01*
X188622697Y-84306067D01*
X188621693Y-84305587D01*
X188531160Y-84256940D01*
X188530879Y-84256785D01*
X188459759Y-84216016D01*
X188459755Y-84216015D01*
X188360011Y-84201460D01*
X188352319Y-84196875D01*
X188350000Y-84189883D01*
X188350000Y-84110116D01*
X188353427Y-84101843D01*
X188360010Y-84098539D01*
X188459758Y-84083983D01*
X188530920Y-84043189D01*
X188531062Y-84043110D01*
X188621694Y-83994411D01*
X188630603Y-83993514D01*
X188637537Y-83999180D01*
G37*
%TD.AperFunction*%
%TA.AperFunction,Conductor*%
G36*
X188717537Y-94029180D02*
G01*
X188718017Y-94030184D01*
X188779093Y-94175466D01*
X188779140Y-94184420D01*
X188779093Y-94184534D01*
X188718017Y-94329815D01*
X188711651Y-94336114D01*
X188702697Y-94336067D01*
X188701693Y-94335587D01*
X188611160Y-94286940D01*
X188610879Y-94286785D01*
X188539759Y-94246016D01*
X188539755Y-94246015D01*
X188440011Y-94231460D01*
X188432319Y-94226875D01*
X188430000Y-94219883D01*
X188430000Y-94140116D01*
X188433427Y-94131843D01*
X188440010Y-94128539D01*
X188539758Y-94113983D01*
X188610920Y-94073189D01*
X188611062Y-94073110D01*
X188701694Y-94024411D01*
X188710603Y-94023514D01*
X188717537Y-94029180D01*
G37*
%TD.AperFunction*%
%TA.AperFunction,Conductor*%
G36*
X182241485Y-80859520D02*
G01*
X182263070Y-80879686D01*
X182312195Y-80925579D01*
X182312197Y-80925580D01*
X182312198Y-80925581D01*
X182377063Y-80965866D01*
X182460886Y-81001486D01*
X182466355Y-81003810D01*
X182472629Y-81010199D01*
X182472612Y-81018998D01*
X182412565Y-81166152D01*
X182406266Y-81172518D01*
X182406152Y-81172565D01*
X182258998Y-81232612D01*
X182250044Y-81232565D01*
X182243810Y-81226355D01*
X182220932Y-81172518D01*
X182205866Y-81137063D01*
X182165581Y-81072198D01*
X182165580Y-81072197D01*
X182165579Y-81072195D01*
X182107661Y-81010199D01*
X182099520Y-81001485D01*
X182096378Y-80993101D01*
X182099797Y-80985227D01*
X182225227Y-80859797D01*
X182233499Y-80856371D01*
X182241485Y-80859520D01*
G37*
%TD.AperFunction*%
%TA.AperFunction,Conductor*%
G36*
X188687537Y-91029180D02*
G01*
X188688017Y-91030184D01*
X188749093Y-91175466D01*
X188749140Y-91184420D01*
X188749093Y-91184534D01*
X188688017Y-91329815D01*
X188681651Y-91336114D01*
X188672697Y-91336067D01*
X188671693Y-91335587D01*
X188581160Y-91286940D01*
X188580879Y-91286785D01*
X188509759Y-91246016D01*
X188509755Y-91246015D01*
X188410011Y-91231460D01*
X188402319Y-91226875D01*
X188400000Y-91219883D01*
X188400000Y-91140116D01*
X188403427Y-91131843D01*
X188410010Y-91128539D01*
X188509758Y-91113983D01*
X188580920Y-91073189D01*
X188581062Y-91073110D01*
X188671694Y-91024411D01*
X188680603Y-91023514D01*
X188687537Y-91029180D01*
G37*
%TD.AperFunction*%
%TA.AperFunction,Conductor*%
G36*
X128992474Y-108180789D02*
G01*
X129072104Y-108221363D01*
X129115367Y-108264627D01*
X129126158Y-108309459D01*
X129129887Y-111570887D01*
X129111046Y-111629099D01*
X129061587Y-111665120D01*
X129030887Y-111670000D01*
X124890000Y-111670000D01*
X120501375Y-115571000D01*
X120418132Y-115644994D01*
X120362078Y-115669522D01*
X120352360Y-115670000D01*
X117989000Y-115670000D01*
X117930809Y-115651093D01*
X117894845Y-115601593D01*
X117890000Y-115571000D01*
X117890000Y-108269000D01*
X117908907Y-108210809D01*
X117958407Y-108174845D01*
X117989000Y-108170000D01*
X128947530Y-108170000D01*
X128992474Y-108180789D01*
G37*
%TD.AperFunction*%
%TA.AperFunction,Conductor*%
G36*
X188657537Y-88029180D02*
G01*
X188658017Y-88030184D01*
X188719093Y-88175466D01*
X188719140Y-88184420D01*
X188719093Y-88184534D01*
X188658017Y-88329815D01*
X188651651Y-88336114D01*
X188642697Y-88336067D01*
X188641693Y-88335587D01*
X188551160Y-88286940D01*
X188550879Y-88286785D01*
X188479759Y-88246016D01*
X188479755Y-88246015D01*
X188380011Y-88231460D01*
X188372319Y-88226875D01*
X188370000Y-88219883D01*
X188370000Y-88140116D01*
X188373427Y-88131843D01*
X188380010Y-88128539D01*
X188479758Y-88113983D01*
X188550920Y-88073189D01*
X188551062Y-88073110D01*
X188641694Y-88024411D01*
X188650603Y-88023514D01*
X188657537Y-88029180D01*
G37*
%TD.AperFunction*%
%TA.AperFunction,Conductor*%
G36*
X119487500Y-115408931D02*
G01*
X119502500Y-115543363D01*
X119517120Y-115670000D01*
X119517497Y-115673271D01*
X119532497Y-115798702D01*
X119546588Y-115912307D01*
X119544206Y-115920939D01*
X119541245Y-115923627D01*
X119078768Y-116217023D01*
X119069946Y-116218561D01*
X119066232Y-116217023D01*
X118808074Y-116053247D01*
X118603753Y-115923626D01*
X118598604Y-115916301D01*
X118598411Y-115912312D01*
X118612500Y-115798727D01*
X118627500Y-115673295D01*
X118627880Y-115670000D01*
X118642500Y-115543363D01*
X118657500Y-115408931D01*
X118672500Y-115270000D01*
X119472500Y-115270000D01*
X119487500Y-115408931D01*
G37*
%TD.AperFunction*%
%TA.AperFunction,Conductor*%
G36*
X188727537Y-93019180D02*
G01*
X188728017Y-93020184D01*
X188789093Y-93165466D01*
X188789140Y-93174420D01*
X188789093Y-93174534D01*
X188728017Y-93319815D01*
X188721651Y-93326114D01*
X188712697Y-93326067D01*
X188711693Y-93325587D01*
X188621160Y-93276940D01*
X188620879Y-93276785D01*
X188549759Y-93236016D01*
X188549755Y-93236015D01*
X188450011Y-93221460D01*
X188442319Y-93216875D01*
X188440000Y-93209883D01*
X188440000Y-93130116D01*
X188443427Y-93121843D01*
X188450010Y-93118539D01*
X188549758Y-93103983D01*
X188620920Y-93063189D01*
X188621062Y-93063110D01*
X188711694Y-93014411D01*
X188720603Y-93013514D01*
X188727537Y-93019180D01*
G37*
%TD.AperFunction*%
%TA.AperFunction,Conductor*%
G36*
X192244521Y-116250901D02*
G01*
X192389815Y-116311982D01*
X192396114Y-116318348D01*
X192396067Y-116327302D01*
X192395587Y-116328306D01*
X192346940Y-116418838D01*
X192346785Y-116419119D01*
X192306016Y-116490238D01*
X192306015Y-116490242D01*
X192291461Y-116589989D01*
X192286876Y-116597681D01*
X192279884Y-116600000D01*
X192200116Y-116600000D01*
X192191843Y-116596573D01*
X192188539Y-116589989D01*
X192173983Y-116490241D01*
X192173982Y-116490239D01*
X192133207Y-116419109D01*
X192133093Y-116418905D01*
X192084411Y-116328305D01*
X192083514Y-116319396D01*
X192089180Y-116312462D01*
X192090170Y-116311988D01*
X192235466Y-116250905D01*
X192244420Y-116250859D01*
X192244521Y-116250901D01*
G37*
%TD.AperFunction*%
%TA.AperFunction,Conductor*%
G36*
X189394105Y-113392163D02*
G01*
X189541342Y-113452244D01*
X189547708Y-113458543D01*
X189547755Y-113458657D01*
X189607836Y-113605894D01*
X189607789Y-113614848D01*
X189601662Y-113621046D01*
X189340360Y-113734482D01*
X189331407Y-113734633D01*
X189327428Y-113732023D01*
X189267976Y-113672571D01*
X189264549Y-113664298D01*
X189265517Y-113659639D01*
X189282271Y-113621046D01*
X189378954Y-113398335D01*
X189385391Y-113392113D01*
X189394105Y-113392163D01*
G37*
%TD.AperFunction*%
%TA.AperFunction,Conductor*%
G36*
X120315807Y-98872407D02*
G01*
X120324352Y-98879375D01*
X124532707Y-102720005D01*
X125486000Y-103590000D01*
X129027000Y-103590000D01*
X129085191Y-103608907D01*
X129121155Y-103658407D01*
X129126000Y-103689000D01*
X129126000Y-105491000D01*
X129107093Y-105549191D01*
X129057593Y-105585155D01*
X129027000Y-105590000D01*
X117989000Y-105590000D01*
X117930809Y-105571093D01*
X117894845Y-105521593D01*
X117890000Y-105491000D01*
X117890000Y-98952500D01*
X117908907Y-98894309D01*
X117958407Y-98858345D01*
X117989000Y-98853500D01*
X120257616Y-98853500D01*
X120315807Y-98872407D01*
G37*
%TD.AperFunction*%
%TA.AperFunction,Conductor*%
G36*
X186030235Y-108117891D02*
G01*
X186176152Y-108177434D01*
X186182518Y-108183733D01*
X186182565Y-108183847D01*
X186242107Y-108329763D01*
X186242060Y-108338717D01*
X186235694Y-108345016D01*
X186234646Y-108345387D01*
X186136187Y-108375018D01*
X186135878Y-108375106D01*
X186077242Y-108391012D01*
X186056804Y-108396556D01*
X186053143Y-108399285D01*
X185975979Y-108456797D01*
X185967298Y-108458993D01*
X185960714Y-108455689D01*
X185904310Y-108399285D01*
X185900883Y-108391012D01*
X185903201Y-108384022D01*
X185963442Y-108303195D01*
X185984900Y-108224088D01*
X185984979Y-108223811D01*
X185997042Y-108183733D01*
X186014612Y-108125352D01*
X186020278Y-108118419D01*
X186029188Y-108117521D01*
X186030235Y-108117891D01*
G37*
%TD.AperFunction*%
%TA.AperFunction,Conductor*%
G36*
X118978766Y-98232975D02*
G01*
X119441246Y-98526372D01*
X119446395Y-98533697D01*
X119446588Y-98537691D01*
X119432497Y-98651296D01*
X119417502Y-98776678D01*
X119417500Y-98776703D01*
X119402500Y-98906636D01*
X119387500Y-99041068D01*
X119372500Y-99180000D01*
X118572500Y-99180000D01*
X118557500Y-99041068D01*
X118542500Y-98906636D01*
X118527500Y-98776703D01*
X118512500Y-98651271D01*
X118498411Y-98537688D01*
X118500793Y-98529059D01*
X118503748Y-98526375D01*
X118966232Y-98232975D01*
X118975054Y-98231438D01*
X118978766Y-98232975D01*
G37*
%TD.AperFunction*%
%TA.AperFunction,Conductor*%
G36*
X188708249Y-80127577D02*
G01*
X188711655Y-80135155D01*
X188718518Y-80250528D01*
X188732392Y-80338062D01*
X188732515Y-80339199D01*
X188739266Y-80452675D01*
X188736337Y-80461137D01*
X188728282Y-80465049D01*
X188727654Y-80465070D01*
X188567394Y-80465986D01*
X188562793Y-80465072D01*
X188415174Y-80403013D01*
X188408875Y-80396647D01*
X188408922Y-80387693D01*
X188409390Y-80386712D01*
X188456216Y-80299391D01*
X188456308Y-80299224D01*
X188495596Y-80230343D01*
X188509546Y-80134168D01*
X188514125Y-80126475D01*
X188521125Y-80124150D01*
X188699976Y-80124150D01*
X188708249Y-80127577D01*
G37*
%TD.AperFunction*%
%TA.AperFunction,Conductor*%
G36*
X188640235Y-96107891D02*
G01*
X188786152Y-96167434D01*
X188792518Y-96173733D01*
X188792565Y-96173847D01*
X188852107Y-96319763D01*
X188852060Y-96328717D01*
X188845694Y-96335016D01*
X188844646Y-96335387D01*
X188746187Y-96365018D01*
X188745878Y-96365106D01*
X188687242Y-96381012D01*
X188666804Y-96386556D01*
X188663143Y-96389285D01*
X188585979Y-96446797D01*
X188577298Y-96448993D01*
X188570714Y-96445689D01*
X188514310Y-96389285D01*
X188510883Y-96381012D01*
X188513201Y-96374022D01*
X188573442Y-96293195D01*
X188594900Y-96214088D01*
X188594979Y-96213811D01*
X188607042Y-96173733D01*
X188624612Y-96115352D01*
X188630278Y-96108419D01*
X188639188Y-96107521D01*
X188640235Y-96107891D01*
G37*
%TD.AperFunction*%
%TA.AperFunction,Conductor*%
G36*
X186194521Y-109680901D02*
G01*
X186339815Y-109741982D01*
X186346114Y-109748348D01*
X186346067Y-109757302D01*
X186345587Y-109758306D01*
X186296940Y-109848838D01*
X186296785Y-109849119D01*
X186256016Y-109920238D01*
X186256015Y-109920242D01*
X186241461Y-110019989D01*
X186236876Y-110027681D01*
X186229884Y-110030000D01*
X186150116Y-110030000D01*
X186141843Y-110026573D01*
X186138539Y-110019989D01*
X186123983Y-109920241D01*
X186123982Y-109920239D01*
X186083207Y-109849109D01*
X186083093Y-109848905D01*
X186034411Y-109758305D01*
X186033514Y-109749396D01*
X186039180Y-109742462D01*
X186040170Y-109741988D01*
X186185466Y-109680905D01*
X186194420Y-109680859D01*
X186194521Y-109680901D01*
G37*
%TD.AperFunction*%
%TA.AperFunction,Conductor*%
G36*
X182734638Y-117445077D02*
G01*
X182736937Y-117446851D01*
X182847511Y-117556539D01*
X182850971Y-117564798D01*
X182850971Y-117564912D01*
X182850065Y-117723613D01*
X182846591Y-117731866D01*
X182838615Y-117735243D01*
X182740914Y-117737332D01*
X182664793Y-117741654D01*
X182664380Y-117741670D01*
X182567454Y-117743744D01*
X182559110Y-117740495D01*
X182555507Y-117732297D01*
X182555504Y-117732047D01*
X182555504Y-117651958D01*
X182558931Y-117643685D01*
X182562903Y-117641078D01*
X182638403Y-117611268D01*
X182669275Y-117533216D01*
X182670068Y-117531591D01*
X182718618Y-117449214D01*
X182725770Y-117443829D01*
X182734638Y-117445077D01*
G37*
%TD.AperFunction*%
%TA.AperFunction,Conductor*%
G36*
X190270235Y-111587891D02*
G01*
X190416152Y-111647434D01*
X190422518Y-111653733D01*
X190422565Y-111653847D01*
X190482107Y-111799763D01*
X190482060Y-111808717D01*
X190475694Y-111815016D01*
X190474646Y-111815387D01*
X190376187Y-111845018D01*
X190375878Y-111845106D01*
X190317242Y-111861012D01*
X190296804Y-111866556D01*
X190293143Y-111869285D01*
X190215979Y-111926797D01*
X190207298Y-111928993D01*
X190200714Y-111925689D01*
X190144310Y-111869285D01*
X190140883Y-111861012D01*
X190143201Y-111854022D01*
X190203442Y-111773195D01*
X190224900Y-111694088D01*
X190224979Y-111693811D01*
X190237042Y-111653733D01*
X190254612Y-111595352D01*
X190260278Y-111588419D01*
X190269188Y-111587521D01*
X190270235Y-111587891D01*
G37*
%TD.AperFunction*%
%TA.AperFunction,Conductor*%
G36*
X188607524Y-82029220D02*
G01*
X188608129Y-82030451D01*
X188669093Y-82175466D01*
X188669140Y-82184420D01*
X188669093Y-82184534D01*
X188607921Y-82330043D01*
X188601555Y-82336342D01*
X188592601Y-82336295D01*
X188591798Y-82335921D01*
X188501994Y-82289890D01*
X188501994Y-82289889D01*
X188430589Y-82253654D01*
X188430586Y-82253653D01*
X188332229Y-82241287D01*
X188324448Y-82236855D01*
X188321989Y-82229678D01*
X188321989Y-82149886D01*
X188325416Y-82141613D01*
X188331735Y-82138350D01*
X188431469Y-82121475D01*
X188501037Y-82076093D01*
X188501613Y-82075743D01*
X188591580Y-82024803D01*
X188600466Y-82023709D01*
X188607524Y-82029220D01*
G37*
%TD.AperFunction*%
%TA.AperFunction,Conductor*%
G36*
X190193380Y-114442408D02*
G01*
X190193460Y-114442488D01*
X190304888Y-114554817D01*
X190308282Y-114563104D01*
X190304822Y-114571363D01*
X190304203Y-114571934D01*
X190236370Y-114630170D01*
X190236364Y-114630176D01*
X190187214Y-114683304D01*
X190187213Y-114683306D01*
X190171796Y-114765121D01*
X190166896Y-114772616D01*
X190160298Y-114774654D01*
X190080436Y-114774654D01*
X190072163Y-114771227D01*
X190068812Y-114764286D01*
X190068226Y-114759179D01*
X190055740Y-114650208D01*
X190029579Y-114565482D01*
X190029135Y-114563364D01*
X190028156Y-114554817D01*
X190016484Y-114452955D01*
X190018947Y-114444347D01*
X190026776Y-114440001D01*
X190028032Y-114439925D01*
X190185087Y-114439028D01*
X190193380Y-114442408D01*
G37*
%TD.AperFunction*%
%TA.AperFunction,Conductor*%
G36*
X188717537Y-92039180D02*
G01*
X188718017Y-92040184D01*
X188779093Y-92185466D01*
X188779140Y-92194420D01*
X188779093Y-92194534D01*
X188718017Y-92339815D01*
X188711651Y-92346114D01*
X188702697Y-92346067D01*
X188701693Y-92345587D01*
X188611160Y-92296940D01*
X188610879Y-92296785D01*
X188539759Y-92256016D01*
X188539755Y-92256015D01*
X188440011Y-92241460D01*
X188432319Y-92236875D01*
X188430000Y-92229883D01*
X188430000Y-92150116D01*
X188433427Y-92141843D01*
X188440010Y-92138539D01*
X188539758Y-92123983D01*
X188610920Y-92083189D01*
X188611062Y-92083110D01*
X188701694Y-92034411D01*
X188710603Y-92033514D01*
X188717537Y-92039180D01*
G37*
%TD.AperFunction*%
%TA.AperFunction,Conductor*%
G36*
X189180235Y-110247891D02*
G01*
X189326152Y-110307434D01*
X189332518Y-110313733D01*
X189332565Y-110313847D01*
X189392107Y-110459763D01*
X189392060Y-110468717D01*
X189385694Y-110475016D01*
X189384646Y-110475387D01*
X189286187Y-110505018D01*
X189285878Y-110505106D01*
X189227242Y-110521012D01*
X189206804Y-110526556D01*
X189203143Y-110529285D01*
X189125979Y-110586797D01*
X189117298Y-110588993D01*
X189110714Y-110585689D01*
X189054310Y-110529285D01*
X189050883Y-110521012D01*
X189053201Y-110514022D01*
X189113442Y-110433195D01*
X189134900Y-110354088D01*
X189134979Y-110353811D01*
X189147042Y-110313733D01*
X189164612Y-110255352D01*
X189170278Y-110248419D01*
X189179188Y-110247521D01*
X189180235Y-110247891D01*
G37*
%TD.AperFunction*%
%TA.AperFunction,Conductor*%
G36*
X182597964Y-79983427D02*
G01*
X182601384Y-79991302D01*
X182604672Y-80088006D01*
X182604672Y-80088010D01*
X182622052Y-80162363D01*
X182658362Y-80252334D01*
X182658280Y-80261289D01*
X182652046Y-80267499D01*
X182505534Y-80329093D01*
X182496580Y-80329140D01*
X182496466Y-80329093D01*
X182349953Y-80267499D01*
X182343654Y-80261133D01*
X182343637Y-80252335D01*
X182343637Y-80252334D01*
X182379945Y-80162365D01*
X182397326Y-80088013D01*
X182400616Y-79991302D01*
X182404322Y-79983150D01*
X182412309Y-79980000D01*
X182589691Y-79980000D01*
X182597964Y-79983427D01*
G37*
%TD.AperFunction*%
%TA.AperFunction,Conductor*%
G36*
X180118717Y-120617939D02*
G01*
X180125016Y-120624305D01*
X180125387Y-120625353D01*
X180155018Y-120723811D01*
X180155106Y-120724120D01*
X180176556Y-120803195D01*
X180176557Y-120803197D01*
X180236797Y-120884020D01*
X180238993Y-120892701D01*
X180235689Y-120899285D01*
X180179285Y-120955689D01*
X180171012Y-120959116D01*
X180164020Y-120956797D01*
X180162533Y-120955689D01*
X180152789Y-120948426D01*
X180083197Y-120896557D01*
X180083195Y-120896556D01*
X180004120Y-120875106D01*
X180003811Y-120875018D01*
X179905353Y-120845387D01*
X179898419Y-120839721D01*
X179897521Y-120830811D01*
X179897892Y-120829763D01*
X179957435Y-120683845D01*
X179963732Y-120677481D01*
X180109764Y-120617892D01*
X180118717Y-120617939D01*
G37*
%TD.AperFunction*%
%TA.AperFunction,Conductor*%
G36*
X188657537Y-87029180D02*
G01*
X188658017Y-87030184D01*
X188719093Y-87175466D01*
X188719140Y-87184420D01*
X188719093Y-87184534D01*
X188658017Y-87329815D01*
X188651651Y-87336114D01*
X188642697Y-87336067D01*
X188641693Y-87335587D01*
X188551160Y-87286940D01*
X188550879Y-87286785D01*
X188479759Y-87246016D01*
X188479755Y-87246015D01*
X188380011Y-87231460D01*
X188372319Y-87226875D01*
X188370000Y-87219883D01*
X188370000Y-87140116D01*
X188373427Y-87131843D01*
X188380010Y-87128539D01*
X188479758Y-87113983D01*
X188550920Y-87073189D01*
X188551062Y-87073110D01*
X188641694Y-87024411D01*
X188650603Y-87023514D01*
X188657537Y-87029180D01*
G37*
%TD.AperFunction*%
%TA.AperFunction,Conductor*%
G36*
X198054521Y-121570901D02*
G01*
X198199815Y-121631982D01*
X198206114Y-121638348D01*
X198206067Y-121647302D01*
X198205587Y-121648306D01*
X198156940Y-121738838D01*
X198156785Y-121739119D01*
X198116016Y-121810238D01*
X198116015Y-121810242D01*
X198101461Y-121909989D01*
X198096876Y-121917681D01*
X198089884Y-121920000D01*
X198010116Y-121920000D01*
X198001843Y-121916573D01*
X197998539Y-121909989D01*
X197983983Y-121810241D01*
X197983982Y-121810239D01*
X197943207Y-121739109D01*
X197943093Y-121738905D01*
X197894411Y-121648305D01*
X197893514Y-121639396D01*
X197899180Y-121632462D01*
X197900170Y-121631988D01*
X198045466Y-121570905D01*
X198054420Y-121570859D01*
X198054521Y-121570901D01*
G37*
%TD.AperFunction*%
M02*
