M48
; DRILL file {KiCad 9.0.4} date 2025-08-26T10:42:27+0200
; FORMAT={-:-/ absolute / metric / decimal}
; #@! TF.CreationDate,2025-08-26T10:42:27+02:00
; #@! TF.GenerationSoftware,Kicad,Pcbnew,9.0.4
; #@! TF.FileFunction,Plated,2,4,Buried
FMAT,2
METRIC
; #@! TA.AperFunction,Plated,Buried,ViaDrill
T1C0.150
%
G90
G05
T1
X157.09Y-118.67
X157.13Y-130.99
X157.23Y-107.19
X157.23Y-135.58
X157.29Y-93.05
X158.347Y-118.805
X158.39Y-108.51
X158.4Y-131.43
X158.48Y-135.58
X159.06Y-92.99
X159.58Y-108.17
X159.65Y-135.63
X159.67Y-119.4
X159.68Y-131.44
X160.69Y-131.38
X160.82Y-109.95
X160.87Y-135.62
X160.91Y-119.9
X161.3Y-92.46
X161.891Y-88.298
X161.98Y-98.09
X162.03Y-109.54
X162.03Y-120.2
X162.05Y-135.6
X162.057Y-131.459
X162.69Y-93.33
X163.17Y-120.47
X163.216Y-131.443
X163.24Y-99.55
X163.27Y-135.58
X164.29Y-120.59
X164.33Y-134.42
X164.45Y-129.17
X164.57Y-87.34
X165.045Y-119.27
X165.527Y-96.508
X165.779Y-107.371
X165.82Y-88.14
X165.93Y-121.45
X166.63Y-129.22
X166.74Y-126.24
X166.76Y-106.18
X166.79Y-117.99
X167.08Y-97.31
X167.43Y-90.2
X167.43Y-92.16
X167.56Y-88.34
X167.67Y-108.28
X167.72Y-118.13
X167.759Y-132.434
X168.18Y-97.9
X168.48Y-110.27
X168.54Y-124.65
X168.55Y-99.16
X168.55Y-118.81
X168.6Y-104.51
X168.66Y-130.06
X168.87Y-127.78
X169.06Y-135.49
X169.52Y-99.57
X169.6Y-112.24
X169.6Y-119.83
X169.61Y-124.17
X169.64Y-83.56
X169.67Y-86.17
X170.08Y-92.05
X170.24Y-135.48
X170.626Y-128.272
X171.02Y-99.71
X171.25Y-127.37
X171.34Y-112.31
X171.47Y-135.5
X171.66Y-105.29
X172.24Y-131.08
X172.58Y-133.61
X172.66Y-135.47
X172.78Y-100.08
X172.937Y-87.223
X172.94Y-85.23
X173.28Y-103.3
X173.28Y-109.3
X173.28Y-115.3
X173.28Y-121.3
X173.8Y-133.59
X173.86Y-135.49
X173.93Y-109.04
X173.93Y-115.04
X173.93Y-121.04
X174.15Y-89.56
X174.58Y-108.21
X174.58Y-114.21
X174.58Y-120.21
X174.743Y-95.776
X175.08Y-135.52
X175.27Y-108.24
X175.27Y-114.24
X175.27Y-120.24
X176.02Y-88.23
X176.02Y-108.32
X176.02Y-114.32
X176.02Y-120.32
X176.16Y-101.92
X176.504Y-86.194
X176.785Y-108.13
X176.785Y-114.13
X176.785Y-120.13
X177.32Y-127.24
X177.4Y-99.21
X177.46Y-113.92
X177.46Y-119.92
X177.67Y-98.13
X177.69Y-92.23
X178.04Y-94.13
X178.19Y-107.91
X178.19Y-113.91
X178.19Y-119.91
X178.75Y-97.17
X178.915Y-127.895
X178.94Y-101.59
X178.94Y-107.59
X178.94Y-113.59
X178.94Y-119.59
X179.27Y-83.47
X179.61Y-126.64
X179.63Y-118.95
X179.935Y-87.178
X180.25Y-128.24
X180.46Y-132.38
X180.59Y-119.31
X180.66Y-126.63
X180.69Y-85.2
X181.145Y-126.075
X181.67Y-133.5
X181.78Y-135.47
X182.01Y-125.1
X182.03Y-120.94
X182.326Y-126.334
X183.0Y-135.5
X183.01Y-133.45
X183.33Y-122.24
X183.63Y-120.86
X183.94Y-129.88
X184.15Y-133.52
X184.16Y-135.46
X184.39Y-120.36
X184.53Y-129.46
X184.71Y-127.79
X185.38Y-135.44
X185.41Y-133.6
X185.52Y-113.37
X185.92Y-115.92
X185.968Y-120.465
X186.29Y-117.93
X186.34Y-130.35
X186.56Y-133.69
X186.58Y-135.48
X186.84Y-127.81
X187.27Y-122.66
X187.7Y-126.52
X187.71Y-135.49
X187.73Y-133.69
X188.41Y-130.47
X188.75Y-126.42
X188.77Y-123.01
X188.87Y-133.82
X188.93Y-135.5
X188.95Y-125.37
X189.49Y-129.43
X189.57Y-119.73
X190.03Y-117.81
X190.11Y-115.45
X190.17Y-135.53
X190.24Y-133.86
X191.08Y-135.91
X191.48Y-129.09
X191.7Y-135.92
X192.31Y-135.92
X192.44Y-128.85
X192.88Y-135.92
X193.02Y-127.43
X193.45Y-135.97
X194.07Y-135.97
X194.67Y-135.94
X195.0Y-120.46
X195.02Y-123.18
X195.28Y-135.97
X195.87Y-135.99
X196.45Y-135.98
X196.6Y-134.73
X197.29Y-135.64
M30
