%TF.GenerationSoftware,KiCad,Pcbnew,8.0.2*%
%TF.CreationDate,2024-07-11T13:13:48+02:00*%
%TF.ProjectId,HYDRA_VMM3_CARD,48594452-415f-4564-9d4d-335f43415244,rev?*%
%TF.SameCoordinates,Original*%
%TF.FileFunction,Paste,Bot*%
%TF.FilePolarity,Positive*%
%FSLAX46Y46*%
G04 Gerber Fmt 4.6, Leading zero omitted, Abs format (unit mm)*
G04 Created by KiCad (PCBNEW 8.0.2) date 2024-07-11 13:13:48*
%MOMM*%
%LPD*%
G01*
G04 APERTURE LIST*
G04 Aperture macros list*
%AMRoundRect*
0 Rectangle with rounded corners*
0 $1 Rounding radius*
0 $2 $3 $4 $5 $6 $7 $8 $9 X,Y pos of 4 corners*
0 Add a 4 corners polygon primitive as box body*
4,1,4,$2,$3,$4,$5,$6,$7,$8,$9,$2,$3,0*
0 Add four circle primitives for the rounded corners*
1,1,$1+$1,$2,$3*
1,1,$1+$1,$4,$5*
1,1,$1+$1,$6,$7*
1,1,$1+$1,$8,$9*
0 Add four rect primitives between the rounded corners*
20,1,$1+$1,$2,$3,$4,$5,0*
20,1,$1+$1,$4,$5,$6,$7,0*
20,1,$1+$1,$6,$7,$8,$9,0*
20,1,$1+$1,$8,$9,$2,$3,0*%
%AMFreePoly0*
4,1,21,-0.249646,0.790354,-0.249500,0.790000,0.250000,0.790000,0.250000,-0.790000,-0.249500,-0.790000,-0.249646,-0.790354,-0.250000,-0.790500,-0.330000,-0.790500,-0.330354,-0.790354,-0.330500,-0.790000,-0.330500,-0.270000,-0.330354,-0.269646,-0.250500,-0.189792,-0.250500,0.189792,-0.330354,0.269646,-0.330500,0.270000,-0.330500,0.790000,-0.330354,0.790354,-0.330000,0.790500,-0.250000,0.790500,
-0.249646,0.790354,-0.249646,0.790354,$1*%
%AMFreePoly1*
4,1,21,0.330354,0.790354,0.330500,0.790000,0.330500,0.270000,0.330354,0.269646,0.250500,0.189792,0.250500,-0.189792,0.330354,-0.269646,0.330500,-0.270000,0.330500,-0.790000,0.330354,-0.790354,0.330000,-0.790500,0.250000,-0.790500,0.249646,-0.790354,0.249500,-0.790000,-0.250000,-0.790000,-0.250000,0.790000,0.249500,0.790000,0.249646,0.790354,0.250000,0.790500,0.330000,0.790500,
0.330354,0.790354,0.330354,0.790354,$1*%
G04 Aperture macros list end*
%ADD10RoundRect,0.095000X-0.095000X-0.965000X0.095000X-0.965000X0.095000X0.965000X-0.095000X0.965000X0*%
%ADD11RoundRect,0.237500X0.237500X-0.250000X0.237500X0.250000X-0.237500X0.250000X-0.237500X-0.250000X0*%
%ADD12RoundRect,0.237500X-0.237500X0.250000X-0.237500X-0.250000X0.237500X-0.250000X0.237500X0.250000X0*%
%ADD13RoundRect,0.237500X-0.237500X0.287500X-0.237500X-0.287500X0.237500X-0.287500X0.237500X0.287500X0*%
%ADD14R,0.600000X0.550000*%
%ADD15FreePoly0,180.000000*%
%ADD16FreePoly1,180.000000*%
%ADD17R,0.500000X0.500000*%
%ADD18R,0.550000X0.600000*%
%ADD19FreePoly0,270.000000*%
%ADD20FreePoly1,270.000000*%
%ADD21C,0.150000*%
%ADD22RoundRect,0.237500X0.371231X-0.035355X-0.035355X0.371231X-0.371231X0.035355X0.035355X-0.371231X0*%
%ADD23RoundRect,0.237500X0.237500X-0.287500X0.237500X0.287500X-0.237500X0.287500X-0.237500X-0.287500X0*%
G04 APERTURE END LIST*
D10*
%TO.C,J1*%
X90100000Y-91840000D03*
X90700000Y-91840000D03*
X91300000Y-91840000D03*
X91900000Y-91840000D03*
X92500000Y-91840000D03*
X93100000Y-91840000D03*
X93700000Y-91840000D03*
X94300000Y-91840000D03*
X94900000Y-91840000D03*
X95500000Y-91840000D03*
X96100000Y-91840000D03*
X96700000Y-91840000D03*
X97300000Y-91840000D03*
X97900000Y-91840000D03*
X98500000Y-91840000D03*
X99100000Y-91840000D03*
X99700000Y-91840000D03*
X100300000Y-91840000D03*
X100900000Y-91840000D03*
X101500000Y-91840000D03*
X102100000Y-91840000D03*
X102700000Y-91840000D03*
X103300000Y-91840000D03*
X103900000Y-91840000D03*
X104500000Y-91840000D03*
X105100000Y-91840000D03*
X105700000Y-91840000D03*
X106300000Y-91840000D03*
X110310000Y-91840000D03*
X110910000Y-91840000D03*
X111510000Y-91840000D03*
X112110000Y-91840000D03*
X112710000Y-91840000D03*
X113310000Y-91840000D03*
X113910000Y-91840000D03*
X114510000Y-91840000D03*
X115110000Y-91840000D03*
X115710000Y-91840000D03*
X116310000Y-91840000D03*
X116910000Y-91840000D03*
X117510000Y-91840000D03*
X118110000Y-91840000D03*
X123020000Y-91840000D03*
X123620000Y-91840000D03*
X124220000Y-91840000D03*
X124820000Y-91840000D03*
X125420000Y-91840000D03*
X126020000Y-91840000D03*
X126620000Y-91840000D03*
X127220000Y-91840000D03*
X127820000Y-91840000D03*
X128420000Y-91840000D03*
X129020000Y-91840000D03*
X129620000Y-91840000D03*
X130220000Y-91840000D03*
X130820000Y-91840000D03*
X131420000Y-91840000D03*
X132020000Y-91840000D03*
X132620000Y-91840000D03*
X133220000Y-91840000D03*
X133820000Y-91840000D03*
X134420000Y-91840000D03*
X135020000Y-91840000D03*
X135620000Y-91840000D03*
X136220000Y-91840000D03*
X136820000Y-91840000D03*
X137420000Y-91840000D03*
X138020000Y-91840000D03*
X138620000Y-91840000D03*
X139220000Y-91840000D03*
%TD*%
D11*
%TO.C,R2*%
X66260000Y-75755000D03*
X66260000Y-73930000D03*
%TD*%
D12*
%TO.C,R1*%
X66260000Y-55425000D03*
X66260000Y-57250000D03*
%TD*%
D13*
%TO.C,3.3V_On1*%
X64670000Y-55485000D03*
X64670000Y-57235000D03*
%TD*%
D14*
%TO.C,Temp_TX1*%
X92300000Y-37755000D03*
D15*
X91300000Y-36780000D03*
D16*
X93300000Y-36780000D03*
D17*
X92300000Y-35780000D03*
%TD*%
D18*
%TO.C,Sig2*%
X65925000Y-49970000D03*
D19*
X64950000Y-50970000D03*
D20*
X64950000Y-48970000D03*
D17*
X63950000Y-49970000D03*
%TD*%
D18*
%TO.C,Sig1*%
X65925000Y-43970000D03*
D19*
X64950000Y-44970000D03*
D20*
X64950000Y-42970000D03*
D17*
X63950000Y-43970000D03*
%TD*%
D21*
%TO.C,Temp_1*%
X95006000Y-40000000D03*
X95006000Y-40400000D03*
X95406000Y-40000000D03*
X95406000Y-40400000D03*
%TD*%
D22*
%TO.C,3.3V_0.5A1*%
X73468718Y-65928718D03*
X72231282Y-64691282D03*
%TD*%
D21*
%TO.C,Temp_2*%
X95006000Y-75560000D03*
X95406000Y-75560000D03*
X95006000Y-75160000D03*
X95406000Y-75160000D03*
%TD*%
D22*
%TO.C,1.8V_2.5A1*%
X68068718Y-69638718D03*
X66831282Y-68401282D03*
%TD*%
D23*
%TO.C,1.8_On1*%
X64670000Y-75695000D03*
X64670000Y-73945000D03*
%TD*%
D14*
%TO.C,Temp_RX1*%
X99300000Y-37755000D03*
D15*
X98300000Y-36780000D03*
D16*
X100300000Y-36780000D03*
D17*
X99300000Y-35780000D03*
%TD*%
M02*
