%TF.GenerationSoftware,KiCad,Pcbnew,8.0.7*%
%TF.CreationDate,2025-02-18T16:04:48+01:00*%
%TF.ProjectId,HYDRA_VMM3_CARD_V3_Flex,48594452-415f-4564-9d4d-335f43415244,rev?*%
%TF.SameCoordinates,Original*%
%TF.FileFunction,Copper,L7,Inr*%
%TF.FilePolarity,Positive*%
%FSLAX46Y46*%
G04 Gerber Fmt 4.6, Leading zero omitted, Abs format (unit mm)*
G04 Created by KiCad (PCBNEW 8.0.7) date 2025-02-18 16:04:48*
%MOMM*%
%LPD*%
G01*
G04 APERTURE LIST*
%TA.AperFunction,ComponentPad*%
%ADD10C,2.000000*%
%TD*%
%TA.AperFunction,ComponentPad*%
%ADD11C,1.600000*%
%TD*%
%TA.AperFunction,ComponentPad*%
%ADD12R,1.600000X1.600000*%
%TD*%
%TA.AperFunction,ViaPad*%
%ADD13C,0.350000*%
%TD*%
G04 APERTURE END LIST*
D10*
X134778000Y-122000000D03*
X193073000Y-121980000D03*
X193073000Y-78280000D03*
X129698000Y-78300000D03*
X190533000Y-78280000D03*
X129698000Y-122000000D03*
X132238000Y-80840000D03*
X190533000Y-121980000D03*
X193073000Y-124520000D03*
X193073000Y-80820000D03*
X171493000Y-124540000D03*
X137318000Y-80840000D03*
D11*
X121980000Y-104590000D03*
D10*
X129698000Y-80840000D03*
X190533000Y-124520000D03*
X134778000Y-80840000D03*
X137318000Y-122000000D03*
X134778000Y-124540000D03*
X171493000Y-80840000D03*
X132238000Y-122000000D03*
X174033000Y-80820000D03*
D12*
X121980000Y-107130000D03*
D10*
X174033000Y-78280000D03*
X171493000Y-122000000D03*
X134778000Y-78300000D03*
X190533000Y-80820000D03*
D11*
X121980000Y-109670000D03*
D10*
X171493000Y-78300000D03*
X132238000Y-78300000D03*
X132238000Y-124540000D03*
X129698000Y-124540000D03*
X137318000Y-124540000D03*
X137318000Y-78300000D03*
D13*
X133890000Y-113670000D03*
X131890000Y-111170000D03*
X133390000Y-113670000D03*
X133890000Y-111670000D03*
X132890000Y-111170000D03*
X131390000Y-111170000D03*
X131890000Y-110170000D03*
X131890000Y-111670000D03*
X131890000Y-109670000D03*
X132890000Y-108670000D03*
X132890000Y-111670000D03*
X132390000Y-113670000D03*
X147630000Y-136260000D03*
X132390000Y-110170000D03*
X131890000Y-110670000D03*
X131890000Y-112670000D03*
X133390000Y-110170000D03*
X132890000Y-112170000D03*
X148230000Y-135460000D03*
X133390000Y-114170000D03*
X149430000Y-135460000D03*
X148230000Y-135860000D03*
X131890000Y-112170000D03*
X133890000Y-110170000D03*
X131890000Y-109170000D03*
X133390000Y-111170000D03*
X148230000Y-134660000D03*
X148830000Y-136260000D03*
X131390000Y-108670000D03*
X132390000Y-111170000D03*
X132390000Y-112670000D03*
X131390000Y-110670000D03*
X132390000Y-112170000D03*
X133890000Y-109170000D03*
X132390000Y-109170000D03*
X132890000Y-110170000D03*
X133890000Y-112670000D03*
X133890000Y-111170000D03*
X132390000Y-111670000D03*
X147630000Y-134660000D03*
X133390000Y-109670000D03*
X133890000Y-114170000D03*
X133890000Y-108670000D03*
X132390000Y-108670000D03*
X131390000Y-112170000D03*
X147630000Y-135060000D03*
X132390000Y-110670000D03*
X131390000Y-111670000D03*
X131890000Y-108670000D03*
X148230000Y-136260000D03*
X133390000Y-110670000D03*
X131390000Y-109670000D03*
X148830000Y-135860000D03*
X132890000Y-113670000D03*
X132390000Y-114170000D03*
X133890000Y-112170000D03*
X148830000Y-135460000D03*
X147630000Y-135860000D03*
X149430000Y-135860000D03*
X133390000Y-112670000D03*
X131890000Y-113670000D03*
X132390000Y-113170000D03*
X133390000Y-111670000D03*
X149430000Y-136260000D03*
X131390000Y-110170000D03*
X148230000Y-135060000D03*
X132890000Y-109670000D03*
X133390000Y-112170000D03*
X133390000Y-113170000D03*
X133890000Y-113170000D03*
X133890000Y-109670000D03*
X131390000Y-113170000D03*
X131390000Y-109170000D03*
X132890000Y-110670000D03*
X149430000Y-135060000D03*
X133890000Y-110670000D03*
X133390000Y-109170000D03*
X148830000Y-134660000D03*
X132890000Y-109170000D03*
X133390000Y-108670000D03*
X132390000Y-109670000D03*
X131390000Y-112670000D03*
X132890000Y-112670000D03*
X131890000Y-113170000D03*
X147630000Y-135460000D03*
X148830000Y-135060000D03*
X149430000Y-134660000D03*
X132890000Y-113170000D03*
X132890000Y-114170000D03*
X132890000Y-103590000D03*
X132890000Y-106590000D03*
X130890000Y-103590000D03*
X133390000Y-103590000D03*
X130890000Y-106590000D03*
X131390000Y-105590000D03*
X132390000Y-103590000D03*
X131390000Y-104590000D03*
X133890000Y-104590000D03*
X131390000Y-102590000D03*
X133890000Y-102590000D03*
X131890000Y-102590000D03*
X130890000Y-105590000D03*
X132390000Y-104590000D03*
X133390000Y-104590000D03*
X132890000Y-105590000D03*
X131890000Y-105590000D03*
X133390000Y-102590000D03*
X133890000Y-103590000D03*
X131390000Y-103590000D03*
X132890000Y-102590000D03*
X133890000Y-105590000D03*
X131390000Y-106590000D03*
X131890000Y-103590000D03*
X133890000Y-106590000D03*
X153260000Y-127310000D03*
X131890000Y-104590000D03*
X133390000Y-106590000D03*
X132390000Y-102590000D03*
X132390000Y-106590000D03*
X131890000Y-106590000D03*
X132390000Y-105590000D03*
X132890000Y-104590000D03*
X130890000Y-102590000D03*
X133390000Y-105590000D03*
X152775000Y-127310000D03*
X188670000Y-82180000D03*
X188690000Y-90180000D03*
X188730000Y-86180000D03*
X186550000Y-135460000D03*
X170840000Y-135460000D03*
X194980000Y-117120000D03*
X197070000Y-119330000D03*
X190190000Y-114440000D03*
X188700000Y-84150000D03*
X198050000Y-121570000D03*
X189545190Y-113454810D03*
X188720000Y-88180000D03*
X193750000Y-135460000D03*
X168440000Y-135460000D03*
X188780000Y-94180000D03*
X182350000Y-135460000D03*
X191196174Y-115275508D03*
X196150000Y-135460000D03*
X159030000Y-135460000D03*
X161430000Y-135460000D03*
X160230000Y-135460000D03*
X194950000Y-135460000D03*
X188790000Y-96170000D03*
X189330000Y-110310000D03*
X188690000Y-85170000D03*
X184750000Y-135460000D03*
X187750000Y-135460000D03*
X183550000Y-135460000D03*
X190420000Y-111650000D03*
X186180000Y-108180000D03*
X162630000Y-135460000D03*
X192550000Y-135460000D03*
X185350000Y-135460000D03*
X188790000Y-93170000D03*
X185880000Y-106190000D03*
X157830000Y-135460000D03*
X181150000Y-135460000D03*
X188750000Y-91180000D03*
X188780000Y-92190000D03*
X156630000Y-135460000D03*
X163830000Y-135460000D03*
X190150000Y-135460000D03*
X188720000Y-87180000D03*
X192240000Y-116250000D03*
X186190000Y-109680000D03*
X191350000Y-135460000D03*
X169640000Y-135460000D03*
X188950000Y-135460000D03*
X172040000Y-135460000D03*
X182850000Y-117560000D03*
X188565000Y-80465000D03*
X179960000Y-120680000D03*
X174440000Y-135460000D03*
X182501000Y-80330000D03*
X182910000Y-118920000D03*
X188770000Y-81180000D03*
X180081000Y-81659000D03*
X182940000Y-120170000D03*
X175640000Y-135460000D03*
X183166844Y-116563269D03*
X173240000Y-135460000D03*
X183294657Y-119153542D03*
X197558449Y-116587371D03*
X181298000Y-89426000D03*
X189216566Y-94289142D03*
X152110000Y-100938500D03*
X153630000Y-135060000D03*
X117860000Y-89435002D03*
X154830000Y-135860000D03*
X189236303Y-93227587D03*
X116330000Y-113200000D03*
X117900000Y-84424998D03*
X115130000Y-110300000D03*
X115730000Y-104300000D03*
X147590000Y-108480000D03*
X154230000Y-135060000D03*
X191360000Y-114830000D03*
X155430000Y-134660000D03*
X185977505Y-83119829D03*
X153630000Y-135460000D03*
X185870288Y-89108816D03*
X151450000Y-126670000D03*
X154830000Y-135460000D03*
X147736000Y-79213500D03*
X150000000Y-130490000D03*
X115130000Y-113800000D03*
X189137396Y-85218367D03*
X151230000Y-136260000D03*
X134390000Y-107890000D03*
X115130000Y-109700000D03*
X154230000Y-135860000D03*
X187398000Y-89426000D03*
X116330000Y-109700000D03*
X153630000Y-135860000D03*
X194985886Y-117585507D03*
X115130000Y-104900000D03*
X150030000Y-135460000D03*
X189118911Y-82211319D03*
X115130000Y-100800000D03*
X155430000Y-135460000D03*
X179723138Y-120297379D03*
X187398000Y-83426000D03*
X136780000Y-107860000D03*
X151230000Y-134660000D03*
X147230000Y-109290000D03*
X149320000Y-109790000D03*
X147790000Y-111680000D03*
X154230000Y-136260000D03*
X149680000Y-113300000D03*
X189200000Y-84180000D03*
X187398000Y-107426000D03*
X130670000Y-107860000D03*
X189181024Y-91309307D03*
X116330000Y-104900000D03*
X140040000Y-107860000D03*
X155430000Y-135860000D03*
X151230000Y-135460000D03*
X151450000Y-127960000D03*
X190030000Y-112980000D03*
X150030000Y-135060000D03*
X190677308Y-111280819D03*
X154830000Y-135060000D03*
X115730000Y-109700000D03*
X185542177Y-105892716D03*
X116330000Y-113800000D03*
X191402884Y-110363885D03*
X185368259Y-95077667D03*
X198192304Y-121143091D03*
X157736000Y-79213500D03*
X154230000Y-134660000D03*
X183080151Y-117004842D03*
X182642632Y-119832253D03*
X146157552Y-108617539D03*
X115130000Y-101400000D03*
X115730000Y-104900000D03*
X197095673Y-118880730D03*
X148345137Y-108884725D03*
X148787663Y-110780074D03*
X186225416Y-109231393D03*
X149980000Y-126560000D03*
X192540687Y-113555270D03*
X115130000Y-113200000D03*
X115130000Y-104300000D03*
X196492875Y-115208557D03*
X189239808Y-96156770D03*
X116330000Y-110900000D03*
X148590000Y-112480000D03*
X154830000Y-134660000D03*
X115730000Y-113200000D03*
X189466182Y-107988441D03*
X150030000Y-134660000D03*
X150030000Y-135860000D03*
X151230000Y-135060000D03*
X149660000Y-111240000D03*
X116330000Y-110300000D03*
X189230003Y-92190000D03*
X115730000Y-110300000D03*
X156736000Y-80213500D03*
X115730000Y-110900000D03*
X115730000Y-100800000D03*
X185955486Y-96251323D03*
X155430000Y-135060000D03*
X189129839Y-90275100D03*
X129190000Y-107860000D03*
X198233879Y-118086020D03*
X115130000Y-110900000D03*
X158736000Y-80213500D03*
X115130000Y-103700000D03*
X181812000Y-107366000D03*
X146736000Y-80213500D03*
X181298000Y-95426000D03*
X115730000Y-101400000D03*
X189162556Y-88261524D03*
X150000000Y-115980000D03*
X153060000Y-126620000D03*
X148736000Y-80213500D03*
X151230000Y-135860000D03*
X190757975Y-109509957D03*
X153630000Y-136260000D03*
X187398000Y-95426000D03*
X184163624Y-93064568D03*
X149990000Y-120710000D03*
X183380000Y-92090000D03*
X153030000Y-128000000D03*
X145680000Y-109410000D03*
X181298000Y-83426000D03*
X115730000Y-103700000D03*
X150030000Y-136260000D03*
X116330000Y-104300000D03*
X117869364Y-85575002D03*
X190559181Y-114697308D03*
X186180000Y-107660000D03*
X144640000Y-108150000D03*
X117840000Y-88284998D03*
X155430000Y-136260000D03*
X154230000Y-135460000D03*
X116330000Y-100200000D03*
X183360000Y-117620000D03*
X196009115Y-114254490D03*
X189161729Y-87265892D03*
X185348736Y-93581747D03*
X116330000Y-101400000D03*
X115730000Y-100200000D03*
X153630000Y-134660000D03*
X115730000Y-113800000D03*
X115730000Y-114400000D03*
X147910000Y-110300000D03*
X115130000Y-100200000D03*
X189756909Y-110167696D03*
X181298000Y-101426000D03*
X189175260Y-86245160D03*
X190056214Y-108956654D03*
X192148703Y-112333257D03*
X116330000Y-100800000D03*
X115130000Y-114400000D03*
X142130000Y-107840000D03*
X146580000Y-110150000D03*
X116330000Y-103700000D03*
X116330000Y-114400000D03*
X192655810Y-116077941D03*
X154830000Y-136260000D03*
X198787412Y-119685075D03*
X186394770Y-85748426D03*
X182367446Y-115558072D03*
X186409854Y-84678465D03*
X186427975Y-87637336D03*
X186391717Y-86806976D03*
X166720000Y-121380000D03*
X185070000Y-135880000D03*
X195260000Y-128040000D03*
X165440000Y-91760000D03*
X186020000Y-135610000D03*
X172680000Y-135460000D03*
X151821000Y-134883500D03*
X186320000Y-112820000D03*
X157240000Y-116350000D03*
X195130000Y-126440000D03*
X173870000Y-132290000D03*
X193120000Y-133120000D03*
X179690000Y-125920000D03*
X191950000Y-135470000D03*
X178150506Y-116874555D03*
X155420000Y-129050000D03*
X180770000Y-88170000D03*
X167500000Y-89670000D03*
X175840770Y-118566837D03*
X184150000Y-135460000D03*
X158030000Y-101300000D03*
X184530000Y-99350000D03*
X168980000Y-133750000D03*
X174250000Y-103350000D03*
X164780000Y-110730000D03*
X179040000Y-105230000D03*
X162020000Y-130480000D03*
X185380000Y-120190000D03*
X171780000Y-100950000D03*
X162350000Y-103800000D03*
X159670000Y-123730000D03*
X163170000Y-120300000D03*
X173700000Y-96870000D03*
X193090000Y-116740000D03*
X162110000Y-120440000D03*
X194240000Y-133850000D03*
X177540000Y-95080000D03*
X194532949Y-114526573D03*
X189560000Y-135490000D03*
X175110000Y-133480000D03*
X186120000Y-129160000D03*
X189960000Y-127130000D03*
X158410000Y-133200000D03*
X170290000Y-135460000D03*
X196930000Y-133190000D03*
X166630000Y-105820000D03*
X160850000Y-113010000D03*
X172480000Y-134080000D03*
X157240000Y-123210000D03*
X190780000Y-135510000D03*
X198010000Y-128250000D03*
X178820000Y-81610000D03*
X171420000Y-135420000D03*
X185180000Y-128840000D03*
X174530000Y-82600000D03*
X163240000Y-134330000D03*
X158510000Y-118310000D03*
X164750000Y-122900000D03*
X180090000Y-129320000D03*
X157240000Y-133370000D03*
X168630000Y-97590000D03*
X174940000Y-135440000D03*
X182820000Y-131460000D03*
X188358407Y-130626119D03*
X178950000Y-87440000D03*
X158780000Y-103570000D03*
X165130000Y-128670000D03*
X181720000Y-131690000D03*
X155870000Y-102600000D03*
X169040000Y-135450000D03*
X186320000Y-120550000D03*
X161220000Y-98140000D03*
X167560000Y-102900000D03*
X175250000Y-123030000D03*
X168310000Y-100070000D03*
X174220000Y-91860000D03*
X161180000Y-102940000D03*
X157310000Y-106230000D03*
X161970000Y-99510000D03*
X195540000Y-135480000D03*
X185430000Y-111500000D03*
X170240000Y-133410000D03*
X177750000Y-86240000D03*
X184560000Y-108360000D03*
X169660000Y-89910000D03*
X152430000Y-135460000D03*
X171234358Y-85755831D03*
X159710000Y-109290000D03*
X188010000Y-110170000D03*
X152431000Y-134863500D03*
X155800000Y-123800000D03*
X179750000Y-119050000D03*
X167400000Y-133340000D03*
X177170000Y-124280000D03*
X184080000Y-131460000D03*
X162050000Y-135460000D03*
X195520000Y-133140000D03*
X177210000Y-128390000D03*
X184960000Y-81880000D03*
X175110000Y-112460000D03*
X177270000Y-83730000D03*
X166570000Y-97450000D03*
X173980000Y-87570000D03*
X172680000Y-129590000D03*
X159670000Y-135480000D03*
X184720000Y-125990000D03*
X159640000Y-130590000D03*
X183070000Y-81880000D03*
X194320000Y-135520000D03*
X157070000Y-126580000D03*
X179040000Y-127750000D03*
X182380000Y-123090000D03*
X176250000Y-135460000D03*
X169826309Y-108092984D03*
X168450000Y-127760000D03*
X160820000Y-135480000D03*
X176810000Y-130250000D03*
X187850000Y-118860000D03*
X162967333Y-94537402D03*
X171590000Y-132380000D03*
X193023616Y-128613675D03*
X198150000Y-123580000D03*
X199180000Y-129600000D03*
X155630000Y-115770000D03*
X182920000Y-135490000D03*
X166580000Y-109370000D03*
X187190000Y-133230000D03*
X171720000Y-111340000D03*
X194990000Y-118990000D03*
X181760000Y-135430000D03*
X187200000Y-135470000D03*
X188330000Y-111720000D03*
X188170000Y-127410000D03*
X168040000Y-118910000D03*
X199360000Y-122530000D03*
X174530000Y-93710000D03*
X158410000Y-135470000D03*
X163250000Y-135480000D03*
X188340000Y-135480000D03*
X159777153Y-97144430D03*
X160830000Y-123810000D03*
X170650000Y-127490000D03*
X151841000Y-136143500D03*
X163270000Y-108120000D03*
X196800000Y-135490000D03*
X158510000Y-111310000D03*
X157100000Y-99410000D03*
X171270000Y-92720000D03*
X155420670Y-109424908D03*
X157200000Y-135460000D03*
X151830000Y-135460000D03*
X173850000Y-135430000D03*
X165510000Y-94190000D03*
X191930000Y-133260000D03*
X177490000Y-113720000D03*
X184610000Y-89560000D03*
X170420894Y-118955604D03*
X193140000Y-135510000D03*
X152431000Y-135973500D03*
X184420000Y-119090000D03*
X167080000Y-128420000D03*
X175429134Y-106880945D03*
X189500000Y-133320000D03*
X187590000Y-128520000D03*
X162130000Y-106450000D03*
X179250000Y-109670000D03*
X177810000Y-99700000D03*
X167500000Y-93950000D03*
X194740000Y-122210000D03*
X158410000Y-124900000D03*
X187050000Y-115520000D03*
X186270000Y-125810000D03*
X160830000Y-133640000D03*
X193000000Y-119310000D03*
X169660000Y-95650000D03*
X177540000Y-129440000D03*
X188750000Y-116250000D03*
X172140000Y-106810000D03*
X177910000Y-95470000D03*
X182320000Y-94670000D03*
X166980000Y-108270000D03*
X167090000Y-103980000D03*
X194970000Y-132100000D03*
X178940000Y-106860000D03*
X156620000Y-119440000D03*
X188979647Y-133082560D03*
X166020000Y-107490000D03*
X167280000Y-115850000D03*
X158976448Y-117219559D03*
X191376441Y-130820704D03*
X199270000Y-128900000D03*
X171010000Y-96070000D03*
X184080000Y-126870000D03*
X156670000Y-108780000D03*
X158310000Y-103290000D03*
X162680000Y-132470000D03*
X180910000Y-113680000D03*
X175320000Y-95890000D03*
X170840000Y-132480000D03*
X174990000Y-122270000D03*
X187443030Y-109918737D03*
X161400000Y-119640000D03*
X197670000Y-125900000D03*
X176590000Y-90620000D03*
X166550000Y-94900000D03*
X183580000Y-98470000D03*
X189867109Y-128442362D03*
X181100000Y-128280000D03*
X175080000Y-86530000D03*
X186840000Y-100080000D03*
X163040000Y-108640000D03*
X160260000Y-115370000D03*
X173520608Y-114867380D03*
X169610065Y-110202170D03*
X197760000Y-130840000D03*
X156690000Y-132110000D03*
X171870000Y-110550000D03*
X170550000Y-127900000D03*
X169020000Y-128930000D03*
X162610000Y-123010000D03*
X192405532Y-118059984D03*
X187760000Y-116660000D03*
X167734834Y-120767497D03*
X183501141Y-131705755D03*
X182230000Y-85620000D03*
X196590000Y-120620000D03*
X191170623Y-119020469D03*
X169655802Y-131584380D03*
X182000000Y-93060000D03*
X168420000Y-132110000D03*
X163070000Y-98540000D03*
X174710000Y-90670000D03*
X165950000Y-101070000D03*
X173550000Y-129060000D03*
X181000000Y-102820000D03*
X182510000Y-130880000D03*
X197710000Y-120390000D03*
X177180000Y-86210000D03*
X169110000Y-116630000D03*
X199080000Y-123310000D03*
X193870000Y-131600000D03*
X176540000Y-112030000D03*
X164172133Y-123438955D03*
X162840000Y-113540000D03*
X185250865Y-96917908D03*
X185770000Y-114330000D03*
X178940000Y-100150000D03*
X196290000Y-129240000D03*
X194920000Y-127370000D03*
X183380000Y-86670000D03*
X161220000Y-104210000D03*
X170570000Y-92960000D03*
X165836734Y-124495091D03*
X157970000Y-131920000D03*
X185755000Y-120120000D03*
X170430000Y-106530000D03*
X157718671Y-116693580D03*
X189200000Y-111840000D03*
X159182266Y-131741166D03*
X160165619Y-128996926D03*
X162520000Y-101300000D03*
X181370000Y-121040000D03*
X157720000Y-126300000D03*
X182330000Y-125460000D03*
X186642626Y-121124387D03*
X157790000Y-110340000D03*
X175030000Y-118640000D03*
X158884973Y-108689544D03*
X179610000Y-91700000D03*
X189730000Y-116570000D03*
X171550000Y-90120000D03*
X161560000Y-105760000D03*
X165750000Y-115260000D03*
X164500000Y-129750000D03*
X194400000Y-117560000D03*
X185120000Y-84630000D03*
X184980000Y-131950000D03*
X158953580Y-123073939D03*
X194532318Y-126041151D03*
X177340000Y-121050000D03*
X187850000Y-132700000D03*
X192131108Y-126452787D03*
X176670000Y-100450000D03*
X171000000Y-100420000D03*
X171640000Y-101660000D03*
X175800000Y-93660000D03*
X174770000Y-100200000D03*
X165110000Y-100460000D03*
X192470000Y-131690000D03*
X187810000Y-127980000D03*
X168050000Y-101140000D03*
X188800000Y-122870000D03*
X161420000Y-129890000D03*
X177790000Y-124680000D03*
X178970000Y-122700000D03*
X196000000Y-127760000D03*
X163790000Y-105420000D03*
X186180000Y-81470000D03*
X182410000Y-81170000D03*
X117735000Y-88860000D03*
X117725000Y-85000000D03*
X118173500Y-109598500D03*
X119373500Y-111998500D03*
X119973500Y-111998500D03*
X118773500Y-111998500D03*
X118773500Y-109598500D03*
X120573500Y-109598500D03*
X119973500Y-111398500D03*
X119373500Y-110798500D03*
X119373500Y-108998500D03*
X118173500Y-112513500D03*
X120573500Y-108998500D03*
X118173500Y-111398500D03*
X118773500Y-113113500D03*
X118773500Y-110798500D03*
X120573500Y-112513500D03*
X118773500Y-108998500D03*
X120573500Y-113113500D03*
X120573500Y-111398500D03*
X119973500Y-110198500D03*
X119373500Y-110198500D03*
X118773500Y-111398500D03*
X120573500Y-110198500D03*
X119373500Y-114313500D03*
X119373500Y-109598500D03*
X120573500Y-114313500D03*
X118773500Y-114313500D03*
X118173500Y-111998500D03*
X118773500Y-110198500D03*
X118773500Y-112513500D03*
X119373500Y-114913500D03*
X118773500Y-113713500D03*
X119373500Y-111398500D03*
X118773500Y-114913500D03*
X120573500Y-110798500D03*
X119973500Y-108998500D03*
X118173500Y-110798500D03*
X118173500Y-113113500D03*
X119973500Y-109598500D03*
X119973500Y-113713500D03*
X118173500Y-114913500D03*
X120573500Y-113713500D03*
X119973500Y-113113500D03*
X120573500Y-111998500D03*
X119973500Y-112513500D03*
X119373500Y-113713500D03*
X119373500Y-112513500D03*
X118173500Y-108998500D03*
X118173500Y-110198500D03*
X119973500Y-114313500D03*
X119373500Y-113113500D03*
X119973500Y-110798500D03*
X118173500Y-114313500D03*
X118173500Y-113713500D03*
X119973500Y-114913500D03*
X120573500Y-103013500D03*
X119373500Y-100113500D03*
X118173500Y-100113500D03*
X119973500Y-101313500D03*
X119973500Y-105413500D03*
X118173500Y-104213500D03*
X118173500Y-101313500D03*
X120573500Y-100113500D03*
X119373500Y-104213500D03*
X118173500Y-104813500D03*
X118773500Y-100113500D03*
X119973500Y-99513500D03*
X120573500Y-100713500D03*
X118773500Y-102513500D03*
X118773500Y-104213500D03*
X119373500Y-105413500D03*
X118173500Y-102513500D03*
X119373500Y-102513500D03*
X119973500Y-104213500D03*
X118773500Y-101313500D03*
X118773500Y-104813500D03*
X119373500Y-101913500D03*
X118773500Y-103613500D03*
X118773500Y-99513500D03*
X120573500Y-101913500D03*
X120573500Y-104213500D03*
X119373500Y-99513500D03*
X119973500Y-103013500D03*
X119373500Y-103013500D03*
X118173500Y-105413500D03*
X118773500Y-100713500D03*
X119373500Y-103613500D03*
X119373500Y-104813500D03*
X119973500Y-103613500D03*
X119973500Y-102513500D03*
X120573500Y-104813500D03*
X118773500Y-101913500D03*
X118173500Y-101913500D03*
X120573500Y-101313500D03*
X119973500Y-104813500D03*
X118173500Y-103013500D03*
X120573500Y-102513500D03*
X119973500Y-101913500D03*
X118173500Y-99513500D03*
X118173500Y-100713500D03*
X119373500Y-100713500D03*
X120573500Y-105413500D03*
X120573500Y-103613500D03*
X119373500Y-101313500D03*
X119973500Y-100713500D03*
X118773500Y-105413500D03*
X118173500Y-103613500D03*
X118773500Y-103013500D03*
X119973500Y-100113500D03*
%TA.AperFunction,Conductor*%
G36*
X198832396Y-76650736D02*
G01*
X198971417Y-76664428D01*
X198980839Y-76666302D01*
X199112205Y-76706151D01*
X199121072Y-76709824D01*
X199186123Y-76744595D01*
X199242144Y-76774539D01*
X199250130Y-76779875D01*
X199356245Y-76866961D01*
X199363038Y-76873754D01*
X199450124Y-76979869D01*
X199455460Y-76987855D01*
X199520173Y-77108923D01*
X199523849Y-77117798D01*
X199563697Y-77249161D01*
X199565571Y-77258582D01*
X199579264Y-77397603D01*
X199579500Y-77402406D01*
X199579500Y-130397593D01*
X199579264Y-130402396D01*
X199565571Y-130541417D01*
X199563697Y-130550838D01*
X199523849Y-130682201D01*
X199520173Y-130691076D01*
X199455460Y-130812144D01*
X199450124Y-130820130D01*
X199363038Y-130926245D01*
X199356245Y-130933038D01*
X199250130Y-131020124D01*
X199242144Y-131025460D01*
X199121076Y-131090173D01*
X199112201Y-131093849D01*
X198980838Y-131133697D01*
X198971417Y-131135571D01*
X198832396Y-131149264D01*
X198827593Y-131149500D01*
X198492467Y-131149500D01*
X198389316Y-131167687D01*
X198320062Y-131179899D01*
X198320061Y-131179899D01*
X198320057Y-131179900D01*
X198155556Y-131239774D01*
X198155548Y-131239778D01*
X198003945Y-131327307D01*
X198003939Y-131327312D01*
X197869838Y-131439835D01*
X197869835Y-131439838D01*
X197757312Y-131573939D01*
X197757307Y-131573945D01*
X197669778Y-131725548D01*
X197669774Y-131725556D01*
X197609900Y-131890057D01*
X197579500Y-132062467D01*
X197579500Y-136525943D01*
X197565148Y-136560591D01*
X196990591Y-137135148D01*
X196955943Y-137149500D01*
X180344057Y-137149500D01*
X180309409Y-137135148D01*
X179734851Y-136560590D01*
X179720499Y-136525942D01*
X179720499Y-135459997D01*
X180869103Y-135459997D01*
X180869103Y-135460002D01*
X180890483Y-135567492D01*
X180951375Y-135658624D01*
X180994177Y-135687223D01*
X181042505Y-135719515D01*
X181042507Y-135719516D01*
X181149997Y-135740897D01*
X181150000Y-135740897D01*
X181150003Y-135740897D01*
X181257492Y-135719516D01*
X181257492Y-135719515D01*
X181257495Y-135719515D01*
X181348624Y-135658624D01*
X181409515Y-135567495D01*
X181413584Y-135547043D01*
X181430897Y-135460002D01*
X181430897Y-135459997D01*
X182069103Y-135459997D01*
X182069103Y-135460002D01*
X182090483Y-135567492D01*
X182151375Y-135658624D01*
X182194177Y-135687223D01*
X182242505Y-135719515D01*
X182242507Y-135719516D01*
X182349997Y-135740897D01*
X182350000Y-135740897D01*
X182350003Y-135740897D01*
X182457492Y-135719516D01*
X182457492Y-135719515D01*
X182457495Y-135719515D01*
X182548624Y-135658624D01*
X182609515Y-135567495D01*
X182613584Y-135547043D01*
X182630897Y-135460002D01*
X182630897Y-135459997D01*
X183269103Y-135459997D01*
X183269103Y-135460002D01*
X183290483Y-135567492D01*
X183351375Y-135658624D01*
X183394177Y-135687223D01*
X183442505Y-135719515D01*
X183442507Y-135719516D01*
X183549997Y-135740897D01*
X183550000Y-135740897D01*
X183550003Y-135740897D01*
X183657492Y-135719516D01*
X183657492Y-135719515D01*
X183657495Y-135719515D01*
X183748624Y-135658624D01*
X183809515Y-135567495D01*
X183813584Y-135547043D01*
X183830897Y-135460002D01*
X183830897Y-135459997D01*
X184469103Y-135459997D01*
X184469103Y-135460002D01*
X184490483Y-135567492D01*
X184551375Y-135658624D01*
X184594177Y-135687223D01*
X184642505Y-135719515D01*
X184642507Y-135719516D01*
X184749997Y-135740897D01*
X184750000Y-135740897D01*
X184750003Y-135740897D01*
X184857492Y-135719516D01*
X184857492Y-135719515D01*
X184857495Y-135719515D01*
X184948624Y-135658624D01*
X185009258Y-135567878D01*
X185040440Y-135547044D01*
X185077223Y-135554360D01*
X185090742Y-135567879D01*
X185151375Y-135658624D01*
X185194177Y-135687223D01*
X185242505Y-135719515D01*
X185242507Y-135719516D01*
X185349997Y-135740897D01*
X185350000Y-135740897D01*
X185350003Y-135740897D01*
X185457492Y-135719516D01*
X185457492Y-135719515D01*
X185457495Y-135719515D01*
X185548624Y-135658624D01*
X185609515Y-135567495D01*
X185613584Y-135547043D01*
X185630897Y-135460002D01*
X185630897Y-135459997D01*
X186269103Y-135459997D01*
X186269103Y-135460002D01*
X186290483Y-135567492D01*
X186351375Y-135658624D01*
X186394177Y-135687223D01*
X186442505Y-135719515D01*
X186442507Y-135719516D01*
X186549997Y-135740897D01*
X186550000Y-135740897D01*
X186550003Y-135740897D01*
X186657492Y-135719516D01*
X186657492Y-135719515D01*
X186657495Y-135719515D01*
X186748624Y-135658624D01*
X186809515Y-135567495D01*
X186813584Y-135547043D01*
X186830897Y-135460002D01*
X186830897Y-135459997D01*
X187469103Y-135459997D01*
X187469103Y-135460002D01*
X187490483Y-135567492D01*
X187551375Y-135658624D01*
X187594177Y-135687223D01*
X187642505Y-135719515D01*
X187642507Y-135719516D01*
X187749997Y-135740897D01*
X187750000Y-135740897D01*
X187750003Y-135740897D01*
X187857492Y-135719516D01*
X187857492Y-135719515D01*
X187857495Y-135719515D01*
X187948624Y-135658624D01*
X188009515Y-135567495D01*
X188013584Y-135547043D01*
X188030897Y-135460002D01*
X188030897Y-135459997D01*
X188669103Y-135459997D01*
X188669103Y-135460002D01*
X188690483Y-135567492D01*
X188751375Y-135658624D01*
X188794177Y-135687223D01*
X188842505Y-135719515D01*
X188842507Y-135719516D01*
X188949997Y-135740897D01*
X188950000Y-135740897D01*
X188950003Y-135740897D01*
X189057492Y-135719516D01*
X189057492Y-135719515D01*
X189057495Y-135719515D01*
X189148624Y-135658624D01*
X189209515Y-135567495D01*
X189213584Y-135547043D01*
X189230897Y-135460002D01*
X189230897Y-135459997D01*
X189869103Y-135459997D01*
X189869103Y-135460002D01*
X189890483Y-135567492D01*
X189951375Y-135658624D01*
X189994177Y-135687223D01*
X190042505Y-135719515D01*
X190042507Y-135719516D01*
X190149997Y-135740897D01*
X190150000Y-135740897D01*
X190150003Y-135740897D01*
X190257492Y-135719516D01*
X190257492Y-135719515D01*
X190257495Y-135719515D01*
X190348624Y-135658624D01*
X190409515Y-135567495D01*
X190413584Y-135547043D01*
X190430897Y-135460002D01*
X190430897Y-135459997D01*
X191069103Y-135459997D01*
X191069103Y-135460002D01*
X191090483Y-135567492D01*
X191151375Y-135658624D01*
X191194177Y-135687223D01*
X191242505Y-135719515D01*
X191242507Y-135719516D01*
X191349997Y-135740897D01*
X191350000Y-135740897D01*
X191350003Y-135740897D01*
X191457492Y-135719516D01*
X191457492Y-135719515D01*
X191457495Y-135719515D01*
X191548624Y-135658624D01*
X191609515Y-135567495D01*
X191613584Y-135547043D01*
X191630897Y-135460002D01*
X191630897Y-135459997D01*
X192269103Y-135459997D01*
X192269103Y-135460002D01*
X192290483Y-135567492D01*
X192351375Y-135658624D01*
X192394177Y-135687223D01*
X192442505Y-135719515D01*
X192442507Y-135719516D01*
X192549997Y-135740897D01*
X192550000Y-135740897D01*
X192550003Y-135740897D01*
X192657492Y-135719516D01*
X192657492Y-135719515D01*
X192657495Y-135719515D01*
X192748624Y-135658624D01*
X192809515Y-135567495D01*
X192813584Y-135547043D01*
X192830897Y-135460002D01*
X192830897Y-135459997D01*
X193469103Y-135459997D01*
X193469103Y-135460002D01*
X193490483Y-135567492D01*
X193551375Y-135658624D01*
X193594177Y-135687223D01*
X193642505Y-135719515D01*
X193642507Y-135719516D01*
X193749997Y-135740897D01*
X193750000Y-135740897D01*
X193750003Y-135740897D01*
X193857492Y-135719516D01*
X193857492Y-135719515D01*
X193857495Y-135719515D01*
X193948624Y-135658624D01*
X194009515Y-135567495D01*
X194013584Y-135547043D01*
X194030897Y-135460002D01*
X194030897Y-135459997D01*
X194669103Y-135459997D01*
X194669103Y-135460002D01*
X194690483Y-135567492D01*
X194751375Y-135658624D01*
X194794177Y-135687223D01*
X194842505Y-135719515D01*
X194842507Y-135719516D01*
X194949997Y-135740897D01*
X194950000Y-135740897D01*
X194950003Y-135740897D01*
X195057492Y-135719516D01*
X195057492Y-135719515D01*
X195057495Y-135719515D01*
X195148624Y-135658624D01*
X195209515Y-135567495D01*
X195213584Y-135547043D01*
X195230897Y-135460002D01*
X195230897Y-135459997D01*
X195869103Y-135459997D01*
X195869103Y-135460002D01*
X195890483Y-135567492D01*
X195951375Y-135658624D01*
X195994177Y-135687223D01*
X196042505Y-135719515D01*
X196042507Y-135719516D01*
X196149997Y-135740897D01*
X196150000Y-135740897D01*
X196150003Y-135740897D01*
X196257492Y-135719516D01*
X196257492Y-135719515D01*
X196257495Y-135719515D01*
X196348624Y-135658624D01*
X196409515Y-135567495D01*
X196413584Y-135547043D01*
X196430897Y-135460002D01*
X196430897Y-135459997D01*
X196409516Y-135352507D01*
X196409257Y-135352120D01*
X196365895Y-135287223D01*
X196348624Y-135261375D01*
X196257492Y-135200483D01*
X196150003Y-135179103D01*
X196149997Y-135179103D01*
X196042507Y-135200483D01*
X195951375Y-135261375D01*
X195890483Y-135352507D01*
X195869103Y-135459997D01*
X195230897Y-135459997D01*
X195209516Y-135352507D01*
X195209257Y-135352120D01*
X195165895Y-135287223D01*
X195148624Y-135261375D01*
X195057492Y-135200483D01*
X194950003Y-135179103D01*
X194949997Y-135179103D01*
X194842507Y-135200483D01*
X194751375Y-135261375D01*
X194690483Y-135352507D01*
X194669103Y-135459997D01*
X194030897Y-135459997D01*
X194009516Y-135352507D01*
X194009257Y-135352120D01*
X193965895Y-135287223D01*
X193948624Y-135261375D01*
X193857492Y-135200483D01*
X193750003Y-135179103D01*
X193749997Y-135179103D01*
X193642507Y-135200483D01*
X193551375Y-135261375D01*
X193490483Y-135352507D01*
X193469103Y-135459997D01*
X192830897Y-135459997D01*
X192809516Y-135352507D01*
X192809257Y-135352120D01*
X192765895Y-135287223D01*
X192748624Y-135261375D01*
X192657492Y-135200483D01*
X192550003Y-135179103D01*
X192549997Y-135179103D01*
X192442507Y-135200483D01*
X192351375Y-135261375D01*
X192290483Y-135352507D01*
X192269103Y-135459997D01*
X191630897Y-135459997D01*
X191609516Y-135352507D01*
X191609257Y-135352120D01*
X191565895Y-135287223D01*
X191548624Y-135261375D01*
X191457492Y-135200483D01*
X191350003Y-135179103D01*
X191349997Y-135179103D01*
X191242507Y-135200483D01*
X191151375Y-135261375D01*
X191090483Y-135352507D01*
X191069103Y-135459997D01*
X190430897Y-135459997D01*
X190409516Y-135352507D01*
X190409257Y-135352120D01*
X190365895Y-135287223D01*
X190348624Y-135261375D01*
X190257492Y-135200483D01*
X190150003Y-135179103D01*
X190149997Y-135179103D01*
X190042507Y-135200483D01*
X189951375Y-135261375D01*
X189890483Y-135352507D01*
X189869103Y-135459997D01*
X189230897Y-135459997D01*
X189209516Y-135352507D01*
X189209257Y-135352120D01*
X189165895Y-135287223D01*
X189148624Y-135261375D01*
X189057492Y-135200483D01*
X188950003Y-135179103D01*
X188949997Y-135179103D01*
X188842507Y-135200483D01*
X188751375Y-135261375D01*
X188690483Y-135352507D01*
X188669103Y-135459997D01*
X188030897Y-135459997D01*
X188009516Y-135352507D01*
X188009257Y-135352120D01*
X187965895Y-135287223D01*
X187948624Y-135261375D01*
X187857492Y-135200483D01*
X187750003Y-135179103D01*
X187749997Y-135179103D01*
X187642507Y-135200483D01*
X187551375Y-135261375D01*
X187490483Y-135352507D01*
X187469103Y-135459997D01*
X186830897Y-135459997D01*
X186809516Y-135352507D01*
X186809257Y-135352120D01*
X186765895Y-135287223D01*
X186748624Y-135261375D01*
X186657492Y-135200483D01*
X186550003Y-135179103D01*
X186549997Y-135179103D01*
X186442507Y-135200483D01*
X186351375Y-135261375D01*
X186290483Y-135352507D01*
X186269103Y-135459997D01*
X185630897Y-135459997D01*
X185609516Y-135352507D01*
X185609257Y-135352120D01*
X185565895Y-135287223D01*
X185548624Y-135261375D01*
X185457492Y-135200483D01*
X185350003Y-135179103D01*
X185349997Y-135179103D01*
X185242507Y-135200483D01*
X185151375Y-135261375D01*
X185090742Y-135352120D01*
X185059559Y-135372956D01*
X185022777Y-135365639D01*
X185009258Y-135352120D01*
X184948624Y-135261375D01*
X184857492Y-135200483D01*
X184750003Y-135179103D01*
X184749997Y-135179103D01*
X184642507Y-135200483D01*
X184551375Y-135261375D01*
X184490483Y-135352507D01*
X184469103Y-135459997D01*
X183830897Y-135459997D01*
X183809516Y-135352507D01*
X183809257Y-135352120D01*
X183765895Y-135287223D01*
X183748624Y-135261375D01*
X183657492Y-135200483D01*
X183550003Y-135179103D01*
X183549997Y-135179103D01*
X183442507Y-135200483D01*
X183351375Y-135261375D01*
X183290483Y-135352507D01*
X183269103Y-135459997D01*
X182630897Y-135459997D01*
X182609516Y-135352507D01*
X182609257Y-135352120D01*
X182565895Y-135287223D01*
X182548624Y-135261375D01*
X182457492Y-135200483D01*
X182350003Y-135179103D01*
X182349997Y-135179103D01*
X182242507Y-135200483D01*
X182151375Y-135261375D01*
X182090483Y-135352507D01*
X182069103Y-135459997D01*
X181430897Y-135459997D01*
X181409516Y-135352507D01*
X181409257Y-135352120D01*
X181365895Y-135287223D01*
X181348624Y-135261375D01*
X181257492Y-135200483D01*
X181150003Y-135179103D01*
X181149997Y-135179103D01*
X181042507Y-135200483D01*
X180951375Y-135261375D01*
X180890483Y-135352507D01*
X180869103Y-135459997D01*
X179720499Y-135459997D01*
X179720499Y-131758319D01*
X179721844Y-131749521D01*
X179721693Y-131749502D01*
X179722245Y-131745248D01*
X179720550Y-131707948D01*
X179720499Y-131705723D01*
X179720499Y-131662674D01*
X179719557Y-131657938D01*
X179719889Y-131657871D01*
X179717817Y-131648584D01*
X179714706Y-131581107D01*
X179668650Y-131345271D01*
X179588449Y-131118759D01*
X179475843Y-130906487D01*
X179333274Y-130713059D01*
X179313154Y-130692826D01*
X179163843Y-130542678D01*
X178971212Y-130399030D01*
X178971210Y-130399029D01*
X178971209Y-130399028D01*
X178759569Y-130285238D01*
X178759564Y-130285236D01*
X178759560Y-130285234D01*
X178533512Y-130203775D01*
X178533506Y-130203773D01*
X178297937Y-130156402D01*
X178105949Y-130146601D01*
X178057954Y-130144151D01*
X178057953Y-130144151D01*
X177818779Y-130167286D01*
X177585600Y-130225304D01*
X177363474Y-130316948D01*
X177363470Y-130316950D01*
X177157214Y-130440234D01*
X176971307Y-130592478D01*
X176809785Y-130770378D01*
X176676145Y-130970080D01*
X176573291Y-131187253D01*
X176503458Y-131417174D01*
X176468160Y-131654845D01*
X176468159Y-131654854D01*
X176468082Y-131775016D01*
X176468082Y-131819168D01*
X176468756Y-131822991D01*
X176469500Y-131831500D01*
X176469500Y-136525943D01*
X176455148Y-136560591D01*
X175880591Y-137135148D01*
X175845943Y-137149500D01*
X167634057Y-137149500D01*
X167599409Y-137135148D01*
X167024852Y-136560591D01*
X167010500Y-136525943D01*
X167010500Y-135459997D01*
X168159103Y-135459997D01*
X168159103Y-135460002D01*
X168180483Y-135567492D01*
X168241375Y-135658624D01*
X168284177Y-135687223D01*
X168332505Y-135719515D01*
X168332507Y-135719516D01*
X168439997Y-135740897D01*
X168440000Y-135740897D01*
X168440003Y-135740897D01*
X168547492Y-135719516D01*
X168547492Y-135719515D01*
X168547495Y-135719515D01*
X168638624Y-135658624D01*
X168699515Y-135567495D01*
X168703584Y-135547043D01*
X168720897Y-135460002D01*
X168720897Y-135459997D01*
X169359103Y-135459997D01*
X169359103Y-135460002D01*
X169380483Y-135567492D01*
X169441375Y-135658624D01*
X169484177Y-135687223D01*
X169532505Y-135719515D01*
X169532507Y-135719516D01*
X169639997Y-135740897D01*
X169640000Y-135740897D01*
X169640003Y-135740897D01*
X169747492Y-135719516D01*
X169747492Y-135719515D01*
X169747495Y-135719515D01*
X169838624Y-135658624D01*
X169899515Y-135567495D01*
X169903584Y-135547043D01*
X169920897Y-135460002D01*
X169920897Y-135459997D01*
X170559103Y-135459997D01*
X170559103Y-135460002D01*
X170580483Y-135567492D01*
X170641375Y-135658624D01*
X170684177Y-135687223D01*
X170732505Y-135719515D01*
X170732507Y-135719516D01*
X170839997Y-135740897D01*
X170840000Y-135740897D01*
X170840003Y-135740897D01*
X170947492Y-135719516D01*
X170947492Y-135719515D01*
X170947495Y-135719515D01*
X171038624Y-135658624D01*
X171099515Y-135567495D01*
X171103584Y-135547043D01*
X171120897Y-135460002D01*
X171120897Y-135459997D01*
X171759103Y-135459997D01*
X171759103Y-135460002D01*
X171780483Y-135567492D01*
X171841375Y-135658624D01*
X171884177Y-135687223D01*
X171932505Y-135719515D01*
X171932507Y-135719516D01*
X172039997Y-135740897D01*
X172040000Y-135740897D01*
X172040003Y-135740897D01*
X172147492Y-135719516D01*
X172147492Y-135719515D01*
X172147495Y-135719515D01*
X172238624Y-135658624D01*
X172299515Y-135567495D01*
X172303584Y-135547043D01*
X172320897Y-135460002D01*
X172320897Y-135459997D01*
X172959103Y-135459997D01*
X172959103Y-135460002D01*
X172980483Y-135567492D01*
X173041375Y-135658624D01*
X173084177Y-135687223D01*
X173132505Y-135719515D01*
X173132507Y-135719516D01*
X173239997Y-135740897D01*
X173240000Y-135740897D01*
X173240003Y-135740897D01*
X173347492Y-135719516D01*
X173347492Y-135719515D01*
X173347495Y-135719515D01*
X173438624Y-135658624D01*
X173499515Y-135567495D01*
X173503584Y-135547043D01*
X173520897Y-135460002D01*
X173520897Y-135459997D01*
X174159103Y-135459997D01*
X174159103Y-135460002D01*
X174180483Y-135567492D01*
X174241375Y-135658624D01*
X174284177Y-135687223D01*
X174332505Y-135719515D01*
X174332507Y-135719516D01*
X174439997Y-135740897D01*
X174440000Y-135740897D01*
X174440003Y-135740897D01*
X174547492Y-135719516D01*
X174547492Y-135719515D01*
X174547495Y-135719515D01*
X174638624Y-135658624D01*
X174699515Y-135567495D01*
X174703584Y-135547043D01*
X174720897Y-135460002D01*
X174720897Y-135459997D01*
X175359103Y-135459997D01*
X175359103Y-135460002D01*
X175380483Y-135567492D01*
X175441375Y-135658624D01*
X175484177Y-135687223D01*
X175532505Y-135719515D01*
X175532507Y-135719516D01*
X175639997Y-135740897D01*
X175640000Y-135740897D01*
X175640003Y-135740897D01*
X175747492Y-135719516D01*
X175747492Y-135719515D01*
X175747495Y-135719515D01*
X175838624Y-135658624D01*
X175899515Y-135567495D01*
X175903584Y-135547043D01*
X175920897Y-135460002D01*
X175920897Y-135459997D01*
X175899516Y-135352507D01*
X175899257Y-135352120D01*
X175855895Y-135287223D01*
X175838624Y-135261375D01*
X175747492Y-135200483D01*
X175640003Y-135179103D01*
X175639997Y-135179103D01*
X175532507Y-135200483D01*
X175441375Y-135261375D01*
X175380483Y-135352507D01*
X175359103Y-135459997D01*
X174720897Y-135459997D01*
X174699516Y-135352507D01*
X174699257Y-135352120D01*
X174655895Y-135287223D01*
X174638624Y-135261375D01*
X174547492Y-135200483D01*
X174440003Y-135179103D01*
X174439997Y-135179103D01*
X174332507Y-135200483D01*
X174241375Y-135261375D01*
X174180483Y-135352507D01*
X174159103Y-135459997D01*
X173520897Y-135459997D01*
X173499516Y-135352507D01*
X173499257Y-135352120D01*
X173455895Y-135287223D01*
X173438624Y-135261375D01*
X173347492Y-135200483D01*
X173240003Y-135179103D01*
X173239997Y-135179103D01*
X173132507Y-135200483D01*
X173041375Y-135261375D01*
X172980483Y-135352507D01*
X172959103Y-135459997D01*
X172320897Y-135459997D01*
X172299516Y-135352507D01*
X172299257Y-135352120D01*
X172255895Y-135287223D01*
X172238624Y-135261375D01*
X172147492Y-135200483D01*
X172040003Y-135179103D01*
X172039997Y-135179103D01*
X171932507Y-135200483D01*
X171841375Y-135261375D01*
X171780483Y-135352507D01*
X171759103Y-135459997D01*
X171120897Y-135459997D01*
X171099516Y-135352507D01*
X171099257Y-135352120D01*
X171055895Y-135287223D01*
X171038624Y-135261375D01*
X170947492Y-135200483D01*
X170840003Y-135179103D01*
X170839997Y-135179103D01*
X170732507Y-135200483D01*
X170641375Y-135261375D01*
X170580483Y-135352507D01*
X170559103Y-135459997D01*
X169920897Y-135459997D01*
X169899516Y-135352507D01*
X169899257Y-135352120D01*
X169855895Y-135287223D01*
X169838624Y-135261375D01*
X169747492Y-135200483D01*
X169640003Y-135179103D01*
X169639997Y-135179103D01*
X169532507Y-135200483D01*
X169441375Y-135261375D01*
X169380483Y-135352507D01*
X169359103Y-135459997D01*
X168720897Y-135459997D01*
X168699516Y-135352507D01*
X168699257Y-135352120D01*
X168655895Y-135287223D01*
X168638624Y-135261375D01*
X168547492Y-135200483D01*
X168440003Y-135179103D01*
X168439997Y-135179103D01*
X168332507Y-135200483D01*
X168241375Y-135261375D01*
X168180483Y-135352507D01*
X168159103Y-135459997D01*
X167010500Y-135459997D01*
X167010500Y-131222163D01*
X167010500Y-131222157D01*
X166974783Y-131019596D01*
X166904434Y-130826315D01*
X166872139Y-130770378D01*
X166801594Y-130648190D01*
X166801591Y-130648186D01*
X166669379Y-130490621D01*
X166511814Y-130358409D01*
X166511813Y-130358408D01*
X166511809Y-130358405D01*
X166333691Y-130255569D01*
X166333683Y-130255565D01*
X166140408Y-130185218D01*
X166140405Y-130185217D01*
X166140404Y-130185217D01*
X165937843Y-130149500D01*
X165732157Y-130149500D01*
X165732156Y-130149500D01*
X165610952Y-130170871D01*
X165529596Y-130185217D01*
X165529595Y-130185217D01*
X165529591Y-130185218D01*
X165336316Y-130255565D01*
X165336308Y-130255569D01*
X165158190Y-130358405D01*
X165000621Y-130490621D01*
X164868405Y-130648190D01*
X164765569Y-130826308D01*
X164765565Y-130826316D01*
X164695218Y-131019591D01*
X164659500Y-131222156D01*
X164659500Y-136525943D01*
X164645148Y-136560591D01*
X164070591Y-137135148D01*
X164035943Y-137149500D01*
X147424057Y-137149500D01*
X147389409Y-137135148D01*
X146814852Y-136560591D01*
X146800500Y-136525943D01*
X146800500Y-134659997D01*
X147349103Y-134659997D01*
X147349103Y-134660002D01*
X147370483Y-134767492D01*
X147414105Y-134832777D01*
X147421421Y-134869560D01*
X147414105Y-134887223D01*
X147370483Y-134952507D01*
X147349103Y-135059997D01*
X147349103Y-135060002D01*
X147370483Y-135167492D01*
X147414105Y-135232777D01*
X147421421Y-135269560D01*
X147414105Y-135287223D01*
X147370483Y-135352507D01*
X147349103Y-135459997D01*
X147349103Y-135460002D01*
X147370483Y-135567492D01*
X147414105Y-135632777D01*
X147421421Y-135669560D01*
X147414105Y-135687223D01*
X147370483Y-135752507D01*
X147349103Y-135859997D01*
X147349103Y-135860002D01*
X147370483Y-135967492D01*
X147414105Y-136032777D01*
X147421421Y-136069560D01*
X147414105Y-136087223D01*
X147370483Y-136152507D01*
X147349103Y-136259997D01*
X147349103Y-136260002D01*
X147370483Y-136367492D01*
X147431375Y-136458624D01*
X147491991Y-136499126D01*
X147522505Y-136519515D01*
X147522507Y-136519516D01*
X147629997Y-136540897D01*
X147630000Y-136540897D01*
X147630003Y-136540897D01*
X147737492Y-136519516D01*
X147737492Y-136519515D01*
X147737495Y-136519515D01*
X147828624Y-136458624D01*
X147889258Y-136367878D01*
X147920440Y-136347044D01*
X147957223Y-136354360D01*
X147970742Y-136367879D01*
X148031375Y-136458624D01*
X148091991Y-136499126D01*
X148122505Y-136519515D01*
X148122507Y-136519516D01*
X148229997Y-136540897D01*
X148230000Y-136540897D01*
X148230003Y-136540897D01*
X148337492Y-136519516D01*
X148337492Y-136519515D01*
X148337495Y-136519515D01*
X148428624Y-136458624D01*
X148489258Y-136367878D01*
X148520440Y-136347044D01*
X148557223Y-136354360D01*
X148570742Y-136367879D01*
X148631375Y-136458624D01*
X148691991Y-136499126D01*
X148722505Y-136519515D01*
X148722507Y-136519516D01*
X148829997Y-136540897D01*
X148830000Y-136540897D01*
X148830003Y-136540897D01*
X148937492Y-136519516D01*
X148937492Y-136519515D01*
X148937495Y-136519515D01*
X149028624Y-136458624D01*
X149089258Y-136367878D01*
X149120440Y-136347044D01*
X149157223Y-136354360D01*
X149170742Y-136367879D01*
X149231375Y-136458624D01*
X149291991Y-136499126D01*
X149322505Y-136519515D01*
X149322507Y-136519516D01*
X149429997Y-136540897D01*
X149430000Y-136540897D01*
X149430003Y-136540897D01*
X149537492Y-136519516D01*
X149537492Y-136519515D01*
X149537495Y-136519515D01*
X149628624Y-136458624D01*
X149689515Y-136367495D01*
X149710897Y-136260000D01*
X149710897Y-136259997D01*
X149689516Y-136152507D01*
X149689515Y-136152505D01*
X149645893Y-136087221D01*
X149638577Y-136050441D01*
X149645893Y-136032779D01*
X149689515Y-135967495D01*
X149693584Y-135947043D01*
X149710897Y-135860002D01*
X149710897Y-135859997D01*
X149689516Y-135752507D01*
X149689515Y-135752505D01*
X149645893Y-135687221D01*
X149638577Y-135650441D01*
X149645893Y-135632779D01*
X149689515Y-135567495D01*
X149693584Y-135547043D01*
X149710897Y-135460002D01*
X149710897Y-135459997D01*
X156349103Y-135459997D01*
X156349103Y-135460002D01*
X156370483Y-135567492D01*
X156431375Y-135658624D01*
X156474177Y-135687223D01*
X156522505Y-135719515D01*
X156522507Y-135719516D01*
X156629997Y-135740897D01*
X156630000Y-135740897D01*
X156630003Y-135740897D01*
X156737492Y-135719516D01*
X156737492Y-135719515D01*
X156737495Y-135719515D01*
X156828624Y-135658624D01*
X156889515Y-135567495D01*
X156893584Y-135547043D01*
X156910897Y-135460002D01*
X156910897Y-135459997D01*
X157549103Y-135459997D01*
X157549103Y-135460002D01*
X157570483Y-135567492D01*
X157631375Y-135658624D01*
X157674177Y-135687223D01*
X157722505Y-135719515D01*
X157722507Y-135719516D01*
X157829997Y-135740897D01*
X157830000Y-135740897D01*
X157830003Y-135740897D01*
X157937492Y-135719516D01*
X157937492Y-135719515D01*
X157937495Y-135719515D01*
X158028624Y-135658624D01*
X158089515Y-135567495D01*
X158093584Y-135547043D01*
X158110897Y-135460002D01*
X158110897Y-135459997D01*
X158749103Y-135459997D01*
X158749103Y-135460002D01*
X158770483Y-135567492D01*
X158831375Y-135658624D01*
X158874177Y-135687223D01*
X158922505Y-135719515D01*
X158922507Y-135719516D01*
X159029997Y-135740897D01*
X159030000Y-135740897D01*
X159030003Y-135740897D01*
X159137492Y-135719516D01*
X159137492Y-135719515D01*
X159137495Y-135719515D01*
X159228624Y-135658624D01*
X159289515Y-135567495D01*
X159293584Y-135547043D01*
X159310897Y-135460002D01*
X159310897Y-135459997D01*
X159949103Y-135459997D01*
X159949103Y-135460002D01*
X159970483Y-135567492D01*
X160031375Y-135658624D01*
X160074177Y-135687223D01*
X160122505Y-135719515D01*
X160122507Y-135719516D01*
X160229997Y-135740897D01*
X160230000Y-135740897D01*
X160230003Y-135740897D01*
X160337492Y-135719516D01*
X160337492Y-135719515D01*
X160337495Y-135719515D01*
X160428624Y-135658624D01*
X160489515Y-135567495D01*
X160493584Y-135547043D01*
X160510897Y-135460002D01*
X160510897Y-135459997D01*
X161149103Y-135459997D01*
X161149103Y-135460002D01*
X161170483Y-135567492D01*
X161231375Y-135658624D01*
X161274177Y-135687223D01*
X161322505Y-135719515D01*
X161322507Y-135719516D01*
X161429997Y-135740897D01*
X161430000Y-135740897D01*
X161430003Y-135740897D01*
X161537492Y-135719516D01*
X161537492Y-135719515D01*
X161537495Y-135719515D01*
X161628624Y-135658624D01*
X161689515Y-135567495D01*
X161693584Y-135547043D01*
X161710897Y-135460002D01*
X161710897Y-135459997D01*
X162349103Y-135459997D01*
X162349103Y-135460002D01*
X162370483Y-135567492D01*
X162431375Y-135658624D01*
X162474177Y-135687223D01*
X162522505Y-135719515D01*
X162522507Y-135719516D01*
X162629997Y-135740897D01*
X162630000Y-135740897D01*
X162630003Y-135740897D01*
X162737492Y-135719516D01*
X162737492Y-135719515D01*
X162737495Y-135719515D01*
X162828624Y-135658624D01*
X162889515Y-135567495D01*
X162893584Y-135547043D01*
X162910897Y-135460002D01*
X162910897Y-135459997D01*
X163549103Y-135459997D01*
X163549103Y-135460002D01*
X163570483Y-135567492D01*
X163631375Y-135658624D01*
X163674177Y-135687223D01*
X163722505Y-135719515D01*
X163722507Y-135719516D01*
X163829997Y-135740897D01*
X163830000Y-135740897D01*
X163830003Y-135740897D01*
X163937492Y-135719516D01*
X163937492Y-135719515D01*
X163937495Y-135719515D01*
X164028624Y-135658624D01*
X164089515Y-135567495D01*
X164093584Y-135547043D01*
X164110897Y-135460002D01*
X164110897Y-135459997D01*
X164089516Y-135352507D01*
X164089257Y-135352120D01*
X164045895Y-135287223D01*
X164028624Y-135261375D01*
X163937492Y-135200483D01*
X163830003Y-135179103D01*
X163829997Y-135179103D01*
X163722507Y-135200483D01*
X163631375Y-135261375D01*
X163570483Y-135352507D01*
X163549103Y-135459997D01*
X162910897Y-135459997D01*
X162889516Y-135352507D01*
X162889257Y-135352120D01*
X162845895Y-135287223D01*
X162828624Y-135261375D01*
X162737492Y-135200483D01*
X162630003Y-135179103D01*
X162629997Y-135179103D01*
X162522507Y-135200483D01*
X162431375Y-135261375D01*
X162370483Y-135352507D01*
X162349103Y-135459997D01*
X161710897Y-135459997D01*
X161689516Y-135352507D01*
X161689257Y-135352120D01*
X161645895Y-135287223D01*
X161628624Y-135261375D01*
X161537492Y-135200483D01*
X161430003Y-135179103D01*
X161429997Y-135179103D01*
X161322507Y-135200483D01*
X161231375Y-135261375D01*
X161170483Y-135352507D01*
X161149103Y-135459997D01*
X160510897Y-135459997D01*
X160489516Y-135352507D01*
X160489257Y-135352120D01*
X160445895Y-135287223D01*
X160428624Y-135261375D01*
X160337492Y-135200483D01*
X160230003Y-135179103D01*
X160229997Y-135179103D01*
X160122507Y-135200483D01*
X160031375Y-135261375D01*
X159970483Y-135352507D01*
X159949103Y-135459997D01*
X159310897Y-135459997D01*
X159289516Y-135352507D01*
X159289257Y-135352120D01*
X159245895Y-135287223D01*
X159228624Y-135261375D01*
X159137492Y-135200483D01*
X159030003Y-135179103D01*
X159029997Y-135179103D01*
X158922507Y-135200483D01*
X158831375Y-135261375D01*
X158770483Y-135352507D01*
X158749103Y-135459997D01*
X158110897Y-135459997D01*
X158089516Y-135352507D01*
X158089257Y-135352120D01*
X158045895Y-135287223D01*
X158028624Y-135261375D01*
X157937492Y-135200483D01*
X157830003Y-135179103D01*
X157829997Y-135179103D01*
X157722507Y-135200483D01*
X157631375Y-135261375D01*
X157570483Y-135352507D01*
X157549103Y-135459997D01*
X156910897Y-135459997D01*
X156889516Y-135352507D01*
X156889257Y-135352120D01*
X156845895Y-135287223D01*
X156828624Y-135261375D01*
X156737492Y-135200483D01*
X156630003Y-135179103D01*
X156629997Y-135179103D01*
X156522507Y-135200483D01*
X156431375Y-135261375D01*
X156370483Y-135352507D01*
X156349103Y-135459997D01*
X149710897Y-135459997D01*
X149689516Y-135352507D01*
X149689515Y-135352505D01*
X149645893Y-135287221D01*
X149638577Y-135250441D01*
X149645893Y-135232779D01*
X149689515Y-135167495D01*
X149693584Y-135147043D01*
X149710897Y-135060002D01*
X149710897Y-135059997D01*
X149689516Y-134952507D01*
X149689515Y-134952505D01*
X149645893Y-134887221D01*
X149638577Y-134850441D01*
X149645893Y-134832779D01*
X149689515Y-134767495D01*
X149693584Y-134747043D01*
X149710897Y-134660002D01*
X149710897Y-134659997D01*
X149689516Y-134552507D01*
X149689257Y-134552120D01*
X149669126Y-134521991D01*
X149628624Y-134461375D01*
X149537492Y-134400483D01*
X149430003Y-134379103D01*
X149429997Y-134379103D01*
X149322507Y-134400483D01*
X149231375Y-134461375D01*
X149170742Y-134552120D01*
X149139559Y-134572956D01*
X149102777Y-134565639D01*
X149089258Y-134552120D01*
X149028624Y-134461375D01*
X148937492Y-134400483D01*
X148830003Y-134379103D01*
X148829997Y-134379103D01*
X148722507Y-134400483D01*
X148631375Y-134461375D01*
X148570742Y-134552120D01*
X148539559Y-134572956D01*
X148502777Y-134565639D01*
X148489258Y-134552120D01*
X148428624Y-134461375D01*
X148337492Y-134400483D01*
X148230003Y-134379103D01*
X148229997Y-134379103D01*
X148122507Y-134400483D01*
X148031375Y-134461375D01*
X147970742Y-134552120D01*
X147939559Y-134572956D01*
X147902777Y-134565639D01*
X147889258Y-134552120D01*
X147828624Y-134461375D01*
X147737492Y-134400483D01*
X147630003Y-134379103D01*
X147629997Y-134379103D01*
X147522507Y-134400483D01*
X147431375Y-134461375D01*
X147370483Y-134552507D01*
X147349103Y-134659997D01*
X146800500Y-134659997D01*
X146800500Y-132062474D01*
X146800500Y-132062468D01*
X146770101Y-131890062D01*
X146710225Y-131725555D01*
X146700059Y-131707948D01*
X146622692Y-131573945D01*
X146622687Y-131573939D01*
X146510164Y-131439838D01*
X146510161Y-131439835D01*
X146376060Y-131327312D01*
X146376054Y-131327307D01*
X146224451Y-131239778D01*
X146224443Y-131239774D01*
X146059942Y-131179900D01*
X146059943Y-131179900D01*
X146059938Y-131179899D01*
X145887532Y-131149500D01*
X145552407Y-131149500D01*
X145547604Y-131149264D01*
X145408582Y-131135571D01*
X145399161Y-131133697D01*
X145267798Y-131093849D01*
X145258923Y-131090173D01*
X145137855Y-131025460D01*
X145129869Y-131020124D01*
X145023754Y-130933038D01*
X145016961Y-130926245D01*
X144929875Y-130820130D01*
X144924539Y-130812144D01*
X144859824Y-130691072D01*
X144856151Y-130682205D01*
X144816302Y-130550838D01*
X144814428Y-130541417D01*
X144800736Y-130402396D01*
X144800500Y-130397593D01*
X144800500Y-127309997D01*
X152494103Y-127309997D01*
X152494103Y-127310002D01*
X152515483Y-127417492D01*
X152576375Y-127508624D01*
X152636991Y-127549126D01*
X152667505Y-127569515D01*
X152667507Y-127569516D01*
X152774997Y-127590897D01*
X152775000Y-127590897D01*
X152775003Y-127590897D01*
X152882492Y-127569516D01*
X152882492Y-127569515D01*
X152882495Y-127569515D01*
X152973624Y-127508624D01*
X152973625Y-127508623D01*
X152976758Y-127503935D01*
X153007940Y-127483099D01*
X153044722Y-127490415D01*
X153058242Y-127503935D01*
X153061374Y-127508623D01*
X153106940Y-127539069D01*
X153152505Y-127569515D01*
X153152507Y-127569516D01*
X153259997Y-127590897D01*
X153260000Y-127590897D01*
X153260003Y-127590897D01*
X153367492Y-127569516D01*
X153367492Y-127569515D01*
X153367495Y-127569515D01*
X153458624Y-127508624D01*
X153519515Y-127417495D01*
X153532907Y-127350172D01*
X153540897Y-127310002D01*
X153540897Y-127309997D01*
X153519516Y-127202507D01*
X153458624Y-127111375D01*
X153367492Y-127050483D01*
X153260003Y-127029103D01*
X153259997Y-127029103D01*
X153152507Y-127050483D01*
X153061375Y-127111375D01*
X153058241Y-127116067D01*
X153027057Y-127136901D01*
X152990275Y-127129583D01*
X152976759Y-127116067D01*
X152973624Y-127111375D01*
X152882492Y-127050483D01*
X152775003Y-127029103D01*
X152774997Y-127029103D01*
X152667507Y-127050483D01*
X152576375Y-127111375D01*
X152515483Y-127202507D01*
X152494103Y-127309997D01*
X144800500Y-127309997D01*
X144800500Y-127301583D01*
X144784808Y-127202505D01*
X144769709Y-127107174D01*
X144708884Y-126919975D01*
X144683432Y-126870023D01*
X144619527Y-126744600D01*
X144619525Y-126744597D01*
X144619524Y-126744595D01*
X144503828Y-126585354D01*
X144503824Y-126585350D01*
X144503822Y-126585347D01*
X144364652Y-126446177D01*
X144364653Y-126446177D01*
X144205399Y-126330472D01*
X144030026Y-126241116D01*
X143842826Y-126180291D01*
X143842823Y-126180290D01*
X143693482Y-126156637D01*
X143648417Y-126149500D01*
X143648416Y-126149500D01*
X115632407Y-126149500D01*
X115627604Y-126149264D01*
X115488582Y-126135571D01*
X115479161Y-126133697D01*
X115347798Y-126093849D01*
X115338923Y-126090173D01*
X115217855Y-126025460D01*
X115209869Y-126020124D01*
X115103754Y-125933038D01*
X115096961Y-125926245D01*
X115009875Y-125820130D01*
X115004539Y-125812144D01*
X114939824Y-125691072D01*
X114936151Y-125682205D01*
X114896302Y-125550838D01*
X114894428Y-125541417D01*
X114880736Y-125402396D01*
X114880500Y-125397593D01*
X114880500Y-123557001D01*
X183647500Y-123557001D01*
X183647500Y-123694998D01*
X183674417Y-123830318D01*
X183674420Y-123830328D01*
X183727225Y-123957811D01*
X183758137Y-124004074D01*
X183803883Y-124072539D01*
X183901460Y-124170116D01*
X183947102Y-124200613D01*
X184016189Y-124246775D01*
X184143672Y-124299580D01*
X184143678Y-124299581D01*
X184143681Y-124299582D01*
X184279001Y-124326499D01*
X184279007Y-124326500D01*
X184416993Y-124326500D01*
X184552328Y-124299580D01*
X184679811Y-124246775D01*
X184794542Y-124170114D01*
X184892114Y-124072542D01*
X184968775Y-123957811D01*
X185021580Y-123830328D01*
X185048500Y-123694993D01*
X185048500Y-123557007D01*
X185021580Y-123421672D01*
X184968775Y-123294189D01*
X184922613Y-123225102D01*
X184892116Y-123179460D01*
X184794539Y-123081883D01*
X184726074Y-123036137D01*
X184679811Y-123005225D01*
X184679808Y-123005223D01*
X184679807Y-123005223D01*
X184552329Y-122952420D01*
X184552318Y-122952417D01*
X184416998Y-122925500D01*
X184416993Y-122925500D01*
X184279007Y-122925500D01*
X184279001Y-122925500D01*
X184143681Y-122952417D01*
X184143670Y-122952420D01*
X184016192Y-123005223D01*
X183901460Y-123081883D01*
X183803883Y-123179460D01*
X183727223Y-123294192D01*
X183674420Y-123421670D01*
X183674417Y-123421681D01*
X183647500Y-123557001D01*
X114880500Y-123557001D01*
X114880500Y-121569997D01*
X197769103Y-121569997D01*
X197769103Y-121570002D01*
X197790483Y-121677492D01*
X197851375Y-121768624D01*
X197911991Y-121809126D01*
X197942505Y-121829515D01*
X197942507Y-121829516D01*
X198049997Y-121850897D01*
X198050000Y-121850897D01*
X198050003Y-121850897D01*
X198157492Y-121829516D01*
X198157492Y-121829515D01*
X198157495Y-121829515D01*
X198248624Y-121768624D01*
X198309515Y-121677495D01*
X198330897Y-121570000D01*
X198330897Y-121569997D01*
X198309516Y-121462507D01*
X198248624Y-121371375D01*
X198157492Y-121310483D01*
X198050003Y-121289103D01*
X198049997Y-121289103D01*
X197942507Y-121310483D01*
X197851375Y-121371375D01*
X197790483Y-121462507D01*
X197769103Y-121569997D01*
X114880500Y-121569997D01*
X114880500Y-120679997D01*
X179679103Y-120679997D01*
X179679103Y-120680002D01*
X179700483Y-120787492D01*
X179761375Y-120878624D01*
X179821991Y-120919126D01*
X179852505Y-120939515D01*
X179852507Y-120939516D01*
X179959997Y-120960897D01*
X179960000Y-120960897D01*
X179960003Y-120960897D01*
X180067492Y-120939516D01*
X180067492Y-120939515D01*
X180067495Y-120939515D01*
X180158624Y-120878624D01*
X180219515Y-120787495D01*
X180240897Y-120680000D01*
X180240897Y-120679997D01*
X180219516Y-120572507D01*
X180158624Y-120481375D01*
X180067492Y-120420483D01*
X179960003Y-120399103D01*
X179959997Y-120399103D01*
X179852507Y-120420483D01*
X179761375Y-120481375D01*
X179700483Y-120572507D01*
X179679103Y-120679997D01*
X114880500Y-120679997D01*
X114880500Y-120169997D01*
X182659103Y-120169997D01*
X182659103Y-120170002D01*
X182680483Y-120277492D01*
X182741375Y-120368624D01*
X182801991Y-120409126D01*
X182832505Y-120429515D01*
X182832507Y-120429516D01*
X182939997Y-120450897D01*
X182940000Y-120450897D01*
X182940003Y-120450897D01*
X183047492Y-120429516D01*
X183047492Y-120429515D01*
X183047495Y-120429515D01*
X183138624Y-120368624D01*
X183199515Y-120277495D01*
X183220897Y-120170000D01*
X183220897Y-120169997D01*
X183199516Y-120062507D01*
X183138624Y-119971375D01*
X183047492Y-119910483D01*
X182940003Y-119889103D01*
X182939997Y-119889103D01*
X182832507Y-119910483D01*
X182741375Y-119971375D01*
X182680483Y-120062507D01*
X182659103Y-120169997D01*
X114880500Y-120169997D01*
X114880500Y-119329997D01*
X196789103Y-119329997D01*
X196789103Y-119330002D01*
X196810483Y-119437492D01*
X196871375Y-119528624D01*
X196931991Y-119569126D01*
X196962505Y-119589515D01*
X196962507Y-119589516D01*
X197069997Y-119610897D01*
X197070000Y-119610897D01*
X197070003Y-119610897D01*
X197177492Y-119589516D01*
X197177492Y-119589515D01*
X197177495Y-119589515D01*
X197268624Y-119528624D01*
X197329515Y-119437495D01*
X197350897Y-119330000D01*
X197350897Y-119329997D01*
X197329516Y-119222507D01*
X197268624Y-119131375D01*
X197177492Y-119070483D01*
X197070003Y-119049103D01*
X197069997Y-119049103D01*
X196962507Y-119070483D01*
X196871375Y-119131375D01*
X196810483Y-119222507D01*
X196789103Y-119329997D01*
X114880500Y-119329997D01*
X114880500Y-118919997D01*
X182629103Y-118919997D01*
X182629103Y-118920002D01*
X182650483Y-119027492D01*
X182711375Y-119118624D01*
X182771991Y-119159126D01*
X182802505Y-119179515D01*
X182802507Y-119179516D01*
X182909997Y-119200897D01*
X182910000Y-119200897D01*
X182910003Y-119200897D01*
X183017492Y-119179516D01*
X183017492Y-119179515D01*
X183017495Y-119179515D01*
X183108624Y-119118624D01*
X183169515Y-119027495D01*
X183190897Y-118920000D01*
X183190897Y-118919997D01*
X183169516Y-118812507D01*
X183108624Y-118721375D01*
X183017492Y-118660483D01*
X182910003Y-118639103D01*
X182909997Y-118639103D01*
X182802507Y-118660483D01*
X182711375Y-118721375D01*
X182650483Y-118812507D01*
X182629103Y-118919997D01*
X114880500Y-118919997D01*
X114880500Y-117559997D01*
X182569103Y-117559997D01*
X182569103Y-117560002D01*
X182590483Y-117667492D01*
X182651375Y-117758624D01*
X182711991Y-117799126D01*
X182742505Y-117819515D01*
X182742507Y-117819516D01*
X182849997Y-117840897D01*
X182850000Y-117840897D01*
X182850003Y-117840897D01*
X182957492Y-117819516D01*
X182957492Y-117819515D01*
X182957495Y-117819515D01*
X183048624Y-117758624D01*
X183109515Y-117667495D01*
X183130897Y-117560000D01*
X183130897Y-117559997D01*
X183109516Y-117452507D01*
X183048624Y-117361375D01*
X182957492Y-117300483D01*
X182850003Y-117279103D01*
X182849997Y-117279103D01*
X182742507Y-117300483D01*
X182651375Y-117361375D01*
X182590483Y-117452507D01*
X182569103Y-117559997D01*
X114880500Y-117559997D01*
X114880500Y-117119997D01*
X194699103Y-117119997D01*
X194699103Y-117120002D01*
X194720483Y-117227492D01*
X194781375Y-117318624D01*
X194841991Y-117359126D01*
X194872505Y-117379515D01*
X194872507Y-117379516D01*
X194979997Y-117400897D01*
X194980000Y-117400897D01*
X194980003Y-117400897D01*
X195087492Y-117379516D01*
X195087492Y-117379515D01*
X195087495Y-117379515D01*
X195178624Y-117318624D01*
X195239515Y-117227495D01*
X195260897Y-117120000D01*
X195260897Y-117119997D01*
X195239516Y-117012507D01*
X195178624Y-116921375D01*
X195087492Y-116860483D01*
X194980003Y-116839103D01*
X194979997Y-116839103D01*
X194872507Y-116860483D01*
X194781375Y-116921375D01*
X194720483Y-117012507D01*
X194699103Y-117119997D01*
X114880500Y-117119997D01*
X114880500Y-116563266D01*
X182885947Y-116563266D01*
X182885947Y-116563271D01*
X182907327Y-116670761D01*
X182968219Y-116761893D01*
X183028835Y-116802395D01*
X183059349Y-116822784D01*
X183059351Y-116822785D01*
X183166841Y-116844166D01*
X183166844Y-116844166D01*
X183166847Y-116844166D01*
X183274336Y-116822785D01*
X183274336Y-116822784D01*
X183274339Y-116822784D01*
X183365468Y-116761893D01*
X183426359Y-116670764D01*
X183447741Y-116563269D01*
X183447741Y-116563266D01*
X183426360Y-116455776D01*
X183365468Y-116364644D01*
X183274336Y-116303752D01*
X183166847Y-116282372D01*
X183166841Y-116282372D01*
X183059351Y-116303752D01*
X182968219Y-116364644D01*
X182907327Y-116455776D01*
X182885947Y-116563266D01*
X114880500Y-116563266D01*
X114880500Y-116249997D01*
X191959103Y-116249997D01*
X191959103Y-116250002D01*
X191980483Y-116357492D01*
X192041375Y-116448624D01*
X192101991Y-116489126D01*
X192132505Y-116509515D01*
X192132507Y-116509516D01*
X192239997Y-116530897D01*
X192240000Y-116530897D01*
X192240003Y-116530897D01*
X192347492Y-116509516D01*
X192347492Y-116509515D01*
X192347495Y-116509515D01*
X192438624Y-116448624D01*
X192499515Y-116357495D01*
X192510206Y-116303752D01*
X192520897Y-116250002D01*
X192520897Y-116249997D01*
X192499516Y-116142507D01*
X192438624Y-116051375D01*
X192347492Y-115990483D01*
X192240003Y-115969103D01*
X192239997Y-115969103D01*
X192132507Y-115990483D01*
X192041375Y-116051375D01*
X191980483Y-116142507D01*
X191959103Y-116249997D01*
X114880500Y-116249997D01*
X114880500Y-115275505D01*
X190915277Y-115275505D01*
X190915277Y-115275510D01*
X190936657Y-115383000D01*
X190997549Y-115474132D01*
X191058165Y-115514634D01*
X191088679Y-115535023D01*
X191088681Y-115535024D01*
X191196171Y-115556405D01*
X191196174Y-115556405D01*
X191196177Y-115556405D01*
X191303666Y-115535024D01*
X191303666Y-115535023D01*
X191303669Y-115535023D01*
X191394798Y-115474132D01*
X191455689Y-115383003D01*
X191477071Y-115275508D01*
X191477071Y-115275505D01*
X191455690Y-115168015D01*
X191394798Y-115076883D01*
X191303666Y-115015991D01*
X191196177Y-114994611D01*
X191196171Y-114994611D01*
X191088681Y-115015991D01*
X190997549Y-115076883D01*
X190936657Y-115168015D01*
X190915277Y-115275505D01*
X114880500Y-115275505D01*
X114880500Y-108998497D01*
X117892603Y-108998497D01*
X117892603Y-108998502D01*
X117913983Y-109105992D01*
X117974875Y-109197124D01*
X118065620Y-109257758D01*
X118086456Y-109288941D01*
X118079139Y-109325723D01*
X118065620Y-109339242D01*
X117974875Y-109399875D01*
X117913983Y-109491007D01*
X117892603Y-109598497D01*
X117892603Y-109598502D01*
X117913983Y-109705992D01*
X117974875Y-109797124D01*
X118065620Y-109857758D01*
X118086456Y-109888941D01*
X118079139Y-109925723D01*
X118065620Y-109939242D01*
X117974875Y-109999875D01*
X117913983Y-110091007D01*
X117892603Y-110198497D01*
X117892603Y-110198502D01*
X117913983Y-110305992D01*
X117974875Y-110397124D01*
X118065620Y-110457758D01*
X118086456Y-110488941D01*
X118079139Y-110525723D01*
X118065620Y-110539242D01*
X117974875Y-110599875D01*
X117913983Y-110691007D01*
X117892603Y-110798497D01*
X117892603Y-110798502D01*
X117913983Y-110905992D01*
X117974875Y-110997124D01*
X118065620Y-111057758D01*
X118086456Y-111088941D01*
X118079139Y-111125723D01*
X118065620Y-111139242D01*
X117974875Y-111199875D01*
X117913983Y-111291007D01*
X117892603Y-111398497D01*
X117892603Y-111398502D01*
X117913983Y-111505992D01*
X117974875Y-111597124D01*
X118065620Y-111657758D01*
X118086456Y-111688941D01*
X118079139Y-111725723D01*
X118065620Y-111739242D01*
X117974875Y-111799875D01*
X117913983Y-111891007D01*
X117892603Y-111998497D01*
X117892603Y-111998502D01*
X117913983Y-112105992D01*
X117974875Y-112197124D01*
X118002014Y-112215258D01*
X118022850Y-112246441D01*
X118015533Y-112283223D01*
X118002014Y-112296742D01*
X117974875Y-112314875D01*
X117913983Y-112406007D01*
X117892603Y-112513497D01*
X117892603Y-112513502D01*
X117913983Y-112620992D01*
X117974875Y-112712124D01*
X118065620Y-112772758D01*
X118086456Y-112803941D01*
X118079139Y-112840723D01*
X118065620Y-112854242D01*
X117974875Y-112914875D01*
X117913983Y-113006007D01*
X117892603Y-113113497D01*
X117892603Y-113113502D01*
X117913983Y-113220992D01*
X117974875Y-113312124D01*
X118065620Y-113372758D01*
X118086456Y-113403941D01*
X118079139Y-113440723D01*
X118065620Y-113454242D01*
X117974875Y-113514875D01*
X117913983Y-113606007D01*
X117892603Y-113713497D01*
X117892603Y-113713502D01*
X117913983Y-113820992D01*
X117974875Y-113912124D01*
X118065620Y-113972758D01*
X118086456Y-114003941D01*
X118079139Y-114040723D01*
X118065620Y-114054242D01*
X117974875Y-114114875D01*
X117913983Y-114206007D01*
X117892603Y-114313497D01*
X117892603Y-114313502D01*
X117913983Y-114420992D01*
X117974875Y-114512124D01*
X118065620Y-114572758D01*
X118086456Y-114603941D01*
X118079139Y-114640723D01*
X118065620Y-114654242D01*
X117974875Y-114714875D01*
X117913983Y-114806007D01*
X117892603Y-114913497D01*
X117892603Y-114913502D01*
X117913983Y-115020992D01*
X117974875Y-115112124D01*
X118035491Y-115152626D01*
X118066005Y-115173015D01*
X118066007Y-115173016D01*
X118173497Y-115194397D01*
X118173500Y-115194397D01*
X118173503Y-115194397D01*
X118280992Y-115173016D01*
X118280992Y-115173015D01*
X118280995Y-115173015D01*
X118372124Y-115112124D01*
X118432758Y-115021378D01*
X118463940Y-115000544D01*
X118500723Y-115007860D01*
X118514242Y-115021379D01*
X118574875Y-115112124D01*
X118635491Y-115152626D01*
X118666005Y-115173015D01*
X118666007Y-115173016D01*
X118773497Y-115194397D01*
X118773500Y-115194397D01*
X118773503Y-115194397D01*
X118880992Y-115173016D01*
X118880992Y-115173015D01*
X118880995Y-115173015D01*
X118972124Y-115112124D01*
X119032758Y-115021378D01*
X119063940Y-115000544D01*
X119100723Y-115007860D01*
X119114242Y-115021379D01*
X119174875Y-115112124D01*
X119235491Y-115152626D01*
X119266005Y-115173015D01*
X119266007Y-115173016D01*
X119373497Y-115194397D01*
X119373500Y-115194397D01*
X119373503Y-115194397D01*
X119480992Y-115173016D01*
X119480992Y-115173015D01*
X119480995Y-115173015D01*
X119572124Y-115112124D01*
X119632758Y-115021378D01*
X119663940Y-115000544D01*
X119700723Y-115007860D01*
X119714242Y-115021379D01*
X119774875Y-115112124D01*
X119835491Y-115152626D01*
X119866005Y-115173015D01*
X119866007Y-115173016D01*
X119973497Y-115194397D01*
X119973500Y-115194397D01*
X119973503Y-115194397D01*
X120080992Y-115173016D01*
X120080992Y-115173015D01*
X120080995Y-115173015D01*
X120172124Y-115112124D01*
X120233015Y-115020995D01*
X120234011Y-115015991D01*
X120254397Y-114913502D01*
X120254397Y-114913497D01*
X120233016Y-114806007D01*
X120232757Y-114805620D01*
X120212626Y-114775491D01*
X120172124Y-114714875D01*
X120108087Y-114672088D01*
X120081378Y-114654241D01*
X120060544Y-114623060D01*
X120067860Y-114586277D01*
X120081377Y-114572759D01*
X120172124Y-114512124D01*
X120232758Y-114421378D01*
X120263940Y-114400544D01*
X120300723Y-114407860D01*
X120314242Y-114421379D01*
X120374875Y-114512124D01*
X120427807Y-114547492D01*
X120466005Y-114573015D01*
X120466007Y-114573016D01*
X120573497Y-114594397D01*
X120573500Y-114594397D01*
X120573503Y-114594397D01*
X120680992Y-114573016D01*
X120680992Y-114573015D01*
X120680995Y-114573015D01*
X120772124Y-114512124D01*
X120833015Y-114420995D01*
X120843433Y-114368624D01*
X120854397Y-114313502D01*
X120854397Y-114313497D01*
X120833016Y-114206007D01*
X120832757Y-114205620D01*
X120801676Y-114159103D01*
X120772124Y-114114875D01*
X120693746Y-114062505D01*
X120681378Y-114054241D01*
X120660544Y-114023060D01*
X120667860Y-113986277D01*
X120681377Y-113972759D01*
X120772124Y-113912124D01*
X120833015Y-113820995D01*
X120838836Y-113791735D01*
X120854397Y-113713502D01*
X120854397Y-113713497D01*
X120833016Y-113606007D01*
X120832757Y-113605620D01*
X120803813Y-113562302D01*
X120772124Y-113514875D01*
X120691107Y-113460742D01*
X120681378Y-113454241D01*
X120660544Y-113423060D01*
X120667860Y-113386277D01*
X120681377Y-113372759D01*
X120772124Y-113312124D01*
X120833015Y-113220995D01*
X120838128Y-113195293D01*
X120854397Y-113113502D01*
X120854397Y-113113497D01*
X120833016Y-113006007D01*
X120832757Y-113005620D01*
X120775548Y-112920000D01*
X120772124Y-112914875D01*
X120702905Y-112868625D01*
X120681378Y-112854241D01*
X120660544Y-112823060D01*
X120667860Y-112786277D01*
X120681377Y-112772759D01*
X120772124Y-112712124D01*
X120833015Y-112620995D01*
X120844650Y-112562505D01*
X120854397Y-112513502D01*
X120854397Y-112513497D01*
X120833016Y-112406007D01*
X120832757Y-112405620D01*
X120808038Y-112368624D01*
X120772124Y-112314875D01*
X120744985Y-112296742D01*
X120724150Y-112265560D01*
X120731466Y-112228777D01*
X120744985Y-112215258D01*
X120772124Y-112197124D01*
X120833015Y-112105995D01*
X120841666Y-112062507D01*
X120854397Y-111998502D01*
X120854397Y-111998497D01*
X120833016Y-111891007D01*
X120832757Y-111890620D01*
X120804697Y-111848624D01*
X120772124Y-111799875D01*
X120708087Y-111757088D01*
X120681378Y-111739241D01*
X120660544Y-111708060D01*
X120667860Y-111671277D01*
X120681377Y-111657759D01*
X120772124Y-111597124D01*
X120833015Y-111505995D01*
X120839902Y-111471376D01*
X120854397Y-111398502D01*
X120854397Y-111398497D01*
X120833016Y-111291007D01*
X120832757Y-111290620D01*
X120812626Y-111260491D01*
X120772124Y-111199875D01*
X120708087Y-111157088D01*
X120681378Y-111139241D01*
X120660544Y-111108060D01*
X120667860Y-111071277D01*
X120681377Y-111057759D01*
X120772124Y-110997124D01*
X120833015Y-110905995D01*
X120838334Y-110879258D01*
X120854397Y-110798502D01*
X120854397Y-110798497D01*
X120833016Y-110691007D01*
X120832757Y-110690620D01*
X120812626Y-110660491D01*
X120772124Y-110599875D01*
X120694882Y-110548264D01*
X120681378Y-110539241D01*
X120660544Y-110508060D01*
X120667860Y-110471277D01*
X120681377Y-110457759D01*
X120772124Y-110397124D01*
X120833015Y-110305995D01*
X120835852Y-110291735D01*
X120854397Y-110198502D01*
X120854397Y-110198497D01*
X120833016Y-110091007D01*
X120832757Y-110090620D01*
X120791653Y-110029103D01*
X120772124Y-109999875D01*
X120693324Y-109947223D01*
X120681378Y-109939241D01*
X120660544Y-109908060D01*
X120667860Y-109871277D01*
X120681377Y-109857759D01*
X120772124Y-109797124D01*
X120833015Y-109705995D01*
X120838186Y-109680002D01*
X120840175Y-109670000D01*
X121074540Y-109670000D01*
X121094326Y-109858256D01*
X121152821Y-110038284D01*
X121183261Y-110091007D01*
X121245321Y-110198500D01*
X121247467Y-110202216D01*
X121247729Y-110202507D01*
X121374124Y-110342884D01*
X121374127Y-110342886D01*
X121374129Y-110342888D01*
X121527270Y-110454151D01*
X121700197Y-110531144D01*
X121885354Y-110570500D01*
X122074646Y-110570500D01*
X122259803Y-110531144D01*
X122432730Y-110454151D01*
X122585871Y-110342888D01*
X122712533Y-110202216D01*
X122807179Y-110038284D01*
X122865674Y-109858256D01*
X122885460Y-109670000D01*
X122865674Y-109481744D01*
X122807179Y-109301716D01*
X122712533Y-109137784D01*
X122665496Y-109085544D01*
X122585875Y-108997115D01*
X122585872Y-108997113D01*
X122550446Y-108971374D01*
X122432730Y-108885849D01*
X122259803Y-108808856D01*
X122259800Y-108808855D01*
X122259796Y-108808854D01*
X122074646Y-108769500D01*
X121885354Y-108769500D01*
X121700203Y-108808854D01*
X121700194Y-108808857D01*
X121569809Y-108866909D01*
X121542074Y-108879258D01*
X121527268Y-108885850D01*
X121374127Y-108997113D01*
X121374124Y-108997115D01*
X121247470Y-109137780D01*
X121247464Y-109137788D01*
X121152823Y-109301712D01*
X121152821Y-109301715D01*
X121094446Y-109481376D01*
X121094326Y-109481744D01*
X121074540Y-109670000D01*
X120840175Y-109670000D01*
X120854397Y-109598502D01*
X120854397Y-109598497D01*
X120833016Y-109491007D01*
X120832757Y-109490620D01*
X120803761Y-109447223D01*
X120772124Y-109399875D01*
X120708087Y-109357088D01*
X120681378Y-109339241D01*
X120660544Y-109308060D01*
X120667860Y-109271277D01*
X120681377Y-109257759D01*
X120772124Y-109197124D01*
X120833015Y-109105995D01*
X120841666Y-109062507D01*
X120854397Y-108998502D01*
X120854397Y-108998497D01*
X120833016Y-108891007D01*
X120832757Y-108890620D01*
X120812626Y-108860491D01*
X120772124Y-108799875D01*
X120680992Y-108738983D01*
X120573503Y-108717603D01*
X120573497Y-108717603D01*
X120466007Y-108738983D01*
X120374875Y-108799875D01*
X120314242Y-108890620D01*
X120283059Y-108911456D01*
X120246277Y-108904139D01*
X120232758Y-108890620D01*
X120172124Y-108799875D01*
X120080992Y-108738983D01*
X119973503Y-108717603D01*
X119973497Y-108717603D01*
X119866007Y-108738983D01*
X119774875Y-108799875D01*
X119714242Y-108890620D01*
X119683059Y-108911456D01*
X119646277Y-108904139D01*
X119632758Y-108890620D01*
X119572124Y-108799875D01*
X119480992Y-108738983D01*
X119373503Y-108717603D01*
X119373497Y-108717603D01*
X119266007Y-108738983D01*
X119174875Y-108799875D01*
X119114242Y-108890620D01*
X119083059Y-108911456D01*
X119046277Y-108904139D01*
X119032758Y-108890620D01*
X118972124Y-108799875D01*
X118880992Y-108738983D01*
X118773503Y-108717603D01*
X118773497Y-108717603D01*
X118666007Y-108738983D01*
X118574875Y-108799875D01*
X118514242Y-108890620D01*
X118483059Y-108911456D01*
X118446277Y-108904139D01*
X118432758Y-108890620D01*
X118372124Y-108799875D01*
X118280992Y-108738983D01*
X118173503Y-108717603D01*
X118173497Y-108717603D01*
X118066007Y-108738983D01*
X117974875Y-108799875D01*
X117913983Y-108891007D01*
X117892603Y-108998497D01*
X114880500Y-108998497D01*
X114880500Y-108669997D01*
X131109103Y-108669997D01*
X131109103Y-108670002D01*
X131130483Y-108777492D01*
X131191375Y-108868624D01*
X131207290Y-108879258D01*
X131228126Y-108910441D01*
X131220809Y-108947223D01*
X131207290Y-108960742D01*
X131191375Y-108971375D01*
X131130483Y-109062507D01*
X131109103Y-109169997D01*
X131109103Y-109170002D01*
X131130483Y-109277492D01*
X131191375Y-109368624D01*
X131207290Y-109379258D01*
X131228126Y-109410441D01*
X131220809Y-109447223D01*
X131207290Y-109460742D01*
X131191375Y-109471375D01*
X131130483Y-109562507D01*
X131109103Y-109669997D01*
X131109103Y-109670002D01*
X131130483Y-109777492D01*
X131191375Y-109868624D01*
X131207290Y-109879258D01*
X131228126Y-109910441D01*
X131220809Y-109947223D01*
X131207290Y-109960742D01*
X131191375Y-109971375D01*
X131130483Y-110062507D01*
X131109103Y-110169997D01*
X131109103Y-110170002D01*
X131130483Y-110277492D01*
X131191375Y-110368624D01*
X131207290Y-110379258D01*
X131228126Y-110410441D01*
X131220809Y-110447223D01*
X131207290Y-110460742D01*
X131191375Y-110471375D01*
X131130483Y-110562507D01*
X131109103Y-110669997D01*
X131109103Y-110670002D01*
X131130483Y-110777492D01*
X131191375Y-110868624D01*
X131207290Y-110879258D01*
X131228126Y-110910441D01*
X131220809Y-110947223D01*
X131207290Y-110960742D01*
X131191375Y-110971375D01*
X131130483Y-111062507D01*
X131109103Y-111169997D01*
X131109103Y-111170002D01*
X131130483Y-111277492D01*
X131191375Y-111368624D01*
X131207290Y-111379258D01*
X131228126Y-111410441D01*
X131220809Y-111447223D01*
X131207290Y-111460742D01*
X131191375Y-111471375D01*
X131130483Y-111562507D01*
X131109103Y-111669997D01*
X131109103Y-111670002D01*
X131130483Y-111777492D01*
X131191375Y-111868624D01*
X131207290Y-111879258D01*
X131228126Y-111910441D01*
X131220809Y-111947223D01*
X131207290Y-111960742D01*
X131191375Y-111971375D01*
X131130483Y-112062507D01*
X131109103Y-112169997D01*
X131109103Y-112170002D01*
X131130483Y-112277492D01*
X131191375Y-112368624D01*
X131207290Y-112379258D01*
X131228126Y-112410441D01*
X131220809Y-112447223D01*
X131207290Y-112460742D01*
X131191375Y-112471375D01*
X131130483Y-112562507D01*
X131109103Y-112669997D01*
X131109103Y-112670002D01*
X131130483Y-112777492D01*
X131191375Y-112868624D01*
X131207290Y-112879258D01*
X131228126Y-112910441D01*
X131220809Y-112947223D01*
X131207290Y-112960742D01*
X131191375Y-112971375D01*
X131130483Y-113062507D01*
X131109103Y-113169997D01*
X131109103Y-113170002D01*
X131130483Y-113277492D01*
X131191375Y-113368624D01*
X131244231Y-113403941D01*
X131282505Y-113429515D01*
X131282507Y-113429516D01*
X131389997Y-113450897D01*
X131390000Y-113450897D01*
X131390003Y-113450897D01*
X131497492Y-113429516D01*
X131497492Y-113429515D01*
X131497495Y-113429515D01*
X131588624Y-113368624D01*
X131588625Y-113368623D01*
X131599258Y-113352710D01*
X131630440Y-113331874D01*
X131667222Y-113339190D01*
X131680742Y-113352710D01*
X131691374Y-113368623D01*
X131707290Y-113379258D01*
X131728126Y-113410441D01*
X131720809Y-113447223D01*
X131707290Y-113460742D01*
X131691375Y-113471375D01*
X131630483Y-113562507D01*
X131609103Y-113669997D01*
X131609103Y-113670002D01*
X131630483Y-113777492D01*
X131691375Y-113868624D01*
X131751991Y-113909126D01*
X131782505Y-113929515D01*
X131782507Y-113929516D01*
X131889997Y-113950897D01*
X131890000Y-113950897D01*
X131890003Y-113950897D01*
X131997492Y-113929516D01*
X131997492Y-113929515D01*
X131997495Y-113929515D01*
X132088624Y-113868624D01*
X132088625Y-113868623D01*
X132099258Y-113852710D01*
X132130440Y-113831874D01*
X132167222Y-113839190D01*
X132180742Y-113852710D01*
X132191374Y-113868623D01*
X132207290Y-113879258D01*
X132228126Y-113910441D01*
X132220809Y-113947223D01*
X132207290Y-113960742D01*
X132191375Y-113971375D01*
X132130483Y-114062507D01*
X132109103Y-114169997D01*
X132109103Y-114170002D01*
X132130483Y-114277492D01*
X132191375Y-114368624D01*
X132239147Y-114400544D01*
X132282505Y-114429515D01*
X132282507Y-114429516D01*
X132389997Y-114450897D01*
X132390000Y-114450897D01*
X132390003Y-114450897D01*
X132497492Y-114429516D01*
X132497492Y-114429515D01*
X132497495Y-114429515D01*
X132588624Y-114368624D01*
X132588625Y-114368623D01*
X132599258Y-114352710D01*
X132630440Y-114331874D01*
X132667222Y-114339190D01*
X132680742Y-114352710D01*
X132691374Y-114368623D01*
X132736940Y-114399069D01*
X132782505Y-114429515D01*
X132782507Y-114429516D01*
X132889997Y-114450897D01*
X132890000Y-114450897D01*
X132890003Y-114450897D01*
X132997492Y-114429516D01*
X132997492Y-114429515D01*
X132997495Y-114429515D01*
X133088624Y-114368624D01*
X133088625Y-114368623D01*
X133099258Y-114352710D01*
X133130440Y-114331874D01*
X133167222Y-114339190D01*
X133180742Y-114352710D01*
X133191374Y-114368623D01*
X133236940Y-114399069D01*
X133282505Y-114429515D01*
X133282507Y-114429516D01*
X133389997Y-114450897D01*
X133390000Y-114450897D01*
X133390003Y-114450897D01*
X133497492Y-114429516D01*
X133497492Y-114429515D01*
X133497495Y-114429515D01*
X133588624Y-114368624D01*
X133588625Y-114368623D01*
X133599258Y-114352710D01*
X133630440Y-114331874D01*
X133667222Y-114339190D01*
X133680742Y-114352710D01*
X133691374Y-114368623D01*
X133736940Y-114399069D01*
X133782505Y-114429515D01*
X133782507Y-114429516D01*
X133889997Y-114450897D01*
X133890000Y-114450897D01*
X133890003Y-114450897D01*
X133944801Y-114439997D01*
X189909103Y-114439997D01*
X189909103Y-114440002D01*
X189930483Y-114547492D01*
X189991375Y-114638624D01*
X190051991Y-114679126D01*
X190082505Y-114699515D01*
X190082507Y-114699516D01*
X190189997Y-114720897D01*
X190190000Y-114720897D01*
X190190003Y-114720897D01*
X190297492Y-114699516D01*
X190297492Y-114699515D01*
X190297495Y-114699515D01*
X190388624Y-114638624D01*
X190449515Y-114547495D01*
X190468730Y-114450897D01*
X190470897Y-114440002D01*
X190470897Y-114439997D01*
X190449516Y-114332507D01*
X190388624Y-114241375D01*
X190297492Y-114180483D01*
X190190003Y-114159103D01*
X190189997Y-114159103D01*
X190082507Y-114180483D01*
X189991375Y-114241375D01*
X189930483Y-114332507D01*
X189909103Y-114439997D01*
X133944801Y-114439997D01*
X133997492Y-114429516D01*
X133997492Y-114429515D01*
X133997495Y-114429515D01*
X134088624Y-114368624D01*
X134149515Y-114277495D01*
X134156700Y-114241376D01*
X134170897Y-114170002D01*
X134170897Y-114169997D01*
X134149516Y-114062507D01*
X134134960Y-114040723D01*
X134119069Y-114016940D01*
X134088623Y-113971374D01*
X134072710Y-113960742D01*
X134051874Y-113929560D01*
X134059190Y-113892778D01*
X134072710Y-113879258D01*
X134088623Y-113868625D01*
X134088624Y-113868624D01*
X134149515Y-113777495D01*
X134157828Y-113735707D01*
X134170897Y-113670002D01*
X134170897Y-113669997D01*
X134149516Y-113562507D01*
X134088623Y-113471374D01*
X134072710Y-113460742D01*
X134068744Y-113454807D01*
X189264293Y-113454807D01*
X189264293Y-113454812D01*
X189285673Y-113562302D01*
X189346565Y-113653434D01*
X189407181Y-113693936D01*
X189437695Y-113714325D01*
X189437697Y-113714326D01*
X189545187Y-113735707D01*
X189545190Y-113735707D01*
X189545193Y-113735707D01*
X189652682Y-113714326D01*
X189652682Y-113714325D01*
X189652685Y-113714325D01*
X189743814Y-113653434D01*
X189804705Y-113562305D01*
X189814140Y-113514876D01*
X189826087Y-113454812D01*
X189826087Y-113454807D01*
X189804706Y-113347317D01*
X189794387Y-113331874D01*
X189781191Y-113312124D01*
X189743814Y-113256185D01*
X189652682Y-113195293D01*
X189545193Y-113173913D01*
X189545187Y-113173913D01*
X189437697Y-113195293D01*
X189346565Y-113256185D01*
X189285673Y-113347317D01*
X189264293Y-113454807D01*
X134068744Y-113454807D01*
X134051874Y-113429560D01*
X134059190Y-113392778D01*
X134072710Y-113379258D01*
X134088623Y-113368625D01*
X134088624Y-113368624D01*
X134149515Y-113277495D01*
X134160678Y-113221379D01*
X134170897Y-113170002D01*
X134170897Y-113169997D01*
X134149516Y-113062507D01*
X134120538Y-113019139D01*
X134088624Y-112971376D01*
X134088623Y-112971374D01*
X134072710Y-112960742D01*
X134051874Y-112929560D01*
X134059190Y-112892778D01*
X134072710Y-112879258D01*
X134088623Y-112868625D01*
X134088624Y-112868624D01*
X134149515Y-112777495D01*
X134150407Y-112773015D01*
X134170897Y-112670002D01*
X134170897Y-112669997D01*
X134149516Y-112562507D01*
X134088623Y-112471374D01*
X134072710Y-112460742D01*
X134051874Y-112429560D01*
X134059190Y-112392778D01*
X134072710Y-112379258D01*
X134088623Y-112368625D01*
X134088624Y-112368624D01*
X134149515Y-112277495D01*
X134170897Y-112170000D01*
X134170897Y-112169997D01*
X134149516Y-112062507D01*
X134088623Y-111971374D01*
X134072710Y-111960742D01*
X134051874Y-111929560D01*
X134059190Y-111892778D01*
X134072710Y-111879258D01*
X134088623Y-111868625D01*
X134088624Y-111868624D01*
X134149515Y-111777495D01*
X134153494Y-111757495D01*
X134170897Y-111670002D01*
X134170897Y-111669997D01*
X134166919Y-111649997D01*
X190139103Y-111649997D01*
X190139103Y-111650002D01*
X190160483Y-111757492D01*
X190221375Y-111848624D01*
X190281991Y-111889126D01*
X190312505Y-111909515D01*
X190312507Y-111909516D01*
X190419997Y-111930897D01*
X190420000Y-111930897D01*
X190420003Y-111930897D01*
X190527492Y-111909516D01*
X190527492Y-111909515D01*
X190527495Y-111909515D01*
X190618624Y-111848624D01*
X190679515Y-111757495D01*
X190689349Y-111708060D01*
X190700897Y-111650002D01*
X190700897Y-111649997D01*
X190679516Y-111542507D01*
X190618624Y-111451375D01*
X190527492Y-111390483D01*
X190420003Y-111369103D01*
X190419997Y-111369103D01*
X190312507Y-111390483D01*
X190221375Y-111451375D01*
X190160483Y-111542507D01*
X190139103Y-111649997D01*
X134166919Y-111649997D01*
X134149516Y-111562507D01*
X134136152Y-111542507D01*
X134119069Y-111516940D01*
X134088623Y-111471374D01*
X134072710Y-111460742D01*
X134051874Y-111429560D01*
X134059190Y-111392778D01*
X134072710Y-111379258D01*
X134088623Y-111368625D01*
X134088624Y-111368624D01*
X134149515Y-111277495D01*
X134164955Y-111199876D01*
X134170897Y-111170002D01*
X134170897Y-111169997D01*
X134149516Y-111062507D01*
X134088623Y-110971374D01*
X134072710Y-110960742D01*
X134051874Y-110929560D01*
X134059190Y-110892778D01*
X134072710Y-110879258D01*
X134088623Y-110868625D01*
X134135478Y-110798502D01*
X134149515Y-110777495D01*
X134164107Y-110704139D01*
X134170897Y-110670002D01*
X134170897Y-110669997D01*
X134149516Y-110562507D01*
X134088623Y-110471374D01*
X134072710Y-110460742D01*
X134051874Y-110429560D01*
X134059190Y-110392778D01*
X134072710Y-110379258D01*
X134088623Y-110368625D01*
X134105820Y-110342888D01*
X134127797Y-110309997D01*
X189049103Y-110309997D01*
X189049103Y-110310002D01*
X189070483Y-110417492D01*
X189131375Y-110508624D01*
X189190701Y-110548264D01*
X189222505Y-110569515D01*
X189222507Y-110569516D01*
X189329997Y-110590897D01*
X189330000Y-110590897D01*
X189330003Y-110590897D01*
X189437492Y-110569516D01*
X189437492Y-110569515D01*
X189437495Y-110569515D01*
X189528624Y-110508624D01*
X189589515Y-110417495D01*
X189590919Y-110410441D01*
X189610897Y-110310002D01*
X189610897Y-110309997D01*
X189589516Y-110202507D01*
X189589318Y-110202211D01*
X189567794Y-110169997D01*
X189528624Y-110111375D01*
X189437492Y-110050483D01*
X189330003Y-110029103D01*
X189329997Y-110029103D01*
X189222507Y-110050483D01*
X189131375Y-110111375D01*
X189070483Y-110202507D01*
X189049103Y-110309997D01*
X134127797Y-110309997D01*
X134149515Y-110277495D01*
X134164432Y-110202505D01*
X134170897Y-110170002D01*
X134170897Y-110169997D01*
X134149516Y-110062507D01*
X134088623Y-109971374D01*
X134072710Y-109960742D01*
X134051874Y-109929560D01*
X134059190Y-109892778D01*
X134072710Y-109879258D01*
X134088623Y-109868625D01*
X134088624Y-109868624D01*
X134149515Y-109777495D01*
X134163738Y-109705995D01*
X134168909Y-109679997D01*
X185909103Y-109679997D01*
X185909103Y-109680002D01*
X185930483Y-109787492D01*
X185991375Y-109878624D01*
X186038993Y-109910441D01*
X186082505Y-109939515D01*
X186082507Y-109939516D01*
X186189997Y-109960897D01*
X186190000Y-109960897D01*
X186190003Y-109960897D01*
X186297492Y-109939516D01*
X186297492Y-109939515D01*
X186297495Y-109939515D01*
X186388624Y-109878624D01*
X186449515Y-109787495D01*
X186451505Y-109777495D01*
X186470897Y-109680002D01*
X186470897Y-109679997D01*
X186449516Y-109572507D01*
X186433317Y-109548264D01*
X186403834Y-109504139D01*
X186388624Y-109481375D01*
X186297492Y-109420483D01*
X186190003Y-109399103D01*
X186189997Y-109399103D01*
X186082507Y-109420483D01*
X185991375Y-109481375D01*
X185930483Y-109572507D01*
X185909103Y-109679997D01*
X134168909Y-109679997D01*
X134170897Y-109670002D01*
X134170897Y-109669997D01*
X134149516Y-109562507D01*
X134088623Y-109471374D01*
X134072710Y-109460742D01*
X134051874Y-109429560D01*
X134059190Y-109392778D01*
X134072710Y-109379258D01*
X134088623Y-109368625D01*
X134088624Y-109368624D01*
X134149515Y-109277495D01*
X134170897Y-109170000D01*
X134170897Y-109169997D01*
X134149516Y-109062507D01*
X134088623Y-108971374D01*
X134072710Y-108960742D01*
X134051874Y-108929560D01*
X134059190Y-108892778D01*
X134072710Y-108879258D01*
X134088623Y-108868625D01*
X134128559Y-108808857D01*
X134149515Y-108777495D01*
X134151106Y-108769500D01*
X134170897Y-108670002D01*
X134170897Y-108669997D01*
X134149516Y-108562507D01*
X134088624Y-108471375D01*
X133997492Y-108410483D01*
X133890003Y-108389103D01*
X133889997Y-108389103D01*
X133782507Y-108410483D01*
X133691375Y-108471375D01*
X133680742Y-108487290D01*
X133649559Y-108508126D01*
X133612777Y-108500809D01*
X133599258Y-108487290D01*
X133588624Y-108471375D01*
X133497492Y-108410483D01*
X133390003Y-108389103D01*
X133389997Y-108389103D01*
X133282507Y-108410483D01*
X133191375Y-108471375D01*
X133180742Y-108487290D01*
X133149559Y-108508126D01*
X133112777Y-108500809D01*
X133099258Y-108487290D01*
X133088624Y-108471375D01*
X132997492Y-108410483D01*
X132890003Y-108389103D01*
X132889997Y-108389103D01*
X132782507Y-108410483D01*
X132691375Y-108471375D01*
X132680742Y-108487290D01*
X132649559Y-108508126D01*
X132612777Y-108500809D01*
X132599258Y-108487290D01*
X132588624Y-108471375D01*
X132497492Y-108410483D01*
X132390003Y-108389103D01*
X132389997Y-108389103D01*
X132282507Y-108410483D01*
X132191375Y-108471375D01*
X132180742Y-108487290D01*
X132149559Y-108508126D01*
X132112777Y-108500809D01*
X132099258Y-108487290D01*
X132088624Y-108471375D01*
X131997492Y-108410483D01*
X131890003Y-108389103D01*
X131889997Y-108389103D01*
X131782507Y-108410483D01*
X131691375Y-108471375D01*
X131680742Y-108487290D01*
X131649559Y-108508126D01*
X131612777Y-108500809D01*
X131599258Y-108487290D01*
X131588624Y-108471375D01*
X131497492Y-108410483D01*
X131390003Y-108389103D01*
X131389997Y-108389103D01*
X131282507Y-108410483D01*
X131191375Y-108471375D01*
X131130483Y-108562507D01*
X131109103Y-108669997D01*
X114880500Y-108669997D01*
X114880500Y-108179997D01*
X185899103Y-108179997D01*
X185899103Y-108180002D01*
X185920483Y-108287492D01*
X185981375Y-108378624D01*
X186029056Y-108410483D01*
X186072505Y-108439515D01*
X186072507Y-108439516D01*
X186179997Y-108460897D01*
X186180000Y-108460897D01*
X186180003Y-108460897D01*
X186287492Y-108439516D01*
X186287492Y-108439515D01*
X186287495Y-108439515D01*
X186378624Y-108378624D01*
X186439515Y-108287495D01*
X186460897Y-108180000D01*
X186460897Y-108179997D01*
X186439516Y-108072507D01*
X186378624Y-107981375D01*
X186287492Y-107920483D01*
X186180003Y-107899103D01*
X186179997Y-107899103D01*
X186072507Y-107920483D01*
X185981375Y-107981375D01*
X185920483Y-108072507D01*
X185899103Y-108179997D01*
X114880500Y-108179997D01*
X114880500Y-106589997D01*
X130609103Y-106589997D01*
X130609103Y-106590002D01*
X130630483Y-106697492D01*
X130691375Y-106788624D01*
X130751991Y-106829126D01*
X130782505Y-106849515D01*
X130782507Y-106849516D01*
X130889997Y-106870897D01*
X130890000Y-106870897D01*
X130890003Y-106870897D01*
X130997492Y-106849516D01*
X130997492Y-106849515D01*
X130997495Y-106849515D01*
X131088624Y-106788624D01*
X131088625Y-106788623D01*
X131099258Y-106772710D01*
X131130440Y-106751874D01*
X131167222Y-106759190D01*
X131180742Y-106772710D01*
X131191374Y-106788623D01*
X131236940Y-106819069D01*
X131282505Y-106849515D01*
X131282507Y-106849516D01*
X131389997Y-106870897D01*
X131390000Y-106870897D01*
X131390003Y-106870897D01*
X131497492Y-106849516D01*
X131497492Y-106849515D01*
X131497495Y-106849515D01*
X131588624Y-106788624D01*
X131588625Y-106788623D01*
X131599258Y-106772710D01*
X131630440Y-106751874D01*
X131667222Y-106759190D01*
X131680742Y-106772710D01*
X131691374Y-106788623D01*
X131736940Y-106819069D01*
X131782505Y-106849515D01*
X131782507Y-106849516D01*
X131889997Y-106870897D01*
X131890000Y-106870897D01*
X131890003Y-106870897D01*
X131997492Y-106849516D01*
X131997492Y-106849515D01*
X131997495Y-106849515D01*
X132088624Y-106788624D01*
X132088625Y-106788623D01*
X132099258Y-106772710D01*
X132130440Y-106751874D01*
X132167222Y-106759190D01*
X132180742Y-106772710D01*
X132191374Y-106788623D01*
X132236940Y-106819069D01*
X132282505Y-106849515D01*
X132282507Y-106849516D01*
X132389997Y-106870897D01*
X132390000Y-106870897D01*
X132390003Y-106870897D01*
X132497492Y-106849516D01*
X132497492Y-106849515D01*
X132497495Y-106849515D01*
X132588624Y-106788624D01*
X132588625Y-106788623D01*
X132599258Y-106772710D01*
X132630440Y-106751874D01*
X132667222Y-106759190D01*
X132680742Y-106772710D01*
X132691374Y-106788623D01*
X132736940Y-106819069D01*
X132782505Y-106849515D01*
X132782507Y-106849516D01*
X132889997Y-106870897D01*
X132890000Y-106870897D01*
X132890003Y-106870897D01*
X132997492Y-106849516D01*
X132997492Y-106849515D01*
X132997495Y-106849515D01*
X133088624Y-106788624D01*
X133088625Y-106788623D01*
X133099258Y-106772710D01*
X133130440Y-106751874D01*
X133167222Y-106759190D01*
X133180742Y-106772710D01*
X133191374Y-106788623D01*
X133236940Y-106819069D01*
X133282505Y-106849515D01*
X133282507Y-106849516D01*
X133389997Y-106870897D01*
X133390000Y-106870897D01*
X133390003Y-106870897D01*
X133497492Y-106849516D01*
X133497492Y-106849515D01*
X133497495Y-106849515D01*
X133588624Y-106788624D01*
X133588625Y-106788623D01*
X133599258Y-106772710D01*
X133630440Y-106751874D01*
X133667222Y-106759190D01*
X133680742Y-106772710D01*
X133691374Y-106788623D01*
X133736940Y-106819069D01*
X133782505Y-106849515D01*
X133782507Y-106849516D01*
X133889997Y-106870897D01*
X133890000Y-106870897D01*
X133890003Y-106870897D01*
X133997492Y-106849516D01*
X133997492Y-106849515D01*
X133997495Y-106849515D01*
X134088624Y-106788624D01*
X134149515Y-106697495D01*
X134170897Y-106590000D01*
X134170897Y-106589997D01*
X134149516Y-106482507D01*
X134088624Y-106391375D01*
X133997492Y-106330483D01*
X133890003Y-106309103D01*
X133889997Y-106309103D01*
X133782507Y-106330483D01*
X133691375Y-106391375D01*
X133680742Y-106407290D01*
X133649559Y-106428126D01*
X133612777Y-106420809D01*
X133599258Y-106407290D01*
X133588624Y-106391375D01*
X133497492Y-106330483D01*
X133390003Y-106309103D01*
X133389997Y-106309103D01*
X133282507Y-106330483D01*
X133191375Y-106391375D01*
X133180742Y-106407290D01*
X133149559Y-106428126D01*
X133112777Y-106420809D01*
X133099258Y-106407290D01*
X133088624Y-106391375D01*
X132997492Y-106330483D01*
X132890003Y-106309103D01*
X132889997Y-106309103D01*
X132782507Y-106330483D01*
X132691375Y-106391375D01*
X132680742Y-106407290D01*
X132649559Y-106428126D01*
X132612777Y-106420809D01*
X132599258Y-106407290D01*
X132588624Y-106391375D01*
X132497492Y-106330483D01*
X132390003Y-106309103D01*
X132389997Y-106309103D01*
X132282507Y-106330483D01*
X132191375Y-106391375D01*
X132180742Y-106407290D01*
X132149559Y-106428126D01*
X132112777Y-106420809D01*
X132099258Y-106407290D01*
X132088624Y-106391375D01*
X131997492Y-106330483D01*
X131890003Y-106309103D01*
X131889997Y-106309103D01*
X131782507Y-106330483D01*
X131691375Y-106391375D01*
X131680742Y-106407290D01*
X131649559Y-106428126D01*
X131612777Y-106420809D01*
X131599258Y-106407290D01*
X131588624Y-106391375D01*
X131497492Y-106330483D01*
X131390003Y-106309103D01*
X131389997Y-106309103D01*
X131282507Y-106330483D01*
X131191375Y-106391375D01*
X131180742Y-106407290D01*
X131149559Y-106428126D01*
X131112777Y-106420809D01*
X131099258Y-106407290D01*
X131088624Y-106391375D01*
X130997492Y-106330483D01*
X130890003Y-106309103D01*
X130889997Y-106309103D01*
X130782507Y-106330483D01*
X130691375Y-106391375D01*
X130630483Y-106482507D01*
X130609103Y-106589997D01*
X114880500Y-106589997D01*
X114880500Y-106189997D01*
X185599103Y-106189997D01*
X185599103Y-106190002D01*
X185620483Y-106297492D01*
X185681375Y-106388624D01*
X185709311Y-106407290D01*
X185772505Y-106449515D01*
X185772507Y-106449516D01*
X185879997Y-106470897D01*
X185880000Y-106470897D01*
X185880003Y-106470897D01*
X185987492Y-106449516D01*
X185987492Y-106449515D01*
X185987495Y-106449515D01*
X186078624Y-106388624D01*
X186139515Y-106297495D01*
X186160897Y-106190000D01*
X186160897Y-106189997D01*
X186139516Y-106082507D01*
X186078624Y-105991375D01*
X185987492Y-105930483D01*
X185880003Y-105909103D01*
X185879997Y-105909103D01*
X185772507Y-105930483D01*
X185681375Y-105991375D01*
X185620483Y-106082507D01*
X185599103Y-106189997D01*
X114880500Y-106189997D01*
X114880500Y-99513497D01*
X117892603Y-99513497D01*
X117892603Y-99513502D01*
X117913983Y-99620992D01*
X117974875Y-99712124D01*
X118065620Y-99772758D01*
X118086456Y-99803941D01*
X118079139Y-99840723D01*
X118065620Y-99854242D01*
X117974875Y-99914875D01*
X117913983Y-100006007D01*
X117892603Y-100113497D01*
X117892603Y-100113502D01*
X117913983Y-100220992D01*
X117974875Y-100312124D01*
X118065620Y-100372758D01*
X118086456Y-100403941D01*
X118079139Y-100440723D01*
X118065620Y-100454242D01*
X117974875Y-100514875D01*
X117913983Y-100606007D01*
X117892603Y-100713497D01*
X117892603Y-100713502D01*
X117913983Y-100820992D01*
X117974875Y-100912124D01*
X118065620Y-100972758D01*
X118086456Y-101003941D01*
X118079139Y-101040723D01*
X118065620Y-101054242D01*
X117974875Y-101114875D01*
X117913983Y-101206007D01*
X117892603Y-101313497D01*
X117892603Y-101313502D01*
X117913983Y-101420992D01*
X117974875Y-101512124D01*
X118065620Y-101572758D01*
X118086456Y-101603941D01*
X118079139Y-101640723D01*
X118065620Y-101654242D01*
X117974875Y-101714875D01*
X117913983Y-101806007D01*
X117892603Y-101913497D01*
X117892603Y-101913502D01*
X117913983Y-102020992D01*
X117974875Y-102112124D01*
X118065620Y-102172758D01*
X118086456Y-102203941D01*
X118079139Y-102240723D01*
X118065620Y-102254242D01*
X117974875Y-102314875D01*
X117913983Y-102406007D01*
X117892603Y-102513497D01*
X117892603Y-102513502D01*
X117913983Y-102620992D01*
X117974875Y-102712124D01*
X117990790Y-102722758D01*
X118011626Y-102753941D01*
X118004309Y-102790723D01*
X117990790Y-102804242D01*
X117974875Y-102814875D01*
X117913983Y-102906007D01*
X117892603Y-103013497D01*
X117892603Y-103013502D01*
X117913983Y-103120992D01*
X117974875Y-103212124D01*
X118065620Y-103272758D01*
X118086456Y-103303941D01*
X118079139Y-103340723D01*
X118065620Y-103354242D01*
X117974875Y-103414875D01*
X117913983Y-103506007D01*
X117892603Y-103613497D01*
X117892603Y-103613502D01*
X117913983Y-103720992D01*
X117974875Y-103812124D01*
X118065620Y-103872758D01*
X118086456Y-103903941D01*
X118079139Y-103940723D01*
X118065620Y-103954242D01*
X117974875Y-104014875D01*
X117913983Y-104106007D01*
X117892603Y-104213497D01*
X117892603Y-104213502D01*
X117913983Y-104320992D01*
X117974875Y-104412124D01*
X118065620Y-104472758D01*
X118086456Y-104503941D01*
X118079139Y-104540723D01*
X118065620Y-104554242D01*
X117974875Y-104614875D01*
X117913983Y-104706007D01*
X117892603Y-104813497D01*
X117892603Y-104813502D01*
X117913983Y-104920992D01*
X117974875Y-105012124D01*
X118065620Y-105072758D01*
X118086456Y-105103941D01*
X118079139Y-105140723D01*
X118065620Y-105154242D01*
X117974875Y-105214875D01*
X117913983Y-105306007D01*
X117892603Y-105413497D01*
X117892603Y-105413502D01*
X117913983Y-105520992D01*
X117974875Y-105612124D01*
X118035491Y-105652626D01*
X118066005Y-105673015D01*
X118066007Y-105673016D01*
X118173497Y-105694397D01*
X118173500Y-105694397D01*
X118173503Y-105694397D01*
X118280992Y-105673016D01*
X118280992Y-105673015D01*
X118280995Y-105673015D01*
X118372124Y-105612124D01*
X118432758Y-105521378D01*
X118463940Y-105500544D01*
X118500723Y-105507860D01*
X118514242Y-105521379D01*
X118574875Y-105612124D01*
X118635491Y-105652626D01*
X118666005Y-105673015D01*
X118666007Y-105673016D01*
X118773497Y-105694397D01*
X118773500Y-105694397D01*
X118773503Y-105694397D01*
X118880992Y-105673016D01*
X118880992Y-105673015D01*
X118880995Y-105673015D01*
X118972124Y-105612124D01*
X119032758Y-105521378D01*
X119063940Y-105500544D01*
X119100723Y-105507860D01*
X119114242Y-105521379D01*
X119174875Y-105612124D01*
X119235491Y-105652626D01*
X119266005Y-105673015D01*
X119266007Y-105673016D01*
X119373497Y-105694397D01*
X119373500Y-105694397D01*
X119373503Y-105694397D01*
X119480992Y-105673016D01*
X119480992Y-105673015D01*
X119480995Y-105673015D01*
X119572124Y-105612124D01*
X119632758Y-105521378D01*
X119663940Y-105500544D01*
X119700723Y-105507860D01*
X119714242Y-105521379D01*
X119774875Y-105612124D01*
X119835491Y-105652626D01*
X119866005Y-105673015D01*
X119866007Y-105673016D01*
X119973497Y-105694397D01*
X119973500Y-105694397D01*
X119973503Y-105694397D01*
X120080992Y-105673016D01*
X120080992Y-105673015D01*
X120080995Y-105673015D01*
X120172124Y-105612124D01*
X120232758Y-105521378D01*
X120263940Y-105500544D01*
X120300723Y-105507860D01*
X120314242Y-105521379D01*
X120374875Y-105612124D01*
X120435491Y-105652626D01*
X120466005Y-105673015D01*
X120466007Y-105673016D01*
X120573497Y-105694397D01*
X120573500Y-105694397D01*
X120573503Y-105694397D01*
X120680992Y-105673016D01*
X120680992Y-105673015D01*
X120680995Y-105673015D01*
X120772124Y-105612124D01*
X120786909Y-105589997D01*
X130609103Y-105589997D01*
X130609103Y-105590002D01*
X130630483Y-105697492D01*
X130691375Y-105788624D01*
X130751991Y-105829126D01*
X130782505Y-105849515D01*
X130782507Y-105849516D01*
X130889997Y-105870897D01*
X130890000Y-105870897D01*
X130890003Y-105870897D01*
X130997492Y-105849516D01*
X130997492Y-105849515D01*
X130997495Y-105849515D01*
X131088624Y-105788624D01*
X131088625Y-105788623D01*
X131099258Y-105772710D01*
X131130440Y-105751874D01*
X131167222Y-105759190D01*
X131180742Y-105772710D01*
X131191374Y-105788623D01*
X131236940Y-105819069D01*
X131282505Y-105849515D01*
X131282507Y-105849516D01*
X131389997Y-105870897D01*
X131390000Y-105870897D01*
X131390003Y-105870897D01*
X131497492Y-105849516D01*
X131497492Y-105849515D01*
X131497495Y-105849515D01*
X131588624Y-105788624D01*
X131588625Y-105788623D01*
X131599258Y-105772710D01*
X131630440Y-105751874D01*
X131667222Y-105759190D01*
X131680742Y-105772710D01*
X131691374Y-105788623D01*
X131736940Y-105819069D01*
X131782505Y-105849515D01*
X131782507Y-105849516D01*
X131889997Y-105870897D01*
X131890000Y-105870897D01*
X131890003Y-105870897D01*
X131997492Y-105849516D01*
X131997492Y-105849515D01*
X131997495Y-105849515D01*
X132088624Y-105788624D01*
X132088625Y-105788623D01*
X132099258Y-105772710D01*
X132130440Y-105751874D01*
X132167222Y-105759190D01*
X132180742Y-105772710D01*
X132191374Y-105788623D01*
X132236940Y-105819069D01*
X132282505Y-105849515D01*
X132282507Y-105849516D01*
X132389997Y-105870897D01*
X132390000Y-105870897D01*
X132390003Y-105870897D01*
X132497492Y-105849516D01*
X132497492Y-105849515D01*
X132497495Y-105849515D01*
X132588624Y-105788624D01*
X132588625Y-105788623D01*
X132599258Y-105772710D01*
X132630440Y-105751874D01*
X132667222Y-105759190D01*
X132680742Y-105772710D01*
X132691374Y-105788623D01*
X132736940Y-105819069D01*
X132782505Y-105849515D01*
X132782507Y-105849516D01*
X132889997Y-105870897D01*
X132890000Y-105870897D01*
X132890003Y-105870897D01*
X132997492Y-105849516D01*
X132997492Y-105849515D01*
X132997495Y-105849515D01*
X133088624Y-105788624D01*
X133088625Y-105788623D01*
X133099258Y-105772710D01*
X133130440Y-105751874D01*
X133167222Y-105759190D01*
X133180742Y-105772710D01*
X133191374Y-105788623D01*
X133236940Y-105819069D01*
X133282505Y-105849515D01*
X133282507Y-105849516D01*
X133389997Y-105870897D01*
X133390000Y-105870897D01*
X133390003Y-105870897D01*
X133497492Y-105849516D01*
X133497492Y-105849515D01*
X133497495Y-105849515D01*
X133588624Y-105788624D01*
X133588625Y-105788623D01*
X133599258Y-105772710D01*
X133630440Y-105751874D01*
X133667222Y-105759190D01*
X133680742Y-105772710D01*
X133691374Y-105788623D01*
X133736940Y-105819069D01*
X133782505Y-105849515D01*
X133782507Y-105849516D01*
X133889997Y-105870897D01*
X133890000Y-105870897D01*
X133890003Y-105870897D01*
X133997492Y-105849516D01*
X133997492Y-105849515D01*
X133997495Y-105849515D01*
X134088624Y-105788624D01*
X134149515Y-105697495D01*
X134150132Y-105694397D01*
X134170897Y-105590002D01*
X134170897Y-105589997D01*
X134149516Y-105482507D01*
X134088624Y-105391375D01*
X133997492Y-105330483D01*
X133890003Y-105309103D01*
X133889997Y-105309103D01*
X133782507Y-105330483D01*
X133691375Y-105391375D01*
X133680742Y-105407290D01*
X133649559Y-105428126D01*
X133612777Y-105420809D01*
X133599258Y-105407290D01*
X133588624Y-105391375D01*
X133497492Y-105330483D01*
X133390003Y-105309103D01*
X133389997Y-105309103D01*
X133282507Y-105330483D01*
X133191375Y-105391375D01*
X133180742Y-105407290D01*
X133149559Y-105428126D01*
X133112777Y-105420809D01*
X133099258Y-105407290D01*
X133088624Y-105391375D01*
X132997492Y-105330483D01*
X132890003Y-105309103D01*
X132889997Y-105309103D01*
X132782507Y-105330483D01*
X132691375Y-105391375D01*
X132680742Y-105407290D01*
X132649559Y-105428126D01*
X132612777Y-105420809D01*
X132599258Y-105407290D01*
X132588624Y-105391375D01*
X132497492Y-105330483D01*
X132390003Y-105309103D01*
X132389997Y-105309103D01*
X132282507Y-105330483D01*
X132191375Y-105391375D01*
X132180742Y-105407290D01*
X132149559Y-105428126D01*
X132112777Y-105420809D01*
X132099258Y-105407290D01*
X132088624Y-105391375D01*
X131997492Y-105330483D01*
X131890003Y-105309103D01*
X131889997Y-105309103D01*
X131782507Y-105330483D01*
X131691375Y-105391375D01*
X131680742Y-105407290D01*
X131649559Y-105428126D01*
X131612777Y-105420809D01*
X131599258Y-105407290D01*
X131588624Y-105391375D01*
X131497492Y-105330483D01*
X131390003Y-105309103D01*
X131389997Y-105309103D01*
X131282507Y-105330483D01*
X131191375Y-105391375D01*
X131180742Y-105407290D01*
X131149559Y-105428126D01*
X131112777Y-105420809D01*
X131099258Y-105407290D01*
X131088624Y-105391375D01*
X130997492Y-105330483D01*
X130890003Y-105309103D01*
X130889997Y-105309103D01*
X130782507Y-105330483D01*
X130691375Y-105391375D01*
X130630483Y-105482507D01*
X130609103Y-105589997D01*
X120786909Y-105589997D01*
X120833015Y-105520995D01*
X120840672Y-105482505D01*
X120854397Y-105413502D01*
X120854397Y-105413497D01*
X120833016Y-105306007D01*
X120832757Y-105305620D01*
X120804202Y-105262884D01*
X120772124Y-105214875D01*
X120708087Y-105172088D01*
X120681378Y-105154241D01*
X120660544Y-105123060D01*
X120667860Y-105086277D01*
X120681377Y-105072759D01*
X120772124Y-105012124D01*
X120833015Y-104920995D01*
X120847234Y-104849515D01*
X120854397Y-104813502D01*
X120854397Y-104813497D01*
X120833016Y-104706007D01*
X120832757Y-104705620D01*
X120812626Y-104675491D01*
X120772124Y-104614875D01*
X120734895Y-104590000D01*
X121074540Y-104590000D01*
X121094326Y-104778256D01*
X121152821Y-104958284D01*
X121247467Y-105122216D01*
X121247470Y-105122219D01*
X121374124Y-105262884D01*
X121374127Y-105262886D01*
X121374129Y-105262888D01*
X121527270Y-105374151D01*
X121700197Y-105451144D01*
X121885354Y-105490500D01*
X122074646Y-105490500D01*
X122259803Y-105451144D01*
X122432730Y-105374151D01*
X122585871Y-105262888D01*
X122712533Y-105122216D01*
X122807179Y-104958284D01*
X122865674Y-104778256D01*
X122885460Y-104590000D01*
X122885460Y-104589997D01*
X131109103Y-104589997D01*
X131109103Y-104590002D01*
X131130483Y-104697492D01*
X131191375Y-104788624D01*
X131228605Y-104813500D01*
X131282505Y-104849515D01*
X131282507Y-104849516D01*
X131389997Y-104870897D01*
X131390000Y-104870897D01*
X131390003Y-104870897D01*
X131497492Y-104849516D01*
X131497492Y-104849515D01*
X131497495Y-104849515D01*
X131588624Y-104788624D01*
X131595552Y-104778256D01*
X131599258Y-104772710D01*
X131630440Y-104751874D01*
X131667222Y-104759190D01*
X131680742Y-104772710D01*
X131691374Y-104788623D01*
X131728601Y-104813497D01*
X131782505Y-104849515D01*
X131782507Y-104849516D01*
X131889997Y-104870897D01*
X131890000Y-104870897D01*
X131890003Y-104870897D01*
X131997492Y-104849516D01*
X131997492Y-104849515D01*
X131997495Y-104849515D01*
X132088624Y-104788624D01*
X132095552Y-104778256D01*
X132099258Y-104772710D01*
X132130440Y-104751874D01*
X132167222Y-104759190D01*
X132180742Y-104772710D01*
X132191374Y-104788623D01*
X132228601Y-104813497D01*
X132282505Y-104849515D01*
X132282507Y-104849516D01*
X132389997Y-104870897D01*
X132390000Y-104870897D01*
X132390003Y-104870897D01*
X132497492Y-104849516D01*
X132497492Y-104849515D01*
X132497495Y-104849515D01*
X132588624Y-104788624D01*
X132595552Y-104778256D01*
X132599258Y-104772710D01*
X132630440Y-104751874D01*
X132667222Y-104759190D01*
X132680742Y-104772710D01*
X132691374Y-104788623D01*
X132728601Y-104813497D01*
X132782505Y-104849515D01*
X132782507Y-104849516D01*
X132889997Y-104870897D01*
X132890000Y-104870897D01*
X132890003Y-104870897D01*
X132997492Y-104849516D01*
X132997492Y-104849515D01*
X132997495Y-104849515D01*
X133088624Y-104788624D01*
X133095552Y-104778256D01*
X133099258Y-104772710D01*
X133130440Y-104751874D01*
X133167222Y-104759190D01*
X133180742Y-104772710D01*
X133191374Y-104788623D01*
X133228601Y-104813497D01*
X133282505Y-104849515D01*
X133282507Y-104849516D01*
X133389997Y-104870897D01*
X133390000Y-104870897D01*
X133390003Y-104870897D01*
X133497492Y-104849516D01*
X133497492Y-104849515D01*
X133497495Y-104849515D01*
X133588624Y-104788624D01*
X133595552Y-104778256D01*
X133599258Y-104772710D01*
X133630440Y-104751874D01*
X133667222Y-104759190D01*
X133680742Y-104772710D01*
X133691374Y-104788623D01*
X133728601Y-104813497D01*
X133782505Y-104849515D01*
X133782507Y-104849516D01*
X133889997Y-104870897D01*
X133890000Y-104870897D01*
X133890003Y-104870897D01*
X133997492Y-104849516D01*
X133997492Y-104849515D01*
X133997495Y-104849515D01*
X134088624Y-104788624D01*
X134149515Y-104697495D01*
X134170897Y-104590000D01*
X134170897Y-104589997D01*
X134149516Y-104482507D01*
X134088624Y-104391375D01*
X133997492Y-104330483D01*
X133890003Y-104309103D01*
X133889997Y-104309103D01*
X133782507Y-104330483D01*
X133691375Y-104391375D01*
X133680742Y-104407290D01*
X133649559Y-104428126D01*
X133612777Y-104420809D01*
X133599258Y-104407290D01*
X133588624Y-104391375D01*
X133497492Y-104330483D01*
X133390003Y-104309103D01*
X133389997Y-104309103D01*
X133282507Y-104330483D01*
X133191375Y-104391375D01*
X133180742Y-104407290D01*
X133149559Y-104428126D01*
X133112777Y-104420809D01*
X133099258Y-104407290D01*
X133088624Y-104391375D01*
X132997492Y-104330483D01*
X132890003Y-104309103D01*
X132889997Y-104309103D01*
X132782507Y-104330483D01*
X132691375Y-104391375D01*
X132680742Y-104407290D01*
X132649559Y-104428126D01*
X132612777Y-104420809D01*
X132599258Y-104407290D01*
X132588624Y-104391375D01*
X132497492Y-104330483D01*
X132390003Y-104309103D01*
X132389997Y-104309103D01*
X132282507Y-104330483D01*
X132191375Y-104391375D01*
X132180742Y-104407290D01*
X132149559Y-104428126D01*
X132112777Y-104420809D01*
X132099258Y-104407290D01*
X132088624Y-104391375D01*
X131997492Y-104330483D01*
X131890003Y-104309103D01*
X131889997Y-104309103D01*
X131782507Y-104330483D01*
X131691375Y-104391375D01*
X131680742Y-104407290D01*
X131649559Y-104428126D01*
X131612777Y-104420809D01*
X131599258Y-104407290D01*
X131588624Y-104391375D01*
X131497492Y-104330483D01*
X131390003Y-104309103D01*
X131389997Y-104309103D01*
X131282507Y-104330483D01*
X131191375Y-104391375D01*
X131130483Y-104482507D01*
X131109103Y-104589997D01*
X122885460Y-104589997D01*
X122865674Y-104401744D01*
X122807179Y-104221716D01*
X122712533Y-104057784D01*
X122673898Y-104014876D01*
X122585875Y-103917115D01*
X122585872Y-103917113D01*
X122567743Y-103903941D01*
X122432730Y-103805849D01*
X122259803Y-103728856D01*
X122259800Y-103728855D01*
X122259796Y-103728854D01*
X122074646Y-103689500D01*
X121885354Y-103689500D01*
X121700203Y-103728854D01*
X121700194Y-103728857D01*
X121527268Y-103805850D01*
X121374127Y-103917113D01*
X121374124Y-103917115D01*
X121247470Y-104057780D01*
X121247464Y-104057788D01*
X121152823Y-104221712D01*
X121152821Y-104221715D01*
X121094326Y-104401743D01*
X121079719Y-104540723D01*
X121074540Y-104590000D01*
X120734895Y-104590000D01*
X120708087Y-104572088D01*
X120681378Y-104554241D01*
X120660544Y-104523060D01*
X120667860Y-104486277D01*
X120681377Y-104472759D01*
X120772124Y-104412124D01*
X120833015Y-104320995D01*
X120835381Y-104309103D01*
X120854397Y-104213502D01*
X120854397Y-104213497D01*
X120833016Y-104106007D01*
X120832757Y-104105620D01*
X120800797Y-104057788D01*
X120772124Y-104014875D01*
X120708087Y-103972088D01*
X120681378Y-103954241D01*
X120660544Y-103923060D01*
X120667860Y-103886277D01*
X120681377Y-103872759D01*
X120772124Y-103812124D01*
X120833015Y-103720995D01*
X120837690Y-103697495D01*
X120854397Y-103613502D01*
X120854397Y-103613497D01*
X120849723Y-103589997D01*
X130609103Y-103589997D01*
X130609103Y-103590002D01*
X130630483Y-103697492D01*
X130691375Y-103788624D01*
X130751991Y-103829126D01*
X130782505Y-103849515D01*
X130782507Y-103849516D01*
X130889997Y-103870897D01*
X130890000Y-103870897D01*
X130890003Y-103870897D01*
X130997492Y-103849516D01*
X130997492Y-103849515D01*
X130997495Y-103849515D01*
X131088624Y-103788624D01*
X131088625Y-103788623D01*
X131099258Y-103772710D01*
X131130440Y-103751874D01*
X131167222Y-103759190D01*
X131180742Y-103772710D01*
X131191374Y-103788623D01*
X131217155Y-103805849D01*
X131282505Y-103849515D01*
X131282507Y-103849516D01*
X131389997Y-103870897D01*
X131390000Y-103870897D01*
X131390003Y-103870897D01*
X131497492Y-103849516D01*
X131497492Y-103849515D01*
X131497495Y-103849515D01*
X131588624Y-103788624D01*
X131588625Y-103788623D01*
X131599258Y-103772710D01*
X131630440Y-103751874D01*
X131667222Y-103759190D01*
X131680742Y-103772710D01*
X131691374Y-103788623D01*
X131717155Y-103805849D01*
X131782505Y-103849515D01*
X131782507Y-103849516D01*
X131889997Y-103870897D01*
X131890000Y-103870897D01*
X131890003Y-103870897D01*
X131997492Y-103849516D01*
X131997492Y-103849515D01*
X131997495Y-103849515D01*
X132088624Y-103788624D01*
X132088625Y-103788623D01*
X132099258Y-103772710D01*
X132130440Y-103751874D01*
X132167222Y-103759190D01*
X132180742Y-103772710D01*
X132191374Y-103788623D01*
X132217155Y-103805849D01*
X132282505Y-103849515D01*
X132282507Y-103849516D01*
X132389997Y-103870897D01*
X132390000Y-103870897D01*
X132390003Y-103870897D01*
X132497492Y-103849516D01*
X132497492Y-103849515D01*
X132497495Y-103849515D01*
X132588624Y-103788624D01*
X132588625Y-103788623D01*
X132599258Y-103772710D01*
X132630440Y-103751874D01*
X132667222Y-103759190D01*
X132680742Y-103772710D01*
X132691374Y-103788623D01*
X132717155Y-103805849D01*
X132782505Y-103849515D01*
X132782507Y-103849516D01*
X132889997Y-103870897D01*
X132890000Y-103870897D01*
X132890003Y-103870897D01*
X132997492Y-103849516D01*
X132997492Y-103849515D01*
X132997495Y-103849515D01*
X133088624Y-103788624D01*
X133088625Y-103788623D01*
X133099258Y-103772710D01*
X133130440Y-103751874D01*
X133167222Y-103759190D01*
X133180742Y-103772710D01*
X133191374Y-103788623D01*
X133217155Y-103805849D01*
X133282505Y-103849515D01*
X133282507Y-103849516D01*
X133389997Y-103870897D01*
X133390000Y-103870897D01*
X133390003Y-103870897D01*
X133497492Y-103849516D01*
X133497492Y-103849515D01*
X133497495Y-103849515D01*
X133588624Y-103788624D01*
X133588625Y-103788623D01*
X133599258Y-103772710D01*
X133630440Y-103751874D01*
X133667222Y-103759190D01*
X133680742Y-103772710D01*
X133691374Y-103788623D01*
X133717155Y-103805849D01*
X133782505Y-103849515D01*
X133782507Y-103849516D01*
X133889997Y-103870897D01*
X133890000Y-103870897D01*
X133890003Y-103870897D01*
X133997492Y-103849516D01*
X133997492Y-103849515D01*
X133997495Y-103849515D01*
X134088624Y-103788624D01*
X134149515Y-103697495D01*
X134151106Y-103689500D01*
X134170897Y-103590002D01*
X134170897Y-103589997D01*
X134149516Y-103482507D01*
X134088624Y-103391375D01*
X133997492Y-103330483D01*
X133890003Y-103309103D01*
X133889997Y-103309103D01*
X133782507Y-103330483D01*
X133691375Y-103391375D01*
X133680742Y-103407290D01*
X133649559Y-103428126D01*
X133612777Y-103420809D01*
X133599258Y-103407290D01*
X133588624Y-103391375D01*
X133497492Y-103330483D01*
X133390003Y-103309103D01*
X133389997Y-103309103D01*
X133282507Y-103330483D01*
X133191375Y-103391375D01*
X133180742Y-103407290D01*
X133149559Y-103428126D01*
X133112777Y-103420809D01*
X133099258Y-103407290D01*
X133088624Y-103391375D01*
X132997492Y-103330483D01*
X132890003Y-103309103D01*
X132889997Y-103309103D01*
X132782507Y-103330483D01*
X132691375Y-103391375D01*
X132680742Y-103407290D01*
X132649559Y-103428126D01*
X132612777Y-103420809D01*
X132599258Y-103407290D01*
X132588624Y-103391375D01*
X132497492Y-103330483D01*
X132390003Y-103309103D01*
X132389997Y-103309103D01*
X132282507Y-103330483D01*
X132191375Y-103391375D01*
X132180742Y-103407290D01*
X132149559Y-103428126D01*
X132112777Y-103420809D01*
X132099258Y-103407290D01*
X132088624Y-103391375D01*
X131997492Y-103330483D01*
X131890003Y-103309103D01*
X131889997Y-103309103D01*
X131782507Y-103330483D01*
X131691375Y-103391375D01*
X131680742Y-103407290D01*
X131649559Y-103428126D01*
X131612777Y-103420809D01*
X131599258Y-103407290D01*
X131588624Y-103391375D01*
X131497492Y-103330483D01*
X131390003Y-103309103D01*
X131389997Y-103309103D01*
X131282507Y-103330483D01*
X131191375Y-103391375D01*
X131180742Y-103407290D01*
X131149559Y-103428126D01*
X131112777Y-103420809D01*
X131099258Y-103407290D01*
X131088624Y-103391375D01*
X130997492Y-103330483D01*
X130890003Y-103309103D01*
X130889997Y-103309103D01*
X130782507Y-103330483D01*
X130691375Y-103391375D01*
X130630483Y-103482507D01*
X130609103Y-103589997D01*
X120849723Y-103589997D01*
X120833016Y-103506007D01*
X120832757Y-103505620D01*
X120807797Y-103468264D01*
X120772124Y-103414875D01*
X120708087Y-103372088D01*
X120681378Y-103354241D01*
X120660544Y-103323060D01*
X120667860Y-103286277D01*
X120681377Y-103272759D01*
X120772124Y-103212124D01*
X120833015Y-103120995D01*
X120854397Y-103013500D01*
X120854397Y-103013497D01*
X120833016Y-102906007D01*
X120832757Y-102905620D01*
X120772124Y-102814876D01*
X120772123Y-102814874D01*
X120756210Y-102804242D01*
X120735374Y-102773060D01*
X120742690Y-102736278D01*
X120756210Y-102722758D01*
X120772123Y-102712125D01*
X120772384Y-102711735D01*
X120833015Y-102620995D01*
X120839181Y-102590000D01*
X120839182Y-102589997D01*
X130609103Y-102589997D01*
X130609103Y-102590002D01*
X130630483Y-102697492D01*
X130691375Y-102788624D01*
X130751991Y-102829126D01*
X130782505Y-102849515D01*
X130782507Y-102849516D01*
X130889997Y-102870897D01*
X130890000Y-102870897D01*
X130890003Y-102870897D01*
X130997492Y-102849516D01*
X130997492Y-102849515D01*
X130997495Y-102849515D01*
X131088624Y-102788624D01*
X131099024Y-102773060D01*
X131099258Y-102772710D01*
X131130440Y-102751874D01*
X131167222Y-102759190D01*
X131180742Y-102772710D01*
X131191374Y-102788623D01*
X131236940Y-102819069D01*
X131282505Y-102849515D01*
X131282507Y-102849516D01*
X131389997Y-102870897D01*
X131390000Y-102870897D01*
X131390003Y-102870897D01*
X131497492Y-102849516D01*
X131497492Y-102849515D01*
X131497495Y-102849515D01*
X131588624Y-102788624D01*
X131599024Y-102773060D01*
X131599258Y-102772710D01*
X131630440Y-102751874D01*
X131667222Y-102759190D01*
X131680742Y-102772710D01*
X131691374Y-102788623D01*
X131736940Y-102819069D01*
X131782505Y-102849515D01*
X131782507Y-102849516D01*
X131889997Y-102870897D01*
X131890000Y-102870897D01*
X131890003Y-102870897D01*
X131997492Y-102849516D01*
X131997492Y-102849515D01*
X131997495Y-102849515D01*
X132088624Y-102788624D01*
X132099024Y-102773060D01*
X132099258Y-102772710D01*
X132130440Y-102751874D01*
X132167222Y-102759190D01*
X132180742Y-102772710D01*
X132191374Y-102788623D01*
X132236940Y-102819069D01*
X132282505Y-102849515D01*
X132282507Y-102849516D01*
X132389997Y-102870897D01*
X132390000Y-102870897D01*
X132390003Y-102870897D01*
X132497492Y-102849516D01*
X132497492Y-102849515D01*
X132497495Y-102849515D01*
X132588624Y-102788624D01*
X132599024Y-102773060D01*
X132599258Y-102772710D01*
X132630440Y-102751874D01*
X132667222Y-102759190D01*
X132680742Y-102772710D01*
X132691374Y-102788623D01*
X132736940Y-102819069D01*
X132782505Y-102849515D01*
X132782507Y-102849516D01*
X132889997Y-102870897D01*
X132890000Y-102870897D01*
X132890003Y-102870897D01*
X132997492Y-102849516D01*
X132997492Y-102849515D01*
X132997495Y-102849515D01*
X133088624Y-102788624D01*
X133099024Y-102773060D01*
X133099258Y-102772710D01*
X133130440Y-102751874D01*
X133167222Y-102759190D01*
X133180742Y-102772710D01*
X133191374Y-102788623D01*
X133236940Y-102819069D01*
X133282505Y-102849515D01*
X133282507Y-102849516D01*
X133389997Y-102870897D01*
X133390000Y-102870897D01*
X133390003Y-102870897D01*
X133497492Y-102849516D01*
X133497492Y-102849515D01*
X133497495Y-102849515D01*
X133588624Y-102788624D01*
X133599024Y-102773060D01*
X133599258Y-102772710D01*
X133630440Y-102751874D01*
X133667222Y-102759190D01*
X133680742Y-102772710D01*
X133691374Y-102788623D01*
X133736940Y-102819069D01*
X133782505Y-102849515D01*
X133782507Y-102849516D01*
X133889997Y-102870897D01*
X133890000Y-102870897D01*
X133890003Y-102870897D01*
X133997492Y-102849516D01*
X133997492Y-102849515D01*
X133997495Y-102849515D01*
X134088624Y-102788624D01*
X134149515Y-102697495D01*
X134164656Y-102621379D01*
X134170897Y-102590002D01*
X134170897Y-102589997D01*
X134149516Y-102482507D01*
X134088624Y-102391375D01*
X133997492Y-102330483D01*
X133890003Y-102309103D01*
X133889997Y-102309103D01*
X133782507Y-102330483D01*
X133691375Y-102391375D01*
X133680742Y-102407290D01*
X133649559Y-102428126D01*
X133612777Y-102420809D01*
X133599258Y-102407290D01*
X133588624Y-102391375D01*
X133497492Y-102330483D01*
X133390003Y-102309103D01*
X133389997Y-102309103D01*
X133282507Y-102330483D01*
X133191375Y-102391375D01*
X133180742Y-102407290D01*
X133149559Y-102428126D01*
X133112777Y-102420809D01*
X133099258Y-102407290D01*
X133088624Y-102391375D01*
X132997492Y-102330483D01*
X132890003Y-102309103D01*
X132889997Y-102309103D01*
X132782507Y-102330483D01*
X132691375Y-102391375D01*
X132680742Y-102407290D01*
X132649559Y-102428126D01*
X132612777Y-102420809D01*
X132599258Y-102407290D01*
X132588624Y-102391375D01*
X132497492Y-102330483D01*
X132390003Y-102309103D01*
X132389997Y-102309103D01*
X132282507Y-102330483D01*
X132191375Y-102391375D01*
X132180742Y-102407290D01*
X132149559Y-102428126D01*
X132112777Y-102420809D01*
X132099258Y-102407290D01*
X132088624Y-102391375D01*
X131997492Y-102330483D01*
X131890003Y-102309103D01*
X131889997Y-102309103D01*
X131782507Y-102330483D01*
X131691375Y-102391375D01*
X131680742Y-102407290D01*
X131649559Y-102428126D01*
X131612777Y-102420809D01*
X131599258Y-102407290D01*
X131588624Y-102391375D01*
X131497492Y-102330483D01*
X131390003Y-102309103D01*
X131389997Y-102309103D01*
X131282507Y-102330483D01*
X131191375Y-102391375D01*
X131180742Y-102407290D01*
X131149559Y-102428126D01*
X131112777Y-102420809D01*
X131099258Y-102407290D01*
X131088624Y-102391375D01*
X130997492Y-102330483D01*
X130890003Y-102309103D01*
X130889997Y-102309103D01*
X130782507Y-102330483D01*
X130691375Y-102391375D01*
X130630483Y-102482507D01*
X130609103Y-102589997D01*
X120839182Y-102589997D01*
X120854397Y-102513502D01*
X120854397Y-102513497D01*
X120833016Y-102406007D01*
X120832757Y-102405620D01*
X120782554Y-102330485D01*
X120772124Y-102314875D01*
X120708087Y-102272088D01*
X120681378Y-102254241D01*
X120660544Y-102223060D01*
X120667860Y-102186277D01*
X120681377Y-102172759D01*
X120772124Y-102112124D01*
X120833015Y-102020995D01*
X120854397Y-101913500D01*
X120854397Y-101913497D01*
X120833016Y-101806007D01*
X120832757Y-101805620D01*
X120812626Y-101775491D01*
X120772124Y-101714875D01*
X120708087Y-101672088D01*
X120681378Y-101654241D01*
X120660544Y-101623060D01*
X120667860Y-101586277D01*
X120681377Y-101572759D01*
X120772124Y-101512124D01*
X120833015Y-101420995D01*
X120854397Y-101313500D01*
X120854397Y-101313497D01*
X120833016Y-101206007D01*
X120832757Y-101205620D01*
X120812626Y-101175491D01*
X120772124Y-101114875D01*
X120708087Y-101072088D01*
X120681378Y-101054241D01*
X120660544Y-101023060D01*
X120667860Y-100986277D01*
X120681377Y-100972759D01*
X120772124Y-100912124D01*
X120833015Y-100820995D01*
X120854397Y-100713500D01*
X120854397Y-100713497D01*
X120833016Y-100606007D01*
X120832757Y-100605620D01*
X120812626Y-100575491D01*
X120772124Y-100514875D01*
X120708087Y-100472088D01*
X120681378Y-100454241D01*
X120660544Y-100423060D01*
X120667860Y-100386277D01*
X120681377Y-100372759D01*
X120772124Y-100312124D01*
X120833015Y-100220995D01*
X120854397Y-100113500D01*
X120854397Y-100113497D01*
X120833016Y-100006007D01*
X120832757Y-100005620D01*
X120812626Y-99975491D01*
X120772124Y-99914875D01*
X120680992Y-99853983D01*
X120573503Y-99832603D01*
X120573497Y-99832603D01*
X120466007Y-99853983D01*
X120374875Y-99914875D01*
X120314242Y-100005620D01*
X120283059Y-100026456D01*
X120246277Y-100019139D01*
X120232758Y-100005620D01*
X120172124Y-99914875D01*
X120108087Y-99872088D01*
X120081378Y-99854241D01*
X120060544Y-99823060D01*
X120067860Y-99786277D01*
X120081377Y-99772759D01*
X120172124Y-99712124D01*
X120233015Y-99620995D01*
X120254397Y-99513500D01*
X120254397Y-99513497D01*
X120233016Y-99406007D01*
X120232757Y-99405620D01*
X120212626Y-99375491D01*
X120172124Y-99314875D01*
X120080992Y-99253983D01*
X119973503Y-99232603D01*
X119973497Y-99232603D01*
X119866007Y-99253983D01*
X119774875Y-99314875D01*
X119714242Y-99405620D01*
X119683059Y-99426456D01*
X119646277Y-99419139D01*
X119632758Y-99405620D01*
X119572124Y-99314875D01*
X119480992Y-99253983D01*
X119373503Y-99232603D01*
X119373497Y-99232603D01*
X119266007Y-99253983D01*
X119174875Y-99314875D01*
X119114242Y-99405620D01*
X119083059Y-99426456D01*
X119046277Y-99419139D01*
X119032758Y-99405620D01*
X118972124Y-99314875D01*
X118880992Y-99253983D01*
X118773503Y-99232603D01*
X118773497Y-99232603D01*
X118666007Y-99253983D01*
X118574875Y-99314875D01*
X118514242Y-99405620D01*
X118483059Y-99426456D01*
X118446277Y-99419139D01*
X118432758Y-99405620D01*
X118372124Y-99314875D01*
X118280992Y-99253983D01*
X118173503Y-99232603D01*
X118173497Y-99232603D01*
X118066007Y-99253983D01*
X117974875Y-99314875D01*
X117913983Y-99406007D01*
X117892603Y-99513497D01*
X114880500Y-99513497D01*
X114880500Y-96169997D01*
X188509103Y-96169997D01*
X188509103Y-96170002D01*
X188530483Y-96277492D01*
X188591375Y-96368624D01*
X188651991Y-96409126D01*
X188682505Y-96429515D01*
X188682507Y-96429516D01*
X188789997Y-96450897D01*
X188790000Y-96450897D01*
X188790003Y-96450897D01*
X188897492Y-96429516D01*
X188897492Y-96429515D01*
X188897495Y-96429515D01*
X188988624Y-96368624D01*
X189049515Y-96277495D01*
X189070897Y-96170000D01*
X189070897Y-96169997D01*
X189049516Y-96062507D01*
X188988624Y-95971375D01*
X188897492Y-95910483D01*
X188790003Y-95889103D01*
X188789997Y-95889103D01*
X188682507Y-95910483D01*
X188591375Y-95971375D01*
X188530483Y-96062507D01*
X188509103Y-96169997D01*
X114880500Y-96169997D01*
X114880500Y-94179997D01*
X188499103Y-94179997D01*
X188499103Y-94180002D01*
X188520483Y-94287492D01*
X188581375Y-94378624D01*
X188641991Y-94419126D01*
X188672505Y-94439515D01*
X188672507Y-94439516D01*
X188779997Y-94460897D01*
X188780000Y-94460897D01*
X188780003Y-94460897D01*
X188887492Y-94439516D01*
X188887492Y-94439515D01*
X188887495Y-94439515D01*
X188978624Y-94378624D01*
X189039515Y-94287495D01*
X189060897Y-94180000D01*
X189060897Y-94179997D01*
X189039516Y-94072507D01*
X188978624Y-93981375D01*
X188887492Y-93920483D01*
X188780003Y-93899103D01*
X188779997Y-93899103D01*
X188672507Y-93920483D01*
X188581375Y-93981375D01*
X188520483Y-94072507D01*
X188499103Y-94179997D01*
X114880500Y-94179997D01*
X114880500Y-93169997D01*
X188509103Y-93169997D01*
X188509103Y-93170002D01*
X188530483Y-93277492D01*
X188591375Y-93368624D01*
X188651991Y-93409126D01*
X188682505Y-93429515D01*
X188682507Y-93429516D01*
X188789997Y-93450897D01*
X188790000Y-93450897D01*
X188790003Y-93450897D01*
X188897492Y-93429516D01*
X188897492Y-93429515D01*
X188897495Y-93429515D01*
X188988624Y-93368624D01*
X189049515Y-93277495D01*
X189070897Y-93170000D01*
X189070897Y-93169997D01*
X189049516Y-93062507D01*
X188988624Y-92971375D01*
X188897492Y-92910483D01*
X188790003Y-92889103D01*
X188789997Y-92889103D01*
X188682507Y-92910483D01*
X188591375Y-92971375D01*
X188530483Y-93062507D01*
X188509103Y-93169997D01*
X114880500Y-93169997D01*
X114880500Y-92189997D01*
X188499103Y-92189997D01*
X188499103Y-92190002D01*
X188520483Y-92297492D01*
X188581375Y-92388624D01*
X188641991Y-92429126D01*
X188672505Y-92449515D01*
X188672507Y-92449516D01*
X188779997Y-92470897D01*
X188780000Y-92470897D01*
X188780003Y-92470897D01*
X188887492Y-92449516D01*
X188887492Y-92449515D01*
X188887495Y-92449515D01*
X188978624Y-92388624D01*
X189039515Y-92297495D01*
X189060897Y-92190000D01*
X189060897Y-92189997D01*
X189039516Y-92082507D01*
X188978624Y-91991375D01*
X188887492Y-91930483D01*
X188780003Y-91909103D01*
X188779997Y-91909103D01*
X188672507Y-91930483D01*
X188581375Y-91991375D01*
X188520483Y-92082507D01*
X188499103Y-92189997D01*
X114880500Y-92189997D01*
X114880500Y-91179997D01*
X188469103Y-91179997D01*
X188469103Y-91180002D01*
X188490483Y-91287492D01*
X188551375Y-91378624D01*
X188611991Y-91419126D01*
X188642505Y-91439515D01*
X188642507Y-91439516D01*
X188749997Y-91460897D01*
X188750000Y-91460897D01*
X188750003Y-91460897D01*
X188857492Y-91439516D01*
X188857492Y-91439515D01*
X188857495Y-91439515D01*
X188948624Y-91378624D01*
X189009515Y-91287495D01*
X189030897Y-91180000D01*
X189030897Y-91179997D01*
X189009516Y-91072507D01*
X188948624Y-90981375D01*
X188857492Y-90920483D01*
X188750003Y-90899103D01*
X188749997Y-90899103D01*
X188642507Y-90920483D01*
X188551375Y-90981375D01*
X188490483Y-91072507D01*
X188469103Y-91179997D01*
X114880500Y-91179997D01*
X114880500Y-90179997D01*
X188409103Y-90179997D01*
X188409103Y-90180002D01*
X188430483Y-90287492D01*
X188491375Y-90378624D01*
X188551991Y-90419126D01*
X188582505Y-90439515D01*
X188582507Y-90439516D01*
X188689997Y-90460897D01*
X188690000Y-90460897D01*
X188690003Y-90460897D01*
X188797492Y-90439516D01*
X188797492Y-90439515D01*
X188797495Y-90439515D01*
X188888624Y-90378624D01*
X188949515Y-90287495D01*
X188970897Y-90180000D01*
X188970897Y-90179997D01*
X188949516Y-90072507D01*
X188888624Y-89981375D01*
X188797492Y-89920483D01*
X188690003Y-89899103D01*
X188689997Y-89899103D01*
X188582507Y-89920483D01*
X188491375Y-89981375D01*
X188430483Y-90072507D01*
X188409103Y-90179997D01*
X114880500Y-90179997D01*
X114880500Y-88859997D01*
X117454103Y-88859997D01*
X117454103Y-88860002D01*
X117475483Y-88967492D01*
X117536375Y-89058624D01*
X117596991Y-89099126D01*
X117627505Y-89119515D01*
X117627507Y-89119516D01*
X117734997Y-89140897D01*
X117735000Y-89140897D01*
X117735003Y-89140897D01*
X117842492Y-89119516D01*
X117842492Y-89119515D01*
X117842495Y-89119515D01*
X117933624Y-89058624D01*
X117994515Y-88967495D01*
X118015897Y-88860000D01*
X118015897Y-88859997D01*
X117994516Y-88752507D01*
X117933624Y-88661375D01*
X117842492Y-88600483D01*
X117735003Y-88579103D01*
X117734997Y-88579103D01*
X117627507Y-88600483D01*
X117536375Y-88661375D01*
X117475483Y-88752507D01*
X117454103Y-88859997D01*
X114880500Y-88859997D01*
X114880500Y-88179997D01*
X188439103Y-88179997D01*
X188439103Y-88180002D01*
X188460483Y-88287492D01*
X188521375Y-88378624D01*
X188581991Y-88419126D01*
X188612505Y-88439515D01*
X188612507Y-88439516D01*
X188719997Y-88460897D01*
X188720000Y-88460897D01*
X188720003Y-88460897D01*
X188827492Y-88439516D01*
X188827492Y-88439515D01*
X188827495Y-88439515D01*
X188918624Y-88378624D01*
X188979515Y-88287495D01*
X189000897Y-88180000D01*
X189000897Y-88179997D01*
X188979516Y-88072507D01*
X188918624Y-87981375D01*
X188827492Y-87920483D01*
X188720003Y-87899103D01*
X188719997Y-87899103D01*
X188612507Y-87920483D01*
X188521375Y-87981375D01*
X188460483Y-88072507D01*
X188439103Y-88179997D01*
X114880500Y-88179997D01*
X114880500Y-87179997D01*
X188439103Y-87179997D01*
X188439103Y-87180002D01*
X188460483Y-87287492D01*
X188521375Y-87378624D01*
X188581991Y-87419126D01*
X188612505Y-87439515D01*
X188612507Y-87439516D01*
X188719997Y-87460897D01*
X188720000Y-87460897D01*
X188720003Y-87460897D01*
X188827492Y-87439516D01*
X188827492Y-87439515D01*
X188827495Y-87439515D01*
X188918624Y-87378624D01*
X188979515Y-87287495D01*
X189000897Y-87180000D01*
X189000897Y-87179997D01*
X188979516Y-87072507D01*
X188918624Y-86981375D01*
X188827492Y-86920483D01*
X188720003Y-86899103D01*
X188719997Y-86899103D01*
X188612507Y-86920483D01*
X188521375Y-86981375D01*
X188460483Y-87072507D01*
X188439103Y-87179997D01*
X114880500Y-87179997D01*
X114880500Y-86179997D01*
X188449103Y-86179997D01*
X188449103Y-86180002D01*
X188470483Y-86287492D01*
X188531375Y-86378624D01*
X188591991Y-86419126D01*
X188622505Y-86439515D01*
X188622507Y-86439516D01*
X188729997Y-86460897D01*
X188730000Y-86460897D01*
X188730003Y-86460897D01*
X188837492Y-86439516D01*
X188837492Y-86439515D01*
X188837495Y-86439515D01*
X188928624Y-86378624D01*
X188989515Y-86287495D01*
X189010897Y-86180000D01*
X189010897Y-86179997D01*
X188989516Y-86072507D01*
X188928624Y-85981375D01*
X188837492Y-85920483D01*
X188730003Y-85899103D01*
X188729997Y-85899103D01*
X188622507Y-85920483D01*
X188531375Y-85981375D01*
X188470483Y-86072507D01*
X188449103Y-86179997D01*
X114880500Y-86179997D01*
X114880500Y-84999997D01*
X117444103Y-84999997D01*
X117444103Y-85000002D01*
X117465483Y-85107492D01*
X117526375Y-85198624D01*
X117586991Y-85239126D01*
X117617505Y-85259515D01*
X117617507Y-85259516D01*
X117724997Y-85280897D01*
X117725000Y-85280897D01*
X117725003Y-85280897D01*
X117832492Y-85259516D01*
X117832492Y-85259515D01*
X117832495Y-85259515D01*
X117923624Y-85198624D01*
X117942752Y-85169997D01*
X188409103Y-85169997D01*
X188409103Y-85170002D01*
X188430483Y-85277492D01*
X188491375Y-85368624D01*
X188551991Y-85409126D01*
X188582505Y-85429515D01*
X188582507Y-85429516D01*
X188689997Y-85450897D01*
X188690000Y-85450897D01*
X188690003Y-85450897D01*
X188797492Y-85429516D01*
X188797492Y-85429515D01*
X188797495Y-85429515D01*
X188888624Y-85368624D01*
X188949515Y-85277495D01*
X188953092Y-85259516D01*
X188970897Y-85170002D01*
X188970897Y-85169997D01*
X188949516Y-85062507D01*
X188888624Y-84971375D01*
X188797492Y-84910483D01*
X188690003Y-84889103D01*
X188689997Y-84889103D01*
X188582507Y-84910483D01*
X188491375Y-84971375D01*
X188430483Y-85062507D01*
X188409103Y-85169997D01*
X117942752Y-85169997D01*
X117984515Y-85107495D01*
X118005897Y-85000000D01*
X118005897Y-84999997D01*
X117984516Y-84892507D01*
X117923624Y-84801375D01*
X117832492Y-84740483D01*
X117725003Y-84719103D01*
X117724997Y-84719103D01*
X117617507Y-84740483D01*
X117526375Y-84801375D01*
X117465483Y-84892507D01*
X117444103Y-84999997D01*
X114880500Y-84999997D01*
X114880500Y-84149997D01*
X188419103Y-84149997D01*
X188419103Y-84150002D01*
X188440483Y-84257492D01*
X188501375Y-84348624D01*
X188561991Y-84389126D01*
X188592505Y-84409515D01*
X188592507Y-84409516D01*
X188699997Y-84430897D01*
X188700000Y-84430897D01*
X188700003Y-84430897D01*
X188807492Y-84409516D01*
X188807492Y-84409515D01*
X188807495Y-84409515D01*
X188898624Y-84348624D01*
X188959515Y-84257495D01*
X188980897Y-84150000D01*
X188980897Y-84149997D01*
X188959516Y-84042507D01*
X188898624Y-83951375D01*
X188807492Y-83890483D01*
X188700003Y-83869103D01*
X188699997Y-83869103D01*
X188592507Y-83890483D01*
X188501375Y-83951375D01*
X188440483Y-84042507D01*
X188419103Y-84149997D01*
X114880500Y-84149997D01*
X114880500Y-82179997D01*
X188389103Y-82179997D01*
X188389103Y-82180002D01*
X188410483Y-82287492D01*
X188471375Y-82378624D01*
X188531991Y-82419126D01*
X188562505Y-82439515D01*
X188562507Y-82439516D01*
X188669997Y-82460897D01*
X188670000Y-82460897D01*
X188670003Y-82460897D01*
X188777492Y-82439516D01*
X188777492Y-82439515D01*
X188777495Y-82439515D01*
X188868624Y-82378624D01*
X188929515Y-82287495D01*
X188950897Y-82180000D01*
X188950897Y-82179997D01*
X188929516Y-82072507D01*
X188868624Y-81981375D01*
X188777492Y-81920483D01*
X188670003Y-81899103D01*
X188669997Y-81899103D01*
X188562507Y-81920483D01*
X188471375Y-81981375D01*
X188410483Y-82072507D01*
X188389103Y-82179997D01*
X114880500Y-82179997D01*
X114880500Y-81658997D01*
X179800103Y-81658997D01*
X179800103Y-81659002D01*
X179821483Y-81766492D01*
X179882375Y-81857624D01*
X179942991Y-81898126D01*
X179973505Y-81918515D01*
X179973507Y-81918516D01*
X180080997Y-81939897D01*
X180081000Y-81939897D01*
X180081003Y-81939897D01*
X180188492Y-81918516D01*
X180188492Y-81918515D01*
X180188495Y-81918515D01*
X180279624Y-81857624D01*
X180340515Y-81766495D01*
X180361897Y-81659000D01*
X180361897Y-81658997D01*
X180340516Y-81551507D01*
X180286053Y-81469997D01*
X185899103Y-81469997D01*
X185899103Y-81470002D01*
X185920483Y-81577492D01*
X185981375Y-81668624D01*
X186041991Y-81709126D01*
X186072505Y-81729515D01*
X186072507Y-81729516D01*
X186179997Y-81750897D01*
X186180000Y-81750897D01*
X186180003Y-81750897D01*
X186287492Y-81729516D01*
X186287492Y-81729515D01*
X186287495Y-81729515D01*
X186378624Y-81668624D01*
X186439515Y-81577495D01*
X186444685Y-81551507D01*
X186460897Y-81470002D01*
X186460897Y-81469997D01*
X186439516Y-81362507D01*
X186378624Y-81271375D01*
X186287492Y-81210483D01*
X186180003Y-81189103D01*
X186179997Y-81189103D01*
X186072507Y-81210483D01*
X185981375Y-81271375D01*
X185920483Y-81362507D01*
X185899103Y-81469997D01*
X180286053Y-81469997D01*
X180279624Y-81460375D01*
X180188492Y-81399483D01*
X180081003Y-81378103D01*
X180080997Y-81378103D01*
X179973507Y-81399483D01*
X179882375Y-81460375D01*
X179821483Y-81551507D01*
X179800103Y-81658997D01*
X114880500Y-81658997D01*
X114880500Y-81169997D01*
X182129103Y-81169997D01*
X182129103Y-81170002D01*
X182150483Y-81277492D01*
X182211375Y-81368624D01*
X182257559Y-81399483D01*
X182302505Y-81429515D01*
X182302507Y-81429516D01*
X182409997Y-81450897D01*
X182410000Y-81450897D01*
X182410003Y-81450897D01*
X182517492Y-81429516D01*
X182517492Y-81429515D01*
X182517495Y-81429515D01*
X182608624Y-81368624D01*
X182669515Y-81277495D01*
X182670733Y-81271376D01*
X182688909Y-81179997D01*
X188489103Y-81179997D01*
X188489103Y-81180002D01*
X188510483Y-81287492D01*
X188571375Y-81378624D01*
X188602593Y-81399483D01*
X188662505Y-81439515D01*
X188662507Y-81439516D01*
X188769997Y-81460897D01*
X188770000Y-81460897D01*
X188770003Y-81460897D01*
X188877492Y-81439516D01*
X188877492Y-81439515D01*
X188877495Y-81439515D01*
X188968624Y-81378624D01*
X189029515Y-81287495D01*
X189031505Y-81277495D01*
X189050897Y-81180002D01*
X189050897Y-81179997D01*
X189029516Y-81072507D01*
X188968624Y-80981375D01*
X188877492Y-80920483D01*
X188770003Y-80899103D01*
X188769997Y-80899103D01*
X188662507Y-80920483D01*
X188571375Y-80981375D01*
X188510483Y-81072507D01*
X188489103Y-81179997D01*
X182688909Y-81179997D01*
X182690897Y-81170002D01*
X182690897Y-81169997D01*
X182669516Y-81062507D01*
X182608624Y-80971375D01*
X182517492Y-80910483D01*
X182410003Y-80889103D01*
X182409997Y-80889103D01*
X182302507Y-80910483D01*
X182211375Y-80971375D01*
X182150483Y-81062507D01*
X182129103Y-81169997D01*
X114880500Y-81169997D01*
X114880500Y-80329997D01*
X182220103Y-80329997D01*
X182220103Y-80330002D01*
X182241483Y-80437492D01*
X182302375Y-80528624D01*
X182362991Y-80569126D01*
X182393505Y-80589515D01*
X182393507Y-80589516D01*
X182500997Y-80610897D01*
X182501000Y-80610897D01*
X182501003Y-80610897D01*
X182608492Y-80589516D01*
X182608492Y-80589515D01*
X182608495Y-80589515D01*
X182699624Y-80528624D01*
X182742139Y-80464997D01*
X188284103Y-80464997D01*
X188284103Y-80465002D01*
X188305483Y-80572492D01*
X188366375Y-80663624D01*
X188426991Y-80704126D01*
X188457505Y-80724515D01*
X188457507Y-80724516D01*
X188564997Y-80745897D01*
X188565000Y-80745897D01*
X188565003Y-80745897D01*
X188672492Y-80724516D01*
X188672492Y-80724515D01*
X188672495Y-80724515D01*
X188763624Y-80663624D01*
X188824515Y-80572495D01*
X188833242Y-80528624D01*
X188845897Y-80465002D01*
X188845897Y-80464997D01*
X188824516Y-80357507D01*
X188763624Y-80266375D01*
X188672492Y-80205483D01*
X188565003Y-80184103D01*
X188564997Y-80184103D01*
X188457507Y-80205483D01*
X188366375Y-80266375D01*
X188305483Y-80357507D01*
X188284103Y-80464997D01*
X182742139Y-80464997D01*
X182760515Y-80437495D01*
X182781897Y-80330000D01*
X182781897Y-80329997D01*
X182760516Y-80222507D01*
X182699624Y-80131375D01*
X182608492Y-80070483D01*
X182501003Y-80049103D01*
X182500997Y-80049103D01*
X182393507Y-80070483D01*
X182302375Y-80131375D01*
X182241483Y-80222507D01*
X182220103Y-80329997D01*
X114880500Y-80329997D01*
X114880500Y-79161927D01*
X183697500Y-79161927D01*
X183697500Y-79290072D01*
X183722497Y-79415737D01*
X183722498Y-79415742D01*
X183722499Y-79415744D01*
X183771535Y-79534127D01*
X183842724Y-79640669D01*
X183933331Y-79731276D01*
X184039873Y-79802465D01*
X184158256Y-79851501D01*
X184283931Y-79876500D01*
X184412069Y-79876500D01*
X184537744Y-79851501D01*
X184656127Y-79802465D01*
X184762669Y-79731276D01*
X184853276Y-79640669D01*
X184924465Y-79534127D01*
X184973501Y-79415744D01*
X184998500Y-79290069D01*
X184998500Y-79161931D01*
X184973501Y-79036256D01*
X184924465Y-78917873D01*
X184853276Y-78811331D01*
X184762669Y-78720724D01*
X184656127Y-78649535D01*
X184537744Y-78600499D01*
X184537742Y-78600498D01*
X184537737Y-78600497D01*
X184412072Y-78575500D01*
X184412069Y-78575500D01*
X184283931Y-78575500D01*
X184283927Y-78575500D01*
X184158262Y-78600497D01*
X184158257Y-78600498D01*
X184039874Y-78649534D01*
X183933331Y-78720723D01*
X183842723Y-78811331D01*
X183771534Y-78917874D01*
X183722498Y-79036257D01*
X183722497Y-79036262D01*
X183697500Y-79161927D01*
X114880500Y-79161927D01*
X114880500Y-77402406D01*
X114880736Y-77397603D01*
X114894428Y-77258582D01*
X114896302Y-77249161D01*
X114936153Y-77117790D01*
X114939822Y-77108930D01*
X115004542Y-76987850D01*
X115009871Y-76979874D01*
X115096961Y-76873753D01*
X115103754Y-76866961D01*
X115209874Y-76779871D01*
X115217850Y-76774542D01*
X115338930Y-76709822D01*
X115347790Y-76706153D01*
X115479162Y-76666301D01*
X115488581Y-76664428D01*
X115627604Y-76650736D01*
X115632407Y-76650500D01*
X115674170Y-76650500D01*
X198785830Y-76650500D01*
X198827593Y-76650500D01*
X198832396Y-76650736D01*
G37*
%TD.AperFunction*%
M02*
