M48
; DRILL file {KiCad 9.0.4} date 2025-08-26T10:42:27+0200
; FORMAT={-:-/ absolute / metric / decimal}
; #@! TF.CreationDate,2025-08-26T10:42:27+02:00
; #@! TF.GenerationSoftware,Kicad,Pcbnew,9.0.4
; #@! TF.FileFunction,Plated,7,8,Blind
FMAT,2
METRIC
; #@! TA.AperFunction,Plated,Buried,ViaDrill
T1C0.150
%
G90
G05
T1
X156.62Y-119.44
X156.67Y-108.78
X156.69Y-132.11
X157.719Y-116.694
X157.72Y-126.3
X157.79Y-110.34
X157.97Y-131.92
X158.31Y-103.29
X158.885Y-108.69
X158.954Y-123.074
X158.976Y-117.22
X159.182Y-131.741
X160.166Y-128.997
X160.26Y-115.37
X161.22Y-104.21
X161.4Y-119.64
X161.42Y-129.89
X161.56Y-105.76
X162.52Y-101.3
X162.61Y-123.01
X162.68Y-132.47
X162.84Y-113.54
X163.04Y-108.64
X163.07Y-98.54
X163.79Y-105.42
X164.172Y-123.439
X164.5Y-129.75
X165.11Y-100.46
X165.75Y-115.26
X165.837Y-124.495
X165.95Y-101.07
X166.02Y-107.49
X166.55Y-94.9
X166.98Y-108.27
X167.09Y-103.98
X167.28Y-115.85
X167.735Y-120.767
X168.05Y-101.14
X168.42Y-132.11
X169.02Y-128.93
X169.11Y-116.63
X169.61Y-110.202
X169.656Y-131.584
X169.66Y-95.65
X170.43Y-106.53
X170.55Y-127.9
X170.57Y-92.96
X170.84Y-132.48
X171.0Y-100.42
X171.01Y-96.07
X171.55Y-90.12
X171.64Y-101.66
X171.87Y-110.55
X172.14Y-106.81
X173.521Y-114.867
X173.55Y-129.06
X174.71Y-90.67
X174.77Y-100.2
X174.99Y-122.27
X175.03Y-118.64
X175.08Y-86.53
X175.32Y-95.89
X175.8Y-93.66
X176.54Y-112.03
X176.59Y-90.62
X176.67Y-100.45
X177.18Y-86.21
X177.34Y-121.05
X177.54Y-129.44
X177.79Y-124.68
X177.91Y-95.47
X178.94Y-100.15
X178.94Y-106.86
X178.97Y-122.7
X179.61Y-91.7
X180.91Y-113.68
X181.0Y-102.82
X181.1Y-128.28
X181.37Y-121.04
X182.0Y-93.06
X182.23Y-85.62
X182.32Y-94.67
X182.33Y-125.46
X182.51Y-130.88
X183.38Y-86.67
X183.501Y-131.706
X183.58Y-98.47
X184.08Y-126.87
X184.98Y-131.95
X185.12Y-84.63
X185.251Y-96.918
X185.755Y-120.12
X185.77Y-114.33
X186.643Y-121.124
X186.84Y-100.08
X187.443Y-109.919
X187.76Y-116.66
X187.81Y-127.98
X187.85Y-132.7
X188.75Y-116.25
X188.8Y-122.87
X188.98Y-133.083
X189.2Y-111.84
X189.73Y-116.57
X189.867Y-128.442
X191.171Y-119.02
X191.376Y-130.821
X192.131Y-126.453
X192.406Y-118.06
X192.47Y-131.69
X193.87Y-131.6
X194.4Y-117.56
X194.532Y-126.041
X194.92Y-127.37
X194.97Y-132.1
X196.0Y-127.76
X196.29Y-129.24
X196.59Y-120.62
X197.67Y-125.9
X197.71Y-120.39
X197.76Y-130.84
X199.08Y-123.31
X199.27Y-128.9
M30
