M48
; DRILL file {KiCad 9.0.4} date 2025-08-26T10:42:27+0200
; FORMAT={-:-/ absolute / metric / decimal}
; #@! TF.CreationDate,2025-08-26T10:42:27+02:00
; #@! TF.GenerationSoftware,Kicad,Pcbnew,9.0.4
; #@! TF.FileFunction,Plated,1,2,Blind
FMAT,2
METRIC
; #@! TA.AperFunction,Plated,Buried,ViaDrill
T1C0.150
%
G90
G05
T1
X115.902Y-123.305
X116.25Y-116.91
X116.42Y-78.87
X117.147Y-119.613
X117.62Y-81.32
X118.01Y-93.6
X118.478Y-124.292
X119.34Y-78.57
X120.324Y-96.217
X120.37Y-121.89
X120.5Y-117.08
X120.71Y-88.19
X121.05Y-84.33
X122.127Y-81.235
X122.47Y-92.482
X122.986Y-118.154
X123.243Y-122.575
X123.59Y-78.66
X123.84Y-96.95
X124.49Y-125.11
X124.531Y-85.399
X124.57Y-93.56
X125.26Y-108.37
X125.35Y-79.47
X125.475Y-111.8
X125.56Y-102.4
X125.561Y-115.277
X125.776Y-105.49
X125.95Y-83.6
X126.248Y-118.926
X126.506Y-99.222
X126.68Y-124.03
X127.19Y-88.83
X127.279Y-109.181
X127.837Y-102.356
X127.84Y-106.35
X128.31Y-115.28
X128.35Y-82.65
X128.824Y-92.611
X129.21Y-95.7
X130.07Y-118.67
X130.41Y-97.16
X131.53Y-85.79
X132.902Y-89.778
X132.99Y-100.34
X133.29Y-118.97
X133.804Y-92.74
X133.89Y-83.64
X135.35Y-86.21
X136.12Y-95.87
X136.938Y-88.232
X138.225Y-93.598
X138.4Y-96.73
X138.96Y-84.03
X139.685Y-124.722
X139.857Y-99.136
X141.102Y-88.833
X141.145Y-93.298
X141.23Y-125.24
X142.0Y-80.12
X142.304Y-96.603
X143.08Y-84.63
X145.14Y-93.47
X145.867Y-89.005
X147.069Y-97.247
X147.5Y-86.13
X148.7Y-91.967
X150.37Y-82.65
X152.006Y-87.374
X152.22Y-78.36
X153.51Y-95.83
X153.937Y-80.076
X154.152Y-83.338
X154.8Y-90.68
X156.51Y-101.32
X156.57Y-96.14
X156.59Y-103.07
X156.59Y-108.43
X156.6Y-121.01
X156.6Y-125.58
X156.61Y-99.02
X156.61Y-105.32
X156.63Y-130.02
X156.64Y-94.06
X156.64Y-133.55
X156.66Y-127.65
X156.67Y-109.96
X156.69Y-112.07
X156.69Y-119.04
X156.69Y-123.34
X156.69Y-131.92
X156.7Y-114.4
X156.7Y-116.64
X157.29Y-92.05
X157.46Y-87.55
X157.77Y-95.5
X157.81Y-101.43
X157.81Y-111.58
X157.82Y-119.68
X157.85Y-131.17
X157.92Y-98.38
X158.33Y-91.02
X158.5Y-92.57
X159.03Y-122.73
X159.04Y-109.42
X159.07Y-101.45
X159.1Y-132.06
X159.3Y-91.61
X159.77Y-89.69
X159.82Y-92.85
X160.2Y-102.82
X160.23Y-113.6
X160.25Y-128.39
X160.34Y-94.56
X160.97Y-88.52
X161.32Y-83.64
X161.37Y-126.69
X161.39Y-104.62
X161.41Y-95.75
X161.41Y-113.52
X161.44Y-132.86
X162.29Y-86.99
X162.56Y-132.13
X162.6Y-102.87
X162.6Y-110.68
X162.6Y-125.34
X162.65Y-118.66
X163.5Y-85.88
X163.62Y-103.34
X163.71Y-115.53
X164.07Y-130.98
X164.09Y-133.3
X164.35Y-129.21
X164.65Y-106.48
X164.65Y-114.82
X164.65Y-124.84
X164.74Y-84.61
X164.95Y-95.67
X164.99Y-85.99
X165.36Y-129.63
X165.58Y-122.14
X165.63Y-110.34
X165.84Y-92.65
X166.05Y-98.63
X166.19Y-86.55
X166.26Y-96.34
X166.36Y-83.47
X166.59Y-124.25
X166.64Y-107.14
X166.66Y-129.14
X166.687Y-79.475
X167.43Y-89.37
X167.6Y-106.89
X167.65Y-119.42
X167.65Y-128.82
X167.88Y-83.27
X168.14Y-86.81
X168.2Y-92.447
X168.24Y-98.45
X168.4Y-132.26
X168.42Y-133.27
X168.45Y-131.18
X168.66Y-110.75
X168.66Y-120.34
X168.74Y-108.49
X169.04Y-128.73
X169.09Y-95.41
X169.29Y-101.57
X169.59Y-132.26
X169.6Y-83.34
X169.61Y-133.27
X169.62Y-119.54
X169.64Y-131.18
X169.72Y-105.42
X169.732Y-114.265
X170.23Y-127.21
X170.29Y-128.59
X170.76Y-132.26
X170.78Y-133.27
X170.81Y-131.18
X171.29Y-91.68
X171.34Y-119.74
X171.35Y-107.66
X171.36Y-113.17
X171.39Y-116.41
X171.4Y-127.06
X171.42Y-83.32
X171.86Y-104.24
X171.87Y-101.29
X172.03Y-132.26
X172.05Y-133.27
X172.08Y-131.18
X172.15Y-85.64
X172.36Y-94.24
X172.59Y-84.64
X172.975Y-122.1
X172.98Y-90.62
X173.18Y-132.26
X173.2Y-133.27
X173.23Y-131.18
X173.57Y-105.04
X173.625Y-122.27
X173.65Y-97.3
X173.806Y-126.766
X173.844Y-83.394
X174.09Y-106.09
X174.275Y-121.57
X174.44Y-132.26
X174.46Y-133.27
X174.49Y-131.18
X174.64Y-92.64
X174.91Y-106.61
X174.92Y-98.3
X174.935Y-121.98
X175.103Y-128.178
X175.32Y-100.57
X175.57Y-107.29
X175.585Y-121.1
X175.68Y-83.38
X176.03Y-108.18
X176.32Y-88.97
X176.76Y-129.7
X176.8Y-120.64
X176.89Y-110.03
X177.25Y-91.69
X177.26Y-127.81
X177.3Y-90.64
X177.62Y-120.61
X177.765Y-110.77
X177.77Y-83.4
X178.13Y-96.65
X178.17Y-86.66
X178.29Y-84.66
X178.43Y-110.16
X178.485Y-113.32
X178.485Y-120.54
X178.84Y-78.66
X178.9Y-104.05
X178.95Y-97.68
X178.96Y-85.65
X178.98Y-98.62
X179.01Y-87.7
X179.03Y-105.21
X179.09Y-99.68
X179.29Y-106.46
X179.34Y-107.84
X179.35Y-101.26
X179.43Y-83.4
X179.644Y-123.756
X181.15Y-133.26
X181.298Y-113.426
X181.298Y-119.426
X182.35Y-133.26
X183.54Y-133.26
X183.859Y-98.277
X183.99Y-86.86
X184.03Y-95.92
X184.12Y-85.14
X184.159Y-81.149
X184.245Y-90.164
X184.29Y-106.22
X184.546Y-109.525
X184.55Y-112.14
X184.573Y-101.426
X184.59Y-103.43
X184.675Y-82.909
X184.74Y-133.25
X184.76Y-114.63
X184.95Y-121.41
X185.92Y-133.25
X187.14Y-133.26
X187.27Y-128.82
X187.398Y-119.426
X187.47Y-125.99
X187.58Y-123.9
X188.37Y-133.82
X189.27Y-128.48
X189.42Y-101.45
X189.54Y-133.89
X189.61Y-100.06
X189.77Y-102.5
X190.45Y-99.25
X190.81Y-100.74
X190.99Y-84.41
X190.99Y-102.25
X191.27Y-127.34
X191.37Y-98.49
X191.53Y-132.4
X191.76Y-93.38
X191.95Y-99.6
X192.02Y-89.35
X192.03Y-101.28
X192.13Y-129.68
X193.05Y-85.27
X193.12Y-98.44
X193.26Y-82.74
X193.35Y-100.41
X193.37Y-99.41
X193.95Y-88.92
X194.76Y-85.18
X194.79Y-128.65
X195.15Y-82.39
X195.39Y-125.9
X195.41Y-92.27
X195.48Y-131.23
X196.052Y-132.63
X196.14Y-79.26
X196.222Y-88.962
X196.224Y-123.129
X196.48Y-86.04
X196.74Y-77.89
X197.21Y-81.62
X197.426Y-125.189
X197.569Y-129.024
X197.983Y-83.982
X198.03Y-89.82
X198.412Y-79.088
X198.86Y-129.8
M30
