%TF.GenerationSoftware,KiCad,Pcbnew,9.0.4*%
%TF.CreationDate,2025-08-26T10:42:32+02:00*%
%TF.ProjectId,HYDRA_VMM3_CARD_V3_Flex,48594452-415f-4564-9d4d-335f43415244,rev?*%
%TF.SameCoordinates,Original*%
%TF.FileFunction,Copper,L4,Inr*%
%TF.FilePolarity,Positive*%
%FSLAX46Y46*%
G04 Gerber Fmt 4.6, Leading zero omitted, Abs format (unit mm)*
G04 Created by KiCad (PCBNEW 9.0.4) date 2025-08-26 10:42:32*
%MOMM*%
%LPD*%
G01*
G04 APERTURE LIST*
%TA.AperFunction,ComponentPad*%
%ADD10C,2.000000*%
%TD*%
%TA.AperFunction,ComponentPad*%
%ADD11C,1.600000*%
%TD*%
%TA.AperFunction,ComponentPad*%
%ADD12R,1.600000X1.600000*%
%TD*%
%TA.AperFunction,ViaPad*%
%ADD13C,0.350000*%
%TD*%
G04 APERTURE END LIST*
D10*
%TO.N,GND*%
%TO.C,15*%
X134778000Y-122000000D03*
%TD*%
%TO.N,GND*%
%TO.C,*%
X193073000Y-121980000D03*
%TD*%
%TO.N,GND*%
%TO.C,*%
X193073000Y-78280000D03*
%TD*%
%TO.N,GND*%
%TO.C,*%
X129698000Y-78300000D03*
%TD*%
%TO.N,GND*%
%TO.C,*%
X190533000Y-78280000D03*
%TD*%
%TO.N,GND*%
%TO.C,11*%
X129698000Y-122000000D03*
%TD*%
%TO.N,GND*%
%TO.C,*%
X132238000Y-80840000D03*
%TD*%
%TO.N,GND*%
%TO.C,*%
X190533000Y-121980000D03*
%TD*%
%TO.N,GND*%
%TO.C,*%
X193073000Y-124520000D03*
%TD*%
%TO.N,GND*%
%TO.C,*%
X193073000Y-80820000D03*
%TD*%
%TO.N,GND*%
%TO.C,17*%
X171493000Y-124540000D03*
%TD*%
%TO.N,GND*%
%TO.C,13*%
X137318000Y-80840000D03*
%TD*%
D11*
%TO.N,P1_Out*%
%TO.C,3.3V1*%
X121980000Y-104590000D03*
%TD*%
D10*
%TO.N,GND*%
%TO.C,*%
X129698000Y-80840000D03*
%TD*%
%TO.N,GND*%
%TO.C,*%
X190533000Y-124520000D03*
%TD*%
%TO.N,GND*%
%TO.C,*%
X134778000Y-80840000D03*
%TD*%
%TO.N,GND*%
%TO.C,24*%
X137318000Y-122000000D03*
%TD*%
%TO.N,GND*%
%TO.C,9*%
X134778000Y-124540000D03*
%TD*%
%TO.N,GND*%
%TO.C,1*%
X171493000Y-80840000D03*
%TD*%
%TO.N,GND*%
%TO.C,12*%
X132238000Y-122000000D03*
%TD*%
%TO.N,GND*%
%TO.C,2*%
X174033000Y-80820000D03*
%TD*%
D12*
%TO.N,GND*%
%TO.C,GND1*%
X121980000Y-107130000D03*
%TD*%
D10*
%TO.N,GND*%
%TO.C,5*%
X174033000Y-78280000D03*
%TD*%
%TO.N,GND*%
%TO.C,20*%
X171493000Y-122000000D03*
%TD*%
%TO.N,GND*%
%TO.C,*%
X134778000Y-78300000D03*
%TD*%
%TO.N,GND*%
%TO.C,*%
X190533000Y-80820000D03*
%TD*%
D11*
%TO.N,P2_Out*%
%TO.C,1.8V1*%
X121980000Y-109670000D03*
%TD*%
D10*
%TO.N,GND*%
%TO.C,4*%
X171493000Y-78300000D03*
%TD*%
%TO.N,GND*%
%TO.C,*%
X132238000Y-78300000D03*
%TD*%
%TO.N,GND*%
%TO.C,8*%
X132238000Y-124540000D03*
%TD*%
%TO.N,GND*%
%TO.C,7*%
X129698000Y-124540000D03*
%TD*%
%TO.N,GND*%
%TO.C,23*%
X137318000Y-124540000D03*
%TD*%
%TO.N,GND*%
%TO.C,14*%
X137318000Y-78300000D03*
%TD*%
D13*
%TO.N,P2*%
X133890000Y-113670000D03*
X131890000Y-111170000D03*
X133390000Y-113670000D03*
X133890000Y-111670000D03*
X132890000Y-111170000D03*
X131390000Y-111170000D03*
X131890000Y-110170000D03*
X131890000Y-111670000D03*
X131890000Y-109670000D03*
X132890000Y-108670000D03*
X132890000Y-111670000D03*
X132390000Y-113670000D03*
X147630000Y-136260000D03*
X132390000Y-110170000D03*
X131890000Y-110670000D03*
X131890000Y-112670000D03*
X133390000Y-110170000D03*
X132890000Y-112170000D03*
X148230000Y-135460000D03*
X133390000Y-114170000D03*
X149430000Y-135460000D03*
X148230000Y-135860000D03*
X131890000Y-112170000D03*
X133890000Y-110170000D03*
X131890000Y-109170000D03*
X133390000Y-111170000D03*
X148230000Y-134660000D03*
X148830000Y-136260000D03*
X131390000Y-108670000D03*
X132390000Y-111170000D03*
X132390000Y-112670000D03*
X131390000Y-110670000D03*
X132390000Y-112170000D03*
X133890000Y-109170000D03*
X132390000Y-109170000D03*
X132890000Y-110170000D03*
X133890000Y-112670000D03*
X133890000Y-111170000D03*
X132390000Y-111670000D03*
X147630000Y-134660000D03*
X133390000Y-109670000D03*
X133890000Y-114170000D03*
X133890000Y-108670000D03*
X132390000Y-108670000D03*
X131390000Y-112170000D03*
X147630000Y-135060000D03*
X132390000Y-110670000D03*
X131390000Y-111670000D03*
X131890000Y-108670000D03*
X148230000Y-136260000D03*
X133390000Y-110670000D03*
X131390000Y-109670000D03*
X148830000Y-135860000D03*
X132890000Y-113670000D03*
X132390000Y-114170000D03*
X133890000Y-112170000D03*
X148830000Y-135460000D03*
X147630000Y-135860000D03*
X149430000Y-135860000D03*
X133390000Y-112670000D03*
X131890000Y-113670000D03*
X132390000Y-113170000D03*
X133390000Y-111670000D03*
X149430000Y-136260000D03*
X131390000Y-110170000D03*
X148230000Y-135060000D03*
X132890000Y-109670000D03*
X133390000Y-112170000D03*
X133390000Y-113170000D03*
X133890000Y-113170000D03*
X133890000Y-109670000D03*
X131390000Y-113170000D03*
X131390000Y-109170000D03*
X132890000Y-110670000D03*
X149430000Y-135060000D03*
X133890000Y-110670000D03*
X133390000Y-109170000D03*
X148830000Y-134660000D03*
X132890000Y-109170000D03*
X133390000Y-108670000D03*
X132390000Y-109670000D03*
X131390000Y-112670000D03*
X132890000Y-112670000D03*
X131890000Y-113170000D03*
X147630000Y-135460000D03*
X148830000Y-135060000D03*
X149430000Y-134660000D03*
X132890000Y-113170000D03*
X132890000Y-114170000D03*
%TO.N,P1*%
X132890000Y-103590000D03*
X132890000Y-106590000D03*
X130890000Y-103590000D03*
X133390000Y-103590000D03*
X130890000Y-106590000D03*
X131390000Y-105590000D03*
X132390000Y-103590000D03*
X131390000Y-104590000D03*
X133890000Y-104590000D03*
X131390000Y-102590000D03*
X133890000Y-102590000D03*
X131890000Y-102590000D03*
X130890000Y-105590000D03*
X132390000Y-104590000D03*
X133390000Y-104590000D03*
X132890000Y-105590000D03*
X131890000Y-105590000D03*
X133390000Y-102590000D03*
X133890000Y-103590000D03*
X131390000Y-103590000D03*
X132890000Y-102590000D03*
X133890000Y-105590000D03*
X131390000Y-106590000D03*
X131890000Y-103590000D03*
X133890000Y-106590000D03*
X150730000Y-126600000D03*
X131890000Y-104590000D03*
X133390000Y-106590000D03*
X132390000Y-102590000D03*
X132390000Y-106590000D03*
X131890000Y-106590000D03*
X132390000Y-105590000D03*
X132890000Y-104590000D03*
X130890000Y-102590000D03*
X133390000Y-105590000D03*
X150730000Y-126220000D03*
%TO.N,Ch_1*%
X188670000Y-82180000D03*
%TO.N,Ch_25*%
X188690000Y-90180000D03*
%TO.N,Ch_13*%
X188730000Y-86180000D03*
%TO.N,Ch_93*%
X190360000Y-109720000D03*
%TO.N,Ch_39*%
X185790000Y-93670000D03*
%TO.N,Ch_119*%
X194980000Y-117120000D03*
%TO.N,Ch_123*%
X197070000Y-119330000D03*
%TO.N,Ch_107*%
X190190000Y-114440000D03*
%TO.N,Ch_5*%
X188700000Y-84150000D03*
%TO.N,Ch_127*%
X198050000Y-121570000D03*
%TO.N,Ch_103*%
X189545190Y-113454810D03*
%TO.N,Ch_21*%
X188720000Y-88180000D03*
%TO.N,Ch_117*%
X197110000Y-116550000D03*
%TO.N,Ch_31*%
X183562763Y-91678783D03*
%TO.N,Ch_41*%
X188780000Y-94180000D03*
%TO.N,Ch_47*%
X185990000Y-96700000D03*
%TO.N,Ch_111*%
X191196174Y-115275508D03*
%TO.N,Ch_125*%
X198720000Y-120130000D03*
%TO.N,Ch_11*%
X185950000Y-85680000D03*
%TO.N,Ch_19*%
X185980000Y-87680000D03*
%TO.N,Ch_15*%
X185960000Y-86680000D03*
%TO.N,Ch_121*%
X197790000Y-118160000D03*
%TO.N,Ch_45*%
X188790000Y-96170000D03*
%TO.N,Ch_95*%
X189330000Y-110310000D03*
%TO.N,Ch_9*%
X188690000Y-85170000D03*
%TO.N,Ch_87*%
X189100000Y-108250000D03*
%TO.N,Ch_97*%
X191040000Y-110630000D03*
%TO.N,Ch_83*%
X185855788Y-107220137D03*
%TO.N,Ch_99*%
X190420000Y-111650000D03*
%TO.N,Ch_85*%
X186180000Y-108180000D03*
%TO.N,Ch_23*%
X185970000Y-88670000D03*
%TO.N,Ch_113*%
X196150000Y-115500000D03*
%TO.N,Ch_89*%
X189660000Y-109170000D03*
%TO.N,Ch_37*%
X188790000Y-93170000D03*
%TO.N,Ch_81*%
X185880000Y-106190000D03*
%TO.N,Ch_7*%
X185960000Y-84690000D03*
%TO.N,Ch_43*%
X185730000Y-94810000D03*
%TO.N,Ch_29*%
X188750000Y-91180000D03*
%TO.N,Ch_33*%
X188780000Y-92190000D03*
%TO.N,Ch_3*%
X185990000Y-82670000D03*
%TO.N,Ch_27*%
X186030000Y-90670000D03*
%TO.N,Ch_105*%
X192135000Y-113750000D03*
%TO.N,Ch_17*%
X188720000Y-87180000D03*
%TO.N,Ch_115*%
X192240000Y-116250000D03*
%TO.N,Ch_91*%
X186190000Y-109680000D03*
%TO.N,Ch_109*%
X195580000Y-114390000D03*
%TO.N,Ch_35*%
X184380000Y-92670000D03*
%TO.N,Ch_101*%
X191760000Y-112560000D03*
%TO.N,Ch_114*%
X182660000Y-115900000D03*
%TO.N,Ch_120*%
X182850000Y-117560000D03*
%TO.N,bit_0*%
X188565000Y-80465000D03*
%TO.N,Ch_128*%
X179960000Y-120680000D03*
%TO.N,Ch_122*%
X183410000Y-118080000D03*
%TO.N,bit_1*%
X182501000Y-80330000D03*
%TO.N,Ch_124*%
X182910000Y-118920000D03*
%TO.N,bit_2*%
X188770000Y-81180000D03*
%TO.N,bit_5*%
X180081000Y-81659000D03*
%TO.N,Ch_126*%
X182940000Y-120170000D03*
%TO.N,Ch_116*%
X183166844Y-116563269D03*
%TO.N,Ch_118*%
X182570000Y-117120000D03*
%TO.N,GND*%
X183294657Y-119153542D03*
X197558449Y-116587371D03*
X150630000Y-135860000D03*
X181298000Y-89426000D03*
X189216566Y-94289142D03*
X189196980Y-103599562D03*
X152110000Y-100938500D03*
X150630000Y-134660000D03*
X153630000Y-135060000D03*
X117860000Y-89435002D03*
X154830000Y-135860000D03*
X189236303Y-93227587D03*
X182650000Y-88200000D03*
X190940000Y-104300000D03*
X116330000Y-113200000D03*
X117900000Y-84424998D03*
X115130000Y-110300000D03*
X185814807Y-103927062D03*
X182670000Y-85180000D03*
X186254000Y-103176000D03*
X115730000Y-104300000D03*
X147590000Y-108480000D03*
X182650000Y-86200000D03*
X154230000Y-135060000D03*
X191360000Y-114830000D03*
X153918415Y-100467704D03*
X182640000Y-97200000D03*
X155430000Y-134660000D03*
X153890000Y-100080000D03*
X185977505Y-83119829D03*
X153630000Y-135460000D03*
X185870288Y-89108816D03*
X151740000Y-126560000D03*
X154830000Y-135460000D03*
X193000000Y-105130000D03*
X147736000Y-79213500D03*
X182670000Y-111210000D03*
X150000000Y-130490000D03*
X153048120Y-100244888D03*
X115130000Y-113800000D03*
X154275612Y-100924207D03*
X189137396Y-85218367D03*
X151230000Y-136260000D03*
X134390000Y-107890000D03*
X115130000Y-109700000D03*
X154230000Y-135860000D03*
X187398000Y-89426000D03*
X116330000Y-109700000D03*
X153630000Y-135860000D03*
X194985886Y-117585507D03*
X115130000Y-104900000D03*
X150030000Y-135460000D03*
X189118911Y-82211319D03*
X115130000Y-100800000D03*
X155430000Y-135460000D03*
X179723138Y-120297379D03*
X187398000Y-83426000D03*
X136780000Y-107860000D03*
X182680000Y-106200000D03*
X151230000Y-134660000D03*
X147230000Y-109290000D03*
X188803385Y-98258581D03*
X192690000Y-104200000D03*
X149320000Y-109790000D03*
X147790000Y-111680000D03*
X154230000Y-136260000D03*
X149680000Y-113300000D03*
X189200000Y-84180000D03*
X187398000Y-107426000D03*
X182650000Y-87190000D03*
X130670000Y-107860000D03*
X189181024Y-91309307D03*
X116330000Y-104900000D03*
X193100000Y-106240000D03*
X140040000Y-107860000D03*
X155430000Y-135860000D03*
X151230000Y-135460000D03*
X151690000Y-129320000D03*
X190030000Y-112980000D03*
X150030000Y-135060000D03*
X190677308Y-111280819D03*
X154830000Y-135060000D03*
X115730000Y-109700000D03*
X192520000Y-105620000D03*
X185542177Y-105892716D03*
X116330000Y-113800000D03*
X191402884Y-110363885D03*
X185368259Y-95077667D03*
X198192304Y-121143091D03*
X182660000Y-91200000D03*
X157736000Y-79213500D03*
X154230000Y-134660000D03*
X192190000Y-103800000D03*
X183261619Y-117003178D03*
X182642632Y-119832253D03*
X146157552Y-108617539D03*
X115130000Y-101400000D03*
X115730000Y-104900000D03*
X197095673Y-118880730D03*
X148345137Y-108884725D03*
X148787663Y-110780074D03*
X186225416Y-109231393D03*
X149980000Y-126560000D03*
X192540687Y-113555270D03*
X115130000Y-113200000D03*
X115130000Y-104300000D03*
X196492875Y-115208557D03*
X182650000Y-109210000D03*
X150630000Y-136260000D03*
X189239808Y-96156770D03*
X116330000Y-110900000D03*
X148590000Y-112480000D03*
X182680000Y-103210000D03*
X154830000Y-134660000D03*
X115730000Y-113200000D03*
X189466182Y-107988441D03*
X150030000Y-134660000D03*
X150030000Y-135860000D03*
X182650000Y-98200000D03*
X151230000Y-135060000D03*
X149660000Y-111240000D03*
X116330000Y-110300000D03*
X188680000Y-99520000D03*
X189230003Y-92190000D03*
X115730000Y-110300000D03*
X156736000Y-80213500D03*
X115730000Y-110900000D03*
X115730000Y-100800000D03*
X182670000Y-94190000D03*
X185955486Y-96251323D03*
X155430000Y-135060000D03*
X189129839Y-90275100D03*
X129190000Y-107860000D03*
X198233879Y-118086020D03*
X182690000Y-100200000D03*
X115130000Y-110900000D03*
X158736000Y-80213500D03*
X192750000Y-106750000D03*
X115130000Y-103700000D03*
X181812000Y-107366000D03*
X146736000Y-80213500D03*
X150630000Y-135060000D03*
X181298000Y-95426000D03*
X182966336Y-82998966D03*
X154579847Y-101361838D03*
X115730000Y-101400000D03*
X189162556Y-88261524D03*
X150000000Y-115980000D03*
X153060000Y-126620000D03*
X148736000Y-80213500D03*
X151230000Y-135860000D03*
X190757975Y-109509957D03*
X153630000Y-136260000D03*
X182640000Y-93200000D03*
X187398000Y-95426000D03*
X184163624Y-93064568D03*
X149990000Y-120710000D03*
X183380000Y-92090000D03*
X150630000Y-135460000D03*
X182690000Y-105210000D03*
X153030000Y-128000000D03*
X145680000Y-109410000D03*
X185977148Y-99619819D03*
X182670000Y-112200000D03*
X181298000Y-83426000D03*
X115730000Y-103700000D03*
X182690000Y-104220000D03*
X179910000Y-115190000D03*
X150030000Y-136260000D03*
X116330000Y-104300000D03*
X182650000Y-92210000D03*
X117869364Y-85575002D03*
X190559181Y-114697308D03*
X186180000Y-107660000D03*
X144640000Y-108150000D03*
X117840000Y-88284998D03*
X155430000Y-136260000D03*
X154230000Y-135460000D03*
X116330000Y-100200000D03*
X183296349Y-117617224D03*
X196009115Y-114254490D03*
X189161729Y-87265892D03*
X185348736Y-93581747D03*
X116330000Y-101400000D03*
X115730000Y-100200000D03*
X153630000Y-134660000D03*
X115730000Y-113800000D03*
X115730000Y-114400000D03*
X147910000Y-110300000D03*
X115130000Y-100200000D03*
X182660000Y-99200000D03*
X189756909Y-110167696D03*
X191720000Y-104170000D03*
X180223000Y-110748249D03*
X181298000Y-101426000D03*
X154068679Y-101795804D03*
X182650000Y-110220000D03*
X189175260Y-86245160D03*
X179960000Y-111690000D03*
X190056214Y-108956654D03*
X192148703Y-112333257D03*
X116330000Y-100800000D03*
X115130000Y-114400000D03*
X142130000Y-107840000D03*
X146580000Y-110150000D03*
X116330000Y-103700000D03*
X192360000Y-104670000D03*
X116330000Y-114400000D03*
X192290000Y-106540000D03*
X192655810Y-116077941D03*
X154830000Y-136260000D03*
X198787412Y-119685075D03*
X182710000Y-114690000D03*
X188410000Y-130470000D03*
X159670000Y-119400000D03*
X170240000Y-135480000D03*
X176160000Y-101920000D03*
X179270000Y-83470000D03*
X196450000Y-135980000D03*
X180590000Y-119310000D03*
X157290000Y-93050000D03*
X186560000Y-133690000D03*
X188770000Y-123010000D03*
X187270000Y-122660000D03*
X160870000Y-135620000D03*
X161891239Y-88298202D03*
X183630000Y-120860000D03*
X162050000Y-135600000D03*
X174743433Y-95776258D03*
X186580000Y-135480000D03*
X186394770Y-85748426D03*
X182367446Y-115558072D03*
X186409854Y-84678465D03*
X168550000Y-99160000D03*
X178190000Y-119910000D03*
X159650000Y-135630000D03*
X188950000Y-125370000D03*
X186427975Y-87637336D03*
X169060000Y-135490000D03*
X178190000Y-107910000D03*
X190110000Y-115450000D03*
X169610000Y-124170000D03*
X176504321Y-86194284D03*
X186290190Y-117929810D03*
X174580000Y-108210000D03*
X176020000Y-108320000D03*
X164330000Y-134420000D03*
X190240000Y-133860000D03*
X186840000Y-127810000D03*
X166740000Y-126240000D03*
X193020000Y-127430000D03*
X184710000Y-127790000D03*
X176785000Y-114130000D03*
X168540000Y-124650000D03*
X173280000Y-109300000D03*
X179610000Y-126640000D03*
X186391717Y-86806976D03*
X195020000Y-123180000D03*
X171250000Y-127370000D03*
X190030000Y-117810000D03*
X172660000Y-135470000D03*
X195000000Y-120460000D03*
X192440000Y-128850000D03*
X173280000Y-115300000D03*
X188750000Y-126420000D03*
X180660000Y-126630000D03*
X171660000Y-105290000D03*
X165045000Y-119270000D03*
X167560000Y-88340000D03*
X169670000Y-86170000D03*
X167430000Y-90200000D03*
X185380000Y-135440000D03*
X168870000Y-127780000D03*
X181670000Y-133500000D03*
X166760000Y-106180000D03*
X194670000Y-135940000D03*
X173860000Y-135490000D03*
X181780000Y-135470000D03*
X168660000Y-130060000D03*
X163216161Y-131443448D03*
X172940000Y-85230000D03*
X175270000Y-120240000D03*
X167670000Y-108280000D03*
X180460000Y-132380000D03*
X169640000Y-83560000D03*
X189570000Y-119730000D03*
X178940000Y-101590000D03*
X171020000Y-99710000D03*
X171340000Y-112310000D03*
X184150000Y-133520000D03*
X165527358Y-96508056D03*
X191480000Y-129090000D03*
X176020000Y-88230000D03*
X187710000Y-135490000D03*
X157230000Y-107190000D03*
X176020000Y-120320000D03*
X159680000Y-131440000D03*
X162030000Y-120200000D03*
X162030000Y-109540000D03*
X177460000Y-113920000D03*
X160820000Y-109950000D03*
X180250000Y-128240000D03*
X173930000Y-121040000D03*
X168180000Y-97900000D03*
X173280000Y-121300000D03*
X175270000Y-114240000D03*
X196600000Y-134730000D03*
X195870000Y-135990000D03*
X175270000Y-108240000D03*
X177320000Y-127240000D03*
X163270000Y-135580000D03*
X191700000Y-135920000D03*
X162057481Y-131458694D03*
X174580000Y-114210000D03*
X180690000Y-85200000D03*
X171470000Y-135500000D03*
X193450000Y-135970000D03*
X176785000Y-108130000D03*
X172580000Y-133610000D03*
X168550000Y-118810000D03*
X164570000Y-87340000D03*
X188930000Y-135500000D03*
X188870000Y-133820000D03*
X158390000Y-108510000D03*
X187730000Y-133690000D03*
X167080000Y-97310000D03*
X161980000Y-98090000D03*
X173930000Y-115040000D03*
X184160000Y-135460000D03*
X170625611Y-128272325D03*
X185920000Y-115920000D03*
X157230000Y-135580000D03*
X192880000Y-135920000D03*
X186340000Y-130350000D03*
X160910000Y-119900000D03*
X183000000Y-135500000D03*
X169520000Y-99570000D03*
X197290000Y-135640000D03*
X178915190Y-127894810D03*
X178190000Y-113910000D03*
X162690000Y-93330000D03*
X158400000Y-131430000D03*
X173800000Y-133590000D03*
X167430000Y-92160000D03*
X160690000Y-131380000D03*
X165820000Y-88140000D03*
X182325570Y-126334430D03*
X178040000Y-94130000D03*
X159060000Y-92990000D03*
X168600000Y-104510000D03*
X158480000Y-135580000D03*
X179630000Y-118950000D03*
X168480000Y-110270000D03*
X182010190Y-125099810D03*
X175080000Y-135520000D03*
X178750000Y-97170000D03*
X170080000Y-92050000D03*
X158346595Y-118805012D03*
X184390000Y-120360000D03*
X195280000Y-135970000D03*
X184530000Y-129460000D03*
X194070000Y-135970000D03*
X174580000Y-120210000D03*
X183010000Y-133450000D03*
X165930000Y-121450000D03*
X192310000Y-135920000D03*
X177670000Y-98130000D03*
X163170000Y-120470000D03*
X167720000Y-118130000D03*
X185520000Y-113370000D03*
X164290000Y-120590000D03*
X159580000Y-108170000D03*
X166790000Y-117990000D03*
X177690000Y-92230000D03*
X172240000Y-131080000D03*
X190170000Y-135530000D03*
X178940000Y-107590000D03*
X178940000Y-119590000D03*
X176020000Y-114320000D03*
X169600000Y-119830000D03*
X176785000Y-120130000D03*
X172780000Y-100080000D03*
X173930000Y-109040000D03*
X183330000Y-122240000D03*
X181145190Y-126074810D03*
X169600000Y-112240000D03*
X183940000Y-129880000D03*
X161300000Y-92460000D03*
X167759404Y-132434424D03*
X185410000Y-133600000D03*
X178940000Y-113590000D03*
X182030000Y-120940000D03*
X172936808Y-87223374D03*
X165778913Y-107370675D03*
X157090000Y-118670000D03*
X173280000Y-103300000D03*
X164450000Y-129170000D03*
X187700000Y-126520000D03*
X191080000Y-135910000D03*
X166630000Y-129220000D03*
X174150000Y-89560000D03*
X185967701Y-120464978D03*
X157130000Y-130990000D03*
X163240000Y-99550000D03*
X189490000Y-129430000D03*
X177400000Y-99210000D03*
X177460000Y-119920000D03*
X179934622Y-87177637D03*
%TO.N,bit_4*%
X186180000Y-81470000D03*
%TO.N,bit_3*%
X182410000Y-81170000D03*
%TO.N,TX*%
X117735000Y-88860000D03*
%TO.N,RX*%
X117725000Y-85000000D03*
%TO.N,P2_Out*%
X118173500Y-109598500D03*
X119373500Y-111998500D03*
X119973500Y-111998500D03*
X118773500Y-111998500D03*
X118773500Y-109598500D03*
X120573500Y-109598500D03*
X119973500Y-111398500D03*
X119373500Y-110798500D03*
X119373500Y-108998500D03*
X118173500Y-112513500D03*
X120573500Y-108998500D03*
X118173500Y-111398500D03*
X118773500Y-113113500D03*
X118773500Y-110798500D03*
X120573500Y-112513500D03*
X118773500Y-108998500D03*
X120573500Y-113113500D03*
X120573500Y-111398500D03*
X119973500Y-110198500D03*
X119373500Y-110198500D03*
X118773500Y-111398500D03*
X120573500Y-110198500D03*
X119373500Y-114313500D03*
X119373500Y-109598500D03*
X120573500Y-114313500D03*
X118773500Y-114313500D03*
X118173500Y-111998500D03*
X118773500Y-110198500D03*
X118773500Y-112513500D03*
X119373500Y-114913500D03*
X118773500Y-113713500D03*
X119373500Y-111398500D03*
X118773500Y-114913500D03*
X120573500Y-110798500D03*
X119973500Y-108998500D03*
X118173500Y-110798500D03*
X118173500Y-113113500D03*
X119973500Y-109598500D03*
X119973500Y-113713500D03*
X118173500Y-114913500D03*
X120573500Y-113713500D03*
X119973500Y-113113500D03*
X120573500Y-111998500D03*
X119973500Y-112513500D03*
X119373500Y-113713500D03*
X119373500Y-112513500D03*
X118173500Y-108998500D03*
X118173500Y-110198500D03*
X119973500Y-114313500D03*
X119373500Y-113113500D03*
X119973500Y-110798500D03*
X118173500Y-114313500D03*
X118173500Y-113713500D03*
X119973500Y-114913500D03*
%TO.N,P1_Out*%
X120573500Y-103013500D03*
X119373500Y-100113500D03*
X118173500Y-100113500D03*
X119973500Y-101313500D03*
X119973500Y-105413500D03*
X118173500Y-104213500D03*
X118173500Y-101313500D03*
X120573500Y-100113500D03*
X119373500Y-104213500D03*
X118173500Y-104813500D03*
X118773500Y-100113500D03*
X119973500Y-99513500D03*
X120573500Y-100713500D03*
X118773500Y-102513500D03*
X118773500Y-104213500D03*
X119373500Y-105413500D03*
X118173500Y-102513500D03*
X119373500Y-102513500D03*
X119973500Y-104213500D03*
X118773500Y-101313500D03*
X118773500Y-104813500D03*
X119373500Y-101913500D03*
X118773500Y-103613500D03*
X118773500Y-99513500D03*
X120573500Y-101913500D03*
X120573500Y-104213500D03*
X119373500Y-99513500D03*
X119973500Y-103013500D03*
X119373500Y-103013500D03*
X118173500Y-105413500D03*
X118773500Y-100713500D03*
X119373500Y-103613500D03*
X119373500Y-104813500D03*
X119973500Y-103613500D03*
X119973500Y-102513500D03*
X120573500Y-104813500D03*
X118773500Y-101913500D03*
X118173500Y-101913500D03*
X120573500Y-101313500D03*
X119973500Y-104813500D03*
X118173500Y-103013500D03*
X120573500Y-102513500D03*
X119973500Y-101913500D03*
X118173500Y-99513500D03*
X118173500Y-100713500D03*
X119373500Y-100713500D03*
X120573500Y-105413500D03*
X120573500Y-103613500D03*
X119373500Y-101313500D03*
X119973500Y-100713500D03*
X118773500Y-105413500D03*
X118173500Y-103613500D03*
X118773500Y-103013500D03*
X119973500Y-100113500D03*
%TD*%
%TA.AperFunction,Conductor*%
%TO.N,GND*%
G36*
X198832396Y-76650736D02*
G01*
X198971417Y-76664428D01*
X198980839Y-76666302D01*
X199112205Y-76706151D01*
X199121072Y-76709824D01*
X199186123Y-76744595D01*
X199242144Y-76774539D01*
X199250130Y-76779875D01*
X199356245Y-76866961D01*
X199363038Y-76873754D01*
X199450124Y-76979869D01*
X199455460Y-76987855D01*
X199520173Y-77108923D01*
X199523849Y-77117798D01*
X199563697Y-77249161D01*
X199565571Y-77258582D01*
X199579264Y-77397603D01*
X199579500Y-77402406D01*
X199579500Y-130397593D01*
X199579264Y-130402396D01*
X199565571Y-130541417D01*
X199563697Y-130550838D01*
X199523849Y-130682201D01*
X199520173Y-130691076D01*
X199455460Y-130812144D01*
X199450124Y-130820130D01*
X199363038Y-130926245D01*
X199356245Y-130933038D01*
X199250130Y-131020124D01*
X199242144Y-131025460D01*
X199121076Y-131090173D01*
X199112201Y-131093849D01*
X198980838Y-131133697D01*
X198971417Y-131135571D01*
X198832396Y-131149264D01*
X198827593Y-131149500D01*
X198492467Y-131149500D01*
X198389316Y-131167687D01*
X198320062Y-131179899D01*
X198320061Y-131179899D01*
X198320057Y-131179900D01*
X198155556Y-131239774D01*
X198155548Y-131239778D01*
X198003945Y-131327307D01*
X198003939Y-131327312D01*
X197869838Y-131439835D01*
X197869835Y-131439838D01*
X197757312Y-131573939D01*
X197757307Y-131573945D01*
X197669778Y-131725548D01*
X197669774Y-131725556D01*
X197609900Y-131890057D01*
X197579500Y-132062467D01*
X197579500Y-136525943D01*
X197565148Y-136560591D01*
X196990591Y-137135148D01*
X196955943Y-137149500D01*
X180344057Y-137149500D01*
X180309409Y-137135148D01*
X179734851Y-136560590D01*
X179720499Y-136525942D01*
X179720499Y-131750822D01*
X179722245Y-131745250D01*
X179720499Y-131706825D01*
X179720499Y-131662672D01*
X179720498Y-131662670D01*
X179719557Y-131657938D01*
X179719889Y-131657871D01*
X179717817Y-131648584D01*
X179714706Y-131581107D01*
X179668650Y-131345271D01*
X179588449Y-131118759D01*
X179475843Y-130906487D01*
X179333274Y-130713059D01*
X179313154Y-130692826D01*
X179163843Y-130542678D01*
X178971212Y-130399030D01*
X178971210Y-130399029D01*
X178971209Y-130399028D01*
X178759569Y-130285238D01*
X178759564Y-130285236D01*
X178759560Y-130285234D01*
X178533512Y-130203775D01*
X178533506Y-130203773D01*
X178297937Y-130156402D01*
X178105949Y-130146601D01*
X178057954Y-130144151D01*
X178057953Y-130144151D01*
X177818779Y-130167286D01*
X177585600Y-130225304D01*
X177363474Y-130316948D01*
X177363470Y-130316950D01*
X177157214Y-130440234D01*
X176971307Y-130592478D01*
X176809785Y-130770378D01*
X176676145Y-130970080D01*
X176573291Y-131187253D01*
X176503458Y-131417174D01*
X176468160Y-131654845D01*
X176468159Y-131654854D01*
X176468082Y-131775016D01*
X176468082Y-131819168D01*
X176468756Y-131822991D01*
X176469500Y-131831500D01*
X176469500Y-136525943D01*
X176455148Y-136560591D01*
X175880591Y-137135148D01*
X175845943Y-137149500D01*
X167634057Y-137149500D01*
X167599409Y-137135148D01*
X167024852Y-136560591D01*
X167010500Y-136525943D01*
X167010500Y-131222163D01*
X167010500Y-131222157D01*
X166974783Y-131019596D01*
X166904434Y-130826315D01*
X166872139Y-130770378D01*
X166801594Y-130648190D01*
X166801591Y-130648186D01*
X166669379Y-130490621D01*
X166511814Y-130358409D01*
X166511813Y-130358408D01*
X166511809Y-130358405D01*
X166333691Y-130255569D01*
X166333683Y-130255565D01*
X166140408Y-130185218D01*
X166140405Y-130185217D01*
X166140404Y-130185217D01*
X165937843Y-130149500D01*
X165732157Y-130149500D01*
X165732156Y-130149500D01*
X165610952Y-130170871D01*
X165529596Y-130185217D01*
X165529595Y-130185217D01*
X165529591Y-130185218D01*
X165336316Y-130255565D01*
X165336308Y-130255569D01*
X165158190Y-130358405D01*
X165000621Y-130490621D01*
X164868405Y-130648190D01*
X164765569Y-130826308D01*
X164765565Y-130826316D01*
X164695218Y-131019591D01*
X164659500Y-131222156D01*
X164659500Y-136525943D01*
X164645148Y-136560591D01*
X164070591Y-137135148D01*
X164035943Y-137149500D01*
X147424057Y-137149500D01*
X147389409Y-137135148D01*
X146814852Y-136560591D01*
X146800500Y-136525943D01*
X146800500Y-134605198D01*
X147354500Y-134605198D01*
X147354500Y-134714801D01*
X147371874Y-134756744D01*
X147396443Y-134816058D01*
X147396444Y-134816059D01*
X147396445Y-134816061D01*
X147405736Y-134825352D01*
X147420088Y-134860000D01*
X147405736Y-134894648D01*
X147396444Y-134903940D01*
X147354500Y-135005198D01*
X147354500Y-135114801D01*
X147371874Y-135156744D01*
X147396443Y-135216058D01*
X147396444Y-135216059D01*
X147396445Y-135216061D01*
X147405736Y-135225352D01*
X147420088Y-135260000D01*
X147405736Y-135294648D01*
X147396444Y-135303940D01*
X147354500Y-135405198D01*
X147354500Y-135514801D01*
X147371874Y-135556744D01*
X147396443Y-135616058D01*
X147396444Y-135616059D01*
X147396445Y-135616061D01*
X147405736Y-135625352D01*
X147420088Y-135660000D01*
X147405736Y-135694648D01*
X147396444Y-135703940D01*
X147354500Y-135805198D01*
X147354500Y-135914801D01*
X147371874Y-135956744D01*
X147396443Y-136016058D01*
X147396444Y-136016059D01*
X147396445Y-136016061D01*
X147405736Y-136025352D01*
X147420088Y-136060000D01*
X147405736Y-136094648D01*
X147396444Y-136103940D01*
X147354500Y-136205198D01*
X147354500Y-136314801D01*
X147371874Y-136356744D01*
X147396443Y-136416058D01*
X147396444Y-136416059D01*
X147396445Y-136416061D01*
X147473939Y-136493555D01*
X147473940Y-136493555D01*
X147473942Y-136493557D01*
X147575200Y-136535500D01*
X147575202Y-136535500D01*
X147684798Y-136535500D01*
X147684800Y-136535500D01*
X147786058Y-136493557D01*
X147786060Y-136493555D01*
X147786061Y-136493555D01*
X147863555Y-136416061D01*
X147863555Y-136416060D01*
X147863557Y-136416058D01*
X147884730Y-136364941D01*
X147911249Y-136338424D01*
X147948752Y-136338424D01*
X147975269Y-136364941D01*
X147996443Y-136416058D01*
X147996444Y-136416059D01*
X147996445Y-136416061D01*
X148073939Y-136493555D01*
X148073940Y-136493555D01*
X148073942Y-136493557D01*
X148175200Y-136535500D01*
X148175202Y-136535500D01*
X148284798Y-136535500D01*
X148284800Y-136535500D01*
X148386058Y-136493557D01*
X148386060Y-136493555D01*
X148386061Y-136493555D01*
X148463555Y-136416061D01*
X148463555Y-136416060D01*
X148463557Y-136416058D01*
X148484730Y-136364941D01*
X148511249Y-136338424D01*
X148548752Y-136338424D01*
X148575269Y-136364941D01*
X148596443Y-136416058D01*
X148596444Y-136416059D01*
X148596445Y-136416061D01*
X148673939Y-136493555D01*
X148673940Y-136493555D01*
X148673942Y-136493557D01*
X148775200Y-136535500D01*
X148775202Y-136535500D01*
X148884798Y-136535500D01*
X148884800Y-136535500D01*
X148986058Y-136493557D01*
X148986060Y-136493555D01*
X148986061Y-136493555D01*
X149063555Y-136416061D01*
X149063555Y-136416060D01*
X149063557Y-136416058D01*
X149084730Y-136364941D01*
X149111249Y-136338424D01*
X149148752Y-136338424D01*
X149175269Y-136364941D01*
X149196443Y-136416058D01*
X149196444Y-136416059D01*
X149196445Y-136416061D01*
X149273939Y-136493555D01*
X149273940Y-136493555D01*
X149273942Y-136493557D01*
X149375200Y-136535500D01*
X149375202Y-136535500D01*
X149484798Y-136535500D01*
X149484800Y-136535500D01*
X149586058Y-136493557D01*
X149586060Y-136493555D01*
X149586061Y-136493555D01*
X149663555Y-136416061D01*
X149663555Y-136416060D01*
X149663557Y-136416058D01*
X149705500Y-136314800D01*
X149705500Y-136205200D01*
X149663557Y-136103942D01*
X149654263Y-136094648D01*
X149639911Y-136060002D01*
X149654260Y-136025354D01*
X149663557Y-136016058D01*
X149705500Y-135914800D01*
X149705500Y-135805200D01*
X149663557Y-135703942D01*
X149654263Y-135694648D01*
X149639911Y-135660002D01*
X149654260Y-135625354D01*
X149663557Y-135616058D01*
X149705500Y-135514800D01*
X149705500Y-135405200D01*
X149663557Y-135303942D01*
X149654263Y-135294648D01*
X149639911Y-135260002D01*
X149654260Y-135225354D01*
X149663557Y-135216058D01*
X149705500Y-135114800D01*
X149705500Y-135005200D01*
X149663557Y-134903942D01*
X149654263Y-134894648D01*
X149639911Y-134860002D01*
X149654260Y-134825354D01*
X149663557Y-134816058D01*
X149705500Y-134714800D01*
X149705500Y-134605200D01*
X149663557Y-134503942D01*
X149663555Y-134503940D01*
X149663555Y-134503939D01*
X149586061Y-134426445D01*
X149586059Y-134426444D01*
X149586058Y-134426443D01*
X149526744Y-134401874D01*
X149484801Y-134384500D01*
X149484800Y-134384500D01*
X149375200Y-134384500D01*
X149375198Y-134384500D01*
X149273940Y-134426444D01*
X149196445Y-134503939D01*
X149196443Y-134503940D01*
X149175270Y-134555057D01*
X149148751Y-134581575D01*
X149111248Y-134581575D01*
X149084730Y-134555057D01*
X149063556Y-134503940D01*
X148986061Y-134426445D01*
X148986059Y-134426444D01*
X148986058Y-134426443D01*
X148926744Y-134401874D01*
X148884801Y-134384500D01*
X148884800Y-134384500D01*
X148775200Y-134384500D01*
X148775198Y-134384500D01*
X148673940Y-134426444D01*
X148596445Y-134503939D01*
X148596443Y-134503940D01*
X148575270Y-134555057D01*
X148548751Y-134581575D01*
X148511248Y-134581575D01*
X148484730Y-134555057D01*
X148463556Y-134503940D01*
X148386061Y-134426445D01*
X148386059Y-134426444D01*
X148386058Y-134426443D01*
X148326744Y-134401874D01*
X148284801Y-134384500D01*
X148284800Y-134384500D01*
X148175200Y-134384500D01*
X148175198Y-134384500D01*
X148073940Y-134426444D01*
X147996445Y-134503939D01*
X147996443Y-134503940D01*
X147975270Y-134555057D01*
X147948751Y-134581575D01*
X147911248Y-134581575D01*
X147884730Y-134555057D01*
X147863556Y-134503940D01*
X147786061Y-134426445D01*
X147786059Y-134426444D01*
X147786058Y-134426443D01*
X147726744Y-134401874D01*
X147684801Y-134384500D01*
X147684800Y-134384500D01*
X147575200Y-134384500D01*
X147575198Y-134384500D01*
X147473940Y-134426444D01*
X147396444Y-134503940D01*
X147354500Y-134605198D01*
X146800500Y-134605198D01*
X146800500Y-132062474D01*
X146800500Y-132062468D01*
X146770101Y-131890062D01*
X146710225Y-131725555D01*
X146622692Y-131573945D01*
X146510163Y-131439837D01*
X146483149Y-131417170D01*
X146376060Y-131327312D01*
X146376054Y-131327307D01*
X146224451Y-131239778D01*
X146224443Y-131239774D01*
X146059942Y-131179900D01*
X146059943Y-131179900D01*
X146059938Y-131179899D01*
X145887532Y-131149500D01*
X145552407Y-131149500D01*
X145547604Y-131149264D01*
X145408582Y-131135571D01*
X145399161Y-131133697D01*
X145267798Y-131093849D01*
X145258923Y-131090173D01*
X145137855Y-131025460D01*
X145129869Y-131020124D01*
X145023754Y-130933038D01*
X145016961Y-130926245D01*
X144929875Y-130820130D01*
X144924539Y-130812144D01*
X144859824Y-130691072D01*
X144856151Y-130682205D01*
X144816302Y-130550838D01*
X144814428Y-130541417D01*
X144800736Y-130402396D01*
X144800500Y-130397593D01*
X144800500Y-127301583D01*
X144769709Y-127107176D01*
X144769709Y-127107174D01*
X144708884Y-126919975D01*
X144686223Y-126875500D01*
X144619527Y-126744600D01*
X144619525Y-126744597D01*
X144619524Y-126744595D01*
X144503828Y-126585354D01*
X144503824Y-126585350D01*
X144503822Y-126585347D01*
X144364652Y-126446177D01*
X144364653Y-126446177D01*
X144314860Y-126410000D01*
X144205405Y-126330476D01*
X144205403Y-126330475D01*
X144205399Y-126330472D01*
X144030026Y-126241116D01*
X143924954Y-126206976D01*
X143842826Y-126180291D01*
X143842823Y-126180290D01*
X143747535Y-126165198D01*
X150454500Y-126165198D01*
X150454500Y-126165200D01*
X150454500Y-126274800D01*
X150496443Y-126376058D01*
X150496444Y-126376059D01*
X150499126Y-126380074D01*
X150498002Y-126380824D01*
X150510088Y-126410000D01*
X150498002Y-126439175D01*
X150499126Y-126439926D01*
X150496444Y-126443940D01*
X150454500Y-126545198D01*
X150454500Y-126545200D01*
X150454500Y-126654800D01*
X150496443Y-126756058D01*
X150496444Y-126756059D01*
X150496445Y-126756061D01*
X150573939Y-126833555D01*
X150573940Y-126833555D01*
X150573942Y-126833557D01*
X150675200Y-126875500D01*
X150675202Y-126875500D01*
X150784798Y-126875500D01*
X150784800Y-126875500D01*
X150886058Y-126833557D01*
X150886060Y-126833555D01*
X150886061Y-126833555D01*
X150963555Y-126756061D01*
X150963555Y-126756060D01*
X150963557Y-126756058D01*
X151005500Y-126654800D01*
X151005500Y-126545200D01*
X150963557Y-126443942D01*
X150963555Y-126443940D01*
X150960874Y-126439926D01*
X150961998Y-126439175D01*
X150949911Y-126410009D01*
X150961993Y-126380822D01*
X150960874Y-126380074D01*
X150963552Y-126376062D01*
X150963557Y-126376058D01*
X151005500Y-126274800D01*
X151005500Y-126165200D01*
X150963557Y-126063942D01*
X150963555Y-126063940D01*
X150963555Y-126063939D01*
X150886061Y-125986445D01*
X150886059Y-125986444D01*
X150886058Y-125986443D01*
X150826744Y-125961874D01*
X150784801Y-125944500D01*
X150784800Y-125944500D01*
X150675200Y-125944500D01*
X150675198Y-125944500D01*
X150573940Y-125986444D01*
X150496444Y-126063940D01*
X150454500Y-126165198D01*
X143747535Y-126165198D01*
X143693482Y-126156637D01*
X143648417Y-126149500D01*
X143648416Y-126149500D01*
X115632407Y-126149500D01*
X115627604Y-126149264D01*
X115488582Y-126135571D01*
X115479161Y-126133697D01*
X115347798Y-126093849D01*
X115338923Y-126090173D01*
X115217855Y-126025460D01*
X115209869Y-126020124D01*
X115103754Y-125933038D01*
X115096961Y-125926245D01*
X115009875Y-125820130D01*
X115004539Y-125812144D01*
X114939824Y-125691072D01*
X114936151Y-125682205D01*
X114896302Y-125550838D01*
X114894428Y-125541417D01*
X114880736Y-125402396D01*
X114880500Y-125397593D01*
X114880500Y-123557001D01*
X183647500Y-123557001D01*
X183647500Y-123694998D01*
X183674417Y-123830318D01*
X183674420Y-123830328D01*
X183727225Y-123957811D01*
X183758137Y-124004074D01*
X183803883Y-124072539D01*
X183901460Y-124170116D01*
X183947102Y-124200613D01*
X184016189Y-124246775D01*
X184143672Y-124299580D01*
X184143678Y-124299581D01*
X184143681Y-124299582D01*
X184279001Y-124326499D01*
X184279007Y-124326500D01*
X184416993Y-124326500D01*
X184552328Y-124299580D01*
X184679811Y-124246775D01*
X184794542Y-124170114D01*
X184892114Y-124072542D01*
X184968775Y-123957811D01*
X185021580Y-123830328D01*
X185048500Y-123694993D01*
X185048500Y-123557007D01*
X185021580Y-123421672D01*
X184968775Y-123294189D01*
X184922613Y-123225102D01*
X184892116Y-123179460D01*
X184794539Y-123081883D01*
X184726074Y-123036137D01*
X184679811Y-123005225D01*
X184679808Y-123005223D01*
X184679807Y-123005223D01*
X184552329Y-122952420D01*
X184552318Y-122952417D01*
X184416998Y-122925500D01*
X184416993Y-122925500D01*
X184279007Y-122925500D01*
X184279001Y-122925500D01*
X184143681Y-122952417D01*
X184143670Y-122952420D01*
X184016192Y-123005223D01*
X183901460Y-123081883D01*
X183803883Y-123179460D01*
X183727223Y-123294192D01*
X183674420Y-123421670D01*
X183674417Y-123421681D01*
X183647500Y-123557001D01*
X114880500Y-123557001D01*
X114880500Y-121515198D01*
X197774500Y-121515198D01*
X197774500Y-121515200D01*
X197774500Y-121624800D01*
X197816443Y-121726058D01*
X197816444Y-121726059D01*
X197816445Y-121726061D01*
X197893939Y-121803555D01*
X197893940Y-121803555D01*
X197893942Y-121803557D01*
X197995200Y-121845500D01*
X197995202Y-121845500D01*
X198104798Y-121845500D01*
X198104800Y-121845500D01*
X198206058Y-121803557D01*
X198206060Y-121803555D01*
X198206061Y-121803555D01*
X198283555Y-121726061D01*
X198283555Y-121726060D01*
X198283557Y-121726058D01*
X198325500Y-121624800D01*
X198325500Y-121515200D01*
X198283557Y-121413942D01*
X198283555Y-121413940D01*
X198283555Y-121413939D01*
X198206061Y-121336445D01*
X198206059Y-121336444D01*
X198206058Y-121336443D01*
X198146744Y-121311874D01*
X198104801Y-121294500D01*
X198104800Y-121294500D01*
X197995200Y-121294500D01*
X197995198Y-121294500D01*
X197893940Y-121336444D01*
X197816444Y-121413940D01*
X197774500Y-121515198D01*
X114880500Y-121515198D01*
X114880500Y-120625198D01*
X179684500Y-120625198D01*
X179684500Y-120625200D01*
X179684500Y-120734800D01*
X179726443Y-120836058D01*
X179726444Y-120836059D01*
X179726445Y-120836061D01*
X179803939Y-120913555D01*
X179803940Y-120913555D01*
X179803942Y-120913557D01*
X179905200Y-120955500D01*
X179905202Y-120955500D01*
X180014798Y-120955500D01*
X180014800Y-120955500D01*
X180116058Y-120913557D01*
X180116060Y-120913555D01*
X180116061Y-120913555D01*
X180193555Y-120836061D01*
X180193555Y-120836060D01*
X180193557Y-120836058D01*
X180235500Y-120734800D01*
X180235500Y-120625200D01*
X180193557Y-120523942D01*
X180193555Y-120523940D01*
X180193555Y-120523939D01*
X180116061Y-120446445D01*
X180116059Y-120446444D01*
X180116058Y-120446443D01*
X180056744Y-120421874D01*
X180014801Y-120404500D01*
X180014800Y-120404500D01*
X179905200Y-120404500D01*
X179905198Y-120404500D01*
X179803940Y-120446444D01*
X179726444Y-120523940D01*
X179684500Y-120625198D01*
X114880500Y-120625198D01*
X114880500Y-120115198D01*
X182664500Y-120115198D01*
X182664500Y-120115200D01*
X182664500Y-120224800D01*
X182706443Y-120326058D01*
X182706444Y-120326059D01*
X182706445Y-120326061D01*
X182783939Y-120403555D01*
X182783940Y-120403555D01*
X182783942Y-120403557D01*
X182885200Y-120445500D01*
X182885202Y-120445500D01*
X182994798Y-120445500D01*
X182994800Y-120445500D01*
X183096058Y-120403557D01*
X183096060Y-120403555D01*
X183096061Y-120403555D01*
X183173555Y-120326061D01*
X183173555Y-120326060D01*
X183173557Y-120326058D01*
X183215500Y-120224800D01*
X183215500Y-120115200D01*
X183215498Y-120115195D01*
X183204700Y-120089125D01*
X183198931Y-120075198D01*
X198444500Y-120075198D01*
X198444500Y-120075200D01*
X198444500Y-120184800D01*
X198486443Y-120286058D01*
X198486444Y-120286059D01*
X198486445Y-120286061D01*
X198563939Y-120363555D01*
X198563940Y-120363555D01*
X198563942Y-120363557D01*
X198665200Y-120405500D01*
X198665202Y-120405500D01*
X198774798Y-120405500D01*
X198774800Y-120405500D01*
X198876058Y-120363557D01*
X198876060Y-120363555D01*
X198876061Y-120363555D01*
X198953555Y-120286061D01*
X198953555Y-120286060D01*
X198953557Y-120286058D01*
X198995500Y-120184800D01*
X198995500Y-120075200D01*
X198953557Y-119973942D01*
X198953555Y-119973940D01*
X198953555Y-119973939D01*
X198876061Y-119896445D01*
X198876059Y-119896444D01*
X198876058Y-119896443D01*
X198816744Y-119871874D01*
X198774801Y-119854500D01*
X198774800Y-119854500D01*
X198665200Y-119854500D01*
X198665198Y-119854500D01*
X198563940Y-119896444D01*
X198486444Y-119973940D01*
X198444500Y-120075198D01*
X183198931Y-120075198D01*
X183173556Y-120013940D01*
X183096061Y-119936445D01*
X183096059Y-119936444D01*
X183096058Y-119936443D01*
X182999496Y-119896445D01*
X182994801Y-119894500D01*
X182994800Y-119894500D01*
X182885200Y-119894500D01*
X182885198Y-119894500D01*
X182783940Y-119936444D01*
X182706444Y-120013940D01*
X182664500Y-120115198D01*
X114880500Y-120115198D01*
X114880500Y-119275198D01*
X196794500Y-119275198D01*
X196794500Y-119275200D01*
X196794500Y-119384800D01*
X196836443Y-119486058D01*
X196836444Y-119486059D01*
X196836445Y-119486061D01*
X196913939Y-119563555D01*
X196913940Y-119563555D01*
X196913942Y-119563557D01*
X197015200Y-119605500D01*
X197015202Y-119605500D01*
X197124798Y-119605500D01*
X197124800Y-119605500D01*
X197226058Y-119563557D01*
X197226060Y-119563555D01*
X197226061Y-119563555D01*
X197303555Y-119486061D01*
X197303555Y-119486060D01*
X197303557Y-119486058D01*
X197345500Y-119384800D01*
X197345500Y-119275200D01*
X197303557Y-119173942D01*
X197303555Y-119173940D01*
X197303555Y-119173939D01*
X197226061Y-119096445D01*
X197226059Y-119096444D01*
X197226058Y-119096443D01*
X197166744Y-119071874D01*
X197124801Y-119054500D01*
X197124800Y-119054500D01*
X197015200Y-119054500D01*
X197015198Y-119054500D01*
X196913940Y-119096444D01*
X196836444Y-119173940D01*
X196794500Y-119275198D01*
X114880500Y-119275198D01*
X114880500Y-118865198D01*
X182634500Y-118865198D01*
X182634500Y-118865200D01*
X182634500Y-118974800D01*
X182676443Y-119076058D01*
X182676444Y-119076059D01*
X182676445Y-119076061D01*
X182753939Y-119153555D01*
X182753940Y-119153555D01*
X182753942Y-119153557D01*
X182855200Y-119195500D01*
X182855202Y-119195500D01*
X182964798Y-119195500D01*
X182964800Y-119195500D01*
X183066058Y-119153557D01*
X183066060Y-119153555D01*
X183066061Y-119153555D01*
X183143555Y-119076061D01*
X183143555Y-119076060D01*
X183143557Y-119076058D01*
X183185500Y-118974800D01*
X183185500Y-118865200D01*
X183143557Y-118763942D01*
X183143555Y-118763940D01*
X183143555Y-118763939D01*
X183066061Y-118686445D01*
X183066059Y-118686444D01*
X183066058Y-118686443D01*
X183006744Y-118661874D01*
X182964801Y-118644500D01*
X182964800Y-118644500D01*
X182855200Y-118644500D01*
X182855198Y-118644500D01*
X182753940Y-118686444D01*
X182676444Y-118763940D01*
X182634500Y-118865198D01*
X114880500Y-118865198D01*
X114880500Y-118025198D01*
X183134500Y-118025198D01*
X183134500Y-118025200D01*
X183134500Y-118134800D01*
X183176443Y-118236058D01*
X183176444Y-118236059D01*
X183176445Y-118236061D01*
X183253939Y-118313555D01*
X183253940Y-118313555D01*
X183253942Y-118313557D01*
X183355200Y-118355500D01*
X183355202Y-118355500D01*
X183464798Y-118355500D01*
X183464800Y-118355500D01*
X183566058Y-118313557D01*
X183566060Y-118313555D01*
X183566061Y-118313555D01*
X183643555Y-118236061D01*
X183643555Y-118236060D01*
X183643557Y-118236058D01*
X183685500Y-118134800D01*
X183685500Y-118105198D01*
X197514500Y-118105198D01*
X197514500Y-118105200D01*
X197514500Y-118214800D01*
X197556443Y-118316058D01*
X197556444Y-118316059D01*
X197556445Y-118316061D01*
X197633939Y-118393555D01*
X197633940Y-118393555D01*
X197633942Y-118393557D01*
X197735200Y-118435500D01*
X197735202Y-118435500D01*
X197844798Y-118435500D01*
X197844800Y-118435500D01*
X197946058Y-118393557D01*
X197946060Y-118393555D01*
X197946061Y-118393555D01*
X198023555Y-118316061D01*
X198023555Y-118316060D01*
X198023557Y-118316058D01*
X198065500Y-118214800D01*
X198065500Y-118105200D01*
X198023557Y-118003942D01*
X198023555Y-118003940D01*
X198023555Y-118003939D01*
X197946061Y-117926445D01*
X197946059Y-117926444D01*
X197946058Y-117926443D01*
X197886744Y-117901874D01*
X197844801Y-117884500D01*
X197844800Y-117884500D01*
X197735200Y-117884500D01*
X197735198Y-117884500D01*
X197633940Y-117926444D01*
X197556444Y-118003940D01*
X197514500Y-118105198D01*
X183685500Y-118105198D01*
X183685500Y-118025200D01*
X183643557Y-117923942D01*
X183643555Y-117923940D01*
X183643555Y-117923939D01*
X183566061Y-117846445D01*
X183566059Y-117846444D01*
X183566058Y-117846443D01*
X183506744Y-117821874D01*
X183464801Y-117804500D01*
X183464800Y-117804500D01*
X183355200Y-117804500D01*
X183355198Y-117804500D01*
X183253940Y-117846444D01*
X183176444Y-117923940D01*
X183134500Y-118025198D01*
X114880500Y-118025198D01*
X114880500Y-117065198D01*
X182294500Y-117065198D01*
X182294500Y-117065200D01*
X182294500Y-117174800D01*
X182336443Y-117276058D01*
X182336444Y-117276059D01*
X182336445Y-117276061D01*
X182413939Y-117353555D01*
X182413940Y-117353555D01*
X182413942Y-117353557D01*
X182515200Y-117395500D01*
X182515202Y-117395500D01*
X182546606Y-117395500D01*
X182581254Y-117409852D01*
X182595606Y-117444500D01*
X182591876Y-117463252D01*
X182574500Y-117505198D01*
X182574500Y-117505200D01*
X182574500Y-117614800D01*
X182616443Y-117716058D01*
X182616444Y-117716059D01*
X182616445Y-117716061D01*
X182693939Y-117793555D01*
X182693940Y-117793555D01*
X182693942Y-117793557D01*
X182795200Y-117835500D01*
X182795202Y-117835500D01*
X182904798Y-117835500D01*
X182904800Y-117835500D01*
X183006058Y-117793557D01*
X183006060Y-117793555D01*
X183006061Y-117793555D01*
X183083555Y-117716061D01*
X183083555Y-117716060D01*
X183083557Y-117716058D01*
X183125500Y-117614800D01*
X183125500Y-117505200D01*
X183083557Y-117403942D01*
X183083555Y-117403940D01*
X183083555Y-117403939D01*
X183006061Y-117326445D01*
X183006059Y-117326444D01*
X183006058Y-117326443D01*
X182946744Y-117301874D01*
X182904801Y-117284500D01*
X182904800Y-117284500D01*
X182873394Y-117284500D01*
X182838746Y-117270148D01*
X182824394Y-117235500D01*
X182828124Y-117216748D01*
X182845500Y-117174800D01*
X182845500Y-117065200D01*
X182845499Y-117065198D01*
X194704500Y-117065198D01*
X194704500Y-117065200D01*
X194704500Y-117174800D01*
X194746443Y-117276058D01*
X194746444Y-117276059D01*
X194746445Y-117276061D01*
X194823939Y-117353555D01*
X194823940Y-117353555D01*
X194823942Y-117353557D01*
X194925200Y-117395500D01*
X194925202Y-117395500D01*
X195034798Y-117395500D01*
X195034800Y-117395500D01*
X195136058Y-117353557D01*
X195136060Y-117353555D01*
X195136061Y-117353555D01*
X195213555Y-117276061D01*
X195213555Y-117276060D01*
X195213557Y-117276058D01*
X195255500Y-117174800D01*
X195255500Y-117065200D01*
X195213557Y-116963942D01*
X195213555Y-116963940D01*
X195213555Y-116963939D01*
X195136061Y-116886445D01*
X195136059Y-116886444D01*
X195136058Y-116886443D01*
X195076744Y-116861874D01*
X195034801Y-116844500D01*
X195034800Y-116844500D01*
X194925200Y-116844500D01*
X194925198Y-116844500D01*
X194823940Y-116886444D01*
X194746444Y-116963940D01*
X194704500Y-117065198D01*
X182845499Y-117065198D01*
X182803557Y-116963942D01*
X182803555Y-116963940D01*
X182803555Y-116963939D01*
X182726061Y-116886445D01*
X182726059Y-116886444D01*
X182726058Y-116886443D01*
X182666744Y-116861874D01*
X182624801Y-116844500D01*
X182624800Y-116844500D01*
X182515200Y-116844500D01*
X182515198Y-116844500D01*
X182413940Y-116886444D01*
X182336444Y-116963940D01*
X182294500Y-117065198D01*
X114880500Y-117065198D01*
X114880500Y-116508467D01*
X182891344Y-116508467D01*
X182891344Y-116508469D01*
X182891344Y-116618069D01*
X182933287Y-116719327D01*
X182933288Y-116719328D01*
X182933289Y-116719330D01*
X183010783Y-116796824D01*
X183010784Y-116796824D01*
X183010786Y-116796826D01*
X183112044Y-116838769D01*
X183112046Y-116838769D01*
X183221642Y-116838769D01*
X183221644Y-116838769D01*
X183322902Y-116796826D01*
X183322904Y-116796824D01*
X183322905Y-116796824D01*
X183400399Y-116719330D01*
X183400399Y-116719329D01*
X183400401Y-116719327D01*
X183442344Y-116618069D01*
X183442344Y-116508469D01*
X183400401Y-116407211D01*
X183400399Y-116407209D01*
X183400399Y-116407208D01*
X183322905Y-116329714D01*
X183322903Y-116329713D01*
X183322902Y-116329712D01*
X183262753Y-116304797D01*
X183221645Y-116287769D01*
X183221644Y-116287769D01*
X183112044Y-116287769D01*
X183112042Y-116287769D01*
X183010784Y-116329713D01*
X182933288Y-116407209D01*
X182891344Y-116508467D01*
X114880500Y-116508467D01*
X114880500Y-116195198D01*
X191964500Y-116195198D01*
X191964500Y-116304801D01*
X191974819Y-116329712D01*
X192006443Y-116406058D01*
X192006444Y-116406059D01*
X192006445Y-116406061D01*
X192083939Y-116483555D01*
X192083940Y-116483555D01*
X192083942Y-116483557D01*
X192185200Y-116525500D01*
X192185202Y-116525500D01*
X192294798Y-116525500D01*
X192294800Y-116525500D01*
X192367955Y-116495198D01*
X196834500Y-116495198D01*
X196834500Y-116604801D01*
X196851874Y-116646744D01*
X196876443Y-116706058D01*
X196876444Y-116706059D01*
X196876445Y-116706061D01*
X196953939Y-116783555D01*
X196953940Y-116783555D01*
X196953942Y-116783557D01*
X197055200Y-116825500D01*
X197055202Y-116825500D01*
X197164798Y-116825500D01*
X197164800Y-116825500D01*
X197266058Y-116783557D01*
X197266060Y-116783555D01*
X197266061Y-116783555D01*
X197343555Y-116706061D01*
X197343555Y-116706060D01*
X197343557Y-116706058D01*
X197385500Y-116604800D01*
X197385500Y-116495200D01*
X197343557Y-116393942D01*
X197343555Y-116393940D01*
X197343555Y-116393939D01*
X197266061Y-116316445D01*
X197266059Y-116316444D01*
X197266058Y-116316443D01*
X197196834Y-116287769D01*
X197164801Y-116274500D01*
X197164800Y-116274500D01*
X197055200Y-116274500D01*
X197055198Y-116274500D01*
X196953940Y-116316444D01*
X196876444Y-116393940D01*
X196834500Y-116495198D01*
X192367955Y-116495198D01*
X192396058Y-116483557D01*
X192396060Y-116483555D01*
X192396061Y-116483555D01*
X192473555Y-116406061D01*
X192473555Y-116406060D01*
X192473557Y-116406058D01*
X192515500Y-116304800D01*
X192515500Y-116195200D01*
X192473557Y-116093942D01*
X192473555Y-116093940D01*
X192473555Y-116093939D01*
X192396061Y-116016445D01*
X192396059Y-116016444D01*
X192396058Y-116016443D01*
X192336744Y-115991874D01*
X192294801Y-115974500D01*
X192294800Y-115974500D01*
X192185200Y-115974500D01*
X192185198Y-115974500D01*
X192083940Y-116016444D01*
X192006444Y-116093940D01*
X191964500Y-116195198D01*
X114880500Y-116195198D01*
X114880500Y-115845198D01*
X182384500Y-115845198D01*
X182384500Y-115845200D01*
X182384500Y-115954800D01*
X182426443Y-116056058D01*
X182426444Y-116056059D01*
X182426445Y-116056061D01*
X182503939Y-116133555D01*
X182503940Y-116133555D01*
X182503942Y-116133557D01*
X182605200Y-116175500D01*
X182605202Y-116175500D01*
X182714798Y-116175500D01*
X182714800Y-116175500D01*
X182816058Y-116133557D01*
X182816060Y-116133555D01*
X182816061Y-116133555D01*
X182893555Y-116056061D01*
X182893555Y-116056060D01*
X182893557Y-116056058D01*
X182935500Y-115954800D01*
X182935500Y-115845200D01*
X182893557Y-115743942D01*
X182893555Y-115743940D01*
X182893555Y-115743939D01*
X182816061Y-115666445D01*
X182816059Y-115666444D01*
X182816058Y-115666443D01*
X182756744Y-115641874D01*
X182714801Y-115624500D01*
X182714800Y-115624500D01*
X182605200Y-115624500D01*
X182605198Y-115624500D01*
X182503940Y-115666444D01*
X182426444Y-115743940D01*
X182384500Y-115845198D01*
X114880500Y-115845198D01*
X114880500Y-115220706D01*
X190920674Y-115220706D01*
X190920674Y-115330309D01*
X190926321Y-115343942D01*
X190962617Y-115431566D01*
X190962618Y-115431567D01*
X190962619Y-115431569D01*
X191040113Y-115509063D01*
X191040114Y-115509063D01*
X191040116Y-115509065D01*
X191141374Y-115551008D01*
X191141376Y-115551008D01*
X191250972Y-115551008D01*
X191250974Y-115551008D01*
X191352232Y-115509065D01*
X191352234Y-115509063D01*
X191352235Y-115509063D01*
X191416100Y-115445198D01*
X195874500Y-115445198D01*
X195874500Y-115445200D01*
X195874500Y-115554800D01*
X195916443Y-115656058D01*
X195916444Y-115656059D01*
X195916445Y-115656061D01*
X195993939Y-115733555D01*
X195993940Y-115733555D01*
X195993942Y-115733557D01*
X196095200Y-115775500D01*
X196095202Y-115775500D01*
X196204798Y-115775500D01*
X196204800Y-115775500D01*
X196306058Y-115733557D01*
X196306060Y-115733555D01*
X196306061Y-115733555D01*
X196383555Y-115656061D01*
X196383555Y-115656060D01*
X196383557Y-115656058D01*
X196425500Y-115554800D01*
X196425500Y-115445200D01*
X196383557Y-115343942D01*
X196383555Y-115343940D01*
X196383555Y-115343939D01*
X196306061Y-115266445D01*
X196306059Y-115266444D01*
X196306058Y-115266443D01*
X196246744Y-115241874D01*
X196204801Y-115224500D01*
X196204800Y-115224500D01*
X196095200Y-115224500D01*
X196095198Y-115224500D01*
X195993940Y-115266444D01*
X195916444Y-115343940D01*
X195874500Y-115445198D01*
X191416100Y-115445198D01*
X191429729Y-115431569D01*
X191429729Y-115431568D01*
X191429731Y-115431566D01*
X191471674Y-115330308D01*
X191471674Y-115220708D01*
X191429731Y-115119450D01*
X191429729Y-115119448D01*
X191429729Y-115119447D01*
X191352235Y-115041953D01*
X191352233Y-115041952D01*
X191352232Y-115041951D01*
X191292918Y-115017382D01*
X191250975Y-115000008D01*
X191250974Y-115000008D01*
X191141374Y-115000008D01*
X191141372Y-115000008D01*
X191040114Y-115041952D01*
X190962618Y-115119448D01*
X190920674Y-115220706D01*
X114880500Y-115220706D01*
X114880500Y-108943698D01*
X117898000Y-108943698D01*
X117898000Y-109053301D01*
X117915374Y-109095244D01*
X117939943Y-109154558D01*
X117939944Y-109154559D01*
X117939945Y-109154561D01*
X118017440Y-109232056D01*
X118068557Y-109253230D01*
X118095075Y-109279749D01*
X118095075Y-109317252D01*
X118068557Y-109343770D01*
X118017440Y-109364943D01*
X118017439Y-109364945D01*
X117939944Y-109442440D01*
X117898000Y-109543698D01*
X117898000Y-109653301D01*
X117915374Y-109695244D01*
X117939943Y-109754558D01*
X117939944Y-109754559D01*
X117939945Y-109754561D01*
X118017440Y-109832056D01*
X118017441Y-109832056D01*
X118017442Y-109832057D01*
X118041728Y-109842116D01*
X118068557Y-109853230D01*
X118095075Y-109879749D01*
X118095075Y-109917252D01*
X118068557Y-109943770D01*
X118017440Y-109964943D01*
X118017439Y-109964945D01*
X117939944Y-110042440D01*
X117898000Y-110143698D01*
X117898000Y-110253301D01*
X117911694Y-110286361D01*
X117939943Y-110354558D01*
X117939944Y-110354559D01*
X117939945Y-110354561D01*
X118017440Y-110432056D01*
X118068557Y-110453230D01*
X118095075Y-110479749D01*
X118095075Y-110517252D01*
X118068557Y-110543770D01*
X118017440Y-110564943D01*
X118017439Y-110564945D01*
X117939944Y-110642440D01*
X117898000Y-110743698D01*
X117898000Y-110853301D01*
X117915374Y-110895244D01*
X117939943Y-110954558D01*
X117939944Y-110954559D01*
X117939945Y-110954561D01*
X118017440Y-111032056D01*
X118068557Y-111053230D01*
X118095075Y-111079749D01*
X118095075Y-111117252D01*
X118068557Y-111143770D01*
X118017440Y-111164943D01*
X118017439Y-111164945D01*
X117939944Y-111242440D01*
X117898000Y-111343698D01*
X117898000Y-111453301D01*
X117914833Y-111493939D01*
X117939943Y-111554558D01*
X117939944Y-111554559D01*
X117939945Y-111554561D01*
X118017440Y-111632056D01*
X118068557Y-111653230D01*
X118095075Y-111679749D01*
X118095075Y-111717252D01*
X118068557Y-111743770D01*
X118017440Y-111764943D01*
X118017439Y-111764945D01*
X117939944Y-111842440D01*
X117898000Y-111943698D01*
X117898000Y-112053301D01*
X117915374Y-112095244D01*
X117939943Y-112154558D01*
X117939944Y-112154559D01*
X117939945Y-112154561D01*
X118006736Y-112221352D01*
X118021088Y-112256000D01*
X118006736Y-112290648D01*
X117939944Y-112357440D01*
X117898000Y-112458698D01*
X117898000Y-112568301D01*
X117915374Y-112610244D01*
X117939943Y-112669558D01*
X117939944Y-112669559D01*
X117939945Y-112669561D01*
X118017440Y-112747056D01*
X118068557Y-112768230D01*
X118095075Y-112794749D01*
X118095075Y-112832252D01*
X118068557Y-112858770D01*
X118017440Y-112879943D01*
X118017439Y-112879945D01*
X117939944Y-112957440D01*
X117898000Y-113058698D01*
X117898000Y-113168301D01*
X117915374Y-113210244D01*
X117939943Y-113269558D01*
X117939944Y-113269559D01*
X117939945Y-113269561D01*
X118017440Y-113347056D01*
X118068557Y-113368230D01*
X118095075Y-113394749D01*
X118095075Y-113432252D01*
X118068557Y-113458770D01*
X118017440Y-113479943D01*
X118017439Y-113479945D01*
X117939944Y-113557440D01*
X117898000Y-113658698D01*
X117898000Y-113768301D01*
X117913118Y-113804797D01*
X117939943Y-113869558D01*
X117939944Y-113869559D01*
X117939945Y-113869561D01*
X118017440Y-113947056D01*
X118068557Y-113968230D01*
X118095075Y-113994749D01*
X118095075Y-114032252D01*
X118068557Y-114058770D01*
X118017440Y-114079943D01*
X118017439Y-114079945D01*
X117939944Y-114157440D01*
X117939943Y-114157441D01*
X117939943Y-114157442D01*
X117932748Y-114174812D01*
X117898000Y-114258698D01*
X117898000Y-114368301D01*
X117912603Y-114403555D01*
X117939943Y-114469558D01*
X117939944Y-114469559D01*
X117939945Y-114469561D01*
X118017440Y-114547056D01*
X118068557Y-114568230D01*
X118095075Y-114594749D01*
X118095075Y-114632252D01*
X118068557Y-114658770D01*
X118017440Y-114679943D01*
X118017439Y-114679945D01*
X117939944Y-114757440D01*
X117898000Y-114858698D01*
X117898000Y-114968301D01*
X117911134Y-115000008D01*
X117939943Y-115069558D01*
X117939944Y-115069559D01*
X117939945Y-115069561D01*
X118017439Y-115147055D01*
X118017440Y-115147055D01*
X118017442Y-115147057D01*
X118118700Y-115189000D01*
X118118702Y-115189000D01*
X118228298Y-115189000D01*
X118228300Y-115189000D01*
X118329558Y-115147057D01*
X118329560Y-115147055D01*
X118329561Y-115147055D01*
X118407055Y-115069561D01*
X118407055Y-115069560D01*
X118407057Y-115069558D01*
X118428230Y-115018441D01*
X118454749Y-114991924D01*
X118492252Y-114991924D01*
X118518769Y-115018441D01*
X118539943Y-115069558D01*
X118539944Y-115069559D01*
X118539945Y-115069561D01*
X118617439Y-115147055D01*
X118617440Y-115147055D01*
X118617442Y-115147057D01*
X118718700Y-115189000D01*
X118718702Y-115189000D01*
X118828298Y-115189000D01*
X118828300Y-115189000D01*
X118929558Y-115147057D01*
X118929560Y-115147055D01*
X118929561Y-115147055D01*
X119007055Y-115069561D01*
X119007055Y-115069560D01*
X119007057Y-115069558D01*
X119028230Y-115018441D01*
X119054749Y-114991924D01*
X119092252Y-114991924D01*
X119118769Y-115018441D01*
X119139943Y-115069558D01*
X119139944Y-115069559D01*
X119139945Y-115069561D01*
X119217439Y-115147055D01*
X119217440Y-115147055D01*
X119217442Y-115147057D01*
X119318700Y-115189000D01*
X119318702Y-115189000D01*
X119428298Y-115189000D01*
X119428300Y-115189000D01*
X119529558Y-115147057D01*
X119529560Y-115147055D01*
X119529561Y-115147055D01*
X119607055Y-115069561D01*
X119607055Y-115069560D01*
X119607057Y-115069558D01*
X119628230Y-115018441D01*
X119654749Y-114991924D01*
X119692252Y-114991924D01*
X119718769Y-115018441D01*
X119739943Y-115069558D01*
X119739944Y-115069559D01*
X119739945Y-115069561D01*
X119817439Y-115147055D01*
X119817440Y-115147055D01*
X119817442Y-115147057D01*
X119918700Y-115189000D01*
X119918702Y-115189000D01*
X120028298Y-115189000D01*
X120028300Y-115189000D01*
X120129558Y-115147057D01*
X120129560Y-115147055D01*
X120129561Y-115147055D01*
X120207055Y-115069561D01*
X120207055Y-115069560D01*
X120207057Y-115069558D01*
X120249000Y-114968300D01*
X120249000Y-114858700D01*
X120207057Y-114757442D01*
X120207055Y-114757440D01*
X120207055Y-114757439D01*
X120129561Y-114679945D01*
X120129559Y-114679944D01*
X120129558Y-114679943D01*
X120078441Y-114658769D01*
X120051924Y-114632251D01*
X120051924Y-114594748D01*
X120078441Y-114568230D01*
X120129558Y-114547057D01*
X120129560Y-114547055D01*
X120129561Y-114547055D01*
X120207055Y-114469561D01*
X120207055Y-114469560D01*
X120207057Y-114469558D01*
X120228230Y-114418441D01*
X120254749Y-114391924D01*
X120292252Y-114391924D01*
X120318769Y-114418441D01*
X120339943Y-114469558D01*
X120339944Y-114469559D01*
X120339945Y-114469561D01*
X120417439Y-114547055D01*
X120417440Y-114547055D01*
X120417442Y-114547057D01*
X120518700Y-114589000D01*
X120518702Y-114589000D01*
X120628298Y-114589000D01*
X120628300Y-114589000D01*
X120729558Y-114547057D01*
X120729560Y-114547055D01*
X120729561Y-114547055D01*
X120807055Y-114469561D01*
X120807055Y-114469560D01*
X120807057Y-114469558D01*
X120849000Y-114368300D01*
X120849000Y-114258700D01*
X120807057Y-114157442D01*
X120807055Y-114157440D01*
X120807055Y-114157439D01*
X120729561Y-114079945D01*
X120729559Y-114079944D01*
X120729558Y-114079943D01*
X120678441Y-114058769D01*
X120651924Y-114032251D01*
X120651924Y-113994748D01*
X120678441Y-113968230D01*
X120729558Y-113947057D01*
X120729560Y-113947055D01*
X120729561Y-113947055D01*
X120807055Y-113869561D01*
X120807055Y-113869560D01*
X120807057Y-113869558D01*
X120849000Y-113768300D01*
X120849000Y-113658700D01*
X120807057Y-113557442D01*
X120807055Y-113557440D01*
X120807055Y-113557439D01*
X120729561Y-113479945D01*
X120729559Y-113479944D01*
X120729558Y-113479943D01*
X120678441Y-113458769D01*
X120651924Y-113432251D01*
X120651924Y-113394748D01*
X120678441Y-113368230D01*
X120729558Y-113347057D01*
X120729560Y-113347055D01*
X120729561Y-113347055D01*
X120807055Y-113269561D01*
X120807055Y-113269560D01*
X120807057Y-113269558D01*
X120849000Y-113168300D01*
X120849000Y-113058700D01*
X120807057Y-112957442D01*
X120807055Y-112957440D01*
X120807055Y-112957439D01*
X120729561Y-112879945D01*
X120729559Y-112879944D01*
X120729558Y-112879943D01*
X120678441Y-112858769D01*
X120651924Y-112832251D01*
X120651924Y-112794748D01*
X120678441Y-112768230D01*
X120729558Y-112747057D01*
X120729560Y-112747055D01*
X120729561Y-112747055D01*
X120807055Y-112669561D01*
X120807055Y-112669560D01*
X120807057Y-112669558D01*
X120849000Y-112568300D01*
X120849000Y-112458700D01*
X120807057Y-112357442D01*
X120807055Y-112357440D01*
X120807055Y-112357439D01*
X120740264Y-112290648D01*
X120725912Y-112256000D01*
X120740264Y-112221352D01*
X120807055Y-112154561D01*
X120807055Y-112154560D01*
X120807057Y-112154558D01*
X120849000Y-112053300D01*
X120849000Y-111943700D01*
X120807057Y-111842442D01*
X120807055Y-111842440D01*
X120807055Y-111842439D01*
X120729561Y-111764945D01*
X120729559Y-111764944D01*
X120729558Y-111764943D01*
X120678441Y-111743769D01*
X120651924Y-111717251D01*
X120651924Y-111679748D01*
X120678441Y-111653230D01*
X120729558Y-111632057D01*
X120729560Y-111632055D01*
X120729561Y-111632055D01*
X120807055Y-111554561D01*
X120807055Y-111554560D01*
X120807057Y-111554558D01*
X120849000Y-111453300D01*
X120849000Y-111343700D01*
X120807057Y-111242442D01*
X120807055Y-111242440D01*
X120807055Y-111242439D01*
X120729561Y-111164945D01*
X120729559Y-111164944D01*
X120729558Y-111164943D01*
X120678441Y-111143769D01*
X120651924Y-111117251D01*
X120651924Y-111079748D01*
X120678441Y-111053230D01*
X120729558Y-111032057D01*
X120729560Y-111032055D01*
X120729561Y-111032055D01*
X120807055Y-110954561D01*
X120807055Y-110954560D01*
X120807057Y-110954558D01*
X120849000Y-110853300D01*
X120849000Y-110743700D01*
X120807057Y-110642442D01*
X120807055Y-110642440D01*
X120807055Y-110642439D01*
X120729561Y-110564945D01*
X120729559Y-110564944D01*
X120729558Y-110564943D01*
X120678441Y-110543769D01*
X120651924Y-110517251D01*
X120651924Y-110479748D01*
X120678441Y-110453230D01*
X120729558Y-110432057D01*
X120729560Y-110432055D01*
X120729561Y-110432055D01*
X120807055Y-110354561D01*
X120807055Y-110354560D01*
X120807057Y-110354558D01*
X120849000Y-110253300D01*
X120849000Y-110143700D01*
X120807057Y-110042442D01*
X120807055Y-110042440D01*
X120807055Y-110042439D01*
X120729561Y-109964945D01*
X120729559Y-109964944D01*
X120729558Y-109964943D01*
X120678441Y-109943769D01*
X120651924Y-109917251D01*
X120651924Y-109879748D01*
X120678441Y-109853230D01*
X120729558Y-109832057D01*
X120729560Y-109832055D01*
X120729561Y-109832055D01*
X120807055Y-109754561D01*
X120807055Y-109754560D01*
X120807057Y-109754558D01*
X120849000Y-109653300D01*
X120849000Y-109581303D01*
X121079500Y-109581303D01*
X121079500Y-109758696D01*
X121114103Y-109932656D01*
X121114106Y-109932667D01*
X121181985Y-110096543D01*
X121181987Y-110096547D01*
X121194451Y-110115200D01*
X121280533Y-110244032D01*
X121405967Y-110369466D01*
X121456988Y-110403557D01*
X121553453Y-110468013D01*
X121717334Y-110535894D01*
X121717340Y-110535895D01*
X121717343Y-110535896D01*
X121891303Y-110570499D01*
X121891309Y-110570500D01*
X122068691Y-110570500D01*
X122242666Y-110535894D01*
X122406547Y-110468013D01*
X122554035Y-110369464D01*
X122679464Y-110244035D01*
X122778013Y-110096547D01*
X122845894Y-109932666D01*
X122880500Y-109758691D01*
X122880500Y-109581309D01*
X122880499Y-109581303D01*
X122845896Y-109407343D01*
X122845893Y-109407332D01*
X122844720Y-109404500D01*
X122778013Y-109243453D01*
X122692317Y-109115200D01*
X122679466Y-109095967D01*
X122554032Y-108970533D01*
X122466021Y-108911726D01*
X122406547Y-108871987D01*
X122406544Y-108871985D01*
X122406543Y-108871985D01*
X122242667Y-108804106D01*
X122242656Y-108804103D01*
X122068696Y-108769500D01*
X122068691Y-108769500D01*
X121891309Y-108769500D01*
X121891303Y-108769500D01*
X121717343Y-108804103D01*
X121717332Y-108804106D01*
X121553456Y-108871985D01*
X121405967Y-108970533D01*
X121280533Y-109095967D01*
X121181985Y-109243456D01*
X121114106Y-109407332D01*
X121114103Y-109407343D01*
X121079500Y-109581303D01*
X120849000Y-109581303D01*
X120849000Y-109543700D01*
X120807057Y-109442442D01*
X120807055Y-109442440D01*
X120807055Y-109442439D01*
X120729561Y-109364945D01*
X120729559Y-109364944D01*
X120729558Y-109364943D01*
X120678441Y-109343769D01*
X120651924Y-109317251D01*
X120651924Y-109279748D01*
X120678441Y-109253230D01*
X120729558Y-109232057D01*
X120729560Y-109232055D01*
X120729561Y-109232055D01*
X120807055Y-109154561D01*
X120807055Y-109154560D01*
X120807057Y-109154558D01*
X120849000Y-109053300D01*
X120849000Y-108943700D01*
X120807057Y-108842442D01*
X120807055Y-108842440D01*
X120807055Y-108842439D01*
X120729561Y-108764945D01*
X120729559Y-108764944D01*
X120729558Y-108764943D01*
X120670244Y-108740374D01*
X120628301Y-108723000D01*
X120628300Y-108723000D01*
X120518700Y-108723000D01*
X120518698Y-108723000D01*
X120417440Y-108764944D01*
X120339945Y-108842439D01*
X120339943Y-108842440D01*
X120318770Y-108893557D01*
X120292251Y-108920075D01*
X120254748Y-108920075D01*
X120228230Y-108893557D01*
X120207056Y-108842440D01*
X120129561Y-108764945D01*
X120129559Y-108764944D01*
X120129558Y-108764943D01*
X120070244Y-108740374D01*
X120028301Y-108723000D01*
X120028300Y-108723000D01*
X119918700Y-108723000D01*
X119918698Y-108723000D01*
X119817440Y-108764944D01*
X119739945Y-108842439D01*
X119739943Y-108842440D01*
X119718770Y-108893557D01*
X119692251Y-108920075D01*
X119654748Y-108920075D01*
X119628230Y-108893557D01*
X119607056Y-108842440D01*
X119529561Y-108764945D01*
X119529559Y-108764944D01*
X119529558Y-108764943D01*
X119470244Y-108740374D01*
X119428301Y-108723000D01*
X119428300Y-108723000D01*
X119318700Y-108723000D01*
X119318698Y-108723000D01*
X119217440Y-108764944D01*
X119139945Y-108842439D01*
X119139943Y-108842440D01*
X119118770Y-108893557D01*
X119092251Y-108920075D01*
X119054748Y-108920075D01*
X119028230Y-108893557D01*
X119007056Y-108842440D01*
X118929561Y-108764945D01*
X118929559Y-108764944D01*
X118929558Y-108764943D01*
X118870244Y-108740374D01*
X118828301Y-108723000D01*
X118828300Y-108723000D01*
X118718700Y-108723000D01*
X118718698Y-108723000D01*
X118617440Y-108764944D01*
X118539945Y-108842439D01*
X118539943Y-108842440D01*
X118518770Y-108893557D01*
X118492251Y-108920075D01*
X118454748Y-108920075D01*
X118428230Y-108893557D01*
X118407056Y-108842440D01*
X118329561Y-108764945D01*
X118329559Y-108764944D01*
X118329558Y-108764943D01*
X118270244Y-108740374D01*
X118228301Y-108723000D01*
X118228300Y-108723000D01*
X118118700Y-108723000D01*
X118118698Y-108723000D01*
X118017440Y-108764944D01*
X117939944Y-108842440D01*
X117898000Y-108943698D01*
X114880500Y-108943698D01*
X114880500Y-108615198D01*
X131114500Y-108615198D01*
X131114500Y-108615200D01*
X131114500Y-108724800D01*
X131156443Y-108826058D01*
X131156444Y-108826059D01*
X131156445Y-108826061D01*
X131215736Y-108885352D01*
X131230088Y-108920000D01*
X131215736Y-108954648D01*
X131156444Y-109013940D01*
X131114500Y-109115198D01*
X131114500Y-109224801D01*
X131126276Y-109253230D01*
X131156443Y-109326058D01*
X131156444Y-109326059D01*
X131156445Y-109326061D01*
X131215736Y-109385352D01*
X131230088Y-109420000D01*
X131215736Y-109454648D01*
X131156444Y-109513940D01*
X131114500Y-109615198D01*
X131114500Y-109724801D01*
X131128538Y-109758691D01*
X131156443Y-109826058D01*
X131156444Y-109826059D01*
X131156445Y-109826061D01*
X131215736Y-109885352D01*
X131230088Y-109920000D01*
X131215736Y-109954648D01*
X131156444Y-110013940D01*
X131114500Y-110115198D01*
X131114500Y-110224801D01*
X131126304Y-110253297D01*
X131156443Y-110326058D01*
X131156444Y-110326059D01*
X131156445Y-110326061D01*
X131215736Y-110385352D01*
X131230088Y-110420000D01*
X131215736Y-110454648D01*
X131156444Y-110513940D01*
X131114500Y-110615198D01*
X131114500Y-110724801D01*
X131131874Y-110766744D01*
X131156443Y-110826058D01*
X131156444Y-110826059D01*
X131156445Y-110826061D01*
X131215736Y-110885352D01*
X131230088Y-110920000D01*
X131215736Y-110954648D01*
X131156444Y-111013940D01*
X131114500Y-111115198D01*
X131114500Y-111224801D01*
X131131874Y-111266744D01*
X131156443Y-111326058D01*
X131156444Y-111326059D01*
X131156445Y-111326061D01*
X131215736Y-111385352D01*
X131230088Y-111420000D01*
X131215736Y-111454648D01*
X131156444Y-111513940D01*
X131114500Y-111615198D01*
X131114500Y-111615200D01*
X131114500Y-111724800D01*
X131156443Y-111826058D01*
X131156444Y-111826059D01*
X131156445Y-111826061D01*
X131215736Y-111885352D01*
X131230088Y-111920000D01*
X131215736Y-111954648D01*
X131156444Y-112013940D01*
X131114500Y-112115198D01*
X131114500Y-112115200D01*
X131114500Y-112224800D01*
X131156443Y-112326058D01*
X131156444Y-112326059D01*
X131156445Y-112326061D01*
X131215736Y-112385352D01*
X131230088Y-112420000D01*
X131215736Y-112454648D01*
X131156444Y-112513940D01*
X131114500Y-112615198D01*
X131114500Y-112615200D01*
X131114500Y-112724800D01*
X131156443Y-112826058D01*
X131156444Y-112826059D01*
X131156445Y-112826061D01*
X131215736Y-112885352D01*
X131230088Y-112920000D01*
X131215736Y-112954648D01*
X131156444Y-113013940D01*
X131114500Y-113115198D01*
X131114500Y-113115200D01*
X131114500Y-113224800D01*
X131156443Y-113326058D01*
X131156444Y-113326059D01*
X131156445Y-113326061D01*
X131233939Y-113403555D01*
X131233940Y-113403555D01*
X131233942Y-113403557D01*
X131335200Y-113445500D01*
X131335202Y-113445500D01*
X131444798Y-113445500D01*
X131444800Y-113445500D01*
X131546058Y-113403557D01*
X131546060Y-113403555D01*
X131546061Y-113403555D01*
X131605352Y-113344264D01*
X131640000Y-113329912D01*
X131674648Y-113344264D01*
X131715736Y-113385352D01*
X131730088Y-113420000D01*
X131715736Y-113454648D01*
X131656444Y-113513940D01*
X131614500Y-113615198D01*
X131614500Y-113615200D01*
X131614500Y-113724800D01*
X131656443Y-113826058D01*
X131656444Y-113826059D01*
X131656445Y-113826061D01*
X131733939Y-113903555D01*
X131733940Y-113903555D01*
X131733942Y-113903557D01*
X131835200Y-113945500D01*
X131835202Y-113945500D01*
X131944798Y-113945500D01*
X131944800Y-113945500D01*
X132046058Y-113903557D01*
X132046060Y-113903555D01*
X132046061Y-113903555D01*
X132105352Y-113844264D01*
X132140000Y-113829912D01*
X132174648Y-113844264D01*
X132215736Y-113885352D01*
X132230088Y-113920000D01*
X132215736Y-113954648D01*
X132156444Y-114013940D01*
X132156443Y-114013941D01*
X132156443Y-114013942D01*
X132149248Y-114031312D01*
X132114500Y-114115198D01*
X132114500Y-114224801D01*
X132118756Y-114235075D01*
X132156443Y-114326058D01*
X132156444Y-114326059D01*
X132156445Y-114326061D01*
X132233939Y-114403555D01*
X132233940Y-114403555D01*
X132233942Y-114403557D01*
X132335200Y-114445500D01*
X132335202Y-114445500D01*
X132444798Y-114445500D01*
X132444800Y-114445500D01*
X132546058Y-114403557D01*
X132546060Y-114403555D01*
X132546061Y-114403555D01*
X132605352Y-114344264D01*
X132640000Y-114329912D01*
X132674648Y-114344264D01*
X132733939Y-114403555D01*
X132733940Y-114403555D01*
X132733942Y-114403557D01*
X132835200Y-114445500D01*
X132835202Y-114445500D01*
X132944798Y-114445500D01*
X132944800Y-114445500D01*
X133046058Y-114403557D01*
X133046060Y-114403555D01*
X133046061Y-114403555D01*
X133105352Y-114344264D01*
X133140000Y-114329912D01*
X133174648Y-114344264D01*
X133233939Y-114403555D01*
X133233940Y-114403555D01*
X133233942Y-114403557D01*
X133335200Y-114445500D01*
X133335202Y-114445500D01*
X133444798Y-114445500D01*
X133444800Y-114445500D01*
X133546058Y-114403557D01*
X133546060Y-114403555D01*
X133546061Y-114403555D01*
X133605352Y-114344264D01*
X133640000Y-114329912D01*
X133674648Y-114344264D01*
X133733939Y-114403555D01*
X133733940Y-114403555D01*
X133733942Y-114403557D01*
X133835200Y-114445500D01*
X133835202Y-114445500D01*
X133944798Y-114445500D01*
X133944800Y-114445500D01*
X134046058Y-114403557D01*
X134046060Y-114403555D01*
X134046061Y-114403555D01*
X134064418Y-114385198D01*
X189914500Y-114385198D01*
X189914500Y-114385200D01*
X189914500Y-114494800D01*
X189956443Y-114596058D01*
X189956444Y-114596059D01*
X189956445Y-114596061D01*
X190033939Y-114673555D01*
X190033940Y-114673555D01*
X190033942Y-114673557D01*
X190135200Y-114715500D01*
X190135202Y-114715500D01*
X190244798Y-114715500D01*
X190244800Y-114715500D01*
X190346058Y-114673557D01*
X190346060Y-114673555D01*
X190346061Y-114673555D01*
X190423555Y-114596061D01*
X190423555Y-114596060D01*
X190423557Y-114596058D01*
X190465500Y-114494800D01*
X190465500Y-114385200D01*
X190444788Y-114335198D01*
X195304500Y-114335198D01*
X195304500Y-114444801D01*
X195314756Y-114469561D01*
X195346443Y-114546058D01*
X195346444Y-114546059D01*
X195346445Y-114546061D01*
X195423939Y-114623555D01*
X195423940Y-114623555D01*
X195423942Y-114623557D01*
X195525200Y-114665500D01*
X195525202Y-114665500D01*
X195634798Y-114665500D01*
X195634800Y-114665500D01*
X195736058Y-114623557D01*
X195736060Y-114623555D01*
X195736061Y-114623555D01*
X195813555Y-114546061D01*
X195813555Y-114546060D01*
X195813557Y-114546058D01*
X195855500Y-114444800D01*
X195855500Y-114335200D01*
X195813557Y-114233942D01*
X195813555Y-114233940D01*
X195813555Y-114233939D01*
X195736061Y-114156445D01*
X195736059Y-114156444D01*
X195736058Y-114156443D01*
X195676744Y-114131874D01*
X195634801Y-114114500D01*
X195634800Y-114114500D01*
X195525200Y-114114500D01*
X195525198Y-114114500D01*
X195423940Y-114156444D01*
X195346444Y-114233940D01*
X195304500Y-114335198D01*
X190444788Y-114335198D01*
X190423557Y-114283942D01*
X190423555Y-114283940D01*
X190423555Y-114283939D01*
X190346061Y-114206445D01*
X190346059Y-114206444D01*
X190346058Y-114206443D01*
X190286744Y-114181874D01*
X190244801Y-114164500D01*
X190244800Y-114164500D01*
X190135200Y-114164500D01*
X190135198Y-114164500D01*
X190033940Y-114206444D01*
X189956444Y-114283940D01*
X189914500Y-114385198D01*
X134064418Y-114385198D01*
X134123555Y-114326061D01*
X134123555Y-114326060D01*
X134123557Y-114326058D01*
X134165500Y-114224800D01*
X134165500Y-114115200D01*
X134123557Y-114013942D01*
X134123555Y-114013940D01*
X134123555Y-114013939D01*
X134064264Y-113954648D01*
X134049912Y-113920000D01*
X134064264Y-113885352D01*
X134123555Y-113826061D01*
X134123555Y-113826060D01*
X134123557Y-113826058D01*
X134165500Y-113724800D01*
X134165500Y-113615200D01*
X134123557Y-113513942D01*
X134123555Y-113513940D01*
X134123555Y-113513939D01*
X134064264Y-113454648D01*
X134049912Y-113420000D01*
X134058193Y-113400008D01*
X189269690Y-113400008D01*
X189269690Y-113509611D01*
X189272521Y-113516445D01*
X189311633Y-113610868D01*
X189311634Y-113610869D01*
X189311635Y-113610871D01*
X189389129Y-113688365D01*
X189389130Y-113688365D01*
X189389132Y-113688367D01*
X189490390Y-113730310D01*
X189490392Y-113730310D01*
X189599988Y-113730310D01*
X189599990Y-113730310D01*
X189684757Y-113695198D01*
X191859500Y-113695198D01*
X191859500Y-113804801D01*
X191868305Y-113826058D01*
X191901443Y-113906058D01*
X191901444Y-113906059D01*
X191901445Y-113906061D01*
X191978939Y-113983555D01*
X191978940Y-113983555D01*
X191978942Y-113983557D01*
X192080200Y-114025500D01*
X192080202Y-114025500D01*
X192189798Y-114025500D01*
X192189800Y-114025500D01*
X192291058Y-113983557D01*
X192291060Y-113983555D01*
X192291061Y-113983555D01*
X192368555Y-113906061D01*
X192368555Y-113906060D01*
X192368557Y-113906058D01*
X192410500Y-113804800D01*
X192410500Y-113695200D01*
X192368557Y-113593942D01*
X192368555Y-113593940D01*
X192368555Y-113593939D01*
X192291061Y-113516445D01*
X192291059Y-113516444D01*
X192291058Y-113516443D01*
X192231744Y-113491874D01*
X192189801Y-113474500D01*
X192189800Y-113474500D01*
X192080200Y-113474500D01*
X192080198Y-113474500D01*
X191978940Y-113516444D01*
X191901444Y-113593940D01*
X191859500Y-113695198D01*
X189684757Y-113695198D01*
X189701248Y-113688367D01*
X189701250Y-113688365D01*
X189701251Y-113688365D01*
X189778745Y-113610871D01*
X189778745Y-113610870D01*
X189778747Y-113610868D01*
X189820690Y-113509610D01*
X189820690Y-113400010D01*
X189778747Y-113298752D01*
X189778745Y-113298750D01*
X189778745Y-113298749D01*
X189701251Y-113221255D01*
X189701249Y-113221254D01*
X189701248Y-113221253D01*
X189641934Y-113196684D01*
X189599991Y-113179310D01*
X189599990Y-113179310D01*
X189490390Y-113179310D01*
X189490388Y-113179310D01*
X189406502Y-113214058D01*
X189395919Y-113218442D01*
X189389130Y-113221254D01*
X189311634Y-113298750D01*
X189269690Y-113400008D01*
X134058193Y-113400008D01*
X134064264Y-113385352D01*
X134123555Y-113326061D01*
X134123555Y-113326060D01*
X134123557Y-113326058D01*
X134165500Y-113224800D01*
X134165500Y-113115200D01*
X134123557Y-113013942D01*
X134123555Y-113013940D01*
X134123555Y-113013939D01*
X134064264Y-112954648D01*
X134049912Y-112920000D01*
X134064264Y-112885352D01*
X134123555Y-112826061D01*
X134123555Y-112826060D01*
X134123557Y-112826058D01*
X134165500Y-112724800D01*
X134165500Y-112615200D01*
X134123557Y-112513942D01*
X134123556Y-112513941D01*
X134123556Y-112513940D01*
X134114814Y-112505198D01*
X191484500Y-112505198D01*
X191484500Y-112614801D01*
X191501874Y-112656744D01*
X191526443Y-112716058D01*
X191526444Y-112716059D01*
X191526445Y-112716061D01*
X191603939Y-112793555D01*
X191603940Y-112793555D01*
X191603942Y-112793557D01*
X191705200Y-112835500D01*
X191705202Y-112835500D01*
X191814798Y-112835500D01*
X191814800Y-112835500D01*
X191916058Y-112793557D01*
X191916060Y-112793555D01*
X191916061Y-112793555D01*
X191993555Y-112716061D01*
X191993555Y-112716060D01*
X191993557Y-112716058D01*
X192035500Y-112614800D01*
X192035500Y-112505200D01*
X191993557Y-112403942D01*
X191993555Y-112403940D01*
X191993555Y-112403939D01*
X191916061Y-112326445D01*
X191916059Y-112326444D01*
X191916058Y-112326443D01*
X191856744Y-112301874D01*
X191814801Y-112284500D01*
X191814800Y-112284500D01*
X191705200Y-112284500D01*
X191705198Y-112284500D01*
X191621312Y-112319248D01*
X191604865Y-112326061D01*
X191603940Y-112326444D01*
X191526444Y-112403940D01*
X191526443Y-112403941D01*
X191526443Y-112403942D01*
X191519791Y-112420000D01*
X191484500Y-112505198D01*
X134114814Y-112505198D01*
X134064264Y-112454648D01*
X134049912Y-112420000D01*
X134064264Y-112385352D01*
X134123555Y-112326061D01*
X134123555Y-112326060D01*
X134123557Y-112326058D01*
X134165500Y-112224800D01*
X134165500Y-112115200D01*
X134123557Y-112013942D01*
X134123555Y-112013940D01*
X134123555Y-112013939D01*
X134064264Y-111954648D01*
X134049912Y-111920000D01*
X134064264Y-111885352D01*
X134123555Y-111826061D01*
X134123555Y-111826060D01*
X134123557Y-111826058D01*
X134165500Y-111724800D01*
X134165500Y-111615200D01*
X134157215Y-111595198D01*
X190144500Y-111595198D01*
X190144500Y-111595200D01*
X190144500Y-111704800D01*
X190186443Y-111806058D01*
X190186444Y-111806059D01*
X190186445Y-111806061D01*
X190263939Y-111883555D01*
X190263940Y-111883555D01*
X190263942Y-111883557D01*
X190365200Y-111925500D01*
X190365202Y-111925500D01*
X190474798Y-111925500D01*
X190474800Y-111925500D01*
X190576058Y-111883557D01*
X190576060Y-111883555D01*
X190576061Y-111883555D01*
X190653555Y-111806061D01*
X190653555Y-111806060D01*
X190653557Y-111806058D01*
X190695500Y-111704800D01*
X190695500Y-111595200D01*
X190653557Y-111493942D01*
X190653555Y-111493940D01*
X190653555Y-111493939D01*
X190576061Y-111416445D01*
X190576059Y-111416444D01*
X190576058Y-111416443D01*
X190500999Y-111385352D01*
X190474801Y-111374500D01*
X190474800Y-111374500D01*
X190365200Y-111374500D01*
X190365198Y-111374500D01*
X190263940Y-111416444D01*
X190186444Y-111493940D01*
X190144500Y-111595198D01*
X134157215Y-111595198D01*
X134123557Y-111513942D01*
X134123555Y-111513940D01*
X134123555Y-111513939D01*
X134064264Y-111454648D01*
X134049912Y-111420000D01*
X134064264Y-111385352D01*
X134123555Y-111326061D01*
X134123555Y-111326060D01*
X134123557Y-111326058D01*
X134165500Y-111224800D01*
X134165500Y-111115200D01*
X134123557Y-111013942D01*
X134123555Y-111013940D01*
X134123555Y-111013939D01*
X134064264Y-110954648D01*
X134049912Y-110920000D01*
X134064264Y-110885352D01*
X134123555Y-110826061D01*
X134123555Y-110826060D01*
X134123557Y-110826058D01*
X134165500Y-110724800D01*
X134165500Y-110615200D01*
X134123557Y-110513942D01*
X134123555Y-110513940D01*
X134123555Y-110513939D01*
X134064264Y-110454648D01*
X134049912Y-110420000D01*
X134064264Y-110385352D01*
X134123555Y-110326061D01*
X134123555Y-110326060D01*
X134123557Y-110326058D01*
X134152909Y-110255198D01*
X189054500Y-110255198D01*
X189054500Y-110364801D01*
X189067608Y-110396445D01*
X189096443Y-110466058D01*
X189096444Y-110466059D01*
X189096445Y-110466061D01*
X189173939Y-110543555D01*
X189173940Y-110543555D01*
X189173942Y-110543557D01*
X189275200Y-110585500D01*
X189275202Y-110585500D01*
X189384798Y-110585500D01*
X189384800Y-110585500D01*
X189409671Y-110575198D01*
X190764500Y-110575198D01*
X190764500Y-110575200D01*
X190764500Y-110684800D01*
X190806443Y-110786058D01*
X190806444Y-110786059D01*
X190806445Y-110786061D01*
X190883939Y-110863555D01*
X190883940Y-110863555D01*
X190883942Y-110863557D01*
X190985200Y-110905500D01*
X190985202Y-110905500D01*
X191094798Y-110905500D01*
X191094800Y-110905500D01*
X191196058Y-110863557D01*
X191196060Y-110863555D01*
X191196061Y-110863555D01*
X191273555Y-110786061D01*
X191273555Y-110786060D01*
X191273557Y-110786058D01*
X191315500Y-110684800D01*
X191315500Y-110575200D01*
X191273557Y-110473942D01*
X191273555Y-110473940D01*
X191273555Y-110473939D01*
X191196061Y-110396445D01*
X191196059Y-110396444D01*
X191196058Y-110396443D01*
X191130926Y-110369464D01*
X191094801Y-110354500D01*
X191094800Y-110354500D01*
X190985200Y-110354500D01*
X190985198Y-110354500D01*
X190883940Y-110396444D01*
X190806444Y-110473940D01*
X190764500Y-110575198D01*
X189409671Y-110575198D01*
X189486058Y-110543557D01*
X189486060Y-110543555D01*
X189486061Y-110543555D01*
X189563555Y-110466061D01*
X189563555Y-110466060D01*
X189563557Y-110466058D01*
X189605500Y-110364800D01*
X189605500Y-110255200D01*
X189563557Y-110153942D01*
X189563555Y-110153940D01*
X189563555Y-110153939D01*
X189486061Y-110076445D01*
X189486059Y-110076444D01*
X189486058Y-110076443D01*
X189426744Y-110051874D01*
X189384801Y-110034500D01*
X189384800Y-110034500D01*
X189275200Y-110034500D01*
X189275198Y-110034500D01*
X189173940Y-110076444D01*
X189096444Y-110153940D01*
X189054500Y-110255198D01*
X134152909Y-110255198D01*
X134165500Y-110224800D01*
X134165500Y-110115200D01*
X134123557Y-110013942D01*
X134123555Y-110013940D01*
X134123555Y-110013939D01*
X134064264Y-109954648D01*
X134049912Y-109920000D01*
X134064264Y-109885352D01*
X134123555Y-109826061D01*
X134123555Y-109826060D01*
X134123557Y-109826058D01*
X134165500Y-109724800D01*
X134165500Y-109625198D01*
X185914500Y-109625198D01*
X185914500Y-109734801D01*
X185922685Y-109754561D01*
X185956443Y-109836058D01*
X185956444Y-109836059D01*
X185956445Y-109836061D01*
X186033939Y-109913555D01*
X186033940Y-109913555D01*
X186033942Y-109913557D01*
X186135200Y-109955500D01*
X186135202Y-109955500D01*
X186244798Y-109955500D01*
X186244800Y-109955500D01*
X186346058Y-109913557D01*
X186346060Y-109913555D01*
X186346061Y-109913555D01*
X186423555Y-109836061D01*
X186423555Y-109836060D01*
X186423557Y-109836058D01*
X186465500Y-109734800D01*
X186465500Y-109665198D01*
X190084500Y-109665198D01*
X190084500Y-109774801D01*
X190101874Y-109816744D01*
X190126443Y-109876058D01*
X190126444Y-109876059D01*
X190126445Y-109876061D01*
X190203939Y-109953555D01*
X190203940Y-109953555D01*
X190203942Y-109953557D01*
X190305200Y-109995500D01*
X190305202Y-109995500D01*
X190414798Y-109995500D01*
X190414800Y-109995500D01*
X190516058Y-109953557D01*
X190516060Y-109953555D01*
X190516061Y-109953555D01*
X190593555Y-109876061D01*
X190593555Y-109876060D01*
X190593557Y-109876058D01*
X190635500Y-109774800D01*
X190635500Y-109665200D01*
X190593557Y-109563942D01*
X190593555Y-109563940D01*
X190593555Y-109563939D01*
X190516061Y-109486445D01*
X190516059Y-109486444D01*
X190516058Y-109486443D01*
X190456744Y-109461874D01*
X190414801Y-109444500D01*
X190414800Y-109444500D01*
X190305200Y-109444500D01*
X190305198Y-109444500D01*
X190203940Y-109486444D01*
X190126444Y-109563940D01*
X190084500Y-109665198D01*
X186465500Y-109665198D01*
X186465500Y-109625200D01*
X186423557Y-109523942D01*
X186423555Y-109523940D01*
X186423555Y-109523939D01*
X186346061Y-109446445D01*
X186346059Y-109446444D01*
X186346058Y-109446443D01*
X186251664Y-109407343D01*
X186244801Y-109404500D01*
X186244800Y-109404500D01*
X186135200Y-109404500D01*
X186135198Y-109404500D01*
X186058084Y-109436443D01*
X186043609Y-109442439D01*
X186033940Y-109446444D01*
X185956444Y-109523940D01*
X185914500Y-109625198D01*
X134165500Y-109625198D01*
X134165500Y-109615200D01*
X134123557Y-109513942D01*
X134123555Y-109513940D01*
X134123555Y-109513939D01*
X134064264Y-109454648D01*
X134049912Y-109420000D01*
X134064264Y-109385352D01*
X134123555Y-109326061D01*
X134123555Y-109326060D01*
X134123557Y-109326058D01*
X134165500Y-109224800D01*
X134165500Y-109115200D01*
X134165499Y-109115198D01*
X189384500Y-109115198D01*
X189384500Y-109224801D01*
X189396276Y-109253230D01*
X189426443Y-109326058D01*
X189426444Y-109326059D01*
X189426445Y-109326061D01*
X189503939Y-109403555D01*
X189503940Y-109403555D01*
X189503942Y-109403557D01*
X189605200Y-109445500D01*
X189605202Y-109445500D01*
X189714798Y-109445500D01*
X189714800Y-109445500D01*
X189816058Y-109403557D01*
X189816060Y-109403555D01*
X189816061Y-109403555D01*
X189893555Y-109326061D01*
X189893555Y-109326060D01*
X189893557Y-109326058D01*
X189935500Y-109224800D01*
X189935500Y-109115200D01*
X189893557Y-109013942D01*
X189893555Y-109013940D01*
X189893555Y-109013939D01*
X189816061Y-108936445D01*
X189816059Y-108936444D01*
X189816058Y-108936443D01*
X189756744Y-108911874D01*
X189714801Y-108894500D01*
X189714800Y-108894500D01*
X189605200Y-108894500D01*
X189605198Y-108894500D01*
X189503940Y-108936444D01*
X189426444Y-109013940D01*
X189384500Y-109115198D01*
X134165499Y-109115198D01*
X134123557Y-109013942D01*
X134123555Y-109013940D01*
X134123555Y-109013939D01*
X134064264Y-108954648D01*
X134049912Y-108920000D01*
X134064264Y-108885352D01*
X134123555Y-108826061D01*
X134123555Y-108826060D01*
X134123557Y-108826058D01*
X134165500Y-108724800D01*
X134165500Y-108615200D01*
X134123557Y-108513942D01*
X134123555Y-108513940D01*
X134123555Y-108513939D01*
X134046061Y-108436445D01*
X134046059Y-108436444D01*
X134046058Y-108436443D01*
X133986744Y-108411874D01*
X133944801Y-108394500D01*
X133944800Y-108394500D01*
X133835200Y-108394500D01*
X133835198Y-108394500D01*
X133733940Y-108436444D01*
X133674648Y-108495736D01*
X133640000Y-108510088D01*
X133605352Y-108495736D01*
X133546061Y-108436445D01*
X133546059Y-108436444D01*
X133546058Y-108436443D01*
X133486744Y-108411874D01*
X133444801Y-108394500D01*
X133444800Y-108394500D01*
X133335200Y-108394500D01*
X133335198Y-108394500D01*
X133233940Y-108436444D01*
X133174648Y-108495736D01*
X133140000Y-108510088D01*
X133105352Y-108495736D01*
X133046061Y-108436445D01*
X133046059Y-108436444D01*
X133046058Y-108436443D01*
X132986744Y-108411874D01*
X132944801Y-108394500D01*
X132944800Y-108394500D01*
X132835200Y-108394500D01*
X132835198Y-108394500D01*
X132733940Y-108436444D01*
X132674648Y-108495736D01*
X132640000Y-108510088D01*
X132605352Y-108495736D01*
X132546061Y-108436445D01*
X132546059Y-108436444D01*
X132546058Y-108436443D01*
X132486744Y-108411874D01*
X132444801Y-108394500D01*
X132444800Y-108394500D01*
X132335200Y-108394500D01*
X132335198Y-108394500D01*
X132233940Y-108436444D01*
X132174648Y-108495736D01*
X132140000Y-108510088D01*
X132105352Y-108495736D01*
X132046061Y-108436445D01*
X132046059Y-108436444D01*
X132046058Y-108436443D01*
X131986744Y-108411874D01*
X131944801Y-108394500D01*
X131944800Y-108394500D01*
X131835200Y-108394500D01*
X131835198Y-108394500D01*
X131733940Y-108436444D01*
X131674648Y-108495736D01*
X131640000Y-108510088D01*
X131605352Y-108495736D01*
X131546061Y-108436445D01*
X131546059Y-108436444D01*
X131546058Y-108436443D01*
X131486744Y-108411874D01*
X131444801Y-108394500D01*
X131444800Y-108394500D01*
X131335200Y-108394500D01*
X131335198Y-108394500D01*
X131233940Y-108436444D01*
X131156444Y-108513940D01*
X131156443Y-108513941D01*
X131156443Y-108513942D01*
X131149248Y-108531312D01*
X131114500Y-108615198D01*
X114880500Y-108615198D01*
X114880500Y-108125198D01*
X185904500Y-108125198D01*
X185904500Y-108125200D01*
X185904500Y-108234800D01*
X185946443Y-108336058D01*
X185946444Y-108336059D01*
X185946445Y-108336061D01*
X186023939Y-108413555D01*
X186023940Y-108413555D01*
X186023942Y-108413557D01*
X186125200Y-108455500D01*
X186125202Y-108455500D01*
X186234798Y-108455500D01*
X186234800Y-108455500D01*
X186336058Y-108413557D01*
X186336060Y-108413555D01*
X186336061Y-108413555D01*
X186413555Y-108336061D01*
X186413555Y-108336060D01*
X186413557Y-108336058D01*
X186455500Y-108234800D01*
X186455500Y-108195198D01*
X188824500Y-108195198D01*
X188824500Y-108195200D01*
X188824500Y-108304800D01*
X188866443Y-108406058D01*
X188866444Y-108406059D01*
X188866445Y-108406061D01*
X188943939Y-108483555D01*
X188943940Y-108483555D01*
X188943942Y-108483557D01*
X189045200Y-108525500D01*
X189045202Y-108525500D01*
X189154798Y-108525500D01*
X189154800Y-108525500D01*
X189256058Y-108483557D01*
X189256060Y-108483555D01*
X189256061Y-108483555D01*
X189333555Y-108406061D01*
X189333555Y-108406060D01*
X189333557Y-108406058D01*
X189375500Y-108304800D01*
X189375500Y-108195200D01*
X189333557Y-108093942D01*
X189333555Y-108093940D01*
X189333555Y-108093939D01*
X189256061Y-108016445D01*
X189256059Y-108016444D01*
X189256058Y-108016443D01*
X189196744Y-107991874D01*
X189154801Y-107974500D01*
X189154800Y-107974500D01*
X189045200Y-107974500D01*
X189045198Y-107974500D01*
X188943940Y-108016444D01*
X188866444Y-108093940D01*
X188824500Y-108195198D01*
X186455500Y-108195198D01*
X186455500Y-108125200D01*
X186413557Y-108023942D01*
X186413555Y-108023940D01*
X186413555Y-108023939D01*
X186336061Y-107946445D01*
X186336059Y-107946444D01*
X186336058Y-107946443D01*
X186276744Y-107921874D01*
X186234801Y-107904500D01*
X186234800Y-107904500D01*
X186125200Y-107904500D01*
X186125198Y-107904500D01*
X186023940Y-107946444D01*
X185946444Y-108023940D01*
X185904500Y-108125198D01*
X114880500Y-108125198D01*
X114880500Y-107165335D01*
X185580288Y-107165335D01*
X185580288Y-107165337D01*
X185580288Y-107274937D01*
X185622231Y-107376195D01*
X185622232Y-107376196D01*
X185622233Y-107376198D01*
X185699727Y-107453692D01*
X185699728Y-107453692D01*
X185699730Y-107453694D01*
X185800988Y-107495637D01*
X185800990Y-107495637D01*
X185910586Y-107495637D01*
X185910588Y-107495637D01*
X186011846Y-107453694D01*
X186011848Y-107453692D01*
X186011849Y-107453692D01*
X186089343Y-107376198D01*
X186089343Y-107376197D01*
X186089345Y-107376195D01*
X186131288Y-107274937D01*
X186131288Y-107165337D01*
X186089345Y-107064079D01*
X186089343Y-107064077D01*
X186089343Y-107064076D01*
X186011849Y-106986582D01*
X186011847Y-106986581D01*
X186011846Y-106986580D01*
X185952532Y-106962011D01*
X185910589Y-106944637D01*
X185910588Y-106944637D01*
X185800988Y-106944637D01*
X185800986Y-106944637D01*
X185699728Y-106986581D01*
X185622232Y-107064077D01*
X185580288Y-107165335D01*
X114880500Y-107165335D01*
X114880500Y-106535198D01*
X130614500Y-106535198D01*
X130614500Y-106535200D01*
X130614500Y-106644800D01*
X130656443Y-106746058D01*
X130656444Y-106746059D01*
X130656445Y-106746061D01*
X130733939Y-106823555D01*
X130733940Y-106823555D01*
X130733942Y-106823557D01*
X130835200Y-106865500D01*
X130835202Y-106865500D01*
X130944798Y-106865500D01*
X130944800Y-106865500D01*
X131046058Y-106823557D01*
X131046060Y-106823555D01*
X131046061Y-106823555D01*
X131105352Y-106764264D01*
X131140000Y-106749912D01*
X131174648Y-106764264D01*
X131233939Y-106823555D01*
X131233940Y-106823555D01*
X131233942Y-106823557D01*
X131335200Y-106865500D01*
X131335202Y-106865500D01*
X131444798Y-106865500D01*
X131444800Y-106865500D01*
X131546058Y-106823557D01*
X131546060Y-106823555D01*
X131546061Y-106823555D01*
X131605352Y-106764264D01*
X131640000Y-106749912D01*
X131674648Y-106764264D01*
X131733939Y-106823555D01*
X131733940Y-106823555D01*
X131733942Y-106823557D01*
X131835200Y-106865500D01*
X131835202Y-106865500D01*
X131944798Y-106865500D01*
X131944800Y-106865500D01*
X132046058Y-106823557D01*
X132046060Y-106823555D01*
X132046061Y-106823555D01*
X132105352Y-106764264D01*
X132140000Y-106749912D01*
X132174648Y-106764264D01*
X132233939Y-106823555D01*
X132233940Y-106823555D01*
X132233942Y-106823557D01*
X132335200Y-106865500D01*
X132335202Y-106865500D01*
X132444798Y-106865500D01*
X132444800Y-106865500D01*
X132546058Y-106823557D01*
X132546060Y-106823555D01*
X132546061Y-106823555D01*
X132605352Y-106764264D01*
X132640000Y-106749912D01*
X132674648Y-106764264D01*
X132733939Y-106823555D01*
X132733940Y-106823555D01*
X132733942Y-106823557D01*
X132835200Y-106865500D01*
X132835202Y-106865500D01*
X132944798Y-106865500D01*
X132944800Y-106865500D01*
X133046058Y-106823557D01*
X133046060Y-106823555D01*
X133046061Y-106823555D01*
X133105352Y-106764264D01*
X133140000Y-106749912D01*
X133174648Y-106764264D01*
X133233939Y-106823555D01*
X133233940Y-106823555D01*
X133233942Y-106823557D01*
X133335200Y-106865500D01*
X133335202Y-106865500D01*
X133444798Y-106865500D01*
X133444800Y-106865500D01*
X133546058Y-106823557D01*
X133546060Y-106823555D01*
X133546061Y-106823555D01*
X133605352Y-106764264D01*
X133640000Y-106749912D01*
X133674648Y-106764264D01*
X133733939Y-106823555D01*
X133733940Y-106823555D01*
X133733942Y-106823557D01*
X133835200Y-106865500D01*
X133835202Y-106865500D01*
X133944798Y-106865500D01*
X133944800Y-106865500D01*
X134046058Y-106823557D01*
X134046060Y-106823555D01*
X134046061Y-106823555D01*
X134123555Y-106746061D01*
X134123555Y-106746060D01*
X134123557Y-106746058D01*
X134165500Y-106644800D01*
X134165500Y-106535200D01*
X134123557Y-106433942D01*
X134123555Y-106433940D01*
X134123555Y-106433939D01*
X134046061Y-106356445D01*
X134046059Y-106356444D01*
X134046058Y-106356443D01*
X133986744Y-106331874D01*
X133944801Y-106314500D01*
X133944800Y-106314500D01*
X133835200Y-106314500D01*
X133835198Y-106314500D01*
X133733940Y-106356444D01*
X133674648Y-106415736D01*
X133640000Y-106430088D01*
X133605352Y-106415736D01*
X133546061Y-106356445D01*
X133546059Y-106356444D01*
X133546058Y-106356443D01*
X133486744Y-106331874D01*
X133444801Y-106314500D01*
X133444800Y-106314500D01*
X133335200Y-106314500D01*
X133335198Y-106314500D01*
X133233940Y-106356444D01*
X133174648Y-106415736D01*
X133140000Y-106430088D01*
X133105352Y-106415736D01*
X133046061Y-106356445D01*
X133046059Y-106356444D01*
X133046058Y-106356443D01*
X132986744Y-106331874D01*
X132944801Y-106314500D01*
X132944800Y-106314500D01*
X132835200Y-106314500D01*
X132835198Y-106314500D01*
X132733940Y-106356444D01*
X132674648Y-106415736D01*
X132640000Y-106430088D01*
X132605352Y-106415736D01*
X132546061Y-106356445D01*
X132546059Y-106356444D01*
X132546058Y-106356443D01*
X132486744Y-106331874D01*
X132444801Y-106314500D01*
X132444800Y-106314500D01*
X132335200Y-106314500D01*
X132335198Y-106314500D01*
X132233940Y-106356444D01*
X132174648Y-106415736D01*
X132140000Y-106430088D01*
X132105352Y-106415736D01*
X132046061Y-106356445D01*
X132046059Y-106356444D01*
X132046058Y-106356443D01*
X131986744Y-106331874D01*
X131944801Y-106314500D01*
X131944800Y-106314500D01*
X131835200Y-106314500D01*
X131835198Y-106314500D01*
X131733940Y-106356444D01*
X131674648Y-106415736D01*
X131640000Y-106430088D01*
X131605352Y-106415736D01*
X131546061Y-106356445D01*
X131546059Y-106356444D01*
X131546058Y-106356443D01*
X131486744Y-106331874D01*
X131444801Y-106314500D01*
X131444800Y-106314500D01*
X131335200Y-106314500D01*
X131335198Y-106314500D01*
X131233940Y-106356444D01*
X131174648Y-106415736D01*
X131140000Y-106430088D01*
X131105352Y-106415736D01*
X131046061Y-106356445D01*
X131046059Y-106356444D01*
X131046058Y-106356443D01*
X130986744Y-106331874D01*
X130944801Y-106314500D01*
X130944800Y-106314500D01*
X130835200Y-106314500D01*
X130835198Y-106314500D01*
X130733940Y-106356444D01*
X130656444Y-106433940D01*
X130614500Y-106535198D01*
X114880500Y-106535198D01*
X114880500Y-106135198D01*
X185604500Y-106135198D01*
X185604500Y-106135200D01*
X185604500Y-106244800D01*
X185646443Y-106346058D01*
X185646444Y-106346059D01*
X185646445Y-106346061D01*
X185723939Y-106423555D01*
X185723940Y-106423555D01*
X185723942Y-106423557D01*
X185825200Y-106465500D01*
X185825202Y-106465500D01*
X185934798Y-106465500D01*
X185934800Y-106465500D01*
X186036058Y-106423557D01*
X186036060Y-106423555D01*
X186036061Y-106423555D01*
X186113555Y-106346061D01*
X186113555Y-106346060D01*
X186113557Y-106346058D01*
X186155500Y-106244800D01*
X186155500Y-106135200D01*
X186113557Y-106033942D01*
X186113555Y-106033940D01*
X186113555Y-106033939D01*
X186036061Y-105956445D01*
X186036059Y-105956444D01*
X186036058Y-105956443D01*
X185976744Y-105931874D01*
X185934801Y-105914500D01*
X185934800Y-105914500D01*
X185825200Y-105914500D01*
X185825198Y-105914500D01*
X185723940Y-105956444D01*
X185646444Y-106033940D01*
X185604500Y-106135198D01*
X114880500Y-106135198D01*
X114880500Y-99458698D01*
X117898000Y-99458698D01*
X117898000Y-99568301D01*
X117915374Y-99610244D01*
X117939943Y-99669558D01*
X117939944Y-99669559D01*
X117939945Y-99669561D01*
X118017440Y-99747056D01*
X118068557Y-99768230D01*
X118095075Y-99794749D01*
X118095075Y-99832252D01*
X118068557Y-99858770D01*
X118017440Y-99879943D01*
X118017439Y-99879945D01*
X117939944Y-99957440D01*
X117898000Y-100058698D01*
X117898000Y-100168301D01*
X117915374Y-100210244D01*
X117939943Y-100269558D01*
X117939944Y-100269559D01*
X117939945Y-100269561D01*
X118017440Y-100347056D01*
X118068557Y-100368230D01*
X118095075Y-100394749D01*
X118095075Y-100432252D01*
X118068557Y-100458770D01*
X118017440Y-100479943D01*
X118017439Y-100479945D01*
X117939944Y-100557440D01*
X117898000Y-100658698D01*
X117898000Y-100768301D01*
X117915374Y-100810244D01*
X117939943Y-100869558D01*
X117939944Y-100869559D01*
X117939945Y-100869561D01*
X118017440Y-100947056D01*
X118068557Y-100968230D01*
X118095075Y-100994749D01*
X118095075Y-101032252D01*
X118068557Y-101058770D01*
X118017440Y-101079943D01*
X118017439Y-101079945D01*
X117939944Y-101157440D01*
X117898000Y-101258698D01*
X117898000Y-101368301D01*
X117915374Y-101410244D01*
X117939943Y-101469558D01*
X117939944Y-101469559D01*
X117939945Y-101469561D01*
X118017440Y-101547056D01*
X118068557Y-101568230D01*
X118095075Y-101594749D01*
X118095075Y-101632252D01*
X118068557Y-101658770D01*
X118017440Y-101679943D01*
X118017439Y-101679945D01*
X117939944Y-101757440D01*
X117898000Y-101858698D01*
X117898000Y-101968301D01*
X117915374Y-102010244D01*
X117939943Y-102069558D01*
X117939944Y-102069559D01*
X117939945Y-102069561D01*
X118017440Y-102147056D01*
X118068557Y-102168230D01*
X118095075Y-102194749D01*
X118095075Y-102232252D01*
X118068557Y-102258770D01*
X118017440Y-102279943D01*
X118017439Y-102279945D01*
X117939944Y-102357440D01*
X117898000Y-102458698D01*
X117898000Y-102568301D01*
X117915374Y-102610244D01*
X117939943Y-102669558D01*
X117939944Y-102669559D01*
X117939945Y-102669561D01*
X117999236Y-102728852D01*
X118013588Y-102763500D01*
X117999236Y-102798148D01*
X117939944Y-102857440D01*
X117898000Y-102958698D01*
X117898000Y-103068301D01*
X117915374Y-103110244D01*
X117939943Y-103169558D01*
X117939944Y-103169559D01*
X117939945Y-103169561D01*
X118017440Y-103247056D01*
X118068557Y-103268230D01*
X118095075Y-103294749D01*
X118095075Y-103332252D01*
X118068557Y-103358770D01*
X118017440Y-103379943D01*
X118017439Y-103379945D01*
X117939944Y-103457440D01*
X117898000Y-103558698D01*
X117898000Y-103668301D01*
X117913766Y-103706361D01*
X117939943Y-103769558D01*
X117939944Y-103769559D01*
X117939945Y-103769561D01*
X118017440Y-103847056D01*
X118068557Y-103868230D01*
X118095075Y-103894749D01*
X118095075Y-103932252D01*
X118068557Y-103958770D01*
X118017440Y-103979943D01*
X118017439Y-103979945D01*
X117939944Y-104057440D01*
X117898000Y-104158698D01*
X117898000Y-104268301D01*
X117915374Y-104310244D01*
X117939943Y-104369558D01*
X117939944Y-104369559D01*
X117939945Y-104369561D01*
X118017440Y-104447056D01*
X118068557Y-104468230D01*
X118095075Y-104494749D01*
X118095075Y-104532252D01*
X118068557Y-104558770D01*
X118017440Y-104579943D01*
X118017439Y-104579945D01*
X117939944Y-104657440D01*
X117898000Y-104758698D01*
X117898000Y-104868301D01*
X117915374Y-104910244D01*
X117939943Y-104969558D01*
X117939944Y-104969559D01*
X117939945Y-104969561D01*
X118017440Y-105047056D01*
X118068557Y-105068230D01*
X118095075Y-105094749D01*
X118095075Y-105132252D01*
X118068557Y-105158770D01*
X118017440Y-105179943D01*
X118017439Y-105179945D01*
X117939944Y-105257440D01*
X117898000Y-105358698D01*
X117898000Y-105468301D01*
X117915374Y-105510244D01*
X117939943Y-105569558D01*
X117939944Y-105569559D01*
X117939945Y-105569561D01*
X118017439Y-105647055D01*
X118017440Y-105647055D01*
X118017442Y-105647057D01*
X118118700Y-105689000D01*
X118118702Y-105689000D01*
X118228298Y-105689000D01*
X118228300Y-105689000D01*
X118329558Y-105647057D01*
X118329560Y-105647055D01*
X118329561Y-105647055D01*
X118407055Y-105569561D01*
X118407055Y-105569560D01*
X118407057Y-105569558D01*
X118428230Y-105518441D01*
X118454749Y-105491924D01*
X118492252Y-105491924D01*
X118518769Y-105518441D01*
X118539943Y-105569558D01*
X118539944Y-105569559D01*
X118539945Y-105569561D01*
X118617439Y-105647055D01*
X118617440Y-105647055D01*
X118617442Y-105647057D01*
X118718700Y-105689000D01*
X118718702Y-105689000D01*
X118828298Y-105689000D01*
X118828300Y-105689000D01*
X118929558Y-105647057D01*
X118929560Y-105647055D01*
X118929561Y-105647055D01*
X119007055Y-105569561D01*
X119007055Y-105569560D01*
X119007057Y-105569558D01*
X119028230Y-105518441D01*
X119054749Y-105491924D01*
X119092252Y-105491924D01*
X119118769Y-105518441D01*
X119139943Y-105569558D01*
X119139944Y-105569559D01*
X119139945Y-105569561D01*
X119217439Y-105647055D01*
X119217440Y-105647055D01*
X119217442Y-105647057D01*
X119318700Y-105689000D01*
X119318702Y-105689000D01*
X119428298Y-105689000D01*
X119428300Y-105689000D01*
X119529558Y-105647057D01*
X119529560Y-105647055D01*
X119529561Y-105647055D01*
X119607055Y-105569561D01*
X119607055Y-105569560D01*
X119607057Y-105569558D01*
X119628230Y-105518441D01*
X119654749Y-105491924D01*
X119692252Y-105491924D01*
X119718769Y-105518441D01*
X119739943Y-105569558D01*
X119739944Y-105569559D01*
X119739945Y-105569561D01*
X119817439Y-105647055D01*
X119817440Y-105647055D01*
X119817442Y-105647057D01*
X119918700Y-105689000D01*
X119918702Y-105689000D01*
X120028298Y-105689000D01*
X120028300Y-105689000D01*
X120129558Y-105647057D01*
X120129560Y-105647055D01*
X120129561Y-105647055D01*
X120207055Y-105569561D01*
X120207055Y-105569560D01*
X120207057Y-105569558D01*
X120228230Y-105518441D01*
X120254749Y-105491924D01*
X120292252Y-105491924D01*
X120318769Y-105518441D01*
X120339943Y-105569558D01*
X120339944Y-105569559D01*
X120339945Y-105569561D01*
X120417439Y-105647055D01*
X120417440Y-105647055D01*
X120417442Y-105647057D01*
X120518700Y-105689000D01*
X120518702Y-105689000D01*
X120628298Y-105689000D01*
X120628300Y-105689000D01*
X120729558Y-105647057D01*
X120729560Y-105647055D01*
X120729561Y-105647055D01*
X120807055Y-105569561D01*
X120807055Y-105569560D01*
X120807057Y-105569558D01*
X120821290Y-105535198D01*
X130614500Y-105535198D01*
X130614500Y-105535200D01*
X130614500Y-105644800D01*
X130656443Y-105746058D01*
X130656444Y-105746059D01*
X130656445Y-105746061D01*
X130733939Y-105823555D01*
X130733940Y-105823555D01*
X130733942Y-105823557D01*
X130835200Y-105865500D01*
X130835202Y-105865500D01*
X130944798Y-105865500D01*
X130944800Y-105865500D01*
X131046058Y-105823557D01*
X131046060Y-105823555D01*
X131046061Y-105823555D01*
X131105352Y-105764264D01*
X131140000Y-105749912D01*
X131174648Y-105764264D01*
X131233939Y-105823555D01*
X131233940Y-105823555D01*
X131233942Y-105823557D01*
X131335200Y-105865500D01*
X131335202Y-105865500D01*
X131444798Y-105865500D01*
X131444800Y-105865500D01*
X131546058Y-105823557D01*
X131546060Y-105823555D01*
X131546061Y-105823555D01*
X131605352Y-105764264D01*
X131640000Y-105749912D01*
X131674648Y-105764264D01*
X131733939Y-105823555D01*
X131733940Y-105823555D01*
X131733942Y-105823557D01*
X131835200Y-105865500D01*
X131835202Y-105865500D01*
X131944798Y-105865500D01*
X131944800Y-105865500D01*
X132046058Y-105823557D01*
X132046060Y-105823555D01*
X132046061Y-105823555D01*
X132105352Y-105764264D01*
X132140000Y-105749912D01*
X132174648Y-105764264D01*
X132233939Y-105823555D01*
X132233940Y-105823555D01*
X132233942Y-105823557D01*
X132335200Y-105865500D01*
X132335202Y-105865500D01*
X132444798Y-105865500D01*
X132444800Y-105865500D01*
X132546058Y-105823557D01*
X132546060Y-105823555D01*
X132546061Y-105823555D01*
X132605352Y-105764264D01*
X132640000Y-105749912D01*
X132674648Y-105764264D01*
X132733939Y-105823555D01*
X132733940Y-105823555D01*
X132733942Y-105823557D01*
X132835200Y-105865500D01*
X132835202Y-105865500D01*
X132944798Y-105865500D01*
X132944800Y-105865500D01*
X133046058Y-105823557D01*
X133046060Y-105823555D01*
X133046061Y-105823555D01*
X133105352Y-105764264D01*
X133140000Y-105749912D01*
X133174648Y-105764264D01*
X133233939Y-105823555D01*
X133233940Y-105823555D01*
X133233942Y-105823557D01*
X133335200Y-105865500D01*
X133335202Y-105865500D01*
X133444798Y-105865500D01*
X133444800Y-105865500D01*
X133546058Y-105823557D01*
X133546060Y-105823555D01*
X133546061Y-105823555D01*
X133605352Y-105764264D01*
X133640000Y-105749912D01*
X133674648Y-105764264D01*
X133733939Y-105823555D01*
X133733940Y-105823555D01*
X133733942Y-105823557D01*
X133835200Y-105865500D01*
X133835202Y-105865500D01*
X133944798Y-105865500D01*
X133944800Y-105865500D01*
X134046058Y-105823557D01*
X134046060Y-105823555D01*
X134046061Y-105823555D01*
X134123555Y-105746061D01*
X134123555Y-105746060D01*
X134123557Y-105746058D01*
X134165500Y-105644800D01*
X134165500Y-105535200D01*
X134123557Y-105433942D01*
X134123555Y-105433940D01*
X134123555Y-105433939D01*
X134046061Y-105356445D01*
X134046059Y-105356444D01*
X134046058Y-105356443D01*
X133986744Y-105331874D01*
X133944801Y-105314500D01*
X133944800Y-105314500D01*
X133835200Y-105314500D01*
X133835198Y-105314500D01*
X133733940Y-105356444D01*
X133674648Y-105415736D01*
X133640000Y-105430088D01*
X133605352Y-105415736D01*
X133546061Y-105356445D01*
X133546059Y-105356444D01*
X133546058Y-105356443D01*
X133486744Y-105331874D01*
X133444801Y-105314500D01*
X133444800Y-105314500D01*
X133335200Y-105314500D01*
X133335198Y-105314500D01*
X133233940Y-105356444D01*
X133174648Y-105415736D01*
X133140000Y-105430088D01*
X133105352Y-105415736D01*
X133046061Y-105356445D01*
X133046059Y-105356444D01*
X133046058Y-105356443D01*
X132986744Y-105331874D01*
X132944801Y-105314500D01*
X132944800Y-105314500D01*
X132835200Y-105314500D01*
X132835198Y-105314500D01*
X132733940Y-105356444D01*
X132674648Y-105415736D01*
X132640000Y-105430088D01*
X132605352Y-105415736D01*
X132546061Y-105356445D01*
X132546059Y-105356444D01*
X132546058Y-105356443D01*
X132486744Y-105331874D01*
X132444801Y-105314500D01*
X132444800Y-105314500D01*
X132335200Y-105314500D01*
X132335198Y-105314500D01*
X132233940Y-105356444D01*
X132174648Y-105415736D01*
X132140000Y-105430088D01*
X132105352Y-105415736D01*
X132046061Y-105356445D01*
X132046059Y-105356444D01*
X132046058Y-105356443D01*
X131986744Y-105331874D01*
X131944801Y-105314500D01*
X131944800Y-105314500D01*
X131835200Y-105314500D01*
X131835198Y-105314500D01*
X131733940Y-105356444D01*
X131674648Y-105415736D01*
X131640000Y-105430088D01*
X131605352Y-105415736D01*
X131546061Y-105356445D01*
X131546059Y-105356444D01*
X131546058Y-105356443D01*
X131486744Y-105331874D01*
X131444801Y-105314500D01*
X131444800Y-105314500D01*
X131335200Y-105314500D01*
X131335198Y-105314500D01*
X131233940Y-105356444D01*
X131174648Y-105415736D01*
X131140000Y-105430088D01*
X131105352Y-105415736D01*
X131046061Y-105356445D01*
X131046059Y-105356444D01*
X131046058Y-105356443D01*
X130986744Y-105331874D01*
X130944801Y-105314500D01*
X130944800Y-105314500D01*
X130835200Y-105314500D01*
X130835198Y-105314500D01*
X130733940Y-105356444D01*
X130656444Y-105433940D01*
X130614500Y-105535198D01*
X120821290Y-105535198D01*
X120849000Y-105468300D01*
X120849000Y-105358700D01*
X120807057Y-105257442D01*
X120807055Y-105257440D01*
X120807055Y-105257439D01*
X120729561Y-105179945D01*
X120729559Y-105179944D01*
X120729558Y-105179943D01*
X120678441Y-105158769D01*
X120651924Y-105132251D01*
X120651924Y-105094748D01*
X120678441Y-105068230D01*
X120729558Y-105047057D01*
X120729560Y-105047055D01*
X120729561Y-105047055D01*
X120807055Y-104969561D01*
X120807055Y-104969560D01*
X120807057Y-104969558D01*
X120849000Y-104868300D01*
X120849000Y-104758700D01*
X120807057Y-104657442D01*
X120807055Y-104657440D01*
X120807055Y-104657439D01*
X120729561Y-104579945D01*
X120729559Y-104579944D01*
X120729558Y-104579943D01*
X120678441Y-104558769D01*
X120665183Y-104545510D01*
X120651924Y-104532252D01*
X120651924Y-104501303D01*
X121079500Y-104501303D01*
X121079500Y-104678696D01*
X121114103Y-104852656D01*
X121114106Y-104852667D01*
X121162524Y-104969559D01*
X121181987Y-105016547D01*
X121216521Y-105068230D01*
X121280533Y-105164032D01*
X121405967Y-105289466D01*
X121464640Y-105328670D01*
X121553453Y-105388013D01*
X121717334Y-105455894D01*
X121717340Y-105455895D01*
X121717343Y-105455896D01*
X121891303Y-105490499D01*
X121891309Y-105490500D01*
X122068691Y-105490500D01*
X122092232Y-105485817D01*
X122109836Y-105482316D01*
X122109836Y-105482315D01*
X122242666Y-105455894D01*
X122406547Y-105388013D01*
X122554035Y-105289464D01*
X122679464Y-105164035D01*
X122778013Y-105016547D01*
X122845894Y-104852666D01*
X122880500Y-104678691D01*
X122880500Y-104535198D01*
X131114500Y-104535198D01*
X131114500Y-104644801D01*
X131128538Y-104678691D01*
X131156443Y-104746058D01*
X131156444Y-104746059D01*
X131156445Y-104746061D01*
X131233939Y-104823555D01*
X131233940Y-104823555D01*
X131233942Y-104823557D01*
X131335200Y-104865500D01*
X131335202Y-104865500D01*
X131444798Y-104865500D01*
X131444800Y-104865500D01*
X131546058Y-104823557D01*
X131546060Y-104823555D01*
X131546061Y-104823555D01*
X131605352Y-104764264D01*
X131640000Y-104749912D01*
X131674648Y-104764264D01*
X131733939Y-104823555D01*
X131733940Y-104823555D01*
X131733942Y-104823557D01*
X131835200Y-104865500D01*
X131835202Y-104865500D01*
X131944798Y-104865500D01*
X131944800Y-104865500D01*
X132046058Y-104823557D01*
X132046060Y-104823555D01*
X132046061Y-104823555D01*
X132105352Y-104764264D01*
X132140000Y-104749912D01*
X132174648Y-104764264D01*
X132233939Y-104823555D01*
X132233940Y-104823555D01*
X132233942Y-104823557D01*
X132335200Y-104865500D01*
X132335202Y-104865500D01*
X132444798Y-104865500D01*
X132444800Y-104865500D01*
X132546058Y-104823557D01*
X132546060Y-104823555D01*
X132546061Y-104823555D01*
X132605352Y-104764264D01*
X132640000Y-104749912D01*
X132674648Y-104764264D01*
X132733939Y-104823555D01*
X132733940Y-104823555D01*
X132733942Y-104823557D01*
X132835200Y-104865500D01*
X132835202Y-104865500D01*
X132944798Y-104865500D01*
X132944800Y-104865500D01*
X133046058Y-104823557D01*
X133046060Y-104823555D01*
X133046061Y-104823555D01*
X133105352Y-104764264D01*
X133140000Y-104749912D01*
X133174648Y-104764264D01*
X133233939Y-104823555D01*
X133233940Y-104823555D01*
X133233942Y-104823557D01*
X133335200Y-104865500D01*
X133335202Y-104865500D01*
X133444798Y-104865500D01*
X133444800Y-104865500D01*
X133546058Y-104823557D01*
X133546060Y-104823555D01*
X133546061Y-104823555D01*
X133605352Y-104764264D01*
X133640000Y-104749912D01*
X133674648Y-104764264D01*
X133733939Y-104823555D01*
X133733940Y-104823555D01*
X133733942Y-104823557D01*
X133835200Y-104865500D01*
X133835202Y-104865500D01*
X133944798Y-104865500D01*
X133944800Y-104865500D01*
X134046058Y-104823557D01*
X134046060Y-104823555D01*
X134046061Y-104823555D01*
X134123555Y-104746061D01*
X134123555Y-104746060D01*
X134123557Y-104746058D01*
X134165500Y-104644800D01*
X134165500Y-104535200D01*
X134123557Y-104433942D01*
X134123555Y-104433940D01*
X134123555Y-104433939D01*
X134046061Y-104356445D01*
X134046059Y-104356444D01*
X134046058Y-104356443D01*
X133986744Y-104331874D01*
X133944801Y-104314500D01*
X133944800Y-104314500D01*
X133835200Y-104314500D01*
X133835198Y-104314500D01*
X133733940Y-104356444D01*
X133674648Y-104415736D01*
X133640000Y-104430088D01*
X133605352Y-104415736D01*
X133546061Y-104356445D01*
X133546059Y-104356444D01*
X133546058Y-104356443D01*
X133486744Y-104331874D01*
X133444801Y-104314500D01*
X133444800Y-104314500D01*
X133335200Y-104314500D01*
X133335198Y-104314500D01*
X133233940Y-104356444D01*
X133174648Y-104415736D01*
X133140000Y-104430088D01*
X133105352Y-104415736D01*
X133046061Y-104356445D01*
X133046059Y-104356444D01*
X133046058Y-104356443D01*
X132986744Y-104331874D01*
X132944801Y-104314500D01*
X132944800Y-104314500D01*
X132835200Y-104314500D01*
X132835198Y-104314500D01*
X132733940Y-104356444D01*
X132674648Y-104415736D01*
X132640000Y-104430088D01*
X132605352Y-104415736D01*
X132546061Y-104356445D01*
X132546059Y-104356444D01*
X132546058Y-104356443D01*
X132486744Y-104331874D01*
X132444801Y-104314500D01*
X132444800Y-104314500D01*
X132335200Y-104314500D01*
X132335198Y-104314500D01*
X132233940Y-104356444D01*
X132174648Y-104415736D01*
X132140000Y-104430088D01*
X132105352Y-104415736D01*
X132046061Y-104356445D01*
X132046059Y-104356444D01*
X132046058Y-104356443D01*
X131986744Y-104331874D01*
X131944801Y-104314500D01*
X131944800Y-104314500D01*
X131835200Y-104314500D01*
X131835198Y-104314500D01*
X131733940Y-104356444D01*
X131674648Y-104415736D01*
X131640000Y-104430088D01*
X131605352Y-104415736D01*
X131546061Y-104356445D01*
X131546059Y-104356444D01*
X131546058Y-104356443D01*
X131486744Y-104331874D01*
X131444801Y-104314500D01*
X131444800Y-104314500D01*
X131335200Y-104314500D01*
X131335198Y-104314500D01*
X131233940Y-104356444D01*
X131156444Y-104433940D01*
X131114500Y-104535198D01*
X122880500Y-104535198D01*
X122880500Y-104501309D01*
X122873920Y-104468230D01*
X122845896Y-104327343D01*
X122845893Y-104327332D01*
X122821442Y-104268301D01*
X122778013Y-104163453D01*
X122707176Y-104057439D01*
X122679466Y-104015967D01*
X122554032Y-103890533D01*
X122466021Y-103831726D01*
X122406547Y-103791987D01*
X122406544Y-103791985D01*
X122406543Y-103791985D01*
X122242667Y-103724106D01*
X122242656Y-103724103D01*
X122068696Y-103689500D01*
X122068691Y-103689500D01*
X121891309Y-103689500D01*
X121891303Y-103689500D01*
X121717343Y-103724103D01*
X121717332Y-103724106D01*
X121553456Y-103791985D01*
X121405967Y-103890533D01*
X121280533Y-104015967D01*
X121181985Y-104163456D01*
X121114106Y-104327332D01*
X121114103Y-104327343D01*
X121079500Y-104501303D01*
X120651924Y-104501303D01*
X120651924Y-104494748D01*
X120678441Y-104468230D01*
X120729558Y-104447057D01*
X120729560Y-104447055D01*
X120729561Y-104447055D01*
X120807055Y-104369561D01*
X120807055Y-104369560D01*
X120807057Y-104369558D01*
X120849000Y-104268300D01*
X120849000Y-104158700D01*
X120807057Y-104057442D01*
X120807055Y-104057440D01*
X120807055Y-104057439D01*
X120729561Y-103979945D01*
X120729559Y-103979944D01*
X120729558Y-103979943D01*
X120678441Y-103958769D01*
X120651924Y-103932251D01*
X120651924Y-103894748D01*
X120678441Y-103868230D01*
X120729558Y-103847057D01*
X120729560Y-103847055D01*
X120729561Y-103847055D01*
X120807055Y-103769561D01*
X120807055Y-103769560D01*
X120807057Y-103769558D01*
X120849000Y-103668300D01*
X120849000Y-103558700D01*
X120839265Y-103535198D01*
X130614500Y-103535198D01*
X130614500Y-103644801D01*
X130631874Y-103686744D01*
X130656443Y-103746058D01*
X130656444Y-103746059D01*
X130656445Y-103746061D01*
X130733939Y-103823555D01*
X130733940Y-103823555D01*
X130733942Y-103823557D01*
X130835200Y-103865500D01*
X130835202Y-103865500D01*
X130944798Y-103865500D01*
X130944800Y-103865500D01*
X131046058Y-103823557D01*
X131046060Y-103823555D01*
X131046061Y-103823555D01*
X131105352Y-103764264D01*
X131140000Y-103749912D01*
X131174648Y-103764264D01*
X131233939Y-103823555D01*
X131233940Y-103823555D01*
X131233942Y-103823557D01*
X131335200Y-103865500D01*
X131335202Y-103865500D01*
X131444798Y-103865500D01*
X131444800Y-103865500D01*
X131546058Y-103823557D01*
X131546060Y-103823555D01*
X131546061Y-103823555D01*
X131605352Y-103764264D01*
X131640000Y-103749912D01*
X131674648Y-103764264D01*
X131733939Y-103823555D01*
X131733940Y-103823555D01*
X131733942Y-103823557D01*
X131835200Y-103865500D01*
X131835202Y-103865500D01*
X131944798Y-103865500D01*
X131944800Y-103865500D01*
X132046058Y-103823557D01*
X132046060Y-103823555D01*
X132046061Y-103823555D01*
X132105352Y-103764264D01*
X132140000Y-103749912D01*
X132174648Y-103764264D01*
X132233939Y-103823555D01*
X132233940Y-103823555D01*
X132233942Y-103823557D01*
X132335200Y-103865500D01*
X132335202Y-103865500D01*
X132444798Y-103865500D01*
X132444800Y-103865500D01*
X132546058Y-103823557D01*
X132546060Y-103823555D01*
X132546061Y-103823555D01*
X132605352Y-103764264D01*
X132640000Y-103749912D01*
X132674648Y-103764264D01*
X132733939Y-103823555D01*
X132733940Y-103823555D01*
X132733942Y-103823557D01*
X132835200Y-103865500D01*
X132835202Y-103865500D01*
X132944798Y-103865500D01*
X132944800Y-103865500D01*
X133046058Y-103823557D01*
X133046060Y-103823555D01*
X133046061Y-103823555D01*
X133105352Y-103764264D01*
X133140000Y-103749912D01*
X133174648Y-103764264D01*
X133233939Y-103823555D01*
X133233940Y-103823555D01*
X133233942Y-103823557D01*
X133335200Y-103865500D01*
X133335202Y-103865500D01*
X133444798Y-103865500D01*
X133444800Y-103865500D01*
X133546058Y-103823557D01*
X133546060Y-103823555D01*
X133546061Y-103823555D01*
X133605352Y-103764264D01*
X133640000Y-103749912D01*
X133674648Y-103764264D01*
X133733939Y-103823555D01*
X133733940Y-103823555D01*
X133733942Y-103823557D01*
X133835200Y-103865500D01*
X133835202Y-103865500D01*
X133944798Y-103865500D01*
X133944800Y-103865500D01*
X134046058Y-103823557D01*
X134046060Y-103823555D01*
X134046061Y-103823555D01*
X134123555Y-103746061D01*
X134123555Y-103746060D01*
X134123557Y-103746058D01*
X134165500Y-103644800D01*
X134165500Y-103535200D01*
X134123557Y-103433942D01*
X134123555Y-103433940D01*
X134123555Y-103433939D01*
X134046061Y-103356445D01*
X134046059Y-103356444D01*
X134046058Y-103356443D01*
X133986744Y-103331874D01*
X133944801Y-103314500D01*
X133944800Y-103314500D01*
X133835200Y-103314500D01*
X133835198Y-103314500D01*
X133733940Y-103356444D01*
X133674648Y-103415736D01*
X133640000Y-103430088D01*
X133605352Y-103415736D01*
X133546061Y-103356445D01*
X133546059Y-103356444D01*
X133546058Y-103356443D01*
X133486744Y-103331874D01*
X133444801Y-103314500D01*
X133444800Y-103314500D01*
X133335200Y-103314500D01*
X133335198Y-103314500D01*
X133233940Y-103356444D01*
X133174648Y-103415736D01*
X133140000Y-103430088D01*
X133105352Y-103415736D01*
X133046061Y-103356445D01*
X133046059Y-103356444D01*
X133046058Y-103356443D01*
X132986744Y-103331874D01*
X132944801Y-103314500D01*
X132944800Y-103314500D01*
X132835200Y-103314500D01*
X132835198Y-103314500D01*
X132733940Y-103356444D01*
X132674648Y-103415736D01*
X132640000Y-103430088D01*
X132605352Y-103415736D01*
X132546061Y-103356445D01*
X132546059Y-103356444D01*
X132546058Y-103356443D01*
X132486744Y-103331874D01*
X132444801Y-103314500D01*
X132444800Y-103314500D01*
X132335200Y-103314500D01*
X132335198Y-103314500D01*
X132233940Y-103356444D01*
X132174648Y-103415736D01*
X132140000Y-103430088D01*
X132105352Y-103415736D01*
X132046061Y-103356445D01*
X132046059Y-103356444D01*
X132046058Y-103356443D01*
X131986744Y-103331874D01*
X131944801Y-103314500D01*
X131944800Y-103314500D01*
X131835200Y-103314500D01*
X131835198Y-103314500D01*
X131733940Y-103356444D01*
X131674648Y-103415736D01*
X131640000Y-103430088D01*
X131605352Y-103415736D01*
X131546061Y-103356445D01*
X131546059Y-103356444D01*
X131546058Y-103356443D01*
X131486744Y-103331874D01*
X131444801Y-103314500D01*
X131444800Y-103314500D01*
X131335200Y-103314500D01*
X131335198Y-103314500D01*
X131233940Y-103356444D01*
X131174648Y-103415736D01*
X131140000Y-103430088D01*
X131105352Y-103415736D01*
X131046061Y-103356445D01*
X131046059Y-103356444D01*
X131046058Y-103356443D01*
X130986744Y-103331874D01*
X130944801Y-103314500D01*
X130944800Y-103314500D01*
X130835200Y-103314500D01*
X130835198Y-103314500D01*
X130733940Y-103356444D01*
X130656444Y-103433940D01*
X130614500Y-103535198D01*
X120839265Y-103535198D01*
X120807057Y-103457442D01*
X120807055Y-103457440D01*
X120807055Y-103457439D01*
X120729561Y-103379945D01*
X120729559Y-103379944D01*
X120729558Y-103379943D01*
X120678441Y-103358769D01*
X120651924Y-103332251D01*
X120651924Y-103294748D01*
X120678441Y-103268230D01*
X120729558Y-103247057D01*
X120729560Y-103247055D01*
X120729561Y-103247055D01*
X120807055Y-103169561D01*
X120807055Y-103169560D01*
X120807057Y-103169558D01*
X120849000Y-103068300D01*
X120849000Y-102958700D01*
X120807057Y-102857442D01*
X120807055Y-102857440D01*
X120807055Y-102857439D01*
X120747764Y-102798148D01*
X120733412Y-102763500D01*
X120747764Y-102728852D01*
X120807055Y-102669561D01*
X120807055Y-102669560D01*
X120807057Y-102669558D01*
X120849000Y-102568300D01*
X120849000Y-102535198D01*
X130614500Y-102535198D01*
X130614500Y-102644801D01*
X130624756Y-102669561D01*
X130656443Y-102746058D01*
X130656444Y-102746059D01*
X130656445Y-102746061D01*
X130733939Y-102823555D01*
X130733940Y-102823555D01*
X130733942Y-102823557D01*
X130835200Y-102865500D01*
X130835202Y-102865500D01*
X130944798Y-102865500D01*
X130944800Y-102865500D01*
X131046058Y-102823557D01*
X131046060Y-102823555D01*
X131046061Y-102823555D01*
X131105352Y-102764264D01*
X131140000Y-102749912D01*
X131174648Y-102764264D01*
X131233939Y-102823555D01*
X131233940Y-102823555D01*
X131233942Y-102823557D01*
X131335200Y-102865500D01*
X131335202Y-102865500D01*
X131444798Y-102865500D01*
X131444800Y-102865500D01*
X131546058Y-102823557D01*
X131546060Y-102823555D01*
X131546061Y-102823555D01*
X131605352Y-102764264D01*
X131640000Y-102749912D01*
X131674648Y-102764264D01*
X131733939Y-102823555D01*
X131733940Y-102823555D01*
X131733942Y-102823557D01*
X131835200Y-102865500D01*
X131835202Y-102865500D01*
X131944798Y-102865500D01*
X131944800Y-102865500D01*
X132046058Y-102823557D01*
X132046060Y-102823555D01*
X132046061Y-102823555D01*
X132105352Y-102764264D01*
X132140000Y-102749912D01*
X132174648Y-102764264D01*
X132233939Y-102823555D01*
X132233940Y-102823555D01*
X132233942Y-102823557D01*
X132335200Y-102865500D01*
X132335202Y-102865500D01*
X132444798Y-102865500D01*
X132444800Y-102865500D01*
X132546058Y-102823557D01*
X132546060Y-102823555D01*
X132546061Y-102823555D01*
X132605352Y-102764264D01*
X132640000Y-102749912D01*
X132674648Y-102764264D01*
X132733939Y-102823555D01*
X132733940Y-102823555D01*
X132733942Y-102823557D01*
X132835200Y-102865500D01*
X132835202Y-102865500D01*
X132944798Y-102865500D01*
X132944800Y-102865500D01*
X133046058Y-102823557D01*
X133046060Y-102823555D01*
X133046061Y-102823555D01*
X133105352Y-102764264D01*
X133140000Y-102749912D01*
X133174648Y-102764264D01*
X133233939Y-102823555D01*
X133233940Y-102823555D01*
X133233942Y-102823557D01*
X133335200Y-102865500D01*
X133335202Y-102865500D01*
X133444798Y-102865500D01*
X133444800Y-102865500D01*
X133546058Y-102823557D01*
X133546060Y-102823555D01*
X133546061Y-102823555D01*
X133605352Y-102764264D01*
X133640000Y-102749912D01*
X133674648Y-102764264D01*
X133733939Y-102823555D01*
X133733940Y-102823555D01*
X133733942Y-102823557D01*
X133835200Y-102865500D01*
X133835202Y-102865500D01*
X133944798Y-102865500D01*
X133944800Y-102865500D01*
X134046058Y-102823557D01*
X134046060Y-102823555D01*
X134046061Y-102823555D01*
X134123555Y-102746061D01*
X134123555Y-102746060D01*
X134123557Y-102746058D01*
X134165500Y-102644800D01*
X134165500Y-102535200D01*
X134123557Y-102433942D01*
X134123555Y-102433940D01*
X134123555Y-102433939D01*
X134046061Y-102356445D01*
X134046059Y-102356444D01*
X134046058Y-102356443D01*
X133986744Y-102331874D01*
X133944801Y-102314500D01*
X133944800Y-102314500D01*
X133835200Y-102314500D01*
X133835198Y-102314500D01*
X133733940Y-102356444D01*
X133674648Y-102415736D01*
X133640000Y-102430088D01*
X133605352Y-102415736D01*
X133546061Y-102356445D01*
X133546059Y-102356444D01*
X133546058Y-102356443D01*
X133486744Y-102331874D01*
X133444801Y-102314500D01*
X133444800Y-102314500D01*
X133335200Y-102314500D01*
X133335198Y-102314500D01*
X133233940Y-102356444D01*
X133174648Y-102415736D01*
X133140000Y-102430088D01*
X133105352Y-102415736D01*
X133046061Y-102356445D01*
X133046059Y-102356444D01*
X133046058Y-102356443D01*
X132986744Y-102331874D01*
X132944801Y-102314500D01*
X132944800Y-102314500D01*
X132835200Y-102314500D01*
X132835198Y-102314500D01*
X132733940Y-102356444D01*
X132674648Y-102415736D01*
X132640000Y-102430088D01*
X132605352Y-102415736D01*
X132546061Y-102356445D01*
X132546059Y-102356444D01*
X132546058Y-102356443D01*
X132486744Y-102331874D01*
X132444801Y-102314500D01*
X132444800Y-102314500D01*
X132335200Y-102314500D01*
X132335198Y-102314500D01*
X132233940Y-102356444D01*
X132174648Y-102415736D01*
X132140000Y-102430088D01*
X132105352Y-102415736D01*
X132046061Y-102356445D01*
X132046059Y-102356444D01*
X132046058Y-102356443D01*
X131986744Y-102331874D01*
X131944801Y-102314500D01*
X131944800Y-102314500D01*
X131835200Y-102314500D01*
X131835198Y-102314500D01*
X131733940Y-102356444D01*
X131674648Y-102415736D01*
X131640000Y-102430088D01*
X131605352Y-102415736D01*
X131546061Y-102356445D01*
X131546059Y-102356444D01*
X131546058Y-102356443D01*
X131486744Y-102331874D01*
X131444801Y-102314500D01*
X131444800Y-102314500D01*
X131335200Y-102314500D01*
X131335198Y-102314500D01*
X131233940Y-102356444D01*
X131174648Y-102415736D01*
X131140000Y-102430088D01*
X131105352Y-102415736D01*
X131046061Y-102356445D01*
X131046059Y-102356444D01*
X131046058Y-102356443D01*
X130986744Y-102331874D01*
X130944801Y-102314500D01*
X130944800Y-102314500D01*
X130835200Y-102314500D01*
X130835198Y-102314500D01*
X130733940Y-102356444D01*
X130656444Y-102433940D01*
X130614500Y-102535198D01*
X120849000Y-102535198D01*
X120849000Y-102458700D01*
X120807057Y-102357442D01*
X120807055Y-102357440D01*
X120807055Y-102357439D01*
X120729561Y-102279945D01*
X120729559Y-102279944D01*
X120729558Y-102279943D01*
X120678441Y-102258769D01*
X120651924Y-102232251D01*
X120651924Y-102194748D01*
X120678441Y-102168230D01*
X120729558Y-102147057D01*
X120729560Y-102147055D01*
X120729561Y-102147055D01*
X120807055Y-102069561D01*
X120807055Y-102069560D01*
X120807057Y-102069558D01*
X120849000Y-101968300D01*
X120849000Y-101858700D01*
X120807057Y-101757442D01*
X120807055Y-101757440D01*
X120807055Y-101757439D01*
X120729561Y-101679945D01*
X120729559Y-101679944D01*
X120729558Y-101679943D01*
X120678441Y-101658769D01*
X120651924Y-101632251D01*
X120651924Y-101594748D01*
X120678441Y-101568230D01*
X120729558Y-101547057D01*
X120729560Y-101547055D01*
X120729561Y-101547055D01*
X120807055Y-101469561D01*
X120807055Y-101469560D01*
X120807057Y-101469558D01*
X120849000Y-101368300D01*
X120849000Y-101258700D01*
X120807057Y-101157442D01*
X120807055Y-101157440D01*
X120807055Y-101157439D01*
X120729561Y-101079945D01*
X120729559Y-101079944D01*
X120729558Y-101079943D01*
X120678441Y-101058769D01*
X120651924Y-101032251D01*
X120651924Y-100994748D01*
X120678441Y-100968230D01*
X120729558Y-100947057D01*
X120729560Y-100947055D01*
X120729561Y-100947055D01*
X120807055Y-100869561D01*
X120807055Y-100869560D01*
X120807057Y-100869558D01*
X120849000Y-100768300D01*
X120849000Y-100658700D01*
X120807057Y-100557442D01*
X120807055Y-100557440D01*
X120807055Y-100557439D01*
X120729561Y-100479945D01*
X120729559Y-100479944D01*
X120729558Y-100479943D01*
X120678441Y-100458769D01*
X120651924Y-100432251D01*
X120651924Y-100394748D01*
X120678441Y-100368230D01*
X120729558Y-100347057D01*
X120729560Y-100347055D01*
X120729561Y-100347055D01*
X120807055Y-100269561D01*
X120807055Y-100269560D01*
X120807057Y-100269558D01*
X120849000Y-100168300D01*
X120849000Y-100058700D01*
X120807057Y-99957442D01*
X120807055Y-99957440D01*
X120807055Y-99957439D01*
X120729561Y-99879945D01*
X120729559Y-99879944D01*
X120729558Y-99879943D01*
X120670244Y-99855374D01*
X120628301Y-99838000D01*
X120628300Y-99838000D01*
X120518700Y-99838000D01*
X120518698Y-99838000D01*
X120417440Y-99879944D01*
X120339945Y-99957439D01*
X120339943Y-99957440D01*
X120318770Y-100008557D01*
X120292251Y-100035075D01*
X120254748Y-100035075D01*
X120228230Y-100008557D01*
X120207056Y-99957440D01*
X120129561Y-99879945D01*
X120129559Y-99879944D01*
X120129558Y-99879943D01*
X120078441Y-99858769D01*
X120051924Y-99832251D01*
X120051924Y-99794748D01*
X120078441Y-99768230D01*
X120129558Y-99747057D01*
X120129560Y-99747055D01*
X120129561Y-99747055D01*
X120207055Y-99669561D01*
X120207055Y-99669560D01*
X120207057Y-99669558D01*
X120249000Y-99568300D01*
X120249000Y-99458700D01*
X120207057Y-99357442D01*
X120207055Y-99357440D01*
X120207055Y-99357439D01*
X120129561Y-99279945D01*
X120129559Y-99279944D01*
X120129558Y-99279943D01*
X120070244Y-99255374D01*
X120028301Y-99238000D01*
X120028300Y-99238000D01*
X119918700Y-99238000D01*
X119918698Y-99238000D01*
X119817440Y-99279944D01*
X119739945Y-99357439D01*
X119739943Y-99357440D01*
X119718770Y-99408557D01*
X119692251Y-99435075D01*
X119654748Y-99435075D01*
X119628230Y-99408557D01*
X119607056Y-99357440D01*
X119529561Y-99279945D01*
X119529559Y-99279944D01*
X119529558Y-99279943D01*
X119470244Y-99255374D01*
X119428301Y-99238000D01*
X119428300Y-99238000D01*
X119318700Y-99238000D01*
X119318698Y-99238000D01*
X119217440Y-99279944D01*
X119139945Y-99357439D01*
X119139943Y-99357440D01*
X119118770Y-99408557D01*
X119092251Y-99435075D01*
X119054748Y-99435075D01*
X119028230Y-99408557D01*
X119007056Y-99357440D01*
X118929561Y-99279945D01*
X118929559Y-99279944D01*
X118929558Y-99279943D01*
X118870244Y-99255374D01*
X118828301Y-99238000D01*
X118828300Y-99238000D01*
X118718700Y-99238000D01*
X118718698Y-99238000D01*
X118617440Y-99279944D01*
X118539945Y-99357439D01*
X118539943Y-99357440D01*
X118518770Y-99408557D01*
X118492251Y-99435075D01*
X118454748Y-99435075D01*
X118428230Y-99408557D01*
X118407056Y-99357440D01*
X118329561Y-99279945D01*
X118329559Y-99279944D01*
X118329558Y-99279943D01*
X118270244Y-99255374D01*
X118228301Y-99238000D01*
X118228300Y-99238000D01*
X118118700Y-99238000D01*
X118118698Y-99238000D01*
X118017440Y-99279944D01*
X117939944Y-99357440D01*
X117898000Y-99458698D01*
X114880500Y-99458698D01*
X114880500Y-96645198D01*
X185714500Y-96645198D01*
X185714500Y-96645200D01*
X185714500Y-96754800D01*
X185756443Y-96856058D01*
X185756444Y-96856059D01*
X185756445Y-96856061D01*
X185833939Y-96933555D01*
X185833940Y-96933555D01*
X185833942Y-96933557D01*
X185935200Y-96975500D01*
X185935202Y-96975500D01*
X186044798Y-96975500D01*
X186044800Y-96975500D01*
X186146058Y-96933557D01*
X186146060Y-96933555D01*
X186146061Y-96933555D01*
X186223555Y-96856061D01*
X186223555Y-96856060D01*
X186223557Y-96856058D01*
X186265500Y-96754800D01*
X186265500Y-96645200D01*
X186223557Y-96543942D01*
X186223555Y-96543940D01*
X186223555Y-96543939D01*
X186146061Y-96466445D01*
X186146059Y-96466444D01*
X186146058Y-96466443D01*
X186086744Y-96441874D01*
X186044801Y-96424500D01*
X186044800Y-96424500D01*
X185935200Y-96424500D01*
X185935198Y-96424500D01*
X185833940Y-96466444D01*
X185756444Y-96543940D01*
X185714500Y-96645198D01*
X114880500Y-96645198D01*
X114880500Y-96115198D01*
X188514500Y-96115198D01*
X188514500Y-96115200D01*
X188514500Y-96224800D01*
X188556443Y-96326058D01*
X188556444Y-96326059D01*
X188556445Y-96326061D01*
X188633939Y-96403555D01*
X188633940Y-96403555D01*
X188633942Y-96403557D01*
X188735200Y-96445500D01*
X188735202Y-96445500D01*
X188844798Y-96445500D01*
X188844800Y-96445500D01*
X188946058Y-96403557D01*
X188946060Y-96403555D01*
X188946061Y-96403555D01*
X189023555Y-96326061D01*
X189023555Y-96326060D01*
X189023557Y-96326058D01*
X189065500Y-96224800D01*
X189065500Y-96115200D01*
X189023557Y-96013942D01*
X189023555Y-96013940D01*
X189023555Y-96013939D01*
X188946061Y-95936445D01*
X188946059Y-95936444D01*
X188946058Y-95936443D01*
X188886744Y-95911874D01*
X188844801Y-95894500D01*
X188844800Y-95894500D01*
X188735200Y-95894500D01*
X188735198Y-95894500D01*
X188633940Y-95936444D01*
X188556444Y-96013940D01*
X188514500Y-96115198D01*
X114880500Y-96115198D01*
X114880500Y-94755198D01*
X185454500Y-94755198D01*
X185454500Y-94755200D01*
X185454500Y-94864800D01*
X185496443Y-94966058D01*
X185496444Y-94966059D01*
X185496445Y-94966061D01*
X185573939Y-95043555D01*
X185573940Y-95043555D01*
X185573942Y-95043557D01*
X185675200Y-95085500D01*
X185675202Y-95085500D01*
X185784798Y-95085500D01*
X185784800Y-95085500D01*
X185886058Y-95043557D01*
X185886060Y-95043555D01*
X185886061Y-95043555D01*
X185963555Y-94966061D01*
X185963555Y-94966060D01*
X185963557Y-94966058D01*
X186005500Y-94864800D01*
X186005500Y-94755200D01*
X185963557Y-94653942D01*
X185963555Y-94653940D01*
X185963555Y-94653939D01*
X185886061Y-94576445D01*
X185886059Y-94576444D01*
X185886058Y-94576443D01*
X185826744Y-94551874D01*
X185784801Y-94534500D01*
X185784800Y-94534500D01*
X185675200Y-94534500D01*
X185675198Y-94534500D01*
X185573940Y-94576444D01*
X185496444Y-94653940D01*
X185454500Y-94755198D01*
X114880500Y-94755198D01*
X114880500Y-94125198D01*
X188504500Y-94125198D01*
X188504500Y-94125200D01*
X188504500Y-94234800D01*
X188546443Y-94336058D01*
X188546444Y-94336059D01*
X188546445Y-94336061D01*
X188623939Y-94413555D01*
X188623940Y-94413555D01*
X188623942Y-94413557D01*
X188725200Y-94455500D01*
X188725202Y-94455500D01*
X188834798Y-94455500D01*
X188834800Y-94455500D01*
X188936058Y-94413557D01*
X188936060Y-94413555D01*
X188936061Y-94413555D01*
X189013555Y-94336061D01*
X189013555Y-94336060D01*
X189013557Y-94336058D01*
X189055500Y-94234800D01*
X189055500Y-94125200D01*
X189013557Y-94023942D01*
X189013555Y-94023940D01*
X189013555Y-94023939D01*
X188936061Y-93946445D01*
X188936059Y-93946444D01*
X188936058Y-93946443D01*
X188876744Y-93921874D01*
X188834801Y-93904500D01*
X188834800Y-93904500D01*
X188725200Y-93904500D01*
X188725198Y-93904500D01*
X188623940Y-93946444D01*
X188546444Y-94023940D01*
X188504500Y-94125198D01*
X114880500Y-94125198D01*
X114880500Y-93615198D01*
X185514500Y-93615198D01*
X185514500Y-93615200D01*
X185514500Y-93724800D01*
X185556443Y-93826058D01*
X185556444Y-93826059D01*
X185556445Y-93826061D01*
X185633939Y-93903555D01*
X185633940Y-93903555D01*
X185633942Y-93903557D01*
X185735200Y-93945500D01*
X185735202Y-93945500D01*
X185844798Y-93945500D01*
X185844800Y-93945500D01*
X185946058Y-93903557D01*
X185946060Y-93903555D01*
X185946061Y-93903555D01*
X186023555Y-93826061D01*
X186023555Y-93826060D01*
X186023557Y-93826058D01*
X186065500Y-93724800D01*
X186065500Y-93615200D01*
X186023557Y-93513942D01*
X186023555Y-93513940D01*
X186023555Y-93513939D01*
X185946061Y-93436445D01*
X185946059Y-93436444D01*
X185946058Y-93436443D01*
X185886744Y-93411874D01*
X185844801Y-93394500D01*
X185844800Y-93394500D01*
X185735200Y-93394500D01*
X185735198Y-93394500D01*
X185633940Y-93436444D01*
X185556444Y-93513940D01*
X185514500Y-93615198D01*
X114880500Y-93615198D01*
X114880500Y-93115198D01*
X188514500Y-93115198D01*
X188514500Y-93115200D01*
X188514500Y-93224800D01*
X188556443Y-93326058D01*
X188556444Y-93326059D01*
X188556445Y-93326061D01*
X188633939Y-93403555D01*
X188633940Y-93403555D01*
X188633942Y-93403557D01*
X188735200Y-93445500D01*
X188735202Y-93445500D01*
X188844798Y-93445500D01*
X188844800Y-93445500D01*
X188946058Y-93403557D01*
X188946060Y-93403555D01*
X188946061Y-93403555D01*
X189023555Y-93326061D01*
X189023555Y-93326060D01*
X189023557Y-93326058D01*
X189065500Y-93224800D01*
X189065500Y-93115200D01*
X189023557Y-93013942D01*
X189023555Y-93013940D01*
X189023555Y-93013939D01*
X188946061Y-92936445D01*
X188946059Y-92936444D01*
X188946058Y-92936443D01*
X188886744Y-92911874D01*
X188844801Y-92894500D01*
X188844800Y-92894500D01*
X188735200Y-92894500D01*
X188735198Y-92894500D01*
X188633940Y-92936444D01*
X188556444Y-93013940D01*
X188514500Y-93115198D01*
X114880500Y-93115198D01*
X114880500Y-92615198D01*
X184104500Y-92615198D01*
X184104500Y-92615200D01*
X184104500Y-92724800D01*
X184146443Y-92826058D01*
X184146444Y-92826059D01*
X184146445Y-92826061D01*
X184223939Y-92903555D01*
X184223940Y-92903555D01*
X184223942Y-92903557D01*
X184325200Y-92945500D01*
X184325202Y-92945500D01*
X184434798Y-92945500D01*
X184434800Y-92945500D01*
X184536058Y-92903557D01*
X184536060Y-92903555D01*
X184536061Y-92903555D01*
X184613555Y-92826061D01*
X184613555Y-92826060D01*
X184613557Y-92826058D01*
X184655500Y-92724800D01*
X184655500Y-92615200D01*
X184613557Y-92513942D01*
X184613555Y-92513940D01*
X184613555Y-92513939D01*
X184536061Y-92436445D01*
X184536059Y-92436444D01*
X184536058Y-92436443D01*
X184476744Y-92411874D01*
X184434801Y-92394500D01*
X184434800Y-92394500D01*
X184325200Y-92394500D01*
X184325198Y-92394500D01*
X184223940Y-92436444D01*
X184146444Y-92513940D01*
X184104500Y-92615198D01*
X114880500Y-92615198D01*
X114880500Y-92135198D01*
X188504500Y-92135198D01*
X188504500Y-92135200D01*
X188504500Y-92244800D01*
X188546443Y-92346058D01*
X188546444Y-92346059D01*
X188546445Y-92346061D01*
X188623939Y-92423555D01*
X188623940Y-92423555D01*
X188623942Y-92423557D01*
X188725200Y-92465500D01*
X188725202Y-92465500D01*
X188834798Y-92465500D01*
X188834800Y-92465500D01*
X188936058Y-92423557D01*
X188936060Y-92423555D01*
X188936061Y-92423555D01*
X189013555Y-92346061D01*
X189013555Y-92346060D01*
X189013557Y-92346058D01*
X189055500Y-92244800D01*
X189055500Y-92135200D01*
X189013557Y-92033942D01*
X189013555Y-92033940D01*
X189013555Y-92033939D01*
X188936061Y-91956445D01*
X188936059Y-91956444D01*
X188936058Y-91956443D01*
X188876744Y-91931874D01*
X188834801Y-91914500D01*
X188834800Y-91914500D01*
X188725200Y-91914500D01*
X188725198Y-91914500D01*
X188623940Y-91956444D01*
X188546444Y-92033940D01*
X188504500Y-92135198D01*
X114880500Y-92135198D01*
X114880500Y-91623981D01*
X183287263Y-91623981D01*
X183287263Y-91623983D01*
X183287263Y-91733583D01*
X183329206Y-91834841D01*
X183329207Y-91834842D01*
X183329208Y-91834844D01*
X183406702Y-91912338D01*
X183406703Y-91912338D01*
X183406705Y-91912340D01*
X183507963Y-91954283D01*
X183507965Y-91954283D01*
X183617561Y-91954283D01*
X183617563Y-91954283D01*
X183718821Y-91912340D01*
X183718823Y-91912338D01*
X183718824Y-91912338D01*
X183796318Y-91834844D01*
X183796318Y-91834843D01*
X183796320Y-91834841D01*
X183838263Y-91733583D01*
X183838263Y-91623983D01*
X183796320Y-91522725D01*
X183796318Y-91522723D01*
X183796318Y-91522722D01*
X183718824Y-91445228D01*
X183718822Y-91445227D01*
X183718821Y-91445226D01*
X183659507Y-91420657D01*
X183617564Y-91403283D01*
X183617563Y-91403283D01*
X183507963Y-91403283D01*
X183507961Y-91403283D01*
X183406703Y-91445227D01*
X183329207Y-91522723D01*
X183287263Y-91623981D01*
X114880500Y-91623981D01*
X114880500Y-91125198D01*
X188474500Y-91125198D01*
X188474500Y-91125200D01*
X188474500Y-91234800D01*
X188516443Y-91336058D01*
X188516444Y-91336059D01*
X188516445Y-91336061D01*
X188593939Y-91413555D01*
X188593940Y-91413555D01*
X188593942Y-91413557D01*
X188695200Y-91455500D01*
X188695202Y-91455500D01*
X188804798Y-91455500D01*
X188804800Y-91455500D01*
X188906058Y-91413557D01*
X188906060Y-91413555D01*
X188906061Y-91413555D01*
X188983555Y-91336061D01*
X188983555Y-91336060D01*
X188983557Y-91336058D01*
X189025500Y-91234800D01*
X189025500Y-91125200D01*
X188983557Y-91023942D01*
X188983555Y-91023940D01*
X188983555Y-91023939D01*
X188906061Y-90946445D01*
X188906059Y-90946444D01*
X188906058Y-90946443D01*
X188846744Y-90921874D01*
X188804801Y-90904500D01*
X188804800Y-90904500D01*
X188695200Y-90904500D01*
X188695198Y-90904500D01*
X188593940Y-90946444D01*
X188516444Y-91023940D01*
X188474500Y-91125198D01*
X114880500Y-91125198D01*
X114880500Y-90615198D01*
X185754500Y-90615198D01*
X185754500Y-90615200D01*
X185754500Y-90724800D01*
X185796443Y-90826058D01*
X185796444Y-90826059D01*
X185796445Y-90826061D01*
X185873939Y-90903555D01*
X185873940Y-90903555D01*
X185873942Y-90903557D01*
X185975200Y-90945500D01*
X185975202Y-90945500D01*
X186084798Y-90945500D01*
X186084800Y-90945500D01*
X186186058Y-90903557D01*
X186186060Y-90903555D01*
X186186061Y-90903555D01*
X186263555Y-90826061D01*
X186263555Y-90826060D01*
X186263557Y-90826058D01*
X186305500Y-90724800D01*
X186305500Y-90615200D01*
X186263557Y-90513942D01*
X186263555Y-90513940D01*
X186263555Y-90513939D01*
X186186061Y-90436445D01*
X186186059Y-90436444D01*
X186186058Y-90436443D01*
X186126744Y-90411874D01*
X186084801Y-90394500D01*
X186084800Y-90394500D01*
X185975200Y-90394500D01*
X185975198Y-90394500D01*
X185873940Y-90436444D01*
X185796444Y-90513940D01*
X185754500Y-90615198D01*
X114880500Y-90615198D01*
X114880500Y-90125198D01*
X188414500Y-90125198D01*
X188414500Y-90125200D01*
X188414500Y-90234800D01*
X188456443Y-90336058D01*
X188456444Y-90336059D01*
X188456445Y-90336061D01*
X188533939Y-90413555D01*
X188533940Y-90413555D01*
X188533942Y-90413557D01*
X188635200Y-90455500D01*
X188635202Y-90455500D01*
X188744798Y-90455500D01*
X188744800Y-90455500D01*
X188846058Y-90413557D01*
X188846060Y-90413555D01*
X188846061Y-90413555D01*
X188923555Y-90336061D01*
X188923555Y-90336060D01*
X188923557Y-90336058D01*
X188965500Y-90234800D01*
X188965500Y-90125200D01*
X188923557Y-90023942D01*
X188923555Y-90023940D01*
X188923555Y-90023939D01*
X188846061Y-89946445D01*
X188846059Y-89946444D01*
X188846058Y-89946443D01*
X188786744Y-89921874D01*
X188744801Y-89904500D01*
X188744800Y-89904500D01*
X188635200Y-89904500D01*
X188635198Y-89904500D01*
X188533940Y-89946444D01*
X188456444Y-90023940D01*
X188414500Y-90125198D01*
X114880500Y-90125198D01*
X114880500Y-88805198D01*
X117459500Y-88805198D01*
X117459500Y-88914801D01*
X117476874Y-88956744D01*
X117501443Y-89016058D01*
X117501444Y-89016059D01*
X117501445Y-89016061D01*
X117578939Y-89093555D01*
X117578940Y-89093555D01*
X117578942Y-89093557D01*
X117680200Y-89135500D01*
X117680202Y-89135500D01*
X117789798Y-89135500D01*
X117789800Y-89135500D01*
X117891058Y-89093557D01*
X117891060Y-89093555D01*
X117891061Y-89093555D01*
X117968555Y-89016061D01*
X117968555Y-89016060D01*
X117968557Y-89016058D01*
X118010500Y-88914800D01*
X118010500Y-88805200D01*
X117968557Y-88703942D01*
X117968555Y-88703940D01*
X117968555Y-88703939D01*
X117891061Y-88626445D01*
X117891059Y-88626444D01*
X117891058Y-88626443D01*
X117863911Y-88615198D01*
X185694500Y-88615198D01*
X185694500Y-88615200D01*
X185694500Y-88724800D01*
X185736443Y-88826058D01*
X185736444Y-88826059D01*
X185736445Y-88826061D01*
X185813939Y-88903555D01*
X185813940Y-88903555D01*
X185813942Y-88903557D01*
X185915200Y-88945500D01*
X185915202Y-88945500D01*
X186024798Y-88945500D01*
X186024800Y-88945500D01*
X186126058Y-88903557D01*
X186126060Y-88903555D01*
X186126061Y-88903555D01*
X186203555Y-88826061D01*
X186203555Y-88826060D01*
X186203557Y-88826058D01*
X186245500Y-88724800D01*
X186245500Y-88615200D01*
X186203557Y-88513942D01*
X186203555Y-88513940D01*
X186203555Y-88513939D01*
X186126061Y-88436445D01*
X186126059Y-88436444D01*
X186126058Y-88436443D01*
X186066744Y-88411874D01*
X186024801Y-88394500D01*
X186024800Y-88394500D01*
X185915200Y-88394500D01*
X185915198Y-88394500D01*
X185813940Y-88436444D01*
X185736444Y-88513940D01*
X185694500Y-88615198D01*
X117863911Y-88615198D01*
X117831744Y-88601874D01*
X117789801Y-88584500D01*
X117789800Y-88584500D01*
X117680200Y-88584500D01*
X117680198Y-88584500D01*
X117578940Y-88626444D01*
X117501444Y-88703940D01*
X117459500Y-88805198D01*
X114880500Y-88805198D01*
X114880500Y-88125198D01*
X188444500Y-88125198D01*
X188444500Y-88125200D01*
X188444500Y-88234800D01*
X188486443Y-88336058D01*
X188486444Y-88336059D01*
X188486445Y-88336061D01*
X188563939Y-88413555D01*
X188563940Y-88413555D01*
X188563942Y-88413557D01*
X188665200Y-88455500D01*
X188665202Y-88455500D01*
X188774798Y-88455500D01*
X188774800Y-88455500D01*
X188876058Y-88413557D01*
X188876060Y-88413555D01*
X188876061Y-88413555D01*
X188953555Y-88336061D01*
X188953555Y-88336060D01*
X188953557Y-88336058D01*
X188995500Y-88234800D01*
X188995500Y-88125200D01*
X188953557Y-88023942D01*
X188953555Y-88023940D01*
X188953555Y-88023939D01*
X188876061Y-87946445D01*
X188876059Y-87946444D01*
X188876058Y-87946443D01*
X188816744Y-87921874D01*
X188774801Y-87904500D01*
X188774800Y-87904500D01*
X188665200Y-87904500D01*
X188665198Y-87904500D01*
X188563940Y-87946444D01*
X188486444Y-88023940D01*
X188444500Y-88125198D01*
X114880500Y-88125198D01*
X114880500Y-87625198D01*
X185704500Y-87625198D01*
X185704500Y-87625200D01*
X185704500Y-87734800D01*
X185746443Y-87836058D01*
X185746444Y-87836059D01*
X185746445Y-87836061D01*
X185823939Y-87913555D01*
X185823940Y-87913555D01*
X185823942Y-87913557D01*
X185925200Y-87955500D01*
X185925202Y-87955500D01*
X186034798Y-87955500D01*
X186034800Y-87955500D01*
X186136058Y-87913557D01*
X186136060Y-87913555D01*
X186136061Y-87913555D01*
X186213555Y-87836061D01*
X186213555Y-87836060D01*
X186213557Y-87836058D01*
X186255500Y-87734800D01*
X186255500Y-87625200D01*
X186213557Y-87523942D01*
X186213555Y-87523940D01*
X186213555Y-87523939D01*
X186136061Y-87446445D01*
X186136059Y-87446444D01*
X186136058Y-87446443D01*
X186076744Y-87421874D01*
X186034801Y-87404500D01*
X186034800Y-87404500D01*
X185925200Y-87404500D01*
X185925198Y-87404500D01*
X185823940Y-87446444D01*
X185746444Y-87523940D01*
X185704500Y-87625198D01*
X114880500Y-87625198D01*
X114880500Y-87125198D01*
X188444500Y-87125198D01*
X188444500Y-87125200D01*
X188444500Y-87234800D01*
X188486443Y-87336058D01*
X188486444Y-87336059D01*
X188486445Y-87336061D01*
X188563939Y-87413555D01*
X188563940Y-87413555D01*
X188563942Y-87413557D01*
X188665200Y-87455500D01*
X188665202Y-87455500D01*
X188774798Y-87455500D01*
X188774800Y-87455500D01*
X188876058Y-87413557D01*
X188876060Y-87413555D01*
X188876061Y-87413555D01*
X188953555Y-87336061D01*
X188953555Y-87336060D01*
X188953557Y-87336058D01*
X188995500Y-87234800D01*
X188995500Y-87125200D01*
X188953557Y-87023942D01*
X188953555Y-87023940D01*
X188953555Y-87023939D01*
X188876061Y-86946445D01*
X188876059Y-86946444D01*
X188876058Y-86946443D01*
X188816744Y-86921874D01*
X188774801Y-86904500D01*
X188774800Y-86904500D01*
X188665200Y-86904500D01*
X188665198Y-86904500D01*
X188563940Y-86946444D01*
X188486444Y-87023940D01*
X188444500Y-87125198D01*
X114880500Y-87125198D01*
X114880500Y-86625198D01*
X185684500Y-86625198D01*
X185684500Y-86625200D01*
X185684500Y-86734800D01*
X185726443Y-86836058D01*
X185726444Y-86836059D01*
X185726445Y-86836061D01*
X185803939Y-86913555D01*
X185803940Y-86913555D01*
X185803942Y-86913557D01*
X185905200Y-86955500D01*
X185905202Y-86955500D01*
X186014798Y-86955500D01*
X186014800Y-86955500D01*
X186116058Y-86913557D01*
X186116060Y-86913555D01*
X186116061Y-86913555D01*
X186193555Y-86836061D01*
X186193555Y-86836060D01*
X186193557Y-86836058D01*
X186235500Y-86734800D01*
X186235500Y-86625200D01*
X186193557Y-86523942D01*
X186193555Y-86523940D01*
X186193555Y-86523939D01*
X186116061Y-86446445D01*
X186116059Y-86446444D01*
X186116058Y-86446443D01*
X186056744Y-86421874D01*
X186014801Y-86404500D01*
X186014800Y-86404500D01*
X185905200Y-86404500D01*
X185905198Y-86404500D01*
X185803940Y-86446444D01*
X185726444Y-86523940D01*
X185684500Y-86625198D01*
X114880500Y-86625198D01*
X114880500Y-86125198D01*
X188454500Y-86125198D01*
X188454500Y-86125200D01*
X188454500Y-86234800D01*
X188496443Y-86336058D01*
X188496444Y-86336059D01*
X188496445Y-86336061D01*
X188573939Y-86413555D01*
X188573940Y-86413555D01*
X188573942Y-86413557D01*
X188675200Y-86455500D01*
X188675202Y-86455500D01*
X188784798Y-86455500D01*
X188784800Y-86455500D01*
X188886058Y-86413557D01*
X188886060Y-86413555D01*
X188886061Y-86413555D01*
X188963555Y-86336061D01*
X188963555Y-86336060D01*
X188963557Y-86336058D01*
X189005500Y-86234800D01*
X189005500Y-86125200D01*
X188963557Y-86023942D01*
X188963555Y-86023940D01*
X188963555Y-86023939D01*
X188886061Y-85946445D01*
X188886059Y-85946444D01*
X188886058Y-85946443D01*
X188826744Y-85921874D01*
X188784801Y-85904500D01*
X188784800Y-85904500D01*
X188675200Y-85904500D01*
X188675198Y-85904500D01*
X188573940Y-85946444D01*
X188496444Y-86023940D01*
X188454500Y-86125198D01*
X114880500Y-86125198D01*
X114880500Y-85625198D01*
X185674500Y-85625198D01*
X185674500Y-85625200D01*
X185674500Y-85734800D01*
X185716443Y-85836058D01*
X185716444Y-85836059D01*
X185716445Y-85836061D01*
X185793939Y-85913555D01*
X185793940Y-85913555D01*
X185793942Y-85913557D01*
X185895200Y-85955500D01*
X185895202Y-85955500D01*
X186004798Y-85955500D01*
X186004800Y-85955500D01*
X186106058Y-85913557D01*
X186106060Y-85913555D01*
X186106061Y-85913555D01*
X186183555Y-85836061D01*
X186183555Y-85836060D01*
X186183557Y-85836058D01*
X186225500Y-85734800D01*
X186225500Y-85625200D01*
X186183557Y-85523942D01*
X186183555Y-85523940D01*
X186183555Y-85523939D01*
X186106061Y-85446445D01*
X186106059Y-85446444D01*
X186106058Y-85446443D01*
X186046744Y-85421874D01*
X186004801Y-85404500D01*
X186004800Y-85404500D01*
X185895200Y-85404500D01*
X185895198Y-85404500D01*
X185793940Y-85446444D01*
X185716444Y-85523940D01*
X185674500Y-85625198D01*
X114880500Y-85625198D01*
X114880500Y-84945198D01*
X117449500Y-84945198D01*
X117449500Y-84945200D01*
X117449500Y-85054800D01*
X117491443Y-85156058D01*
X117491444Y-85156059D01*
X117491445Y-85156061D01*
X117568939Y-85233555D01*
X117568940Y-85233555D01*
X117568942Y-85233557D01*
X117670200Y-85275500D01*
X117670202Y-85275500D01*
X117779798Y-85275500D01*
X117779800Y-85275500D01*
X117881058Y-85233557D01*
X117881060Y-85233555D01*
X117881061Y-85233555D01*
X117958555Y-85156061D01*
X117958555Y-85156060D01*
X117958557Y-85156058D01*
X117975482Y-85115198D01*
X188414500Y-85115198D01*
X188414500Y-85115200D01*
X188414500Y-85224800D01*
X188456443Y-85326058D01*
X188456444Y-85326059D01*
X188456445Y-85326061D01*
X188533939Y-85403555D01*
X188533940Y-85403555D01*
X188533942Y-85403557D01*
X188635200Y-85445500D01*
X188635202Y-85445500D01*
X188744798Y-85445500D01*
X188744800Y-85445500D01*
X188846058Y-85403557D01*
X188846060Y-85403555D01*
X188846061Y-85403555D01*
X188923555Y-85326061D01*
X188923555Y-85326060D01*
X188923557Y-85326058D01*
X188965500Y-85224800D01*
X188965500Y-85115200D01*
X188923557Y-85013942D01*
X188923555Y-85013940D01*
X188923555Y-85013939D01*
X188846061Y-84936445D01*
X188846059Y-84936444D01*
X188846058Y-84936443D01*
X188786744Y-84911874D01*
X188744801Y-84894500D01*
X188744800Y-84894500D01*
X188635200Y-84894500D01*
X188635198Y-84894500D01*
X188533940Y-84936444D01*
X188456444Y-85013940D01*
X188414500Y-85115198D01*
X117975482Y-85115198D01*
X118000500Y-85054800D01*
X118000500Y-84945200D01*
X117958557Y-84843942D01*
X117958555Y-84843940D01*
X117958555Y-84843939D01*
X117881061Y-84766445D01*
X117881059Y-84766444D01*
X117881058Y-84766443D01*
X117821744Y-84741874D01*
X117779801Y-84724500D01*
X117779800Y-84724500D01*
X117670200Y-84724500D01*
X117670198Y-84724500D01*
X117568940Y-84766444D01*
X117491444Y-84843940D01*
X117449500Y-84945198D01*
X114880500Y-84945198D01*
X114880500Y-84635198D01*
X185684500Y-84635198D01*
X185684500Y-84635200D01*
X185684500Y-84744800D01*
X185726443Y-84846058D01*
X185726444Y-84846059D01*
X185726445Y-84846061D01*
X185803939Y-84923555D01*
X185803940Y-84923555D01*
X185803942Y-84923557D01*
X185905200Y-84965500D01*
X185905202Y-84965500D01*
X186014798Y-84965500D01*
X186014800Y-84965500D01*
X186116058Y-84923557D01*
X186116060Y-84923555D01*
X186116061Y-84923555D01*
X186193555Y-84846061D01*
X186193555Y-84846060D01*
X186193557Y-84846058D01*
X186235500Y-84744800D01*
X186235500Y-84635200D01*
X186193557Y-84533942D01*
X186193555Y-84533940D01*
X186193555Y-84533939D01*
X186116061Y-84456445D01*
X186116059Y-84456444D01*
X186116058Y-84456443D01*
X186041354Y-84425499D01*
X186014801Y-84414500D01*
X186014800Y-84414500D01*
X185905200Y-84414500D01*
X185905198Y-84414500D01*
X185803940Y-84456444D01*
X185726444Y-84533940D01*
X185684500Y-84635198D01*
X114880500Y-84635198D01*
X114880500Y-84095198D01*
X188424500Y-84095198D01*
X188424500Y-84095200D01*
X188424500Y-84204800D01*
X188466443Y-84306058D01*
X188466444Y-84306059D01*
X188466445Y-84306061D01*
X188543939Y-84383555D01*
X188543940Y-84383555D01*
X188543942Y-84383557D01*
X188645200Y-84425500D01*
X188645202Y-84425500D01*
X188754798Y-84425500D01*
X188754800Y-84425500D01*
X188856058Y-84383557D01*
X188856060Y-84383555D01*
X188856061Y-84383555D01*
X188933555Y-84306061D01*
X188933555Y-84306060D01*
X188933557Y-84306058D01*
X188975500Y-84204800D01*
X188975500Y-84095200D01*
X188933557Y-83993942D01*
X188933555Y-83993940D01*
X188933555Y-83993939D01*
X188856061Y-83916445D01*
X188856059Y-83916444D01*
X188856058Y-83916443D01*
X188796744Y-83891874D01*
X188754801Y-83874500D01*
X188754800Y-83874500D01*
X188645200Y-83874500D01*
X188645198Y-83874500D01*
X188543940Y-83916444D01*
X188466444Y-83993940D01*
X188424500Y-84095198D01*
X114880500Y-84095198D01*
X114880500Y-82615198D01*
X185714500Y-82615198D01*
X185714500Y-82615200D01*
X185714500Y-82724800D01*
X185756443Y-82826058D01*
X185756444Y-82826059D01*
X185756445Y-82826061D01*
X185833939Y-82903555D01*
X185833940Y-82903555D01*
X185833942Y-82903557D01*
X185935200Y-82945500D01*
X185935202Y-82945500D01*
X186044798Y-82945500D01*
X186044800Y-82945500D01*
X186146058Y-82903557D01*
X186146060Y-82903555D01*
X186146061Y-82903555D01*
X186223555Y-82826061D01*
X186223555Y-82826060D01*
X186223557Y-82826058D01*
X186265500Y-82724800D01*
X186265500Y-82615200D01*
X186223557Y-82513942D01*
X186223555Y-82513940D01*
X186223555Y-82513939D01*
X186146061Y-82436445D01*
X186146059Y-82436444D01*
X186146058Y-82436443D01*
X186086744Y-82411874D01*
X186044801Y-82394500D01*
X186044800Y-82394500D01*
X185935200Y-82394500D01*
X185935198Y-82394500D01*
X185833940Y-82436444D01*
X185756444Y-82513940D01*
X185714500Y-82615198D01*
X114880500Y-82615198D01*
X114880500Y-82125198D01*
X188394500Y-82125198D01*
X188394500Y-82125200D01*
X188394500Y-82234800D01*
X188436443Y-82336058D01*
X188436444Y-82336059D01*
X188436445Y-82336061D01*
X188513939Y-82413555D01*
X188513940Y-82413555D01*
X188513942Y-82413557D01*
X188615200Y-82455500D01*
X188615202Y-82455500D01*
X188724798Y-82455500D01*
X188724800Y-82455500D01*
X188826058Y-82413557D01*
X188826060Y-82413555D01*
X188826061Y-82413555D01*
X188903555Y-82336061D01*
X188903555Y-82336060D01*
X188903557Y-82336058D01*
X188945500Y-82234800D01*
X188945500Y-82125200D01*
X188903557Y-82023942D01*
X188903555Y-82023940D01*
X188903555Y-82023939D01*
X188826061Y-81946445D01*
X188826059Y-81946444D01*
X188826058Y-81946443D01*
X188766744Y-81921874D01*
X188724801Y-81904500D01*
X188724800Y-81904500D01*
X188615200Y-81904500D01*
X188615198Y-81904500D01*
X188513940Y-81946444D01*
X188436444Y-82023940D01*
X188394500Y-82125198D01*
X114880500Y-82125198D01*
X114880500Y-81604198D01*
X179805500Y-81604198D01*
X179805500Y-81604200D01*
X179805500Y-81713800D01*
X179847443Y-81815058D01*
X179847444Y-81815059D01*
X179847445Y-81815061D01*
X179924939Y-81892555D01*
X179924940Y-81892555D01*
X179924942Y-81892557D01*
X180026200Y-81934500D01*
X180026202Y-81934500D01*
X180135798Y-81934500D01*
X180135800Y-81934500D01*
X180237058Y-81892557D01*
X180237060Y-81892555D01*
X180237061Y-81892555D01*
X180314555Y-81815061D01*
X180314555Y-81815060D01*
X180314557Y-81815058D01*
X180356500Y-81713800D01*
X180356500Y-81604200D01*
X180314557Y-81502942D01*
X180314555Y-81502940D01*
X180314555Y-81502939D01*
X180237061Y-81425445D01*
X180237059Y-81425444D01*
X180237058Y-81425443D01*
X180177744Y-81400874D01*
X180135801Y-81383500D01*
X180135800Y-81383500D01*
X180026200Y-81383500D01*
X180026198Y-81383500D01*
X179924940Y-81425444D01*
X179847444Y-81502940D01*
X179805500Y-81604198D01*
X114880500Y-81604198D01*
X114880500Y-81115198D01*
X182134500Y-81115198D01*
X182134500Y-81224801D01*
X182151874Y-81266744D01*
X182176443Y-81326058D01*
X182176444Y-81326059D01*
X182176445Y-81326061D01*
X182253939Y-81403555D01*
X182253940Y-81403555D01*
X182253942Y-81403557D01*
X182355200Y-81445500D01*
X182355202Y-81445500D01*
X182464798Y-81445500D01*
X182464800Y-81445500D01*
X182537955Y-81415198D01*
X185904500Y-81415198D01*
X185904500Y-81415200D01*
X185904500Y-81524800D01*
X185946443Y-81626058D01*
X185946444Y-81626059D01*
X185946445Y-81626061D01*
X186023939Y-81703555D01*
X186023940Y-81703555D01*
X186023942Y-81703557D01*
X186125200Y-81745500D01*
X186125202Y-81745500D01*
X186234798Y-81745500D01*
X186234800Y-81745500D01*
X186336058Y-81703557D01*
X186336060Y-81703555D01*
X186336061Y-81703555D01*
X186413555Y-81626061D01*
X186413555Y-81626060D01*
X186413557Y-81626058D01*
X186455500Y-81524800D01*
X186455500Y-81415200D01*
X186413557Y-81313942D01*
X186413555Y-81313940D01*
X186413555Y-81313939D01*
X186336061Y-81236445D01*
X186336059Y-81236444D01*
X186336058Y-81236443D01*
X186276744Y-81211874D01*
X186234801Y-81194500D01*
X186234800Y-81194500D01*
X186125200Y-81194500D01*
X186125198Y-81194500D01*
X186052050Y-81224800D01*
X186027909Y-81234800D01*
X186023940Y-81236444D01*
X185946444Y-81313940D01*
X185904500Y-81415198D01*
X182537955Y-81415198D01*
X182566058Y-81403557D01*
X182566060Y-81403555D01*
X182566061Y-81403555D01*
X182643555Y-81326061D01*
X182643555Y-81326060D01*
X182643557Y-81326058D01*
X182685500Y-81224800D01*
X182685500Y-81125198D01*
X188494500Y-81125198D01*
X188494500Y-81234801D01*
X188495181Y-81236444D01*
X188536443Y-81336058D01*
X188536444Y-81336059D01*
X188536445Y-81336061D01*
X188613939Y-81413555D01*
X188613940Y-81413555D01*
X188613942Y-81413557D01*
X188715200Y-81455500D01*
X188715202Y-81455500D01*
X188824798Y-81455500D01*
X188824800Y-81455500D01*
X188926058Y-81413557D01*
X188926060Y-81413555D01*
X188926061Y-81413555D01*
X189003555Y-81336061D01*
X189003555Y-81336060D01*
X189003557Y-81336058D01*
X189045500Y-81234800D01*
X189045500Y-81125200D01*
X189003557Y-81023942D01*
X189003555Y-81023940D01*
X189003555Y-81023939D01*
X188926061Y-80946445D01*
X188926059Y-80946444D01*
X188926058Y-80946443D01*
X188866744Y-80921874D01*
X188824801Y-80904500D01*
X188824800Y-80904500D01*
X188715200Y-80904500D01*
X188715198Y-80904500D01*
X188613940Y-80946444D01*
X188536444Y-81023940D01*
X188494500Y-81125198D01*
X182685500Y-81125198D01*
X182685500Y-81115200D01*
X182643557Y-81013942D01*
X182643555Y-81013940D01*
X182643555Y-81013939D01*
X182566061Y-80936445D01*
X182566059Y-80936444D01*
X182566058Y-80936443D01*
X182488942Y-80904500D01*
X182464801Y-80894500D01*
X182464800Y-80894500D01*
X182355200Y-80894500D01*
X182355198Y-80894500D01*
X182253940Y-80936444D01*
X182176444Y-81013940D01*
X182134500Y-81115198D01*
X114880500Y-81115198D01*
X114880500Y-80275198D01*
X182225500Y-80275198D01*
X182225500Y-80384801D01*
X182236020Y-80410198D01*
X182267443Y-80486058D01*
X182267444Y-80486059D01*
X182267445Y-80486061D01*
X182344939Y-80563555D01*
X182344940Y-80563555D01*
X182344942Y-80563557D01*
X182446200Y-80605500D01*
X182446202Y-80605500D01*
X182555798Y-80605500D01*
X182555800Y-80605500D01*
X182657058Y-80563557D01*
X182657060Y-80563555D01*
X182657061Y-80563555D01*
X182734555Y-80486061D01*
X182734555Y-80486060D01*
X182734557Y-80486058D01*
X182765980Y-80410198D01*
X188289500Y-80410198D01*
X188289500Y-80410200D01*
X188289500Y-80519800D01*
X188331443Y-80621058D01*
X188331444Y-80621059D01*
X188331445Y-80621061D01*
X188408939Y-80698555D01*
X188408940Y-80698555D01*
X188408942Y-80698557D01*
X188510200Y-80740500D01*
X188510202Y-80740500D01*
X188619798Y-80740500D01*
X188619800Y-80740500D01*
X188721058Y-80698557D01*
X188721060Y-80698555D01*
X188721061Y-80698555D01*
X188798555Y-80621061D01*
X188798555Y-80621060D01*
X188798557Y-80621058D01*
X188840500Y-80519800D01*
X188840500Y-80410200D01*
X188798557Y-80308942D01*
X188798555Y-80308940D01*
X188798555Y-80308939D01*
X188721061Y-80231445D01*
X188721059Y-80231444D01*
X188721058Y-80231443D01*
X188661744Y-80206874D01*
X188619801Y-80189500D01*
X188619800Y-80189500D01*
X188510200Y-80189500D01*
X188510198Y-80189500D01*
X188408940Y-80231444D01*
X188331444Y-80308940D01*
X188289500Y-80410198D01*
X182765980Y-80410198D01*
X182776500Y-80384800D01*
X182776500Y-80275200D01*
X182734557Y-80173942D01*
X182734555Y-80173940D01*
X182734555Y-80173939D01*
X182657061Y-80096445D01*
X182657059Y-80096444D01*
X182657058Y-80096443D01*
X182597744Y-80071874D01*
X182555801Y-80054500D01*
X182555800Y-80054500D01*
X182446200Y-80054500D01*
X182446198Y-80054500D01*
X182344940Y-80096444D01*
X182267444Y-80173940D01*
X182225500Y-80275198D01*
X114880500Y-80275198D01*
X114880500Y-79161927D01*
X183697500Y-79161927D01*
X183697500Y-79290072D01*
X183722497Y-79415737D01*
X183722498Y-79415742D01*
X183722499Y-79415744D01*
X183771535Y-79534127D01*
X183842724Y-79640669D01*
X183933331Y-79731276D01*
X184039873Y-79802465D01*
X184158256Y-79851501D01*
X184283931Y-79876500D01*
X184412069Y-79876500D01*
X184537744Y-79851501D01*
X184656127Y-79802465D01*
X184762669Y-79731276D01*
X184853276Y-79640669D01*
X184924465Y-79534127D01*
X184973501Y-79415744D01*
X184998500Y-79290069D01*
X184998500Y-79161931D01*
X184973501Y-79036256D01*
X184924465Y-78917873D01*
X184853276Y-78811331D01*
X184762669Y-78720724D01*
X184656127Y-78649535D01*
X184537744Y-78600499D01*
X184537742Y-78600498D01*
X184537737Y-78600497D01*
X184412072Y-78575500D01*
X184412069Y-78575500D01*
X184283931Y-78575500D01*
X184283927Y-78575500D01*
X184158262Y-78600497D01*
X184158257Y-78600498D01*
X184039874Y-78649534D01*
X183933331Y-78720723D01*
X183842723Y-78811331D01*
X183771534Y-78917874D01*
X183722498Y-79036257D01*
X183722497Y-79036262D01*
X183697500Y-79161927D01*
X114880500Y-79161927D01*
X114880500Y-77402406D01*
X114880736Y-77397603D01*
X114894428Y-77258582D01*
X114896302Y-77249161D01*
X114936153Y-77117790D01*
X114939822Y-77108930D01*
X115004542Y-76987850D01*
X115009871Y-76979874D01*
X115096961Y-76873753D01*
X115103754Y-76866961D01*
X115209874Y-76779871D01*
X115217850Y-76774542D01*
X115338930Y-76709822D01*
X115347790Y-76706153D01*
X115479162Y-76666301D01*
X115488581Y-76664428D01*
X115627604Y-76650736D01*
X115632407Y-76650500D01*
X115674170Y-76650500D01*
X198785830Y-76650500D01*
X198827593Y-76650500D01*
X198832396Y-76650736D01*
G37*
%TD.AperFunction*%
%TD*%
M02*
