M48
; DRILL file {KiCad 9.0.4} date 2025-08-26T10:42:27+0200
; FORMAT={-:-/ absolute / metric / decimal}
; #@! TF.CreationDate,2025-08-26T10:42:27+02:00
; #@! TF.GenerationSoftware,Kicad,Pcbnew,9.0.4
; #@! TF.FileFunction,Plated,6,8,Blind
FMAT,2
METRIC
; #@! TA.AperFunction,Plated,Buried,ViaDrill
T1C0.150
%
G90
G05
T1
X156.63Y-135.46
X157.83Y-135.46
X159.03Y-135.46
X160.23Y-135.46
X161.43Y-135.46
X162.63Y-135.46
X163.83Y-135.46
X168.44Y-135.46
X169.64Y-135.46
X170.84Y-135.46
X172.04Y-135.46
X173.24Y-135.46
X174.44Y-135.46
X175.64Y-135.46
X181.15Y-135.46
X182.35Y-135.46
X183.55Y-135.46
X184.75Y-135.46
X185.35Y-135.46
X186.55Y-135.46
X187.75Y-135.46
X188.95Y-135.46
X190.15Y-135.46
X191.35Y-135.46
X192.55Y-135.46
X193.75Y-135.46
X194.95Y-135.46
X196.15Y-135.46
M30
