%TF.GenerationSoftware,KiCad,Pcbnew,8.0.7*%
%TF.CreationDate,2025-02-18T16:04:48+01:00*%
%TF.ProjectId,HYDRA_VMM3_CARD_V3_Flex,48594452-415f-4564-9d4d-335f43415244,rev?*%
%TF.SameCoordinates,Original*%
%TF.FileFunction,Copper,L2,Inr*%
%TF.FilePolarity,Positive*%
%FSLAX46Y46*%
G04 Gerber Fmt 4.6, Leading zero omitted, Abs format (unit mm)*
G04 Created by KiCad (PCBNEW 8.0.7) date 2025-02-18 16:04:48*
%MOMM*%
%LPD*%
G01*
G04 APERTURE LIST*
%TA.AperFunction,ComponentPad*%
%ADD10C,2.000000*%
%TD*%
%TA.AperFunction,ComponentPad*%
%ADD11C,1.600000*%
%TD*%
%TA.AperFunction,ComponentPad*%
%ADD12R,1.600000X1.600000*%
%TD*%
%TA.AperFunction,ViaPad*%
%ADD13C,0.350000*%
%TD*%
G04 APERTURE END LIST*
D10*
X134778000Y-122000000D03*
X193073000Y-121980000D03*
X193073000Y-78280000D03*
X129698000Y-78300000D03*
X190533000Y-78280000D03*
X129698000Y-122000000D03*
X132238000Y-80840000D03*
X190533000Y-121980000D03*
X193073000Y-124520000D03*
X193073000Y-80820000D03*
X171493000Y-124540000D03*
X137318000Y-80840000D03*
D11*
X121980000Y-104590000D03*
D10*
X129698000Y-80840000D03*
X190533000Y-124520000D03*
X134778000Y-80840000D03*
X137318000Y-122000000D03*
X134778000Y-124540000D03*
X171493000Y-80840000D03*
X132238000Y-122000000D03*
X174033000Y-80820000D03*
D12*
X121980000Y-107130000D03*
D10*
X174033000Y-78280000D03*
X171493000Y-122000000D03*
X134778000Y-78300000D03*
X190533000Y-80820000D03*
D11*
X121980000Y-109670000D03*
D10*
X171493000Y-78300000D03*
X132238000Y-78300000D03*
X132238000Y-124540000D03*
X129698000Y-124540000D03*
X137318000Y-124540000D03*
X137318000Y-78300000D03*
D13*
X133890000Y-113670000D03*
X131890000Y-111170000D03*
X133390000Y-113670000D03*
X133890000Y-111670000D03*
X132890000Y-111170000D03*
X131390000Y-111170000D03*
X131890000Y-110170000D03*
X131890000Y-111670000D03*
X131890000Y-109670000D03*
X132890000Y-108670000D03*
X132890000Y-111670000D03*
X132390000Y-113670000D03*
X147630000Y-136260000D03*
X132390000Y-110170000D03*
X131890000Y-110670000D03*
X131890000Y-112670000D03*
X133390000Y-110170000D03*
X132890000Y-112170000D03*
X148230000Y-135460000D03*
X133390000Y-114170000D03*
X149430000Y-135460000D03*
X148230000Y-135860000D03*
X131890000Y-112170000D03*
X133890000Y-110170000D03*
X131890000Y-109170000D03*
X133390000Y-111170000D03*
X148230000Y-134660000D03*
X148830000Y-136260000D03*
X131390000Y-108670000D03*
X132390000Y-111170000D03*
X132390000Y-112670000D03*
X131390000Y-110670000D03*
X132390000Y-112170000D03*
X133890000Y-109170000D03*
X132390000Y-109170000D03*
X132890000Y-110170000D03*
X133890000Y-112670000D03*
X133890000Y-111170000D03*
X132390000Y-111670000D03*
X147630000Y-134660000D03*
X133390000Y-109670000D03*
X133890000Y-114170000D03*
X133890000Y-108670000D03*
X132390000Y-108670000D03*
X131390000Y-112170000D03*
X147630000Y-135060000D03*
X132390000Y-110670000D03*
X131390000Y-111670000D03*
X131890000Y-108670000D03*
X148230000Y-136260000D03*
X133390000Y-110670000D03*
X131390000Y-109670000D03*
X148830000Y-135860000D03*
X132890000Y-113670000D03*
X132390000Y-114170000D03*
X133890000Y-112170000D03*
X148830000Y-135460000D03*
X147630000Y-135860000D03*
X149430000Y-135860000D03*
X133390000Y-112670000D03*
X131890000Y-113670000D03*
X132390000Y-113170000D03*
X133390000Y-111670000D03*
X149430000Y-136260000D03*
X131390000Y-110170000D03*
X148230000Y-135060000D03*
X132890000Y-109670000D03*
X133390000Y-112170000D03*
X133390000Y-113170000D03*
X133890000Y-113170000D03*
X133890000Y-109670000D03*
X131390000Y-113170000D03*
X131390000Y-109170000D03*
X132890000Y-110670000D03*
X149430000Y-135060000D03*
X133890000Y-110670000D03*
X133390000Y-109170000D03*
X148830000Y-134660000D03*
X132890000Y-109170000D03*
X133390000Y-108670000D03*
X132390000Y-109670000D03*
X131390000Y-112670000D03*
X132890000Y-112670000D03*
X131890000Y-113170000D03*
X147630000Y-135460000D03*
X148830000Y-135060000D03*
X149430000Y-134660000D03*
X132890000Y-113170000D03*
X132890000Y-114170000D03*
X132890000Y-103590000D03*
X132890000Y-106590000D03*
X130890000Y-103590000D03*
X133390000Y-103590000D03*
X130890000Y-106590000D03*
X131390000Y-105590000D03*
X132390000Y-103590000D03*
X131390000Y-104590000D03*
X133890000Y-104590000D03*
X131390000Y-102590000D03*
X133890000Y-102590000D03*
X131890000Y-102590000D03*
X130890000Y-105590000D03*
X132390000Y-104590000D03*
X133390000Y-104590000D03*
X132890000Y-105590000D03*
X131890000Y-105590000D03*
X133390000Y-102590000D03*
X133890000Y-103590000D03*
X131390000Y-103590000D03*
X132890000Y-102590000D03*
X133890000Y-105590000D03*
X131390000Y-106590000D03*
X131890000Y-103590000D03*
X133890000Y-106590000D03*
X153260000Y-127310000D03*
X131890000Y-104590000D03*
X133390000Y-106590000D03*
X132390000Y-102590000D03*
X132390000Y-106590000D03*
X131890000Y-106590000D03*
X132390000Y-105590000D03*
X132890000Y-104590000D03*
X130890000Y-102590000D03*
X133390000Y-105590000D03*
X152775000Y-127310000D03*
X188670000Y-82180000D03*
X188690000Y-90180000D03*
X188730000Y-86180000D03*
X190360000Y-109720000D03*
X185790000Y-93670000D03*
X194980000Y-117120000D03*
X197070000Y-119330000D03*
X190190000Y-114440000D03*
X186180000Y-104190000D03*
X192620000Y-106190000D03*
X188700000Y-84150000D03*
X198050000Y-121570000D03*
X189545190Y-113454810D03*
X188720000Y-88180000D03*
X197110000Y-116550000D03*
X183562763Y-91678783D03*
X188780000Y-94180000D03*
X185990000Y-96700000D03*
X191196174Y-115275508D03*
X198720000Y-120130000D03*
X185950000Y-85680000D03*
X185980000Y-87680000D03*
X185960000Y-86680000D03*
X197790000Y-118160000D03*
X188790000Y-96170000D03*
X189330000Y-110310000D03*
X188690000Y-85170000D03*
X189100000Y-108250000D03*
X191040000Y-110630000D03*
X185855788Y-107220137D03*
X190420000Y-111650000D03*
X186180000Y-108180000D03*
X185970000Y-88670000D03*
X196150000Y-115500000D03*
X189660000Y-109170000D03*
X188790000Y-93170000D03*
X185880000Y-106190000D03*
X185960000Y-84690000D03*
X185730000Y-94810000D03*
X188750000Y-91180000D03*
X188830000Y-103860000D03*
X192480000Y-105130000D03*
X188780000Y-92190000D03*
X188600000Y-98660000D03*
X192640000Y-103700000D03*
X185990000Y-82670000D03*
X186030000Y-90670000D03*
X192135000Y-113750000D03*
X188720000Y-87180000D03*
X192240000Y-116250000D03*
X191290000Y-103930000D03*
X185990000Y-99170000D03*
X186190000Y-109680000D03*
X195580000Y-114390000D03*
X184380000Y-92670000D03*
X191760000Y-112560000D03*
X192550000Y-135460000D03*
X179970000Y-114700000D03*
X182680000Y-100710000D03*
X182350000Y-135460000D03*
X168440000Y-135460000D03*
X182670000Y-91720000D03*
X179990000Y-112190000D03*
X193150000Y-135460000D03*
X181150000Y-135460000D03*
X182670000Y-99690000D03*
X191350000Y-135460000D03*
X179897854Y-110388397D03*
X182660000Y-115900000D03*
X170840000Y-135460000D03*
X182650000Y-93700000D03*
X183550000Y-135460000D03*
X182680000Y-102720000D03*
X182850000Y-117560000D03*
X188565000Y-80465000D03*
X189550000Y-135460000D03*
X182650000Y-108710000D03*
X182660000Y-96720000D03*
X173240000Y-135460000D03*
X179960000Y-120680000D03*
X183410000Y-118080000D03*
X182690000Y-103730000D03*
X184750000Y-135460000D03*
X182501000Y-80330000D03*
X169640000Y-135460000D03*
X182640000Y-92700000D03*
X182690000Y-112710000D03*
X195550000Y-135460000D03*
X182680000Y-111700000D03*
X196150000Y-135460000D03*
X182640000Y-115200000D03*
X194350000Y-135460000D03*
X163830000Y-135460000D03*
X182660000Y-90700000D03*
X162630000Y-135460000D03*
X182670000Y-88710000D03*
X188350000Y-135460000D03*
X182660000Y-106690000D03*
X182910000Y-118920000D03*
X188770000Y-81180000D03*
X182660000Y-94700000D03*
X172040000Y-135460000D03*
X182670000Y-98690000D03*
X175640000Y-135460000D03*
X174440000Y-135460000D03*
X182660000Y-97710000D03*
X182690000Y-114210000D03*
X194950000Y-135460000D03*
X180081000Y-81659000D03*
X179980000Y-115690000D03*
X191950000Y-135460000D03*
X190750000Y-135460000D03*
X182700000Y-109690000D03*
X179990000Y-111210000D03*
X193750000Y-135460000D03*
X182680000Y-105710000D03*
X187150000Y-135460000D03*
X182940000Y-120170000D03*
X182640000Y-87700000D03*
X161430000Y-135460000D03*
X183166844Y-116563269D03*
X182570000Y-117120000D03*
X196750000Y-135460000D03*
X182650000Y-110720000D03*
X185950000Y-135460000D03*
X182690000Y-104710000D03*
X182640000Y-86690000D03*
X160230000Y-135460000D03*
X179644430Y-123755570D03*
X173625000Y-122240000D03*
X183294657Y-119153542D03*
X197558449Y-116587371D03*
X150630000Y-135860000D03*
X181298000Y-89426000D03*
X179290000Y-106460000D03*
X189216566Y-94289142D03*
X160230000Y-113600000D03*
X167880000Y-83270000D03*
X189196980Y-103599562D03*
X191950000Y-99600000D03*
X152110000Y-100938500D03*
X159070000Y-101450000D03*
X150630000Y-134660000D03*
X165840000Y-92650000D03*
X171870000Y-101290000D03*
X153630000Y-135060000D03*
X117860000Y-89435002D03*
X154830000Y-135860000D03*
X157810000Y-101430000D03*
X189236303Y-93227587D03*
X160250000Y-128390000D03*
X182650000Y-88200000D03*
X190940000Y-104300000D03*
X116330000Y-113200000D03*
X117900000Y-84424998D03*
X115130000Y-110300000D03*
X177250000Y-91690000D03*
X185814807Y-103927062D03*
X169290000Y-101570000D03*
X182670000Y-85180000D03*
X169610000Y-133270000D03*
X186254000Y-103176000D03*
X115730000Y-104300000D03*
X174440000Y-132260000D03*
X163710000Y-115530000D03*
X164650000Y-114820000D03*
X147590000Y-108480000D03*
X182350000Y-133260000D03*
X182650000Y-86200000D03*
X154230000Y-135060000D03*
X179430000Y-83400000D03*
X169620000Y-119540000D03*
X169720000Y-105420000D03*
X162560000Y-132130000D03*
X187398000Y-119426000D03*
X191360000Y-114830000D03*
X153918415Y-100467704D03*
X182640000Y-97200000D03*
X155430000Y-134660000D03*
X161410000Y-95750000D03*
X178290000Y-84660000D03*
X178130000Y-96650000D03*
X153890000Y-100080000D03*
X179090000Y-99680000D03*
X185977505Y-83119829D03*
X178430000Y-110160000D03*
X153630000Y-135460000D03*
X185870288Y-89108816D03*
X182804240Y-129675760D03*
X151450000Y-126670000D03*
X154830000Y-135460000D03*
X193000000Y-105130000D03*
X170290000Y-128590000D03*
X147736000Y-79213500D03*
X182670000Y-111210000D03*
X185600000Y-129700000D03*
X150000000Y-130490000D03*
X153048120Y-100244888D03*
X115130000Y-113800000D03*
X168400000Y-132260000D03*
X176235000Y-120610000D03*
X174460000Y-133270000D03*
X154275612Y-100924207D03*
X189137396Y-85218367D03*
X151230000Y-136260000D03*
X134390000Y-107890000D03*
X189420000Y-101450000D03*
X181455000Y-130165000D03*
X160200000Y-102820000D03*
X115130000Y-109700000D03*
X181035760Y-131584240D03*
X154230000Y-135860000D03*
X187398000Y-89426000D03*
X180525000Y-129225000D03*
X116330000Y-109700000D03*
X172030000Y-132260000D03*
X156590000Y-108430000D03*
X173180000Y-132260000D03*
X153630000Y-135860000D03*
X194985886Y-117585507D03*
X115130000Y-104900000D03*
X173650000Y-97300000D03*
X168200058Y-92446771D03*
X156510000Y-101320000D03*
X150030000Y-135460000D03*
X184260570Y-129279430D03*
X193350000Y-100410000D03*
X187140000Y-133260000D03*
X168240000Y-98450000D03*
X189118911Y-82211319D03*
X115130000Y-100800000D03*
X162600000Y-110680000D03*
X155430000Y-135460000D03*
X156640000Y-133550000D03*
X156690000Y-131920000D03*
X179723138Y-120297379D03*
X187398000Y-83426000D03*
X136780000Y-107860000D03*
X167600000Y-106890000D03*
X185920000Y-133250000D03*
X156690000Y-119040000D03*
X188459430Y-132570570D03*
X180923670Y-127796330D03*
X182680000Y-106200000D03*
X151230000Y-134660000D03*
X161440000Y-132860000D03*
X172590000Y-84640000D03*
X186530000Y-130640000D03*
X158330000Y-91020000D03*
X147230000Y-109290000D03*
X167650000Y-119420000D03*
X188803385Y-98258581D03*
X172080000Y-131180000D03*
X179144810Y-128775190D03*
X156700000Y-114400000D03*
X177535000Y-117090000D03*
X192690000Y-104200000D03*
X179350000Y-101260000D03*
X169640000Y-131180000D03*
X169600000Y-83340000D03*
X149320000Y-109790000D03*
X166590000Y-124250000D03*
X173844307Y-83394084D03*
X164070000Y-130980000D03*
X147790000Y-111680000D03*
X154230000Y-136260000D03*
X149680000Y-113300000D03*
X189200000Y-84180000D03*
X187398000Y-107426000D03*
X172150000Y-85640000D03*
X182650000Y-87190000D03*
X185190570Y-130219430D03*
X130670000Y-107860000D03*
X156610000Y-99020000D03*
X168660000Y-120340000D03*
X189181024Y-91309307D03*
X116330000Y-104900000D03*
X193100000Y-106240000D03*
X140040000Y-107860000D03*
X155430000Y-135860000D03*
X151230000Y-135460000D03*
X156630000Y-130020000D03*
X151450000Y-127960000D03*
X157920000Y-98380000D03*
X190030000Y-112980000D03*
X167430000Y-89370000D03*
X150030000Y-135060000D03*
X187049810Y-132080190D03*
X157820000Y-119680000D03*
X190677308Y-111280819D03*
X179030000Y-105210000D03*
X182603290Y-128556710D03*
X154830000Y-135060000D03*
X115730000Y-109700000D03*
X165630000Y-110340000D03*
X192520000Y-105620000D03*
X168740000Y-108490000D03*
X171860000Y-104240000D03*
X185542177Y-105892716D03*
X116330000Y-113800000D03*
X191402884Y-110363885D03*
X172360000Y-94240000D03*
X185368259Y-95077667D03*
X183550000Y-129500000D03*
X198192304Y-121143091D03*
X182660000Y-91200000D03*
X184490190Y-130439810D03*
X157736000Y-79213500D03*
X154230000Y-134660000D03*
X189770000Y-102500000D03*
X156670000Y-109960000D03*
X192190000Y-103800000D03*
X157810000Y-111580000D03*
X183080151Y-117004842D03*
X182642632Y-119832253D03*
X178170000Y-86660000D03*
X157770000Y-95500000D03*
X146157552Y-108617539D03*
X168140000Y-86810000D03*
X156690000Y-123340000D03*
X161390000Y-104620000D03*
X115130000Y-101400000D03*
X115730000Y-104900000D03*
X197095673Y-118880730D03*
X148345137Y-108884725D03*
X168450000Y-131180000D03*
X184740000Y-133250000D03*
X148787663Y-110780074D03*
X181298000Y-113426000D03*
X186225416Y-109231393D03*
X149980000Y-126560000D03*
X191370000Y-98490000D03*
X189540000Y-133890000D03*
X169731980Y-114265407D03*
X192540687Y-113555270D03*
X115130000Y-113200000D03*
X190450000Y-99250000D03*
X115130000Y-104300000D03*
X196492875Y-115208557D03*
X156590000Y-103070000D03*
X176030000Y-108180000D03*
X181298000Y-119426000D03*
X166050000Y-98630000D03*
X171360000Y-113170000D03*
X163500000Y-85880000D03*
X162600000Y-102870000D03*
X182650000Y-109210000D03*
X150630000Y-136260000D03*
X189239808Y-96156770D03*
X159100000Y-132060000D03*
X173570000Y-105040000D03*
X159300000Y-91610000D03*
X177150000Y-109910000D03*
X178960000Y-85650000D03*
X174925000Y-121930000D03*
X164350000Y-129210000D03*
X116330000Y-110900000D03*
X174090000Y-106090000D03*
X148590000Y-112480000D03*
X182680000Y-103210000D03*
X164090000Y-133300000D03*
X180105760Y-130644240D03*
X154830000Y-134660000D03*
X115730000Y-113200000D03*
X181025380Y-130654620D03*
X189466182Y-107988441D03*
X150030000Y-134660000D03*
X164740000Y-84610000D03*
X193370000Y-99410000D03*
X162600000Y-125340000D03*
X165360000Y-129630000D03*
X162650000Y-118660000D03*
X150030000Y-135860000D03*
X175585000Y-121100000D03*
X182650000Y-98200000D03*
X151230000Y-135060000D03*
X149660000Y-111240000D03*
X116330000Y-110300000D03*
X178980000Y-98620000D03*
X188680000Y-99520000D03*
X189230003Y-92190000D03*
X164650000Y-106480000D03*
X188370000Y-133820000D03*
X115730000Y-110300000D03*
X180239050Y-128030950D03*
X159770000Y-89690000D03*
X192030000Y-101280000D03*
X175680000Y-83380000D03*
X165580000Y-122140000D03*
X156736000Y-80213500D03*
X115730000Y-110900000D03*
X115730000Y-100800000D03*
X182670000Y-94190000D03*
X185955486Y-96251323D03*
X155430000Y-135060000D03*
X163620000Y-103340000D03*
X177300000Y-90640000D03*
X171420000Y-83320000D03*
X189129839Y-90275100D03*
X129190000Y-107860000D03*
X198233879Y-118086020D03*
X182690000Y-100200000D03*
X115130000Y-110900000D03*
X158736000Y-80213500D03*
X177535000Y-120760000D03*
X192750000Y-106750000D03*
X115130000Y-103700000D03*
X181812000Y-107366000D03*
X146736000Y-80213500D03*
X150630000Y-135060000D03*
X181298000Y-95426000D03*
X182966336Y-82998966D03*
X156640000Y-94060000D03*
X166660000Y-129140000D03*
X170810000Y-131180000D03*
X173230000Y-131180000D03*
X174275000Y-121550000D03*
X161370000Y-126690000D03*
X154579847Y-101361838D03*
X115730000Y-101400000D03*
X189162556Y-88261524D03*
X150000000Y-115980000D03*
X177770000Y-83400000D03*
X193120000Y-98440000D03*
X153060000Y-126620000D03*
X182119620Y-129910380D03*
X148736000Y-80213500D03*
X151230000Y-135860000D03*
X190757975Y-109509957D03*
X153630000Y-136260000D03*
X182640000Y-93200000D03*
X164990000Y-85990000D03*
X160340000Y-94560000D03*
X157290000Y-92050000D03*
X184649430Y-128760570D03*
X179340000Y-107840000D03*
X187398000Y-95426000D03*
X178950000Y-97680000D03*
X156600000Y-125580000D03*
X184163624Y-93064568D03*
X149990000Y-120710000D03*
X176640000Y-109040000D03*
X183380000Y-92090000D03*
X157850000Y-131170000D03*
X150630000Y-135460000D03*
X158500000Y-92570000D03*
X166190000Y-86550000D03*
X182690000Y-105210000D03*
X153030000Y-128000000D03*
X170760000Y-132260000D03*
X145680000Y-109410000D03*
X172968000Y-121970000D03*
X159040000Y-109420000D03*
X175320000Y-100570000D03*
X168660000Y-110750000D03*
X185977148Y-99619819D03*
X182670000Y-112200000D03*
X181298000Y-83426000D03*
X115730000Y-103700000D03*
X182690000Y-104220000D03*
X167650000Y-128820000D03*
X179910000Y-115190000D03*
X156700000Y-116640000D03*
X150030000Y-136260000D03*
X116330000Y-104300000D03*
X182650000Y-92210000D03*
X117869364Y-85575002D03*
X190559181Y-114697308D03*
X186180000Y-107660000D03*
X174910000Y-106610000D03*
X170780000Y-133270000D03*
X159030000Y-122730000D03*
X144640000Y-108150000D03*
X156570000Y-96140000D03*
X117840000Y-88284998D03*
X155430000Y-136260000D03*
X154230000Y-135460000D03*
X156600000Y-121010000D03*
X179010000Y-87700000D03*
X156690000Y-112070000D03*
X183310000Y-128340000D03*
X181189620Y-128970380D03*
X170230000Y-127210000D03*
X116330000Y-100200000D03*
X183360000Y-117620000D03*
X183540000Y-133260000D03*
X190810000Y-100740000D03*
X196009115Y-114254490D03*
X189161729Y-87265892D03*
X176885000Y-119530000D03*
X185348736Y-93581747D03*
X116330000Y-101400000D03*
X115730000Y-100200000D03*
X153630000Y-134660000D03*
X115730000Y-113800000D03*
X115730000Y-114400000D03*
X147910000Y-110300000D03*
X115130000Y-100200000D03*
X180095380Y-129714620D03*
X182660000Y-99200000D03*
X169090000Y-95410000D03*
X176320000Y-88970000D03*
X160970000Y-88520000D03*
X189756909Y-110167696D03*
X164950000Y-95670000D03*
X169590000Y-132260000D03*
X191720000Y-104170000D03*
X171400000Y-127060000D03*
X173200000Y-133270000D03*
X174640000Y-92640000D03*
X180223000Y-110748249D03*
X162290000Y-86990000D03*
X181298000Y-101426000D03*
X166360000Y-83470000D03*
X154068679Y-101795804D03*
X182650000Y-110220000D03*
X175570000Y-107290000D03*
X189175260Y-86245160D03*
X179960000Y-111690000D03*
X159820000Y-92850000D03*
X156660000Y-127650000D03*
X171290000Y-91680000D03*
X172050000Y-133270000D03*
X190056214Y-108956654D03*
X156610000Y-105320000D03*
X174920000Y-98300000D03*
X164650000Y-124840000D03*
X192148703Y-112333257D03*
X116330000Y-100800000D03*
X115130000Y-114400000D03*
X142130000Y-107840000D03*
X172980000Y-90620000D03*
X146580000Y-110150000D03*
X161410000Y-113520000D03*
X166640000Y-107140000D03*
X116330000Y-103700000D03*
X190990000Y-102250000D03*
X192360000Y-104670000D03*
X116330000Y-114400000D03*
X192290000Y-106540000D03*
X176950000Y-127500000D03*
X181150000Y-133260000D03*
X178900000Y-104050000D03*
X166260000Y-96340000D03*
X179574430Y-128285570D03*
X189610000Y-100060000D03*
X179155190Y-129704810D03*
X168420000Y-133270000D03*
X192655810Y-116077941D03*
X169040000Y-128730000D03*
X181874240Y-128735760D03*
X174490000Y-131180000D03*
X154830000Y-136260000D03*
X198787412Y-119685075D03*
X182710000Y-114690000D03*
X188410000Y-130470000D03*
X159670000Y-119400000D03*
X170240000Y-135480000D03*
X176160000Y-101920000D03*
X179270000Y-83470000D03*
X196450000Y-135980000D03*
X180590000Y-119310000D03*
X157290000Y-93050000D03*
X186560000Y-133690000D03*
X188770000Y-123010000D03*
X187270000Y-122660000D03*
X160870000Y-135620000D03*
X161891239Y-88298202D03*
X183630000Y-120860000D03*
X162050000Y-135600000D03*
X174743433Y-95776258D03*
X186580000Y-135480000D03*
X186394770Y-85748426D03*
X182367446Y-115558072D03*
X186409854Y-84678465D03*
X168550000Y-99160000D03*
X178190000Y-119910000D03*
X159650000Y-135630000D03*
X188950000Y-125370000D03*
X186427975Y-87637336D03*
X169060000Y-135490000D03*
X178190000Y-107910000D03*
X190110000Y-115450000D03*
X169610000Y-124170000D03*
X176504321Y-86194284D03*
X186290190Y-117929810D03*
X174580000Y-108210000D03*
X176020000Y-108320000D03*
X164330000Y-134420000D03*
X190240000Y-133860000D03*
X186840000Y-127810000D03*
X166740000Y-126240000D03*
X193020000Y-127430000D03*
X184710000Y-127790000D03*
X176785000Y-114130000D03*
X168540000Y-124650000D03*
X173280000Y-109300000D03*
X179610000Y-126640000D03*
X186391717Y-86806976D03*
X195020000Y-123180000D03*
X171250000Y-127370000D03*
X190030000Y-117810000D03*
X172660000Y-135470000D03*
X195000000Y-120460000D03*
X192440000Y-128850000D03*
X173280000Y-115300000D03*
X188750000Y-126420000D03*
X180660000Y-126630000D03*
X171660000Y-105290000D03*
X165045000Y-119270000D03*
X167560000Y-88340000D03*
X169670000Y-86170000D03*
X167430000Y-90200000D03*
X185380000Y-135440000D03*
X168870000Y-127780000D03*
X181670000Y-133500000D03*
X166760000Y-106180000D03*
X194670000Y-135940000D03*
X173860000Y-135490000D03*
X181780000Y-135470000D03*
X168660000Y-130060000D03*
X163216161Y-131443448D03*
X172940000Y-85230000D03*
X175270000Y-120240000D03*
X167670000Y-108280000D03*
X180460000Y-132380000D03*
X169640000Y-83560000D03*
X189570000Y-119730000D03*
X178940000Y-101590000D03*
X171020000Y-99710000D03*
X171340000Y-112310000D03*
X184150000Y-133520000D03*
X165527358Y-96508056D03*
X191480000Y-129090000D03*
X176020000Y-88230000D03*
X187710000Y-135490000D03*
X157230000Y-107190000D03*
X176020000Y-120320000D03*
X159680000Y-131440000D03*
X162030000Y-120200000D03*
X162030000Y-109540000D03*
X177460000Y-113920000D03*
X160820000Y-109950000D03*
X180250000Y-128240000D03*
X173930000Y-121040000D03*
X168180000Y-97900000D03*
X173280000Y-121300000D03*
X175270000Y-114240000D03*
X196600000Y-134730000D03*
X195870000Y-135990000D03*
X175270000Y-108240000D03*
X177320000Y-127240000D03*
X163270000Y-135580000D03*
X191700000Y-135920000D03*
X162057481Y-131458694D03*
X174580000Y-114210000D03*
X180690000Y-85200000D03*
X171470000Y-135500000D03*
X193450000Y-135970000D03*
X176785000Y-108130000D03*
X172580000Y-133610000D03*
X168550000Y-118810000D03*
X164570000Y-87340000D03*
X188930000Y-135500000D03*
X188870000Y-133820000D03*
X158390000Y-108510000D03*
X187730000Y-133690000D03*
X167080000Y-97310000D03*
X161980000Y-98090000D03*
X173930000Y-115040000D03*
X184160000Y-135460000D03*
X170625611Y-128272325D03*
X185920000Y-115920000D03*
X157230000Y-135580000D03*
X192880000Y-135920000D03*
X186340000Y-130350000D03*
X160910000Y-119900000D03*
X183000000Y-135500000D03*
X169520000Y-99570000D03*
X197290000Y-135640000D03*
X178915190Y-127894810D03*
X178190000Y-113910000D03*
X162690000Y-93330000D03*
X158400000Y-131430000D03*
X173800000Y-133590000D03*
X167430000Y-92160000D03*
X160690000Y-131380000D03*
X165820000Y-88140000D03*
X182325570Y-126334430D03*
X178040000Y-94130000D03*
X159060000Y-92990000D03*
X168600000Y-104510000D03*
X158480000Y-135580000D03*
X179630000Y-118950000D03*
X168480000Y-110270000D03*
X182010190Y-125099810D03*
X175080000Y-135520000D03*
X178750000Y-97170000D03*
X170080000Y-92050000D03*
X158346595Y-118805012D03*
X184390000Y-120360000D03*
X195280000Y-135970000D03*
X184530000Y-129460000D03*
X194070000Y-135970000D03*
X174580000Y-120210000D03*
X183010000Y-133450000D03*
X165930000Y-121450000D03*
X192310000Y-135920000D03*
X177670000Y-98130000D03*
X163170000Y-120470000D03*
X167720000Y-118130000D03*
X185520000Y-113370000D03*
X164290000Y-120590000D03*
X159580000Y-108170000D03*
X166790000Y-117990000D03*
X177690000Y-92230000D03*
X172240000Y-131080000D03*
X190170000Y-135530000D03*
X178940000Y-107590000D03*
X178940000Y-119590000D03*
X176020000Y-114320000D03*
X169600000Y-119830000D03*
X176785000Y-120130000D03*
X172780000Y-100080000D03*
X173930000Y-109040000D03*
X183330000Y-122240000D03*
X181145190Y-126074810D03*
X169600000Y-112240000D03*
X183940000Y-129880000D03*
X161300000Y-92460000D03*
X167759404Y-132434424D03*
X185410000Y-133600000D03*
X178940000Y-113590000D03*
X182030000Y-120940000D03*
X172936808Y-87223374D03*
X165778913Y-107370675D03*
X157090000Y-118670000D03*
X173280000Y-103300000D03*
X164450000Y-129170000D03*
X187700000Y-126520000D03*
X191080000Y-135910000D03*
X166630000Y-129220000D03*
X174150000Y-89560000D03*
X185967701Y-120464978D03*
X157130000Y-130990000D03*
X163240000Y-99550000D03*
X189490000Y-129430000D03*
X177400000Y-99210000D03*
X177460000Y-119920000D03*
X179934622Y-87177637D03*
X156630000Y-135460000D03*
X182630000Y-82700000D03*
X157830000Y-135460000D03*
X182640000Y-84690000D03*
X182640000Y-85720000D03*
X159030000Y-135460000D03*
X186180000Y-81470000D03*
X182410000Y-81170000D03*
X154130000Y-101350000D03*
X153490000Y-100330000D03*
X118173500Y-109598500D03*
X119373500Y-111998500D03*
X119973500Y-111998500D03*
X118773500Y-111998500D03*
X118773500Y-109598500D03*
X120573500Y-109598500D03*
X119973500Y-111398500D03*
X119373500Y-110798500D03*
X119373500Y-108998500D03*
X118173500Y-112513500D03*
X120573500Y-108998500D03*
X118173500Y-111398500D03*
X118773500Y-113113500D03*
X118773500Y-110798500D03*
X120573500Y-112513500D03*
X118773500Y-108998500D03*
X120573500Y-113113500D03*
X120573500Y-111398500D03*
X119973500Y-110198500D03*
X119373500Y-110198500D03*
X118773500Y-111398500D03*
X120573500Y-110198500D03*
X119373500Y-114313500D03*
X119373500Y-109598500D03*
X120573500Y-114313500D03*
X118773500Y-114313500D03*
X118173500Y-111998500D03*
X118773500Y-110198500D03*
X118773500Y-112513500D03*
X119373500Y-114913500D03*
X118773500Y-113713500D03*
X119373500Y-111398500D03*
X118773500Y-114913500D03*
X120573500Y-110798500D03*
X119973500Y-108998500D03*
X118173500Y-110798500D03*
X118173500Y-113113500D03*
X119973500Y-109598500D03*
X119973500Y-113713500D03*
X118173500Y-114913500D03*
X120573500Y-113713500D03*
X119973500Y-113113500D03*
X120573500Y-111998500D03*
X119973500Y-112513500D03*
X119373500Y-113713500D03*
X119373500Y-112513500D03*
X118173500Y-108998500D03*
X118173500Y-110198500D03*
X119973500Y-114313500D03*
X119373500Y-113113500D03*
X119973500Y-110798500D03*
X118173500Y-114313500D03*
X118173500Y-113713500D03*
X119973500Y-114913500D03*
X120573500Y-103013500D03*
X119373500Y-100113500D03*
X118173500Y-100113500D03*
X119973500Y-101313500D03*
X119973500Y-105413500D03*
X118173500Y-104213500D03*
X118173500Y-101313500D03*
X120573500Y-100113500D03*
X119373500Y-104213500D03*
X118173500Y-104813500D03*
X118773500Y-100113500D03*
X119973500Y-99513500D03*
X120573500Y-100713500D03*
X118773500Y-102513500D03*
X118773500Y-104213500D03*
X119373500Y-105413500D03*
X118173500Y-102513500D03*
X119373500Y-102513500D03*
X119973500Y-104213500D03*
X118773500Y-101313500D03*
X118773500Y-104813500D03*
X119373500Y-101913500D03*
X118773500Y-103613500D03*
X118773500Y-99513500D03*
X120573500Y-101913500D03*
X120573500Y-104213500D03*
X119373500Y-99513500D03*
X119973500Y-103013500D03*
X119373500Y-103013500D03*
X118173500Y-105413500D03*
X118773500Y-100713500D03*
X119373500Y-103613500D03*
X119373500Y-104813500D03*
X119973500Y-103613500D03*
X119973500Y-102513500D03*
X120573500Y-104813500D03*
X118773500Y-101913500D03*
X118173500Y-101913500D03*
X120573500Y-101313500D03*
X119973500Y-104813500D03*
X118173500Y-103013500D03*
X120573500Y-102513500D03*
X119973500Y-101913500D03*
X118173500Y-99513500D03*
X118173500Y-100713500D03*
X119373500Y-100713500D03*
X120573500Y-105413500D03*
X120573500Y-103613500D03*
X119373500Y-101313500D03*
X119973500Y-100713500D03*
X118773500Y-105413500D03*
X118173500Y-103613500D03*
X118773500Y-103013500D03*
X119973500Y-100113500D03*
%TA.AperFunction,Conductor*%
G36*
X198832396Y-76650736D02*
G01*
X198971417Y-76664428D01*
X198980839Y-76666302D01*
X199112205Y-76706151D01*
X199121072Y-76709824D01*
X199186123Y-76744595D01*
X199242144Y-76774539D01*
X199250130Y-76779875D01*
X199356245Y-76866961D01*
X199363038Y-76873754D01*
X199450124Y-76979869D01*
X199455460Y-76987855D01*
X199520173Y-77108923D01*
X199523849Y-77117798D01*
X199563697Y-77249161D01*
X199565571Y-77258582D01*
X199579264Y-77397603D01*
X199579500Y-77402406D01*
X199579500Y-130397593D01*
X199579264Y-130402396D01*
X199565571Y-130541417D01*
X199563697Y-130550838D01*
X199523849Y-130682201D01*
X199520173Y-130691076D01*
X199455460Y-130812144D01*
X199450124Y-130820130D01*
X199363038Y-130926245D01*
X199356245Y-130933038D01*
X199250130Y-131020124D01*
X199242144Y-131025460D01*
X199121076Y-131090173D01*
X199112201Y-131093849D01*
X198980838Y-131133697D01*
X198971417Y-131135571D01*
X198832396Y-131149264D01*
X198827593Y-131149500D01*
X198492467Y-131149500D01*
X198389316Y-131167687D01*
X198320062Y-131179899D01*
X198320061Y-131179899D01*
X198320057Y-131179900D01*
X198155556Y-131239774D01*
X198155548Y-131239778D01*
X198003945Y-131327307D01*
X198003939Y-131327312D01*
X197869838Y-131439835D01*
X197869835Y-131439838D01*
X197757312Y-131573939D01*
X197757307Y-131573945D01*
X197669778Y-131725548D01*
X197669774Y-131725556D01*
X197609900Y-131890057D01*
X197579500Y-132062467D01*
X197579500Y-136525943D01*
X197565148Y-136560591D01*
X196990591Y-137135148D01*
X196955943Y-137149500D01*
X180344057Y-137149500D01*
X180309409Y-137135148D01*
X179734851Y-136560590D01*
X179720499Y-136525942D01*
X179720499Y-135459997D01*
X180869103Y-135459997D01*
X180869103Y-135460002D01*
X180890483Y-135567492D01*
X180951375Y-135658624D01*
X180994177Y-135687223D01*
X181042505Y-135719515D01*
X181042507Y-135719516D01*
X181149997Y-135740897D01*
X181150000Y-135740897D01*
X181150003Y-135740897D01*
X181257492Y-135719516D01*
X181257492Y-135719515D01*
X181257495Y-135719515D01*
X181348624Y-135658624D01*
X181409515Y-135567495D01*
X181413584Y-135547043D01*
X181430897Y-135460002D01*
X181430897Y-135459997D01*
X182069103Y-135459997D01*
X182069103Y-135460002D01*
X182090483Y-135567492D01*
X182151375Y-135658624D01*
X182194177Y-135687223D01*
X182242505Y-135719515D01*
X182242507Y-135719516D01*
X182349997Y-135740897D01*
X182350000Y-135740897D01*
X182350003Y-135740897D01*
X182457492Y-135719516D01*
X182457492Y-135719515D01*
X182457495Y-135719515D01*
X182548624Y-135658624D01*
X182609515Y-135567495D01*
X182613584Y-135547043D01*
X182630897Y-135460002D01*
X182630897Y-135459997D01*
X183269103Y-135459997D01*
X183269103Y-135460002D01*
X183290483Y-135567492D01*
X183351375Y-135658624D01*
X183394177Y-135687223D01*
X183442505Y-135719515D01*
X183442507Y-135719516D01*
X183549997Y-135740897D01*
X183550000Y-135740897D01*
X183550003Y-135740897D01*
X183657492Y-135719516D01*
X183657492Y-135719515D01*
X183657495Y-135719515D01*
X183748624Y-135658624D01*
X183809515Y-135567495D01*
X183813584Y-135547043D01*
X183830897Y-135460002D01*
X183830897Y-135459997D01*
X184469103Y-135459997D01*
X184469103Y-135460002D01*
X184490483Y-135567492D01*
X184551375Y-135658624D01*
X184594177Y-135687223D01*
X184642505Y-135719515D01*
X184642507Y-135719516D01*
X184749997Y-135740897D01*
X184750000Y-135740897D01*
X184750003Y-135740897D01*
X184857492Y-135719516D01*
X184857492Y-135719515D01*
X184857495Y-135719515D01*
X184948624Y-135658624D01*
X185009515Y-135567495D01*
X185013584Y-135547043D01*
X185030897Y-135460002D01*
X185030897Y-135459997D01*
X185669103Y-135459997D01*
X185669103Y-135460002D01*
X185690483Y-135567492D01*
X185751375Y-135658624D01*
X185794177Y-135687223D01*
X185842505Y-135719515D01*
X185842507Y-135719516D01*
X185949997Y-135740897D01*
X185950000Y-135740897D01*
X185950003Y-135740897D01*
X186057492Y-135719516D01*
X186057492Y-135719515D01*
X186057495Y-135719515D01*
X186148624Y-135658624D01*
X186209515Y-135567495D01*
X186213584Y-135547043D01*
X186230897Y-135460002D01*
X186230897Y-135459997D01*
X186869103Y-135459997D01*
X186869103Y-135460002D01*
X186890483Y-135567492D01*
X186951375Y-135658624D01*
X186994177Y-135687223D01*
X187042505Y-135719515D01*
X187042507Y-135719516D01*
X187149997Y-135740897D01*
X187150000Y-135740897D01*
X187150003Y-135740897D01*
X187257492Y-135719516D01*
X187257492Y-135719515D01*
X187257495Y-135719515D01*
X187348624Y-135658624D01*
X187409515Y-135567495D01*
X187413584Y-135547043D01*
X187430897Y-135460002D01*
X187430897Y-135459997D01*
X188069103Y-135459997D01*
X188069103Y-135460002D01*
X188090483Y-135567492D01*
X188151375Y-135658624D01*
X188194177Y-135687223D01*
X188242505Y-135719515D01*
X188242507Y-135719516D01*
X188349997Y-135740897D01*
X188350000Y-135740897D01*
X188350003Y-135740897D01*
X188457492Y-135719516D01*
X188457492Y-135719515D01*
X188457495Y-135719515D01*
X188548624Y-135658624D01*
X188609515Y-135567495D01*
X188613584Y-135547043D01*
X188630897Y-135460002D01*
X188630897Y-135459997D01*
X189269103Y-135459997D01*
X189269103Y-135460002D01*
X189290483Y-135567492D01*
X189351375Y-135658624D01*
X189394177Y-135687223D01*
X189442505Y-135719515D01*
X189442507Y-135719516D01*
X189549997Y-135740897D01*
X189550000Y-135740897D01*
X189550003Y-135740897D01*
X189657492Y-135719516D01*
X189657492Y-135719515D01*
X189657495Y-135719515D01*
X189748624Y-135658624D01*
X189809515Y-135567495D01*
X189813584Y-135547043D01*
X189830897Y-135460002D01*
X189830897Y-135459997D01*
X190469103Y-135459997D01*
X190469103Y-135460002D01*
X190490483Y-135567492D01*
X190551375Y-135658624D01*
X190594177Y-135687223D01*
X190642505Y-135719515D01*
X190642507Y-135719516D01*
X190749997Y-135740897D01*
X190750000Y-135740897D01*
X190750003Y-135740897D01*
X190857492Y-135719516D01*
X190857492Y-135719515D01*
X190857495Y-135719515D01*
X190948624Y-135658624D01*
X191009258Y-135567878D01*
X191040440Y-135547044D01*
X191077223Y-135554360D01*
X191090742Y-135567879D01*
X191151375Y-135658624D01*
X191194177Y-135687223D01*
X191242505Y-135719515D01*
X191242507Y-135719516D01*
X191349997Y-135740897D01*
X191350000Y-135740897D01*
X191350003Y-135740897D01*
X191457492Y-135719516D01*
X191457492Y-135719515D01*
X191457495Y-135719515D01*
X191548624Y-135658624D01*
X191609258Y-135567878D01*
X191640440Y-135547044D01*
X191677223Y-135554360D01*
X191690742Y-135567879D01*
X191751375Y-135658624D01*
X191794177Y-135687223D01*
X191842505Y-135719515D01*
X191842507Y-135719516D01*
X191949997Y-135740897D01*
X191950000Y-135740897D01*
X191950003Y-135740897D01*
X192057492Y-135719516D01*
X192057492Y-135719515D01*
X192057495Y-135719515D01*
X192148624Y-135658624D01*
X192209258Y-135567878D01*
X192240440Y-135547044D01*
X192277223Y-135554360D01*
X192290742Y-135567879D01*
X192351375Y-135658624D01*
X192394177Y-135687223D01*
X192442505Y-135719515D01*
X192442507Y-135719516D01*
X192549997Y-135740897D01*
X192550000Y-135740897D01*
X192550003Y-135740897D01*
X192657492Y-135719516D01*
X192657492Y-135719515D01*
X192657495Y-135719515D01*
X192748624Y-135658624D01*
X192809258Y-135567878D01*
X192840440Y-135547044D01*
X192877223Y-135554360D01*
X192890742Y-135567879D01*
X192951375Y-135658624D01*
X192994177Y-135687223D01*
X193042505Y-135719515D01*
X193042507Y-135719516D01*
X193149997Y-135740897D01*
X193150000Y-135740897D01*
X193150003Y-135740897D01*
X193257492Y-135719516D01*
X193257492Y-135719515D01*
X193257495Y-135719515D01*
X193348624Y-135658624D01*
X193409258Y-135567878D01*
X193440440Y-135547044D01*
X193477223Y-135554360D01*
X193490742Y-135567879D01*
X193551375Y-135658624D01*
X193594177Y-135687223D01*
X193642505Y-135719515D01*
X193642507Y-135719516D01*
X193749997Y-135740897D01*
X193750000Y-135740897D01*
X193750003Y-135740897D01*
X193857492Y-135719516D01*
X193857492Y-135719515D01*
X193857495Y-135719515D01*
X193948624Y-135658624D01*
X194009258Y-135567878D01*
X194040440Y-135547044D01*
X194077223Y-135554360D01*
X194090742Y-135567879D01*
X194151375Y-135658624D01*
X194194177Y-135687223D01*
X194242505Y-135719515D01*
X194242507Y-135719516D01*
X194349997Y-135740897D01*
X194350000Y-135740897D01*
X194350003Y-135740897D01*
X194457492Y-135719516D01*
X194457492Y-135719515D01*
X194457495Y-135719515D01*
X194548624Y-135658624D01*
X194609258Y-135567878D01*
X194640440Y-135547044D01*
X194677223Y-135554360D01*
X194690742Y-135567879D01*
X194751375Y-135658624D01*
X194794177Y-135687223D01*
X194842505Y-135719515D01*
X194842507Y-135719516D01*
X194949997Y-135740897D01*
X194950000Y-135740897D01*
X194950003Y-135740897D01*
X195057492Y-135719516D01*
X195057492Y-135719515D01*
X195057495Y-135719515D01*
X195148624Y-135658624D01*
X195209258Y-135567878D01*
X195240440Y-135547044D01*
X195277223Y-135554360D01*
X195290742Y-135567879D01*
X195351375Y-135658624D01*
X195394177Y-135687223D01*
X195442505Y-135719515D01*
X195442507Y-135719516D01*
X195549997Y-135740897D01*
X195550000Y-135740897D01*
X195550003Y-135740897D01*
X195657492Y-135719516D01*
X195657492Y-135719515D01*
X195657495Y-135719515D01*
X195748624Y-135658624D01*
X195809258Y-135567878D01*
X195840440Y-135547044D01*
X195877223Y-135554360D01*
X195890742Y-135567879D01*
X195951375Y-135658624D01*
X195994177Y-135687223D01*
X196042505Y-135719515D01*
X196042507Y-135719516D01*
X196149997Y-135740897D01*
X196150000Y-135740897D01*
X196150003Y-135740897D01*
X196257492Y-135719516D01*
X196257492Y-135719515D01*
X196257495Y-135719515D01*
X196348624Y-135658624D01*
X196409258Y-135567878D01*
X196440440Y-135547044D01*
X196477223Y-135554360D01*
X196490742Y-135567879D01*
X196551375Y-135658624D01*
X196594177Y-135687223D01*
X196642505Y-135719515D01*
X196642507Y-135719516D01*
X196749997Y-135740897D01*
X196750000Y-135740897D01*
X196750003Y-135740897D01*
X196857492Y-135719516D01*
X196857492Y-135719515D01*
X196857495Y-135719515D01*
X196948624Y-135658624D01*
X197009515Y-135567495D01*
X197013584Y-135547043D01*
X197030897Y-135460002D01*
X197030897Y-135459997D01*
X197009516Y-135352507D01*
X197009257Y-135352120D01*
X196965895Y-135287223D01*
X196948624Y-135261375D01*
X196857492Y-135200483D01*
X196750003Y-135179103D01*
X196749997Y-135179103D01*
X196642507Y-135200483D01*
X196551375Y-135261375D01*
X196490742Y-135352120D01*
X196459559Y-135372956D01*
X196422777Y-135365639D01*
X196409258Y-135352120D01*
X196348624Y-135261375D01*
X196257492Y-135200483D01*
X196150003Y-135179103D01*
X196149997Y-135179103D01*
X196042507Y-135200483D01*
X195951375Y-135261375D01*
X195890742Y-135352120D01*
X195859559Y-135372956D01*
X195822777Y-135365639D01*
X195809258Y-135352120D01*
X195748624Y-135261375D01*
X195657492Y-135200483D01*
X195550003Y-135179103D01*
X195549997Y-135179103D01*
X195442507Y-135200483D01*
X195351375Y-135261375D01*
X195290742Y-135352120D01*
X195259559Y-135372956D01*
X195222777Y-135365639D01*
X195209258Y-135352120D01*
X195148624Y-135261375D01*
X195057492Y-135200483D01*
X194950003Y-135179103D01*
X194949997Y-135179103D01*
X194842507Y-135200483D01*
X194751375Y-135261375D01*
X194690742Y-135352120D01*
X194659559Y-135372956D01*
X194622777Y-135365639D01*
X194609258Y-135352120D01*
X194548624Y-135261375D01*
X194457492Y-135200483D01*
X194350003Y-135179103D01*
X194349997Y-135179103D01*
X194242507Y-135200483D01*
X194151375Y-135261375D01*
X194090742Y-135352120D01*
X194059559Y-135372956D01*
X194022777Y-135365639D01*
X194009258Y-135352120D01*
X193948624Y-135261375D01*
X193857492Y-135200483D01*
X193750003Y-135179103D01*
X193749997Y-135179103D01*
X193642507Y-135200483D01*
X193551375Y-135261375D01*
X193490742Y-135352120D01*
X193459559Y-135372956D01*
X193422777Y-135365639D01*
X193409258Y-135352120D01*
X193348624Y-135261375D01*
X193257492Y-135200483D01*
X193150003Y-135179103D01*
X193149997Y-135179103D01*
X193042507Y-135200483D01*
X192951375Y-135261375D01*
X192890742Y-135352120D01*
X192859559Y-135372956D01*
X192822777Y-135365639D01*
X192809258Y-135352120D01*
X192748624Y-135261375D01*
X192657492Y-135200483D01*
X192550003Y-135179103D01*
X192549997Y-135179103D01*
X192442507Y-135200483D01*
X192351375Y-135261375D01*
X192290742Y-135352120D01*
X192259559Y-135372956D01*
X192222777Y-135365639D01*
X192209258Y-135352120D01*
X192148624Y-135261375D01*
X192057492Y-135200483D01*
X191950003Y-135179103D01*
X191949997Y-135179103D01*
X191842507Y-135200483D01*
X191751375Y-135261375D01*
X191690742Y-135352120D01*
X191659559Y-135372956D01*
X191622777Y-135365639D01*
X191609258Y-135352120D01*
X191548624Y-135261375D01*
X191457492Y-135200483D01*
X191350003Y-135179103D01*
X191349997Y-135179103D01*
X191242507Y-135200483D01*
X191151375Y-135261375D01*
X191090742Y-135352120D01*
X191059559Y-135372956D01*
X191022777Y-135365639D01*
X191009258Y-135352120D01*
X190948624Y-135261375D01*
X190857492Y-135200483D01*
X190750003Y-135179103D01*
X190749997Y-135179103D01*
X190642507Y-135200483D01*
X190551375Y-135261375D01*
X190490483Y-135352507D01*
X190469103Y-135459997D01*
X189830897Y-135459997D01*
X189809516Y-135352507D01*
X189809257Y-135352120D01*
X189765895Y-135287223D01*
X189748624Y-135261375D01*
X189657492Y-135200483D01*
X189550003Y-135179103D01*
X189549997Y-135179103D01*
X189442507Y-135200483D01*
X189351375Y-135261375D01*
X189290483Y-135352507D01*
X189269103Y-135459997D01*
X188630897Y-135459997D01*
X188609516Y-135352507D01*
X188609257Y-135352120D01*
X188565895Y-135287223D01*
X188548624Y-135261375D01*
X188457492Y-135200483D01*
X188350003Y-135179103D01*
X188349997Y-135179103D01*
X188242507Y-135200483D01*
X188151375Y-135261375D01*
X188090483Y-135352507D01*
X188069103Y-135459997D01*
X187430897Y-135459997D01*
X187409516Y-135352507D01*
X187409257Y-135352120D01*
X187365895Y-135287223D01*
X187348624Y-135261375D01*
X187257492Y-135200483D01*
X187150003Y-135179103D01*
X187149997Y-135179103D01*
X187042507Y-135200483D01*
X186951375Y-135261375D01*
X186890483Y-135352507D01*
X186869103Y-135459997D01*
X186230897Y-135459997D01*
X186209516Y-135352507D01*
X186209257Y-135352120D01*
X186165895Y-135287223D01*
X186148624Y-135261375D01*
X186057492Y-135200483D01*
X185950003Y-135179103D01*
X185949997Y-135179103D01*
X185842507Y-135200483D01*
X185751375Y-135261375D01*
X185690483Y-135352507D01*
X185669103Y-135459997D01*
X185030897Y-135459997D01*
X185009516Y-135352507D01*
X185009257Y-135352120D01*
X184965895Y-135287223D01*
X184948624Y-135261375D01*
X184857492Y-135200483D01*
X184750003Y-135179103D01*
X184749997Y-135179103D01*
X184642507Y-135200483D01*
X184551375Y-135261375D01*
X184490483Y-135352507D01*
X184469103Y-135459997D01*
X183830897Y-135459997D01*
X183809516Y-135352507D01*
X183809257Y-135352120D01*
X183765895Y-135287223D01*
X183748624Y-135261375D01*
X183657492Y-135200483D01*
X183550003Y-135179103D01*
X183549997Y-135179103D01*
X183442507Y-135200483D01*
X183351375Y-135261375D01*
X183290483Y-135352507D01*
X183269103Y-135459997D01*
X182630897Y-135459997D01*
X182609516Y-135352507D01*
X182609257Y-135352120D01*
X182565895Y-135287223D01*
X182548624Y-135261375D01*
X182457492Y-135200483D01*
X182350003Y-135179103D01*
X182349997Y-135179103D01*
X182242507Y-135200483D01*
X182151375Y-135261375D01*
X182090483Y-135352507D01*
X182069103Y-135459997D01*
X181430897Y-135459997D01*
X181409516Y-135352507D01*
X181409257Y-135352120D01*
X181365895Y-135287223D01*
X181348624Y-135261375D01*
X181257492Y-135200483D01*
X181150003Y-135179103D01*
X181149997Y-135179103D01*
X181042507Y-135200483D01*
X180951375Y-135261375D01*
X180890483Y-135352507D01*
X180869103Y-135459997D01*
X179720499Y-135459997D01*
X179720499Y-131758319D01*
X179721844Y-131749521D01*
X179721693Y-131749502D01*
X179722245Y-131745248D01*
X179720550Y-131707948D01*
X179720499Y-131705723D01*
X179720499Y-131662674D01*
X179719557Y-131657938D01*
X179719889Y-131657871D01*
X179717817Y-131648584D01*
X179714706Y-131581107D01*
X179668650Y-131345271D01*
X179588449Y-131118759D01*
X179475843Y-130906487D01*
X179333274Y-130713059D01*
X179313154Y-130692826D01*
X179163843Y-130542678D01*
X178971212Y-130399030D01*
X178971210Y-130399029D01*
X178971209Y-130399028D01*
X178759569Y-130285238D01*
X178759564Y-130285236D01*
X178759560Y-130285234D01*
X178533512Y-130203775D01*
X178533506Y-130203773D01*
X178297937Y-130156402D01*
X178105949Y-130146601D01*
X178057954Y-130144151D01*
X178057953Y-130144151D01*
X177818779Y-130167286D01*
X177585600Y-130225304D01*
X177363474Y-130316948D01*
X177363470Y-130316950D01*
X177157214Y-130440234D01*
X176971307Y-130592478D01*
X176809785Y-130770378D01*
X176676145Y-130970080D01*
X176573291Y-131187253D01*
X176503458Y-131417174D01*
X176468160Y-131654845D01*
X176468159Y-131654854D01*
X176468082Y-131775016D01*
X176468082Y-131819168D01*
X176468756Y-131822991D01*
X176469500Y-131831500D01*
X176469500Y-136525943D01*
X176455148Y-136560591D01*
X175880591Y-137135148D01*
X175845943Y-137149500D01*
X167634057Y-137149500D01*
X167599409Y-137135148D01*
X167024852Y-136560591D01*
X167010500Y-136525943D01*
X167010500Y-135459997D01*
X168159103Y-135459997D01*
X168159103Y-135460002D01*
X168180483Y-135567492D01*
X168241375Y-135658624D01*
X168284177Y-135687223D01*
X168332505Y-135719515D01*
X168332507Y-135719516D01*
X168439997Y-135740897D01*
X168440000Y-135740897D01*
X168440003Y-135740897D01*
X168547492Y-135719516D01*
X168547492Y-135719515D01*
X168547495Y-135719515D01*
X168638624Y-135658624D01*
X168699515Y-135567495D01*
X168703584Y-135547043D01*
X168720897Y-135460002D01*
X168720897Y-135459997D01*
X169359103Y-135459997D01*
X169359103Y-135460002D01*
X169380483Y-135567492D01*
X169441375Y-135658624D01*
X169484177Y-135687223D01*
X169532505Y-135719515D01*
X169532507Y-135719516D01*
X169639997Y-135740897D01*
X169640000Y-135740897D01*
X169640003Y-135740897D01*
X169747492Y-135719516D01*
X169747492Y-135719515D01*
X169747495Y-135719515D01*
X169838624Y-135658624D01*
X169899515Y-135567495D01*
X169903584Y-135547043D01*
X169920897Y-135460002D01*
X169920897Y-135459997D01*
X170559103Y-135459997D01*
X170559103Y-135460002D01*
X170580483Y-135567492D01*
X170641375Y-135658624D01*
X170684177Y-135687223D01*
X170732505Y-135719515D01*
X170732507Y-135719516D01*
X170839997Y-135740897D01*
X170840000Y-135740897D01*
X170840003Y-135740897D01*
X170947492Y-135719516D01*
X170947492Y-135719515D01*
X170947495Y-135719515D01*
X171038624Y-135658624D01*
X171099515Y-135567495D01*
X171103584Y-135547043D01*
X171120897Y-135460002D01*
X171120897Y-135459997D01*
X171759103Y-135459997D01*
X171759103Y-135460002D01*
X171780483Y-135567492D01*
X171841375Y-135658624D01*
X171884177Y-135687223D01*
X171932505Y-135719515D01*
X171932507Y-135719516D01*
X172039997Y-135740897D01*
X172040000Y-135740897D01*
X172040003Y-135740897D01*
X172147492Y-135719516D01*
X172147492Y-135719515D01*
X172147495Y-135719515D01*
X172238624Y-135658624D01*
X172299515Y-135567495D01*
X172303584Y-135547043D01*
X172320897Y-135460002D01*
X172320897Y-135459997D01*
X172959103Y-135459997D01*
X172959103Y-135460002D01*
X172980483Y-135567492D01*
X173041375Y-135658624D01*
X173084177Y-135687223D01*
X173132505Y-135719515D01*
X173132507Y-135719516D01*
X173239997Y-135740897D01*
X173240000Y-135740897D01*
X173240003Y-135740897D01*
X173347492Y-135719516D01*
X173347492Y-135719515D01*
X173347495Y-135719515D01*
X173438624Y-135658624D01*
X173499515Y-135567495D01*
X173503584Y-135547043D01*
X173520897Y-135460002D01*
X173520897Y-135459997D01*
X174159103Y-135459997D01*
X174159103Y-135460002D01*
X174180483Y-135567492D01*
X174241375Y-135658624D01*
X174284177Y-135687223D01*
X174332505Y-135719515D01*
X174332507Y-135719516D01*
X174439997Y-135740897D01*
X174440000Y-135740897D01*
X174440003Y-135740897D01*
X174547492Y-135719516D01*
X174547492Y-135719515D01*
X174547495Y-135719515D01*
X174638624Y-135658624D01*
X174699515Y-135567495D01*
X174703584Y-135547043D01*
X174720897Y-135460002D01*
X174720897Y-135459997D01*
X175359103Y-135459997D01*
X175359103Y-135460002D01*
X175380483Y-135567492D01*
X175441375Y-135658624D01*
X175484177Y-135687223D01*
X175532505Y-135719515D01*
X175532507Y-135719516D01*
X175639997Y-135740897D01*
X175640000Y-135740897D01*
X175640003Y-135740897D01*
X175747492Y-135719516D01*
X175747492Y-135719515D01*
X175747495Y-135719515D01*
X175838624Y-135658624D01*
X175899515Y-135567495D01*
X175903584Y-135547043D01*
X175920897Y-135460002D01*
X175920897Y-135459997D01*
X175899516Y-135352507D01*
X175899257Y-135352120D01*
X175855895Y-135287223D01*
X175838624Y-135261375D01*
X175747492Y-135200483D01*
X175640003Y-135179103D01*
X175639997Y-135179103D01*
X175532507Y-135200483D01*
X175441375Y-135261375D01*
X175380483Y-135352507D01*
X175359103Y-135459997D01*
X174720897Y-135459997D01*
X174699516Y-135352507D01*
X174699257Y-135352120D01*
X174655895Y-135287223D01*
X174638624Y-135261375D01*
X174547492Y-135200483D01*
X174440003Y-135179103D01*
X174439997Y-135179103D01*
X174332507Y-135200483D01*
X174241375Y-135261375D01*
X174180483Y-135352507D01*
X174159103Y-135459997D01*
X173520897Y-135459997D01*
X173499516Y-135352507D01*
X173499257Y-135352120D01*
X173455895Y-135287223D01*
X173438624Y-135261375D01*
X173347492Y-135200483D01*
X173240003Y-135179103D01*
X173239997Y-135179103D01*
X173132507Y-135200483D01*
X173041375Y-135261375D01*
X172980483Y-135352507D01*
X172959103Y-135459997D01*
X172320897Y-135459997D01*
X172299516Y-135352507D01*
X172299257Y-135352120D01*
X172255895Y-135287223D01*
X172238624Y-135261375D01*
X172147492Y-135200483D01*
X172040003Y-135179103D01*
X172039997Y-135179103D01*
X171932507Y-135200483D01*
X171841375Y-135261375D01*
X171780483Y-135352507D01*
X171759103Y-135459997D01*
X171120897Y-135459997D01*
X171099516Y-135352507D01*
X171099257Y-135352120D01*
X171055895Y-135287223D01*
X171038624Y-135261375D01*
X170947492Y-135200483D01*
X170840003Y-135179103D01*
X170839997Y-135179103D01*
X170732507Y-135200483D01*
X170641375Y-135261375D01*
X170580483Y-135352507D01*
X170559103Y-135459997D01*
X169920897Y-135459997D01*
X169899516Y-135352507D01*
X169899257Y-135352120D01*
X169855895Y-135287223D01*
X169838624Y-135261375D01*
X169747492Y-135200483D01*
X169640003Y-135179103D01*
X169639997Y-135179103D01*
X169532507Y-135200483D01*
X169441375Y-135261375D01*
X169380483Y-135352507D01*
X169359103Y-135459997D01*
X168720897Y-135459997D01*
X168699516Y-135352507D01*
X168699257Y-135352120D01*
X168655895Y-135287223D01*
X168638624Y-135261375D01*
X168547492Y-135200483D01*
X168440003Y-135179103D01*
X168439997Y-135179103D01*
X168332507Y-135200483D01*
X168241375Y-135261375D01*
X168180483Y-135352507D01*
X168159103Y-135459997D01*
X167010500Y-135459997D01*
X167010500Y-131222163D01*
X167010500Y-131222157D01*
X166974783Y-131019596D01*
X166904434Y-130826315D01*
X166872139Y-130770378D01*
X166801594Y-130648190D01*
X166801591Y-130648186D01*
X166669379Y-130490621D01*
X166511814Y-130358409D01*
X166511813Y-130358408D01*
X166511809Y-130358405D01*
X166333691Y-130255569D01*
X166333683Y-130255565D01*
X166140408Y-130185218D01*
X166140405Y-130185217D01*
X166140404Y-130185217D01*
X165937843Y-130149500D01*
X165732157Y-130149500D01*
X165732156Y-130149500D01*
X165610952Y-130170871D01*
X165529596Y-130185217D01*
X165529595Y-130185217D01*
X165529591Y-130185218D01*
X165336316Y-130255565D01*
X165336308Y-130255569D01*
X165158190Y-130358405D01*
X165000621Y-130490621D01*
X164868405Y-130648190D01*
X164765569Y-130826308D01*
X164765565Y-130826316D01*
X164695218Y-131019591D01*
X164659500Y-131222156D01*
X164659500Y-136525943D01*
X164645148Y-136560591D01*
X164070591Y-137135148D01*
X164035943Y-137149500D01*
X147424057Y-137149500D01*
X147389409Y-137135148D01*
X146814852Y-136560591D01*
X146800500Y-136525943D01*
X146800500Y-134659997D01*
X147349103Y-134659997D01*
X147349103Y-134660002D01*
X147370483Y-134767492D01*
X147414105Y-134832777D01*
X147421421Y-134869560D01*
X147414105Y-134887223D01*
X147370483Y-134952507D01*
X147349103Y-135059997D01*
X147349103Y-135060002D01*
X147370483Y-135167492D01*
X147414105Y-135232777D01*
X147421421Y-135269560D01*
X147414105Y-135287223D01*
X147370483Y-135352507D01*
X147349103Y-135459997D01*
X147349103Y-135460002D01*
X147370483Y-135567492D01*
X147414105Y-135632777D01*
X147421421Y-135669560D01*
X147414105Y-135687223D01*
X147370483Y-135752507D01*
X147349103Y-135859997D01*
X147349103Y-135860002D01*
X147370483Y-135967492D01*
X147414105Y-136032777D01*
X147421421Y-136069560D01*
X147414105Y-136087223D01*
X147370483Y-136152507D01*
X147349103Y-136259997D01*
X147349103Y-136260002D01*
X147370483Y-136367492D01*
X147431375Y-136458624D01*
X147491991Y-136499126D01*
X147522505Y-136519515D01*
X147522507Y-136519516D01*
X147629997Y-136540897D01*
X147630000Y-136540897D01*
X147630003Y-136540897D01*
X147737492Y-136519516D01*
X147737492Y-136519515D01*
X147737495Y-136519515D01*
X147828624Y-136458624D01*
X147889258Y-136367878D01*
X147920440Y-136347044D01*
X147957223Y-136354360D01*
X147970742Y-136367879D01*
X148031375Y-136458624D01*
X148091991Y-136499126D01*
X148122505Y-136519515D01*
X148122507Y-136519516D01*
X148229997Y-136540897D01*
X148230000Y-136540897D01*
X148230003Y-136540897D01*
X148337492Y-136519516D01*
X148337492Y-136519515D01*
X148337495Y-136519515D01*
X148428624Y-136458624D01*
X148489258Y-136367878D01*
X148520440Y-136347044D01*
X148557223Y-136354360D01*
X148570742Y-136367879D01*
X148631375Y-136458624D01*
X148691991Y-136499126D01*
X148722505Y-136519515D01*
X148722507Y-136519516D01*
X148829997Y-136540897D01*
X148830000Y-136540897D01*
X148830003Y-136540897D01*
X148937492Y-136519516D01*
X148937492Y-136519515D01*
X148937495Y-136519515D01*
X149028624Y-136458624D01*
X149089258Y-136367878D01*
X149120440Y-136347044D01*
X149157223Y-136354360D01*
X149170742Y-136367879D01*
X149231375Y-136458624D01*
X149291991Y-136499126D01*
X149322505Y-136519515D01*
X149322507Y-136519516D01*
X149429997Y-136540897D01*
X149430000Y-136540897D01*
X149430003Y-136540897D01*
X149537492Y-136519516D01*
X149537492Y-136519515D01*
X149537495Y-136519515D01*
X149628624Y-136458624D01*
X149689515Y-136367495D01*
X149710897Y-136260000D01*
X149710897Y-136259997D01*
X149689516Y-136152507D01*
X149689515Y-136152505D01*
X149645893Y-136087221D01*
X149638577Y-136050441D01*
X149645893Y-136032779D01*
X149689515Y-135967495D01*
X149693584Y-135947043D01*
X149710897Y-135860002D01*
X149710897Y-135859997D01*
X149689516Y-135752507D01*
X149689515Y-135752505D01*
X149645893Y-135687221D01*
X149638577Y-135650441D01*
X149645893Y-135632779D01*
X149689515Y-135567495D01*
X149693584Y-135547043D01*
X149710897Y-135460002D01*
X149710897Y-135459997D01*
X156349103Y-135459997D01*
X156349103Y-135460002D01*
X156370483Y-135567492D01*
X156431375Y-135658624D01*
X156474177Y-135687223D01*
X156522505Y-135719515D01*
X156522507Y-135719516D01*
X156629997Y-135740897D01*
X156630000Y-135740897D01*
X156630003Y-135740897D01*
X156737492Y-135719516D01*
X156737492Y-135719515D01*
X156737495Y-135719515D01*
X156828624Y-135658624D01*
X156889515Y-135567495D01*
X156893584Y-135547043D01*
X156910897Y-135460002D01*
X156910897Y-135459997D01*
X157549103Y-135459997D01*
X157549103Y-135460002D01*
X157570483Y-135567492D01*
X157631375Y-135658624D01*
X157674177Y-135687223D01*
X157722505Y-135719515D01*
X157722507Y-135719516D01*
X157829997Y-135740897D01*
X157830000Y-135740897D01*
X157830003Y-135740897D01*
X157937492Y-135719516D01*
X157937492Y-135719515D01*
X157937495Y-135719515D01*
X158028624Y-135658624D01*
X158089515Y-135567495D01*
X158093584Y-135547043D01*
X158110897Y-135460002D01*
X158110897Y-135459997D01*
X158749103Y-135459997D01*
X158749103Y-135460002D01*
X158770483Y-135567492D01*
X158831375Y-135658624D01*
X158874177Y-135687223D01*
X158922505Y-135719515D01*
X158922507Y-135719516D01*
X159029997Y-135740897D01*
X159030000Y-135740897D01*
X159030003Y-135740897D01*
X159137492Y-135719516D01*
X159137492Y-135719515D01*
X159137495Y-135719515D01*
X159228624Y-135658624D01*
X159289515Y-135567495D01*
X159293584Y-135547043D01*
X159310897Y-135460002D01*
X159310897Y-135459997D01*
X159949103Y-135459997D01*
X159949103Y-135460002D01*
X159970483Y-135567492D01*
X160031375Y-135658624D01*
X160074177Y-135687223D01*
X160122505Y-135719515D01*
X160122507Y-135719516D01*
X160229997Y-135740897D01*
X160230000Y-135740897D01*
X160230003Y-135740897D01*
X160337492Y-135719516D01*
X160337492Y-135719515D01*
X160337495Y-135719515D01*
X160428624Y-135658624D01*
X160489515Y-135567495D01*
X160493584Y-135547043D01*
X160510897Y-135460002D01*
X160510897Y-135459997D01*
X161149103Y-135459997D01*
X161149103Y-135460002D01*
X161170483Y-135567492D01*
X161231375Y-135658624D01*
X161274177Y-135687223D01*
X161322505Y-135719515D01*
X161322507Y-135719516D01*
X161429997Y-135740897D01*
X161430000Y-135740897D01*
X161430003Y-135740897D01*
X161537492Y-135719516D01*
X161537492Y-135719515D01*
X161537495Y-135719515D01*
X161628624Y-135658624D01*
X161689515Y-135567495D01*
X161693584Y-135547043D01*
X161710897Y-135460002D01*
X161710897Y-135459997D01*
X162349103Y-135459997D01*
X162349103Y-135460002D01*
X162370483Y-135567492D01*
X162431375Y-135658624D01*
X162474177Y-135687223D01*
X162522505Y-135719515D01*
X162522507Y-135719516D01*
X162629997Y-135740897D01*
X162630000Y-135740897D01*
X162630003Y-135740897D01*
X162737492Y-135719516D01*
X162737492Y-135719515D01*
X162737495Y-135719515D01*
X162828624Y-135658624D01*
X162889515Y-135567495D01*
X162893584Y-135547043D01*
X162910897Y-135460002D01*
X162910897Y-135459997D01*
X163549103Y-135459997D01*
X163549103Y-135460002D01*
X163570483Y-135567492D01*
X163631375Y-135658624D01*
X163674177Y-135687223D01*
X163722505Y-135719515D01*
X163722507Y-135719516D01*
X163829997Y-135740897D01*
X163830000Y-135740897D01*
X163830003Y-135740897D01*
X163937492Y-135719516D01*
X163937492Y-135719515D01*
X163937495Y-135719515D01*
X164028624Y-135658624D01*
X164089515Y-135567495D01*
X164093584Y-135547043D01*
X164110897Y-135460002D01*
X164110897Y-135459997D01*
X164089516Y-135352507D01*
X164089257Y-135352120D01*
X164045895Y-135287223D01*
X164028624Y-135261375D01*
X163937492Y-135200483D01*
X163830003Y-135179103D01*
X163829997Y-135179103D01*
X163722507Y-135200483D01*
X163631375Y-135261375D01*
X163570483Y-135352507D01*
X163549103Y-135459997D01*
X162910897Y-135459997D01*
X162889516Y-135352507D01*
X162889257Y-135352120D01*
X162845895Y-135287223D01*
X162828624Y-135261375D01*
X162737492Y-135200483D01*
X162630003Y-135179103D01*
X162629997Y-135179103D01*
X162522507Y-135200483D01*
X162431375Y-135261375D01*
X162370483Y-135352507D01*
X162349103Y-135459997D01*
X161710897Y-135459997D01*
X161689516Y-135352507D01*
X161689257Y-135352120D01*
X161645895Y-135287223D01*
X161628624Y-135261375D01*
X161537492Y-135200483D01*
X161430003Y-135179103D01*
X161429997Y-135179103D01*
X161322507Y-135200483D01*
X161231375Y-135261375D01*
X161170483Y-135352507D01*
X161149103Y-135459997D01*
X160510897Y-135459997D01*
X160489516Y-135352507D01*
X160489257Y-135352120D01*
X160445895Y-135287223D01*
X160428624Y-135261375D01*
X160337492Y-135200483D01*
X160230003Y-135179103D01*
X160229997Y-135179103D01*
X160122507Y-135200483D01*
X160031375Y-135261375D01*
X159970483Y-135352507D01*
X159949103Y-135459997D01*
X159310897Y-135459997D01*
X159289516Y-135352507D01*
X159289257Y-135352120D01*
X159245895Y-135287223D01*
X159228624Y-135261375D01*
X159137492Y-135200483D01*
X159030003Y-135179103D01*
X159029997Y-135179103D01*
X158922507Y-135200483D01*
X158831375Y-135261375D01*
X158770483Y-135352507D01*
X158749103Y-135459997D01*
X158110897Y-135459997D01*
X158089516Y-135352507D01*
X158089257Y-135352120D01*
X158045895Y-135287223D01*
X158028624Y-135261375D01*
X157937492Y-135200483D01*
X157830003Y-135179103D01*
X157829997Y-135179103D01*
X157722507Y-135200483D01*
X157631375Y-135261375D01*
X157570483Y-135352507D01*
X157549103Y-135459997D01*
X156910897Y-135459997D01*
X156889516Y-135352507D01*
X156889257Y-135352120D01*
X156845895Y-135287223D01*
X156828624Y-135261375D01*
X156737492Y-135200483D01*
X156630003Y-135179103D01*
X156629997Y-135179103D01*
X156522507Y-135200483D01*
X156431375Y-135261375D01*
X156370483Y-135352507D01*
X156349103Y-135459997D01*
X149710897Y-135459997D01*
X149689516Y-135352507D01*
X149689515Y-135352505D01*
X149645893Y-135287221D01*
X149638577Y-135250441D01*
X149645893Y-135232779D01*
X149689515Y-135167495D01*
X149693584Y-135147043D01*
X149710897Y-135060002D01*
X149710897Y-135059997D01*
X149689516Y-134952507D01*
X149689515Y-134952505D01*
X149645893Y-134887221D01*
X149638577Y-134850441D01*
X149645893Y-134832779D01*
X149689515Y-134767495D01*
X149693584Y-134747043D01*
X149710897Y-134660002D01*
X149710897Y-134659997D01*
X149689516Y-134552507D01*
X149689257Y-134552120D01*
X149669126Y-134521991D01*
X149628624Y-134461375D01*
X149537492Y-134400483D01*
X149430003Y-134379103D01*
X149429997Y-134379103D01*
X149322507Y-134400483D01*
X149231375Y-134461375D01*
X149170742Y-134552120D01*
X149139559Y-134572956D01*
X149102777Y-134565639D01*
X149089258Y-134552120D01*
X149028624Y-134461375D01*
X148937492Y-134400483D01*
X148830003Y-134379103D01*
X148829997Y-134379103D01*
X148722507Y-134400483D01*
X148631375Y-134461375D01*
X148570742Y-134552120D01*
X148539559Y-134572956D01*
X148502777Y-134565639D01*
X148489258Y-134552120D01*
X148428624Y-134461375D01*
X148337492Y-134400483D01*
X148230003Y-134379103D01*
X148229997Y-134379103D01*
X148122507Y-134400483D01*
X148031375Y-134461375D01*
X147970742Y-134552120D01*
X147939559Y-134572956D01*
X147902777Y-134565639D01*
X147889258Y-134552120D01*
X147828624Y-134461375D01*
X147737492Y-134400483D01*
X147630003Y-134379103D01*
X147629997Y-134379103D01*
X147522507Y-134400483D01*
X147431375Y-134461375D01*
X147370483Y-134552507D01*
X147349103Y-134659997D01*
X146800500Y-134659997D01*
X146800500Y-132062474D01*
X146800500Y-132062468D01*
X146770101Y-131890062D01*
X146710225Y-131725555D01*
X146700059Y-131707948D01*
X146622692Y-131573945D01*
X146622687Y-131573939D01*
X146510164Y-131439838D01*
X146510161Y-131439835D01*
X146376060Y-131327312D01*
X146376054Y-131327307D01*
X146224451Y-131239778D01*
X146224443Y-131239774D01*
X146059942Y-131179900D01*
X146059943Y-131179900D01*
X146059938Y-131179899D01*
X145887532Y-131149500D01*
X145552407Y-131149500D01*
X145547604Y-131149264D01*
X145408582Y-131135571D01*
X145399161Y-131133697D01*
X145267798Y-131093849D01*
X145258923Y-131090173D01*
X145137855Y-131025460D01*
X145129869Y-131020124D01*
X145023754Y-130933038D01*
X145016961Y-130926245D01*
X144929875Y-130820130D01*
X144924539Y-130812144D01*
X144859824Y-130691072D01*
X144856151Y-130682205D01*
X144816302Y-130550838D01*
X144814428Y-130541417D01*
X144800736Y-130402396D01*
X144800500Y-130397593D01*
X144800500Y-127309997D01*
X152494103Y-127309997D01*
X152494103Y-127310002D01*
X152515483Y-127417492D01*
X152576375Y-127508624D01*
X152636991Y-127549126D01*
X152667505Y-127569515D01*
X152667507Y-127569516D01*
X152774997Y-127590897D01*
X152775000Y-127590897D01*
X152775003Y-127590897D01*
X152882492Y-127569516D01*
X152882492Y-127569515D01*
X152882495Y-127569515D01*
X152973624Y-127508624D01*
X152973625Y-127508623D01*
X152976758Y-127503935D01*
X153007940Y-127483099D01*
X153044722Y-127490415D01*
X153058242Y-127503935D01*
X153061374Y-127508623D01*
X153106940Y-127539069D01*
X153152505Y-127569515D01*
X153152507Y-127569516D01*
X153259997Y-127590897D01*
X153260000Y-127590897D01*
X153260003Y-127590897D01*
X153367492Y-127569516D01*
X153367492Y-127569515D01*
X153367495Y-127569515D01*
X153458624Y-127508624D01*
X153519515Y-127417495D01*
X153532907Y-127350172D01*
X153540897Y-127310002D01*
X153540897Y-127309997D01*
X153519516Y-127202507D01*
X153458624Y-127111375D01*
X153367492Y-127050483D01*
X153260003Y-127029103D01*
X153259997Y-127029103D01*
X153152507Y-127050483D01*
X153061375Y-127111375D01*
X153058241Y-127116067D01*
X153027057Y-127136901D01*
X152990275Y-127129583D01*
X152976759Y-127116067D01*
X152973624Y-127111375D01*
X152882492Y-127050483D01*
X152775003Y-127029103D01*
X152774997Y-127029103D01*
X152667507Y-127050483D01*
X152576375Y-127111375D01*
X152515483Y-127202507D01*
X152494103Y-127309997D01*
X144800500Y-127309997D01*
X144800500Y-127301583D01*
X144784808Y-127202505D01*
X144769709Y-127107174D01*
X144708884Y-126919975D01*
X144683432Y-126870023D01*
X144619527Y-126744600D01*
X144619525Y-126744597D01*
X144619524Y-126744595D01*
X144503828Y-126585354D01*
X144503824Y-126585350D01*
X144503822Y-126585347D01*
X144364652Y-126446177D01*
X144364653Y-126446177D01*
X144205399Y-126330472D01*
X144030026Y-126241116D01*
X143842826Y-126180291D01*
X143842823Y-126180290D01*
X143693482Y-126156637D01*
X143648417Y-126149500D01*
X143648416Y-126149500D01*
X115632407Y-126149500D01*
X115627604Y-126149264D01*
X115488582Y-126135571D01*
X115479161Y-126133697D01*
X115347798Y-126093849D01*
X115338923Y-126090173D01*
X115217855Y-126025460D01*
X115209869Y-126020124D01*
X115103754Y-125933038D01*
X115096961Y-125926245D01*
X115009875Y-125820130D01*
X115004539Y-125812144D01*
X114939824Y-125691072D01*
X114936151Y-125682205D01*
X114896302Y-125550838D01*
X114894428Y-125541417D01*
X114880736Y-125402396D01*
X114880500Y-125397593D01*
X114880500Y-123557001D01*
X183647500Y-123557001D01*
X183647500Y-123694998D01*
X183674417Y-123830318D01*
X183674420Y-123830328D01*
X183727225Y-123957811D01*
X183758137Y-124004074D01*
X183803883Y-124072539D01*
X183901460Y-124170116D01*
X183947102Y-124200613D01*
X184016189Y-124246775D01*
X184143672Y-124299580D01*
X184143678Y-124299581D01*
X184143681Y-124299582D01*
X184279001Y-124326499D01*
X184279007Y-124326500D01*
X184416993Y-124326500D01*
X184552328Y-124299580D01*
X184679811Y-124246775D01*
X184794542Y-124170114D01*
X184892114Y-124072542D01*
X184968775Y-123957811D01*
X185021580Y-123830328D01*
X185048500Y-123694993D01*
X185048500Y-123557007D01*
X185021580Y-123421672D01*
X184968775Y-123294189D01*
X184922613Y-123225102D01*
X184892116Y-123179460D01*
X184794539Y-123081883D01*
X184726074Y-123036137D01*
X184679811Y-123005225D01*
X184679808Y-123005223D01*
X184679807Y-123005223D01*
X184552329Y-122952420D01*
X184552318Y-122952417D01*
X184416998Y-122925500D01*
X184416993Y-122925500D01*
X184279007Y-122925500D01*
X184279001Y-122925500D01*
X184143681Y-122952417D01*
X184143670Y-122952420D01*
X184016192Y-123005223D01*
X183901460Y-123081883D01*
X183803883Y-123179460D01*
X183727223Y-123294192D01*
X183674420Y-123421670D01*
X183674417Y-123421681D01*
X183647500Y-123557001D01*
X114880500Y-123557001D01*
X114880500Y-121569997D01*
X197769103Y-121569997D01*
X197769103Y-121570002D01*
X197790483Y-121677492D01*
X197851375Y-121768624D01*
X197911991Y-121809126D01*
X197942505Y-121829515D01*
X197942507Y-121829516D01*
X198049997Y-121850897D01*
X198050000Y-121850897D01*
X198050003Y-121850897D01*
X198157492Y-121829516D01*
X198157492Y-121829515D01*
X198157495Y-121829515D01*
X198248624Y-121768624D01*
X198309515Y-121677495D01*
X198330897Y-121570000D01*
X198330897Y-121569997D01*
X198309516Y-121462507D01*
X198248624Y-121371375D01*
X198157492Y-121310483D01*
X198050003Y-121289103D01*
X198049997Y-121289103D01*
X197942507Y-121310483D01*
X197851375Y-121371375D01*
X197790483Y-121462507D01*
X197769103Y-121569997D01*
X114880500Y-121569997D01*
X114880500Y-120679997D01*
X179679103Y-120679997D01*
X179679103Y-120680002D01*
X179700483Y-120787492D01*
X179761375Y-120878624D01*
X179821991Y-120919126D01*
X179852505Y-120939515D01*
X179852507Y-120939516D01*
X179959997Y-120960897D01*
X179960000Y-120960897D01*
X179960003Y-120960897D01*
X180067492Y-120939516D01*
X180067492Y-120939515D01*
X180067495Y-120939515D01*
X180158624Y-120878624D01*
X180219515Y-120787495D01*
X180240897Y-120680000D01*
X180240897Y-120679997D01*
X180219516Y-120572507D01*
X180158624Y-120481375D01*
X180067492Y-120420483D01*
X179960003Y-120399103D01*
X179959997Y-120399103D01*
X179852507Y-120420483D01*
X179761375Y-120481375D01*
X179700483Y-120572507D01*
X179679103Y-120679997D01*
X114880500Y-120679997D01*
X114880500Y-120169997D01*
X182659103Y-120169997D01*
X182659103Y-120170002D01*
X182680483Y-120277492D01*
X182741375Y-120368624D01*
X182801991Y-120409126D01*
X182832505Y-120429515D01*
X182832507Y-120429516D01*
X182939997Y-120450897D01*
X182940000Y-120450897D01*
X182940003Y-120450897D01*
X183047492Y-120429516D01*
X183047492Y-120429515D01*
X183047495Y-120429515D01*
X183138624Y-120368624D01*
X183199515Y-120277495D01*
X183207472Y-120237495D01*
X183220897Y-120170002D01*
X183220897Y-120169997D01*
X183212941Y-120129997D01*
X198439103Y-120129997D01*
X198439103Y-120130002D01*
X198460483Y-120237492D01*
X198521375Y-120328624D01*
X198581240Y-120368624D01*
X198612505Y-120389515D01*
X198612507Y-120389516D01*
X198719997Y-120410897D01*
X198720000Y-120410897D01*
X198720003Y-120410897D01*
X198827492Y-120389516D01*
X198827492Y-120389515D01*
X198827495Y-120389515D01*
X198918624Y-120328624D01*
X198979515Y-120237495D01*
X198992941Y-120170002D01*
X199000897Y-120130002D01*
X199000897Y-120129997D01*
X198979516Y-120022507D01*
X198918624Y-119931375D01*
X198827492Y-119870483D01*
X198720003Y-119849103D01*
X198719997Y-119849103D01*
X198612507Y-119870483D01*
X198521375Y-119931375D01*
X198460483Y-120022507D01*
X198439103Y-120129997D01*
X183212941Y-120129997D01*
X183199516Y-120062507D01*
X183138624Y-119971375D01*
X183047492Y-119910483D01*
X182940003Y-119889103D01*
X182939997Y-119889103D01*
X182832507Y-119910483D01*
X182741375Y-119971375D01*
X182680483Y-120062507D01*
X182659103Y-120169997D01*
X114880500Y-120169997D01*
X114880500Y-119329997D01*
X196789103Y-119329997D01*
X196789103Y-119330002D01*
X196810483Y-119437492D01*
X196871375Y-119528624D01*
X196931991Y-119569126D01*
X196962505Y-119589515D01*
X196962507Y-119589516D01*
X197069997Y-119610897D01*
X197070000Y-119610897D01*
X197070003Y-119610897D01*
X197177492Y-119589516D01*
X197177492Y-119589515D01*
X197177495Y-119589515D01*
X197268624Y-119528624D01*
X197329515Y-119437495D01*
X197350897Y-119330000D01*
X197350897Y-119329997D01*
X197329516Y-119222507D01*
X197268624Y-119131375D01*
X197177492Y-119070483D01*
X197070003Y-119049103D01*
X197069997Y-119049103D01*
X196962507Y-119070483D01*
X196871375Y-119131375D01*
X196810483Y-119222507D01*
X196789103Y-119329997D01*
X114880500Y-119329997D01*
X114880500Y-118919997D01*
X182629103Y-118919997D01*
X182629103Y-118920002D01*
X182650483Y-119027492D01*
X182711375Y-119118624D01*
X182771991Y-119159126D01*
X182802505Y-119179515D01*
X182802507Y-119179516D01*
X182909997Y-119200897D01*
X182910000Y-119200897D01*
X182910003Y-119200897D01*
X183017492Y-119179516D01*
X183017492Y-119179515D01*
X183017495Y-119179515D01*
X183108624Y-119118624D01*
X183169515Y-119027495D01*
X183190897Y-118920000D01*
X183190897Y-118919997D01*
X183169516Y-118812507D01*
X183108624Y-118721375D01*
X183017492Y-118660483D01*
X182910003Y-118639103D01*
X182909997Y-118639103D01*
X182802507Y-118660483D01*
X182711375Y-118721375D01*
X182650483Y-118812507D01*
X182629103Y-118919997D01*
X114880500Y-118919997D01*
X114880500Y-118079997D01*
X183129103Y-118079997D01*
X183129103Y-118080002D01*
X183150483Y-118187492D01*
X183211375Y-118278624D01*
X183271991Y-118319126D01*
X183302505Y-118339515D01*
X183302507Y-118339516D01*
X183409997Y-118360897D01*
X183410000Y-118360897D01*
X183410003Y-118360897D01*
X183517492Y-118339516D01*
X183517492Y-118339515D01*
X183517495Y-118339515D01*
X183608624Y-118278624D01*
X183669515Y-118187495D01*
X183674985Y-118159997D01*
X197509103Y-118159997D01*
X197509103Y-118160002D01*
X197530483Y-118267492D01*
X197591375Y-118358624D01*
X197651991Y-118399126D01*
X197682505Y-118419515D01*
X197682507Y-118419516D01*
X197789997Y-118440897D01*
X197790000Y-118440897D01*
X197790003Y-118440897D01*
X197897492Y-118419516D01*
X197897492Y-118419515D01*
X197897495Y-118419515D01*
X197988624Y-118358624D01*
X198049515Y-118267495D01*
X198070897Y-118160000D01*
X198070897Y-118159997D01*
X198049516Y-118052507D01*
X197988624Y-117961375D01*
X197897492Y-117900483D01*
X197790003Y-117879103D01*
X197789997Y-117879103D01*
X197682507Y-117900483D01*
X197591375Y-117961375D01*
X197530483Y-118052507D01*
X197509103Y-118159997D01*
X183674985Y-118159997D01*
X183690897Y-118080000D01*
X183690897Y-118079997D01*
X183669516Y-117972507D01*
X183608624Y-117881375D01*
X183517492Y-117820483D01*
X183410003Y-117799103D01*
X183409997Y-117799103D01*
X183302507Y-117820483D01*
X183211375Y-117881375D01*
X183150483Y-117972507D01*
X183129103Y-118079997D01*
X114880500Y-118079997D01*
X114880500Y-117119997D01*
X182289103Y-117119997D01*
X182289103Y-117120002D01*
X182310483Y-117227492D01*
X182371375Y-117318624D01*
X182432266Y-117359309D01*
X182462505Y-117379515D01*
X182551523Y-117397221D01*
X182582704Y-117418056D01*
X182590021Y-117454838D01*
X182569103Y-117560002D01*
X182590483Y-117667492D01*
X182651375Y-117758624D01*
X182711957Y-117799103D01*
X182742505Y-117819515D01*
X182742507Y-117819516D01*
X182849997Y-117840897D01*
X182850000Y-117840897D01*
X182850003Y-117840897D01*
X182957492Y-117819516D01*
X182957492Y-117819515D01*
X182957495Y-117819515D01*
X183048624Y-117758624D01*
X183109515Y-117667495D01*
X183130897Y-117560000D01*
X183130897Y-117559997D01*
X183109516Y-117452507D01*
X183048624Y-117361375D01*
X182993995Y-117324874D01*
X182957495Y-117300485D01*
X182868476Y-117282778D01*
X182837295Y-117261943D01*
X182829978Y-117225164D01*
X182850897Y-117120000D01*
X182850897Y-117119997D01*
X194699103Y-117119997D01*
X194699103Y-117120002D01*
X194720483Y-117227492D01*
X194781375Y-117318624D01*
X194841991Y-117359126D01*
X194872505Y-117379515D01*
X194872507Y-117379516D01*
X194979997Y-117400897D01*
X194980000Y-117400897D01*
X194980003Y-117400897D01*
X195087492Y-117379516D01*
X195087492Y-117379515D01*
X195087495Y-117379515D01*
X195178624Y-117318624D01*
X195239515Y-117227495D01*
X195239980Y-117225161D01*
X195260897Y-117120002D01*
X195260897Y-117119997D01*
X195239516Y-117012507D01*
X195178624Y-116921375D01*
X195087492Y-116860483D01*
X194980003Y-116839103D01*
X194979997Y-116839103D01*
X194872507Y-116860483D01*
X194781375Y-116921375D01*
X194720483Y-117012507D01*
X194699103Y-117119997D01*
X182850897Y-117119997D01*
X182829516Y-117012507D01*
X182768624Y-116921375D01*
X182677492Y-116860483D01*
X182570003Y-116839103D01*
X182569997Y-116839103D01*
X182462507Y-116860483D01*
X182371375Y-116921375D01*
X182310483Y-117012507D01*
X182289103Y-117119997D01*
X114880500Y-117119997D01*
X114880500Y-116563266D01*
X182885947Y-116563266D01*
X182885947Y-116563271D01*
X182907327Y-116670761D01*
X182968219Y-116761893D01*
X183028835Y-116802395D01*
X183059349Y-116822784D01*
X183059351Y-116822785D01*
X183166841Y-116844166D01*
X183166844Y-116844166D01*
X183166847Y-116844166D01*
X183274336Y-116822785D01*
X183274336Y-116822784D01*
X183274339Y-116822784D01*
X183365468Y-116761893D01*
X183426359Y-116670764D01*
X183428999Y-116657495D01*
X183447741Y-116563271D01*
X183447741Y-116563266D01*
X183445102Y-116549997D01*
X196829103Y-116549997D01*
X196829103Y-116550002D01*
X196850483Y-116657492D01*
X196911375Y-116748624D01*
X196931234Y-116761893D01*
X197002505Y-116809515D01*
X197002507Y-116809516D01*
X197109997Y-116830897D01*
X197110000Y-116830897D01*
X197110003Y-116830897D01*
X197217492Y-116809516D01*
X197217492Y-116809515D01*
X197217495Y-116809515D01*
X197308624Y-116748624D01*
X197369515Y-116657495D01*
X197388258Y-116563271D01*
X197390897Y-116550002D01*
X197390897Y-116549997D01*
X197369516Y-116442507D01*
X197308624Y-116351375D01*
X197217492Y-116290483D01*
X197110003Y-116269103D01*
X197109997Y-116269103D01*
X197002507Y-116290483D01*
X196911375Y-116351375D01*
X196850483Y-116442507D01*
X196829103Y-116549997D01*
X183445102Y-116549997D01*
X183426360Y-116455776D01*
X183365468Y-116364644D01*
X183274336Y-116303752D01*
X183166847Y-116282372D01*
X183166841Y-116282372D01*
X183059351Y-116303752D01*
X182968219Y-116364644D01*
X182907327Y-116455776D01*
X182885947Y-116563266D01*
X114880500Y-116563266D01*
X114880500Y-116249997D01*
X191959103Y-116249997D01*
X191959103Y-116250002D01*
X191980483Y-116357492D01*
X192041375Y-116448624D01*
X192101991Y-116489126D01*
X192132505Y-116509515D01*
X192132507Y-116509516D01*
X192239997Y-116530897D01*
X192240000Y-116530897D01*
X192240003Y-116530897D01*
X192347492Y-116509516D01*
X192347492Y-116509515D01*
X192347495Y-116509515D01*
X192438624Y-116448624D01*
X192499515Y-116357495D01*
X192500733Y-116351376D01*
X192520897Y-116250002D01*
X192520897Y-116249997D01*
X192499516Y-116142507D01*
X192438624Y-116051375D01*
X192347492Y-115990483D01*
X192240003Y-115969103D01*
X192239997Y-115969103D01*
X192132507Y-115990483D01*
X192041375Y-116051375D01*
X191980483Y-116142507D01*
X191959103Y-116249997D01*
X114880500Y-116249997D01*
X114880500Y-115689997D01*
X179699103Y-115689997D01*
X179699103Y-115690002D01*
X179720483Y-115797492D01*
X179781375Y-115888624D01*
X179798401Y-115900000D01*
X179872505Y-115949515D01*
X179872507Y-115949516D01*
X179979997Y-115970897D01*
X179980000Y-115970897D01*
X179980003Y-115970897D01*
X180087492Y-115949516D01*
X180087492Y-115949515D01*
X180087495Y-115949515D01*
X180161603Y-115899997D01*
X182379103Y-115899997D01*
X182379103Y-115900002D01*
X182400483Y-116007492D01*
X182461375Y-116098624D01*
X182521991Y-116139126D01*
X182552505Y-116159515D01*
X182552507Y-116159516D01*
X182659997Y-116180897D01*
X182660000Y-116180897D01*
X182660003Y-116180897D01*
X182767492Y-116159516D01*
X182767492Y-116159515D01*
X182767495Y-116159515D01*
X182858624Y-116098624D01*
X182919515Y-116007495D01*
X182922899Y-115990485D01*
X182940897Y-115900002D01*
X182940897Y-115899997D01*
X182919516Y-115792507D01*
X182858624Y-115701375D01*
X182767492Y-115640483D01*
X182660003Y-115619103D01*
X182659997Y-115619103D01*
X182552507Y-115640483D01*
X182461375Y-115701375D01*
X182400483Y-115792507D01*
X182379103Y-115899997D01*
X180161603Y-115899997D01*
X180178624Y-115888624D01*
X180239515Y-115797495D01*
X180240508Y-115792507D01*
X180260897Y-115690002D01*
X180260897Y-115689997D01*
X180239516Y-115582507D01*
X180178624Y-115491375D01*
X180087492Y-115430483D01*
X179980003Y-115409103D01*
X179979997Y-115409103D01*
X179872507Y-115430483D01*
X179781375Y-115491375D01*
X179720483Y-115582507D01*
X179699103Y-115689997D01*
X114880500Y-115689997D01*
X114880500Y-115199997D01*
X182359103Y-115199997D01*
X182359103Y-115200002D01*
X182380483Y-115307492D01*
X182441375Y-115398624D01*
X182489056Y-115430483D01*
X182532505Y-115459515D01*
X182532507Y-115459516D01*
X182639997Y-115480897D01*
X182640000Y-115480897D01*
X182640003Y-115480897D01*
X182747492Y-115459516D01*
X182747492Y-115459515D01*
X182747495Y-115459515D01*
X182838624Y-115398624D01*
X182899515Y-115307495D01*
X182900733Y-115301376D01*
X182905879Y-115275505D01*
X190915277Y-115275505D01*
X190915277Y-115275510D01*
X190936657Y-115383000D01*
X190997549Y-115474132D01*
X191058165Y-115514634D01*
X191088679Y-115535023D01*
X191088681Y-115535024D01*
X191196171Y-115556405D01*
X191196174Y-115556405D01*
X191196177Y-115556405D01*
X191303666Y-115535024D01*
X191303666Y-115535023D01*
X191303669Y-115535023D01*
X191356089Y-115499997D01*
X195869103Y-115499997D01*
X195869103Y-115500002D01*
X195890483Y-115607492D01*
X195951375Y-115698624D01*
X196011991Y-115739126D01*
X196042505Y-115759515D01*
X196042507Y-115759516D01*
X196149997Y-115780897D01*
X196150000Y-115780897D01*
X196150003Y-115780897D01*
X196257492Y-115759516D01*
X196257492Y-115759515D01*
X196257495Y-115759515D01*
X196348624Y-115698624D01*
X196409515Y-115607495D01*
X196414486Y-115582507D01*
X196430897Y-115500002D01*
X196430897Y-115499997D01*
X196409516Y-115392507D01*
X196348624Y-115301375D01*
X196257492Y-115240483D01*
X196150003Y-115219103D01*
X196149997Y-115219103D01*
X196042507Y-115240483D01*
X195951375Y-115301375D01*
X195890483Y-115392507D01*
X195869103Y-115499997D01*
X191356089Y-115499997D01*
X191394798Y-115474132D01*
X191455689Y-115383003D01*
X191470709Y-115307495D01*
X191477071Y-115275510D01*
X191477071Y-115275505D01*
X191455690Y-115168015D01*
X191394798Y-115076883D01*
X191303666Y-115015991D01*
X191196177Y-114994611D01*
X191196171Y-114994611D01*
X191088681Y-115015991D01*
X190997549Y-115076883D01*
X190936657Y-115168015D01*
X190915277Y-115275505D01*
X182905879Y-115275505D01*
X182920897Y-115200002D01*
X182920897Y-115199997D01*
X182899516Y-115092507D01*
X182889076Y-115076883D01*
X182851990Y-115021379D01*
X182838624Y-115001375D01*
X182747492Y-114940483D01*
X182640003Y-114919103D01*
X182639997Y-114919103D01*
X182532507Y-114940483D01*
X182441375Y-115001375D01*
X182380483Y-115092507D01*
X182359103Y-115199997D01*
X114880500Y-115199997D01*
X114880500Y-108998497D01*
X117892603Y-108998497D01*
X117892603Y-108998502D01*
X117913983Y-109105992D01*
X117974875Y-109197124D01*
X118065620Y-109257758D01*
X118086456Y-109288941D01*
X118079139Y-109325723D01*
X118065620Y-109339242D01*
X117974875Y-109399875D01*
X117913983Y-109491007D01*
X117892603Y-109598497D01*
X117892603Y-109598502D01*
X117913983Y-109705992D01*
X117974875Y-109797124D01*
X118065620Y-109857758D01*
X118086456Y-109888941D01*
X118079139Y-109925723D01*
X118065620Y-109939242D01*
X117974875Y-109999875D01*
X117913983Y-110091007D01*
X117892603Y-110198497D01*
X117892603Y-110198502D01*
X117913983Y-110305992D01*
X117974875Y-110397124D01*
X118065620Y-110457758D01*
X118086456Y-110488941D01*
X118079139Y-110525723D01*
X118065620Y-110539242D01*
X117974875Y-110599875D01*
X117913983Y-110691007D01*
X117892603Y-110798497D01*
X117892603Y-110798502D01*
X117913983Y-110905992D01*
X117974875Y-110997124D01*
X118065620Y-111057758D01*
X118086456Y-111088941D01*
X118079139Y-111125723D01*
X118065620Y-111139242D01*
X117974875Y-111199875D01*
X117913983Y-111291007D01*
X117892603Y-111398497D01*
X117892603Y-111398502D01*
X117913983Y-111505992D01*
X117974875Y-111597124D01*
X118065620Y-111657758D01*
X118086456Y-111688941D01*
X118079139Y-111725723D01*
X118065620Y-111739242D01*
X117974875Y-111799875D01*
X117913983Y-111891007D01*
X117892603Y-111998497D01*
X117892603Y-111998502D01*
X117913983Y-112105992D01*
X117974875Y-112197124D01*
X118002014Y-112215258D01*
X118022850Y-112246441D01*
X118015533Y-112283223D01*
X118002014Y-112296742D01*
X117974875Y-112314875D01*
X117913983Y-112406007D01*
X117892603Y-112513497D01*
X117892603Y-112513502D01*
X117913983Y-112620992D01*
X117974875Y-112712124D01*
X118065620Y-112772758D01*
X118086456Y-112803941D01*
X118079139Y-112840723D01*
X118065620Y-112854242D01*
X117974875Y-112914875D01*
X117913983Y-113006007D01*
X117892603Y-113113497D01*
X117892603Y-113113502D01*
X117913983Y-113220992D01*
X117974875Y-113312124D01*
X118065620Y-113372758D01*
X118086456Y-113403941D01*
X118079139Y-113440723D01*
X118065620Y-113454242D01*
X117974875Y-113514875D01*
X117913983Y-113606007D01*
X117892603Y-113713497D01*
X117892603Y-113713502D01*
X117913983Y-113820992D01*
X117974875Y-113912124D01*
X118065620Y-113972758D01*
X118086456Y-114003941D01*
X118079139Y-114040723D01*
X118065620Y-114054242D01*
X117974875Y-114114875D01*
X117913983Y-114206007D01*
X117892603Y-114313497D01*
X117892603Y-114313502D01*
X117913983Y-114420992D01*
X117974875Y-114512124D01*
X118065620Y-114572758D01*
X118086456Y-114603941D01*
X118079139Y-114640723D01*
X118065620Y-114654242D01*
X117974875Y-114714875D01*
X117913983Y-114806007D01*
X117892603Y-114913497D01*
X117892603Y-114913502D01*
X117913983Y-115020992D01*
X117974875Y-115112124D01*
X118035491Y-115152626D01*
X118066005Y-115173015D01*
X118066007Y-115173016D01*
X118173497Y-115194397D01*
X118173500Y-115194397D01*
X118173503Y-115194397D01*
X118280992Y-115173016D01*
X118280992Y-115173015D01*
X118280995Y-115173015D01*
X118372124Y-115112124D01*
X118432758Y-115021378D01*
X118463940Y-115000544D01*
X118500723Y-115007860D01*
X118514242Y-115021379D01*
X118574875Y-115112124D01*
X118635491Y-115152626D01*
X118666005Y-115173015D01*
X118666007Y-115173016D01*
X118773497Y-115194397D01*
X118773500Y-115194397D01*
X118773503Y-115194397D01*
X118880992Y-115173016D01*
X118880992Y-115173015D01*
X118880995Y-115173015D01*
X118972124Y-115112124D01*
X119032758Y-115021378D01*
X119063940Y-115000544D01*
X119100723Y-115007860D01*
X119114242Y-115021379D01*
X119174875Y-115112124D01*
X119235491Y-115152626D01*
X119266005Y-115173015D01*
X119266007Y-115173016D01*
X119373497Y-115194397D01*
X119373500Y-115194397D01*
X119373503Y-115194397D01*
X119480992Y-115173016D01*
X119480992Y-115173015D01*
X119480995Y-115173015D01*
X119572124Y-115112124D01*
X119632758Y-115021378D01*
X119663940Y-115000544D01*
X119700723Y-115007860D01*
X119714242Y-115021379D01*
X119774875Y-115112124D01*
X119835491Y-115152626D01*
X119866005Y-115173015D01*
X119866007Y-115173016D01*
X119973497Y-115194397D01*
X119973500Y-115194397D01*
X119973503Y-115194397D01*
X120080992Y-115173016D01*
X120080992Y-115173015D01*
X120080995Y-115173015D01*
X120172124Y-115112124D01*
X120233015Y-115020995D01*
X120234011Y-115015991D01*
X120254397Y-114913502D01*
X120254397Y-114913497D01*
X120233016Y-114806007D01*
X120232757Y-114805620D01*
X120212626Y-114775491D01*
X120172124Y-114714875D01*
X120149857Y-114699997D01*
X179689103Y-114699997D01*
X179689103Y-114700002D01*
X179710483Y-114807492D01*
X179771375Y-114898624D01*
X179831991Y-114939126D01*
X179862505Y-114959515D01*
X179862507Y-114959516D01*
X179969997Y-114980897D01*
X179970000Y-114980897D01*
X179970003Y-114980897D01*
X180077492Y-114959516D01*
X180077492Y-114959515D01*
X180077495Y-114959515D01*
X180168624Y-114898624D01*
X180229515Y-114807495D01*
X180229812Y-114806005D01*
X180250897Y-114700002D01*
X180250897Y-114699997D01*
X180229516Y-114592507D01*
X180226921Y-114588624D01*
X180175806Y-114512124D01*
X180168624Y-114501375D01*
X180077492Y-114440483D01*
X179970003Y-114419103D01*
X179969997Y-114419103D01*
X179862507Y-114440483D01*
X179771375Y-114501375D01*
X179710483Y-114592507D01*
X179689103Y-114699997D01*
X120149857Y-114699997D01*
X120106305Y-114670897D01*
X120081378Y-114654241D01*
X120060544Y-114623060D01*
X120067860Y-114586277D01*
X120081377Y-114572759D01*
X120172124Y-114512124D01*
X120232758Y-114421378D01*
X120263940Y-114400544D01*
X120300723Y-114407860D01*
X120314242Y-114421379D01*
X120374875Y-114512124D01*
X120427807Y-114547492D01*
X120466005Y-114573015D01*
X120466007Y-114573016D01*
X120573497Y-114594397D01*
X120573500Y-114594397D01*
X120573503Y-114594397D01*
X120680992Y-114573016D01*
X120680992Y-114573015D01*
X120680995Y-114573015D01*
X120772124Y-114512124D01*
X120833015Y-114420995D01*
X120833392Y-114419103D01*
X120854397Y-114313502D01*
X120854397Y-114313497D01*
X120833016Y-114206007D01*
X120832757Y-114205620D01*
X120782554Y-114130485D01*
X120772124Y-114114875D01*
X120693746Y-114062505D01*
X120681378Y-114054241D01*
X120660544Y-114023060D01*
X120667860Y-113986277D01*
X120681377Y-113972759D01*
X120772124Y-113912124D01*
X120833015Y-113820995D01*
X120838836Y-113791735D01*
X120854397Y-113713502D01*
X120854397Y-113713497D01*
X120833016Y-113606007D01*
X120832757Y-113605620D01*
X120796512Y-113551375D01*
X120772124Y-113514875D01*
X120691107Y-113460742D01*
X120681378Y-113454241D01*
X120660544Y-113423060D01*
X120667860Y-113386277D01*
X120681377Y-113372759D01*
X120772124Y-113312124D01*
X120833015Y-113220995D01*
X120838128Y-113195293D01*
X120854397Y-113113502D01*
X120854397Y-113113497D01*
X120833016Y-113006007D01*
X120832757Y-113005620D01*
X120775548Y-112920000D01*
X120772124Y-112914875D01*
X120702905Y-112868625D01*
X120681378Y-112854241D01*
X120660544Y-112823060D01*
X120667860Y-112786277D01*
X120681377Y-112772759D01*
X120772124Y-112712124D01*
X120833015Y-112620995D01*
X120836693Y-112602507D01*
X120854397Y-112513502D01*
X120854397Y-112513497D01*
X120833016Y-112406007D01*
X120832757Y-112405620D01*
X120803194Y-112361375D01*
X120772124Y-112314875D01*
X120744985Y-112296742D01*
X120724150Y-112265560D01*
X120731466Y-112228777D01*
X120744985Y-112215258D01*
X120772124Y-112197124D01*
X120776886Y-112189997D01*
X120833015Y-112105995D01*
X120837688Y-112082505D01*
X120854397Y-111998502D01*
X120854397Y-111998497D01*
X120833016Y-111891007D01*
X120832757Y-111890620D01*
X120777213Y-111807492D01*
X120772124Y-111799875D01*
X120708087Y-111757088D01*
X120681378Y-111739241D01*
X120660544Y-111708060D01*
X120667860Y-111671277D01*
X120681377Y-111657759D01*
X120772124Y-111597124D01*
X120833015Y-111505995D01*
X120836019Y-111490897D01*
X120854397Y-111398502D01*
X120854397Y-111398497D01*
X120833016Y-111291007D01*
X120832757Y-111290620D01*
X120812626Y-111260491D01*
X120772124Y-111199875D01*
X120708087Y-111157088D01*
X120681378Y-111139241D01*
X120660544Y-111108060D01*
X120667860Y-111071277D01*
X120681377Y-111057759D01*
X120772124Y-110997124D01*
X120833015Y-110905995D01*
X120838334Y-110879258D01*
X120854397Y-110798502D01*
X120854397Y-110798497D01*
X120833016Y-110691007D01*
X120832757Y-110690620D01*
X120792254Y-110630002D01*
X120772124Y-110599875D01*
X120694882Y-110548264D01*
X120681378Y-110539241D01*
X120660544Y-110508060D01*
X120667860Y-110471277D01*
X120681377Y-110457759D01*
X120772124Y-110397124D01*
X120833015Y-110305995D01*
X120835852Y-110291735D01*
X120854397Y-110198502D01*
X120854397Y-110198497D01*
X120833016Y-110091007D01*
X120832757Y-110090620D01*
X120791653Y-110029103D01*
X120772124Y-109999875D01*
X120708087Y-109957088D01*
X120681378Y-109939241D01*
X120660544Y-109908060D01*
X120667860Y-109871277D01*
X120681377Y-109857759D01*
X120772124Y-109797124D01*
X120833015Y-109705995D01*
X120836197Y-109690002D01*
X120840176Y-109670000D01*
X121074540Y-109670000D01*
X121094326Y-109858256D01*
X121152821Y-110038284D01*
X121183261Y-110091007D01*
X121245321Y-110198500D01*
X121247467Y-110202216D01*
X121247729Y-110202507D01*
X121374124Y-110342884D01*
X121374127Y-110342886D01*
X121374129Y-110342888D01*
X121527270Y-110454151D01*
X121700197Y-110531144D01*
X121885354Y-110570500D01*
X122074646Y-110570500D01*
X122259803Y-110531144D01*
X122432730Y-110454151D01*
X122585871Y-110342888D01*
X122712533Y-110202216D01*
X122807179Y-110038284D01*
X122865674Y-109858256D01*
X122885460Y-109670000D01*
X122865674Y-109481744D01*
X122807179Y-109301716D01*
X122712533Y-109137784D01*
X122665496Y-109085544D01*
X122585875Y-108997115D01*
X122585872Y-108997113D01*
X122577317Y-108990897D01*
X122432730Y-108885849D01*
X122259803Y-108808856D01*
X122259800Y-108808855D01*
X122259796Y-108808854D01*
X122074646Y-108769500D01*
X121885354Y-108769500D01*
X121700203Y-108808854D01*
X121700194Y-108808857D01*
X121569809Y-108866909D01*
X121542074Y-108879258D01*
X121527268Y-108885850D01*
X121374127Y-108997113D01*
X121374124Y-108997115D01*
X121247470Y-109137780D01*
X121247464Y-109137788D01*
X121152823Y-109301712D01*
X121152821Y-109301715D01*
X121094446Y-109481376D01*
X121094326Y-109481744D01*
X121074540Y-109670000D01*
X120840176Y-109670000D01*
X120854397Y-109598502D01*
X120854397Y-109598497D01*
X120833016Y-109491007D01*
X120832757Y-109490620D01*
X120812621Y-109460483D01*
X120772124Y-109399875D01*
X120708087Y-109357088D01*
X120681378Y-109339241D01*
X120660544Y-109308060D01*
X120667860Y-109271277D01*
X120681377Y-109257759D01*
X120772124Y-109197124D01*
X120833015Y-109105995D01*
X120841666Y-109062507D01*
X120854397Y-108998502D01*
X120854397Y-108998497D01*
X120833016Y-108891007D01*
X120832757Y-108890620D01*
X120783895Y-108817492D01*
X120772124Y-108799875D01*
X120680992Y-108738983D01*
X120573503Y-108717603D01*
X120573497Y-108717603D01*
X120466007Y-108738983D01*
X120374875Y-108799875D01*
X120314242Y-108890620D01*
X120283059Y-108911456D01*
X120246277Y-108904139D01*
X120232758Y-108890620D01*
X120172124Y-108799875D01*
X120080992Y-108738983D01*
X119973503Y-108717603D01*
X119973497Y-108717603D01*
X119866007Y-108738983D01*
X119774875Y-108799875D01*
X119714242Y-108890620D01*
X119683059Y-108911456D01*
X119646277Y-108904139D01*
X119632758Y-108890620D01*
X119572124Y-108799875D01*
X119480992Y-108738983D01*
X119373503Y-108717603D01*
X119373497Y-108717603D01*
X119266007Y-108738983D01*
X119174875Y-108799875D01*
X119114242Y-108890620D01*
X119083059Y-108911456D01*
X119046277Y-108904139D01*
X119032758Y-108890620D01*
X118972124Y-108799875D01*
X118880992Y-108738983D01*
X118773503Y-108717603D01*
X118773497Y-108717603D01*
X118666007Y-108738983D01*
X118574875Y-108799875D01*
X118514242Y-108890620D01*
X118483059Y-108911456D01*
X118446277Y-108904139D01*
X118432758Y-108890620D01*
X118372124Y-108799875D01*
X118280992Y-108738983D01*
X118173503Y-108717603D01*
X118173497Y-108717603D01*
X118066007Y-108738983D01*
X117974875Y-108799875D01*
X117913983Y-108891007D01*
X117892603Y-108998497D01*
X114880500Y-108998497D01*
X114880500Y-108669997D01*
X131109103Y-108669997D01*
X131109103Y-108670002D01*
X131130483Y-108777492D01*
X131191375Y-108868624D01*
X131207290Y-108879258D01*
X131228126Y-108910441D01*
X131220809Y-108947223D01*
X131207290Y-108960742D01*
X131191375Y-108971375D01*
X131130483Y-109062507D01*
X131109103Y-109169997D01*
X131109103Y-109170002D01*
X131130483Y-109277492D01*
X131191375Y-109368624D01*
X131207290Y-109379258D01*
X131228126Y-109410441D01*
X131220809Y-109447223D01*
X131207290Y-109460742D01*
X131191375Y-109471375D01*
X131130483Y-109562507D01*
X131109103Y-109669997D01*
X131109103Y-109670002D01*
X131130483Y-109777492D01*
X131191375Y-109868624D01*
X131207290Y-109879258D01*
X131228126Y-109910441D01*
X131220809Y-109947223D01*
X131207290Y-109960742D01*
X131191375Y-109971375D01*
X131130483Y-110062507D01*
X131109103Y-110169997D01*
X131109103Y-110170002D01*
X131130483Y-110277492D01*
X131191375Y-110368624D01*
X131207290Y-110379258D01*
X131228126Y-110410441D01*
X131220809Y-110447223D01*
X131207290Y-110460742D01*
X131191375Y-110471375D01*
X131130483Y-110562507D01*
X131109103Y-110669997D01*
X131109103Y-110670002D01*
X131130483Y-110777492D01*
X131191375Y-110868624D01*
X131207290Y-110879258D01*
X131228126Y-110910441D01*
X131220809Y-110947223D01*
X131207290Y-110960742D01*
X131191375Y-110971375D01*
X131130483Y-111062507D01*
X131109103Y-111169997D01*
X131109103Y-111170002D01*
X131130483Y-111277492D01*
X131191375Y-111368624D01*
X131207290Y-111379258D01*
X131228126Y-111410441D01*
X131220809Y-111447223D01*
X131207290Y-111460742D01*
X131191375Y-111471375D01*
X131130483Y-111562507D01*
X131109103Y-111669997D01*
X131109103Y-111670002D01*
X131130483Y-111777492D01*
X131191375Y-111868624D01*
X131207290Y-111879258D01*
X131228126Y-111910441D01*
X131220809Y-111947223D01*
X131207290Y-111960742D01*
X131191375Y-111971375D01*
X131130483Y-112062507D01*
X131109103Y-112169997D01*
X131109103Y-112170002D01*
X131130483Y-112277492D01*
X131191375Y-112368624D01*
X131207290Y-112379258D01*
X131228126Y-112410441D01*
X131220809Y-112447223D01*
X131207290Y-112460742D01*
X131191375Y-112471375D01*
X131130483Y-112562507D01*
X131109103Y-112669997D01*
X131109103Y-112670002D01*
X131130483Y-112777492D01*
X131191375Y-112868624D01*
X131207290Y-112879258D01*
X131228126Y-112910441D01*
X131220809Y-112947223D01*
X131207290Y-112960742D01*
X131191375Y-112971375D01*
X131130483Y-113062507D01*
X131109103Y-113169997D01*
X131109103Y-113170002D01*
X131130483Y-113277492D01*
X131191375Y-113368624D01*
X131244231Y-113403941D01*
X131282505Y-113429515D01*
X131282507Y-113429516D01*
X131389997Y-113450897D01*
X131390000Y-113450897D01*
X131390003Y-113450897D01*
X131497492Y-113429516D01*
X131497492Y-113429515D01*
X131497495Y-113429515D01*
X131588624Y-113368624D01*
X131588625Y-113368623D01*
X131599258Y-113352710D01*
X131630440Y-113331874D01*
X131667222Y-113339190D01*
X131680742Y-113352710D01*
X131691374Y-113368623D01*
X131707290Y-113379258D01*
X131728126Y-113410441D01*
X131720809Y-113447223D01*
X131707290Y-113460742D01*
X131691375Y-113471375D01*
X131630483Y-113562507D01*
X131609103Y-113669997D01*
X131609103Y-113670002D01*
X131630483Y-113777492D01*
X131691375Y-113868624D01*
X131751991Y-113909126D01*
X131782505Y-113929515D01*
X131782507Y-113929516D01*
X131889997Y-113950897D01*
X131890000Y-113950897D01*
X131890003Y-113950897D01*
X131997492Y-113929516D01*
X131997492Y-113929515D01*
X131997495Y-113929515D01*
X132088624Y-113868624D01*
X132088625Y-113868623D01*
X132099258Y-113852710D01*
X132130440Y-113831874D01*
X132167222Y-113839190D01*
X132180742Y-113852710D01*
X132191374Y-113868623D01*
X132207290Y-113879258D01*
X132228126Y-113910441D01*
X132220809Y-113947223D01*
X132207290Y-113960742D01*
X132191375Y-113971375D01*
X132130483Y-114062507D01*
X132109103Y-114169997D01*
X132109103Y-114170002D01*
X132130483Y-114277492D01*
X132191375Y-114368624D01*
X132223367Y-114390000D01*
X132282505Y-114429515D01*
X132282507Y-114429516D01*
X132389997Y-114450897D01*
X132390000Y-114450897D01*
X132390003Y-114450897D01*
X132497492Y-114429516D01*
X132497492Y-114429515D01*
X132497495Y-114429515D01*
X132588624Y-114368624D01*
X132588625Y-114368623D01*
X132599258Y-114352710D01*
X132630440Y-114331874D01*
X132667222Y-114339190D01*
X132680742Y-114352710D01*
X132691374Y-114368623D01*
X132723363Y-114389997D01*
X132782505Y-114429515D01*
X132782507Y-114429516D01*
X132889997Y-114450897D01*
X132890000Y-114450897D01*
X132890003Y-114450897D01*
X132997492Y-114429516D01*
X132997492Y-114429515D01*
X132997495Y-114429515D01*
X133088624Y-114368624D01*
X133088625Y-114368623D01*
X133099258Y-114352710D01*
X133130440Y-114331874D01*
X133167222Y-114339190D01*
X133180742Y-114352710D01*
X133191374Y-114368623D01*
X133223363Y-114389997D01*
X133282505Y-114429515D01*
X133282507Y-114429516D01*
X133389997Y-114450897D01*
X133390000Y-114450897D01*
X133390003Y-114450897D01*
X133497492Y-114429516D01*
X133497492Y-114429515D01*
X133497495Y-114429515D01*
X133588624Y-114368624D01*
X133588625Y-114368623D01*
X133599258Y-114352710D01*
X133630440Y-114331874D01*
X133667222Y-114339190D01*
X133680742Y-114352710D01*
X133691374Y-114368623D01*
X133723363Y-114389997D01*
X133782505Y-114429515D01*
X133782507Y-114429516D01*
X133889997Y-114450897D01*
X133890000Y-114450897D01*
X133890003Y-114450897D01*
X133997492Y-114429516D01*
X133997492Y-114429515D01*
X133997495Y-114429515D01*
X134088624Y-114368624D01*
X134149515Y-114277495D01*
X134156700Y-114241376D01*
X134162942Y-114209997D01*
X182409103Y-114209997D01*
X182409103Y-114210002D01*
X182430483Y-114317492D01*
X182491375Y-114408624D01*
X182538333Y-114440000D01*
X182582505Y-114469515D01*
X182582507Y-114469516D01*
X182689997Y-114490897D01*
X182690000Y-114490897D01*
X182690003Y-114490897D01*
X182797492Y-114469516D01*
X182797492Y-114469515D01*
X182797495Y-114469515D01*
X182841671Y-114439997D01*
X189909103Y-114439997D01*
X189909103Y-114440002D01*
X189930483Y-114547492D01*
X189991375Y-114638624D01*
X190051991Y-114679126D01*
X190082505Y-114699515D01*
X190082507Y-114699516D01*
X190189997Y-114720897D01*
X190190000Y-114720897D01*
X190190003Y-114720897D01*
X190297492Y-114699516D01*
X190297492Y-114699515D01*
X190297495Y-114699515D01*
X190388624Y-114638624D01*
X190449515Y-114547495D01*
X190459462Y-114497492D01*
X190470897Y-114440002D01*
X190470897Y-114439997D01*
X190460951Y-114389997D01*
X195299103Y-114389997D01*
X195299103Y-114390002D01*
X195320483Y-114497492D01*
X195381375Y-114588624D01*
X195404299Y-114603941D01*
X195472505Y-114649515D01*
X195472507Y-114649516D01*
X195579997Y-114670897D01*
X195580000Y-114670897D01*
X195580003Y-114670897D01*
X195687492Y-114649516D01*
X195687492Y-114649515D01*
X195687495Y-114649515D01*
X195778624Y-114588624D01*
X195839515Y-114497495D01*
X195840828Y-114490897D01*
X195860897Y-114390002D01*
X195860897Y-114389997D01*
X195839516Y-114282507D01*
X195778624Y-114191375D01*
X195687492Y-114130483D01*
X195580003Y-114109103D01*
X195579997Y-114109103D01*
X195472507Y-114130483D01*
X195381375Y-114191375D01*
X195320483Y-114282507D01*
X195299103Y-114389997D01*
X190460951Y-114389997D01*
X190449516Y-114332507D01*
X190439485Y-114317495D01*
X190412756Y-114277492D01*
X190388624Y-114241375D01*
X190297492Y-114180483D01*
X190190003Y-114159103D01*
X190189997Y-114159103D01*
X190082507Y-114180483D01*
X189991375Y-114241375D01*
X189930483Y-114332507D01*
X189909103Y-114439997D01*
X182841671Y-114439997D01*
X182888624Y-114408624D01*
X182949515Y-114317495D01*
X182950310Y-114313502D01*
X182970897Y-114210002D01*
X182970897Y-114209997D01*
X182949516Y-114102507D01*
X182888624Y-114011375D01*
X182797492Y-113950483D01*
X182690003Y-113929103D01*
X182689997Y-113929103D01*
X182582507Y-113950483D01*
X182491375Y-114011375D01*
X182430483Y-114102507D01*
X182409103Y-114209997D01*
X134162942Y-114209997D01*
X134170897Y-114170002D01*
X134170897Y-114169997D01*
X134149516Y-114062507D01*
X134134960Y-114040723D01*
X134114108Y-114009515D01*
X134088623Y-113971374D01*
X134072710Y-113960742D01*
X134051874Y-113929560D01*
X134059190Y-113892778D01*
X134072710Y-113879258D01*
X134088623Y-113868625D01*
X134088624Y-113868624D01*
X134149515Y-113777495D01*
X134154985Y-113749997D01*
X191854103Y-113749997D01*
X191854103Y-113750002D01*
X191875483Y-113857492D01*
X191936375Y-113948624D01*
X191972879Y-113973015D01*
X192027505Y-114009515D01*
X192027507Y-114009516D01*
X192134997Y-114030897D01*
X192135000Y-114030897D01*
X192135003Y-114030897D01*
X192242492Y-114009516D01*
X192242492Y-114009515D01*
X192242495Y-114009515D01*
X192333624Y-113948624D01*
X192394515Y-113857495D01*
X192399612Y-113831874D01*
X192415897Y-113750002D01*
X192415897Y-113749997D01*
X192394516Y-113642507D01*
X192333624Y-113551375D01*
X192242492Y-113490483D01*
X192135003Y-113469103D01*
X192134997Y-113469103D01*
X192027507Y-113490483D01*
X191936375Y-113551375D01*
X191875483Y-113642507D01*
X191854103Y-113749997D01*
X134154985Y-113749997D01*
X134157828Y-113735707D01*
X134170897Y-113670002D01*
X134170897Y-113669997D01*
X134149516Y-113562507D01*
X134088623Y-113471374D01*
X134072710Y-113460742D01*
X134068744Y-113454807D01*
X189264293Y-113454807D01*
X189264293Y-113454812D01*
X189285673Y-113562302D01*
X189346565Y-113653434D01*
X189407181Y-113693936D01*
X189437695Y-113714325D01*
X189437697Y-113714326D01*
X189545187Y-113735707D01*
X189545190Y-113735707D01*
X189545193Y-113735707D01*
X189652682Y-113714326D01*
X189652682Y-113714325D01*
X189652685Y-113714325D01*
X189743814Y-113653434D01*
X189804705Y-113562305D01*
X189806880Y-113551375D01*
X189826087Y-113454812D01*
X189826087Y-113454807D01*
X189804706Y-113347317D01*
X189794387Y-113331874D01*
X189781191Y-113312124D01*
X189743814Y-113256185D01*
X189652682Y-113195293D01*
X189545193Y-113173913D01*
X189545187Y-113173913D01*
X189437697Y-113195293D01*
X189346565Y-113256185D01*
X189285673Y-113347317D01*
X189264293Y-113454807D01*
X134068744Y-113454807D01*
X134051874Y-113429560D01*
X134059190Y-113392778D01*
X134072710Y-113379258D01*
X134088623Y-113368625D01*
X134088624Y-113368624D01*
X134149515Y-113277495D01*
X134160678Y-113221379D01*
X134170897Y-113170002D01*
X134170897Y-113169997D01*
X134149516Y-113062507D01*
X134120538Y-113019139D01*
X134088624Y-112971376D01*
X134088623Y-112971374D01*
X134072710Y-112960742D01*
X134051874Y-112929560D01*
X134059190Y-112892778D01*
X134072710Y-112879258D01*
X134088623Y-112868625D01*
X134088624Y-112868624D01*
X134149515Y-112777495D01*
X134150407Y-112773015D01*
X134162942Y-112709997D01*
X182409103Y-112709997D01*
X182409103Y-112710002D01*
X182430483Y-112817492D01*
X182491375Y-112908624D01*
X182549143Y-112947223D01*
X182582505Y-112969515D01*
X182582507Y-112969516D01*
X182689997Y-112990897D01*
X182690000Y-112990897D01*
X182690003Y-112990897D01*
X182797492Y-112969516D01*
X182797492Y-112969515D01*
X182797495Y-112969515D01*
X182888624Y-112908624D01*
X182949515Y-112817495D01*
X182954110Y-112794397D01*
X182970897Y-112710002D01*
X182970897Y-112709997D01*
X182949516Y-112602507D01*
X182948204Y-112600544D01*
X182921112Y-112559997D01*
X191479103Y-112559997D01*
X191479103Y-112560002D01*
X191500483Y-112667492D01*
X191561375Y-112758624D01*
X191621991Y-112799126D01*
X191652505Y-112819515D01*
X191652507Y-112819516D01*
X191759997Y-112840897D01*
X191760000Y-112840897D01*
X191760003Y-112840897D01*
X191867492Y-112819516D01*
X191867492Y-112819515D01*
X191867495Y-112819515D01*
X191958624Y-112758624D01*
X192019515Y-112667495D01*
X192028765Y-112620995D01*
X192040897Y-112560002D01*
X192040897Y-112559997D01*
X192019516Y-112452507D01*
X192017517Y-112449516D01*
X191997220Y-112419139D01*
X191958624Y-112361375D01*
X191867492Y-112300483D01*
X191760003Y-112279103D01*
X191759997Y-112279103D01*
X191652507Y-112300483D01*
X191561375Y-112361375D01*
X191500483Y-112452507D01*
X191479103Y-112559997D01*
X182921112Y-112559997D01*
X182890045Y-112513502D01*
X182888624Y-112511375D01*
X182797492Y-112450483D01*
X182690003Y-112429103D01*
X182689997Y-112429103D01*
X182582507Y-112450483D01*
X182491375Y-112511375D01*
X182430483Y-112602507D01*
X182409103Y-112709997D01*
X134162942Y-112709997D01*
X134170897Y-112670002D01*
X134170897Y-112669997D01*
X134149516Y-112562507D01*
X134147842Y-112560002D01*
X134088624Y-112471376D01*
X134088623Y-112471374D01*
X134072710Y-112460742D01*
X134051874Y-112429560D01*
X134059190Y-112392778D01*
X134072710Y-112379258D01*
X134088623Y-112368625D01*
X134093467Y-112361376D01*
X134149515Y-112277495D01*
X134166919Y-112190002D01*
X134166920Y-112189997D01*
X179709103Y-112189997D01*
X179709103Y-112190002D01*
X179730483Y-112297492D01*
X179791375Y-112388624D01*
X179838333Y-112420000D01*
X179882505Y-112449515D01*
X179882507Y-112449516D01*
X179989997Y-112470897D01*
X179990000Y-112470897D01*
X179990003Y-112470897D01*
X180097492Y-112449516D01*
X180097492Y-112449515D01*
X180097495Y-112449515D01*
X180188624Y-112388624D01*
X180249515Y-112297495D01*
X180253174Y-112279103D01*
X180270897Y-112190002D01*
X180270897Y-112189997D01*
X180249516Y-112082507D01*
X180188624Y-111991375D01*
X180097492Y-111930483D01*
X179990003Y-111909103D01*
X179989997Y-111909103D01*
X179882507Y-111930483D01*
X179791375Y-111991375D01*
X179730483Y-112082507D01*
X179709103Y-112189997D01*
X134166920Y-112189997D01*
X134170897Y-112170002D01*
X134170897Y-112169997D01*
X134149516Y-112062507D01*
X134088623Y-111971374D01*
X134072710Y-111960742D01*
X134051874Y-111929560D01*
X134059190Y-111892778D01*
X134072710Y-111879258D01*
X134088623Y-111868625D01*
X134088624Y-111868624D01*
X134149515Y-111777495D01*
X134153494Y-111757495D01*
X134164931Y-111699997D01*
X182399103Y-111699997D01*
X182399103Y-111700002D01*
X182420483Y-111807492D01*
X182481375Y-111898624D01*
X182541991Y-111939126D01*
X182572505Y-111959515D01*
X182572507Y-111959516D01*
X182679997Y-111980897D01*
X182680000Y-111980897D01*
X182680003Y-111980897D01*
X182787492Y-111959516D01*
X182787492Y-111959515D01*
X182787495Y-111959515D01*
X182878624Y-111898624D01*
X182939515Y-111807495D01*
X182945483Y-111777495D01*
X182960897Y-111700002D01*
X182960897Y-111699997D01*
X182950951Y-111649997D01*
X190139103Y-111649997D01*
X190139103Y-111650002D01*
X190160483Y-111757492D01*
X190221375Y-111848624D01*
X190281991Y-111889126D01*
X190312505Y-111909515D01*
X190312507Y-111909516D01*
X190419997Y-111930897D01*
X190420000Y-111930897D01*
X190420003Y-111930897D01*
X190527492Y-111909516D01*
X190527492Y-111909515D01*
X190527495Y-111909515D01*
X190618624Y-111848624D01*
X190679515Y-111757495D01*
X190689349Y-111708060D01*
X190700897Y-111650002D01*
X190700897Y-111649997D01*
X190679516Y-111542507D01*
X190618624Y-111451375D01*
X190527492Y-111390483D01*
X190420003Y-111369103D01*
X190419997Y-111369103D01*
X190312507Y-111390483D01*
X190221375Y-111451375D01*
X190160483Y-111542507D01*
X190139103Y-111649997D01*
X182950951Y-111649997D01*
X182939516Y-111592507D01*
X182878624Y-111501375D01*
X182787492Y-111440483D01*
X182680003Y-111419103D01*
X182679997Y-111419103D01*
X182572507Y-111440483D01*
X182481375Y-111501375D01*
X182420483Y-111592507D01*
X182399103Y-111699997D01*
X134164931Y-111699997D01*
X134170897Y-111670002D01*
X134170897Y-111669997D01*
X134149516Y-111562507D01*
X134136152Y-111542507D01*
X134119069Y-111516940D01*
X134088623Y-111471374D01*
X134072710Y-111460742D01*
X134051874Y-111429560D01*
X134059190Y-111392778D01*
X134072710Y-111379258D01*
X134088623Y-111368625D01*
X134088624Y-111368624D01*
X134149515Y-111277495D01*
X134162941Y-111210002D01*
X134162942Y-111209997D01*
X179709103Y-111209997D01*
X179709103Y-111210002D01*
X179730483Y-111317492D01*
X179791375Y-111408624D01*
X179839056Y-111440483D01*
X179882505Y-111469515D01*
X179882507Y-111469516D01*
X179989997Y-111490897D01*
X179990000Y-111490897D01*
X179990003Y-111490897D01*
X180097492Y-111469516D01*
X180097492Y-111469515D01*
X180097495Y-111469515D01*
X180188624Y-111408624D01*
X180249515Y-111317495D01*
X180250717Y-111311456D01*
X180270897Y-111210002D01*
X180270897Y-111209997D01*
X180249516Y-111102507D01*
X180188624Y-111011375D01*
X180097492Y-110950483D01*
X179990003Y-110929103D01*
X179989997Y-110929103D01*
X179882507Y-110950483D01*
X179791375Y-111011375D01*
X179730483Y-111102507D01*
X179709103Y-111209997D01*
X134162942Y-111209997D01*
X134170897Y-111170002D01*
X134170897Y-111169997D01*
X134149516Y-111062507D01*
X134088623Y-110971374D01*
X134072710Y-110960742D01*
X134051874Y-110929560D01*
X134059190Y-110892778D01*
X134072710Y-110879258D01*
X134088623Y-110868625D01*
X134115351Y-110828624D01*
X134149515Y-110777495D01*
X134157472Y-110737495D01*
X134160953Y-110719997D01*
X182369103Y-110719997D01*
X182369103Y-110720002D01*
X182390483Y-110827492D01*
X182451375Y-110918624D01*
X182494177Y-110947223D01*
X182542505Y-110979515D01*
X182542507Y-110979516D01*
X182649997Y-111000897D01*
X182650000Y-111000897D01*
X182650003Y-111000897D01*
X182757492Y-110979516D01*
X182757492Y-110979515D01*
X182757495Y-110979515D01*
X182848624Y-110918624D01*
X182909515Y-110827495D01*
X182915283Y-110798500D01*
X182930897Y-110720002D01*
X182930897Y-110719997D01*
X182912995Y-110629997D01*
X190759103Y-110629997D01*
X190759103Y-110630002D01*
X190780483Y-110737492D01*
X190841375Y-110828624D01*
X190901240Y-110868624D01*
X190932505Y-110889515D01*
X190932507Y-110889516D01*
X191039997Y-110910897D01*
X191040000Y-110910897D01*
X191040003Y-110910897D01*
X191147492Y-110889516D01*
X191147492Y-110889515D01*
X191147495Y-110889515D01*
X191238624Y-110828624D01*
X191299515Y-110737495D01*
X191304695Y-110711456D01*
X191320897Y-110630002D01*
X191320897Y-110629997D01*
X191299516Y-110522507D01*
X191298760Y-110521376D01*
X191270711Y-110479397D01*
X191238624Y-110431375D01*
X191147492Y-110370483D01*
X191040003Y-110349103D01*
X191039997Y-110349103D01*
X190932507Y-110370483D01*
X190841375Y-110431375D01*
X190780483Y-110522507D01*
X190759103Y-110629997D01*
X182912995Y-110629997D01*
X182909516Y-110612507D01*
X182848624Y-110521375D01*
X182757492Y-110460483D01*
X182650003Y-110439103D01*
X182649997Y-110439103D01*
X182542507Y-110460483D01*
X182451375Y-110521375D01*
X182390483Y-110612507D01*
X182369103Y-110719997D01*
X134160953Y-110719997D01*
X134170897Y-110670002D01*
X134170897Y-110669997D01*
X134149516Y-110562507D01*
X134088623Y-110471374D01*
X134072710Y-110460742D01*
X134051874Y-110429560D01*
X134059190Y-110392778D01*
X134063574Y-110388394D01*
X179616957Y-110388394D01*
X179616957Y-110388399D01*
X179638337Y-110495889D01*
X179699229Y-110587021D01*
X179737369Y-110612505D01*
X179790359Y-110647912D01*
X179790361Y-110647913D01*
X179897851Y-110669294D01*
X179897854Y-110669294D01*
X179897857Y-110669294D01*
X180005346Y-110647913D01*
X180005346Y-110647912D01*
X180005349Y-110647912D01*
X180096478Y-110587021D01*
X180157369Y-110495892D01*
X180162266Y-110471277D01*
X180178751Y-110388399D01*
X180178751Y-110388394D01*
X180163157Y-110309997D01*
X189049103Y-110309997D01*
X189049103Y-110310002D01*
X189070483Y-110417492D01*
X189131375Y-110508624D01*
X189190701Y-110548264D01*
X189222505Y-110569515D01*
X189222507Y-110569516D01*
X189329997Y-110590897D01*
X189330000Y-110590897D01*
X189330003Y-110590897D01*
X189437492Y-110569516D01*
X189437492Y-110569515D01*
X189437495Y-110569515D01*
X189528624Y-110508624D01*
X189589515Y-110417495D01*
X189590919Y-110410441D01*
X189610897Y-110310002D01*
X189610897Y-110309997D01*
X189589516Y-110202507D01*
X189589318Y-110202211D01*
X189567794Y-110169997D01*
X189528624Y-110111375D01*
X189437492Y-110050483D01*
X189330003Y-110029103D01*
X189329997Y-110029103D01*
X189222507Y-110050483D01*
X189131375Y-110111375D01*
X189070483Y-110202507D01*
X189049103Y-110309997D01*
X180163157Y-110309997D01*
X180157370Y-110280904D01*
X180096478Y-110189772D01*
X180005346Y-110128880D01*
X179897857Y-110107500D01*
X179897851Y-110107500D01*
X179790361Y-110128880D01*
X179699229Y-110189772D01*
X179638337Y-110280904D01*
X179616957Y-110388394D01*
X134063574Y-110388394D01*
X134072710Y-110379258D01*
X134088623Y-110368625D01*
X134088624Y-110368624D01*
X134149515Y-110277495D01*
X134164432Y-110202505D01*
X134170897Y-110170002D01*
X134170897Y-110169997D01*
X134149516Y-110062507D01*
X134088623Y-109971374D01*
X134072710Y-109960742D01*
X134051874Y-109929560D01*
X134059190Y-109892778D01*
X134072710Y-109879258D01*
X134088623Y-109868625D01*
X134088624Y-109868624D01*
X134149515Y-109777495D01*
X134160952Y-109720000D01*
X134166920Y-109689997D01*
X182419103Y-109689997D01*
X182419103Y-109690002D01*
X182440483Y-109797492D01*
X182501375Y-109888624D01*
X182546274Y-109918624D01*
X182592505Y-109949515D01*
X182592507Y-109949516D01*
X182699997Y-109970897D01*
X182700000Y-109970897D01*
X182700003Y-109970897D01*
X182807492Y-109949516D01*
X182807492Y-109949515D01*
X182807495Y-109949515D01*
X182898624Y-109888624D01*
X182959515Y-109797495D01*
X182961505Y-109787495D01*
X182980897Y-109690002D01*
X182980897Y-109689997D01*
X182978908Y-109679997D01*
X185909103Y-109679997D01*
X185909103Y-109680002D01*
X185930483Y-109787492D01*
X185991375Y-109878624D01*
X186038993Y-109910441D01*
X186082505Y-109939515D01*
X186082507Y-109939516D01*
X186189997Y-109960897D01*
X186190000Y-109960897D01*
X186190003Y-109960897D01*
X186297492Y-109939516D01*
X186297492Y-109939515D01*
X186297495Y-109939515D01*
X186388624Y-109878624D01*
X186449515Y-109787495D01*
X186451505Y-109777495D01*
X186462942Y-109719997D01*
X190079103Y-109719997D01*
X190079103Y-109720002D01*
X190100483Y-109827492D01*
X190161375Y-109918624D01*
X190221991Y-109959126D01*
X190252505Y-109979515D01*
X190252507Y-109979516D01*
X190359997Y-110000897D01*
X190360000Y-110000897D01*
X190360003Y-110000897D01*
X190467492Y-109979516D01*
X190467492Y-109979515D01*
X190467495Y-109979515D01*
X190558624Y-109918624D01*
X190619515Y-109827495D01*
X190625483Y-109797495D01*
X190640897Y-109720002D01*
X190640897Y-109719997D01*
X190619516Y-109612507D01*
X190558624Y-109521375D01*
X190467492Y-109460483D01*
X190360003Y-109439103D01*
X190359997Y-109439103D01*
X190252507Y-109460483D01*
X190161375Y-109521375D01*
X190100483Y-109612507D01*
X190079103Y-109719997D01*
X186462942Y-109719997D01*
X186470897Y-109680002D01*
X186470897Y-109679997D01*
X186449516Y-109572507D01*
X186433317Y-109548264D01*
X186429126Y-109541991D01*
X186388624Y-109481375D01*
X186297492Y-109420483D01*
X186190003Y-109399103D01*
X186189997Y-109399103D01*
X186082507Y-109420483D01*
X185991375Y-109481375D01*
X185930483Y-109572507D01*
X185909103Y-109679997D01*
X182978908Y-109679997D01*
X182959516Y-109582507D01*
X182898624Y-109491375D01*
X182807492Y-109430483D01*
X182700003Y-109409103D01*
X182699997Y-109409103D01*
X182592507Y-109430483D01*
X182501375Y-109491375D01*
X182440483Y-109582507D01*
X182419103Y-109689997D01*
X134166920Y-109689997D01*
X134170897Y-109670002D01*
X134170897Y-109669997D01*
X134149516Y-109562507D01*
X134088623Y-109471374D01*
X134072710Y-109460742D01*
X134051874Y-109429560D01*
X134059190Y-109392778D01*
X134072710Y-109379258D01*
X134088623Y-109368625D01*
X134088624Y-109368624D01*
X134149515Y-109277495D01*
X134170897Y-109170000D01*
X134170897Y-109169997D01*
X189379103Y-109169997D01*
X189379103Y-109170002D01*
X189400483Y-109277492D01*
X189461375Y-109368624D01*
X189521957Y-109409103D01*
X189552505Y-109429515D01*
X189552507Y-109429516D01*
X189659997Y-109450897D01*
X189660000Y-109450897D01*
X189660003Y-109450897D01*
X189767492Y-109429516D01*
X189767492Y-109429515D01*
X189767495Y-109429515D01*
X189858624Y-109368624D01*
X189919515Y-109277495D01*
X189940897Y-109170000D01*
X189940897Y-109169997D01*
X189919516Y-109062507D01*
X189858624Y-108971375D01*
X189767492Y-108910483D01*
X189660003Y-108889103D01*
X189659997Y-108889103D01*
X189552507Y-108910483D01*
X189461375Y-108971375D01*
X189400483Y-109062507D01*
X189379103Y-109169997D01*
X134170897Y-109169997D01*
X134149516Y-109062507D01*
X134088623Y-108971374D01*
X134072710Y-108960742D01*
X134051874Y-108929560D01*
X134059190Y-108892778D01*
X134072710Y-108879258D01*
X134088623Y-108868625D01*
X134088624Y-108868624D01*
X134149515Y-108777495D01*
X134151106Y-108769500D01*
X134162942Y-108709997D01*
X182369103Y-108709997D01*
X182369103Y-108710002D01*
X182390483Y-108817492D01*
X182451375Y-108908624D01*
X182509143Y-108947223D01*
X182542505Y-108969515D01*
X182542507Y-108969516D01*
X182649997Y-108990897D01*
X182650000Y-108990897D01*
X182650003Y-108990897D01*
X182757492Y-108969516D01*
X182757492Y-108969515D01*
X182757495Y-108969515D01*
X182848624Y-108908624D01*
X182909515Y-108817495D01*
X182911234Y-108808857D01*
X182930897Y-108710002D01*
X182930897Y-108709997D01*
X182909516Y-108602507D01*
X182848624Y-108511375D01*
X182757492Y-108450483D01*
X182650003Y-108429103D01*
X182649997Y-108429103D01*
X182542507Y-108450483D01*
X182451375Y-108511375D01*
X182390483Y-108602507D01*
X182369103Y-108709997D01*
X134162942Y-108709997D01*
X134170897Y-108670002D01*
X134170897Y-108669997D01*
X134149516Y-108562507D01*
X134088624Y-108471375D01*
X133997492Y-108410483D01*
X133890003Y-108389103D01*
X133889997Y-108389103D01*
X133782507Y-108410483D01*
X133691375Y-108471375D01*
X133680742Y-108487290D01*
X133649559Y-108508126D01*
X133612777Y-108500809D01*
X133599258Y-108487290D01*
X133588624Y-108471375D01*
X133497492Y-108410483D01*
X133390003Y-108389103D01*
X133389997Y-108389103D01*
X133282507Y-108410483D01*
X133191375Y-108471375D01*
X133180742Y-108487290D01*
X133149559Y-108508126D01*
X133112777Y-108500809D01*
X133099258Y-108487290D01*
X133088624Y-108471375D01*
X132997492Y-108410483D01*
X132890003Y-108389103D01*
X132889997Y-108389103D01*
X132782507Y-108410483D01*
X132691375Y-108471375D01*
X132680742Y-108487290D01*
X132649559Y-108508126D01*
X132612777Y-108500809D01*
X132599258Y-108487290D01*
X132588624Y-108471375D01*
X132497492Y-108410483D01*
X132390003Y-108389103D01*
X132389997Y-108389103D01*
X132282507Y-108410483D01*
X132191375Y-108471375D01*
X132180742Y-108487290D01*
X132149559Y-108508126D01*
X132112777Y-108500809D01*
X132099258Y-108487290D01*
X132088624Y-108471375D01*
X131997492Y-108410483D01*
X131890003Y-108389103D01*
X131889997Y-108389103D01*
X131782507Y-108410483D01*
X131691375Y-108471375D01*
X131680742Y-108487290D01*
X131649559Y-108508126D01*
X131612777Y-108500809D01*
X131599258Y-108487290D01*
X131588624Y-108471375D01*
X131497492Y-108410483D01*
X131390003Y-108389103D01*
X131389997Y-108389103D01*
X131282507Y-108410483D01*
X131191375Y-108471375D01*
X131130483Y-108562507D01*
X131109103Y-108669997D01*
X114880500Y-108669997D01*
X114880500Y-108179997D01*
X185899103Y-108179997D01*
X185899103Y-108180002D01*
X185920483Y-108287492D01*
X185981375Y-108378624D01*
X186029056Y-108410483D01*
X186072505Y-108439515D01*
X186072507Y-108439516D01*
X186179997Y-108460897D01*
X186180000Y-108460897D01*
X186180003Y-108460897D01*
X186287492Y-108439516D01*
X186287492Y-108439515D01*
X186287495Y-108439515D01*
X186378624Y-108378624D01*
X186439515Y-108287495D01*
X186446974Y-108250000D01*
X186446975Y-108249997D01*
X188819103Y-108249997D01*
X188819103Y-108250002D01*
X188840483Y-108357492D01*
X188901375Y-108448624D01*
X188935425Y-108471375D01*
X188992505Y-108509515D01*
X188992507Y-108509516D01*
X189099997Y-108530897D01*
X189100000Y-108530897D01*
X189100003Y-108530897D01*
X189207492Y-108509516D01*
X189207492Y-108509515D01*
X189207495Y-108509515D01*
X189298624Y-108448624D01*
X189359515Y-108357495D01*
X189373440Y-108287492D01*
X189380897Y-108250002D01*
X189380897Y-108249997D01*
X189359516Y-108142507D01*
X189298624Y-108051375D01*
X189207492Y-107990483D01*
X189100003Y-107969103D01*
X189099997Y-107969103D01*
X188992507Y-107990483D01*
X188901375Y-108051375D01*
X188840483Y-108142507D01*
X188819103Y-108249997D01*
X186446975Y-108249997D01*
X186460897Y-108180002D01*
X186460897Y-108179997D01*
X186439516Y-108072507D01*
X186378624Y-107981375D01*
X186287492Y-107920483D01*
X186180003Y-107899103D01*
X186179997Y-107899103D01*
X186072507Y-107920483D01*
X185981375Y-107981375D01*
X185920483Y-108072507D01*
X185899103Y-108179997D01*
X114880500Y-108179997D01*
X114880500Y-107220134D01*
X185574891Y-107220134D01*
X185574891Y-107220139D01*
X185596271Y-107327629D01*
X185657163Y-107418761D01*
X185717779Y-107459263D01*
X185748293Y-107479652D01*
X185748295Y-107479653D01*
X185855785Y-107501034D01*
X185855788Y-107501034D01*
X185855791Y-107501034D01*
X185963280Y-107479653D01*
X185963280Y-107479652D01*
X185963283Y-107479652D01*
X186054412Y-107418761D01*
X186115303Y-107327632D01*
X186136685Y-107220137D01*
X186136685Y-107220134D01*
X186115304Y-107112644D01*
X186054412Y-107021512D01*
X185963280Y-106960620D01*
X185855791Y-106939240D01*
X185855785Y-106939240D01*
X185748295Y-106960620D01*
X185657163Y-107021512D01*
X185596271Y-107112644D01*
X185574891Y-107220134D01*
X114880500Y-107220134D01*
X114880500Y-106589997D01*
X130609103Y-106589997D01*
X130609103Y-106590002D01*
X130630483Y-106697492D01*
X130691375Y-106788624D01*
X130751991Y-106829126D01*
X130782505Y-106849515D01*
X130782507Y-106849516D01*
X130889997Y-106870897D01*
X130890000Y-106870897D01*
X130890003Y-106870897D01*
X130997492Y-106849516D01*
X130997492Y-106849515D01*
X130997495Y-106849515D01*
X131088624Y-106788624D01*
X131088625Y-106788623D01*
X131099258Y-106772710D01*
X131130440Y-106751874D01*
X131167222Y-106759190D01*
X131180742Y-106772710D01*
X131191374Y-106788623D01*
X131204652Y-106797495D01*
X131282505Y-106849515D01*
X131282507Y-106849516D01*
X131389997Y-106870897D01*
X131390000Y-106870897D01*
X131390003Y-106870897D01*
X131497492Y-106849516D01*
X131497492Y-106849515D01*
X131497495Y-106849515D01*
X131588624Y-106788624D01*
X131588625Y-106788623D01*
X131599258Y-106772710D01*
X131630440Y-106751874D01*
X131667222Y-106759190D01*
X131680742Y-106772710D01*
X131691374Y-106788623D01*
X131704652Y-106797495D01*
X131782505Y-106849515D01*
X131782507Y-106849516D01*
X131889997Y-106870897D01*
X131890000Y-106870897D01*
X131890003Y-106870897D01*
X131997492Y-106849516D01*
X131997492Y-106849515D01*
X131997495Y-106849515D01*
X132088624Y-106788624D01*
X132088625Y-106788623D01*
X132099258Y-106772710D01*
X132130440Y-106751874D01*
X132167222Y-106759190D01*
X132180742Y-106772710D01*
X132191374Y-106788623D01*
X132204652Y-106797495D01*
X132282505Y-106849515D01*
X132282507Y-106849516D01*
X132389997Y-106870897D01*
X132390000Y-106870897D01*
X132390003Y-106870897D01*
X132497492Y-106849516D01*
X132497492Y-106849515D01*
X132497495Y-106849515D01*
X132588624Y-106788624D01*
X132588625Y-106788623D01*
X132599258Y-106772710D01*
X132630440Y-106751874D01*
X132667222Y-106759190D01*
X132680742Y-106772710D01*
X132691374Y-106788623D01*
X132704652Y-106797495D01*
X132782505Y-106849515D01*
X132782507Y-106849516D01*
X132889997Y-106870897D01*
X132890000Y-106870897D01*
X132890003Y-106870897D01*
X132997492Y-106849516D01*
X132997492Y-106849515D01*
X132997495Y-106849515D01*
X133088624Y-106788624D01*
X133088625Y-106788623D01*
X133099258Y-106772710D01*
X133130440Y-106751874D01*
X133167222Y-106759190D01*
X133180742Y-106772710D01*
X133191374Y-106788623D01*
X133204652Y-106797495D01*
X133282505Y-106849515D01*
X133282507Y-106849516D01*
X133389997Y-106870897D01*
X133390000Y-106870897D01*
X133390003Y-106870897D01*
X133497492Y-106849516D01*
X133497492Y-106849515D01*
X133497495Y-106849515D01*
X133588624Y-106788624D01*
X133588625Y-106788623D01*
X133599258Y-106772710D01*
X133630440Y-106751874D01*
X133667222Y-106759190D01*
X133680742Y-106772710D01*
X133691374Y-106788623D01*
X133704652Y-106797495D01*
X133782505Y-106849515D01*
X133782507Y-106849516D01*
X133889997Y-106870897D01*
X133890000Y-106870897D01*
X133890003Y-106870897D01*
X133997492Y-106849516D01*
X133997492Y-106849515D01*
X133997495Y-106849515D01*
X134088624Y-106788624D01*
X134149515Y-106697495D01*
X134151006Y-106690002D01*
X134151007Y-106689997D01*
X182379103Y-106689997D01*
X182379103Y-106690002D01*
X182400483Y-106797492D01*
X182461375Y-106888624D01*
X182521991Y-106929126D01*
X182552505Y-106949515D01*
X182552507Y-106949516D01*
X182659997Y-106970897D01*
X182660000Y-106970897D01*
X182660003Y-106970897D01*
X182767492Y-106949516D01*
X182767492Y-106949515D01*
X182767495Y-106949515D01*
X182858624Y-106888624D01*
X182919515Y-106797495D01*
X182927135Y-106759190D01*
X182940897Y-106690002D01*
X182940897Y-106689997D01*
X182919516Y-106582507D01*
X182858624Y-106491375D01*
X182767492Y-106430483D01*
X182660003Y-106409103D01*
X182659997Y-106409103D01*
X182552507Y-106430483D01*
X182461375Y-106491375D01*
X182400483Y-106582507D01*
X182379103Y-106689997D01*
X134151007Y-106689997D01*
X134170897Y-106590002D01*
X134170897Y-106589997D01*
X134149516Y-106482507D01*
X134088624Y-106391375D01*
X133997492Y-106330483D01*
X133890003Y-106309103D01*
X133889997Y-106309103D01*
X133782507Y-106330483D01*
X133691375Y-106391375D01*
X133680742Y-106407290D01*
X133649559Y-106428126D01*
X133612777Y-106420809D01*
X133599258Y-106407290D01*
X133588624Y-106391375D01*
X133497492Y-106330483D01*
X133390003Y-106309103D01*
X133389997Y-106309103D01*
X133282507Y-106330483D01*
X133191375Y-106391375D01*
X133180742Y-106407290D01*
X133149559Y-106428126D01*
X133112777Y-106420809D01*
X133099258Y-106407290D01*
X133088624Y-106391375D01*
X132997492Y-106330483D01*
X132890003Y-106309103D01*
X132889997Y-106309103D01*
X132782507Y-106330483D01*
X132691375Y-106391375D01*
X132680742Y-106407290D01*
X132649559Y-106428126D01*
X132612777Y-106420809D01*
X132599258Y-106407290D01*
X132588624Y-106391375D01*
X132497492Y-106330483D01*
X132390003Y-106309103D01*
X132389997Y-106309103D01*
X132282507Y-106330483D01*
X132191375Y-106391375D01*
X132180742Y-106407290D01*
X132149559Y-106428126D01*
X132112777Y-106420809D01*
X132099258Y-106407290D01*
X132088624Y-106391375D01*
X131997492Y-106330483D01*
X131890003Y-106309103D01*
X131889997Y-106309103D01*
X131782507Y-106330483D01*
X131691375Y-106391375D01*
X131680742Y-106407290D01*
X131649559Y-106428126D01*
X131612777Y-106420809D01*
X131599258Y-106407290D01*
X131588624Y-106391375D01*
X131497492Y-106330483D01*
X131390003Y-106309103D01*
X131389997Y-106309103D01*
X131282507Y-106330483D01*
X131191375Y-106391375D01*
X131180742Y-106407290D01*
X131149559Y-106428126D01*
X131112777Y-106420809D01*
X131099258Y-106407290D01*
X131088624Y-106391375D01*
X130997492Y-106330483D01*
X130890003Y-106309103D01*
X130889997Y-106309103D01*
X130782507Y-106330483D01*
X130691375Y-106391375D01*
X130630483Y-106482507D01*
X130609103Y-106589997D01*
X114880500Y-106589997D01*
X114880500Y-106189997D01*
X185599103Y-106189997D01*
X185599103Y-106190002D01*
X185620483Y-106297492D01*
X185681375Y-106388624D01*
X185729544Y-106420809D01*
X185772505Y-106449515D01*
X185772507Y-106449516D01*
X185879997Y-106470897D01*
X185880000Y-106470897D01*
X185880003Y-106470897D01*
X185987492Y-106449516D01*
X185987492Y-106449515D01*
X185987495Y-106449515D01*
X186078624Y-106388624D01*
X186139515Y-106297495D01*
X186160897Y-106190000D01*
X186160897Y-106189997D01*
X192339103Y-106189997D01*
X192339103Y-106190002D01*
X192360483Y-106297492D01*
X192421375Y-106388624D01*
X192469544Y-106420809D01*
X192512505Y-106449515D01*
X192512507Y-106449516D01*
X192619997Y-106470897D01*
X192620000Y-106470897D01*
X192620003Y-106470897D01*
X192727492Y-106449516D01*
X192727492Y-106449515D01*
X192727495Y-106449515D01*
X192818624Y-106388624D01*
X192879515Y-106297495D01*
X192900897Y-106190000D01*
X192900897Y-106189997D01*
X192879516Y-106082507D01*
X192818624Y-105991375D01*
X192727492Y-105930483D01*
X192620003Y-105909103D01*
X192619997Y-105909103D01*
X192512507Y-105930483D01*
X192421375Y-105991375D01*
X192360483Y-106082507D01*
X192339103Y-106189997D01*
X186160897Y-106189997D01*
X186139516Y-106082507D01*
X186078624Y-105991375D01*
X185987492Y-105930483D01*
X185880003Y-105909103D01*
X185879997Y-105909103D01*
X185772507Y-105930483D01*
X185681375Y-105991375D01*
X185620483Y-106082507D01*
X185599103Y-106189997D01*
X114880500Y-106189997D01*
X114880500Y-99513497D01*
X117892603Y-99513497D01*
X117892603Y-99513502D01*
X117913983Y-99620992D01*
X117974875Y-99712124D01*
X118065620Y-99772758D01*
X118086456Y-99803941D01*
X118079139Y-99840723D01*
X118065620Y-99854242D01*
X117974875Y-99914875D01*
X117913983Y-100006007D01*
X117892603Y-100113497D01*
X117892603Y-100113502D01*
X117913983Y-100220992D01*
X117974875Y-100312124D01*
X118065620Y-100372758D01*
X118086456Y-100403941D01*
X118079139Y-100440723D01*
X118065620Y-100454242D01*
X117974875Y-100514875D01*
X117913983Y-100606007D01*
X117892603Y-100713497D01*
X117892603Y-100713502D01*
X117913983Y-100820992D01*
X117974875Y-100912124D01*
X118065620Y-100972758D01*
X118086456Y-101003941D01*
X118079139Y-101040723D01*
X118065620Y-101054242D01*
X117974875Y-101114875D01*
X117913983Y-101206007D01*
X117892603Y-101313497D01*
X117892603Y-101313502D01*
X117913983Y-101420992D01*
X117974875Y-101512124D01*
X118065620Y-101572758D01*
X118086456Y-101603941D01*
X118079139Y-101640723D01*
X118065620Y-101654242D01*
X117974875Y-101714875D01*
X117913983Y-101806007D01*
X117892603Y-101913497D01*
X117892603Y-101913502D01*
X117913983Y-102020992D01*
X117974875Y-102112124D01*
X118065620Y-102172758D01*
X118086456Y-102203941D01*
X118079139Y-102240723D01*
X118065620Y-102254242D01*
X117974875Y-102314875D01*
X117913983Y-102406007D01*
X117892603Y-102513497D01*
X117892603Y-102513502D01*
X117913983Y-102620992D01*
X117974875Y-102712124D01*
X117990790Y-102722758D01*
X118011626Y-102753941D01*
X118004309Y-102790723D01*
X117990790Y-102804242D01*
X117974875Y-102814875D01*
X117913983Y-102906007D01*
X117892603Y-103013497D01*
X117892603Y-103013502D01*
X117913983Y-103120992D01*
X117974875Y-103212124D01*
X118065620Y-103272758D01*
X118086456Y-103303941D01*
X118079139Y-103340723D01*
X118065620Y-103354242D01*
X117974875Y-103414875D01*
X117913983Y-103506007D01*
X117892603Y-103613497D01*
X117892603Y-103613502D01*
X117913983Y-103720992D01*
X117974875Y-103812124D01*
X118065620Y-103872758D01*
X118086456Y-103903941D01*
X118079139Y-103940723D01*
X118065620Y-103954242D01*
X117974875Y-104014875D01*
X117913983Y-104106007D01*
X117892603Y-104213497D01*
X117892603Y-104213502D01*
X117913983Y-104320992D01*
X117974875Y-104412124D01*
X118065620Y-104472758D01*
X118086456Y-104503941D01*
X118079139Y-104540723D01*
X118065620Y-104554242D01*
X117974875Y-104614875D01*
X117913983Y-104706007D01*
X117892603Y-104813497D01*
X117892603Y-104813502D01*
X117913983Y-104920992D01*
X117974875Y-105012124D01*
X118065620Y-105072758D01*
X118086456Y-105103941D01*
X118079139Y-105140723D01*
X118065620Y-105154242D01*
X117974875Y-105214875D01*
X117913983Y-105306007D01*
X117892603Y-105413497D01*
X117892603Y-105413502D01*
X117913983Y-105520992D01*
X117974875Y-105612124D01*
X118035491Y-105652626D01*
X118066005Y-105673015D01*
X118066007Y-105673016D01*
X118173497Y-105694397D01*
X118173500Y-105694397D01*
X118173503Y-105694397D01*
X118280992Y-105673016D01*
X118280992Y-105673015D01*
X118280995Y-105673015D01*
X118372124Y-105612124D01*
X118432758Y-105521378D01*
X118463940Y-105500544D01*
X118500723Y-105507860D01*
X118514242Y-105521379D01*
X118574875Y-105612124D01*
X118635491Y-105652626D01*
X118666005Y-105673015D01*
X118666007Y-105673016D01*
X118773497Y-105694397D01*
X118773500Y-105694397D01*
X118773503Y-105694397D01*
X118880992Y-105673016D01*
X118880992Y-105673015D01*
X118880995Y-105673015D01*
X118972124Y-105612124D01*
X119032758Y-105521378D01*
X119063940Y-105500544D01*
X119100723Y-105507860D01*
X119114242Y-105521379D01*
X119174875Y-105612124D01*
X119235491Y-105652626D01*
X119266005Y-105673015D01*
X119266007Y-105673016D01*
X119373497Y-105694397D01*
X119373500Y-105694397D01*
X119373503Y-105694397D01*
X119480992Y-105673016D01*
X119480992Y-105673015D01*
X119480995Y-105673015D01*
X119572124Y-105612124D01*
X119632758Y-105521378D01*
X119663940Y-105500544D01*
X119700723Y-105507860D01*
X119714242Y-105521379D01*
X119774875Y-105612124D01*
X119835491Y-105652626D01*
X119866005Y-105673015D01*
X119866007Y-105673016D01*
X119973497Y-105694397D01*
X119973500Y-105694397D01*
X119973503Y-105694397D01*
X120080992Y-105673016D01*
X120080992Y-105673015D01*
X120080995Y-105673015D01*
X120172124Y-105612124D01*
X120232758Y-105521378D01*
X120263940Y-105500544D01*
X120300723Y-105507860D01*
X120314242Y-105521379D01*
X120374875Y-105612124D01*
X120435491Y-105652626D01*
X120466005Y-105673015D01*
X120466007Y-105673016D01*
X120573497Y-105694397D01*
X120573500Y-105694397D01*
X120573503Y-105694397D01*
X120680992Y-105673016D01*
X120680992Y-105673015D01*
X120680995Y-105673015D01*
X120772124Y-105612124D01*
X120786909Y-105589997D01*
X130609103Y-105589997D01*
X130609103Y-105590002D01*
X130630483Y-105697492D01*
X130691375Y-105788624D01*
X130734584Y-105817495D01*
X130782505Y-105849515D01*
X130782507Y-105849516D01*
X130889997Y-105870897D01*
X130890000Y-105870897D01*
X130890003Y-105870897D01*
X130997492Y-105849516D01*
X130997492Y-105849515D01*
X130997495Y-105849515D01*
X131088624Y-105788624D01*
X131088625Y-105788623D01*
X131099258Y-105772710D01*
X131130440Y-105751874D01*
X131167222Y-105759190D01*
X131180742Y-105772710D01*
X131191374Y-105788623D01*
X131234580Y-105817492D01*
X131282505Y-105849515D01*
X131282507Y-105849516D01*
X131389997Y-105870897D01*
X131390000Y-105870897D01*
X131390003Y-105870897D01*
X131497492Y-105849516D01*
X131497492Y-105849515D01*
X131497495Y-105849515D01*
X131588624Y-105788624D01*
X131588625Y-105788623D01*
X131599258Y-105772710D01*
X131630440Y-105751874D01*
X131667222Y-105759190D01*
X131680742Y-105772710D01*
X131691374Y-105788623D01*
X131734580Y-105817492D01*
X131782505Y-105849515D01*
X131782507Y-105849516D01*
X131889997Y-105870897D01*
X131890000Y-105870897D01*
X131890003Y-105870897D01*
X131997492Y-105849516D01*
X131997492Y-105849515D01*
X131997495Y-105849515D01*
X132088624Y-105788624D01*
X132088625Y-105788623D01*
X132099258Y-105772710D01*
X132130440Y-105751874D01*
X132167222Y-105759190D01*
X132180742Y-105772710D01*
X132191374Y-105788623D01*
X132234580Y-105817492D01*
X132282505Y-105849515D01*
X132282507Y-105849516D01*
X132389997Y-105870897D01*
X132390000Y-105870897D01*
X132390003Y-105870897D01*
X132497492Y-105849516D01*
X132497492Y-105849515D01*
X132497495Y-105849515D01*
X132588624Y-105788624D01*
X132588625Y-105788623D01*
X132599258Y-105772710D01*
X132630440Y-105751874D01*
X132667222Y-105759190D01*
X132680742Y-105772710D01*
X132691374Y-105788623D01*
X132734580Y-105817492D01*
X132782505Y-105849515D01*
X132782507Y-105849516D01*
X132889997Y-105870897D01*
X132890000Y-105870897D01*
X132890003Y-105870897D01*
X132997492Y-105849516D01*
X132997492Y-105849515D01*
X132997495Y-105849515D01*
X133088624Y-105788624D01*
X133088625Y-105788623D01*
X133099258Y-105772710D01*
X133130440Y-105751874D01*
X133167222Y-105759190D01*
X133180742Y-105772710D01*
X133191374Y-105788623D01*
X133234580Y-105817492D01*
X133282505Y-105849515D01*
X133282507Y-105849516D01*
X133389997Y-105870897D01*
X133390000Y-105870897D01*
X133390003Y-105870897D01*
X133497492Y-105849516D01*
X133497492Y-105849515D01*
X133497495Y-105849515D01*
X133588624Y-105788624D01*
X133588625Y-105788623D01*
X133599258Y-105772710D01*
X133630440Y-105751874D01*
X133667222Y-105759190D01*
X133680742Y-105772710D01*
X133691374Y-105788623D01*
X133734580Y-105817492D01*
X133782505Y-105849515D01*
X133782507Y-105849516D01*
X133889997Y-105870897D01*
X133890000Y-105870897D01*
X133890003Y-105870897D01*
X133997492Y-105849516D01*
X133997492Y-105849515D01*
X133997495Y-105849515D01*
X134088624Y-105788624D01*
X134141161Y-105709997D01*
X182399103Y-105709997D01*
X182399103Y-105710002D01*
X182420483Y-105817492D01*
X182481375Y-105908624D01*
X182514090Y-105930483D01*
X182572505Y-105969515D01*
X182572507Y-105969516D01*
X182679997Y-105990897D01*
X182680000Y-105990897D01*
X182680003Y-105990897D01*
X182787492Y-105969516D01*
X182787492Y-105969515D01*
X182787495Y-105969515D01*
X182878624Y-105908624D01*
X182939515Y-105817495D01*
X182948424Y-105772710D01*
X182960897Y-105710002D01*
X182960897Y-105709997D01*
X182939516Y-105602507D01*
X182931160Y-105590002D01*
X182885308Y-105521379D01*
X182878624Y-105511375D01*
X182787492Y-105450483D01*
X182680003Y-105429103D01*
X182679997Y-105429103D01*
X182572507Y-105450483D01*
X182481375Y-105511375D01*
X182420483Y-105602507D01*
X182399103Y-105709997D01*
X134141161Y-105709997D01*
X134149515Y-105697495D01*
X134150132Y-105694397D01*
X134170897Y-105590002D01*
X134170897Y-105589997D01*
X134149516Y-105482507D01*
X134088624Y-105391375D01*
X133997492Y-105330483D01*
X133890003Y-105309103D01*
X133889997Y-105309103D01*
X133782507Y-105330483D01*
X133691375Y-105391375D01*
X133680742Y-105407290D01*
X133649559Y-105428126D01*
X133612777Y-105420809D01*
X133599258Y-105407290D01*
X133588624Y-105391375D01*
X133497492Y-105330483D01*
X133390003Y-105309103D01*
X133389997Y-105309103D01*
X133282507Y-105330483D01*
X133191375Y-105391375D01*
X133180742Y-105407290D01*
X133149559Y-105428126D01*
X133112777Y-105420809D01*
X133099258Y-105407290D01*
X133088624Y-105391375D01*
X132997492Y-105330483D01*
X132890003Y-105309103D01*
X132889997Y-105309103D01*
X132782507Y-105330483D01*
X132691375Y-105391375D01*
X132680742Y-105407290D01*
X132649559Y-105428126D01*
X132612777Y-105420809D01*
X132599258Y-105407290D01*
X132588624Y-105391375D01*
X132497492Y-105330483D01*
X132390003Y-105309103D01*
X132389997Y-105309103D01*
X132282507Y-105330483D01*
X132191375Y-105391375D01*
X132180742Y-105407290D01*
X132149559Y-105428126D01*
X132112777Y-105420809D01*
X132099258Y-105407290D01*
X132088624Y-105391375D01*
X131997492Y-105330483D01*
X131890003Y-105309103D01*
X131889997Y-105309103D01*
X131782507Y-105330483D01*
X131691375Y-105391375D01*
X131680742Y-105407290D01*
X131649559Y-105428126D01*
X131612777Y-105420809D01*
X131599258Y-105407290D01*
X131588624Y-105391375D01*
X131497492Y-105330483D01*
X131390003Y-105309103D01*
X131389997Y-105309103D01*
X131282507Y-105330483D01*
X131191375Y-105391375D01*
X131180742Y-105407290D01*
X131149559Y-105428126D01*
X131112777Y-105420809D01*
X131099258Y-105407290D01*
X131088624Y-105391375D01*
X130997492Y-105330483D01*
X130890003Y-105309103D01*
X130889997Y-105309103D01*
X130782507Y-105330483D01*
X130691375Y-105391375D01*
X130630483Y-105482507D01*
X130609103Y-105589997D01*
X120786909Y-105589997D01*
X120833015Y-105520995D01*
X120834929Y-105511376D01*
X120854397Y-105413502D01*
X120854397Y-105413497D01*
X120833016Y-105306007D01*
X120832757Y-105305620D01*
X120787236Y-105237492D01*
X120772124Y-105214875D01*
X120708087Y-105172088D01*
X120681378Y-105154241D01*
X120660544Y-105123060D01*
X120667860Y-105086277D01*
X120681377Y-105072759D01*
X120772124Y-105012124D01*
X120833015Y-104920995D01*
X120843063Y-104870483D01*
X120854397Y-104813502D01*
X120854397Y-104813497D01*
X120833016Y-104706007D01*
X120832757Y-104705620D01*
X120812626Y-104675491D01*
X120772124Y-104614875D01*
X120734895Y-104590000D01*
X121074540Y-104590000D01*
X121094326Y-104778256D01*
X121152821Y-104958284D01*
X121247467Y-105122216D01*
X121247470Y-105122219D01*
X121374124Y-105262884D01*
X121374127Y-105262886D01*
X121374129Y-105262888D01*
X121527270Y-105374151D01*
X121700197Y-105451144D01*
X121885354Y-105490500D01*
X122074646Y-105490500D01*
X122259803Y-105451144D01*
X122432730Y-105374151D01*
X122585871Y-105262888D01*
X122705527Y-105129997D01*
X192199103Y-105129997D01*
X192199103Y-105130002D01*
X192220483Y-105237492D01*
X192281375Y-105328624D01*
X192341991Y-105369126D01*
X192372505Y-105389515D01*
X192372507Y-105389516D01*
X192479997Y-105410897D01*
X192480000Y-105410897D01*
X192480003Y-105410897D01*
X192587492Y-105389516D01*
X192587492Y-105389515D01*
X192587495Y-105389515D01*
X192678624Y-105328624D01*
X192739515Y-105237495D01*
X192744015Y-105214876D01*
X192760897Y-105130002D01*
X192760897Y-105129997D01*
X192739516Y-105022507D01*
X192732578Y-105012124D01*
X192696604Y-104958284D01*
X192678624Y-104931375D01*
X192587492Y-104870483D01*
X192480003Y-104849103D01*
X192479997Y-104849103D01*
X192372507Y-104870483D01*
X192281375Y-104931375D01*
X192220483Y-105022507D01*
X192199103Y-105129997D01*
X122705527Y-105129997D01*
X122712533Y-105122216D01*
X122807179Y-104958284D01*
X122865674Y-104778256D01*
X122885460Y-104590000D01*
X122885460Y-104589997D01*
X131109103Y-104589997D01*
X131109103Y-104590002D01*
X131130483Y-104697492D01*
X131191375Y-104788624D01*
X131234584Y-104817495D01*
X131282505Y-104849515D01*
X131282507Y-104849516D01*
X131389997Y-104870897D01*
X131390000Y-104870897D01*
X131390003Y-104870897D01*
X131497492Y-104849516D01*
X131497492Y-104849515D01*
X131497495Y-104849515D01*
X131588624Y-104788624D01*
X131595552Y-104778256D01*
X131599258Y-104772710D01*
X131630440Y-104751874D01*
X131667222Y-104759190D01*
X131680742Y-104772710D01*
X131691374Y-104788623D01*
X131728601Y-104813497D01*
X131782505Y-104849515D01*
X131782507Y-104849516D01*
X131889997Y-104870897D01*
X131890000Y-104870897D01*
X131890003Y-104870897D01*
X131997492Y-104849516D01*
X131997492Y-104849515D01*
X131997495Y-104849515D01*
X132088624Y-104788624D01*
X132095552Y-104778256D01*
X132099258Y-104772710D01*
X132130440Y-104751874D01*
X132167222Y-104759190D01*
X132180742Y-104772710D01*
X132191374Y-104788623D01*
X132228601Y-104813497D01*
X132282505Y-104849515D01*
X132282507Y-104849516D01*
X132389997Y-104870897D01*
X132390000Y-104870897D01*
X132390003Y-104870897D01*
X132497492Y-104849516D01*
X132497492Y-104849515D01*
X132497495Y-104849515D01*
X132588624Y-104788624D01*
X132595552Y-104778256D01*
X132599258Y-104772710D01*
X132630440Y-104751874D01*
X132667222Y-104759190D01*
X132680742Y-104772710D01*
X132691374Y-104788623D01*
X132728601Y-104813497D01*
X132782505Y-104849515D01*
X132782507Y-104849516D01*
X132889997Y-104870897D01*
X132890000Y-104870897D01*
X132890003Y-104870897D01*
X132997492Y-104849516D01*
X132997492Y-104849515D01*
X132997495Y-104849515D01*
X133088624Y-104788624D01*
X133095552Y-104778256D01*
X133099258Y-104772710D01*
X133130440Y-104751874D01*
X133167222Y-104759190D01*
X133180742Y-104772710D01*
X133191374Y-104788623D01*
X133228601Y-104813497D01*
X133282505Y-104849515D01*
X133282507Y-104849516D01*
X133389997Y-104870897D01*
X133390000Y-104870897D01*
X133390003Y-104870897D01*
X133497492Y-104849516D01*
X133497492Y-104849515D01*
X133497495Y-104849515D01*
X133588624Y-104788624D01*
X133595552Y-104778256D01*
X133599258Y-104772710D01*
X133630440Y-104751874D01*
X133667222Y-104759190D01*
X133680742Y-104772710D01*
X133691374Y-104788623D01*
X133728601Y-104813497D01*
X133782505Y-104849515D01*
X133782507Y-104849516D01*
X133889997Y-104870897D01*
X133890000Y-104870897D01*
X133890003Y-104870897D01*
X133997492Y-104849516D01*
X133997492Y-104849515D01*
X133997495Y-104849515D01*
X134088624Y-104788624D01*
X134141161Y-104709997D01*
X182409103Y-104709997D01*
X182409103Y-104710002D01*
X182430483Y-104817492D01*
X182491375Y-104908624D01*
X182525425Y-104931375D01*
X182582505Y-104969515D01*
X182582507Y-104969516D01*
X182689997Y-104990897D01*
X182690000Y-104990897D01*
X182690003Y-104990897D01*
X182797492Y-104969516D01*
X182797492Y-104969515D01*
X182797495Y-104969515D01*
X182888624Y-104908624D01*
X182949515Y-104817495D01*
X182950310Y-104813502D01*
X182970897Y-104710002D01*
X182970897Y-104709997D01*
X182949516Y-104602507D01*
X182941160Y-104590002D01*
X182929126Y-104571991D01*
X182888624Y-104511375D01*
X182797492Y-104450483D01*
X182690003Y-104429103D01*
X182689997Y-104429103D01*
X182582507Y-104450483D01*
X182491375Y-104511375D01*
X182430483Y-104602507D01*
X182409103Y-104709997D01*
X134141161Y-104709997D01*
X134149515Y-104697495D01*
X134168410Y-104602507D01*
X134170897Y-104590002D01*
X134170897Y-104589997D01*
X134149516Y-104482507D01*
X134088624Y-104391375D01*
X133997492Y-104330483D01*
X133890003Y-104309103D01*
X133889997Y-104309103D01*
X133782507Y-104330483D01*
X133691375Y-104391375D01*
X133680742Y-104407290D01*
X133649559Y-104428126D01*
X133612777Y-104420809D01*
X133599258Y-104407290D01*
X133588624Y-104391375D01*
X133497492Y-104330483D01*
X133390003Y-104309103D01*
X133389997Y-104309103D01*
X133282507Y-104330483D01*
X133191375Y-104391375D01*
X133180742Y-104407290D01*
X133149559Y-104428126D01*
X133112777Y-104420809D01*
X133099258Y-104407290D01*
X133088624Y-104391375D01*
X132997492Y-104330483D01*
X132890003Y-104309103D01*
X132889997Y-104309103D01*
X132782507Y-104330483D01*
X132691375Y-104391375D01*
X132680742Y-104407290D01*
X132649559Y-104428126D01*
X132612777Y-104420809D01*
X132599258Y-104407290D01*
X132588624Y-104391375D01*
X132497492Y-104330483D01*
X132390003Y-104309103D01*
X132389997Y-104309103D01*
X132282507Y-104330483D01*
X132191375Y-104391375D01*
X132180742Y-104407290D01*
X132149559Y-104428126D01*
X132112777Y-104420809D01*
X132099258Y-104407290D01*
X132088624Y-104391375D01*
X131997492Y-104330483D01*
X131890003Y-104309103D01*
X131889997Y-104309103D01*
X131782507Y-104330483D01*
X131691375Y-104391375D01*
X131680742Y-104407290D01*
X131649559Y-104428126D01*
X131612777Y-104420809D01*
X131599258Y-104407290D01*
X131588624Y-104391375D01*
X131497492Y-104330483D01*
X131390003Y-104309103D01*
X131389997Y-104309103D01*
X131282507Y-104330483D01*
X131191375Y-104391375D01*
X131130483Y-104482507D01*
X131109103Y-104589997D01*
X122885460Y-104589997D01*
X122865674Y-104401744D01*
X122807179Y-104221716D01*
X122788866Y-104189997D01*
X185899103Y-104189997D01*
X185899103Y-104190002D01*
X185920483Y-104297492D01*
X185981375Y-104388624D01*
X186029544Y-104420809D01*
X186072505Y-104449515D01*
X186072507Y-104449516D01*
X186179997Y-104470897D01*
X186180000Y-104470897D01*
X186180003Y-104470897D01*
X186287492Y-104449516D01*
X186287492Y-104449515D01*
X186287495Y-104449515D01*
X186378624Y-104388624D01*
X186439515Y-104297495D01*
X186454589Y-104221716D01*
X186460897Y-104190002D01*
X186460897Y-104189997D01*
X186439516Y-104082507D01*
X186378624Y-103991375D01*
X186287492Y-103930483D01*
X186180003Y-103909103D01*
X186179997Y-103909103D01*
X186072507Y-103930483D01*
X185981375Y-103991375D01*
X185920483Y-104082507D01*
X185899103Y-104189997D01*
X122788866Y-104189997D01*
X122712533Y-104057784D01*
X122673898Y-104014876D01*
X122585875Y-103917115D01*
X122585872Y-103917113D01*
X122574848Y-103909103D01*
X122432730Y-103805849D01*
X122259803Y-103728856D01*
X122259800Y-103728855D01*
X122259796Y-103728854D01*
X122074646Y-103689500D01*
X121885354Y-103689500D01*
X121700203Y-103728854D01*
X121700194Y-103728857D01*
X121527268Y-103805850D01*
X121374127Y-103917113D01*
X121374124Y-103917115D01*
X121247470Y-104057780D01*
X121247464Y-104057788D01*
X121152823Y-104221712D01*
X121152821Y-104221715D01*
X121094326Y-104401743D01*
X121079719Y-104540723D01*
X121074540Y-104590000D01*
X120734895Y-104590000D01*
X120708087Y-104572088D01*
X120681378Y-104554241D01*
X120660544Y-104523060D01*
X120667860Y-104486277D01*
X120681377Y-104472759D01*
X120772124Y-104412124D01*
X120833015Y-104320995D01*
X120835381Y-104309103D01*
X120854397Y-104213502D01*
X120854397Y-104213497D01*
X120833016Y-104106007D01*
X120832757Y-104105620D01*
X120800797Y-104057788D01*
X120772124Y-104014875D01*
X120701209Y-103967492D01*
X120681378Y-103954241D01*
X120660544Y-103923060D01*
X120667860Y-103886277D01*
X120681377Y-103872759D01*
X120772124Y-103812124D01*
X120833015Y-103720995D01*
X120837192Y-103700000D01*
X120854397Y-103613502D01*
X120854397Y-103613497D01*
X120849723Y-103589997D01*
X130609103Y-103589997D01*
X130609103Y-103590002D01*
X130630483Y-103697492D01*
X130691375Y-103788624D01*
X130742082Y-103822505D01*
X130782505Y-103849515D01*
X130782507Y-103849516D01*
X130889997Y-103870897D01*
X130890000Y-103870897D01*
X130890003Y-103870897D01*
X130997492Y-103849516D01*
X130997492Y-103849515D01*
X130997495Y-103849515D01*
X131088624Y-103788624D01*
X131088625Y-103788623D01*
X131099258Y-103772710D01*
X131130440Y-103751874D01*
X131167222Y-103759190D01*
X131180742Y-103772710D01*
X131191374Y-103788623D01*
X131217155Y-103805849D01*
X131282505Y-103849515D01*
X131282507Y-103849516D01*
X131389997Y-103870897D01*
X131390000Y-103870897D01*
X131390003Y-103870897D01*
X131497492Y-103849516D01*
X131497492Y-103849515D01*
X131497495Y-103849515D01*
X131588624Y-103788624D01*
X131588625Y-103788623D01*
X131599258Y-103772710D01*
X131630440Y-103751874D01*
X131667222Y-103759190D01*
X131680742Y-103772710D01*
X131691374Y-103788623D01*
X131717155Y-103805849D01*
X131782505Y-103849515D01*
X131782507Y-103849516D01*
X131889997Y-103870897D01*
X131890000Y-103870897D01*
X131890003Y-103870897D01*
X131997492Y-103849516D01*
X131997492Y-103849515D01*
X131997495Y-103849515D01*
X132088624Y-103788624D01*
X132088625Y-103788623D01*
X132099258Y-103772710D01*
X132130440Y-103751874D01*
X132167222Y-103759190D01*
X132180742Y-103772710D01*
X132191374Y-103788623D01*
X132217155Y-103805849D01*
X132282505Y-103849515D01*
X132282507Y-103849516D01*
X132389997Y-103870897D01*
X132390000Y-103870897D01*
X132390003Y-103870897D01*
X132497492Y-103849516D01*
X132497492Y-103849515D01*
X132497495Y-103849515D01*
X132588624Y-103788624D01*
X132588625Y-103788623D01*
X132599258Y-103772710D01*
X132630440Y-103751874D01*
X132667222Y-103759190D01*
X132680742Y-103772710D01*
X132691374Y-103788623D01*
X132717155Y-103805849D01*
X132782505Y-103849515D01*
X132782507Y-103849516D01*
X132889997Y-103870897D01*
X132890000Y-103870897D01*
X132890003Y-103870897D01*
X132997492Y-103849516D01*
X132997492Y-103849515D01*
X132997495Y-103849515D01*
X133088624Y-103788624D01*
X133088625Y-103788623D01*
X133099258Y-103772710D01*
X133130440Y-103751874D01*
X133167222Y-103759190D01*
X133180742Y-103772710D01*
X133191374Y-103788623D01*
X133217155Y-103805849D01*
X133282505Y-103849515D01*
X133282507Y-103849516D01*
X133389997Y-103870897D01*
X133390000Y-103870897D01*
X133390003Y-103870897D01*
X133497492Y-103849516D01*
X133497492Y-103849515D01*
X133497495Y-103849515D01*
X133588624Y-103788624D01*
X133588625Y-103788623D01*
X133599258Y-103772710D01*
X133630440Y-103751874D01*
X133667222Y-103759190D01*
X133680742Y-103772710D01*
X133691374Y-103788623D01*
X133717155Y-103805849D01*
X133782505Y-103849515D01*
X133782507Y-103849516D01*
X133889997Y-103870897D01*
X133890000Y-103870897D01*
X133890003Y-103870897D01*
X133997492Y-103849516D01*
X133997492Y-103849515D01*
X133997495Y-103849515D01*
X134088624Y-103788624D01*
X134127798Y-103729997D01*
X182409103Y-103729997D01*
X182409103Y-103730002D01*
X182430483Y-103837492D01*
X182491375Y-103928624D01*
X182549546Y-103967492D01*
X182582505Y-103989515D01*
X182582507Y-103989516D01*
X182689997Y-104010897D01*
X182690000Y-104010897D01*
X182690003Y-104010897D01*
X182797492Y-103989516D01*
X182797492Y-103989515D01*
X182797495Y-103989515D01*
X182888624Y-103928624D01*
X182934480Y-103859997D01*
X188549103Y-103859997D01*
X188549103Y-103860002D01*
X188570483Y-103967492D01*
X188631375Y-104058624D01*
X188667116Y-104082505D01*
X188722505Y-104119515D01*
X188722507Y-104119516D01*
X188829997Y-104140897D01*
X188830000Y-104140897D01*
X188830003Y-104140897D01*
X188937492Y-104119516D01*
X188937492Y-104119515D01*
X188937495Y-104119515D01*
X189028624Y-104058624D01*
X189089515Y-103967495D01*
X189091103Y-103959516D01*
X189096975Y-103929997D01*
X191009103Y-103929997D01*
X191009103Y-103930002D01*
X191030483Y-104037492D01*
X191091375Y-104128624D01*
X191151991Y-104169126D01*
X191182505Y-104189515D01*
X191182507Y-104189516D01*
X191289997Y-104210897D01*
X191290000Y-104210897D01*
X191290003Y-104210897D01*
X191397492Y-104189516D01*
X191397492Y-104189515D01*
X191397495Y-104189515D01*
X191488624Y-104128624D01*
X191549515Y-104037495D01*
X191554015Y-104014876D01*
X191570897Y-103930002D01*
X191570897Y-103929997D01*
X191549516Y-103822507D01*
X191542578Y-103812124D01*
X191507209Y-103759190D01*
X191488624Y-103731375D01*
X191441663Y-103699997D01*
X192359103Y-103699997D01*
X192359103Y-103700002D01*
X192380483Y-103807492D01*
X192441375Y-103898624D01*
X192488333Y-103930000D01*
X192532505Y-103959515D01*
X192532507Y-103959516D01*
X192639997Y-103980897D01*
X192640000Y-103980897D01*
X192640003Y-103980897D01*
X192747492Y-103959516D01*
X192747492Y-103959515D01*
X192747495Y-103959515D01*
X192838624Y-103898624D01*
X192899515Y-103807495D01*
X192899843Y-103805850D01*
X192920897Y-103700002D01*
X192920897Y-103699997D01*
X192899516Y-103592507D01*
X192897842Y-103590002D01*
X192850493Y-103519139D01*
X192838624Y-103501375D01*
X192747492Y-103440483D01*
X192640003Y-103419103D01*
X192639997Y-103419103D01*
X192532507Y-103440483D01*
X192441375Y-103501375D01*
X192380483Y-103592507D01*
X192359103Y-103699997D01*
X191441663Y-103699997D01*
X191397492Y-103670483D01*
X191290003Y-103649103D01*
X191289997Y-103649103D01*
X191182507Y-103670483D01*
X191091375Y-103731375D01*
X191030483Y-103822507D01*
X191009103Y-103929997D01*
X189096975Y-103929997D01*
X189110897Y-103860002D01*
X189110897Y-103859997D01*
X189089516Y-103752507D01*
X189074477Y-103730000D01*
X189068461Y-103720995D01*
X189028624Y-103661375D01*
X188937492Y-103600483D01*
X188830003Y-103579103D01*
X188829997Y-103579103D01*
X188722507Y-103600483D01*
X188631375Y-103661375D01*
X188570483Y-103752507D01*
X188549103Y-103859997D01*
X182934480Y-103859997D01*
X182949515Y-103837495D01*
X182952497Y-103822507D01*
X182970897Y-103730002D01*
X182970897Y-103729997D01*
X182949516Y-103622507D01*
X182934801Y-103600485D01*
X182927794Y-103589997D01*
X182888624Y-103531375D01*
X182797492Y-103470483D01*
X182690003Y-103449103D01*
X182689997Y-103449103D01*
X182582507Y-103470483D01*
X182491375Y-103531375D01*
X182430483Y-103622507D01*
X182409103Y-103729997D01*
X134127798Y-103729997D01*
X134149515Y-103697495D01*
X134151106Y-103689500D01*
X134170897Y-103590002D01*
X134170897Y-103589997D01*
X134149516Y-103482507D01*
X134088624Y-103391375D01*
X133997492Y-103330483D01*
X133890003Y-103309103D01*
X133889997Y-103309103D01*
X133782507Y-103330483D01*
X133691375Y-103391375D01*
X133680742Y-103407290D01*
X133649559Y-103428126D01*
X133612777Y-103420809D01*
X133599258Y-103407290D01*
X133588624Y-103391375D01*
X133497492Y-103330483D01*
X133390003Y-103309103D01*
X133389997Y-103309103D01*
X133282507Y-103330483D01*
X133191375Y-103391375D01*
X133180742Y-103407290D01*
X133149559Y-103428126D01*
X133112777Y-103420809D01*
X133099258Y-103407290D01*
X133088624Y-103391375D01*
X132997492Y-103330483D01*
X132890003Y-103309103D01*
X132889997Y-103309103D01*
X132782507Y-103330483D01*
X132691375Y-103391375D01*
X132680742Y-103407290D01*
X132649559Y-103428126D01*
X132612777Y-103420809D01*
X132599258Y-103407290D01*
X132588624Y-103391375D01*
X132497492Y-103330483D01*
X132390003Y-103309103D01*
X132389997Y-103309103D01*
X132282507Y-103330483D01*
X132191375Y-103391375D01*
X132180742Y-103407290D01*
X132149559Y-103428126D01*
X132112777Y-103420809D01*
X132099258Y-103407290D01*
X132088624Y-103391375D01*
X131997492Y-103330483D01*
X131890003Y-103309103D01*
X131889997Y-103309103D01*
X131782507Y-103330483D01*
X131691375Y-103391375D01*
X131680742Y-103407290D01*
X131649559Y-103428126D01*
X131612777Y-103420809D01*
X131599258Y-103407290D01*
X131588624Y-103391375D01*
X131497492Y-103330483D01*
X131390003Y-103309103D01*
X131389997Y-103309103D01*
X131282507Y-103330483D01*
X131191375Y-103391375D01*
X131180742Y-103407290D01*
X131149559Y-103428126D01*
X131112777Y-103420809D01*
X131099258Y-103407290D01*
X131088624Y-103391375D01*
X130997492Y-103330483D01*
X130890003Y-103309103D01*
X130889997Y-103309103D01*
X130782507Y-103330483D01*
X130691375Y-103391375D01*
X130630483Y-103482507D01*
X130609103Y-103589997D01*
X120849723Y-103589997D01*
X120833016Y-103506007D01*
X120832757Y-103505620D01*
X120789236Y-103440485D01*
X120772124Y-103414875D01*
X120708087Y-103372088D01*
X120681378Y-103354241D01*
X120660544Y-103323060D01*
X120667860Y-103286277D01*
X120681377Y-103272759D01*
X120772124Y-103212124D01*
X120833015Y-103120995D01*
X120854397Y-103013500D01*
X120854397Y-103013497D01*
X120833016Y-102906007D01*
X120832757Y-102905620D01*
X120772124Y-102814876D01*
X120772123Y-102814874D01*
X120756210Y-102804242D01*
X120735374Y-102773060D01*
X120742690Y-102736278D01*
X120756210Y-102722758D01*
X120772123Y-102712125D01*
X120772384Y-102711735D01*
X120833015Y-102620995D01*
X120834704Y-102612507D01*
X120839181Y-102589997D01*
X130609103Y-102589997D01*
X130609103Y-102590002D01*
X130630483Y-102697492D01*
X130691375Y-102788624D01*
X130749546Y-102827492D01*
X130782505Y-102849515D01*
X130782507Y-102849516D01*
X130889997Y-102870897D01*
X130890000Y-102870897D01*
X130890003Y-102870897D01*
X130997492Y-102849516D01*
X130997492Y-102849515D01*
X130997495Y-102849515D01*
X131088624Y-102788624D01*
X131099024Y-102773060D01*
X131099258Y-102772710D01*
X131130440Y-102751874D01*
X131167222Y-102759190D01*
X131180742Y-102772710D01*
X131191374Y-102788623D01*
X131236940Y-102819069D01*
X131282505Y-102849515D01*
X131282507Y-102849516D01*
X131389997Y-102870897D01*
X131390000Y-102870897D01*
X131390003Y-102870897D01*
X131497492Y-102849516D01*
X131497492Y-102849515D01*
X131497495Y-102849515D01*
X131588624Y-102788624D01*
X131599024Y-102773060D01*
X131599258Y-102772710D01*
X131630440Y-102751874D01*
X131667222Y-102759190D01*
X131680742Y-102772710D01*
X131691374Y-102788623D01*
X131736940Y-102819069D01*
X131782505Y-102849515D01*
X131782507Y-102849516D01*
X131889997Y-102870897D01*
X131890000Y-102870897D01*
X131890003Y-102870897D01*
X131997492Y-102849516D01*
X131997492Y-102849515D01*
X131997495Y-102849515D01*
X132088624Y-102788624D01*
X132099024Y-102773060D01*
X132099258Y-102772710D01*
X132130440Y-102751874D01*
X132167222Y-102759190D01*
X132180742Y-102772710D01*
X132191374Y-102788623D01*
X132236940Y-102819069D01*
X132282505Y-102849515D01*
X132282507Y-102849516D01*
X132389997Y-102870897D01*
X132390000Y-102870897D01*
X132390003Y-102870897D01*
X132497492Y-102849516D01*
X132497492Y-102849515D01*
X132497495Y-102849515D01*
X132588624Y-102788624D01*
X132599024Y-102773060D01*
X132599258Y-102772710D01*
X132630440Y-102751874D01*
X132667222Y-102759190D01*
X132680742Y-102772710D01*
X132691374Y-102788623D01*
X132736940Y-102819069D01*
X132782505Y-102849515D01*
X132782507Y-102849516D01*
X132889997Y-102870897D01*
X132890000Y-102870897D01*
X132890003Y-102870897D01*
X132997492Y-102849516D01*
X132997492Y-102849515D01*
X132997495Y-102849515D01*
X133088624Y-102788624D01*
X133099024Y-102773060D01*
X133099258Y-102772710D01*
X133130440Y-102751874D01*
X133167222Y-102759190D01*
X133180742Y-102772710D01*
X133191374Y-102788623D01*
X133236940Y-102819069D01*
X133282505Y-102849515D01*
X133282507Y-102849516D01*
X133389997Y-102870897D01*
X133390000Y-102870897D01*
X133390003Y-102870897D01*
X133497492Y-102849516D01*
X133497492Y-102849515D01*
X133497495Y-102849515D01*
X133588624Y-102788624D01*
X133599024Y-102773060D01*
X133599258Y-102772710D01*
X133630440Y-102751874D01*
X133667222Y-102759190D01*
X133680742Y-102772710D01*
X133691374Y-102788623D01*
X133736940Y-102819069D01*
X133782505Y-102849515D01*
X133782507Y-102849516D01*
X133889997Y-102870897D01*
X133890000Y-102870897D01*
X133890003Y-102870897D01*
X133997492Y-102849516D01*
X133997492Y-102849515D01*
X133997495Y-102849515D01*
X134088624Y-102788624D01*
X134134480Y-102719997D01*
X182399103Y-102719997D01*
X182399103Y-102720002D01*
X182420483Y-102827492D01*
X182481375Y-102918624D01*
X182493097Y-102926456D01*
X182572505Y-102979515D01*
X182572507Y-102979516D01*
X182679997Y-103000897D01*
X182680000Y-103000897D01*
X182680003Y-103000897D01*
X182787492Y-102979516D01*
X182787492Y-102979515D01*
X182787495Y-102979515D01*
X182878624Y-102918624D01*
X182939515Y-102827495D01*
X182942026Y-102814875D01*
X182960897Y-102720002D01*
X182960897Y-102719997D01*
X182939516Y-102612507D01*
X182924477Y-102590000D01*
X182919126Y-102581991D01*
X182878624Y-102521375D01*
X182787492Y-102460483D01*
X182680003Y-102439103D01*
X182679997Y-102439103D01*
X182572507Y-102460483D01*
X182481375Y-102521375D01*
X182420483Y-102612507D01*
X182399103Y-102719997D01*
X134134480Y-102719997D01*
X134149515Y-102697495D01*
X134164656Y-102621379D01*
X134170897Y-102590002D01*
X134170897Y-102589997D01*
X134149516Y-102482507D01*
X134134801Y-102460485D01*
X134129126Y-102451991D01*
X134088624Y-102391375D01*
X133997492Y-102330483D01*
X133890003Y-102309103D01*
X133889997Y-102309103D01*
X133782507Y-102330483D01*
X133691375Y-102391375D01*
X133680742Y-102407290D01*
X133649559Y-102428126D01*
X133612777Y-102420809D01*
X133599258Y-102407290D01*
X133588624Y-102391375D01*
X133497492Y-102330483D01*
X133390003Y-102309103D01*
X133389997Y-102309103D01*
X133282507Y-102330483D01*
X133191375Y-102391375D01*
X133180742Y-102407290D01*
X133149559Y-102428126D01*
X133112777Y-102420809D01*
X133099258Y-102407290D01*
X133088624Y-102391375D01*
X132997492Y-102330483D01*
X132890003Y-102309103D01*
X132889997Y-102309103D01*
X132782507Y-102330483D01*
X132691375Y-102391375D01*
X132680742Y-102407290D01*
X132649559Y-102428126D01*
X132612777Y-102420809D01*
X132599258Y-102407290D01*
X132588624Y-102391375D01*
X132497492Y-102330483D01*
X132390003Y-102309103D01*
X132389997Y-102309103D01*
X132282507Y-102330483D01*
X132191375Y-102391375D01*
X132180742Y-102407290D01*
X132149559Y-102428126D01*
X132112777Y-102420809D01*
X132099258Y-102407290D01*
X132088624Y-102391375D01*
X131997492Y-102330483D01*
X131890003Y-102309103D01*
X131889997Y-102309103D01*
X131782507Y-102330483D01*
X131691375Y-102391375D01*
X131680742Y-102407290D01*
X131649559Y-102428126D01*
X131612777Y-102420809D01*
X131599258Y-102407290D01*
X131588624Y-102391375D01*
X131497492Y-102330483D01*
X131390003Y-102309103D01*
X131389997Y-102309103D01*
X131282507Y-102330483D01*
X131191375Y-102391375D01*
X131180742Y-102407290D01*
X131149559Y-102428126D01*
X131112777Y-102420809D01*
X131099258Y-102407290D01*
X131088624Y-102391375D01*
X130997492Y-102330483D01*
X130890003Y-102309103D01*
X130889997Y-102309103D01*
X130782507Y-102330483D01*
X130691375Y-102391375D01*
X130630483Y-102482507D01*
X130609103Y-102589997D01*
X120839181Y-102589997D01*
X120854397Y-102513502D01*
X120854397Y-102513497D01*
X120833016Y-102406007D01*
X120832757Y-102405620D01*
X120782554Y-102330485D01*
X120772124Y-102314875D01*
X120708087Y-102272088D01*
X120681378Y-102254241D01*
X120660544Y-102223060D01*
X120667860Y-102186277D01*
X120681377Y-102172759D01*
X120772124Y-102112124D01*
X120833015Y-102020995D01*
X120854397Y-101913500D01*
X120854397Y-101913497D01*
X120833016Y-101806007D01*
X120832757Y-101805620D01*
X120812626Y-101775491D01*
X120772124Y-101714875D01*
X120708087Y-101672088D01*
X120681378Y-101654241D01*
X120660544Y-101623060D01*
X120667860Y-101586277D01*
X120681377Y-101572759D01*
X120772124Y-101512124D01*
X120833015Y-101420995D01*
X120847137Y-101350002D01*
X120847138Y-101349997D01*
X153849103Y-101349997D01*
X153849103Y-101350002D01*
X153870483Y-101457492D01*
X153931375Y-101548624D01*
X153967879Y-101573015D01*
X154022505Y-101609515D01*
X154022507Y-101609516D01*
X154129997Y-101630897D01*
X154130000Y-101630897D01*
X154130003Y-101630897D01*
X154237492Y-101609516D01*
X154237492Y-101609515D01*
X154237495Y-101609515D01*
X154328624Y-101548624D01*
X154389515Y-101457495D01*
X154396776Y-101420995D01*
X154410897Y-101350002D01*
X154410897Y-101349997D01*
X154389516Y-101242507D01*
X154328624Y-101151375D01*
X154237492Y-101090483D01*
X154130003Y-101069103D01*
X154129997Y-101069103D01*
X154022507Y-101090483D01*
X153931375Y-101151375D01*
X153870483Y-101242507D01*
X153849103Y-101349997D01*
X120847138Y-101349997D01*
X120854397Y-101313502D01*
X120854397Y-101313497D01*
X120833016Y-101206007D01*
X120832757Y-101205620D01*
X120796512Y-101151375D01*
X120772124Y-101114875D01*
X120703620Y-101069103D01*
X120681378Y-101054241D01*
X120660544Y-101023060D01*
X120667860Y-100986277D01*
X120681377Y-100972759D01*
X120772124Y-100912124D01*
X120833015Y-100820995D01*
X120833712Y-100817495D01*
X120854397Y-100713502D01*
X120854397Y-100713497D01*
X120853701Y-100709997D01*
X182399103Y-100709997D01*
X182399103Y-100710002D01*
X182420483Y-100817492D01*
X182481375Y-100908624D01*
X182541991Y-100949126D01*
X182572505Y-100969515D01*
X182572507Y-100969516D01*
X182679997Y-100990897D01*
X182680000Y-100990897D01*
X182680003Y-100990897D01*
X182787492Y-100969516D01*
X182787492Y-100969515D01*
X182787495Y-100969515D01*
X182878624Y-100908624D01*
X182939515Y-100817495D01*
X182960201Y-100713502D01*
X182960897Y-100710002D01*
X182960897Y-100709997D01*
X182939516Y-100602507D01*
X182878624Y-100511375D01*
X182787492Y-100450483D01*
X182680003Y-100429103D01*
X182679997Y-100429103D01*
X182572507Y-100450483D01*
X182481375Y-100511375D01*
X182420483Y-100602507D01*
X182399103Y-100709997D01*
X120853701Y-100709997D01*
X120833016Y-100606007D01*
X120832757Y-100605620D01*
X120812626Y-100575491D01*
X120772124Y-100514875D01*
X120708087Y-100472088D01*
X120681378Y-100454241D01*
X120660544Y-100423060D01*
X120667860Y-100386277D01*
X120681377Y-100372759D01*
X120745375Y-100329997D01*
X153209103Y-100329997D01*
X153209103Y-100330002D01*
X153230483Y-100437492D01*
X153291375Y-100528624D01*
X153351991Y-100569126D01*
X153382505Y-100589515D01*
X153382507Y-100589516D01*
X153489997Y-100610897D01*
X153490000Y-100610897D01*
X153490003Y-100610897D01*
X153597492Y-100589516D01*
X153597492Y-100589515D01*
X153597495Y-100589515D01*
X153688624Y-100528624D01*
X153749515Y-100437495D01*
X153751185Y-100429103D01*
X153770897Y-100330002D01*
X153770897Y-100329997D01*
X153749516Y-100222507D01*
X153748762Y-100221379D01*
X153729126Y-100191991D01*
X153688624Y-100131375D01*
X153597492Y-100070483D01*
X153490003Y-100049103D01*
X153489997Y-100049103D01*
X153382507Y-100070483D01*
X153291375Y-100131375D01*
X153230483Y-100222507D01*
X153209103Y-100329997D01*
X120745375Y-100329997D01*
X120772124Y-100312124D01*
X120833015Y-100220995D01*
X120850842Y-100131376D01*
X120854397Y-100113502D01*
X120854397Y-100113497D01*
X120833016Y-100006007D01*
X120832757Y-100005620D01*
X120795270Y-99949516D01*
X120772124Y-99914875D01*
X120680992Y-99853983D01*
X120573503Y-99832603D01*
X120573497Y-99832603D01*
X120466007Y-99853983D01*
X120374875Y-99914875D01*
X120314242Y-100005620D01*
X120283059Y-100026456D01*
X120246277Y-100019139D01*
X120232758Y-100005620D01*
X120172124Y-99914875D01*
X120108087Y-99872088D01*
X120081378Y-99854241D01*
X120060544Y-99823060D01*
X120067860Y-99786277D01*
X120081377Y-99772759D01*
X120172124Y-99712124D01*
X120186909Y-99689997D01*
X182389103Y-99689997D01*
X182389103Y-99690002D01*
X182410483Y-99797492D01*
X182471375Y-99888624D01*
X182531991Y-99929126D01*
X182562505Y-99949515D01*
X182562507Y-99949516D01*
X182669997Y-99970897D01*
X182670000Y-99970897D01*
X182670003Y-99970897D01*
X182777492Y-99949516D01*
X182777492Y-99949515D01*
X182777495Y-99949515D01*
X182868624Y-99888624D01*
X182929515Y-99797495D01*
X182930132Y-99794397D01*
X182950897Y-99690002D01*
X182950897Y-99689997D01*
X182929516Y-99582507D01*
X182868624Y-99491375D01*
X182777492Y-99430483D01*
X182670003Y-99409103D01*
X182669997Y-99409103D01*
X182562507Y-99430483D01*
X182471375Y-99491375D01*
X182410483Y-99582507D01*
X182389103Y-99689997D01*
X120186909Y-99689997D01*
X120233015Y-99620995D01*
X120240672Y-99582505D01*
X120254397Y-99513502D01*
X120254397Y-99513497D01*
X120233016Y-99406007D01*
X120232757Y-99405620D01*
X120208038Y-99368624D01*
X120172124Y-99314875D01*
X120080992Y-99253983D01*
X119973503Y-99232603D01*
X119973497Y-99232603D01*
X119866007Y-99253983D01*
X119774875Y-99314875D01*
X119714242Y-99405620D01*
X119683059Y-99426456D01*
X119646277Y-99419139D01*
X119632758Y-99405620D01*
X119572124Y-99314875D01*
X119480992Y-99253983D01*
X119373503Y-99232603D01*
X119373497Y-99232603D01*
X119266007Y-99253983D01*
X119174875Y-99314875D01*
X119114242Y-99405620D01*
X119083059Y-99426456D01*
X119046277Y-99419139D01*
X119032758Y-99405620D01*
X118972124Y-99314875D01*
X118880992Y-99253983D01*
X118773503Y-99232603D01*
X118773497Y-99232603D01*
X118666007Y-99253983D01*
X118574875Y-99314875D01*
X118514242Y-99405620D01*
X118483059Y-99426456D01*
X118446277Y-99419139D01*
X118432758Y-99405620D01*
X118372124Y-99314875D01*
X118280992Y-99253983D01*
X118173503Y-99232603D01*
X118173497Y-99232603D01*
X118066007Y-99253983D01*
X117974875Y-99314875D01*
X117913983Y-99406007D01*
X117892603Y-99513497D01*
X114880500Y-99513497D01*
X114880500Y-99169997D01*
X185709103Y-99169997D01*
X185709103Y-99170002D01*
X185730483Y-99277492D01*
X185791375Y-99368624D01*
X185846744Y-99405620D01*
X185882505Y-99429515D01*
X185882507Y-99429516D01*
X185989997Y-99450897D01*
X185990000Y-99450897D01*
X185990003Y-99450897D01*
X186097492Y-99429516D01*
X186097492Y-99429515D01*
X186097495Y-99429515D01*
X186188624Y-99368624D01*
X186249515Y-99277495D01*
X186254192Y-99253985D01*
X186270897Y-99170002D01*
X186270897Y-99169997D01*
X186249516Y-99062507D01*
X186188624Y-98971375D01*
X186097492Y-98910483D01*
X185990003Y-98889103D01*
X185989997Y-98889103D01*
X185882507Y-98910483D01*
X185791375Y-98971375D01*
X185730483Y-99062507D01*
X185709103Y-99169997D01*
X114880500Y-99169997D01*
X114880500Y-98689997D01*
X182389103Y-98689997D01*
X182389103Y-98690002D01*
X182410483Y-98797492D01*
X182471375Y-98888624D01*
X182531991Y-98929126D01*
X182562505Y-98949515D01*
X182562507Y-98949516D01*
X182669997Y-98970897D01*
X182670000Y-98970897D01*
X182670003Y-98970897D01*
X182777492Y-98949516D01*
X182777492Y-98949515D01*
X182777495Y-98949515D01*
X182868624Y-98888624D01*
X182929515Y-98797495D01*
X182935483Y-98767495D01*
X182950897Y-98690002D01*
X182950897Y-98689997D01*
X182944930Y-98659997D01*
X188319103Y-98659997D01*
X188319103Y-98660002D01*
X188340483Y-98767492D01*
X188401375Y-98858624D01*
X188461991Y-98899126D01*
X188492505Y-98919515D01*
X188492507Y-98919516D01*
X188599997Y-98940897D01*
X188600000Y-98940897D01*
X188600003Y-98940897D01*
X188707492Y-98919516D01*
X188707492Y-98919515D01*
X188707495Y-98919515D01*
X188798624Y-98858624D01*
X188859515Y-98767495D01*
X188874930Y-98690002D01*
X188880897Y-98660002D01*
X188880897Y-98659997D01*
X188859516Y-98552507D01*
X188798624Y-98461375D01*
X188707492Y-98400483D01*
X188600003Y-98379103D01*
X188599997Y-98379103D01*
X188492507Y-98400483D01*
X188401375Y-98461375D01*
X188340483Y-98552507D01*
X188319103Y-98659997D01*
X182944930Y-98659997D01*
X182929516Y-98582507D01*
X182868624Y-98491375D01*
X182777492Y-98430483D01*
X182670003Y-98409103D01*
X182669997Y-98409103D01*
X182562507Y-98430483D01*
X182471375Y-98491375D01*
X182410483Y-98582507D01*
X182389103Y-98689997D01*
X114880500Y-98689997D01*
X114880500Y-97709997D01*
X182379103Y-97709997D01*
X182379103Y-97710002D01*
X182400483Y-97817492D01*
X182461375Y-97908624D01*
X182521991Y-97949126D01*
X182552505Y-97969515D01*
X182552507Y-97969516D01*
X182659997Y-97990897D01*
X182660000Y-97990897D01*
X182660003Y-97990897D01*
X182767492Y-97969516D01*
X182767492Y-97969515D01*
X182767495Y-97969515D01*
X182858624Y-97908624D01*
X182919515Y-97817495D01*
X182940897Y-97710000D01*
X182940897Y-97709997D01*
X182919516Y-97602507D01*
X182858624Y-97511375D01*
X182767492Y-97450483D01*
X182660003Y-97429103D01*
X182659997Y-97429103D01*
X182552507Y-97450483D01*
X182461375Y-97511375D01*
X182400483Y-97602507D01*
X182379103Y-97709997D01*
X114880500Y-97709997D01*
X114880500Y-96719997D01*
X182379103Y-96719997D01*
X182379103Y-96720002D01*
X182400483Y-96827492D01*
X182461375Y-96918624D01*
X182521991Y-96959126D01*
X182552505Y-96979515D01*
X182552507Y-96979516D01*
X182659997Y-97000897D01*
X182660000Y-97000897D01*
X182660003Y-97000897D01*
X182767492Y-96979516D01*
X182767492Y-96979515D01*
X182767495Y-96979515D01*
X182858624Y-96918624D01*
X182919515Y-96827495D01*
X182923494Y-96807495D01*
X182940897Y-96720002D01*
X182940897Y-96719997D01*
X182936919Y-96699997D01*
X185709103Y-96699997D01*
X185709103Y-96700002D01*
X185730483Y-96807492D01*
X185791375Y-96898624D01*
X185851991Y-96939126D01*
X185882505Y-96959515D01*
X185882507Y-96959516D01*
X185989997Y-96980897D01*
X185990000Y-96980897D01*
X185990003Y-96980897D01*
X186097492Y-96959516D01*
X186097492Y-96959515D01*
X186097495Y-96959515D01*
X186188624Y-96898624D01*
X186249515Y-96807495D01*
X186266919Y-96720002D01*
X186270897Y-96700002D01*
X186270897Y-96699997D01*
X186249516Y-96592507D01*
X186188624Y-96501375D01*
X186097492Y-96440483D01*
X185990003Y-96419103D01*
X185989997Y-96419103D01*
X185882507Y-96440483D01*
X185791375Y-96501375D01*
X185730483Y-96592507D01*
X185709103Y-96699997D01*
X182936919Y-96699997D01*
X182919516Y-96612507D01*
X182858624Y-96521375D01*
X182767492Y-96460483D01*
X182660003Y-96439103D01*
X182659997Y-96439103D01*
X182552507Y-96460483D01*
X182461375Y-96521375D01*
X182400483Y-96612507D01*
X182379103Y-96719997D01*
X114880500Y-96719997D01*
X114880500Y-96169997D01*
X188509103Y-96169997D01*
X188509103Y-96170002D01*
X188530483Y-96277492D01*
X188591375Y-96368624D01*
X188651991Y-96409126D01*
X188682505Y-96429515D01*
X188682507Y-96429516D01*
X188789997Y-96450897D01*
X188790000Y-96450897D01*
X188790003Y-96450897D01*
X188897492Y-96429516D01*
X188897492Y-96429515D01*
X188897495Y-96429515D01*
X188988624Y-96368624D01*
X189049515Y-96277495D01*
X189070897Y-96170000D01*
X189070897Y-96169997D01*
X189049516Y-96062507D01*
X188988624Y-95971375D01*
X188897492Y-95910483D01*
X188790003Y-95889103D01*
X188789997Y-95889103D01*
X188682507Y-95910483D01*
X188591375Y-95971375D01*
X188530483Y-96062507D01*
X188509103Y-96169997D01*
X114880500Y-96169997D01*
X114880500Y-94699997D01*
X182379103Y-94699997D01*
X182379103Y-94700002D01*
X182400483Y-94807492D01*
X182461375Y-94898624D01*
X182489618Y-94917495D01*
X182552505Y-94959515D01*
X182552507Y-94959516D01*
X182659997Y-94980897D01*
X182660000Y-94980897D01*
X182660003Y-94980897D01*
X182767492Y-94959516D01*
X182767492Y-94959515D01*
X182767495Y-94959515D01*
X182858624Y-94898624D01*
X182917843Y-94809997D01*
X185449103Y-94809997D01*
X185449103Y-94810002D01*
X185470483Y-94917492D01*
X185531375Y-95008624D01*
X185591991Y-95049126D01*
X185622505Y-95069515D01*
X185622507Y-95069516D01*
X185729997Y-95090897D01*
X185730000Y-95090897D01*
X185730003Y-95090897D01*
X185837492Y-95069516D01*
X185837492Y-95069515D01*
X185837495Y-95069515D01*
X185928624Y-95008624D01*
X185989515Y-94917495D01*
X186010897Y-94810000D01*
X186010897Y-94809997D01*
X185989516Y-94702507D01*
X185987842Y-94700002D01*
X185969126Y-94671991D01*
X185928624Y-94611375D01*
X185837492Y-94550483D01*
X185730003Y-94529103D01*
X185729997Y-94529103D01*
X185622507Y-94550483D01*
X185531375Y-94611375D01*
X185470483Y-94702507D01*
X185449103Y-94809997D01*
X182917843Y-94809997D01*
X182919515Y-94807495D01*
X182940399Y-94702507D01*
X182940897Y-94700002D01*
X182940897Y-94699997D01*
X182919516Y-94592507D01*
X182858624Y-94501375D01*
X182767492Y-94440483D01*
X182660003Y-94419103D01*
X182659997Y-94419103D01*
X182552507Y-94440483D01*
X182461375Y-94501375D01*
X182400483Y-94592507D01*
X182379103Y-94699997D01*
X114880500Y-94699997D01*
X114880500Y-94179997D01*
X188499103Y-94179997D01*
X188499103Y-94180002D01*
X188520483Y-94287492D01*
X188581375Y-94378624D01*
X188641957Y-94419103D01*
X188672505Y-94439515D01*
X188672507Y-94439516D01*
X188779997Y-94460897D01*
X188780000Y-94460897D01*
X188780003Y-94460897D01*
X188887492Y-94439516D01*
X188887492Y-94439515D01*
X188887495Y-94439515D01*
X188978624Y-94378624D01*
X189039515Y-94287495D01*
X189060897Y-94180000D01*
X189060897Y-94179997D01*
X189039516Y-94072507D01*
X188978624Y-93981375D01*
X188887492Y-93920483D01*
X188780003Y-93899103D01*
X188779997Y-93899103D01*
X188672507Y-93920483D01*
X188581375Y-93981375D01*
X188520483Y-94072507D01*
X188499103Y-94179997D01*
X114880500Y-94179997D01*
X114880500Y-93699997D01*
X182369103Y-93699997D01*
X182369103Y-93700002D01*
X182390483Y-93807492D01*
X182451375Y-93898624D01*
X182511991Y-93939126D01*
X182542505Y-93959515D01*
X182542507Y-93959516D01*
X182649997Y-93980897D01*
X182650000Y-93980897D01*
X182650003Y-93980897D01*
X182757492Y-93959516D01*
X182757492Y-93959515D01*
X182757495Y-93959515D01*
X182848624Y-93898624D01*
X182909515Y-93807495D01*
X182915483Y-93777495D01*
X182930897Y-93700002D01*
X182930897Y-93699997D01*
X182924930Y-93669997D01*
X185509103Y-93669997D01*
X185509103Y-93670002D01*
X185530483Y-93777492D01*
X185591375Y-93868624D01*
X185651991Y-93909126D01*
X185682505Y-93929515D01*
X185682507Y-93929516D01*
X185789997Y-93950897D01*
X185790000Y-93950897D01*
X185790003Y-93950897D01*
X185897492Y-93929516D01*
X185897492Y-93929515D01*
X185897495Y-93929515D01*
X185988624Y-93868624D01*
X186049515Y-93777495D01*
X186064930Y-93700002D01*
X186070897Y-93670002D01*
X186070897Y-93669997D01*
X186049516Y-93562507D01*
X185988624Y-93471375D01*
X185897492Y-93410483D01*
X185790003Y-93389103D01*
X185789997Y-93389103D01*
X185682507Y-93410483D01*
X185591375Y-93471375D01*
X185530483Y-93562507D01*
X185509103Y-93669997D01*
X182924930Y-93669997D01*
X182909516Y-93592507D01*
X182848624Y-93501375D01*
X182757492Y-93440483D01*
X182650003Y-93419103D01*
X182649997Y-93419103D01*
X182542507Y-93440483D01*
X182451375Y-93501375D01*
X182390483Y-93592507D01*
X182369103Y-93699997D01*
X114880500Y-93699997D01*
X114880500Y-93169997D01*
X188509103Y-93169997D01*
X188509103Y-93170002D01*
X188530483Y-93277492D01*
X188591375Y-93368624D01*
X188651991Y-93409126D01*
X188682505Y-93429515D01*
X188682507Y-93429516D01*
X188789997Y-93450897D01*
X188790000Y-93450897D01*
X188790003Y-93450897D01*
X188897492Y-93429516D01*
X188897492Y-93429515D01*
X188897495Y-93429515D01*
X188988624Y-93368624D01*
X189049515Y-93277495D01*
X189070897Y-93170000D01*
X189070897Y-93169997D01*
X189049516Y-93062507D01*
X188988624Y-92971375D01*
X188897492Y-92910483D01*
X188790003Y-92889103D01*
X188789997Y-92889103D01*
X188682507Y-92910483D01*
X188591375Y-92971375D01*
X188530483Y-93062507D01*
X188509103Y-93169997D01*
X114880500Y-93169997D01*
X114880500Y-92699997D01*
X182359103Y-92699997D01*
X182359103Y-92700002D01*
X182380483Y-92807492D01*
X182441375Y-92898624D01*
X182501991Y-92939126D01*
X182532505Y-92959515D01*
X182532507Y-92959516D01*
X182639997Y-92980897D01*
X182640000Y-92980897D01*
X182640003Y-92980897D01*
X182747492Y-92959516D01*
X182747492Y-92959515D01*
X182747495Y-92959515D01*
X182838624Y-92898624D01*
X182899515Y-92807495D01*
X182905483Y-92777495D01*
X182920897Y-92700002D01*
X182920897Y-92699997D01*
X182914930Y-92669997D01*
X184099103Y-92669997D01*
X184099103Y-92670002D01*
X184120483Y-92777492D01*
X184181375Y-92868624D01*
X184226274Y-92898624D01*
X184272505Y-92929515D01*
X184272507Y-92929516D01*
X184379997Y-92950897D01*
X184380000Y-92950897D01*
X184380003Y-92950897D01*
X184487492Y-92929516D01*
X184487492Y-92929515D01*
X184487495Y-92929515D01*
X184578624Y-92868624D01*
X184639515Y-92777495D01*
X184654930Y-92700002D01*
X184660897Y-92670002D01*
X184660897Y-92669997D01*
X184639516Y-92562507D01*
X184578624Y-92471375D01*
X184487492Y-92410483D01*
X184380003Y-92389103D01*
X184379997Y-92389103D01*
X184272507Y-92410483D01*
X184181375Y-92471375D01*
X184120483Y-92562507D01*
X184099103Y-92669997D01*
X182914930Y-92669997D01*
X182899516Y-92592507D01*
X182838624Y-92501375D01*
X182747492Y-92440483D01*
X182640003Y-92419103D01*
X182639997Y-92419103D01*
X182532507Y-92440483D01*
X182441375Y-92501375D01*
X182380483Y-92592507D01*
X182359103Y-92699997D01*
X114880500Y-92699997D01*
X114880500Y-92189997D01*
X188499103Y-92189997D01*
X188499103Y-92190002D01*
X188520483Y-92297492D01*
X188581375Y-92388624D01*
X188641991Y-92429126D01*
X188672505Y-92449515D01*
X188672507Y-92449516D01*
X188779997Y-92470897D01*
X188780000Y-92470897D01*
X188780003Y-92470897D01*
X188887492Y-92449516D01*
X188887492Y-92449515D01*
X188887495Y-92449515D01*
X188978624Y-92388624D01*
X189039515Y-92297495D01*
X189060897Y-92190000D01*
X189060897Y-92189997D01*
X189039516Y-92082507D01*
X188978624Y-91991375D01*
X188887492Y-91930483D01*
X188780003Y-91909103D01*
X188779997Y-91909103D01*
X188672507Y-91930483D01*
X188581375Y-91991375D01*
X188520483Y-92082507D01*
X188499103Y-92189997D01*
X114880500Y-92189997D01*
X114880500Y-91719997D01*
X182389103Y-91719997D01*
X182389103Y-91720002D01*
X182410483Y-91827492D01*
X182471375Y-91918624D01*
X182500821Y-91938299D01*
X182562505Y-91979515D01*
X182562507Y-91979516D01*
X182669997Y-92000897D01*
X182670000Y-92000897D01*
X182670003Y-92000897D01*
X182777492Y-91979516D01*
X182777492Y-91979515D01*
X182777495Y-91979515D01*
X182868624Y-91918624D01*
X182929515Y-91827495D01*
X182937715Y-91786275D01*
X182950897Y-91720002D01*
X182950897Y-91719997D01*
X182942698Y-91678780D01*
X183281866Y-91678780D01*
X183281866Y-91678785D01*
X183303246Y-91786275D01*
X183364138Y-91877407D01*
X183411575Y-91909103D01*
X183455268Y-91938298D01*
X183455270Y-91938299D01*
X183562760Y-91959680D01*
X183562763Y-91959680D01*
X183562766Y-91959680D01*
X183670255Y-91938299D01*
X183670255Y-91938298D01*
X183670258Y-91938298D01*
X183761387Y-91877407D01*
X183822278Y-91786278D01*
X183835462Y-91720000D01*
X183843660Y-91678785D01*
X183843660Y-91678780D01*
X183822279Y-91571290D01*
X183761387Y-91480158D01*
X183670255Y-91419266D01*
X183562766Y-91397886D01*
X183562760Y-91397886D01*
X183455270Y-91419266D01*
X183364138Y-91480158D01*
X183303246Y-91571290D01*
X183281866Y-91678780D01*
X182942698Y-91678780D01*
X182929516Y-91612507D01*
X182868624Y-91521375D01*
X182777492Y-91460483D01*
X182670003Y-91439103D01*
X182669997Y-91439103D01*
X182562507Y-91460483D01*
X182471375Y-91521375D01*
X182410483Y-91612507D01*
X182389103Y-91719997D01*
X114880500Y-91719997D01*
X114880500Y-91179997D01*
X188469103Y-91179997D01*
X188469103Y-91180002D01*
X188490483Y-91287492D01*
X188551375Y-91378624D01*
X188580203Y-91397886D01*
X188642505Y-91439515D01*
X188642507Y-91439516D01*
X188749997Y-91460897D01*
X188750000Y-91460897D01*
X188750003Y-91460897D01*
X188857492Y-91439516D01*
X188857492Y-91439515D01*
X188857495Y-91439515D01*
X188948624Y-91378624D01*
X189009515Y-91287495D01*
X189030897Y-91180000D01*
X189030897Y-91179997D01*
X189009516Y-91072507D01*
X188948624Y-90981375D01*
X188857492Y-90920483D01*
X188750003Y-90899103D01*
X188749997Y-90899103D01*
X188642507Y-90920483D01*
X188551375Y-90981375D01*
X188490483Y-91072507D01*
X188469103Y-91179997D01*
X114880500Y-91179997D01*
X114880500Y-90699997D01*
X182379103Y-90699997D01*
X182379103Y-90700002D01*
X182400483Y-90807492D01*
X182461375Y-90898624D01*
X182521991Y-90939126D01*
X182552505Y-90959515D01*
X182552507Y-90959516D01*
X182659997Y-90980897D01*
X182660000Y-90980897D01*
X182660003Y-90980897D01*
X182767492Y-90959516D01*
X182767492Y-90959515D01*
X182767495Y-90959515D01*
X182858624Y-90898624D01*
X182919515Y-90807495D01*
X182925483Y-90777495D01*
X182940897Y-90700002D01*
X182940897Y-90699997D01*
X182934930Y-90669997D01*
X185749103Y-90669997D01*
X185749103Y-90670002D01*
X185770483Y-90777492D01*
X185831375Y-90868624D01*
X185891991Y-90909126D01*
X185922505Y-90929515D01*
X185922507Y-90929516D01*
X186029997Y-90950897D01*
X186030000Y-90950897D01*
X186030003Y-90950897D01*
X186137492Y-90929516D01*
X186137492Y-90929515D01*
X186137495Y-90929515D01*
X186228624Y-90868624D01*
X186289515Y-90777495D01*
X186304930Y-90700002D01*
X186310897Y-90670002D01*
X186310897Y-90669997D01*
X186289516Y-90562507D01*
X186228624Y-90471375D01*
X186137492Y-90410483D01*
X186030003Y-90389103D01*
X186029997Y-90389103D01*
X185922507Y-90410483D01*
X185831375Y-90471375D01*
X185770483Y-90562507D01*
X185749103Y-90669997D01*
X182934930Y-90669997D01*
X182919516Y-90592507D01*
X182858624Y-90501375D01*
X182767492Y-90440483D01*
X182660003Y-90419103D01*
X182659997Y-90419103D01*
X182552507Y-90440483D01*
X182461375Y-90501375D01*
X182400483Y-90592507D01*
X182379103Y-90699997D01*
X114880500Y-90699997D01*
X114880500Y-90179997D01*
X188409103Y-90179997D01*
X188409103Y-90180002D01*
X188430483Y-90287492D01*
X188491375Y-90378624D01*
X188539056Y-90410483D01*
X188582505Y-90439515D01*
X188582507Y-90439516D01*
X188689997Y-90460897D01*
X188690000Y-90460897D01*
X188690003Y-90460897D01*
X188797492Y-90439516D01*
X188797492Y-90439515D01*
X188797495Y-90439515D01*
X188888624Y-90378624D01*
X188949515Y-90287495D01*
X188970897Y-90180000D01*
X188970897Y-90179997D01*
X188949516Y-90072507D01*
X188888624Y-89981375D01*
X188797492Y-89920483D01*
X188690003Y-89899103D01*
X188689997Y-89899103D01*
X188582507Y-89920483D01*
X188491375Y-89981375D01*
X188430483Y-90072507D01*
X188409103Y-90179997D01*
X114880500Y-90179997D01*
X114880500Y-88709997D01*
X182389103Y-88709997D01*
X182389103Y-88710002D01*
X182410483Y-88817492D01*
X182471375Y-88908624D01*
X182531991Y-88949126D01*
X182562505Y-88969515D01*
X182562507Y-88969516D01*
X182669997Y-88990897D01*
X182670000Y-88990897D01*
X182670003Y-88990897D01*
X182777492Y-88969516D01*
X182777492Y-88969515D01*
X182777495Y-88969515D01*
X182868624Y-88908624D01*
X182929515Y-88817495D01*
X182937472Y-88777495D01*
X182950897Y-88710002D01*
X182950897Y-88709997D01*
X182942941Y-88669997D01*
X185689103Y-88669997D01*
X185689103Y-88670002D01*
X185710483Y-88777492D01*
X185771375Y-88868624D01*
X185831240Y-88908624D01*
X185862505Y-88929515D01*
X185862507Y-88929516D01*
X185969997Y-88950897D01*
X185970000Y-88950897D01*
X185970003Y-88950897D01*
X186077492Y-88929516D01*
X186077492Y-88929515D01*
X186077495Y-88929515D01*
X186168624Y-88868624D01*
X186229515Y-88777495D01*
X186242941Y-88710002D01*
X186250897Y-88670002D01*
X186250897Y-88669997D01*
X186229516Y-88562507D01*
X186168624Y-88471375D01*
X186077492Y-88410483D01*
X185970003Y-88389103D01*
X185969997Y-88389103D01*
X185862507Y-88410483D01*
X185771375Y-88471375D01*
X185710483Y-88562507D01*
X185689103Y-88669997D01*
X182942941Y-88669997D01*
X182929516Y-88602507D01*
X182868624Y-88511375D01*
X182777492Y-88450483D01*
X182670003Y-88429103D01*
X182669997Y-88429103D01*
X182562507Y-88450483D01*
X182471375Y-88511375D01*
X182410483Y-88602507D01*
X182389103Y-88709997D01*
X114880500Y-88709997D01*
X114880500Y-88179997D01*
X188439103Y-88179997D01*
X188439103Y-88180002D01*
X188460483Y-88287492D01*
X188521375Y-88378624D01*
X188569056Y-88410483D01*
X188612505Y-88439515D01*
X188612507Y-88439516D01*
X188719997Y-88460897D01*
X188720000Y-88460897D01*
X188720003Y-88460897D01*
X188827492Y-88439516D01*
X188827492Y-88439515D01*
X188827495Y-88439515D01*
X188918624Y-88378624D01*
X188979515Y-88287495D01*
X189000897Y-88180000D01*
X189000897Y-88179997D01*
X188979516Y-88072507D01*
X188918624Y-87981375D01*
X188827492Y-87920483D01*
X188720003Y-87899103D01*
X188719997Y-87899103D01*
X188612507Y-87920483D01*
X188521375Y-87981375D01*
X188460483Y-88072507D01*
X188439103Y-88179997D01*
X114880500Y-88179997D01*
X114880500Y-87699997D01*
X182359103Y-87699997D01*
X182359103Y-87700002D01*
X182380483Y-87807492D01*
X182441375Y-87898624D01*
X182474090Y-87920483D01*
X182532505Y-87959515D01*
X182532507Y-87959516D01*
X182639997Y-87980897D01*
X182640000Y-87980897D01*
X182640003Y-87980897D01*
X182747492Y-87959516D01*
X182747492Y-87959515D01*
X182747495Y-87959515D01*
X182838624Y-87898624D01*
X182899515Y-87807495D01*
X182903494Y-87787495D01*
X182920897Y-87700002D01*
X182920897Y-87699997D01*
X182916919Y-87679997D01*
X185699103Y-87679997D01*
X185699103Y-87680002D01*
X185720483Y-87787492D01*
X185781375Y-87878624D01*
X185841991Y-87919126D01*
X185872505Y-87939515D01*
X185872507Y-87939516D01*
X185979997Y-87960897D01*
X185980000Y-87960897D01*
X185980003Y-87960897D01*
X186087492Y-87939516D01*
X186087492Y-87939515D01*
X186087495Y-87939515D01*
X186178624Y-87878624D01*
X186239515Y-87787495D01*
X186256919Y-87700002D01*
X186260897Y-87680002D01*
X186260897Y-87679997D01*
X186239516Y-87572507D01*
X186178624Y-87481375D01*
X186087492Y-87420483D01*
X185980003Y-87399103D01*
X185979997Y-87399103D01*
X185872507Y-87420483D01*
X185781375Y-87481375D01*
X185720483Y-87572507D01*
X185699103Y-87679997D01*
X182916919Y-87679997D01*
X182899516Y-87592507D01*
X182838624Y-87501375D01*
X182747492Y-87440483D01*
X182640003Y-87419103D01*
X182639997Y-87419103D01*
X182532507Y-87440483D01*
X182441375Y-87501375D01*
X182380483Y-87592507D01*
X182359103Y-87699997D01*
X114880500Y-87699997D01*
X114880500Y-87179997D01*
X188439103Y-87179997D01*
X188439103Y-87180002D01*
X188460483Y-87287492D01*
X188521375Y-87378624D01*
X188581957Y-87419103D01*
X188612505Y-87439515D01*
X188612507Y-87439516D01*
X188719997Y-87460897D01*
X188720000Y-87460897D01*
X188720003Y-87460897D01*
X188827492Y-87439516D01*
X188827492Y-87439515D01*
X188827495Y-87439515D01*
X188918624Y-87378624D01*
X188979515Y-87287495D01*
X189000897Y-87180000D01*
X189000897Y-87179997D01*
X188979516Y-87072507D01*
X188918624Y-86981375D01*
X188827492Y-86920483D01*
X188720003Y-86899103D01*
X188719997Y-86899103D01*
X188612507Y-86920483D01*
X188521375Y-86981375D01*
X188460483Y-87072507D01*
X188439103Y-87179997D01*
X114880500Y-87179997D01*
X114880500Y-86689997D01*
X182359103Y-86689997D01*
X182359103Y-86690002D01*
X182380483Y-86797492D01*
X182441375Y-86888624D01*
X182489056Y-86920483D01*
X182532505Y-86949515D01*
X182532507Y-86949516D01*
X182639997Y-86970897D01*
X182640000Y-86970897D01*
X182640003Y-86970897D01*
X182747492Y-86949516D01*
X182747492Y-86949515D01*
X182747495Y-86949515D01*
X182838624Y-86888624D01*
X182899515Y-86797495D01*
X182901505Y-86787495D01*
X182920897Y-86690002D01*
X182920897Y-86689997D01*
X182918908Y-86679997D01*
X185679103Y-86679997D01*
X185679103Y-86680002D01*
X185700483Y-86787492D01*
X185761375Y-86878624D01*
X185821991Y-86919126D01*
X185852505Y-86939515D01*
X185852507Y-86939516D01*
X185959997Y-86960897D01*
X185960000Y-86960897D01*
X185960003Y-86960897D01*
X186067492Y-86939516D01*
X186067492Y-86939515D01*
X186067495Y-86939515D01*
X186158624Y-86878624D01*
X186219515Y-86787495D01*
X186238908Y-86690002D01*
X186240897Y-86680002D01*
X186240897Y-86679997D01*
X186219516Y-86572507D01*
X186158624Y-86481375D01*
X186067492Y-86420483D01*
X185960003Y-86399103D01*
X185959997Y-86399103D01*
X185852507Y-86420483D01*
X185761375Y-86481375D01*
X185700483Y-86572507D01*
X185679103Y-86679997D01*
X182918908Y-86679997D01*
X182899516Y-86582507D01*
X182838624Y-86491375D01*
X182747492Y-86430483D01*
X182640003Y-86409103D01*
X182639997Y-86409103D01*
X182532507Y-86430483D01*
X182441375Y-86491375D01*
X182380483Y-86582507D01*
X182359103Y-86689997D01*
X114880500Y-86689997D01*
X114880500Y-86179997D01*
X188449103Y-86179997D01*
X188449103Y-86180002D01*
X188470483Y-86287492D01*
X188531375Y-86378624D01*
X188591991Y-86419126D01*
X188622505Y-86439515D01*
X188622507Y-86439516D01*
X188729997Y-86460897D01*
X188730000Y-86460897D01*
X188730003Y-86460897D01*
X188837492Y-86439516D01*
X188837492Y-86439515D01*
X188837495Y-86439515D01*
X188928624Y-86378624D01*
X188989515Y-86287495D01*
X189010897Y-86180000D01*
X189010897Y-86179997D01*
X188989516Y-86072507D01*
X188928624Y-85981375D01*
X188837492Y-85920483D01*
X188730003Y-85899103D01*
X188729997Y-85899103D01*
X188622507Y-85920483D01*
X188531375Y-85981375D01*
X188470483Y-86072507D01*
X188449103Y-86179997D01*
X114880500Y-86179997D01*
X114880500Y-85719997D01*
X182359103Y-85719997D01*
X182359103Y-85720002D01*
X182380483Y-85827492D01*
X182441375Y-85918624D01*
X182501991Y-85959126D01*
X182532505Y-85979515D01*
X182532507Y-85979516D01*
X182639997Y-86000897D01*
X182640000Y-86000897D01*
X182640003Y-86000897D01*
X182747492Y-85979516D01*
X182747492Y-85979515D01*
X182747495Y-85979515D01*
X182838624Y-85918624D01*
X182899515Y-85827495D01*
X182907472Y-85787495D01*
X182920897Y-85720002D01*
X182920897Y-85719997D01*
X182912941Y-85679997D01*
X185669103Y-85679997D01*
X185669103Y-85680002D01*
X185690483Y-85787492D01*
X185751375Y-85878624D01*
X185811240Y-85918624D01*
X185842505Y-85939515D01*
X185842507Y-85939516D01*
X185949997Y-85960897D01*
X185950000Y-85960897D01*
X185950003Y-85960897D01*
X186057492Y-85939516D01*
X186057492Y-85939515D01*
X186057495Y-85939515D01*
X186148624Y-85878624D01*
X186209515Y-85787495D01*
X186222941Y-85720002D01*
X186230897Y-85680002D01*
X186230897Y-85679997D01*
X186209516Y-85572507D01*
X186148624Y-85481375D01*
X186057492Y-85420483D01*
X185950003Y-85399103D01*
X185949997Y-85399103D01*
X185842507Y-85420483D01*
X185751375Y-85481375D01*
X185690483Y-85572507D01*
X185669103Y-85679997D01*
X182912941Y-85679997D01*
X182899516Y-85612507D01*
X182838624Y-85521375D01*
X182747492Y-85460483D01*
X182640003Y-85439103D01*
X182639997Y-85439103D01*
X182532507Y-85460483D01*
X182441375Y-85521375D01*
X182380483Y-85612507D01*
X182359103Y-85719997D01*
X114880500Y-85719997D01*
X114880500Y-85169997D01*
X188409103Y-85169997D01*
X188409103Y-85170002D01*
X188430483Y-85277492D01*
X188491375Y-85368624D01*
X188551991Y-85409126D01*
X188582505Y-85429515D01*
X188582507Y-85429516D01*
X188689997Y-85450897D01*
X188690000Y-85450897D01*
X188690003Y-85450897D01*
X188797492Y-85429516D01*
X188797492Y-85429515D01*
X188797495Y-85429515D01*
X188888624Y-85368624D01*
X188949515Y-85277495D01*
X188970897Y-85170000D01*
X188970897Y-85169997D01*
X188949516Y-85062507D01*
X188888624Y-84971375D01*
X188797492Y-84910483D01*
X188690003Y-84889103D01*
X188689997Y-84889103D01*
X188582507Y-84910483D01*
X188491375Y-84971375D01*
X188430483Y-85062507D01*
X188409103Y-85169997D01*
X114880500Y-85169997D01*
X114880500Y-84689997D01*
X182359103Y-84689997D01*
X182359103Y-84690002D01*
X182380483Y-84797492D01*
X182441375Y-84888624D01*
X182474090Y-84910483D01*
X182532505Y-84949515D01*
X182532507Y-84949516D01*
X182639997Y-84970897D01*
X182640000Y-84970897D01*
X182640003Y-84970897D01*
X182747492Y-84949516D01*
X182747492Y-84949515D01*
X182747495Y-84949515D01*
X182838624Y-84888624D01*
X182899515Y-84797495D01*
X182920897Y-84690000D01*
X182920897Y-84689997D01*
X185679103Y-84689997D01*
X185679103Y-84690002D01*
X185700483Y-84797492D01*
X185761375Y-84888624D01*
X185794090Y-84910483D01*
X185852505Y-84949515D01*
X185852507Y-84949516D01*
X185959997Y-84970897D01*
X185960000Y-84970897D01*
X185960003Y-84970897D01*
X186067492Y-84949516D01*
X186067492Y-84949515D01*
X186067495Y-84949515D01*
X186158624Y-84888624D01*
X186219515Y-84797495D01*
X186240897Y-84690000D01*
X186240897Y-84689997D01*
X186219516Y-84582507D01*
X186158624Y-84491375D01*
X186067492Y-84430483D01*
X185960003Y-84409103D01*
X185959997Y-84409103D01*
X185852507Y-84430483D01*
X185761375Y-84491375D01*
X185700483Y-84582507D01*
X185679103Y-84689997D01*
X182920897Y-84689997D01*
X182899516Y-84582507D01*
X182838624Y-84491375D01*
X182747492Y-84430483D01*
X182640003Y-84409103D01*
X182639997Y-84409103D01*
X182532507Y-84430483D01*
X182441375Y-84491375D01*
X182380483Y-84582507D01*
X182359103Y-84689997D01*
X114880500Y-84689997D01*
X114880500Y-84149997D01*
X188419103Y-84149997D01*
X188419103Y-84150002D01*
X188440483Y-84257492D01*
X188501375Y-84348624D01*
X188561991Y-84389126D01*
X188592505Y-84409515D01*
X188592507Y-84409516D01*
X188699997Y-84430897D01*
X188700000Y-84430897D01*
X188700003Y-84430897D01*
X188807492Y-84409516D01*
X188807492Y-84409515D01*
X188807495Y-84409515D01*
X188898624Y-84348624D01*
X188959515Y-84257495D01*
X188980897Y-84150000D01*
X188980897Y-84149997D01*
X188959516Y-84042507D01*
X188898624Y-83951375D01*
X188807492Y-83890483D01*
X188700003Y-83869103D01*
X188699997Y-83869103D01*
X188592507Y-83890483D01*
X188501375Y-83951375D01*
X188440483Y-84042507D01*
X188419103Y-84149997D01*
X114880500Y-84149997D01*
X114880500Y-82699997D01*
X182349103Y-82699997D01*
X182349103Y-82700002D01*
X182370483Y-82807492D01*
X182431375Y-82898624D01*
X182491991Y-82939126D01*
X182522505Y-82959515D01*
X182522507Y-82959516D01*
X182629997Y-82980897D01*
X182630000Y-82980897D01*
X182630003Y-82980897D01*
X182737492Y-82959516D01*
X182737492Y-82959515D01*
X182737495Y-82959515D01*
X182828624Y-82898624D01*
X182889515Y-82807495D01*
X182895483Y-82777495D01*
X182910897Y-82700002D01*
X182910897Y-82699997D01*
X182904930Y-82669997D01*
X185709103Y-82669997D01*
X185709103Y-82670002D01*
X185730483Y-82777492D01*
X185791375Y-82868624D01*
X185836274Y-82898624D01*
X185882505Y-82929515D01*
X185882507Y-82929516D01*
X185989997Y-82950897D01*
X185990000Y-82950897D01*
X185990003Y-82950897D01*
X186097492Y-82929516D01*
X186097492Y-82929515D01*
X186097495Y-82929515D01*
X186188624Y-82868624D01*
X186249515Y-82777495D01*
X186264930Y-82700002D01*
X186270897Y-82670002D01*
X186270897Y-82669997D01*
X186249516Y-82562507D01*
X186188624Y-82471375D01*
X186097492Y-82410483D01*
X185990003Y-82389103D01*
X185989997Y-82389103D01*
X185882507Y-82410483D01*
X185791375Y-82471375D01*
X185730483Y-82562507D01*
X185709103Y-82669997D01*
X182904930Y-82669997D01*
X182889516Y-82592507D01*
X182828624Y-82501375D01*
X182737492Y-82440483D01*
X182630003Y-82419103D01*
X182629997Y-82419103D01*
X182522507Y-82440483D01*
X182431375Y-82501375D01*
X182370483Y-82592507D01*
X182349103Y-82699997D01*
X114880500Y-82699997D01*
X114880500Y-82179997D01*
X188389103Y-82179997D01*
X188389103Y-82180002D01*
X188410483Y-82287492D01*
X188471375Y-82378624D01*
X188519056Y-82410483D01*
X188562505Y-82439515D01*
X188562507Y-82439516D01*
X188669997Y-82460897D01*
X188670000Y-82460897D01*
X188670003Y-82460897D01*
X188777492Y-82439516D01*
X188777492Y-82439515D01*
X188777495Y-82439515D01*
X188868624Y-82378624D01*
X188929515Y-82287495D01*
X188950897Y-82180000D01*
X188950897Y-82179997D01*
X188929516Y-82072507D01*
X188868624Y-81981375D01*
X188777492Y-81920483D01*
X188670003Y-81899103D01*
X188669997Y-81899103D01*
X188562507Y-81920483D01*
X188471375Y-81981375D01*
X188410483Y-82072507D01*
X188389103Y-82179997D01*
X114880500Y-82179997D01*
X114880500Y-81658997D01*
X179800103Y-81658997D01*
X179800103Y-81659002D01*
X179821483Y-81766492D01*
X179882375Y-81857624D01*
X179942991Y-81898126D01*
X179973505Y-81918515D01*
X179973507Y-81918516D01*
X180080997Y-81939897D01*
X180081000Y-81939897D01*
X180081003Y-81939897D01*
X180188492Y-81918516D01*
X180188492Y-81918515D01*
X180188495Y-81918515D01*
X180279624Y-81857624D01*
X180340515Y-81766495D01*
X180361897Y-81659000D01*
X180361897Y-81658997D01*
X180340516Y-81551507D01*
X180286053Y-81469997D01*
X185899103Y-81469997D01*
X185899103Y-81470002D01*
X185920483Y-81577492D01*
X185981375Y-81668624D01*
X186041991Y-81709126D01*
X186072505Y-81729515D01*
X186072507Y-81729516D01*
X186179997Y-81750897D01*
X186180000Y-81750897D01*
X186180003Y-81750897D01*
X186287492Y-81729516D01*
X186287492Y-81729515D01*
X186287495Y-81729515D01*
X186378624Y-81668624D01*
X186439515Y-81577495D01*
X186444685Y-81551507D01*
X186460897Y-81470002D01*
X186460897Y-81469997D01*
X186439516Y-81362507D01*
X186378624Y-81271375D01*
X186287492Y-81210483D01*
X186180003Y-81189103D01*
X186179997Y-81189103D01*
X186072507Y-81210483D01*
X185981375Y-81271375D01*
X185920483Y-81362507D01*
X185899103Y-81469997D01*
X180286053Y-81469997D01*
X180279624Y-81460375D01*
X180188492Y-81399483D01*
X180081003Y-81378103D01*
X180080997Y-81378103D01*
X179973507Y-81399483D01*
X179882375Y-81460375D01*
X179821483Y-81551507D01*
X179800103Y-81658997D01*
X114880500Y-81658997D01*
X114880500Y-81169997D01*
X182129103Y-81169997D01*
X182129103Y-81170002D01*
X182150483Y-81277492D01*
X182211375Y-81368624D01*
X182257559Y-81399483D01*
X182302505Y-81429515D01*
X182302507Y-81429516D01*
X182409997Y-81450897D01*
X182410000Y-81450897D01*
X182410003Y-81450897D01*
X182517492Y-81429516D01*
X182517492Y-81429515D01*
X182517495Y-81429515D01*
X182608624Y-81368624D01*
X182669515Y-81277495D01*
X182670733Y-81271376D01*
X182688909Y-81179997D01*
X188489103Y-81179997D01*
X188489103Y-81180002D01*
X188510483Y-81287492D01*
X188571375Y-81378624D01*
X188602593Y-81399483D01*
X188662505Y-81439515D01*
X188662507Y-81439516D01*
X188769997Y-81460897D01*
X188770000Y-81460897D01*
X188770003Y-81460897D01*
X188877492Y-81439516D01*
X188877492Y-81439515D01*
X188877495Y-81439515D01*
X188968624Y-81378624D01*
X189029515Y-81287495D01*
X189031505Y-81277495D01*
X189050897Y-81180002D01*
X189050897Y-81179997D01*
X189029516Y-81072507D01*
X188968624Y-80981375D01*
X188877492Y-80920483D01*
X188770003Y-80899103D01*
X188769997Y-80899103D01*
X188662507Y-80920483D01*
X188571375Y-80981375D01*
X188510483Y-81072507D01*
X188489103Y-81179997D01*
X182688909Y-81179997D01*
X182690897Y-81170002D01*
X182690897Y-81169997D01*
X182669516Y-81062507D01*
X182608624Y-80971375D01*
X182517492Y-80910483D01*
X182410003Y-80889103D01*
X182409997Y-80889103D01*
X182302507Y-80910483D01*
X182211375Y-80971375D01*
X182150483Y-81062507D01*
X182129103Y-81169997D01*
X114880500Y-81169997D01*
X114880500Y-80329997D01*
X182220103Y-80329997D01*
X182220103Y-80330002D01*
X182241483Y-80437492D01*
X182302375Y-80528624D01*
X182362991Y-80569126D01*
X182393505Y-80589515D01*
X182393507Y-80589516D01*
X182500997Y-80610897D01*
X182501000Y-80610897D01*
X182501003Y-80610897D01*
X182608492Y-80589516D01*
X182608492Y-80589515D01*
X182608495Y-80589515D01*
X182699624Y-80528624D01*
X182742139Y-80464997D01*
X188284103Y-80464997D01*
X188284103Y-80465002D01*
X188305483Y-80572492D01*
X188366375Y-80663624D01*
X188426991Y-80704126D01*
X188457505Y-80724515D01*
X188457507Y-80724516D01*
X188564997Y-80745897D01*
X188565000Y-80745897D01*
X188565003Y-80745897D01*
X188672492Y-80724516D01*
X188672492Y-80724515D01*
X188672495Y-80724515D01*
X188763624Y-80663624D01*
X188824515Y-80572495D01*
X188833242Y-80528624D01*
X188845897Y-80465002D01*
X188845897Y-80464997D01*
X188824516Y-80357507D01*
X188763624Y-80266375D01*
X188672492Y-80205483D01*
X188565003Y-80184103D01*
X188564997Y-80184103D01*
X188457507Y-80205483D01*
X188366375Y-80266375D01*
X188305483Y-80357507D01*
X188284103Y-80464997D01*
X182742139Y-80464997D01*
X182760515Y-80437495D01*
X182781897Y-80330000D01*
X182781897Y-80329997D01*
X182760516Y-80222507D01*
X182699624Y-80131375D01*
X182608492Y-80070483D01*
X182501003Y-80049103D01*
X182500997Y-80049103D01*
X182393507Y-80070483D01*
X182302375Y-80131375D01*
X182241483Y-80222507D01*
X182220103Y-80329997D01*
X114880500Y-80329997D01*
X114880500Y-79161927D01*
X183697500Y-79161927D01*
X183697500Y-79290072D01*
X183722497Y-79415737D01*
X183722498Y-79415742D01*
X183722499Y-79415744D01*
X183771535Y-79534127D01*
X183842724Y-79640669D01*
X183933331Y-79731276D01*
X184039873Y-79802465D01*
X184158256Y-79851501D01*
X184283931Y-79876500D01*
X184412069Y-79876500D01*
X184537744Y-79851501D01*
X184656127Y-79802465D01*
X184762669Y-79731276D01*
X184853276Y-79640669D01*
X184924465Y-79534127D01*
X184973501Y-79415744D01*
X184998500Y-79290069D01*
X184998500Y-79161931D01*
X184973501Y-79036256D01*
X184924465Y-78917873D01*
X184853276Y-78811331D01*
X184762669Y-78720724D01*
X184656127Y-78649535D01*
X184537744Y-78600499D01*
X184537742Y-78600498D01*
X184537737Y-78600497D01*
X184412072Y-78575500D01*
X184412069Y-78575500D01*
X184283931Y-78575500D01*
X184283927Y-78575500D01*
X184158262Y-78600497D01*
X184158257Y-78600498D01*
X184039874Y-78649534D01*
X183933331Y-78720723D01*
X183842723Y-78811331D01*
X183771534Y-78917874D01*
X183722498Y-79036257D01*
X183722497Y-79036262D01*
X183697500Y-79161927D01*
X114880500Y-79161927D01*
X114880500Y-77402406D01*
X114880736Y-77397603D01*
X114894428Y-77258582D01*
X114896302Y-77249161D01*
X114936153Y-77117790D01*
X114939822Y-77108930D01*
X115004542Y-76987850D01*
X115009871Y-76979874D01*
X115096961Y-76873753D01*
X115103754Y-76866961D01*
X115209874Y-76779871D01*
X115217850Y-76774542D01*
X115338930Y-76709822D01*
X115347790Y-76706153D01*
X115479162Y-76666301D01*
X115488581Y-76664428D01*
X115627604Y-76650736D01*
X115632407Y-76650500D01*
X115674170Y-76650500D01*
X198785830Y-76650500D01*
X198827593Y-76650500D01*
X198832396Y-76650736D01*
G37*
%TD.AperFunction*%
M02*
