M48
; DRILL file {KiCad 9.0.4} date 2025-08-26T10:42:27+0200
; FORMAT={-:-/ absolute / metric / decimal}
; #@! TF.CreationDate,2025-08-26T10:42:27+02:00
; #@! TF.GenerationSoftware,Kicad,Pcbnew,9.0.4
; #@! TF.FileFunction,Plated,1,6,Blind
FMAT,2
METRIC
; #@! TA.AperFunction,Plated,Buried,ViaDrill
T1C0.150
%
G90
G05
T1
X182.57Y-117.12
X182.66Y-115.9
X183.41Y-118.08
X183.563Y-91.679
X184.38Y-92.67
X185.73Y-94.81
X185.79Y-93.67
X185.856Y-107.22
X185.95Y-85.68
X185.96Y-84.69
X185.96Y-86.68
X185.97Y-88.67
X185.98Y-87.68
X185.99Y-82.67
X185.99Y-96.7
X186.03Y-90.67
X189.1Y-108.25
X189.66Y-109.17
X190.36Y-109.72
X191.04Y-110.63
X191.76Y-112.56
X192.135Y-113.75
X195.58Y-114.39
X196.15Y-115.5
X197.11Y-116.55
X197.79Y-118.16
X198.72Y-120.13
M30
