M48
; DRILL file {KiCad 9.0.4} date 2025-08-26T10:42:27+0200
; FORMAT={-:-/ absolute / metric / decimal}
; #@! TF.CreationDate,2025-08-26T10:42:27+02:00
; #@! TF.GenerationSoftware,Kicad,Pcbnew,9.0.4
; #@! TF.FileFunction,Plated,5,7,Buried
FMAT,2
METRIC
; #@! TA.AperFunction,Plated,Buried,ViaDrill
T1C0.150
%
G90
G05
T1
X155.42Y-129.05
X155.421Y-109.425
X155.63Y-115.77
X155.8Y-123.8
X155.87Y-102.6
X157.07Y-126.58
X157.1Y-99.41
X157.2Y-135.46
X157.24Y-116.35
X157.24Y-123.21
X157.24Y-133.37
X157.31Y-106.23
X158.03Y-101.3
X158.41Y-124.9
X158.41Y-133.2
X158.41Y-135.47
X158.51Y-111.31
X158.51Y-118.31
X158.78Y-103.57
X159.64Y-130.59
X159.67Y-123.73
X159.67Y-135.48
X159.71Y-109.29
X159.777Y-97.144
X160.82Y-135.48
X160.83Y-123.81
X160.83Y-133.64
X160.85Y-113.01
X161.18Y-102.94
X161.22Y-98.14
X161.97Y-99.51
X162.02Y-130.48
X162.05Y-135.46
X162.11Y-120.44
X162.13Y-106.45
X162.35Y-103.8
X162.967Y-94.537
X163.17Y-120.3
X163.24Y-134.33
X163.25Y-135.48
X163.27Y-108.12
X164.75Y-122.9
X164.78Y-110.73
X165.13Y-128.67
X165.44Y-91.76
X165.51Y-94.19
X166.57Y-97.45
X166.58Y-109.37
X166.63Y-105.82
X166.72Y-121.38
X167.08Y-128.42
X167.4Y-133.34
X167.5Y-89.67
X167.5Y-93.95
X167.56Y-102.9
X168.04Y-118.91
X168.31Y-100.07
X168.45Y-127.76
X168.63Y-97.59
X168.98Y-133.75
X169.04Y-135.45
X169.66Y-89.91
X169.826Y-108.093
X170.24Y-133.41
X170.29Y-135.46
X170.421Y-118.956
X170.65Y-127.49
X171.234Y-85.756
X171.27Y-92.72
X171.42Y-135.42
X171.59Y-132.38
X171.72Y-111.34
X171.78Y-100.95
X172.48Y-134.08
X172.68Y-129.59
X172.68Y-135.46
X173.7Y-96.87
X173.85Y-135.43
X173.87Y-132.29
X173.98Y-87.57
X174.22Y-91.86
X174.25Y-103.35
X174.53Y-82.6
X174.53Y-93.71
X174.94Y-135.44
X175.11Y-112.46
X175.11Y-133.48
X175.25Y-123.03
X175.429Y-106.881
X175.841Y-118.567
X176.25Y-135.46
X176.81Y-130.25
X177.17Y-124.28
X177.21Y-128.39
X177.27Y-83.73
X177.49Y-113.72
X177.54Y-95.08
X177.75Y-86.24
X177.81Y-99.7
X178.151Y-116.875
X178.82Y-81.61
X178.95Y-87.44
X179.04Y-105.23
X179.04Y-127.75
X179.25Y-109.67
X179.69Y-125.92
X179.75Y-119.05
X180.09Y-129.32
X180.77Y-88.17
X181.72Y-131.69
X181.76Y-135.43
X182.38Y-123.09
X182.82Y-131.46
X182.92Y-135.49
X183.07Y-81.88
X184.08Y-131.46
X184.15Y-135.46
X184.42Y-119.09
X184.53Y-99.35
X184.56Y-108.36
X184.61Y-89.56
X184.72Y-125.99
X184.96Y-81.88
X185.07Y-135.88
X185.18Y-128.84
X185.38Y-120.19
X185.43Y-111.5
X186.02Y-135.61
X186.12Y-129.16
X186.27Y-125.81
X186.32Y-112.82
X186.32Y-120.55
X187.05Y-115.52
X187.19Y-133.23
X187.2Y-135.47
X187.59Y-128.52
X187.85Y-118.86
X188.01Y-110.17
X188.17Y-127.41
X188.33Y-111.72
X188.34Y-135.48
X188.358Y-130.626
X189.5Y-133.32
X189.56Y-135.49
X189.96Y-127.13
X190.78Y-135.51
X191.93Y-133.26
X191.95Y-135.47
X193.0Y-119.31
X193.024Y-128.614
X193.09Y-116.74
X193.12Y-133.12
X193.14Y-135.51
X194.24Y-133.85
X194.32Y-135.52
X194.533Y-114.527
X194.74Y-122.21
X194.99Y-118.99
X195.13Y-126.44
X195.26Y-128.04
X195.52Y-133.14
X195.54Y-135.48
X196.8Y-135.49
X196.93Y-133.19
X198.01Y-128.25
X198.15Y-123.58
X199.18Y-129.6
X199.36Y-122.53
M30
