M48
; DRILL file {KiCad 9.0.4} date 2025-08-26T10:42:27+0200
; FORMAT={-:-/ absolute / metric / decimal}
; #@! TF.CreationDate,2025-08-26T10:42:27+02:00
; #@! TF.GenerationSoftware,Kicad,Pcbnew,9.0.4
; #@! TF.FileFunction,MixedPlating,1,8
FMAT,2
METRIC
; #@! TA.AperFunction,Plated,PTH,ViaDrill
T1C0.150
; #@! TA.AperFunction,Plated,PTH,ComponentDrill
T2C1.000
; #@! TA.AperFunction,Plated,PTH,ComponentDrill
T3C1.300
; #@! TA.AperFunction,NonPlated,NPTH,ComponentDrill
T4C1.100
; #@! TA.AperFunction,NonPlated,NPTH,ComponentDrill
T5C1.200
%
G90
G05
T1
X115.13Y-100.2
X115.13Y-100.8
X115.13Y-101.4
X115.13Y-103.7
X115.13Y-104.3
X115.13Y-104.9
X115.13Y-109.7
X115.13Y-110.3
X115.13Y-110.9
X115.13Y-113.2
X115.13Y-113.8
X115.13Y-114.4
X115.73Y-100.2
X115.73Y-100.8
X115.73Y-101.4
X115.73Y-103.7
X115.73Y-104.3
X115.73Y-104.9
X115.73Y-109.7
X115.73Y-110.3
X115.73Y-110.9
X115.73Y-113.2
X115.73Y-113.8
X115.73Y-114.4
X116.33Y-100.2
X116.33Y-100.8
X116.33Y-101.4
X116.33Y-103.7
X116.33Y-104.3
X116.33Y-104.9
X116.33Y-109.7
X116.33Y-110.3
X116.33Y-110.9
X116.33Y-113.2
X116.33Y-113.8
X116.33Y-114.4
X117.84Y-88.285
X117.86Y-89.435
X117.869Y-85.575
X117.9Y-84.425
X118.173Y-99.513
X118.173Y-100.114
X118.173Y-100.713
X118.173Y-101.313
X118.173Y-101.913
X118.173Y-102.513
X118.173Y-103.013
X118.173Y-103.614
X118.173Y-104.213
X118.173Y-104.813
X118.173Y-105.413
X118.173Y-108.998
X118.173Y-109.599
X118.173Y-110.198
X118.173Y-110.798
X118.173Y-111.398
X118.173Y-111.998
X118.173Y-112.513
X118.173Y-113.114
X118.173Y-113.713
X118.173Y-114.313
X118.173Y-114.913
X118.773Y-99.513
X118.773Y-100.114
X118.773Y-100.713
X118.773Y-101.313
X118.773Y-101.913
X118.773Y-102.513
X118.773Y-103.013
X118.773Y-103.614
X118.773Y-104.213
X118.773Y-104.813
X118.773Y-105.413
X118.773Y-108.998
X118.773Y-109.599
X118.773Y-110.198
X118.773Y-110.798
X118.773Y-111.398
X118.773Y-111.998
X118.773Y-112.513
X118.773Y-113.114
X118.773Y-113.713
X118.773Y-114.313
X118.773Y-114.913
X119.373Y-99.513
X119.373Y-100.114
X119.373Y-100.713
X119.373Y-101.313
X119.373Y-101.913
X119.373Y-102.513
X119.373Y-103.013
X119.373Y-103.614
X119.373Y-104.213
X119.373Y-104.813
X119.373Y-105.413
X119.373Y-108.998
X119.373Y-109.599
X119.373Y-110.198
X119.373Y-110.798
X119.373Y-111.398
X119.373Y-111.998
X119.373Y-112.513
X119.373Y-113.114
X119.373Y-113.713
X119.373Y-114.313
X119.373Y-114.913
X119.974Y-99.513
X119.974Y-100.114
X119.974Y-100.713
X119.974Y-101.313
X119.974Y-101.913
X119.974Y-102.513
X119.974Y-103.013
X119.974Y-103.614
X119.974Y-104.213
X119.974Y-104.813
X119.974Y-105.413
X119.974Y-108.998
X119.974Y-109.599
X119.974Y-110.198
X119.974Y-110.798
X119.974Y-111.398
X119.974Y-111.998
X119.974Y-112.513
X119.974Y-113.114
X119.974Y-113.713
X119.974Y-114.313
X119.974Y-114.913
X120.573Y-100.114
X120.573Y-100.713
X120.573Y-101.313
X120.573Y-101.913
X120.573Y-102.513
X120.573Y-103.013
X120.573Y-103.614
X120.573Y-104.213
X120.573Y-104.813
X120.573Y-105.413
X120.573Y-108.998
X120.573Y-109.599
X120.573Y-110.198
X120.573Y-110.798
X120.573Y-111.398
X120.573Y-111.998
X120.573Y-112.513
X120.573Y-113.114
X120.573Y-113.713
X120.573Y-114.313
X129.19Y-107.86
X130.67Y-107.86
X130.89Y-102.59
X130.89Y-103.59
X130.89Y-105.59
X130.89Y-106.59
X131.39Y-102.59
X131.39Y-103.59
X131.39Y-104.59
X131.39Y-105.59
X131.39Y-106.59
X131.39Y-108.67
X131.39Y-109.17
X131.39Y-109.67
X131.39Y-110.17
X131.39Y-110.67
X131.39Y-111.17
X131.39Y-111.67
X131.39Y-112.17
X131.39Y-112.67
X131.39Y-113.17
X131.89Y-102.59
X131.89Y-103.59
X131.89Y-104.59
X131.89Y-105.59
X131.89Y-106.59
X131.89Y-108.67
X131.89Y-109.17
X131.89Y-109.67
X131.89Y-110.17
X131.89Y-110.67
X131.89Y-111.17
X131.89Y-111.67
X131.89Y-112.17
X131.89Y-112.67
X131.89Y-113.17
X131.89Y-113.67
X132.39Y-102.59
X132.39Y-103.59
X132.39Y-104.59
X132.39Y-105.59
X132.39Y-106.59
X132.39Y-108.67
X132.39Y-109.17
X132.39Y-109.67
X132.39Y-110.17
X132.39Y-110.67
X132.39Y-111.17
X132.39Y-111.67
X132.39Y-112.17
X132.39Y-112.67
X132.39Y-113.17
X132.39Y-113.67
X132.39Y-114.17
X132.89Y-102.59
X132.89Y-103.59
X132.89Y-104.59
X132.89Y-105.59
X132.89Y-106.59
X132.89Y-108.67
X132.89Y-109.17
X132.89Y-109.67
X132.89Y-110.17
X132.89Y-110.67
X132.89Y-111.17
X132.89Y-111.67
X132.89Y-112.17
X132.89Y-112.67
X132.89Y-113.17
X132.89Y-113.67
X132.89Y-114.17
X133.39Y-102.59
X133.39Y-103.59
X133.39Y-104.59
X133.39Y-105.59
X133.39Y-106.59
X133.39Y-108.67
X133.39Y-109.17
X133.39Y-109.67
X133.39Y-110.17
X133.39Y-110.67
X133.39Y-111.17
X133.39Y-111.67
X133.39Y-112.17
X133.39Y-112.67
X133.39Y-113.17
X133.39Y-113.67
X133.39Y-114.17
X133.89Y-102.59
X133.89Y-103.59
X133.89Y-104.59
X133.89Y-105.59
X133.89Y-106.59
X133.89Y-108.67
X133.89Y-109.17
X133.89Y-109.67
X133.89Y-110.17
X133.89Y-110.67
X133.89Y-111.17
X133.89Y-111.67
X133.89Y-112.17
X133.89Y-112.67
X133.89Y-113.17
X133.89Y-113.67
X133.89Y-114.17
X134.39Y-107.89
X136.78Y-107.86
X140.04Y-107.86
X142.13Y-107.84
X144.64Y-108.15
X145.68Y-109.41
X146.158Y-108.618
X146.58Y-110.15
X146.736Y-80.213
X147.23Y-109.29
X147.59Y-108.48
X147.63Y-134.66
X147.63Y-135.06
X147.63Y-135.46
X147.63Y-135.86
X147.63Y-136.26
X147.736Y-79.213
X147.79Y-111.68
X147.91Y-110.3
X148.23Y-134.66
X148.23Y-135.06
X148.23Y-135.46
X148.23Y-135.86
X148.23Y-136.26
X148.345Y-108.885
X148.59Y-112.48
X148.736Y-80.213
X148.788Y-110.78
X148.83Y-134.66
X148.83Y-135.06
X148.83Y-135.46
X148.83Y-135.86
X148.83Y-136.26
X149.32Y-109.79
X149.43Y-134.66
X149.43Y-135.06
X149.43Y-135.46
X149.43Y-135.86
X149.43Y-136.26
X149.66Y-111.24
X149.68Y-113.3
X149.98Y-126.56
X149.99Y-120.71
X150.0Y-115.98
X150.0Y-130.49
X150.03Y-134.66
X150.03Y-135.06
X150.03Y-135.46
X150.03Y-135.86
X150.03Y-136.26
X150.73Y-126.22
X150.73Y-126.6
X151.23Y-134.66
X151.23Y-135.06
X151.23Y-135.46
X151.23Y-135.86
X151.23Y-136.26
X151.69Y-129.32
X151.74Y-126.56
X152.11Y-100.938
X153.03Y-128.0
X153.06Y-126.62
X153.63Y-134.66
X153.63Y-135.06
X153.63Y-135.46
X153.63Y-135.86
X153.63Y-136.26
X154.23Y-134.66
X154.23Y-135.06
X154.23Y-135.46
X154.23Y-135.86
X154.23Y-136.26
X154.83Y-134.66
X154.83Y-135.06
X154.83Y-135.46
X154.83Y-135.86
X154.83Y-136.26
X155.43Y-134.66
X155.43Y-135.06
X155.43Y-135.46
X155.43Y-135.86
X155.43Y-136.26
X156.736Y-80.213
X157.736Y-79.213
X158.736Y-80.213
X179.723Y-120.297
X179.96Y-120.68
X180.081Y-81.659
X181.298Y-83.426
X181.298Y-89.426
X182.41Y-81.17
X182.501Y-80.33
X182.643Y-119.832
X182.85Y-117.56
X182.91Y-118.92
X182.94Y-120.17
X183.167Y-116.563
X183.262Y-117.003
X183.295Y-119.154
X183.296Y-117.617
X183.38Y-92.09
X184.164Y-93.065
X185.349Y-93.582
X185.368Y-95.078
X185.542Y-105.893
X185.87Y-89.109
X185.88Y-106.19
X185.955Y-96.251
X185.978Y-83.12
X186.18Y-81.47
X186.18Y-107.66
X186.18Y-108.18
X186.19Y-109.68
X186.225Y-109.231
X187.398Y-83.426
X187.398Y-89.426
X187.398Y-95.426
X188.565Y-80.465
X188.67Y-82.18
X188.69Y-85.17
X188.69Y-90.18
X188.7Y-84.15
X188.72Y-87.18
X188.72Y-88.18
X188.73Y-86.18
X188.75Y-91.18
X188.77Y-81.18
X188.78Y-92.19
X188.78Y-94.18
X188.79Y-93.17
X188.79Y-96.17
X189.119Y-82.211
X189.13Y-90.275
X189.137Y-85.218
X189.162Y-87.266
X189.163Y-88.262
X189.175Y-86.245
X189.181Y-91.309
X189.2Y-84.18
X189.217Y-94.289
X189.23Y-92.19
X189.236Y-93.228
X189.24Y-96.157
X189.33Y-110.31
X189.466Y-107.988
X189.545Y-113.455
X189.757Y-110.168
X190.03Y-112.98
X190.056Y-108.957
X190.19Y-114.44
X190.42Y-111.65
X190.559Y-114.697
X190.677Y-111.281
X190.758Y-109.51
X191.196Y-115.276
X191.36Y-114.83
X191.403Y-110.364
X192.149Y-112.333
X192.24Y-116.25
X192.541Y-113.555
X192.656Y-116.078
X194.98Y-117.12
X194.986Y-117.586
X196.009Y-114.254
X196.493Y-115.209
X197.07Y-119.33
X197.096Y-118.881
X197.558Y-116.587
X198.05Y-121.57
X198.192Y-121.143
X198.234Y-118.086
X198.787Y-119.685
T2
X121.98Y-104.59
X121.98Y-107.13
X121.98Y-109.67
T3
X129.698Y-78.3
X129.698Y-80.84
X129.698Y-122.0
X129.698Y-124.54
X132.238Y-78.3
X132.238Y-80.84
X132.238Y-122.0
X132.238Y-124.54
X134.778Y-78.3
X134.778Y-80.84
X134.778Y-122.0
X134.778Y-124.54
X137.318Y-78.3
X137.318Y-80.84
X137.318Y-122.0
X137.318Y-124.54
X171.493Y-78.3
X171.493Y-80.84
X171.493Y-122.0
X171.493Y-124.54
X174.033Y-78.28
X174.033Y-80.82
X190.533Y-78.28
X190.533Y-80.82
X190.533Y-121.98
X190.533Y-124.52
X193.073Y-78.28
X193.073Y-80.82
X193.073Y-121.98
X193.073Y-124.52
T4
X184.348Y-79.226
T5
X184.348Y-123.626
M30
