M48
; DRILL file {KiCad 9.0.4} date 2025-08-26T10:42:27+0200
; FORMAT={-:-/ absolute / metric / decimal}
; #@! TF.CreationDate,2025-08-26T10:42:27+02:00
; #@! TF.GenerationSoftware,Kicad,Pcbnew,9.0.4
; #@! TF.FileFunction,Plated,1,4,Blind
FMAT,2
METRIC
; #@! TA.AperFunction,Plated,Buried,ViaDrill
T1C0.150
%
G90
G05
T1
X153.048Y-100.245
X153.89Y-100.08
X153.918Y-100.468
X154.069Y-101.796
X154.276Y-100.924
X154.58Y-101.362
X179.91Y-115.19
X179.96Y-111.69
X180.223Y-110.748
X182.64Y-93.2
X182.64Y-97.2
X182.65Y-86.2
X182.65Y-87.19
X182.65Y-88.2
X182.65Y-92.21
X182.65Y-98.2
X182.65Y-109.21
X182.65Y-110.22
X182.66Y-91.2
X182.66Y-99.2
X182.67Y-85.18
X182.67Y-94.19
X182.67Y-111.21
X182.67Y-112.2
X182.68Y-103.21
X182.68Y-106.2
X182.69Y-100.2
X182.69Y-104.22
X182.69Y-105.21
X182.71Y-114.69
X182.966Y-82.999
X185.815Y-103.927
X185.977Y-99.62
X186.254Y-103.176
X188.68Y-99.52
X188.803Y-98.259
X189.197Y-103.6
X190.94Y-104.3
X191.72Y-104.17
X192.19Y-103.8
X192.29Y-106.54
X192.36Y-104.67
X192.52Y-105.62
X192.69Y-104.2
X192.75Y-106.75
X193.0Y-105.13
X193.1Y-106.24
M30
