<?xml version="1.0" standalone="no"?>
 <!DOCTYPE svg PUBLIC "-//W3C//DTD SVG 1.1//EN" 
 "http://www.w3.org/Graphics/SVG/1.1/DTD/svg11.dtd"> 
<svg
  xmlns:svg="http://www.w3.org/2000/svg"
  xmlns="http://www.w3.org/2000/svg"
  xmlns:xlink="http://www.w3.org/1999/xlink"
  version="1.1"
  width="297.0022mm" height="210.0072mm" viewBox="0.0000 0.0000 297.0022 210.0072">
<title>SVG Image created as trigger_scheme-VMM3a_ASIC_0.svg date 2025/09/05 14:54:20 </title>
  <desc>Image generated by Eeschema-SVG </desc>
<g style="fill:#000000; fill-opacity:1.0000;stroke:#000000; stroke-opacity:1.0000;
stroke-linecap:round; stroke-linejoin:round;"
 transform="translate(0 0) scale(1 1)">
</g>
<g style="fill:none; 
stroke:#725600; stroke-width:0.1524; stroke-opacity:1; 
stroke-linecap:round; stroke-linejoin:round;">
<text x="117.0305" y="100.9650"
textLength="11.5726" font-size="1.6933" lengthAdjust="spacingAndGlyphs"
text-anchor="start" opacity="0" stroke-opacity="0">Hybrid_ch_1</text>
<g class="stroked-text"><desc>Hybrid_ch_1</desc>
<path d="M117.4330 100.9095
L117.4330 99.6395
" />
<path d="M117.4330 100.2443
L118.1587 100.2443
" />
<path d="M118.1587 100.9095
L118.1587 99.6395
" />
<path d="M118.6426 100.0629
L118.9450 100.9095
" />
<path d="M119.2473 100.0629
L118.9450 100.9095
" />
<path d="M118.9450 100.9095
L118.8240 101.2119
" />
<path d="M118.8240 101.2119
L118.7635 101.2724
" />
<path d="M118.7635 101.2724
L118.6426 101.3329
" />
<path d="M119.7311 100.9095
L119.7311 99.6395
" />
<path d="M119.7311 100.1233
L119.8521 100.0629
" />
<path d="M119.8521 100.0629
L120.0940 100.0629
" />
<path d="M120.0940 100.0629
L120.2149 100.1233
" />
<path d="M120.2149 100.1233
L120.2754 100.1838
" />
<path d="M120.2754 100.1838
L120.3359 100.3048
" />
<path d="M120.3359 100.3048
L120.3359 100.6676
" />
<path d="M120.3359 100.6676
L120.2754 100.7886
" />
<path d="M120.2754 100.7886
L120.2149 100.8491
" />
<path d="M120.2149 100.8491
L120.0940 100.9095
" />
<path d="M120.0940 100.9095
L119.8521 100.9095
" />
<path d="M119.8521 100.9095
L119.7311 100.8491
" />
<path d="M120.8801 100.9095
L120.8801 100.0629
" />
<path d="M120.8801 100.3048
L120.9406 100.1838
" />
<path d="M120.9406 100.1838
L121.0011 100.1233
" />
<path d="M121.0011 100.1233
L121.1220 100.0629
" />
<path d="M121.1220 100.0629
L121.2430 100.0629
" />
<path d="M121.6663 100.9095
L121.6663 100.0629
" />
<path d="M121.6663 99.6395
L121.6059 99.7000
" />
<path d="M121.6059 99.7000
L121.6663 99.7605
" />
<path d="M121.6663 99.7605
L121.7268 99.7000
" />
<path d="M121.7268 99.7000
L121.6663 99.6395
" />
<path d="M121.6663 99.6395
L121.6663 99.7605
" />
<path d="M122.8154 100.9095
L122.8154 99.6395
" />
<path d="M122.8154 100.8491
L122.6945 100.9095
" />
<path d="M122.6945 100.9095
L122.4526 100.9095
" />
<path d="M122.4526 100.9095
L122.3316 100.8491
" />
<path d="M122.3316 100.8491
L122.2711 100.7886
" />
<path d="M122.2711 100.7886
L122.2107 100.6676
" />
<path d="M122.2107 100.6676
L122.2107 100.3048
" />
<path d="M122.2107 100.3048
L122.2711 100.1838
" />
<path d="M122.2711 100.1838
L122.3316 100.1233
" />
<path d="M122.3316 100.1233
L122.4526 100.0629
" />
<path d="M122.4526 100.0629
L122.6945 100.0629
" />
<path d="M122.6945 100.0629
L122.8154 100.1233
" />
<path d="M123.1178 101.0305
L124.0854 101.0305
" />
<path d="M124.9320 100.8491
L124.8111 100.9095
" />
<path d="M124.8111 100.9095
L124.5692 100.9095
" />
<path d="M124.5692 100.9095
L124.4482 100.8491
" />
<path d="M124.4482 100.8491
L124.3877 100.7886
" />
<path d="M124.3877 100.7886
L124.3273 100.6676
" />
<path d="M124.3273 100.6676
L124.3273 100.3048
" />
<path d="M124.3273 100.3048
L124.3877 100.1838
" />
<path d="M124.3877 100.1838
L124.4482 100.1233
" />
<path d="M124.4482 100.1233
L124.5692 100.0629
" />
<path d="M124.5692 100.0629
L124.8111 100.0629
" />
<path d="M124.8111 100.0629
L124.9320 100.1233
" />
<path d="M125.4763 100.9095
L125.4763 99.6395
" />
<path d="M126.0206 100.9095
L126.0206 100.2443
" />
<path d="M126.0206 100.2443
L125.9601 100.1233
" />
<path d="M125.9601 100.1233
L125.8392 100.0629
" />
<path d="M125.8392 100.0629
L125.6578 100.0629
" />
<path d="M125.6578 100.0629
L125.5368 100.1233
" />
<path d="M125.5368 100.1233
L125.4763 100.1838
" />
<path d="M126.3230 101.0305
L127.2906 101.0305
" />
<path d="M128.2582 100.9095
L127.5325 100.9095
" />
<path d="M127.8953 100.9095
L127.8953 99.6395
" />
<path d="M127.8953 99.6395
L127.7744 99.8210
" />
<path d="M127.7744 99.8210
L127.6534 99.9419
" />
<path d="M127.6534 99.9419
L127.5325 100.0024
" />
</g><path style="fill:none; 
stroke:#725600; stroke-width:0.1524; stroke-opacity:1; 
stroke-linecap:round; stroke-linejoin:round;fill:none"
d="M 115.5700,100.3300
116.2050,100.9650
116.8400,100.9650
116.8400,99.6950
116.2050,99.6950
Z" /> 
</g>
<g style="fill:none; 
stroke:#725600; stroke-width:0.1524; stroke-opacity:1; 
stroke-linecap:round; stroke-linejoin:round;">
<text x="117.0305" y="104.7750"
textLength="11.5726" font-size="1.6933" lengthAdjust="spacingAndGlyphs"
text-anchor="start" opacity="0" stroke-opacity="0">Hybrid_ch_3</text>
<g class="stroked-text"><desc>Hybrid_ch_3</desc>
<path d="M117.4330 104.7195
L117.4330 103.4495
" />
<path d="M117.4330 104.0543
L118.1587 104.0543
" />
<path d="M118.1587 104.7195
L118.1587 103.4495
" />
<path d="M118.6426 103.8729
L118.9450 104.7195
" />
<path d="M119.2473 103.8729
L118.9450 104.7195
" />
<path d="M118.9450 104.7195
L118.8240 105.0219
" />
<path d="M118.8240 105.0219
L118.7635 105.0824
" />
<path d="M118.7635 105.0824
L118.6426 105.1429
" />
<path d="M119.7311 104.7195
L119.7311 103.4495
" />
<path d="M119.7311 103.9333
L119.8521 103.8729
" />
<path d="M119.8521 103.8729
L120.0940 103.8729
" />
<path d="M120.0940 103.8729
L120.2149 103.9333
" />
<path d="M120.2149 103.9333
L120.2754 103.9938
" />
<path d="M120.2754 103.9938
L120.3359 104.1148
" />
<path d="M120.3359 104.1148
L120.3359 104.4776
" />
<path d="M120.3359 104.4776
L120.2754 104.5986
" />
<path d="M120.2754 104.5986
L120.2149 104.6591
" />
<path d="M120.2149 104.6591
L120.0940 104.7195
" />
<path d="M120.0940 104.7195
L119.8521 104.7195
" />
<path d="M119.8521 104.7195
L119.7311 104.6591
" />
<path d="M120.8801 104.7195
L120.8801 103.8729
" />
<path d="M120.8801 104.1148
L120.9406 103.9938
" />
<path d="M120.9406 103.9938
L121.0011 103.9333
" />
<path d="M121.0011 103.9333
L121.1220 103.8729
" />
<path d="M121.1220 103.8729
L121.2430 103.8729
" />
<path d="M121.6663 104.7195
L121.6663 103.8729
" />
<path d="M121.6663 103.4495
L121.6059 103.5100
" />
<path d="M121.6059 103.5100
L121.6663 103.5705
" />
<path d="M121.6663 103.5705
L121.7268 103.5100
" />
<path d="M121.7268 103.5100
L121.6663 103.4495
" />
<path d="M121.6663 103.4495
L121.6663 103.5705
" />
<path d="M122.8154 104.7195
L122.8154 103.4495
" />
<path d="M122.8154 104.6591
L122.6945 104.7195
" />
<path d="M122.6945 104.7195
L122.4526 104.7195
" />
<path d="M122.4526 104.7195
L122.3316 104.6591
" />
<path d="M122.3316 104.6591
L122.2711 104.5986
" />
<path d="M122.2711 104.5986
L122.2107 104.4776
" />
<path d="M122.2107 104.4776
L122.2107 104.1148
" />
<path d="M122.2107 104.1148
L122.2711 103.9938
" />
<path d="M122.2711 103.9938
L122.3316 103.9333
" />
<path d="M122.3316 103.9333
L122.4526 103.8729
" />
<path d="M122.4526 103.8729
L122.6945 103.8729
" />
<path d="M122.6945 103.8729
L122.8154 103.9333
" />
<path d="M123.1178 104.8405
L124.0854 104.8405
" />
<path d="M124.9320 104.6591
L124.8111 104.7195
" />
<path d="M124.8111 104.7195
L124.5692 104.7195
" />
<path d="M124.5692 104.7195
L124.4482 104.6591
" />
<path d="M124.4482 104.6591
L124.3877 104.5986
" />
<path d="M124.3877 104.5986
L124.3273 104.4776
" />
<path d="M124.3273 104.4776
L124.3273 104.1148
" />
<path d="M124.3273 104.1148
L124.3877 103.9938
" />
<path d="M124.3877 103.9938
L124.4482 103.9333
" />
<path d="M124.4482 103.9333
L124.5692 103.8729
" />
<path d="M124.5692 103.8729
L124.8111 103.8729
" />
<path d="M124.8111 103.8729
L124.9320 103.9333
" />
<path d="M125.4763 104.7195
L125.4763 103.4495
" />
<path d="M126.0206 104.7195
L126.0206 104.0543
" />
<path d="M126.0206 104.0543
L125.9601 103.9333
" />
<path d="M125.9601 103.9333
L125.8392 103.8729
" />
<path d="M125.8392 103.8729
L125.6578 103.8729
" />
<path d="M125.6578 103.8729
L125.5368 103.9333
" />
<path d="M125.5368 103.9333
L125.4763 103.9938
" />
<path d="M126.3230 104.8405
L127.2906 104.8405
" />
<path d="M127.4720 103.4495
L128.2582 103.4495
" />
<path d="M128.2582 103.4495
L127.8348 103.9333
" />
<path d="M127.8348 103.9333
L128.0163 103.9333
" />
<path d="M128.0163 103.9333
L128.1372 103.9938
" />
<path d="M128.1372 103.9938
L128.1977 104.0543
" />
<path d="M128.1977 104.0543
L128.2582 104.1752
" />
<path d="M128.2582 104.1752
L128.2582 104.4776
" />
<path d="M128.2582 104.4776
L128.1977 104.5986
" />
<path d="M128.1977 104.5986
L128.1372 104.6591
" />
<path d="M128.1372 104.6591
L128.0163 104.7195
" />
<path d="M128.0163 104.7195
L127.6534 104.7195
" />
<path d="M127.6534 104.7195
L127.5325 104.6591
" />
<path d="M127.5325 104.6591
L127.4720 104.5986
" />
</g><path style="fill:none; 
stroke:#725600; stroke-width:0.1524; stroke-opacity:1; 
stroke-linecap:round; stroke-linejoin:round;fill:none"
d="M 115.5700,104.1400
116.2050,104.7750
116.8400,104.7750
116.8400,103.5050
116.2050,103.5050
Z" /> 
</g>
<g style="fill:none; 
stroke:#725600; stroke-width:0.1524; stroke-opacity:1; 
stroke-linecap:round; stroke-linejoin:round;">
<text x="117.0305" y="95.8850"
textLength="11.5726" font-size="1.6933" lengthAdjust="spacingAndGlyphs"
text-anchor="start" opacity="0" stroke-opacity="0">Hybrid_ch_2</text>
<g class="stroked-text"><desc>Hybrid_ch_2</desc>
<path d="M117.4330 95.8295
L117.4330 94.5595
" />
<path d="M117.4330 95.1643
L118.1587 95.1643
" />
<path d="M118.1587 95.8295
L118.1587 94.5595
" />
<path d="M118.6426 94.9829
L118.9450 95.8295
" />
<path d="M119.2473 94.9829
L118.9450 95.8295
" />
<path d="M118.9450 95.8295
L118.8240 96.1319
" />
<path d="M118.8240 96.1319
L118.7635 96.1924
" />
<path d="M118.7635 96.1924
L118.6426 96.2529
" />
<path d="M119.7311 95.8295
L119.7311 94.5595
" />
<path d="M119.7311 95.0433
L119.8521 94.9829
" />
<path d="M119.8521 94.9829
L120.0940 94.9829
" />
<path d="M120.0940 94.9829
L120.2149 95.0433
" />
<path d="M120.2149 95.0433
L120.2754 95.1038
" />
<path d="M120.2754 95.1038
L120.3359 95.2248
" />
<path d="M120.3359 95.2248
L120.3359 95.5876
" />
<path d="M120.3359 95.5876
L120.2754 95.7086
" />
<path d="M120.2754 95.7086
L120.2149 95.7691
" />
<path d="M120.2149 95.7691
L120.0940 95.8295
" />
<path d="M120.0940 95.8295
L119.8521 95.8295
" />
<path d="M119.8521 95.8295
L119.7311 95.7691
" />
<path d="M120.8801 95.8295
L120.8801 94.9829
" />
<path d="M120.8801 95.2248
L120.9406 95.1038
" />
<path d="M120.9406 95.1038
L121.0011 95.0433
" />
<path d="M121.0011 95.0433
L121.1220 94.9829
" />
<path d="M121.1220 94.9829
L121.2430 94.9829
" />
<path d="M121.6663 95.8295
L121.6663 94.9829
" />
<path d="M121.6663 94.5595
L121.6059 94.6200
" />
<path d="M121.6059 94.6200
L121.6663 94.6805
" />
<path d="M121.6663 94.6805
L121.7268 94.6200
" />
<path d="M121.7268 94.6200
L121.6663 94.5595
" />
<path d="M121.6663 94.5595
L121.6663 94.6805
" />
<path d="M122.8154 95.8295
L122.8154 94.5595
" />
<path d="M122.8154 95.7691
L122.6945 95.8295
" />
<path d="M122.6945 95.8295
L122.4526 95.8295
" />
<path d="M122.4526 95.8295
L122.3316 95.7691
" />
<path d="M122.3316 95.7691
L122.2711 95.7086
" />
<path d="M122.2711 95.7086
L122.2107 95.5876
" />
<path d="M122.2107 95.5876
L122.2107 95.2248
" />
<path d="M122.2107 95.2248
L122.2711 95.1038
" />
<path d="M122.2711 95.1038
L122.3316 95.0433
" />
<path d="M122.3316 95.0433
L122.4526 94.9829
" />
<path d="M122.4526 94.9829
L122.6945 94.9829
" />
<path d="M122.6945 94.9829
L122.8154 95.0433
" />
<path d="M123.1178 95.9505
L124.0854 95.9505
" />
<path d="M124.9320 95.7691
L124.8111 95.8295
" />
<path d="M124.8111 95.8295
L124.5692 95.8295
" />
<path d="M124.5692 95.8295
L124.4482 95.7691
" />
<path d="M124.4482 95.7691
L124.3877 95.7086
" />
<path d="M124.3877 95.7086
L124.3273 95.5876
" />
<path d="M124.3273 95.5876
L124.3273 95.2248
" />
<path d="M124.3273 95.2248
L124.3877 95.1038
" />
<path d="M124.3877 95.1038
L124.4482 95.0433
" />
<path d="M124.4482 95.0433
L124.5692 94.9829
" />
<path d="M124.5692 94.9829
L124.8111 94.9829
" />
<path d="M124.8111 94.9829
L124.9320 95.0433
" />
<path d="M125.4763 95.8295
L125.4763 94.5595
" />
<path d="M126.0206 95.8295
L126.0206 95.1643
" />
<path d="M126.0206 95.1643
L125.9601 95.0433
" />
<path d="M125.9601 95.0433
L125.8392 94.9829
" />
<path d="M125.8392 94.9829
L125.6578 94.9829
" />
<path d="M125.6578 94.9829
L125.5368 95.0433
" />
<path d="M125.5368 95.0433
L125.4763 95.1038
" />
<path d="M126.3230 95.9505
L127.2906 95.9505
" />
<path d="M127.5325 94.6805
L127.5929 94.6200
" />
<path d="M127.5929 94.6200
L127.7139 94.5595
" />
<path d="M127.7139 94.5595
L128.0163 94.5595
" />
<path d="M128.0163 94.5595
L128.1372 94.6200
" />
<path d="M128.1372 94.6200
L128.1977 94.6805
" />
<path d="M128.1977 94.6805
L128.2582 94.8014
" />
<path d="M128.2582 94.8014
L128.2582 94.9224
" />
<path d="M128.2582 94.9224
L128.1977 95.1038
" />
<path d="M128.1977 95.1038
L127.4720 95.8295
" />
<path d="M127.4720 95.8295
L128.2582 95.8295
" />
</g><path style="fill:none; 
stroke:#725600; stroke-width:0.1524; stroke-opacity:1; 
stroke-linecap:round; stroke-linejoin:round;fill:none"
d="M 115.5700,95.2500
116.2050,95.8850
116.8400,95.8850
116.8400,94.6150
116.2050,94.6150
Z" /> 
</g>
<g style="fill:none; 
stroke:#725600; stroke-width:0.1524; stroke-opacity:1; 
stroke-linecap:round; stroke-linejoin:round;">
<text x="117.0305" y="108.5850"
textLength="11.5726" font-size="1.6933" lengthAdjust="spacingAndGlyphs"
text-anchor="start" opacity="0" stroke-opacity="0">Hybrid_ch_4</text>
<g class="stroked-text"><desc>Hybrid_ch_4</desc>
<path d="M117.4330 108.5295
L117.4330 107.2595
" />
<path d="M117.4330 107.8643
L118.1587 107.8643
" />
<path d="M118.1587 108.5295
L118.1587 107.2595
" />
<path d="M118.6426 107.6829
L118.9450 108.5295
" />
<path d="M119.2473 107.6829
L118.9450 108.5295
" />
<path d="M118.9450 108.5295
L118.8240 108.8319
" />
<path d="M118.8240 108.8319
L118.7635 108.8924
" />
<path d="M118.7635 108.8924
L118.6426 108.9529
" />
<path d="M119.7311 108.5295
L119.7311 107.2595
" />
<path d="M119.7311 107.7433
L119.8521 107.6829
" />
<path d="M119.8521 107.6829
L120.0940 107.6829
" />
<path d="M120.0940 107.6829
L120.2149 107.7433
" />
<path d="M120.2149 107.7433
L120.2754 107.8038
" />
<path d="M120.2754 107.8038
L120.3359 107.9248
" />
<path d="M120.3359 107.9248
L120.3359 108.2876
" />
<path d="M120.3359 108.2876
L120.2754 108.4086
" />
<path d="M120.2754 108.4086
L120.2149 108.4691
" />
<path d="M120.2149 108.4691
L120.0940 108.5295
" />
<path d="M120.0940 108.5295
L119.8521 108.5295
" />
<path d="M119.8521 108.5295
L119.7311 108.4691
" />
<path d="M120.8801 108.5295
L120.8801 107.6829
" />
<path d="M120.8801 107.9248
L120.9406 107.8038
" />
<path d="M120.9406 107.8038
L121.0011 107.7433
" />
<path d="M121.0011 107.7433
L121.1220 107.6829
" />
<path d="M121.1220 107.6829
L121.2430 107.6829
" />
<path d="M121.6663 108.5295
L121.6663 107.6829
" />
<path d="M121.6663 107.2595
L121.6059 107.3200
" />
<path d="M121.6059 107.3200
L121.6663 107.3805
" />
<path d="M121.6663 107.3805
L121.7268 107.3200
" />
<path d="M121.7268 107.3200
L121.6663 107.2595
" />
<path d="M121.6663 107.2595
L121.6663 107.3805
" />
<path d="M122.8154 108.5295
L122.8154 107.2595
" />
<path d="M122.8154 108.4691
L122.6945 108.5295
" />
<path d="M122.6945 108.5295
L122.4526 108.5295
" />
<path d="M122.4526 108.5295
L122.3316 108.4691
" />
<path d="M122.3316 108.4691
L122.2711 108.4086
" />
<path d="M122.2711 108.4086
L122.2107 108.2876
" />
<path d="M122.2107 108.2876
L122.2107 107.9248
" />
<path d="M122.2107 107.9248
L122.2711 107.8038
" />
<path d="M122.2711 107.8038
L122.3316 107.7433
" />
<path d="M122.3316 107.7433
L122.4526 107.6829
" />
<path d="M122.4526 107.6829
L122.6945 107.6829
" />
<path d="M122.6945 107.6829
L122.8154 107.7433
" />
<path d="M123.1178 108.6505
L124.0854 108.6505
" />
<path d="M124.9320 108.4691
L124.8111 108.5295
" />
<path d="M124.8111 108.5295
L124.5692 108.5295
" />
<path d="M124.5692 108.5295
L124.4482 108.4691
" />
<path d="M124.4482 108.4691
L124.3877 108.4086
" />
<path d="M124.3877 108.4086
L124.3273 108.2876
" />
<path d="M124.3273 108.2876
L124.3273 107.9248
" />
<path d="M124.3273 107.9248
L124.3877 107.8038
" />
<path d="M124.3877 107.8038
L124.4482 107.7433
" />
<path d="M124.4482 107.7433
L124.5692 107.6829
" />
<path d="M124.5692 107.6829
L124.8111 107.6829
" />
<path d="M124.8111 107.6829
L124.9320 107.7433
" />
<path d="M125.4763 108.5295
L125.4763 107.2595
" />
<path d="M126.0206 108.5295
L126.0206 107.8643
" />
<path d="M126.0206 107.8643
L125.9601 107.7433
" />
<path d="M125.9601 107.7433
L125.8392 107.6829
" />
<path d="M125.8392 107.6829
L125.6578 107.6829
" />
<path d="M125.6578 107.6829
L125.5368 107.7433
" />
<path d="M125.5368 107.7433
L125.4763 107.8038
" />
<path d="M126.3230 108.6505
L127.2906 108.6505
" />
<path d="M128.1372 107.6829
L128.1372 108.5295
" />
<path d="M127.8348 107.1991
L127.5325 108.1062
" />
<path d="M127.5325 108.1062
L128.3186 108.1062
" />
</g><path style="fill:none; 
stroke:#725600; stroke-width:0.1524; stroke-opacity:1; 
stroke-linecap:round; stroke-linejoin:round;fill:none"
d="M 115.5700,107.9500
116.2050,108.5850
116.8400,108.5850
116.8400,107.3150
116.2050,107.3150
Z" /> 
</g> 
</svg>
