M48
; DRILL file {KiCad 8.0.2} date 2024-05-21T15:52:19+0200
; FORMAT={-:-/ absolute / inch / decimal}
; #@! TF.CreationDate,2024-05-21T15:52:19+02:00
; #@! TF.GenerationSoftware,Kicad,Pcbnew,8.0.2
; #@! TF.FileFunction,Plated,2,8,Blind
FMAT,2
INCH
; #@! TA.AperFunction,Plated,Buried,ViaDrill
T1C0.0059
%
G90
G05
T1
X2.3429Y-2.0988
X2.3429Y-2.2799
X2.3429Y-2.524
X2.3429Y-2.7051
X2.3429Y-2.9228
X2.3665Y-2.0988
X2.3665Y-2.524
X2.3665Y-2.7051
X2.3665Y-2.9539
X2.3902Y-2.2799
X2.3902Y-2.524
X2.3902Y-2.7138
X2.4138Y-2.0988
X2.4138Y-2.2799
X2.4138Y-2.9413
X2.4138Y-3.1051
X2.4374Y-2.2953
X2.4374Y-2.7051
X2.4374Y-3.1224
X2.4846Y-2.9413
X2.5083Y-2.0988
X2.5083Y-2.9244
X2.5555Y-2.9413
X2.5791Y-2.2953
X2.5791Y-2.5331
X2.6264Y-2.7051
X2.65Y-2.2957
X2.8315Y-2.6846
X2.8551Y-2.1138
X2.8787Y-2.9413
X2.9024Y-2.2815
X2.9024Y-2.6988
X2.926Y-2.1138
X2.926Y-2.9331
X2.9496Y-2.9224
X2.9968Y-2.9228
X2.9969Y-2.7051
X3.0205Y-2.1138
X3.0205Y-2.9539
X3.0913Y-2.7051
X3.0913Y-2.9413
X3.1149Y-2.9303
X3.3319Y-2.524
X3.3319Y-2.9531
X3.3555Y-2.2799
X3.3555Y-3.1354
X3.3791Y-2.2961
X3.4028Y-2.524
X3.4264Y-2.9413
X3.45Y-2.9236
X3.4972Y-2.5224
X3.5681Y-2.2957
X3.5681Y-2.5343
X3.5681Y-3.1224
X3.5917Y-2.6921
X3.639Y-2.9413
X3.6626Y-2.0988
X3.6626Y-2.524
X3.7098Y-2.7051
X3.7098Y-2.939
X3.7098Y-3.1224
X3.7335Y-2.0988
X3.7335Y-2.2799
X3.7335Y-2.6878
X3.7571Y-2.524
X3.7571Y-2.6953
X3.7571Y-2.9413
X3.8043Y-2.0988
X3.8043Y-2.524
X3.8043Y-2.7051
X3.828Y-2.6937
X3.8516Y-2.524
X3.8752Y-2.0988
X3.9224Y-2.6913
X3.9461Y-2.7051
X4.4535Y-2.9413
X4.5008Y-2.1146
X4.5008Y-3.1224
X4.5244Y-2.0988
X4.5244Y-2.9413
X4.5953Y-2.0988
X4.5953Y-2.5346
X4.5953Y-3.1224
X4.5953Y-2.6843
X4.6189Y-2.7051
X4.6661Y-2.0988
X4.6898Y-2.524
X4.6898Y-3.1035
X4.7134Y-2.7051
X4.737Y-2.1146
X4.7606Y-3.1224
X4.8079Y-2.115
X4.8079Y-2.2858
X4.8079Y-2.6843
X4.8315Y-2.2957
X4.8315Y-2.5343
X4.8315Y-2.7051
X4.8315Y-2.9413
X4.8787Y-2.6839
X4.9024Y-2.2799
X4.9024Y-2.524
X4.9024Y-3.1126
X4.926Y-2.9543
X4.9496Y-2.5343
X4.9496Y-2.6835
X4.9496Y-2.922
X4.9732Y-2.2799
X4.9732Y-2.524
X4.9969Y-2.2799
X4.9969Y-2.922
X5.0205Y-2.6843
X5.0205Y-2.9413
X5.0441Y-3.1346
X5.0913Y-2.2799
X5.0913Y-2.524
X5.0913Y-2.6846
X5.0913Y-2.922
X5.0913Y-3.1346
X5.2846Y-2.2957
X5.2846Y-2.524
X5.2846Y-2.9413
X5.2846Y-3.1228
X5.3319Y-2.1146
X5.3319Y-2.6984
X5.3555Y-2.9382
X5.4028Y-2.2799
X5.4028Y-2.7051
X5.4028Y-2.9413
X5.4264Y-2.524
X5.45Y-2.685
X5.4736Y-2.0988
X5.4736Y-2.2799
X5.5209Y-2.9224
X5.5445Y-2.0988
X5.5445Y-2.7154
X5.5917Y-2.6961
X5.7496Y-2.2957
X5.7732Y-2.0988
X5.7732Y-2.2799
X5.7732Y-2.524
X5.7969Y-2.2957
X5.8441Y-2.7161
X5.8441Y-2.9224
X5.8441Y-3.1039
X5.8677Y-2.524
X5.8677Y-3.1039
X5.9386Y-2.524
X5.9622Y-2.1142
X5.9622Y-2.2799
X5.9622Y-2.685
X5.9858Y-2.5343
X5.9858Y-2.7161
X5.9858Y-2.9413
X6.0094Y-2.1146
X6.0094Y-2.6839
X6.0331Y-2.0988
X6.0331Y-2.2799
X6.0331Y-2.524
X6.0331Y-2.7126
X6.0331Y-3.135
X6.0567Y-2.0988
X6.0567Y-2.2799
X6.0567Y-2.524
X6.0567Y-2.7051
X6.0567Y-2.9413
X6.0567Y-3.1031
M30
