M48
; DRILL file {KiCad 8.0.2} date 2024-05-21T15:52:19+0200
; FORMAT={-:-/ absolute / inch / decimal}
; #@! TF.CreationDate,2024-05-21T15:52:19+02:00
; #@! TF.GenerationSoftware,Kicad,Pcbnew,8.0.2
; #@! TF.FileFunction,Plated,6,8,Blind
FMAT,2
INCH
; #@! TA.AperFunction,Plated,Buried,ViaDrill
T1C0.0059
%
G90
G05
T1
X2.3429Y-3.1224
X2.3665Y-3.1059
X2.3902Y-2.0988
X2.3902Y-3.1091
X2.4138Y-2.524
X2.4374Y-2.0988
X2.4374Y-2.524
X2.4374Y-2.9413
X2.461Y-2.2799
X2.461Y-2.7051
X2.461Y-3.1224
X2.4846Y-2.524
X2.4846Y-2.7051
X2.5083Y-2.2799
X2.5083Y-2.524
X2.5083Y-3.1224
X2.5319Y-2.0988
X2.5319Y-2.7051
X2.5319Y-2.9413
X2.5319Y-3.1224
X2.5555Y-2.2799
X2.5555Y-2.524
X2.5555Y-2.7051
X2.5555Y-3.1224
X2.5791Y-2.9232
X2.5791Y-3.1224
X2.6028Y-2.0988
X2.6028Y-2.524
X2.6028Y-2.7051
X2.6028Y-2.9299
X2.6028Y-3.1224
X2.6264Y-2.0988
X2.6264Y-2.2799
X2.6264Y-2.9236
X2.6264Y-3.1224
X2.65Y-2.0988
X2.65Y-2.524
X2.65Y-2.7051
X2.65Y-2.9413
X2.8079Y-2.0988
X2.8079Y-2.2799
X2.8079Y-2.524
X2.8079Y-2.7051
X2.8079Y-2.9413
X2.8079Y-3.1224
X2.8315Y-2.2799
X2.8315Y-2.524
X2.8315Y-2.9413
X2.8315Y-3.1224
X2.8551Y-2.9413
X2.8551Y-3.1224
X2.8787Y-2.2799
X2.8787Y-2.524
X2.8787Y-2.7051
X2.8787Y-3.1224
X2.9024Y-2.524
X2.9024Y-2.9244
X2.9024Y-3.1224
X2.926Y-2.2799
X2.926Y-2.5055
X2.926Y-3.1224
X2.9496Y-2.0988
X2.9496Y-2.524
X2.9496Y-2.7051
X2.9496Y-3.1224
X2.9732Y-2.0988
X2.9732Y-2.2799
X2.9732Y-2.7051
X2.9732Y-2.9413
X2.9732Y-3.1224
X2.9969Y-2.0988
X2.9969Y-2.524
X3.0205Y-2.524
X3.0205Y-2.7051
X3.0205Y-3.1224
X3.0441Y-2.2799
X3.0441Y-2.524
X3.0441Y-2.7051
X3.0441Y-2.9413
X3.0441Y-3.1224
X3.0677Y-2.2799
X3.0677Y-2.524
X3.0677Y-2.7051
X3.0677Y-2.9413
X3.0677Y-3.1224
X3.0913Y-2.1146
X3.0913Y-3.1224
X3.115Y-2.0827
X3.115Y-2.2799
X3.115Y-2.524
X3.115Y-2.7051
X3.115Y-3.1224
X3.3083Y-2.0988
X3.3083Y-2.2799
X3.3083Y-2.524
X3.3083Y-2.7051
X3.3083Y-2.9413
X3.3083Y-3.1224
X3.3319Y-2.0988
X3.3319Y-2.2799
X3.3319Y-2.7051
X3.3555Y-2.0988
X3.3555Y-2.7051
X3.3555Y-2.9413
X3.3791Y-2.524
X3.3791Y-2.6969
X3.3791Y-3.1224
X3.4028Y-2.0988
X3.4028Y-2.7051
X3.4028Y-3.1224
X3.4264Y-2.0988
X3.4264Y-2.7051
X3.4264Y-3.1224
X3.45Y-2.2799
X3.45Y-2.524
X3.45Y-2.6941
X3.45Y-3.1224
X3.4736Y-2.0988
X3.4736Y-2.2799
X3.4736Y-2.7051
X3.4736Y-2.9413
X3.4736Y-3.1224
X3.4972Y-2.0988
X3.4972Y-2.7051
X3.5209Y-2.524
X3.5209Y-2.6925
X3.5209Y-2.9413
X3.5209Y-3.1224
X3.5445Y-2.0988
X3.5445Y-2.7051
X3.5445Y-2.9413
X3.5445Y-3.1035
X3.5681Y-2.0988
X3.5681Y-2.7051
X3.5917Y-2.0988
X3.5917Y-2.2799
X3.5917Y-2.524
X3.5917Y-2.9413
X3.5917Y-3.1224
X3.6154Y-2.115
X3.6154Y-2.524
X3.6154Y-2.7051
X3.639Y-2.0988
X3.639Y-2.2799
X3.639Y-2.7051
X3.639Y-3.1224
X3.6626Y-2.2799
X3.6626Y-2.7051
X3.6626Y-2.9413
X3.6626Y-3.1224
X3.6862Y-2.1138
X3.6862Y-2.524
X3.6862Y-2.6882
X3.6862Y-2.9413
X3.6862Y-3.1224
X3.7098Y-2.0988
X3.7098Y-2.2799
X3.7335Y-2.524
X3.7335Y-2.9327
X3.7335Y-3.1224
X3.7571Y-2.1142
X3.7571Y-2.2799
X3.7571Y-3.1224
X3.7807Y-2.0839
X3.7807Y-2.7051
X3.7807Y-3.1224
X3.8043Y-2.2799
X3.8043Y-2.9413
X3.8043Y-3.1224
X3.828Y-2.1146
X3.828Y-2.2799
X3.828Y-2.524
X3.828Y-2.9413
X3.828Y-3.1224
X3.8516Y-2.1146
X3.8516Y-2.2799
X3.8516Y-2.7051
X3.8516Y-2.9413
X3.8752Y-2.2799
X3.8752Y-2.524
X3.8752Y-2.9413
X3.8752Y-3.1224
X3.8988Y-2.0831
X3.8988Y-2.2799
X3.8988Y-2.524
X3.8988Y-2.7051
X3.8988Y-2.9413
X3.8988Y-3.1224
X3.9224Y-2.0831
X3.9224Y-2.2799
X3.9224Y-2.524
X3.9224Y-2.9413
X3.9224Y-3.1224
X3.9461Y-2.0988
X3.9461Y-2.2799
X3.9461Y-3.1224
X4.4535Y-2.0988
X4.4535Y-2.2799
X4.4535Y-2.5339
X4.4535Y-2.7051
X4.4535Y-3.1224
X4.4772Y-2.0988
X4.4772Y-2.2799
X4.4772Y-2.524
X4.4772Y-2.7051
X4.4772Y-2.9413
X4.4772Y-3.1224
X4.5008Y-2.2799
X4.5008Y-2.524
X4.5008Y-2.7051
X4.5008Y-2.9413
X4.5244Y-2.2799
X4.5244Y-2.524
X4.5244Y-2.7051
X4.5244Y-3.1224
X4.548Y-2.0988
X4.548Y-2.2799
X4.548Y-2.524
X4.548Y-2.7051
X4.548Y-2.9413
X4.5717Y-2.0988
X4.5717Y-2.2799
X4.5717Y-3.1224
X4.5953Y-2.2799
X4.5953Y-2.9413
X4.6189Y-2.0988
X4.6189Y-2.2799
X4.6189Y-2.524
X4.6425Y-2.0988
X4.6425Y-2.524
X4.6425Y-2.7051
X4.6425Y-2.9413
X4.6425Y-3.1224
X4.6661Y-2.2799
X4.6661Y-2.524
X4.6661Y-2.9413
X4.6661Y-3.1224
X4.6898Y-2.0988
X4.6898Y-2.2961
X4.6898Y-2.7051
X4.6898Y-2.9413
X4.7134Y-2.0988
X4.7134Y-2.2799
X4.7134Y-3.1224
X4.737Y-2.2799
X4.737Y-2.524
X4.737Y-2.7051
X4.737Y-2.9413
X4.737Y-3.1224
X4.7606Y-2.0988
X4.7606Y-2.2799
X4.7606Y-2.7051
X4.7606Y-2.9413
X4.7843Y-2.0988
X4.7843Y-2.7051
X4.7843Y-2.9413
X4.8079Y-2.9413
X4.8079Y-3.1224
X4.8315Y-2.0988
X4.8315Y-3.1224
X4.8551Y-2.0988
X4.8551Y-2.7051
X4.8787Y-2.2799
X4.8787Y-2.524
X4.8787Y-2.9413
X4.9024Y-2.0988
X4.9024Y-2.7051
X4.926Y-2.0988
X4.926Y-2.524
X4.926Y-2.7051
X4.9496Y-2.2799
X4.9496Y-3.1055
X4.9732Y-2.0988
X4.9732Y-2.7051
X4.9732Y-2.9539
X4.9732Y-3.1224
X4.9969Y-2.0988
X4.9969Y-2.524
X4.9969Y-2.7051
X4.9969Y-3.1224
X5.0205Y-2.2799
X5.0205Y-2.524
X5.0205Y-3.1224
X5.0441Y-2.0988
X5.0441Y-2.7051
X5.0441Y-2.9413
X5.0677Y-2.0988
X5.0677Y-2.2799
X5.0677Y-2.524
X5.0677Y-2.7051
X5.0677Y-3.1224
X5.0913Y-2.0988
X5.2846Y-2.0988
X5.2846Y-2.7051
X5.3083Y-2.2799
X5.3083Y-2.524
X5.3083Y-2.7051
X5.3083Y-2.9413
X5.3083Y-3.1224
X5.3319Y-2.2799
X5.3319Y-2.524
X5.3319Y-2.9413
X5.3319Y-3.1224
X5.3555Y-2.0988
X5.3555Y-2.2799
X5.3555Y-2.7051
X5.3791Y-2.0988
X5.3791Y-2.2799
X5.3791Y-2.524
X5.3791Y-2.7051
X5.4028Y-3.1193
X5.4264Y-2.0988
X5.4264Y-2.2799
X5.4264Y-2.9413
X5.45Y-2.0988
X5.45Y-2.524
X5.45Y-2.9413
X5.4736Y-2.7051
X5.4736Y-3.1224
X5.4972Y-2.0988
X5.4972Y-2.7051
X5.4972Y-2.9413
X5.4972Y-3.1224
X5.5209Y-2.0988
X5.5209Y-2.2799
X5.5209Y-2.7051
X5.5209Y-3.1224
X5.5445Y-2.524
X5.5445Y-2.9276
X5.5445Y-3.1224
X5.5681Y-2.0988
X5.5681Y-2.2799
X5.5681Y-2.524
X5.5681Y-2.9413
X5.5681Y-3.1224
X5.5917Y-2.0988
X5.5917Y-2.2799
X5.5917Y-2.9413
X5.5917Y-3.1224
X5.7496Y-2.0988
X5.7496Y-2.9413
X5.7496Y-3.1224
X5.7732Y-2.7051
X5.7732Y-2.9413
X5.7732Y-3.1224
X5.7969Y-2.0988
X5.7969Y-2.524
X5.7969Y-2.7051
X5.7969Y-2.9413
X5.7969Y-3.1224
X5.8205Y-2.2799
X5.8205Y-2.7051
X5.8205Y-2.9413
X5.8205Y-3.1224
X5.8441Y-2.0988
X5.8441Y-2.2799
X5.8441Y-2.524
X5.8677Y-2.0988
X5.8677Y-2.2799
X5.8677Y-2.7051
X5.8677Y-2.9413
X5.8913Y-2.524
X5.8913Y-2.9413
X5.8913Y-3.1224
X5.915Y-2.0988
X5.915Y-2.2799
X5.915Y-2.5213
X5.915Y-2.7051
X5.915Y-2.9413
X5.915Y-3.1224
X5.9386Y-2.0988
X5.9386Y-2.2799
X5.9386Y-2.7051
X5.9386Y-3.1224
X5.9622Y-2.524
X5.9858Y-3.1075
X6.0094Y-3.1224
M30
