%TF.GenerationSoftware,KiCad,Pcbnew,8.0.2*%
%TF.CreationDate,2024-07-11T13:13:48+02:00*%
%TF.ProjectId,HYDRA_VMM3_CARD,48594452-415f-4564-9d4d-335f43415244,rev?*%
%TF.SameCoordinates,Original*%
%TF.FileFunction,Soldermask,Top*%
%TF.FilePolarity,Negative*%
%FSLAX46Y46*%
G04 Gerber Fmt 4.6, Leading zero omitted, Abs format (unit mm)*
G04 Created by KiCad (PCBNEW 8.0.2) date 2024-07-11 13:13:48*
%MOMM*%
%LPD*%
G01*
G04 APERTURE LIST*
G04 Aperture macros list*
%AMRoundRect*
0 Rectangle with rounded corners*
0 $1 Rounding radius*
0 $2 $3 $4 $5 $6 $7 $8 $9 X,Y pos of 4 corners*
0 Add a 4 corners polygon primitive as box body*
4,1,4,$2,$3,$4,$5,$6,$7,$8,$9,$2,$3,0*
0 Add four circle primitives for the rounded corners*
1,1,$1+$1,$2,$3*
1,1,$1+$1,$4,$5*
1,1,$1+$1,$6,$7*
1,1,$1+$1,$8,$9*
0 Add four rect primitives between the rounded corners*
20,1,$1+$1,$2,$3,$4,$5,0*
20,1,$1+$1,$4,$5,$6,$7,0*
20,1,$1+$1,$6,$7,$8,$9,0*
20,1,$1+$1,$8,$9,$2,$3,0*%
G04 Aperture macros list end*
%ADD10C,2.000000*%
%ADD11C,3.800000*%
%ADD12RoundRect,0.095000X-0.095000X-0.965000X0.095000X-0.965000X0.095000X0.965000X-0.095000X0.965000X0*%
%ADD13R,0.850000X0.850000*%
%ADD14O,0.850000X0.850000*%
%ADD15C,1.600000*%
%ADD16R,18.000000X48.000000*%
%ADD17C,1.100000*%
%ADD18RoundRect,0.068182X-0.731818X0.081818X-0.731818X-0.081818X0.731818X-0.081818X0.731818X0.081818X0*%
%ADD19RoundRect,0.400000X-1.150000X0.400000X-1.150000X-0.400000X1.150000X-0.400000X1.150000X0.400000X0*%
%ADD20RoundRect,0.159091X-0.640909X0.190909X-0.640909X-0.190909X0.640909X-0.190909X0.640909X0.190909X0*%
%ADD21R,1.600000X1.600000*%
G04 APERTURE END LIST*
D10*
%TO.C,15*%
X77748000Y-78380000D03*
%TD*%
%TO.C,*%
X138083000Y-34660000D03*
%TD*%
%TO.C,16*%
X111423000Y-78380000D03*
%TD*%
%TO.C,*%
X135543000Y-78360000D03*
%TD*%
%TO.C,*%
X135543000Y-34660000D03*
%TD*%
%TO.C,*%
X72668000Y-34680000D03*
%TD*%
%TO.C,*%
X133003000Y-34660000D03*
%TD*%
%TO.C,11*%
X72668000Y-78380000D03*
%TD*%
%TO.C,*%
X75208000Y-37220000D03*
%TD*%
%TO.C,*%
X138083000Y-37200000D03*
%TD*%
D11*
%TO.C,*%
X139450000Y-57580000D03*
%TD*%
D12*
%TO.C,J1*%
X90100000Y-91840000D03*
X90700000Y-91840000D03*
X91300000Y-91840000D03*
X91900000Y-91840000D03*
X92500000Y-91840000D03*
X93100000Y-91840000D03*
X93700000Y-91840000D03*
X94300000Y-91840000D03*
X94900000Y-91840000D03*
X95500000Y-91840000D03*
X96100000Y-91840000D03*
X96700000Y-91840000D03*
X97300000Y-91840000D03*
X97900000Y-91840000D03*
X98500000Y-91840000D03*
X99100000Y-91840000D03*
X99700000Y-91840000D03*
X100300000Y-91840000D03*
X100900000Y-91840000D03*
X101500000Y-91840000D03*
X102100000Y-91840000D03*
X102700000Y-91840000D03*
X103300000Y-91840000D03*
X103900000Y-91840000D03*
X104500000Y-91840000D03*
X105100000Y-91840000D03*
X105700000Y-91840000D03*
X106300000Y-91840000D03*
X110310000Y-91840000D03*
X110910000Y-91840000D03*
X111510000Y-91840000D03*
X112110000Y-91840000D03*
X112710000Y-91840000D03*
X113310000Y-91840000D03*
X113910000Y-91840000D03*
X114510000Y-91840000D03*
X115110000Y-91840000D03*
X115710000Y-91840000D03*
X116310000Y-91840000D03*
X116910000Y-91840000D03*
X117510000Y-91840000D03*
X118110000Y-91840000D03*
X123020000Y-91840000D03*
X123620000Y-91840000D03*
X124220000Y-91840000D03*
X124820000Y-91840000D03*
X125420000Y-91840000D03*
X126020000Y-91840000D03*
X126620000Y-91840000D03*
X127220000Y-91840000D03*
X127820000Y-91840000D03*
X128420000Y-91840000D03*
X129020000Y-91840000D03*
X129620000Y-91840000D03*
X130220000Y-91840000D03*
X130820000Y-91840000D03*
X131420000Y-91840000D03*
X132020000Y-91840000D03*
X132620000Y-91840000D03*
X133220000Y-91840000D03*
X133820000Y-91840000D03*
X134420000Y-91840000D03*
X135020000Y-91840000D03*
X135620000Y-91840000D03*
X136220000Y-91840000D03*
X136820000Y-91840000D03*
X137420000Y-91840000D03*
X138020000Y-91840000D03*
X138620000Y-91840000D03*
X139220000Y-91840000D03*
%TD*%
D10*
%TO.C,*%
X133003000Y-78360000D03*
%TD*%
%TO.C,18*%
X116503000Y-80900000D03*
%TD*%
%TO.C,*%
X135543000Y-80900000D03*
%TD*%
%TO.C,*%
X135543000Y-37200000D03*
%TD*%
%TO.C,22*%
X119043000Y-78360000D03*
%TD*%
%TO.C,17*%
X113963000Y-80920000D03*
%TD*%
D13*
%TO.C,J2*%
X137800000Y-44280000D03*
D14*
X137800000Y-45280000D03*
X137800000Y-46280000D03*
X137800000Y-47280000D03*
X137800000Y-48280000D03*
X137800000Y-49280000D03*
%TD*%
D10*
%TO.C,13*%
X80288000Y-37220000D03*
%TD*%
D11*
%TO.C,REF\u002A\u002A3*%
X53050000Y-57580000D03*
%TD*%
D15*
%TO.C,3.3V1*%
X64450000Y-60970000D03*
%TD*%
D10*
%TO.C,*%
X72668000Y-37220000D03*
%TD*%
D16*
%TO.C,REF\u002A\u002A*%
X46650000Y-57780000D03*
%TD*%
D10*
%TO.C,*%
X133003000Y-80900000D03*
%TD*%
%TO.C,6*%
X119043000Y-34660000D03*
%TD*%
%TO.C,*%
X111423000Y-37220000D03*
%TD*%
%TO.C,*%
X77748000Y-37220000D03*
%TD*%
%TO.C,10*%
X111423000Y-80920000D03*
%TD*%
D17*
%TO.C,U1*%
X126818000Y-35606000D03*
X126818000Y-80006000D03*
D18*
X129868000Y-37056000D03*
X123768000Y-37056000D03*
X129868000Y-37556000D03*
X123768000Y-37556000D03*
X129868000Y-38056000D03*
X123768000Y-38056000D03*
X129868000Y-38556000D03*
X123768000Y-38556000D03*
X129868000Y-39056000D03*
X123768000Y-39056000D03*
X129868000Y-40556000D03*
X123768000Y-40556000D03*
X129868000Y-41056000D03*
X123768000Y-41056000D03*
X129868000Y-41556000D03*
X123768000Y-41556000D03*
X129868000Y-42056000D03*
X123768000Y-42056000D03*
X129868000Y-42556000D03*
X123768000Y-42556000D03*
X129868000Y-43056000D03*
X123768000Y-43056000D03*
X129868000Y-43556000D03*
X123768000Y-43556000D03*
X129868000Y-44056000D03*
X123768000Y-44056000D03*
X129868000Y-44556000D03*
X123768000Y-44556000D03*
X129868000Y-45056000D03*
X123768000Y-45056000D03*
X129868000Y-46556000D03*
X123768000Y-46556000D03*
X129868000Y-47056000D03*
X123768000Y-47056000D03*
X129868000Y-47556000D03*
X123768000Y-47556000D03*
X129868000Y-48056000D03*
X123768000Y-48056000D03*
X129868000Y-48556000D03*
X123768000Y-48556000D03*
X129868000Y-49056000D03*
X123768000Y-49056000D03*
X129868000Y-49556000D03*
X123768000Y-49556000D03*
X129868000Y-50056000D03*
X123768000Y-50056000D03*
X129868000Y-50556000D03*
X123768000Y-50556000D03*
X129868000Y-51056000D03*
X123768000Y-51056000D03*
X129868000Y-52556000D03*
X123768000Y-52556000D03*
X129868000Y-53056000D03*
X123768000Y-53056000D03*
X129868000Y-53556000D03*
X123768000Y-53556000D03*
X129868000Y-54056000D03*
X123768000Y-54056000D03*
X129868000Y-54556000D03*
X123768000Y-54556000D03*
X129868000Y-55056000D03*
X123768000Y-55056000D03*
X129868000Y-55556000D03*
X123768000Y-55556000D03*
X129868000Y-56056000D03*
X123768000Y-56056000D03*
X129868000Y-56556000D03*
X123768000Y-56556000D03*
X129868000Y-57056000D03*
X123768000Y-57056000D03*
X129868000Y-58556000D03*
X123768000Y-58556000D03*
X129868000Y-59056000D03*
X123768000Y-59056000D03*
X129868000Y-59556000D03*
X123768000Y-59556000D03*
X129868000Y-60056000D03*
X123768000Y-60056000D03*
X129868000Y-60556000D03*
X123768000Y-60556000D03*
X129868000Y-61056000D03*
X123768000Y-61056000D03*
X129868000Y-61556000D03*
X123768000Y-61556000D03*
X129868000Y-62056000D03*
X123768000Y-62056000D03*
X129868000Y-62556000D03*
X123768000Y-62556000D03*
X129868000Y-63056000D03*
X123768000Y-63056000D03*
X129868000Y-64556000D03*
X123768000Y-64556000D03*
X129868000Y-65056000D03*
X123768000Y-65056000D03*
X129868000Y-65556000D03*
X123768000Y-65556000D03*
X129868000Y-66056000D03*
X123768000Y-66056000D03*
X129868000Y-66556000D03*
X123768000Y-66556000D03*
X129868000Y-67056000D03*
X123768000Y-67056000D03*
X129868000Y-67556000D03*
X123768000Y-67556000D03*
X129868000Y-68056000D03*
X123768000Y-68056000D03*
X129868000Y-68556000D03*
X123768000Y-68556000D03*
X129868000Y-69056000D03*
X123768000Y-69056000D03*
X129868000Y-70556000D03*
X123768000Y-70556000D03*
X129868000Y-71056000D03*
X123768000Y-71056000D03*
X129868000Y-71556000D03*
X123768000Y-71556000D03*
X129868000Y-72056000D03*
X123768000Y-72056000D03*
X129868000Y-72556000D03*
X123768000Y-72556000D03*
X129868000Y-73056000D03*
X123768000Y-73056000D03*
X129868000Y-73556000D03*
X123768000Y-73556000D03*
X129868000Y-74056000D03*
X123768000Y-74056000D03*
X129868000Y-74556000D03*
X123768000Y-74556000D03*
X129868000Y-75056000D03*
X123768000Y-75056000D03*
X129868000Y-76556000D03*
X123768000Y-76556000D03*
X129868000Y-77056000D03*
X123768000Y-77056000D03*
X129868000Y-77556000D03*
X123768000Y-77556000D03*
X129868000Y-78056000D03*
X123768000Y-78056000D03*
X129868000Y-78556000D03*
X123768000Y-78556000D03*
D19*
X126818000Y-33856000D03*
D20*
X129868000Y-39806000D03*
X123768000Y-39806000D03*
X129868000Y-45806000D03*
X123768000Y-45806000D03*
X129868000Y-51806000D03*
X123768000Y-51806000D03*
X129868000Y-57806000D03*
X123768000Y-57806000D03*
X129868000Y-63806000D03*
X123768000Y-63806000D03*
X129868000Y-69806000D03*
X123768000Y-69806000D03*
X129868000Y-75806000D03*
X123768000Y-75806000D03*
D19*
X126818000Y-81756000D03*
%TD*%
D10*
%TO.C,24*%
X80288000Y-78380000D03*
%TD*%
%TO.C,9*%
X77748000Y-80920000D03*
%TD*%
%TO.C,1*%
X113963000Y-37220000D03*
%TD*%
%TO.C,12*%
X75208000Y-78380000D03*
%TD*%
D11*
%TO.C,REF\u002A\u002A*%
X39650000Y-35780000D03*
%TD*%
D10*
%TO.C,2*%
X116503000Y-37200000D03*
%TD*%
D21*
%TO.C,GND1*%
X64450000Y-63510000D03*
%TD*%
D11*
%TO.C,*%
X53050000Y-79380000D03*
%TD*%
%TO.C,25*%
X39650000Y-79380000D03*
%TD*%
D10*
%TO.C,*%
X138083000Y-80900000D03*
%TD*%
%TO.C,19*%
X119043000Y-80900000D03*
%TD*%
D11*
%TO.C,REF\u002A\u002A2*%
X39650000Y-57580000D03*
%TD*%
D10*
%TO.C,5*%
X116503000Y-34660000D03*
%TD*%
%TO.C,20*%
X113963000Y-78380000D03*
%TD*%
%TO.C,*%
X111423000Y-34680000D03*
%TD*%
%TO.C,*%
X77748000Y-34680000D03*
%TD*%
%TO.C,*%
X133003000Y-37200000D03*
%TD*%
%TO.C,3*%
X119043000Y-37200000D03*
%TD*%
D15*
%TO.C,1.8V1*%
X64450000Y-66050000D03*
%TD*%
D10*
%TO.C,4*%
X113963000Y-34680000D03*
%TD*%
D11*
%TO.C,REF\u002A\u002A1*%
X53050000Y-35780000D03*
%TD*%
D10*
%TO.C,*%
X138083000Y-78360000D03*
%TD*%
%TO.C,*%
X75208000Y-34680000D03*
%TD*%
%TO.C,8*%
X75208000Y-80920000D03*
%TD*%
%TO.C,7*%
X72668000Y-80920000D03*
%TD*%
%TO.C,23*%
X80288000Y-80920000D03*
%TD*%
%TO.C,14*%
X80288000Y-34680000D03*
%TD*%
%TO.C,21*%
X116503000Y-78360000D03*
%TD*%
M02*
