%TF.GenerationSoftware,KiCad,Pcbnew,8.0.2*%
%TF.CreationDate,2024-07-11T13:13:48+02:00*%
%TF.ProjectId,HYDRA_VMM3_CARD,48594452-415f-4564-9d4d-335f43415244,rev?*%
%TF.SameCoordinates,Original*%
%TF.FileFunction,Legend,Top*%
%TF.FilePolarity,Positive*%
%FSLAX46Y46*%
G04 Gerber Fmt 4.6, Leading zero omitted, Abs format (unit mm)*
G04 Created by KiCad (PCBNEW 8.0.2) date 2024-07-11 13:13:48*
%MOMM*%
%LPD*%
G01*
G04 APERTURE LIST*
%ADD10C,0.500000*%
%ADD11C,0.158750*%
%ADD12C,0.150000*%
%ADD13C,0.120000*%
%ADD14C,0.100000*%
%ADD15C,0.550000*%
G04 APERTURE END LIST*
D10*
X122770000Y-87780000D02*
X139270000Y-87780000D01*
X110020000Y-87780000D02*
X118270000Y-87780000D01*
X89770000Y-87780000D02*
X106270000Y-87780000D01*
D11*
X77506095Y-78959271D02*
X76780380Y-78959271D01*
X77143237Y-78959271D02*
X77143237Y-77689271D01*
X77143237Y-77689271D02*
X77022285Y-77870699D01*
X77022285Y-77870699D02*
X76901333Y-77991652D01*
X76901333Y-77991652D02*
X76780380Y-78052128D01*
X78655142Y-77689271D02*
X78050380Y-77689271D01*
X78050380Y-77689271D02*
X77989904Y-78294033D01*
X77989904Y-78294033D02*
X78050380Y-78233556D01*
X78050380Y-78233556D02*
X78171333Y-78173080D01*
X78171333Y-78173080D02*
X78473714Y-78173080D01*
X78473714Y-78173080D02*
X78594666Y-78233556D01*
X78594666Y-78233556D02*
X78655142Y-78294033D01*
X78655142Y-78294033D02*
X78715619Y-78414985D01*
X78715619Y-78414985D02*
X78715619Y-78717366D01*
X78715619Y-78717366D02*
X78655142Y-78838318D01*
X78655142Y-78838318D02*
X78594666Y-78898795D01*
X78594666Y-78898795D02*
X78473714Y-78959271D01*
X78473714Y-78959271D02*
X78171333Y-78959271D01*
X78171333Y-78959271D02*
X78050380Y-78898795D01*
X78050380Y-78898795D02*
X77989904Y-78838318D01*
X111181095Y-78959271D02*
X110455380Y-78959271D01*
X110818237Y-78959271D02*
X110818237Y-77689271D01*
X110818237Y-77689271D02*
X110697285Y-77870699D01*
X110697285Y-77870699D02*
X110576333Y-77991652D01*
X110576333Y-77991652D02*
X110455380Y-78052128D01*
X112269666Y-77689271D02*
X112027761Y-77689271D01*
X112027761Y-77689271D02*
X111906809Y-77749747D01*
X111906809Y-77749747D02*
X111846333Y-77810223D01*
X111846333Y-77810223D02*
X111725380Y-77991652D01*
X111725380Y-77991652D02*
X111664904Y-78233556D01*
X111664904Y-78233556D02*
X111664904Y-78717366D01*
X111664904Y-78717366D02*
X111725380Y-78838318D01*
X111725380Y-78838318D02*
X111785857Y-78898795D01*
X111785857Y-78898795D02*
X111906809Y-78959271D01*
X111906809Y-78959271D02*
X112148714Y-78959271D01*
X112148714Y-78959271D02*
X112269666Y-78898795D01*
X112269666Y-78898795D02*
X112330142Y-78838318D01*
X112330142Y-78838318D02*
X112390619Y-78717366D01*
X112390619Y-78717366D02*
X112390619Y-78414985D01*
X112390619Y-78414985D02*
X112330142Y-78294033D01*
X112330142Y-78294033D02*
X112269666Y-78233556D01*
X112269666Y-78233556D02*
X112148714Y-78173080D01*
X112148714Y-78173080D02*
X111906809Y-78173080D01*
X111906809Y-78173080D02*
X111785857Y-78233556D01*
X111785857Y-78233556D02*
X111725380Y-78294033D01*
X111725380Y-78294033D02*
X111664904Y-78414985D01*
X72426095Y-78959271D02*
X71700380Y-78959271D01*
X72063237Y-78959271D02*
X72063237Y-77689271D01*
X72063237Y-77689271D02*
X71942285Y-77870699D01*
X71942285Y-77870699D02*
X71821333Y-77991652D01*
X71821333Y-77991652D02*
X71700380Y-78052128D01*
X73635619Y-78959271D02*
X72909904Y-78959271D01*
X73272761Y-78959271D02*
X73272761Y-77689271D01*
X73272761Y-77689271D02*
X73151809Y-77870699D01*
X73151809Y-77870699D02*
X73030857Y-77991652D01*
X73030857Y-77991652D02*
X72909904Y-78052128D01*
D12*
X137521666Y-41634819D02*
X137521666Y-42349104D01*
X137521666Y-42349104D02*
X137474047Y-42491961D01*
X137474047Y-42491961D02*
X137378809Y-42587200D01*
X137378809Y-42587200D02*
X137235952Y-42634819D01*
X137235952Y-42634819D02*
X137140714Y-42634819D01*
X137950238Y-41730057D02*
X137997857Y-41682438D01*
X137997857Y-41682438D02*
X138093095Y-41634819D01*
X138093095Y-41634819D02*
X138331190Y-41634819D01*
X138331190Y-41634819D02*
X138426428Y-41682438D01*
X138426428Y-41682438D02*
X138474047Y-41730057D01*
X138474047Y-41730057D02*
X138521666Y-41825295D01*
X138521666Y-41825295D02*
X138521666Y-41920533D01*
X138521666Y-41920533D02*
X138474047Y-42063390D01*
X138474047Y-42063390D02*
X137902619Y-42634819D01*
X137902619Y-42634819D02*
X138521666Y-42634819D01*
D11*
X111181095Y-81499271D02*
X110455380Y-81499271D01*
X110818237Y-81499271D02*
X110818237Y-80229271D01*
X110818237Y-80229271D02*
X110697285Y-80410699D01*
X110697285Y-80410699D02*
X110576333Y-80531652D01*
X110576333Y-80531652D02*
X110455380Y-80592128D01*
X111967285Y-80229271D02*
X112088238Y-80229271D01*
X112088238Y-80229271D02*
X112209190Y-80289747D01*
X112209190Y-80289747D02*
X112269666Y-80350223D01*
X112269666Y-80350223D02*
X112330142Y-80471175D01*
X112330142Y-80471175D02*
X112390619Y-80713080D01*
X112390619Y-80713080D02*
X112390619Y-81015461D01*
X112390619Y-81015461D02*
X112330142Y-81257366D01*
X112330142Y-81257366D02*
X112269666Y-81378318D01*
X112269666Y-81378318D02*
X112209190Y-81438795D01*
X112209190Y-81438795D02*
X112088238Y-81499271D01*
X112088238Y-81499271D02*
X111967285Y-81499271D01*
X111967285Y-81499271D02*
X111846333Y-81438795D01*
X111846333Y-81438795D02*
X111785857Y-81378318D01*
X111785857Y-81378318D02*
X111725380Y-81257366D01*
X111725380Y-81257366D02*
X111664904Y-81015461D01*
X111664904Y-81015461D02*
X111664904Y-80713080D01*
X111664904Y-80713080D02*
X111725380Y-80471175D01*
X111725380Y-80471175D02*
X111785857Y-80350223D01*
X111785857Y-80350223D02*
X111846333Y-80289747D01*
X111846333Y-80289747D02*
X111967285Y-80229271D01*
X77506095Y-81499271D02*
X77747999Y-81499271D01*
X77747999Y-81499271D02*
X77868952Y-81438795D01*
X77868952Y-81438795D02*
X77929428Y-81378318D01*
X77929428Y-81378318D02*
X78050380Y-81196890D01*
X78050380Y-81196890D02*
X78110857Y-80954985D01*
X78110857Y-80954985D02*
X78110857Y-80471175D01*
X78110857Y-80471175D02*
X78050380Y-80350223D01*
X78050380Y-80350223D02*
X77989904Y-80289747D01*
X77989904Y-80289747D02*
X77868952Y-80229271D01*
X77868952Y-80229271D02*
X77627047Y-80229271D01*
X77627047Y-80229271D02*
X77506095Y-80289747D01*
X77506095Y-80289747D02*
X77445618Y-80350223D01*
X77445618Y-80350223D02*
X77385142Y-80471175D01*
X77385142Y-80471175D02*
X77385142Y-80773556D01*
X77385142Y-80773556D02*
X77445618Y-80894509D01*
X77445618Y-80894509D02*
X77506095Y-80954985D01*
X77506095Y-80954985D02*
X77627047Y-81015461D01*
X77627047Y-81015461D02*
X77868952Y-81015461D01*
X77868952Y-81015461D02*
X77989904Y-80954985D01*
X77989904Y-80954985D02*
X78050380Y-80894509D01*
X78050380Y-80894509D02*
X78110857Y-80773556D01*
X74966095Y-78959271D02*
X74240380Y-78959271D01*
X74603237Y-78959271D02*
X74603237Y-77689271D01*
X74603237Y-77689271D02*
X74482285Y-77870699D01*
X74482285Y-77870699D02*
X74361333Y-77991652D01*
X74361333Y-77991652D02*
X74240380Y-78052128D01*
X75449904Y-77810223D02*
X75510380Y-77749747D01*
X75510380Y-77749747D02*
X75631333Y-77689271D01*
X75631333Y-77689271D02*
X75933714Y-77689271D01*
X75933714Y-77689271D02*
X76054666Y-77749747D01*
X76054666Y-77749747D02*
X76115142Y-77810223D01*
X76115142Y-77810223D02*
X76175619Y-77931175D01*
X76175619Y-77931175D02*
X76175619Y-78052128D01*
X76175619Y-78052128D02*
X76115142Y-78233556D01*
X76115142Y-78233556D02*
X75389428Y-78959271D01*
X75389428Y-78959271D02*
X76175619Y-78959271D01*
X38682380Y-78810223D02*
X38742856Y-78749747D01*
X38742856Y-78749747D02*
X38863809Y-78689271D01*
X38863809Y-78689271D02*
X39166190Y-78689271D01*
X39166190Y-78689271D02*
X39287142Y-78749747D01*
X39287142Y-78749747D02*
X39347618Y-78810223D01*
X39347618Y-78810223D02*
X39408095Y-78931175D01*
X39408095Y-78931175D02*
X39408095Y-79052128D01*
X39408095Y-79052128D02*
X39347618Y-79233556D01*
X39347618Y-79233556D02*
X38621904Y-79959271D01*
X38621904Y-79959271D02*
X39408095Y-79959271D01*
X40557142Y-78689271D02*
X39952380Y-78689271D01*
X39952380Y-78689271D02*
X39891904Y-79294033D01*
X39891904Y-79294033D02*
X39952380Y-79233556D01*
X39952380Y-79233556D02*
X40073333Y-79173080D01*
X40073333Y-79173080D02*
X40375714Y-79173080D01*
X40375714Y-79173080D02*
X40496666Y-79233556D01*
X40496666Y-79233556D02*
X40557142Y-79294033D01*
X40557142Y-79294033D02*
X40617619Y-79414985D01*
X40617619Y-79414985D02*
X40617619Y-79717366D01*
X40617619Y-79717366D02*
X40557142Y-79838318D01*
X40557142Y-79838318D02*
X40496666Y-79898795D01*
X40496666Y-79898795D02*
X40375714Y-79959271D01*
X40375714Y-79959271D02*
X40073333Y-79959271D01*
X40073333Y-79959271D02*
X39952380Y-79898795D01*
X39952380Y-79898795D02*
X39891904Y-79838318D01*
X75087047Y-80773556D02*
X74966095Y-80713080D01*
X74966095Y-80713080D02*
X74905618Y-80652604D01*
X74905618Y-80652604D02*
X74845142Y-80531652D01*
X74845142Y-80531652D02*
X74845142Y-80471175D01*
X74845142Y-80471175D02*
X74905618Y-80350223D01*
X74905618Y-80350223D02*
X74966095Y-80289747D01*
X74966095Y-80289747D02*
X75087047Y-80229271D01*
X75087047Y-80229271D02*
X75328952Y-80229271D01*
X75328952Y-80229271D02*
X75449904Y-80289747D01*
X75449904Y-80289747D02*
X75510380Y-80350223D01*
X75510380Y-80350223D02*
X75570857Y-80471175D01*
X75570857Y-80471175D02*
X75570857Y-80531652D01*
X75570857Y-80531652D02*
X75510380Y-80652604D01*
X75510380Y-80652604D02*
X75449904Y-80713080D01*
X75449904Y-80713080D02*
X75328952Y-80773556D01*
X75328952Y-80773556D02*
X75087047Y-80773556D01*
X75087047Y-80773556D02*
X74966095Y-80834033D01*
X74966095Y-80834033D02*
X74905618Y-80894509D01*
X74905618Y-80894509D02*
X74845142Y-81015461D01*
X74845142Y-81015461D02*
X74845142Y-81257366D01*
X74845142Y-81257366D02*
X74905618Y-81378318D01*
X74905618Y-81378318D02*
X74966095Y-81438795D01*
X74966095Y-81438795D02*
X75087047Y-81499271D01*
X75087047Y-81499271D02*
X75328952Y-81499271D01*
X75328952Y-81499271D02*
X75449904Y-81438795D01*
X75449904Y-81438795D02*
X75510380Y-81378318D01*
X75510380Y-81378318D02*
X75570857Y-81257366D01*
X75570857Y-81257366D02*
X75570857Y-81015461D01*
X75570857Y-81015461D02*
X75510380Y-80894509D01*
X75510380Y-80894509D02*
X75449904Y-80834033D01*
X75449904Y-80834033D02*
X75328952Y-80773556D01*
X72244666Y-80229271D02*
X73091333Y-80229271D01*
X73091333Y-80229271D02*
X72547047Y-81499271D01*
D13*
%TO.C,J2*%
X137115000Y-43595000D02*
X137800000Y-43595000D01*
X137115000Y-44280000D02*
X137115000Y-43595000D01*
X138268215Y-45780000D02*
X139110000Y-45780000D01*
X138268215Y-46780000D02*
X139110000Y-46780000D01*
X138268215Y-47780000D02*
X139110000Y-47780000D01*
X138268215Y-48780000D02*
X139110000Y-48780000D01*
X138485000Y-43720000D02*
X139110000Y-43720000D01*
X138485000Y-44780000D02*
X139110000Y-44780000D01*
X139110000Y-43720000D02*
X139110000Y-49840000D01*
X139110000Y-44070000D02*
X141110000Y-44070000D01*
X139110000Y-44130000D02*
X141110000Y-44130000D01*
X139110000Y-44250000D02*
X141110000Y-44250000D01*
X139110000Y-44370000D02*
X141110000Y-44370000D01*
X139110000Y-45070000D02*
X141110000Y-45070000D01*
X139110000Y-46070000D02*
X141110000Y-46070000D01*
X139110000Y-47070000D02*
X141110000Y-47070000D01*
X139110000Y-48070000D02*
X141110000Y-48070000D01*
X139110000Y-49070000D02*
X141110000Y-49070000D01*
X139110000Y-49840000D02*
X138194493Y-49840000D01*
X141110000Y-44070000D02*
X141110000Y-44490000D01*
X141110000Y-44490000D02*
X139110000Y-44490000D01*
X141110000Y-45070000D02*
X141110000Y-45490000D01*
X141110000Y-45490000D02*
X139110000Y-45490000D01*
X141110000Y-46070000D02*
X141110000Y-46490000D01*
X141110000Y-46490000D02*
X139110000Y-46490000D01*
X141110000Y-47070000D02*
X141110000Y-47490000D01*
X141110000Y-47490000D02*
X139110000Y-47490000D01*
X141110000Y-48070000D02*
X141110000Y-48490000D01*
X141110000Y-48490000D02*
X139110000Y-48490000D01*
X141110000Y-49070000D02*
X141110000Y-49490000D01*
X141110000Y-49490000D02*
X139110000Y-49490000D01*
%TO.C,3.3V1*%
X65650000Y-60970000D02*
G75*
G02*
X63250000Y-60970000I-1200000J0D01*
G01*
X63250000Y-60970000D02*
G75*
G02*
X65650000Y-60970000I1200000J0D01*
G01*
%TO.C,REF\u002A\u002A*%
D14*
X37250000Y-33380000D02*
X56050000Y-33380000D01*
X56050000Y-82380000D01*
X37250000Y-82380000D01*
X37250000Y-33380000D01*
%TO.C,U1*%
X127608569Y-35606000D02*
G75*
G02*
X126027431Y-35606000I-790569J0D01*
G01*
X126027431Y-35606000D02*
G75*
G02*
X127608569Y-35606000I790569J0D01*
G01*
D15*
X130843000Y-35606000D02*
G75*
G02*
X130293000Y-35606000I-275000J0D01*
G01*
X130293000Y-35606000D02*
G75*
G02*
X130843000Y-35606000I275000J0D01*
G01*
D13*
%TO.C,GND1*%
X63450000Y-62510000D02*
X65450000Y-62510000D01*
X63450000Y-64510000D02*
X63450000Y-62510000D01*
X65450000Y-62510000D02*
X65450000Y-64510000D01*
X65450000Y-64510000D02*
X63450000Y-64510000D01*
%TO.C,1.8V1*%
X65650000Y-66050000D02*
G75*
G02*
X63250000Y-66050000I-1200000J0D01*
G01*
X63250000Y-66050000D02*
G75*
G02*
X65650000Y-66050000I1200000J0D01*
G01*
%TD*%
M02*
