%TF.GenerationSoftware,KiCad,Pcbnew,8.0.4*%
%TF.CreationDate,2024-08-13T13:30:06+02:00*%
%TF.ProjectId,TMP104_Development board,544d5031-3034-45f4-9465-76656c6f706d,rev?*%
%TF.SameCoordinates,Original*%
%TF.FileFunction,Copper,L3,Inr*%
%TF.FilePolarity,Positive*%
%FSLAX46Y46*%
G04 Gerber Fmt 4.6, Leading zero omitted, Abs format (unit mm)*
G04 Created by KiCad (PCBNEW 8.0.4) date 2024-08-13 13:30:06*
%MOMM*%
%LPD*%
G01*
G04 APERTURE LIST*
%TA.AperFunction,ViaPad*%
%ADD10C,0.600000*%
%TD*%
%TA.AperFunction,ViaPad*%
%ADD11C,0.800000*%
%TD*%
G04 APERTURE END LIST*
D10*
%TO.N,VCC_3.3V*%
X131415000Y-103701000D03*
%TO.N,RX_1*%
X121762902Y-105414078D03*
%TO.N,TX_1*%
X124235000Y-101400000D03*
D11*
%TO.N,GND*%
X134465000Y-112655000D03*
D10*
X120870000Y-103790000D03*
X136400000Y-99200000D03*
X134400000Y-99200000D03*
D11*
X134465000Y-94525000D03*
D10*
X138400000Y-99200000D03*
D11*
X136065000Y-94525000D03*
D10*
X132400000Y-103700000D03*
D11*
X141675000Y-105830000D03*
D10*
X134400000Y-108200000D03*
X121695000Y-106161000D03*
X138400000Y-108200000D03*
X136400000Y-108200000D03*
X136400000Y-103700000D03*
X138400000Y-103700000D03*
X124205000Y-100451000D03*
D11*
X121825000Y-98800000D03*
X120425000Y-98716000D03*
D10*
X132400000Y-108200000D03*
D11*
X136065000Y-112670000D03*
X121825000Y-108521000D03*
X141675000Y-101445000D03*
X126873000Y-104730000D03*
X126895000Y-102700000D03*
D10*
X134400000Y-103700000D03*
X132400000Y-99200000D03*
%TO.N,VCC_3.3V*%
X135400000Y-103700000D03*
X137400000Y-103700000D03*
D11*
X120425000Y-108541000D03*
D10*
X133400000Y-103700000D03*
%TD*%
%TA.AperFunction,Conductor*%
%TO.N,GND*%
G36*
X140817231Y-93901634D02*
G01*
X141087714Y-93917996D01*
X141096566Y-93919071D01*
X141360920Y-93967515D01*
X141369571Y-93969648D01*
X141626141Y-94049598D01*
X141634480Y-94052759D01*
X141879552Y-94163058D01*
X141887464Y-94167211D01*
X142117433Y-94306233D01*
X142124787Y-94311309D01*
X142336327Y-94477039D01*
X142343016Y-94482965D01*
X142533034Y-94672983D01*
X142538960Y-94679672D01*
X142704690Y-94891212D01*
X142709766Y-94898566D01*
X142848788Y-95128535D01*
X142852941Y-95136447D01*
X142963236Y-95381511D01*
X142966404Y-95389867D01*
X143046348Y-95646416D01*
X143048487Y-95655092D01*
X143096927Y-95919424D01*
X143098004Y-95928295D01*
X143114365Y-96198768D01*
X143114500Y-96203236D01*
X143114500Y-111198763D01*
X143114365Y-111203231D01*
X143098004Y-111473704D01*
X143096927Y-111482575D01*
X143048487Y-111746907D01*
X143046348Y-111755583D01*
X142966404Y-112012132D01*
X142963236Y-112020488D01*
X142852941Y-112265552D01*
X142848788Y-112273464D01*
X142709766Y-112503433D01*
X142704690Y-112510787D01*
X142538960Y-112722327D01*
X142533034Y-112729016D01*
X142343016Y-112919034D01*
X142336327Y-112924960D01*
X142124787Y-113090690D01*
X142117433Y-113095766D01*
X141887464Y-113234788D01*
X141879552Y-113238941D01*
X141634488Y-113349236D01*
X141626132Y-113352404D01*
X141369583Y-113432348D01*
X141360907Y-113434487D01*
X141096575Y-113482927D01*
X141087704Y-113484004D01*
X140817232Y-113500365D01*
X140812764Y-113500500D01*
X120817236Y-113500500D01*
X120812768Y-113500365D01*
X120542295Y-113484004D01*
X120533424Y-113482927D01*
X120269092Y-113434487D01*
X120260416Y-113432348D01*
X120003867Y-113352404D01*
X119995511Y-113349236D01*
X119750447Y-113238941D01*
X119742535Y-113234788D01*
X119512566Y-113095766D01*
X119505212Y-113090690D01*
X119293672Y-112924960D01*
X119286983Y-112919034D01*
X119096965Y-112729016D01*
X119091039Y-112722327D01*
X118925309Y-112510787D01*
X118920233Y-112503433D01*
X118781211Y-112273464D01*
X118777058Y-112265552D01*
X118763787Y-112236065D01*
X118666759Y-112020480D01*
X118663598Y-112012141D01*
X118583648Y-111755571D01*
X118581515Y-111746920D01*
X118533071Y-111482566D01*
X118531996Y-111473714D01*
X118515635Y-111203231D01*
X118515500Y-111198763D01*
X118515500Y-108541000D01*
X119869750Y-108541000D01*
X119888669Y-108684708D01*
X119944138Y-108818623D01*
X119944139Y-108818625D01*
X120032379Y-108933621D01*
X120147375Y-109021861D01*
X120281291Y-109077330D01*
X120425000Y-109096250D01*
X120568709Y-109077330D01*
X120702625Y-109021861D01*
X120817621Y-108933621D01*
X120905861Y-108818625D01*
X120961330Y-108684709D01*
X120980250Y-108541000D01*
X120961330Y-108397291D01*
X120905861Y-108263375D01*
X120817621Y-108148379D01*
X120702625Y-108060139D01*
X120702623Y-108060138D01*
X120568708Y-108004669D01*
X120425000Y-107985750D01*
X120281291Y-108004669D01*
X120147376Y-108060138D01*
X120032379Y-108148379D01*
X119944138Y-108263376D01*
X119888669Y-108397291D01*
X119869750Y-108541000D01*
X118515500Y-108541000D01*
X118515500Y-105414078D01*
X121307769Y-105414078D01*
X121326204Y-105542301D01*
X121326204Y-105542302D01*
X121326205Y-105542304D01*
X121380020Y-105660141D01*
X121464853Y-105758045D01*
X121573833Y-105828082D01*
X121698130Y-105864578D01*
X121827674Y-105864578D01*
X121951971Y-105828082D01*
X122060951Y-105758045D01*
X122145784Y-105660141D01*
X122199599Y-105542304D01*
X122218035Y-105414078D01*
X122199599Y-105285852D01*
X122145784Y-105168015D01*
X122060951Y-105070111D01*
X121993934Y-105027042D01*
X121951970Y-105000073D01*
X121827674Y-104963578D01*
X121698130Y-104963578D01*
X121573833Y-105000073D01*
X121464856Y-105070109D01*
X121464852Y-105070112D01*
X121380021Y-105168013D01*
X121326204Y-105285854D01*
X121307769Y-105414078D01*
X118515500Y-105414078D01*
X118515500Y-103701000D01*
X130959867Y-103701000D01*
X130978302Y-103829223D01*
X130978302Y-103829224D01*
X130978303Y-103829226D01*
X131032118Y-103947063D01*
X131116951Y-104044967D01*
X131225931Y-104115004D01*
X131350228Y-104151500D01*
X131479772Y-104151500D01*
X131604069Y-104115004D01*
X131713049Y-104044967D01*
X131797882Y-103947063D01*
X131851697Y-103829226D01*
X131870133Y-103701000D01*
X131869989Y-103700000D01*
X132944867Y-103700000D01*
X132963302Y-103828223D01*
X132963302Y-103828224D01*
X132963303Y-103828226D01*
X133017118Y-103946063D01*
X133101951Y-104043967D01*
X133210931Y-104114004D01*
X133335228Y-104150500D01*
X133464772Y-104150500D01*
X133589069Y-104114004D01*
X133698049Y-104043967D01*
X133782882Y-103946063D01*
X133836697Y-103828226D01*
X133855133Y-103700000D01*
X134944867Y-103700000D01*
X134963302Y-103828223D01*
X134963302Y-103828224D01*
X134963303Y-103828226D01*
X135017118Y-103946063D01*
X135101951Y-104043967D01*
X135210931Y-104114004D01*
X135335228Y-104150500D01*
X135464772Y-104150500D01*
X135589069Y-104114004D01*
X135698049Y-104043967D01*
X135782882Y-103946063D01*
X135836697Y-103828226D01*
X135855133Y-103700000D01*
X136944867Y-103700000D01*
X136963302Y-103828223D01*
X136963302Y-103828224D01*
X136963303Y-103828226D01*
X137017118Y-103946063D01*
X137101951Y-104043967D01*
X137210931Y-104114004D01*
X137335228Y-104150500D01*
X137464772Y-104150500D01*
X137589069Y-104114004D01*
X137698049Y-104043967D01*
X137782882Y-103946063D01*
X137836697Y-103828226D01*
X137855133Y-103700000D01*
X137836697Y-103571774D01*
X137782882Y-103453937D01*
X137698049Y-103356033D01*
X137631032Y-103312964D01*
X137589068Y-103285995D01*
X137464772Y-103249500D01*
X137335228Y-103249500D01*
X137210931Y-103285995D01*
X137101954Y-103356031D01*
X137101950Y-103356034D01*
X137017119Y-103453935D01*
X136963302Y-103571776D01*
X136944867Y-103700000D01*
X135855133Y-103700000D01*
X135836697Y-103571774D01*
X135782882Y-103453937D01*
X135698049Y-103356033D01*
X135631032Y-103312964D01*
X135589068Y-103285995D01*
X135464772Y-103249500D01*
X135335228Y-103249500D01*
X135210931Y-103285995D01*
X135101954Y-103356031D01*
X135101950Y-103356034D01*
X135017119Y-103453935D01*
X134963302Y-103571776D01*
X134944867Y-103700000D01*
X133855133Y-103700000D01*
X133836697Y-103571774D01*
X133782882Y-103453937D01*
X133698049Y-103356033D01*
X133631032Y-103312964D01*
X133589068Y-103285995D01*
X133464772Y-103249500D01*
X133335228Y-103249500D01*
X133210931Y-103285995D01*
X133101954Y-103356031D01*
X133101950Y-103356034D01*
X133017119Y-103453935D01*
X132963302Y-103571776D01*
X132944867Y-103700000D01*
X131869989Y-103700000D01*
X131851697Y-103572774D01*
X131797882Y-103454937D01*
X131713049Y-103357033D01*
X131646032Y-103313964D01*
X131604068Y-103286995D01*
X131479772Y-103250500D01*
X131350228Y-103250500D01*
X131225931Y-103286995D01*
X131116954Y-103357031D01*
X131116950Y-103357034D01*
X131032119Y-103454935D01*
X130978302Y-103572776D01*
X130959867Y-103701000D01*
X118515500Y-103701000D01*
X118515500Y-101400000D01*
X123779867Y-101400000D01*
X123798302Y-101528223D01*
X123798302Y-101528224D01*
X123798303Y-101528226D01*
X123852118Y-101646063D01*
X123936951Y-101743967D01*
X124045931Y-101814004D01*
X124170228Y-101850500D01*
X124299772Y-101850500D01*
X124424069Y-101814004D01*
X124533049Y-101743967D01*
X124617882Y-101646063D01*
X124671697Y-101528226D01*
X124690133Y-101400000D01*
X124671697Y-101271774D01*
X124617882Y-101153937D01*
X124533049Y-101056033D01*
X124466032Y-101012964D01*
X124424068Y-100985995D01*
X124299772Y-100949500D01*
X124170228Y-100949500D01*
X124045931Y-100985995D01*
X123936954Y-101056031D01*
X123936950Y-101056034D01*
X123852119Y-101153935D01*
X123798302Y-101271776D01*
X123779867Y-101400000D01*
X118515500Y-101400000D01*
X118515500Y-96203236D01*
X118515635Y-96198768D01*
X118517912Y-96161118D01*
X118531996Y-95928283D01*
X118533070Y-95919435D01*
X118581516Y-95655075D01*
X118583646Y-95646432D01*
X118663600Y-95389852D01*
X118666757Y-95381525D01*
X118777062Y-95136438D01*
X118781206Y-95128544D01*
X118920233Y-94898565D01*
X118925309Y-94891212D01*
X119091046Y-94679663D01*
X119096957Y-94672991D01*
X119286991Y-94482957D01*
X119293663Y-94477046D01*
X119505212Y-94311308D01*
X119512566Y-94306233D01*
X119742544Y-94167206D01*
X119750438Y-94163062D01*
X119995525Y-94052757D01*
X120003852Y-94049600D01*
X120260432Y-93969646D01*
X120269075Y-93967516D01*
X120533435Y-93919070D01*
X120542283Y-93917996D01*
X120812768Y-93901634D01*
X120817236Y-93901500D01*
X120854882Y-93901500D01*
X140775118Y-93901500D01*
X140812764Y-93901500D01*
X140817231Y-93901634D01*
G37*
%TD.AperFunction*%
%TD*%
M02*
