%TF.GenerationSoftware,KiCad,Pcbnew,8.0.4*%
%TF.CreationDate,2024-08-13T13:30:06+02:00*%
%TF.ProjectId,TMP104_Development board,544d5031-3034-45f4-9465-76656c6f706d,rev?*%
%TF.SameCoordinates,Original*%
%TF.FileFunction,Copper,L4,Bot*%
%TF.FilePolarity,Positive*%
%FSLAX46Y46*%
G04 Gerber Fmt 4.6, Leading zero omitted, Abs format (unit mm)*
G04 Created by KiCad (PCBNEW 8.0.4) date 2024-08-13 13:30:06*
%MOMM*%
%LPD*%
G01*
G04 APERTURE LIST*
G04 Aperture macros list*
%AMRoundRect*
0 Rectangle with rounded corners*
0 $1 Rounding radius*
0 $2 $3 $4 $5 $6 $7 $8 $9 X,Y pos of 4 corners*
0 Add a 4 corners polygon primitive as box body*
4,1,4,$2,$3,$4,$5,$6,$7,$8,$9,$2,$3,0*
0 Add four circle primitives for the rounded corners*
1,1,$1+$1,$2,$3*
1,1,$1+$1,$4,$5*
1,1,$1+$1,$6,$7*
1,1,$1+$1,$8,$9*
0 Add four rect primitives between the rounded corners*
20,1,$1+$1,$2,$3,$4,$5,0*
20,1,$1+$1,$4,$5,$6,$7,0*
20,1,$1+$1,$6,$7,$8,$9,0*
20,1,$1+$1,$8,$9,$2,$3,0*%
G04 Aperture macros list end*
%TA.AperFunction,SMDPad,CuDef*%
%ADD10C,0.250000*%
%TD*%
%TA.AperFunction,SMDPad,CuDef*%
%ADD11RoundRect,0.225000X0.250000X-0.225000X0.250000X0.225000X-0.250000X0.225000X-0.250000X-0.225000X0*%
%TD*%
%TA.AperFunction,ViaPad*%
%ADD12C,0.600000*%
%TD*%
%TA.AperFunction,ViaPad*%
%ADD13C,0.800000*%
%TD*%
%TA.AperFunction,Conductor*%
%ADD14C,0.200000*%
%TD*%
%TA.AperFunction,Conductor*%
%ADD15C,0.800000*%
%TD*%
G04 APERTURE END LIST*
D10*
%TO.P,U1,1,VCC*%
%TO.N,VCC_3.3V*%
X122765000Y-103626000D03*
%TO.P,U1,2,GND*%
%TO.N,GND*%
X122765000Y-104026000D03*
%TO.P,U1,3,TX*%
%TO.N,TX_1*%
X123165000Y-103626000D03*
%TO.P,U1,4,RX*%
%TO.N,RX_1*%
X123165000Y-104026000D03*
%TD*%
D11*
%TO.P,C9,1*%
%TO.N,VCC_3.3V*%
X121825000Y-102455000D03*
%TO.P,C9,2*%
%TO.N,GND*%
X121825000Y-100905000D03*
%TD*%
%TO.P,C10,1*%
%TO.N,VCC_3.3V*%
X120225000Y-102455000D03*
%TO.P,C10,2*%
%TO.N,GND*%
X120225000Y-100905000D03*
%TD*%
D12*
%TO.N,VCC_3.3V*%
X131415000Y-103701000D03*
%TO.N,RX_1*%
X121762902Y-105414078D03*
%TO.N,TX_1*%
X124235000Y-101400000D03*
D13*
%TO.N,GND*%
X134465000Y-112655000D03*
D12*
X120870000Y-103790000D03*
X136400000Y-99200000D03*
X134400000Y-99200000D03*
D13*
X134465000Y-94525000D03*
D12*
X138400000Y-99200000D03*
D13*
X136065000Y-94525000D03*
D12*
X132400000Y-103700000D03*
D13*
X141675000Y-105830000D03*
D12*
X134400000Y-108200000D03*
X121695000Y-106161000D03*
X138400000Y-108200000D03*
X136400000Y-108200000D03*
X136400000Y-103700000D03*
X138400000Y-103700000D03*
X124205000Y-100451000D03*
D13*
X121825000Y-98800000D03*
X120425000Y-98716000D03*
D12*
X132400000Y-108200000D03*
D13*
X136065000Y-112670000D03*
X121825000Y-108521000D03*
X141675000Y-101445000D03*
X126873000Y-104730000D03*
X126895000Y-102700000D03*
D12*
X134400000Y-103700000D03*
X132400000Y-99200000D03*
%TO.N,VCC_3.3V*%
X135400000Y-103700000D03*
X137400000Y-103700000D03*
D13*
X120425000Y-108541000D03*
D12*
X133400000Y-103700000D03*
%TD*%
D14*
%TO.N,RX_1*%
X122261922Y-105414078D02*
X123165000Y-104511000D01*
X123165000Y-104511000D02*
X123165000Y-104026000D01*
X121762902Y-105414078D02*
X122261922Y-105414078D01*
%TO.N,TX_1*%
X124235000Y-101400000D02*
X123165000Y-102470000D01*
X123165000Y-102470000D02*
X123165000Y-103626000D01*
D15*
%TO.N,GND*%
X120225000Y-98916000D02*
X120225000Y-100905000D01*
X121825000Y-98800000D02*
X121825000Y-100905000D01*
D14*
X122765000Y-104026000D02*
X121106000Y-104026000D01*
X121106000Y-104026000D02*
X120870000Y-103790000D01*
D15*
X120425000Y-98716000D02*
X120225000Y-98916000D01*
%TD*%
%TA.AperFunction,Conductor*%
%TO.N,VCC_3.3V*%
G36*
X134212040Y-93923174D02*
G01*
X134233714Y-93975500D01*
X134212040Y-94027826D01*
X134191484Y-94041559D01*
X134191574Y-94041715D01*
X134189208Y-94043080D01*
X134188031Y-94043867D01*
X134187375Y-94044139D01*
X134072379Y-94132379D01*
X133984138Y-94247376D01*
X133928669Y-94381291D01*
X133909750Y-94525000D01*
X133928669Y-94668708D01*
X133984138Y-94802623D01*
X133984139Y-94802625D01*
X134072379Y-94917621D01*
X134187375Y-95005861D01*
X134321291Y-95061330D01*
X134465000Y-95080250D01*
X134608709Y-95061330D01*
X134742625Y-95005861D01*
X134857621Y-94917621D01*
X134945861Y-94802625D01*
X135001330Y-94668709D01*
X135020250Y-94525000D01*
X135001330Y-94381291D01*
X134945861Y-94247375D01*
X134857621Y-94132379D01*
X134742625Y-94044139D01*
X134741969Y-94043867D01*
X134741716Y-94043614D01*
X134738426Y-94041715D01*
X134738935Y-94040833D01*
X134701920Y-94003821D01*
X134701918Y-93947184D01*
X134741965Y-93907134D01*
X134770286Y-93901500D01*
X135759714Y-93901500D01*
X135812040Y-93923174D01*
X135833714Y-93975500D01*
X135812040Y-94027826D01*
X135791484Y-94041559D01*
X135791574Y-94041715D01*
X135789208Y-94043080D01*
X135788031Y-94043867D01*
X135787375Y-94044139D01*
X135672379Y-94132379D01*
X135584138Y-94247376D01*
X135528669Y-94381291D01*
X135509750Y-94525000D01*
X135528669Y-94668708D01*
X135584138Y-94802623D01*
X135584139Y-94802625D01*
X135672379Y-94917621D01*
X135787375Y-95005861D01*
X135921291Y-95061330D01*
X136065000Y-95080250D01*
X136208709Y-95061330D01*
X136342625Y-95005861D01*
X136457621Y-94917621D01*
X136545861Y-94802625D01*
X136601330Y-94668709D01*
X136620250Y-94525000D01*
X136601330Y-94381291D01*
X136545861Y-94247375D01*
X136457621Y-94132379D01*
X136342625Y-94044139D01*
X136341969Y-94043867D01*
X136341716Y-94043614D01*
X136338426Y-94041715D01*
X136338935Y-94040833D01*
X136301920Y-94003821D01*
X136301918Y-93947184D01*
X136341965Y-93907134D01*
X136370286Y-93901500D01*
X140775118Y-93901500D01*
X140812764Y-93901500D01*
X140817231Y-93901634D01*
X141087714Y-93917996D01*
X141096566Y-93919071D01*
X141360920Y-93967515D01*
X141369571Y-93969648D01*
X141626141Y-94049598D01*
X141634480Y-94052759D01*
X141811386Y-94132379D01*
X141879552Y-94163058D01*
X141887464Y-94167211D01*
X142117433Y-94306233D01*
X142124787Y-94311309D01*
X142336327Y-94477039D01*
X142343016Y-94482965D01*
X142533034Y-94672983D01*
X142538960Y-94679672D01*
X142704690Y-94891212D01*
X142709766Y-94898566D01*
X142848788Y-95128535D01*
X142852941Y-95136447D01*
X142963236Y-95381511D01*
X142966404Y-95389867D01*
X143046348Y-95646416D01*
X143048487Y-95655092D01*
X143096927Y-95919424D01*
X143098004Y-95928295D01*
X143114365Y-96198768D01*
X143114500Y-96203236D01*
X143114500Y-111198763D01*
X143114365Y-111203231D01*
X143098004Y-111473704D01*
X143096927Y-111482575D01*
X143048487Y-111746907D01*
X143046348Y-111755583D01*
X142966404Y-112012132D01*
X142963236Y-112020488D01*
X142852941Y-112265552D01*
X142848788Y-112273464D01*
X142709766Y-112503433D01*
X142704690Y-112510787D01*
X142538960Y-112722327D01*
X142533034Y-112729016D01*
X142343016Y-112919034D01*
X142336327Y-112924960D01*
X142124787Y-113090690D01*
X142117433Y-113095766D01*
X141887464Y-113234788D01*
X141879552Y-113238941D01*
X141634488Y-113349236D01*
X141626132Y-113352404D01*
X141369583Y-113432348D01*
X141360907Y-113434487D01*
X141096575Y-113482927D01*
X141087704Y-113484004D01*
X140817232Y-113500365D01*
X140812764Y-113500500D01*
X120817236Y-113500500D01*
X120812768Y-113500365D01*
X120542295Y-113484004D01*
X120533424Y-113482927D01*
X120269092Y-113434487D01*
X120260416Y-113432348D01*
X120003867Y-113352404D01*
X119995511Y-113349236D01*
X119750447Y-113238941D01*
X119742535Y-113234788D01*
X119512566Y-113095766D01*
X119505212Y-113090690D01*
X119293672Y-112924960D01*
X119286983Y-112919034D01*
X119096965Y-112729016D01*
X119091039Y-112722327D01*
X119038292Y-112655000D01*
X133909750Y-112655000D01*
X133928669Y-112798708D01*
X133979821Y-112922200D01*
X133984139Y-112932625D01*
X134072379Y-113047621D01*
X134187375Y-113135861D01*
X134321291Y-113191330D01*
X134465000Y-113210250D01*
X134608709Y-113191330D01*
X134742625Y-113135861D01*
X134857621Y-113047621D01*
X134945861Y-112932625D01*
X135001330Y-112798709D01*
X135018275Y-112670000D01*
X135509750Y-112670000D01*
X135528669Y-112813708D01*
X135572296Y-112919034D01*
X135584139Y-112947625D01*
X135672379Y-113062621D01*
X135787375Y-113150861D01*
X135921291Y-113206330D01*
X136065000Y-113225250D01*
X136208709Y-113206330D01*
X136342625Y-113150861D01*
X136457621Y-113062621D01*
X136545861Y-112947625D01*
X136601330Y-112813709D01*
X136620250Y-112670000D01*
X136601330Y-112526291D01*
X136545861Y-112392375D01*
X136457621Y-112277379D01*
X136342625Y-112189139D01*
X136342623Y-112189138D01*
X136208708Y-112133669D01*
X136065000Y-112114750D01*
X135921291Y-112133669D01*
X135787376Y-112189138D01*
X135672379Y-112277379D01*
X135584138Y-112392376D01*
X135528669Y-112526291D01*
X135509750Y-112670000D01*
X135018275Y-112670000D01*
X135020250Y-112655000D01*
X135001330Y-112511291D01*
X134945861Y-112377375D01*
X134857621Y-112262379D01*
X134742625Y-112174139D01*
X134742623Y-112174138D01*
X134608708Y-112118669D01*
X134465000Y-112099750D01*
X134321291Y-112118669D01*
X134187376Y-112174138D01*
X134072379Y-112262379D01*
X133984138Y-112377376D01*
X133928669Y-112511291D01*
X133909750Y-112655000D01*
X119038292Y-112655000D01*
X118925309Y-112510787D01*
X118920233Y-112503433D01*
X118781211Y-112273464D01*
X118777058Y-112265552D01*
X118735916Y-112174138D01*
X118666759Y-112020480D01*
X118663598Y-112012141D01*
X118583648Y-111755571D01*
X118581515Y-111746920D01*
X118533071Y-111482566D01*
X118531996Y-111473714D01*
X118515635Y-111203231D01*
X118515500Y-111198763D01*
X118515500Y-108521000D01*
X121269750Y-108521000D01*
X121288669Y-108664708D01*
X121344138Y-108798623D01*
X121344139Y-108798625D01*
X121432379Y-108913621D01*
X121547375Y-109001861D01*
X121681291Y-109057330D01*
X121825000Y-109076250D01*
X121968709Y-109057330D01*
X122102625Y-109001861D01*
X122217621Y-108913621D01*
X122305861Y-108798625D01*
X122361330Y-108664709D01*
X122380250Y-108521000D01*
X122361330Y-108377291D01*
X122305861Y-108243375D01*
X122272578Y-108200000D01*
X131944867Y-108200000D01*
X131963302Y-108328223D01*
X131963302Y-108328224D01*
X131963303Y-108328226D01*
X132017118Y-108446063D01*
X132101951Y-108543967D01*
X132210931Y-108614004D01*
X132335228Y-108650500D01*
X132464772Y-108650500D01*
X132589069Y-108614004D01*
X132698049Y-108543967D01*
X132782882Y-108446063D01*
X132836697Y-108328226D01*
X132855133Y-108200000D01*
X133944867Y-108200000D01*
X133963302Y-108328223D01*
X133963302Y-108328224D01*
X133963303Y-108328226D01*
X134017118Y-108446063D01*
X134101951Y-108543967D01*
X134210931Y-108614004D01*
X134335228Y-108650500D01*
X134464772Y-108650500D01*
X134589069Y-108614004D01*
X134698049Y-108543967D01*
X134782882Y-108446063D01*
X134836697Y-108328226D01*
X134855133Y-108200000D01*
X135944867Y-108200000D01*
X135963302Y-108328223D01*
X135963302Y-108328224D01*
X135963303Y-108328226D01*
X136017118Y-108446063D01*
X136101951Y-108543967D01*
X136210931Y-108614004D01*
X136335228Y-108650500D01*
X136464772Y-108650500D01*
X136589069Y-108614004D01*
X136698049Y-108543967D01*
X136782882Y-108446063D01*
X136836697Y-108328226D01*
X136855133Y-108200000D01*
X137944867Y-108200000D01*
X137963302Y-108328223D01*
X137963302Y-108328224D01*
X137963303Y-108328226D01*
X138017118Y-108446063D01*
X138101951Y-108543967D01*
X138210931Y-108614004D01*
X138335228Y-108650500D01*
X138464772Y-108650500D01*
X138589069Y-108614004D01*
X138698049Y-108543967D01*
X138782882Y-108446063D01*
X138836697Y-108328226D01*
X138855133Y-108200000D01*
X138836697Y-108071774D01*
X138782882Y-107953937D01*
X138698049Y-107856033D01*
X138631032Y-107812964D01*
X138589068Y-107785995D01*
X138464772Y-107749500D01*
X138335228Y-107749500D01*
X138210931Y-107785995D01*
X138101954Y-107856031D01*
X138101950Y-107856034D01*
X138017119Y-107953935D01*
X137963302Y-108071776D01*
X137944867Y-108200000D01*
X136855133Y-108200000D01*
X136836697Y-108071774D01*
X136782882Y-107953937D01*
X136698049Y-107856033D01*
X136631032Y-107812964D01*
X136589068Y-107785995D01*
X136464772Y-107749500D01*
X136335228Y-107749500D01*
X136210931Y-107785995D01*
X136101954Y-107856031D01*
X136101950Y-107856034D01*
X136017119Y-107953935D01*
X135963302Y-108071776D01*
X135944867Y-108200000D01*
X134855133Y-108200000D01*
X134836697Y-108071774D01*
X134782882Y-107953937D01*
X134698049Y-107856033D01*
X134631032Y-107812964D01*
X134589068Y-107785995D01*
X134464772Y-107749500D01*
X134335228Y-107749500D01*
X134210931Y-107785995D01*
X134101954Y-107856031D01*
X134101950Y-107856034D01*
X134017119Y-107953935D01*
X133963302Y-108071776D01*
X133944867Y-108200000D01*
X132855133Y-108200000D01*
X132836697Y-108071774D01*
X132782882Y-107953937D01*
X132698049Y-107856033D01*
X132631032Y-107812964D01*
X132589068Y-107785995D01*
X132464772Y-107749500D01*
X132335228Y-107749500D01*
X132210931Y-107785995D01*
X132101954Y-107856031D01*
X132101950Y-107856034D01*
X132017119Y-107953935D01*
X131963302Y-108071776D01*
X131944867Y-108200000D01*
X122272578Y-108200000D01*
X122217621Y-108128379D01*
X122102625Y-108040139D01*
X122102623Y-108040138D01*
X121968708Y-107984669D01*
X121825000Y-107965750D01*
X121681291Y-107984669D01*
X121547376Y-108040138D01*
X121432379Y-108128379D01*
X121344138Y-108243376D01*
X121288669Y-108377291D01*
X121269750Y-108521000D01*
X118515500Y-108521000D01*
X118515500Y-103790000D01*
X120414867Y-103790000D01*
X120433302Y-103918223D01*
X120433302Y-103918224D01*
X120433303Y-103918226D01*
X120487118Y-104036063D01*
X120571951Y-104133967D01*
X120680931Y-104204004D01*
X120805228Y-104240500D01*
X120845357Y-104240500D01*
X120861965Y-104242388D01*
X120876645Y-104245769D01*
X120892225Y-104246236D01*
X120976648Y-104248770D01*
X121002746Y-104254369D01*
X121056172Y-104276500D01*
X121155827Y-104276500D01*
X121223517Y-104276500D01*
X121230940Y-104276873D01*
X121231450Y-104276925D01*
X121236948Y-104277383D01*
X121237774Y-104277437D01*
X121243253Y-104277698D01*
X121355530Y-104281068D01*
X121355614Y-104281069D01*
X121355619Y-104281070D01*
X121355746Y-104281072D01*
X121357980Y-104281122D01*
X121358331Y-104281127D01*
X121375592Y-104277820D01*
X121389512Y-104276500D01*
X122621565Y-104276500D01*
X122649803Y-104285061D01*
X122650771Y-104282726D01*
X122657503Y-104285514D01*
X122657505Y-104285515D01*
X122765000Y-104306897D01*
X122826065Y-104294750D01*
X122881612Y-104305799D01*
X122913078Y-104352891D01*
X122914500Y-104367328D01*
X122914500Y-104376586D01*
X122892826Y-104428912D01*
X122216422Y-105105315D01*
X122164096Y-105126989D01*
X122121055Y-105113184D01*
X122119933Y-105112381D01*
X122118338Y-105111254D01*
X122118123Y-105111104D01*
X122117285Y-105110530D01*
X122115784Y-105109503D01*
X122074457Y-105081745D01*
X122065068Y-105073440D01*
X122064950Y-105073577D01*
X122060955Y-105070116D01*
X122060951Y-105070111D01*
X121963718Y-105007623D01*
X121951970Y-105000073D01*
X121827674Y-104963578D01*
X121698130Y-104963578D01*
X121573833Y-105000073D01*
X121464856Y-105070109D01*
X121464852Y-105070112D01*
X121380021Y-105168013D01*
X121326204Y-105285854D01*
X121307769Y-105414078D01*
X121326204Y-105542301D01*
X121326204Y-105542302D01*
X121326205Y-105542304D01*
X121380020Y-105660141D01*
X121412371Y-105697477D01*
X121417471Y-105703362D01*
X121435356Y-105757101D01*
X121410005Y-105807748D01*
X121401559Y-105814071D01*
X121396955Y-105817030D01*
X121396950Y-105817034D01*
X121312119Y-105914935D01*
X121258302Y-106032776D01*
X121239867Y-106161000D01*
X121258302Y-106289223D01*
X121258302Y-106289224D01*
X121258303Y-106289226D01*
X121312118Y-106407063D01*
X121396951Y-106504967D01*
X121505931Y-106575004D01*
X121630228Y-106611500D01*
X121759772Y-106611500D01*
X121884069Y-106575004D01*
X121993049Y-106504967D01*
X122077882Y-106407063D01*
X122131697Y-106289226D01*
X122150133Y-106161000D01*
X122131697Y-106032774D01*
X122077882Y-105914937D01*
X122077880Y-105914935D01*
X122077880Y-105914934D01*
X122077878Y-105914932D01*
X122062550Y-105897242D01*
X122044664Y-105843503D01*
X122051423Y-105830000D01*
X141119750Y-105830000D01*
X141138669Y-105973708D01*
X141163135Y-106032774D01*
X141194139Y-106107625D01*
X141282379Y-106222621D01*
X141397375Y-106310861D01*
X141531291Y-106366330D01*
X141675000Y-106385250D01*
X141818709Y-106366330D01*
X141952625Y-106310861D01*
X142067621Y-106222621D01*
X142155861Y-106107625D01*
X142211330Y-105973709D01*
X142230250Y-105830000D01*
X142211330Y-105686291D01*
X142155861Y-105552375D01*
X142067621Y-105437379D01*
X141952625Y-105349139D01*
X141952623Y-105349138D01*
X141818708Y-105293669D01*
X141675000Y-105274750D01*
X141531291Y-105293669D01*
X141397376Y-105349138D01*
X141282379Y-105437379D01*
X141194138Y-105552376D01*
X141138669Y-105686291D01*
X141119750Y-105830000D01*
X122051423Y-105830000D01*
X122070015Y-105792857D01*
X122093520Y-105779116D01*
X122141711Y-105761857D01*
X122145863Y-105760303D01*
X122146485Y-105760060D01*
X122150599Y-105758385D01*
X122294268Y-105697472D01*
X122314451Y-105687117D01*
X122317359Y-105685346D01*
X122335823Y-105672164D01*
X122369387Y-105644288D01*
X122388348Y-105632850D01*
X122390750Y-105631854D01*
X122403819Y-105626442D01*
X122464798Y-105565462D01*
X122469827Y-105560878D01*
X122492194Y-105542304D01*
X122493509Y-105541212D01*
X122498964Y-105536463D01*
X122499762Y-105535735D01*
X122508392Y-105523437D01*
X122516630Y-105513629D01*
X123300261Y-104730000D01*
X126317750Y-104730000D01*
X126336669Y-104873708D01*
X126373894Y-104963578D01*
X126392139Y-105007625D01*
X126480379Y-105122621D01*
X126595375Y-105210861D01*
X126729291Y-105266330D01*
X126873000Y-105285250D01*
X127016709Y-105266330D01*
X127150625Y-105210861D01*
X127265621Y-105122621D01*
X127353861Y-105007625D01*
X127409330Y-104873709D01*
X127428250Y-104730000D01*
X127409330Y-104586291D01*
X127353861Y-104452375D01*
X127265621Y-104337379D01*
X127150625Y-104249139D01*
X127150309Y-104249008D01*
X127016708Y-104193669D01*
X126873000Y-104174750D01*
X126729291Y-104193669D01*
X126595376Y-104249138D01*
X126480379Y-104337379D01*
X126392138Y-104452376D01*
X126336669Y-104586291D01*
X126317750Y-104730000D01*
X123300261Y-104730000D01*
X123377364Y-104652897D01*
X123415500Y-104560828D01*
X123415500Y-104461172D01*
X123415500Y-104169434D01*
X123424072Y-104141201D01*
X123421726Y-104140229D01*
X123424514Y-104133497D01*
X123424514Y-104133496D01*
X123424515Y-104133495D01*
X123445897Y-104026000D01*
X123424515Y-103918505D01*
X123390175Y-103867112D01*
X123379126Y-103811563D01*
X123390175Y-103784888D01*
X123398657Y-103772194D01*
X123424515Y-103733495D01*
X123431178Y-103700000D01*
X131944867Y-103700000D01*
X131963302Y-103828223D01*
X131963302Y-103828224D01*
X131963303Y-103828226D01*
X132017118Y-103946063D01*
X132101951Y-104043967D01*
X132210931Y-104114004D01*
X132335228Y-104150500D01*
X132464772Y-104150500D01*
X132589069Y-104114004D01*
X132698049Y-104043967D01*
X132782882Y-103946063D01*
X132836697Y-103828226D01*
X132855133Y-103700000D01*
X133944867Y-103700000D01*
X133963302Y-103828223D01*
X133963302Y-103828224D01*
X133963303Y-103828226D01*
X134017118Y-103946063D01*
X134101951Y-104043967D01*
X134210931Y-104114004D01*
X134335228Y-104150500D01*
X134464772Y-104150500D01*
X134589069Y-104114004D01*
X134698049Y-104043967D01*
X134782882Y-103946063D01*
X134836697Y-103828226D01*
X134855133Y-103700000D01*
X135944867Y-103700000D01*
X135963302Y-103828223D01*
X135963302Y-103828224D01*
X135963303Y-103828226D01*
X136017118Y-103946063D01*
X136101951Y-104043967D01*
X136210931Y-104114004D01*
X136335228Y-104150500D01*
X136464772Y-104150500D01*
X136589069Y-104114004D01*
X136698049Y-104043967D01*
X136782882Y-103946063D01*
X136836697Y-103828226D01*
X136855133Y-103700000D01*
X137944867Y-103700000D01*
X137963302Y-103828223D01*
X137963302Y-103828224D01*
X137963303Y-103828226D01*
X138017118Y-103946063D01*
X138101951Y-104043967D01*
X138210931Y-104114004D01*
X138335228Y-104150500D01*
X138464772Y-104150500D01*
X138589069Y-104114004D01*
X138698049Y-104043967D01*
X138782882Y-103946063D01*
X138836697Y-103828226D01*
X138855133Y-103700000D01*
X138836697Y-103571774D01*
X138782882Y-103453937D01*
X138698049Y-103356033D01*
X138631032Y-103312964D01*
X138589068Y-103285995D01*
X138464772Y-103249500D01*
X138335228Y-103249500D01*
X138210931Y-103285995D01*
X138101954Y-103356031D01*
X138101950Y-103356034D01*
X138017119Y-103453935D01*
X137963302Y-103571776D01*
X137944867Y-103700000D01*
X136855133Y-103700000D01*
X136836697Y-103571774D01*
X136782882Y-103453937D01*
X136698049Y-103356033D01*
X136631032Y-103312964D01*
X136589068Y-103285995D01*
X136464772Y-103249500D01*
X136335228Y-103249500D01*
X136210931Y-103285995D01*
X136101954Y-103356031D01*
X136101950Y-103356034D01*
X136017119Y-103453935D01*
X135963302Y-103571776D01*
X135944867Y-103700000D01*
X134855133Y-103700000D01*
X134836697Y-103571774D01*
X134782882Y-103453937D01*
X134698049Y-103356033D01*
X134631032Y-103312964D01*
X134589068Y-103285995D01*
X134464772Y-103249500D01*
X134335228Y-103249500D01*
X134210931Y-103285995D01*
X134101954Y-103356031D01*
X134101950Y-103356034D01*
X134017119Y-103453935D01*
X133963302Y-103571776D01*
X133944867Y-103700000D01*
X132855133Y-103700000D01*
X132836697Y-103571774D01*
X132782882Y-103453937D01*
X132698049Y-103356033D01*
X132631032Y-103312964D01*
X132589068Y-103285995D01*
X132464772Y-103249500D01*
X132335228Y-103249500D01*
X132210931Y-103285995D01*
X132101954Y-103356031D01*
X132101950Y-103356034D01*
X132017119Y-103453935D01*
X131963302Y-103571776D01*
X131944867Y-103700000D01*
X123431178Y-103700000D01*
X123445897Y-103626000D01*
X123424515Y-103518505D01*
X123424514Y-103518503D01*
X123421726Y-103511771D01*
X123424061Y-103510803D01*
X123415500Y-103482565D01*
X123415500Y-102700000D01*
X126339750Y-102700000D01*
X126358669Y-102843708D01*
X126382366Y-102900917D01*
X126414139Y-102977625D01*
X126502379Y-103092621D01*
X126617375Y-103180861D01*
X126751291Y-103236330D01*
X126895000Y-103255250D01*
X127038709Y-103236330D01*
X127172625Y-103180861D01*
X127287621Y-103092621D01*
X127375861Y-102977625D01*
X127431330Y-102843709D01*
X127450250Y-102700000D01*
X127431330Y-102556291D01*
X127375861Y-102422375D01*
X127287621Y-102307379D01*
X127172625Y-102219139D01*
X127172623Y-102219138D01*
X127038708Y-102163669D01*
X126895000Y-102144750D01*
X126751291Y-102163669D01*
X126617376Y-102219138D01*
X126502379Y-102307379D01*
X126414138Y-102422376D01*
X126358669Y-102556291D01*
X126339750Y-102700000D01*
X123415500Y-102700000D01*
X123415500Y-102604412D01*
X123437174Y-102552086D01*
X123681881Y-102307379D01*
X123961967Y-102027292D01*
X123981309Y-102013378D01*
X123984724Y-102011678D01*
X124094255Y-101926968D01*
X124116910Y-101915046D01*
X124210422Y-101885040D01*
X124211971Y-101884543D01*
X124211976Y-101884541D01*
X124385131Y-101829127D01*
X124390982Y-101827126D01*
X124391860Y-101826806D01*
X124392830Y-101826189D01*
X124411672Y-101817643D01*
X124424069Y-101814004D01*
X124533049Y-101743967D01*
X124617882Y-101646063D01*
X124671697Y-101528226D01*
X124683663Y-101445000D01*
X141119750Y-101445000D01*
X141138669Y-101588708D01*
X141194138Y-101722623D01*
X141194139Y-101722625D01*
X141282379Y-101837621D01*
X141397375Y-101925861D01*
X141531291Y-101981330D01*
X141675000Y-102000250D01*
X141818709Y-101981330D01*
X141952625Y-101925861D01*
X142067621Y-101837621D01*
X142155861Y-101722625D01*
X142211330Y-101588709D01*
X142230250Y-101445000D01*
X142211330Y-101301291D01*
X142155861Y-101167375D01*
X142067621Y-101052379D01*
X141952625Y-100964139D01*
X141917283Y-100949500D01*
X141818708Y-100908669D01*
X141675000Y-100889750D01*
X141531291Y-100908669D01*
X141397376Y-100964138D01*
X141282379Y-101052379D01*
X141194138Y-101167376D01*
X141138669Y-101301291D01*
X141119750Y-101445000D01*
X124683663Y-101445000D01*
X124690133Y-101400000D01*
X124671697Y-101271774D01*
X124617882Y-101153937D01*
X124533049Y-101056033D01*
X124440479Y-100996542D01*
X124424068Y-100985995D01*
X124419743Y-100984020D01*
X124381152Y-100942565D01*
X124383177Y-100885964D01*
X124410479Y-100854457D01*
X124503049Y-100794967D01*
X124587882Y-100697063D01*
X124641697Y-100579226D01*
X124660133Y-100451000D01*
X124641697Y-100322774D01*
X124587882Y-100204937D01*
X124503049Y-100107033D01*
X124436032Y-100063964D01*
X124394068Y-100036995D01*
X124269772Y-100000500D01*
X124140228Y-100000500D01*
X124015931Y-100036995D01*
X123906954Y-100107031D01*
X123906950Y-100107034D01*
X123822119Y-100204935D01*
X123768302Y-100322776D01*
X123749867Y-100451000D01*
X123768302Y-100579223D01*
X123768302Y-100579224D01*
X123768303Y-100579226D01*
X123822118Y-100697063D01*
X123906951Y-100794967D01*
X124015931Y-100865004D01*
X124015933Y-100865004D01*
X124020253Y-100866978D01*
X124058846Y-100908431D01*
X124056823Y-100965032D01*
X124029519Y-100996542D01*
X123936956Y-101056029D01*
X123936947Y-101056036D01*
X123852117Y-101153937D01*
X123820906Y-101222277D01*
X123818319Y-101227405D01*
X123805872Y-101249863D01*
X123801504Y-101263511D01*
X123798348Y-101271673D01*
X123798304Y-101271768D01*
X123797115Y-101275818D01*
X123795959Y-101280838D01*
X123772069Y-101355480D01*
X123772062Y-101355508D01*
X123749980Y-101424508D01*
X123749962Y-101424565D01*
X123727402Y-101494865D01*
X123727129Y-101495715D01*
X123727128Y-101495715D01*
X123719948Y-101518088D01*
X123708025Y-101540746D01*
X123629842Y-101641842D01*
X123629841Y-101641844D01*
X123623324Y-101650269D01*
X123623319Y-101650276D01*
X123620145Y-101656175D01*
X123607311Y-101673427D01*
X122952637Y-102328101D01*
X122952634Y-102328105D01*
X122914500Y-102420170D01*
X122914500Y-103285180D01*
X122892826Y-103337506D01*
X122840500Y-103359180D01*
X122826064Y-103357758D01*
X122765001Y-103345612D01*
X122765000Y-103345612D01*
X122657701Y-103366954D01*
X122630317Y-103385251D01*
X122818740Y-103573674D01*
X122840414Y-103626000D01*
X122818740Y-103678326D01*
X122817326Y-103679740D01*
X122765000Y-103701414D01*
X122712674Y-103679740D01*
X122524251Y-103491317D01*
X122505954Y-103518701D01*
X122484612Y-103626000D01*
X122496758Y-103687064D01*
X122485709Y-103742612D01*
X122438616Y-103774078D01*
X122424180Y-103775500D01*
X121417390Y-103775500D01*
X121395518Y-103772194D01*
X121394059Y-103771743D01*
X121394055Y-103771741D01*
X121393793Y-103771687D01*
X121391949Y-103771310D01*
X121391348Y-103770904D01*
X121390576Y-103770665D01*
X121390648Y-103770430D01*
X121345030Y-103739586D01*
X121337547Y-103724933D01*
X121333828Y-103715075D01*
X121333769Y-103714909D01*
X121333637Y-103714563D01*
X121333477Y-103714142D01*
X121332412Y-103711320D01*
X121332263Y-103710988D01*
X121297761Y-103621210D01*
X121289512Y-103603248D01*
X121289512Y-103603247D01*
X121288112Y-103600648D01*
X121288106Y-103600637D01*
X121277660Y-103583886D01*
X121277656Y-103583880D01*
X121263768Y-103564475D01*
X121256630Y-103552144D01*
X121252883Y-103543938D01*
X121233225Y-103521251D01*
X121228975Y-103515860D01*
X121226048Y-103511771D01*
X121216595Y-103498562D01*
X121208918Y-103488699D01*
X121208913Y-103488692D01*
X121207699Y-103487255D01*
X121203671Y-103484305D01*
X121191472Y-103473065D01*
X121168052Y-103446036D01*
X121168050Y-103446035D01*
X121168049Y-103446033D01*
X121073470Y-103385251D01*
X121059068Y-103375995D01*
X120934772Y-103339500D01*
X120805228Y-103339500D01*
X120680931Y-103375995D01*
X120571954Y-103446031D01*
X120571950Y-103446034D01*
X120487119Y-103543935D01*
X120487118Y-103543936D01*
X120487118Y-103543937D01*
X120474405Y-103571774D01*
X120433302Y-103661776D01*
X120414867Y-103790000D01*
X118515500Y-103790000D01*
X118515500Y-102715592D01*
X119600000Y-102715592D01*
X119610620Y-102788482D01*
X119665587Y-102900917D01*
X119754082Y-102989412D01*
X119866517Y-103044379D01*
X119939407Y-103054999D01*
X119939418Y-103055000D01*
X120150000Y-103055000D01*
X120300000Y-103055000D01*
X120510582Y-103055000D01*
X120510592Y-103054999D01*
X120583482Y-103044379D01*
X120695917Y-102989412D01*
X120784412Y-102900917D01*
X120839379Y-102788482D01*
X120849999Y-102715592D01*
X121200000Y-102715592D01*
X121210620Y-102788482D01*
X121265587Y-102900917D01*
X121354082Y-102989412D01*
X121466517Y-103044379D01*
X121539407Y-103054999D01*
X121539418Y-103055000D01*
X121750000Y-103055000D01*
X121900000Y-103055000D01*
X122110582Y-103055000D01*
X122110592Y-103054999D01*
X122183482Y-103044379D01*
X122295917Y-102989412D01*
X122384412Y-102900917D01*
X122439379Y-102788482D01*
X122449999Y-102715592D01*
X122450000Y-102715581D01*
X122450000Y-102530000D01*
X121900000Y-102530000D01*
X121900000Y-103055000D01*
X121750000Y-103055000D01*
X121750000Y-102530000D01*
X121200000Y-102530000D01*
X121200000Y-102715592D01*
X120849999Y-102715592D01*
X120850000Y-102715581D01*
X120850000Y-102530000D01*
X120300000Y-102530000D01*
X120300000Y-103055000D01*
X120150000Y-103055000D01*
X120150000Y-102530000D01*
X119600000Y-102530000D01*
X119600000Y-102715592D01*
X118515500Y-102715592D01*
X118515500Y-102194407D01*
X119600000Y-102194407D01*
X119600000Y-102380000D01*
X120150000Y-102380000D01*
X120300000Y-102380000D01*
X120850000Y-102380000D01*
X120850000Y-102194418D01*
X120849999Y-102194407D01*
X121200000Y-102194407D01*
X121200000Y-102380000D01*
X121750000Y-102380000D01*
X121900000Y-102380000D01*
X122450000Y-102380000D01*
X122450000Y-102194418D01*
X122449999Y-102194407D01*
X122439379Y-102121517D01*
X122384412Y-102009082D01*
X122295917Y-101920587D01*
X122183482Y-101865620D01*
X122110592Y-101855000D01*
X121900000Y-101855000D01*
X121900000Y-102380000D01*
X121750000Y-102380000D01*
X121750000Y-101855000D01*
X121539407Y-101855000D01*
X121466517Y-101865620D01*
X121354082Y-101920587D01*
X121265587Y-102009082D01*
X121210620Y-102121517D01*
X121200000Y-102194407D01*
X120849999Y-102194407D01*
X120839379Y-102121517D01*
X120784412Y-102009082D01*
X120695917Y-101920587D01*
X120583482Y-101865620D01*
X120510592Y-101855000D01*
X120300000Y-101855000D01*
X120300000Y-102380000D01*
X120150000Y-102380000D01*
X120150000Y-101855000D01*
X119939407Y-101855000D01*
X119866517Y-101865620D01*
X119754082Y-101920587D01*
X119665587Y-102009082D01*
X119610620Y-102121517D01*
X119600000Y-102194407D01*
X118515500Y-102194407D01*
X118515500Y-100644359D01*
X119599500Y-100644359D01*
X119599500Y-101165640D01*
X119610134Y-101238625D01*
X119610134Y-101238626D01*
X119665173Y-101351210D01*
X119665174Y-101351211D01*
X119753789Y-101439826D01*
X119866375Y-101494866D01*
X119939364Y-101505500D01*
X119939370Y-101505500D01*
X120510630Y-101505500D01*
X120510636Y-101505500D01*
X120583625Y-101494866D01*
X120696211Y-101439826D01*
X120784826Y-101351211D01*
X120839866Y-101238625D01*
X120850500Y-101165636D01*
X120850500Y-100644364D01*
X120850499Y-100644359D01*
X121199500Y-100644359D01*
X121199500Y-101165640D01*
X121210134Y-101238625D01*
X121210134Y-101238626D01*
X121265173Y-101351210D01*
X121265174Y-101351211D01*
X121353789Y-101439826D01*
X121466375Y-101494866D01*
X121539364Y-101505500D01*
X121539370Y-101505500D01*
X122110630Y-101505500D01*
X122110636Y-101505500D01*
X122183625Y-101494866D01*
X122296211Y-101439826D01*
X122384826Y-101351211D01*
X122439866Y-101238625D01*
X122450500Y-101165636D01*
X122450500Y-100644364D01*
X122439866Y-100571375D01*
X122384826Y-100458789D01*
X122383019Y-100455092D01*
X122375500Y-100422592D01*
X122375500Y-99200000D01*
X131944867Y-99200000D01*
X131963302Y-99328223D01*
X131963302Y-99328224D01*
X131963303Y-99328226D01*
X132017118Y-99446063D01*
X132101951Y-99543967D01*
X132210931Y-99614004D01*
X132335228Y-99650500D01*
X132464772Y-99650500D01*
X132589069Y-99614004D01*
X132698049Y-99543967D01*
X132782882Y-99446063D01*
X132836697Y-99328226D01*
X132855133Y-99200000D01*
X133944867Y-99200000D01*
X133963302Y-99328223D01*
X133963302Y-99328224D01*
X133963303Y-99328226D01*
X134017118Y-99446063D01*
X134101951Y-99543967D01*
X134210931Y-99614004D01*
X134335228Y-99650500D01*
X134464772Y-99650500D01*
X134589069Y-99614004D01*
X134698049Y-99543967D01*
X134782882Y-99446063D01*
X134836697Y-99328226D01*
X134855133Y-99200000D01*
X135944867Y-99200000D01*
X135963302Y-99328223D01*
X135963302Y-99328224D01*
X135963303Y-99328226D01*
X136017118Y-99446063D01*
X136101951Y-99543967D01*
X136210931Y-99614004D01*
X136335228Y-99650500D01*
X136464772Y-99650500D01*
X136589069Y-99614004D01*
X136698049Y-99543967D01*
X136782882Y-99446063D01*
X136836697Y-99328226D01*
X136855133Y-99200000D01*
X137944867Y-99200000D01*
X137963302Y-99328223D01*
X137963302Y-99328224D01*
X137963303Y-99328226D01*
X138017118Y-99446063D01*
X138101951Y-99543967D01*
X138210931Y-99614004D01*
X138335228Y-99650500D01*
X138464772Y-99650500D01*
X138589069Y-99614004D01*
X138698049Y-99543967D01*
X138782882Y-99446063D01*
X138836697Y-99328226D01*
X138855133Y-99200000D01*
X138836697Y-99071774D01*
X138782882Y-98953937D01*
X138698049Y-98856033D01*
X138592925Y-98788474D01*
X138589068Y-98785995D01*
X138464772Y-98749500D01*
X138335228Y-98749500D01*
X138210931Y-98785995D01*
X138101954Y-98856031D01*
X138101950Y-98856034D01*
X138017119Y-98953935D01*
X137963302Y-99071776D01*
X137944867Y-99200000D01*
X136855133Y-99200000D01*
X136836697Y-99071774D01*
X136782882Y-98953937D01*
X136698049Y-98856033D01*
X136592925Y-98788474D01*
X136589068Y-98785995D01*
X136464772Y-98749500D01*
X136335228Y-98749500D01*
X136210931Y-98785995D01*
X136101954Y-98856031D01*
X136101950Y-98856034D01*
X136017119Y-98953935D01*
X135963302Y-99071776D01*
X135944867Y-99200000D01*
X134855133Y-99200000D01*
X134836697Y-99071774D01*
X134782882Y-98953937D01*
X134698049Y-98856033D01*
X134592925Y-98788474D01*
X134589068Y-98785995D01*
X134464772Y-98749500D01*
X134335228Y-98749500D01*
X134210931Y-98785995D01*
X134101954Y-98856031D01*
X134101950Y-98856034D01*
X134017119Y-98953935D01*
X133963302Y-99071776D01*
X133944867Y-99200000D01*
X132855133Y-99200000D01*
X132836697Y-99071774D01*
X132782882Y-98953937D01*
X132698049Y-98856033D01*
X132592925Y-98788474D01*
X132589068Y-98785995D01*
X132464772Y-98749500D01*
X132335228Y-98749500D01*
X132210931Y-98785995D01*
X132101954Y-98856031D01*
X132101950Y-98856034D01*
X132017119Y-98953935D01*
X131963302Y-99071776D01*
X131944867Y-99200000D01*
X122375500Y-99200000D01*
X122375500Y-98840929D01*
X122376133Y-98831270D01*
X122377139Y-98823629D01*
X122380250Y-98800000D01*
X122376133Y-98768728D01*
X122375500Y-98759069D01*
X122375500Y-98727525D01*
X122375500Y-98727524D01*
X122367330Y-98697038D01*
X122365446Y-98687559D01*
X122361330Y-98656291D01*
X122349254Y-98627139D01*
X122346150Y-98617994D01*
X122337984Y-98587515D01*
X122332481Y-98577984D01*
X122322212Y-98560197D01*
X122317934Y-98551524D01*
X122305861Y-98522375D01*
X122291389Y-98503515D01*
X122286660Y-98497351D01*
X122281283Y-98489305D01*
X122271290Y-98471998D01*
X122265509Y-98461985D01*
X122243202Y-98439678D01*
X122236820Y-98432400D01*
X122217624Y-98407382D01*
X122217622Y-98407381D01*
X122217621Y-98407379D01*
X122192593Y-98388174D01*
X122185317Y-98381793D01*
X122163015Y-98359491D01*
X122135699Y-98343719D01*
X122127661Y-98338349D01*
X122102625Y-98319139D01*
X122102624Y-98319138D01*
X122102622Y-98319137D01*
X122073479Y-98307065D01*
X122064801Y-98302786D01*
X122047484Y-98292789D01*
X122037485Y-98287016D01*
X122007001Y-98278847D01*
X121997849Y-98275740D01*
X121997245Y-98275490D01*
X121995371Y-98274713D01*
X121968708Y-98263669D01*
X121937442Y-98259553D01*
X121927951Y-98257665D01*
X121897476Y-98249500D01*
X121897475Y-98249500D01*
X121865930Y-98249500D01*
X121856271Y-98248867D01*
X121825000Y-98244750D01*
X121793729Y-98248867D01*
X121784070Y-98249500D01*
X121752525Y-98249500D01*
X121722050Y-98257665D01*
X121712559Y-98259553D01*
X121681289Y-98263670D01*
X121652144Y-98275741D01*
X121642984Y-98278851D01*
X121612514Y-98287016D01*
X121585193Y-98302788D01*
X121576518Y-98307066D01*
X121547372Y-98319139D01*
X121522345Y-98338342D01*
X121514304Y-98343716D01*
X121486984Y-98359491D01*
X121464679Y-98381795D01*
X121457406Y-98388173D01*
X121432380Y-98407377D01*
X121432377Y-98407380D01*
X121413173Y-98432406D01*
X121406795Y-98439679D01*
X121384491Y-98461984D01*
X121368716Y-98489304D01*
X121363342Y-98497345D01*
X121344139Y-98522372D01*
X121332066Y-98551518D01*
X121327788Y-98560193D01*
X121312016Y-98587514D01*
X121303851Y-98617984D01*
X121300741Y-98627144D01*
X121288670Y-98656289D01*
X121284553Y-98687559D01*
X121282665Y-98697050D01*
X121274500Y-98727524D01*
X121274500Y-98759069D01*
X121273867Y-98768728D01*
X121269750Y-98799999D01*
X121273867Y-98831270D01*
X121274500Y-98840929D01*
X121274500Y-100422592D01*
X121266981Y-100455092D01*
X121210134Y-100571373D01*
X121210134Y-100571374D01*
X121199500Y-100644359D01*
X120850499Y-100644359D01*
X120839866Y-100571375D01*
X120784826Y-100458789D01*
X120783019Y-100455092D01*
X120775500Y-100422592D01*
X120775500Y-99177433D01*
X120797174Y-99125107D01*
X120804443Y-99118732D01*
X120817621Y-99108621D01*
X120836825Y-99083591D01*
X120843194Y-99076329D01*
X120865510Y-99054015D01*
X120881283Y-99026693D01*
X120886658Y-99018650D01*
X120905859Y-98993627D01*
X120905861Y-98993625D01*
X120917934Y-98964475D01*
X120922206Y-98955811D01*
X120937984Y-98928485D01*
X120946150Y-98898004D01*
X120949259Y-98888849D01*
X120961330Y-98859709D01*
X120965447Y-98828435D01*
X120967333Y-98818952D01*
X120975500Y-98788474D01*
X120975500Y-98756929D01*
X120976133Y-98747270D01*
X120980250Y-98716000D01*
X120976133Y-98684728D01*
X120975500Y-98675069D01*
X120975500Y-98643526D01*
X120967334Y-98613050D01*
X120965446Y-98603556D01*
X120963333Y-98587508D01*
X120961330Y-98572291D01*
X120949254Y-98543139D01*
X120946150Y-98533994D01*
X120937984Y-98503515D01*
X120922213Y-98476198D01*
X120917932Y-98467517D01*
X120916033Y-98462934D01*
X120905861Y-98438375D01*
X120886654Y-98413344D01*
X120881283Y-98405305D01*
X120865510Y-98377985D01*
X120843199Y-98355674D01*
X120836817Y-98348396D01*
X120829102Y-98338342D01*
X120817621Y-98323379D01*
X120817617Y-98323375D01*
X120792597Y-98304176D01*
X120785321Y-98297796D01*
X120774541Y-98287016D01*
X120763015Y-98275490D01*
X120735691Y-98259714D01*
X120727657Y-98254346D01*
X120702625Y-98235139D01*
X120702624Y-98235138D01*
X120702621Y-98235136D01*
X120673482Y-98223066D01*
X120664805Y-98218788D01*
X120637482Y-98203014D01*
X120607015Y-98194851D01*
X120597850Y-98191740D01*
X120568710Y-98179670D01*
X120537432Y-98175551D01*
X120527944Y-98173663D01*
X120497475Y-98165500D01*
X120497474Y-98165500D01*
X120465930Y-98165500D01*
X120456271Y-98164867D01*
X120425000Y-98160750D01*
X120393729Y-98164867D01*
X120384070Y-98165500D01*
X120352526Y-98165500D01*
X120333668Y-98170552D01*
X120322053Y-98173664D01*
X120312566Y-98175550D01*
X120281299Y-98179667D01*
X120281287Y-98179671D01*
X120252144Y-98191741D01*
X120242984Y-98194851D01*
X120212512Y-98203016D01*
X120212511Y-98203017D01*
X120185193Y-98218788D01*
X120176520Y-98223065D01*
X120165138Y-98227780D01*
X120147376Y-98235138D01*
X120122350Y-98254340D01*
X120114309Y-98259713D01*
X120086983Y-98275491D01*
X120064675Y-98297798D01*
X120057402Y-98304176D01*
X120032380Y-98323377D01*
X120032377Y-98323380D01*
X120013177Y-98348401D01*
X120006797Y-98355676D01*
X119784490Y-98577984D01*
X119712014Y-98703517D01*
X119674500Y-98843522D01*
X119674500Y-100422592D01*
X119666981Y-100455092D01*
X119610134Y-100571373D01*
X119610134Y-100571374D01*
X119599500Y-100644359D01*
X118515500Y-100644359D01*
X118515500Y-96203236D01*
X118515635Y-96198768D01*
X118517912Y-96161118D01*
X118531996Y-95928283D01*
X118533070Y-95919435D01*
X118581516Y-95655075D01*
X118583646Y-95646432D01*
X118663600Y-95389852D01*
X118666757Y-95381525D01*
X118777062Y-95136438D01*
X118781206Y-95128544D01*
X118920233Y-94898565D01*
X118925309Y-94891212D01*
X118994714Y-94802623D01*
X119091046Y-94679663D01*
X119096957Y-94672991D01*
X119286991Y-94482957D01*
X119293663Y-94477046D01*
X119505212Y-94311308D01*
X119512566Y-94306233D01*
X119609927Y-94247376D01*
X119742544Y-94167206D01*
X119750438Y-94163062D01*
X119995525Y-94052757D01*
X120003852Y-94049600D01*
X120260432Y-93969646D01*
X120269075Y-93967516D01*
X120533435Y-93919070D01*
X120542283Y-93917996D01*
X120812768Y-93901634D01*
X120817236Y-93901500D01*
X120854882Y-93901500D01*
X134159714Y-93901500D01*
X134212040Y-93923174D01*
G37*
%TD.AperFunction*%
%TD*%
%TA.AperFunction,Conductor*%
%TO.N,RX_1*%
G36*
X121887522Y-105143781D02*
G01*
X121889555Y-105144872D01*
X122029082Y-105238588D01*
X122029367Y-105238787D01*
X122140598Y-105318392D01*
X122140598Y-105318391D01*
X122140599Y-105318392D01*
X122255536Y-105274657D01*
X122264486Y-105274917D01*
X122267969Y-105277319D01*
X122394961Y-105404311D01*
X122398388Y-105412584D01*
X122394961Y-105420857D01*
X122394163Y-105421585D01*
X122236477Y-105552537D01*
X122233569Y-105554308D01*
X122089900Y-105615221D01*
X122089278Y-105615464D01*
X121888165Y-105687496D01*
X121879221Y-105687059D01*
X121873424Y-105680992D01*
X121764073Y-105419282D01*
X121764047Y-105410329D01*
X121872228Y-105150092D01*
X121878567Y-105143770D01*
X121887522Y-105143781D01*
G37*
%TD.AperFunction*%
%TD*%
%TA.AperFunction,Conductor*%
%TO.N,TX_1*%
G36*
X123969545Y-101290002D02*
G01*
X124166139Y-101370727D01*
X124231184Y-101397436D01*
X124237536Y-101403748D01*
X124237563Y-101403815D01*
X124344991Y-101665440D01*
X124344964Y-101674395D01*
X124338612Y-101680707D01*
X124337734Y-101681027D01*
X124162909Y-101736977D01*
X124031017Y-101779301D01*
X124031012Y-101779303D01*
X123889594Y-101888672D01*
X123880953Y-101891023D01*
X123874163Y-101887690D01*
X123747309Y-101760836D01*
X123743882Y-101752563D01*
X123746327Y-101745405D01*
X123752846Y-101736976D01*
X123855696Y-101603985D01*
X123875066Y-101543619D01*
X123898024Y-101472081D01*
X123921913Y-101397436D01*
X123953973Y-101297263D01*
X123959757Y-101290430D01*
X123968681Y-101289688D01*
X123969545Y-101290002D01*
G37*
%TD.AperFunction*%
%TD*%
%TA.AperFunction,Conductor*%
%TO.N,GND*%
G36*
X121088922Y-103587617D02*
G01*
X121090143Y-103589062D01*
X121151204Y-103674380D01*
X121152611Y-103676992D01*
X121188184Y-103769557D01*
X121188197Y-103769629D01*
X121188210Y-103769625D01*
X121194614Y-103786600D01*
X121218384Y-103849600D01*
X121270446Y-103905175D01*
X121362891Y-103924086D01*
X121370309Y-103929102D01*
X121372246Y-103935549D01*
X121372246Y-104113943D01*
X121368819Y-104122216D01*
X121360546Y-104125643D01*
X121360195Y-104125638D01*
X121247918Y-104122268D01*
X121247092Y-104122214D01*
X121159409Y-104113349D01*
X121158965Y-104113295D01*
X121083058Y-104102673D01*
X121049639Y-104099294D01*
X120994742Y-104093744D01*
X120994734Y-104093743D01*
X120994727Y-104093743D01*
X120881311Y-104090339D01*
X120873144Y-104086665D01*
X120869962Y-104078683D01*
X120869485Y-103935549D01*
X120869016Y-103794884D01*
X120872414Y-103786601D01*
X121072377Y-103587577D01*
X121080657Y-103584171D01*
X121088922Y-103587617D01*
G37*
%TD.AperFunction*%
%TD*%
M02*
