%TF.GenerationSoftware,KiCad,Pcbnew,8.0.4*%
%TF.CreationDate,2024-08-13T13:30:06+02:00*%
%TF.ProjectId,TMP104_Development board,544d5031-3034-45f4-9465-76656c6f706d,rev?*%
%TF.SameCoordinates,Original*%
%TF.FileFunction,Copper,L1,Top*%
%TF.FilePolarity,Positive*%
%FSLAX46Y46*%
G04 Gerber Fmt 4.6, Leading zero omitted, Abs format (unit mm)*
G04 Created by KiCad (PCBNEW 8.0.4) date 2024-08-13 13:30:06*
%MOMM*%
%LPD*%
G01*
G04 APERTURE LIST*
G04 Aperture macros list*
%AMRoundRect*
0 Rectangle with rounded corners*
0 $1 Rounding radius*
0 $2 $3 $4 $5 $6 $7 $8 $9 X,Y pos of 4 corners*
0 Add a 4 corners polygon primitive as box body*
4,1,4,$2,$3,$4,$5,$6,$7,$8,$9,$2,$3,0*
0 Add four circle primitives for the rounded corners*
1,1,$1+$1,$2,$3*
1,1,$1+$1,$4,$5*
1,1,$1+$1,$6,$7*
1,1,$1+$1,$8,$9*
0 Add four rect primitives between the rounded corners*
20,1,$1+$1,$2,$3,$4,$5,0*
20,1,$1+$1,$4,$5,$6,$7,0*
20,1,$1+$1,$6,$7,$8,$9,0*
20,1,$1+$1,$8,$9,$2,$3,0*%
G04 Aperture macros list end*
%TA.AperFunction,SMDPad,CuDef*%
%ADD10C,0.250000*%
%TD*%
%TA.AperFunction,SMDPad,CuDef*%
%ADD11RoundRect,0.225000X0.225000X0.250000X-0.225000X0.250000X-0.225000X-0.250000X0.225000X-0.250000X0*%
%TD*%
%TA.AperFunction,SMDPad,CuDef*%
%ADD12RoundRect,0.225000X0.250000X-0.225000X0.250000X0.225000X-0.250000X0.225000X-0.250000X-0.225000X0*%
%TD*%
%TA.AperFunction,SMDPad,CuDef*%
%ADD13RoundRect,0.225000X-0.225000X-0.250000X0.225000X-0.250000X0.225000X0.250000X-0.225000X0.250000X0*%
%TD*%
%TA.AperFunction,SMDPad,CuDef*%
%ADD14RoundRect,0.225000X-0.250000X0.225000X-0.250000X-0.225000X0.250000X-0.225000X0.250000X0.225000X0*%
%TD*%
%TA.AperFunction,SMDPad,CuDef*%
%ADD15R,1.000000X3.150000*%
%TD*%
%TA.AperFunction,ViaPad*%
%ADD16C,0.600000*%
%TD*%
%TA.AperFunction,ViaPad*%
%ADD17C,0.800000*%
%TD*%
%TA.AperFunction,Conductor*%
%ADD18C,0.200000*%
%TD*%
%TA.AperFunction,Conductor*%
%ADD19C,0.800000*%
%TD*%
G04 APERTURE END LIST*
D10*
%TO.P,U12,1,VCC*%
%TO.N,VCC_3.3V*%
X134200000Y-104500000D03*
%TO.P,U12,2,GND*%
%TO.N,GND*%
X134600000Y-104500000D03*
%TO.P,U12,3,TX*%
%TO.N,Net-(U12-TX)*%
X134200000Y-104900000D03*
%TO.P,U12,4,RX*%
%TO.N,Net-(U11-TX)*%
X134600000Y-104900000D03*
%TD*%
D11*
%TO.P,C5,1*%
%TO.N,VCC_3.3V*%
X129670000Y-104521000D03*
%TO.P,C5,2*%
%TO.N,GND*%
X128120000Y-104521000D03*
%TD*%
D12*
%TO.P,C1,1*%
%TO.N,VCC_3.3V*%
X134465000Y-97646000D03*
%TO.P,C1,2*%
%TO.N,GND*%
X134465000Y-96096000D03*
%TD*%
D10*
%TO.P,U11,1,VCC*%
%TO.N,VCC_3.3V*%
X136200000Y-104500000D03*
%TO.P,U11,2,GND*%
%TO.N,GND*%
X136600000Y-104500000D03*
%TO.P,U11,3,TX*%
%TO.N,Net-(U11-TX)*%
X136200000Y-104900000D03*
%TO.P,U11,4,RX*%
%TO.N,Net-(U10-TX)*%
X136600000Y-104900000D03*
%TD*%
%TO.P,U13,1,VCC*%
%TO.N,VCC_3.3V*%
X132200000Y-104500000D03*
%TO.P,U13,2,GND*%
%TO.N,GND*%
X132600000Y-104500000D03*
%TO.P,U13,3,TX*%
%TO.N,Net-(U13-TX)*%
X132200000Y-104900000D03*
%TO.P,U13,4,RX*%
%TO.N,Net-(U12-TX)*%
X132600000Y-104900000D03*
%TD*%
D13*
%TO.P,C8,1*%
%TO.N,VCC_3.3V*%
X140125000Y-104521000D03*
%TO.P,C8,2*%
%TO.N,GND*%
X141675000Y-104521000D03*
%TD*%
D10*
%TO.P,U4,1,VCC*%
%TO.N,VCC_3.3V*%
X136200000Y-100500000D03*
%TO.P,U4,2,GND*%
%TO.N,GND*%
X136600000Y-100500000D03*
%TO.P,U4,3,TX*%
%TO.N,Net-(U3-RX)*%
X136200000Y-100900000D03*
%TO.P,U4,4,RX*%
%TO.N,Net-(U4-RX)*%
X136600000Y-100900000D03*
%TD*%
%TO.P,U7,1,VCC*%
%TO.N,VCC_3.3V*%
X136600000Y-102900000D03*
%TO.P,U7,2,GND*%
%TO.N,GND*%
X136200000Y-102900000D03*
%TO.P,U7,3,TX*%
%TO.N,Net-(U6-RX)*%
X136600000Y-102500000D03*
%TO.P,U7,4,RX*%
%TO.N,Net-(U7-RX)*%
X136200000Y-102500000D03*
%TD*%
%TO.P,U3,1,VCC*%
%TO.N,VCC_3.3V*%
X134200000Y-100500000D03*
%TO.P,U3,2,GND*%
%TO.N,GND*%
X134600000Y-100500000D03*
%TO.P,U3,3,TX*%
%TO.N,Net-(U2-RX)*%
X134200000Y-100900000D03*
%TO.P,U3,4,RX*%
%TO.N,Net-(U3-RX)*%
X134600000Y-100900000D03*
%TD*%
%TO.P,U16,1,VCC*%
%TO.N,VCC_3.3V*%
X136600000Y-106900000D03*
%TO.P,U16,2,GND*%
%TO.N,GND*%
X136200000Y-106900000D03*
%TO.P,U16,3,TX*%
%TO.N,Net-(U16-TX)*%
X136600000Y-106500000D03*
%TO.P,U16,4,RX*%
%TO.N,Net-(U15-TX)*%
X136200000Y-106500000D03*
%TD*%
%TO.P,U2,1,VCC*%
%TO.N,VCC_3.3V*%
X132200000Y-100500000D03*
%TO.P,U2,2,GND*%
%TO.N,GND*%
X132600000Y-100500000D03*
%TO.P,U2,3,TX*%
%TO.N,RX_2*%
X132200000Y-100900000D03*
%TO.P,U2,4,RX*%
%TO.N,Net-(U2-RX)*%
X132600000Y-100900000D03*
%TD*%
D14*
%TO.P,C3,1*%
%TO.N,VCC_3.3V*%
X136065000Y-109736000D03*
%TO.P,C3,2*%
%TO.N,GND*%
X136065000Y-111286000D03*
%TD*%
D10*
%TO.P,U17,1,VCC*%
%TO.N,VCC_3.3V*%
X138600000Y-106900000D03*
%TO.P,U17,2,GND*%
%TO.N,GND*%
X138200000Y-106900000D03*
%TO.P,U17,3,TX*%
%TO.N,Net-(U10-RX)*%
X138600000Y-106500000D03*
%TO.P,U17,4,RX*%
%TO.N,Net-(U16-TX)*%
X138200000Y-106500000D03*
%TD*%
D13*
%TO.P,C7,1*%
%TO.N,VCC_3.3V*%
X140125000Y-102921000D03*
%TO.P,C7,2*%
%TO.N,GND*%
X141675000Y-102921000D03*
%TD*%
D12*
%TO.P,C2,1*%
%TO.N,VCC_3.3V*%
X136065000Y-97646000D03*
%TO.P,C2,2*%
%TO.N,GND*%
X136065000Y-96096000D03*
%TD*%
D10*
%TO.P,U6,1,VCC*%
%TO.N,VCC_3.3V*%
X138600000Y-102900000D03*
%TO.P,U6,2,GND*%
%TO.N,GND*%
X138200000Y-102900000D03*
%TO.P,U6,3,TX*%
%TO.N,Net-(U5-RX)*%
X138600000Y-102500000D03*
%TO.P,U6,4,RX*%
%TO.N,Net-(U6-RX)*%
X138200000Y-102500000D03*
%TD*%
D15*
%TO.P,J1,1,Pin_1*%
%TO.N,VCC_3.3V*%
X120425000Y-106226000D03*
%TO.P,J1,2,Pin_2*%
%TO.N,GND*%
X120425000Y-101176000D03*
%TO.P,J1,3,Pin_3*%
%TO.N,TX_1*%
X122965000Y-106226000D03*
%TO.P,J1,4,Pin_4*%
%TO.N,RX_1*%
X122965000Y-101176000D03*
%TO.P,J1,5,Pin_5*%
%TO.N,TX_2*%
X125505000Y-106226000D03*
%TO.P,J1,6,Pin_6*%
%TO.N,RX_2*%
X125505000Y-101176000D03*
%TD*%
D10*
%TO.P,U8,1,VCC*%
%TO.N,VCC_3.3V*%
X134600000Y-102900000D03*
%TO.P,U8,2,GND*%
%TO.N,GND*%
X134200000Y-102900000D03*
%TO.P,U8,3,TX*%
%TO.N,Net-(U7-RX)*%
X134600000Y-102500000D03*
%TO.P,U8,4,RX*%
%TO.N,Net-(U8-RX)*%
X134200000Y-102500000D03*
%TD*%
%TO.P,U10,1,VCC*%
%TO.N,VCC_3.3V*%
X138200000Y-104500000D03*
%TO.P,U10,2,GND*%
%TO.N,GND*%
X138600000Y-104500000D03*
%TO.P,U10,3,TX*%
%TO.N,Net-(U10-TX)*%
X138200000Y-104900000D03*
%TO.P,U10,4,RX*%
%TO.N,Net-(U10-RX)*%
X138600000Y-104900000D03*
%TD*%
D11*
%TO.P,C6,1*%
%TO.N,VCC_3.3V*%
X129670000Y-102921000D03*
%TO.P,C6,2*%
%TO.N,GND*%
X128120000Y-102921000D03*
%TD*%
D10*
%TO.P,U14,1,VCC*%
%TO.N,VCC_3.3V*%
X132600000Y-106900000D03*
%TO.P,U14,2,GND*%
%TO.N,GND*%
X132200000Y-106900000D03*
%TO.P,U14,3,TX*%
%TO.N,Net-(U14-TX)*%
X132600000Y-106500000D03*
%TO.P,U14,4,RX*%
%TO.N,TX_2*%
X132200000Y-106500000D03*
%TD*%
%TO.P,U9,1,VCC*%
%TO.N,VCC_3.3V*%
X132600000Y-102900000D03*
%TO.P,U9,2,GND*%
%TO.N,GND*%
X132200000Y-102900000D03*
%TO.P,U9,3,TX*%
%TO.N,Net-(U8-RX)*%
X132600000Y-102500000D03*
%TO.P,U9,4,RX*%
%TO.N,Net-(U13-TX)*%
X132200000Y-102500000D03*
%TD*%
%TO.P,U5,1,VCC*%
%TO.N,VCC_3.3V*%
X138200000Y-100500000D03*
%TO.P,U5,2,GND*%
%TO.N,GND*%
X138600000Y-100500000D03*
%TO.P,U5,3,TX*%
%TO.N,Net-(U4-RX)*%
X138200000Y-100900000D03*
%TO.P,U5,4,RX*%
%TO.N,Net-(U5-RX)*%
X138600000Y-100900000D03*
%TD*%
%TO.P,U15,1,VCC*%
%TO.N,VCC_3.3V*%
X134600000Y-106900000D03*
%TO.P,U15,2,GND*%
%TO.N,GND*%
X134200000Y-106900000D03*
%TO.P,U15,3,TX*%
%TO.N,Net-(U15-TX)*%
X134600000Y-106500000D03*
%TO.P,U15,4,RX*%
%TO.N,Net-(U14-TX)*%
X134200000Y-106500000D03*
%TD*%
D14*
%TO.P,C4,1*%
%TO.N,VCC_3.3V*%
X134465000Y-109736000D03*
%TO.P,C4,2*%
%TO.N,GND*%
X134465000Y-111286000D03*
%TD*%
D16*
%TO.N,VCC_3.3V*%
X131415000Y-103701000D03*
%TO.N,RX_1*%
X121762902Y-105414078D03*
%TO.N,TX_1*%
X124235000Y-101400000D03*
D17*
%TO.N,GND*%
X134465000Y-112655000D03*
D16*
X120870000Y-103790000D03*
X136400000Y-99200000D03*
X134400000Y-99200000D03*
D17*
X134465000Y-94525000D03*
D16*
X138400000Y-99200000D03*
D17*
X136065000Y-94525000D03*
D16*
X132400000Y-103700000D03*
D17*
X141675000Y-105830000D03*
D16*
X134400000Y-108200000D03*
X121695000Y-106161000D03*
X138400000Y-108200000D03*
X136400000Y-108200000D03*
X136400000Y-103700000D03*
X138400000Y-103700000D03*
X124205000Y-100451000D03*
D17*
X121825000Y-98800000D03*
X120425000Y-98716000D03*
D16*
X132400000Y-108200000D03*
D17*
X136065000Y-112670000D03*
X121825000Y-108521000D03*
X141675000Y-101445000D03*
X126873000Y-104730000D03*
X126895000Y-102700000D03*
D16*
X134400000Y-103700000D03*
X132400000Y-99200000D03*
%TO.N,VCC_3.3V*%
X135400000Y-103700000D03*
X137400000Y-103700000D03*
D17*
X120425000Y-108541000D03*
D16*
X133400000Y-103700000D03*
%TD*%
D18*
%TO.N,Net-(U13-TX)*%
X131284000Y-104900000D02*
X132200000Y-104900000D01*
X130805000Y-104421000D02*
X131284000Y-104900000D01*
X131326000Y-102500000D02*
X130805000Y-103021000D01*
X132200000Y-102500000D02*
X131326000Y-102500000D01*
X130805000Y-103021000D02*
X130805000Y-104421000D01*
%TO.N,RX_1*%
X121762902Y-104393098D02*
X122965000Y-103191000D01*
X122965000Y-103191000D02*
X122965000Y-101176000D01*
X121762902Y-105414078D02*
X121762902Y-104393098D01*
%TO.N,TX_1*%
X124235000Y-102910000D02*
X124235000Y-101400000D01*
X122965000Y-105255000D02*
X122965000Y-106226000D01*
X122965000Y-104180000D02*
X124235000Y-102910000D01*
X122965000Y-106226000D02*
X122965000Y-104180000D01*
%TO.N,GND*%
X138200000Y-108000000D02*
X138400000Y-108200000D01*
X136200000Y-103500000D02*
X136400000Y-103700000D01*
X134600000Y-99400000D02*
X134400000Y-99200000D01*
X134200000Y-106900000D02*
X134200000Y-108000000D01*
X138600000Y-103900000D02*
X138400000Y-103700000D01*
D19*
X126873000Y-104730000D02*
X127103000Y-104500000D01*
D18*
X132200000Y-103500000D02*
X132400000Y-103700000D01*
D19*
X127115000Y-102920000D02*
X128119000Y-102920000D01*
D18*
X134600000Y-100500000D02*
X134600000Y-99400000D01*
D19*
X128119000Y-102920000D02*
X128120000Y-102921000D01*
D18*
X136600000Y-104500000D02*
X136600000Y-103900000D01*
X136600000Y-100500000D02*
X136600000Y-99400000D01*
X132600000Y-104500000D02*
X132600000Y-103900000D01*
X134200000Y-103500000D02*
X134400000Y-103700000D01*
D19*
X136065000Y-94525000D02*
X136065000Y-96096000D01*
D18*
X136200000Y-108000000D02*
X136400000Y-108200000D01*
X138600000Y-99400000D02*
X138400000Y-99200000D01*
D19*
X134465000Y-94525000D02*
X134465000Y-96096000D01*
X127103000Y-104500000D02*
X128089000Y-104500000D01*
D18*
X134600000Y-104500000D02*
X134600000Y-103900000D01*
X132600000Y-103900000D02*
X132400000Y-103700000D01*
X136600000Y-99400000D02*
X136400000Y-99200000D01*
X132200000Y-108000000D02*
X132400000Y-108200000D01*
X136200000Y-106900000D02*
X136200000Y-108000000D01*
X134600000Y-103900000D02*
X134400000Y-103700000D01*
X132600000Y-99400000D02*
X132400000Y-99200000D01*
X134200000Y-102900000D02*
X134200000Y-103500000D01*
D19*
X128089000Y-104500000D02*
X128098000Y-104509000D01*
D18*
X138600000Y-104500000D02*
X138600000Y-103900000D01*
X136600000Y-103900000D02*
X136400000Y-103700000D01*
D19*
X120425000Y-98716000D02*
X120425000Y-101176000D01*
D18*
X132200000Y-102900000D02*
X132200000Y-103500000D01*
D19*
X134465000Y-112655000D02*
X134465000Y-111286000D01*
D18*
X132200000Y-106900000D02*
X132200000Y-108000000D01*
X136200000Y-102900000D02*
X136200000Y-103500000D01*
D19*
X136065000Y-112670000D02*
X136065000Y-111286000D01*
X141675000Y-101445000D02*
X141675000Y-102921000D01*
D18*
X138200000Y-103500000D02*
X138400000Y-103700000D01*
X138200000Y-102900000D02*
X138200000Y-103500000D01*
X132600000Y-100500000D02*
X132600000Y-99400000D01*
D19*
X141675000Y-105830000D02*
X141675000Y-104521000D01*
D18*
X134200000Y-108000000D02*
X134400000Y-108200000D01*
D19*
X126895000Y-102700000D02*
X127115000Y-102920000D01*
D18*
X138200000Y-106900000D02*
X138200000Y-108000000D01*
X138600000Y-100500000D02*
X138600000Y-99400000D01*
D19*
%TO.N,VCC_3.3V*%
X120425000Y-108541000D02*
X120425000Y-106226000D01*
D18*
%TO.N,Net-(U2-RX)*%
X132600000Y-100900000D02*
X134200000Y-100900000D01*
%TO.N,RX_2*%
X125505000Y-101176000D02*
X127005000Y-101176000D01*
X127005000Y-101176000D02*
X127281000Y-100900000D01*
X127281000Y-100900000D02*
X132200000Y-100900000D01*
%TO.N,Net-(U3-RX)*%
X134600000Y-100900000D02*
X136200000Y-100900000D01*
%TO.N,Net-(U4-RX)*%
X136600000Y-100900000D02*
X138200000Y-100900000D01*
%TO.N,Net-(U5-RX)*%
X138600000Y-100900000D02*
X138600000Y-102500000D01*
%TO.N,Net-(U6-RX)*%
X138200000Y-102500000D02*
X136600000Y-102500000D01*
%TO.N,Net-(U7-RX)*%
X136200000Y-102500000D02*
X134600000Y-102500000D01*
%TO.N,Net-(U8-RX)*%
X134200000Y-102500000D02*
X132600000Y-102500000D01*
%TO.N,Net-(U10-RX)*%
X138600000Y-104900000D02*
X138600000Y-106500000D01*
%TO.N,Net-(U10-TX)*%
X136600000Y-104900000D02*
X138200000Y-104900000D01*
%TO.N,Net-(U11-TX)*%
X134600000Y-104900000D02*
X136200000Y-104900000D01*
%TO.N,Net-(U12-TX)*%
X132600000Y-104900000D02*
X134200000Y-104900000D01*
%TO.N,Net-(U14-TX)*%
X134200000Y-106500000D02*
X132600000Y-106500000D01*
%TO.N,TX_2*%
X126875000Y-106226000D02*
X127149000Y-106500000D01*
X125505000Y-106226000D02*
X126875000Y-106226000D01*
X127149000Y-106500000D02*
X132200000Y-106500000D01*
%TO.N,Net-(U15-TX)*%
X136200000Y-106500000D02*
X134600000Y-106500000D01*
%TO.N,Net-(U16-TX)*%
X138200000Y-106500000D02*
X136600000Y-106500000D01*
%TD*%
%TA.AperFunction,Conductor*%
%TO.N,VCC_3.3V*%
G36*
X131910997Y-102772174D02*
G01*
X131932671Y-102824500D01*
X131931249Y-102838936D01*
X131923259Y-102879105D01*
X131919103Y-102900000D01*
X131923713Y-102923174D01*
X131940485Y-103007497D01*
X131943274Y-103014229D01*
X131940927Y-103015201D01*
X131949500Y-103043434D01*
X131949500Y-103159038D01*
X131948078Y-103173474D01*
X131944500Y-103191462D01*
X131944500Y-103688340D01*
X131944514Y-103688483D01*
X131944867Y-103695702D01*
X131944867Y-103699999D01*
X131963302Y-103828223D01*
X131963302Y-103828224D01*
X131963303Y-103828226D01*
X132017118Y-103946063D01*
X132101951Y-104043967D01*
X132113613Y-104051461D01*
X132118611Y-104054975D01*
X132176199Y-104099123D01*
X132204540Y-104148159D01*
X132189905Y-104202873D01*
X132145615Y-104230429D01*
X132092701Y-104240954D01*
X132065317Y-104259251D01*
X132253740Y-104447674D01*
X132275414Y-104500000D01*
X132253740Y-104552326D01*
X132252326Y-104553740D01*
X132200000Y-104575414D01*
X132147674Y-104553740D01*
X131959251Y-104365317D01*
X131940954Y-104392701D01*
X131919612Y-104500000D01*
X131931758Y-104561064D01*
X131920709Y-104616612D01*
X131873616Y-104648078D01*
X131859180Y-104649500D01*
X131418413Y-104649500D01*
X131366087Y-104627826D01*
X131077174Y-104338913D01*
X131055500Y-104286587D01*
X131055500Y-103155413D01*
X131077174Y-103103087D01*
X131408087Y-102772174D01*
X131460413Y-102750500D01*
X131858671Y-102750500D01*
X131910997Y-102772174D01*
G37*
%TD.AperFunction*%
%TA.AperFunction,Conductor*%
G36*
X133910997Y-102772174D02*
G01*
X133932671Y-102824500D01*
X133931249Y-102838936D01*
X133923259Y-102879105D01*
X133919103Y-102900000D01*
X133923713Y-102923174D01*
X133940485Y-103007497D01*
X133943274Y-103014229D01*
X133940927Y-103015201D01*
X133949500Y-103043434D01*
X133949500Y-103159038D01*
X133948078Y-103173474D01*
X133944500Y-103191462D01*
X133944500Y-103688340D01*
X133944514Y-103688483D01*
X133944867Y-103695702D01*
X133944867Y-103699999D01*
X133963302Y-103828223D01*
X133963302Y-103828224D01*
X133963303Y-103828226D01*
X134017118Y-103946063D01*
X134101951Y-104043967D01*
X134113613Y-104051461D01*
X134118611Y-104054975D01*
X134176199Y-104099123D01*
X134204540Y-104148159D01*
X134189905Y-104202873D01*
X134145615Y-104230429D01*
X134092701Y-104240954D01*
X134065317Y-104259251D01*
X134253740Y-104447674D01*
X134275414Y-104500000D01*
X134253740Y-104552326D01*
X134252326Y-104553740D01*
X134200000Y-104575414D01*
X134147674Y-104553740D01*
X133959251Y-104365317D01*
X133940954Y-104392701D01*
X133919612Y-104500000D01*
X133931758Y-104561064D01*
X133920709Y-104616612D01*
X133873616Y-104648078D01*
X133859180Y-104649500D01*
X132941329Y-104649500D01*
X132889003Y-104627826D01*
X132867329Y-104575500D01*
X132868751Y-104561064D01*
X132880897Y-104500000D01*
X132875961Y-104475185D01*
X132859515Y-104392505D01*
X132859514Y-104392503D01*
X132856726Y-104385771D01*
X132859061Y-104384803D01*
X132850500Y-104356565D01*
X132850500Y-104240962D01*
X132851922Y-104226525D01*
X132855500Y-104208537D01*
X132855500Y-103711655D01*
X132855486Y-103711513D01*
X132855133Y-103704296D01*
X132855133Y-103700001D01*
X132853477Y-103688483D01*
X132836697Y-103571774D01*
X132782882Y-103453937D01*
X132698049Y-103356033D01*
X132698048Y-103356032D01*
X132698046Y-103356030D01*
X132698044Y-103356029D01*
X132686407Y-103348550D01*
X132681392Y-103345026D01*
X132623802Y-103300875D01*
X132595462Y-103251838D01*
X132610097Y-103197124D01*
X132654389Y-103169569D01*
X132707299Y-103159045D01*
X132734682Y-103140748D01*
X132546260Y-102952326D01*
X132524586Y-102900000D01*
X132546260Y-102847674D01*
X132547674Y-102846260D01*
X132600000Y-102824586D01*
X132652326Y-102846260D01*
X132840748Y-103034682D01*
X132859044Y-103007299D01*
X132880388Y-102899999D01*
X132868242Y-102838936D01*
X132879291Y-102783388D01*
X132926384Y-102751922D01*
X132940820Y-102750500D01*
X133858671Y-102750500D01*
X133910997Y-102772174D01*
G37*
%TD.AperFunction*%
%TA.AperFunction,Conductor*%
G36*
X135910997Y-102772174D02*
G01*
X135932671Y-102824500D01*
X135931249Y-102838936D01*
X135919102Y-102899999D01*
X135940485Y-103007497D01*
X135943274Y-103014229D01*
X135940927Y-103015201D01*
X135949500Y-103043434D01*
X135949500Y-103159038D01*
X135948078Y-103173474D01*
X135944500Y-103191462D01*
X135944500Y-103688340D01*
X135944514Y-103688483D01*
X135944867Y-103695702D01*
X135944867Y-103699999D01*
X135963302Y-103828223D01*
X135963302Y-103828224D01*
X135963303Y-103828226D01*
X136017118Y-103946063D01*
X136101951Y-104043967D01*
X136113613Y-104051461D01*
X136118611Y-104054975D01*
X136176199Y-104099123D01*
X136204540Y-104148159D01*
X136189905Y-104202873D01*
X136145615Y-104230429D01*
X136092701Y-104240954D01*
X136065317Y-104259251D01*
X136253740Y-104447674D01*
X136275414Y-104500000D01*
X136253740Y-104552326D01*
X136252326Y-104553740D01*
X136200000Y-104575414D01*
X136147674Y-104553740D01*
X135959251Y-104365317D01*
X135940954Y-104392701D01*
X135919612Y-104500000D01*
X135931758Y-104561064D01*
X135920709Y-104616612D01*
X135873616Y-104648078D01*
X135859180Y-104649500D01*
X134941329Y-104649500D01*
X134889003Y-104627826D01*
X134867329Y-104575500D01*
X134868751Y-104561064D01*
X134880897Y-104500000D01*
X134875961Y-104475185D01*
X134859515Y-104392505D01*
X134859514Y-104392503D01*
X134856726Y-104385771D01*
X134859061Y-104384803D01*
X134850500Y-104356565D01*
X134850500Y-104240962D01*
X134851922Y-104226525D01*
X134855500Y-104208537D01*
X134855500Y-103711655D01*
X134855486Y-103711513D01*
X134855133Y-103704296D01*
X134855133Y-103700001D01*
X134853477Y-103688483D01*
X134836697Y-103571774D01*
X134782882Y-103453937D01*
X134698049Y-103356033D01*
X134698048Y-103356032D01*
X134698046Y-103356030D01*
X134698044Y-103356029D01*
X134686407Y-103348550D01*
X134681392Y-103345026D01*
X134623802Y-103300875D01*
X134595462Y-103251838D01*
X134610097Y-103197124D01*
X134654389Y-103169569D01*
X134707299Y-103159045D01*
X134734682Y-103140748D01*
X134546260Y-102952326D01*
X134524586Y-102900000D01*
X134546260Y-102847674D01*
X134547674Y-102846260D01*
X134600000Y-102824586D01*
X134652326Y-102846260D01*
X134840748Y-103034682D01*
X134859044Y-103007299D01*
X134880388Y-102899999D01*
X134868242Y-102838936D01*
X134879291Y-102783388D01*
X134926384Y-102751922D01*
X134940820Y-102750500D01*
X135858671Y-102750500D01*
X135910997Y-102772174D01*
G37*
%TD.AperFunction*%
%TA.AperFunction,Conductor*%
G36*
X137910997Y-102772174D02*
G01*
X137932671Y-102824500D01*
X137931249Y-102838936D01*
X137923259Y-102879105D01*
X137919103Y-102900000D01*
X137923713Y-102923174D01*
X137940485Y-103007497D01*
X137943274Y-103014229D01*
X137940927Y-103015201D01*
X137949500Y-103043434D01*
X137949500Y-103159038D01*
X137948078Y-103173474D01*
X137944500Y-103191462D01*
X137944500Y-103688340D01*
X137944514Y-103688483D01*
X137944867Y-103695702D01*
X137944867Y-103699999D01*
X137963302Y-103828223D01*
X137963302Y-103828224D01*
X137963303Y-103828226D01*
X138017118Y-103946063D01*
X138101951Y-104043967D01*
X138113613Y-104051461D01*
X138118611Y-104054975D01*
X138176199Y-104099123D01*
X138204540Y-104148159D01*
X138189905Y-104202873D01*
X138145615Y-104230429D01*
X138092701Y-104240954D01*
X138065317Y-104259251D01*
X138253740Y-104447674D01*
X138275414Y-104500000D01*
X138253740Y-104552326D01*
X138252326Y-104553740D01*
X138200000Y-104575414D01*
X138147674Y-104553740D01*
X137959251Y-104365317D01*
X137940954Y-104392701D01*
X137919612Y-104500000D01*
X137931758Y-104561064D01*
X137920709Y-104616612D01*
X137873616Y-104648078D01*
X137859180Y-104649500D01*
X136941329Y-104649500D01*
X136889003Y-104627826D01*
X136867329Y-104575500D01*
X136868751Y-104561064D01*
X136880897Y-104500000D01*
X136875961Y-104475185D01*
X136859515Y-104392505D01*
X136859514Y-104392503D01*
X136856726Y-104385771D01*
X136859061Y-104384803D01*
X136850500Y-104356565D01*
X136850500Y-104240962D01*
X136851922Y-104226525D01*
X136855500Y-104208537D01*
X136855500Y-103711655D01*
X136855486Y-103711513D01*
X136855133Y-103704296D01*
X136855133Y-103700001D01*
X136853477Y-103688483D01*
X136836697Y-103571774D01*
X136782882Y-103453937D01*
X136698049Y-103356033D01*
X136698048Y-103356032D01*
X136698046Y-103356030D01*
X136698044Y-103356029D01*
X136686407Y-103348550D01*
X136681392Y-103345026D01*
X136623802Y-103300875D01*
X136595462Y-103251838D01*
X136610097Y-103197124D01*
X136654389Y-103169569D01*
X136707299Y-103159045D01*
X136734682Y-103140748D01*
X136546260Y-102952326D01*
X136524586Y-102900000D01*
X136546260Y-102847674D01*
X136547674Y-102846260D01*
X136600000Y-102824586D01*
X136652326Y-102846260D01*
X136840748Y-103034682D01*
X136859044Y-103007299D01*
X136880388Y-102899999D01*
X136868242Y-102838936D01*
X136879291Y-102783388D01*
X136926384Y-102751922D01*
X136940820Y-102750500D01*
X137858671Y-102750500D01*
X137910997Y-102772174D01*
G37*
%TD.AperFunction*%
%TA.AperFunction,Conductor*%
G36*
X134212038Y-93923174D02*
G01*
X134233712Y-93975500D01*
X134212038Y-94027826D01*
X134191484Y-94041559D01*
X134191574Y-94041714D01*
X134189217Y-94043074D01*
X134188033Y-94043866D01*
X134187372Y-94044139D01*
X134162345Y-94063342D01*
X134154304Y-94068716D01*
X134126984Y-94084491D01*
X134104679Y-94106795D01*
X134097406Y-94113173D01*
X134072380Y-94132377D01*
X134072377Y-94132380D01*
X134053173Y-94157406D01*
X134046795Y-94164679D01*
X134024491Y-94186984D01*
X134008716Y-94214304D01*
X134003342Y-94222345D01*
X133984139Y-94247372D01*
X133972066Y-94276518D01*
X133967788Y-94285193D01*
X133952016Y-94312514D01*
X133943851Y-94342984D01*
X133940741Y-94352144D01*
X133928670Y-94381289D01*
X133924553Y-94412559D01*
X133922665Y-94422050D01*
X133914500Y-94452524D01*
X133914500Y-94484069D01*
X133913867Y-94493728D01*
X133909750Y-94524999D01*
X133913867Y-94556270D01*
X133914500Y-94565929D01*
X133914500Y-95613592D01*
X133906981Y-95646092D01*
X133850134Y-95762373D01*
X133850134Y-95762374D01*
X133839500Y-95835359D01*
X133839500Y-96356640D01*
X133850134Y-96429625D01*
X133850134Y-96429626D01*
X133905173Y-96542210D01*
X133905174Y-96542211D01*
X133993789Y-96630826D01*
X134106375Y-96685866D01*
X134179364Y-96696500D01*
X134179370Y-96696500D01*
X134750630Y-96696500D01*
X134750636Y-96696500D01*
X134823625Y-96685866D01*
X134936211Y-96630826D01*
X135024826Y-96542211D01*
X135079866Y-96429625D01*
X135090500Y-96356636D01*
X135090500Y-95835364D01*
X135079866Y-95762375D01*
X135072808Y-95747937D01*
X135023019Y-95646092D01*
X135015500Y-95613592D01*
X135015500Y-94565929D01*
X135016133Y-94556270D01*
X135020250Y-94525000D01*
X135016133Y-94493728D01*
X135015500Y-94484069D01*
X135015500Y-94452525D01*
X135015500Y-94452524D01*
X135007330Y-94422038D01*
X135005446Y-94412559D01*
X135001330Y-94381291D01*
X134989254Y-94352139D01*
X134986150Y-94342994D01*
X134977984Y-94312515D01*
X134962212Y-94285197D01*
X134957934Y-94276524D01*
X134945861Y-94247375D01*
X134926660Y-94222351D01*
X134921283Y-94214305D01*
X134916327Y-94205721D01*
X134905509Y-94186985D01*
X134883202Y-94164678D01*
X134876820Y-94157400D01*
X134857624Y-94132382D01*
X134857622Y-94132381D01*
X134857621Y-94132379D01*
X134832593Y-94113174D01*
X134825317Y-94106793D01*
X134803015Y-94084491D01*
X134775699Y-94068719D01*
X134767661Y-94063349D01*
X134742625Y-94044139D01*
X134741966Y-94043866D01*
X134741712Y-94043612D01*
X134738426Y-94041715D01*
X134738934Y-94040834D01*
X134701919Y-94003816D01*
X134701921Y-93947179D01*
X134741971Y-93907132D01*
X134770287Y-93901500D01*
X135759712Y-93901500D01*
X135812038Y-93923174D01*
X135833712Y-93975500D01*
X135812038Y-94027826D01*
X135791484Y-94041559D01*
X135791574Y-94041714D01*
X135789217Y-94043074D01*
X135788033Y-94043866D01*
X135787372Y-94044139D01*
X135762345Y-94063342D01*
X135754304Y-94068716D01*
X135726984Y-94084491D01*
X135704679Y-94106795D01*
X135697406Y-94113173D01*
X135672380Y-94132377D01*
X135672377Y-94132380D01*
X135653173Y-94157406D01*
X135646795Y-94164679D01*
X135624491Y-94186984D01*
X135608716Y-94214304D01*
X135603342Y-94222345D01*
X135584139Y-94247372D01*
X135572066Y-94276518D01*
X135567788Y-94285193D01*
X135552016Y-94312514D01*
X135543851Y-94342984D01*
X135540741Y-94352144D01*
X135528670Y-94381289D01*
X135524553Y-94412559D01*
X135522665Y-94422050D01*
X135514500Y-94452524D01*
X135514500Y-94484069D01*
X135513867Y-94493728D01*
X135509750Y-94524999D01*
X135513867Y-94556270D01*
X135514500Y-94565929D01*
X135514500Y-95613592D01*
X135506981Y-95646092D01*
X135450134Y-95762373D01*
X135450134Y-95762374D01*
X135439500Y-95835359D01*
X135439500Y-96356640D01*
X135450134Y-96429625D01*
X135450134Y-96429626D01*
X135505173Y-96542210D01*
X135505174Y-96542211D01*
X135593789Y-96630826D01*
X135706375Y-96685866D01*
X135779364Y-96696500D01*
X135779370Y-96696500D01*
X136350630Y-96696500D01*
X136350636Y-96696500D01*
X136423625Y-96685866D01*
X136536211Y-96630826D01*
X136624826Y-96542211D01*
X136679866Y-96429625D01*
X136690500Y-96356636D01*
X136690500Y-95835364D01*
X136679866Y-95762375D01*
X136672808Y-95747937D01*
X136623019Y-95646092D01*
X136615500Y-95613592D01*
X136615500Y-94565929D01*
X136616133Y-94556270D01*
X136620250Y-94525000D01*
X136616133Y-94493728D01*
X136615500Y-94484069D01*
X136615500Y-94452525D01*
X136615500Y-94452524D01*
X136607330Y-94422038D01*
X136605446Y-94412559D01*
X136601330Y-94381291D01*
X136589254Y-94352139D01*
X136586150Y-94342994D01*
X136577984Y-94312515D01*
X136562212Y-94285197D01*
X136557934Y-94276524D01*
X136545861Y-94247375D01*
X136526660Y-94222351D01*
X136521283Y-94214305D01*
X136516327Y-94205721D01*
X136505509Y-94186985D01*
X136483202Y-94164678D01*
X136476820Y-94157400D01*
X136457624Y-94132382D01*
X136457622Y-94132381D01*
X136457621Y-94132379D01*
X136432593Y-94113174D01*
X136425317Y-94106793D01*
X136403015Y-94084491D01*
X136375699Y-94068719D01*
X136367661Y-94063349D01*
X136342625Y-94044139D01*
X136341966Y-94043866D01*
X136341712Y-94043612D01*
X136338426Y-94041715D01*
X136338934Y-94040834D01*
X136301919Y-94003816D01*
X136301921Y-93947179D01*
X136341971Y-93907132D01*
X136370287Y-93901500D01*
X140775118Y-93901500D01*
X140812764Y-93901500D01*
X140817231Y-93901634D01*
X141087714Y-93917996D01*
X141096566Y-93919071D01*
X141360920Y-93967515D01*
X141369571Y-93969648D01*
X141626141Y-94049598D01*
X141634480Y-94052759D01*
X141875539Y-94161252D01*
X141879552Y-94163058D01*
X141887464Y-94167211D01*
X142117433Y-94306233D01*
X142124787Y-94311309D01*
X142336327Y-94477039D01*
X142343016Y-94482965D01*
X142533034Y-94672983D01*
X142538960Y-94679672D01*
X142704690Y-94891212D01*
X142709766Y-94898566D01*
X142848788Y-95128535D01*
X142852941Y-95136447D01*
X142963236Y-95381511D01*
X142966404Y-95389867D01*
X143046348Y-95646416D01*
X143048487Y-95655092D01*
X143096927Y-95919424D01*
X143098004Y-95928295D01*
X143114365Y-96198768D01*
X143114500Y-96203236D01*
X143114500Y-111198763D01*
X143114365Y-111203231D01*
X143098004Y-111473704D01*
X143096927Y-111482575D01*
X143048487Y-111746907D01*
X143046348Y-111755583D01*
X142966404Y-112012132D01*
X142963236Y-112020488D01*
X142852941Y-112265552D01*
X142848788Y-112273464D01*
X142709766Y-112503433D01*
X142704690Y-112510787D01*
X142538960Y-112722327D01*
X142533034Y-112729016D01*
X142343016Y-112919034D01*
X142336327Y-112924960D01*
X142124787Y-113090690D01*
X142117433Y-113095766D01*
X141887464Y-113234788D01*
X141879552Y-113238941D01*
X141634488Y-113349236D01*
X141626132Y-113352404D01*
X141369583Y-113432348D01*
X141360907Y-113434487D01*
X141096575Y-113482927D01*
X141087704Y-113484004D01*
X140817232Y-113500365D01*
X140812764Y-113500500D01*
X120817236Y-113500500D01*
X120812768Y-113500365D01*
X120542295Y-113484004D01*
X120533424Y-113482927D01*
X120269092Y-113434487D01*
X120260416Y-113432348D01*
X120003867Y-113352404D01*
X119995511Y-113349236D01*
X119750447Y-113238941D01*
X119742535Y-113234788D01*
X119512566Y-113095766D01*
X119505212Y-113090690D01*
X119293672Y-112924960D01*
X119286983Y-112919034D01*
X119096965Y-112729016D01*
X119091039Y-112722327D01*
X118925309Y-112510787D01*
X118920233Y-112503433D01*
X118781211Y-112273464D01*
X118777058Y-112265552D01*
X118763787Y-112236065D01*
X118666759Y-112020480D01*
X118663598Y-112012141D01*
X118583648Y-111755571D01*
X118581515Y-111746920D01*
X118533071Y-111482566D01*
X118531996Y-111473714D01*
X118515635Y-111203231D01*
X118515500Y-111198763D01*
X118515500Y-111025359D01*
X133839500Y-111025359D01*
X133839500Y-111546640D01*
X133848007Y-111605027D01*
X133850134Y-111619625D01*
X133905174Y-111732211D01*
X133905175Y-111732212D01*
X133906981Y-111735906D01*
X133914500Y-111768407D01*
X133914500Y-112614069D01*
X133913867Y-112623728D01*
X133909750Y-112654999D01*
X133913867Y-112686270D01*
X133914500Y-112695929D01*
X133914500Y-112727476D01*
X133922665Y-112757951D01*
X133924553Y-112767442D01*
X133928669Y-112798708D01*
X133940740Y-112827849D01*
X133943847Y-112837001D01*
X133952016Y-112867485D01*
X133957789Y-112877484D01*
X133967786Y-112894801D01*
X133972065Y-112903479D01*
X133984137Y-112932621D01*
X133984137Y-112932622D01*
X133984138Y-112932624D01*
X133984139Y-112932625D01*
X134003349Y-112957661D01*
X134008719Y-112965699D01*
X134012736Y-112972656D01*
X134024491Y-112993015D01*
X134046793Y-113015317D01*
X134053174Y-113022593D01*
X134072379Y-113047621D01*
X134072381Y-113047622D01*
X134072382Y-113047624D01*
X134097400Y-113066820D01*
X134104678Y-113073202D01*
X134126985Y-113095509D01*
X134145721Y-113106327D01*
X134154305Y-113111283D01*
X134162351Y-113116660D01*
X134178047Y-113128704D01*
X134187375Y-113135861D01*
X134216524Y-113147934D01*
X134225197Y-113152212D01*
X134243763Y-113162931D01*
X134252515Y-113167984D01*
X134282994Y-113176150D01*
X134292139Y-113179254D01*
X134321291Y-113191330D01*
X134352564Y-113195446D01*
X134362038Y-113197330D01*
X134392525Y-113205500D01*
X134424070Y-113205500D01*
X134433729Y-113206133D01*
X134465000Y-113210250D01*
X134496271Y-113206133D01*
X134505930Y-113205500D01*
X134537477Y-113205500D01*
X134552592Y-113201448D01*
X134567949Y-113197333D01*
X134577434Y-113195446D01*
X134608709Y-113191330D01*
X134628857Y-113182984D01*
X134637850Y-113179259D01*
X134647009Y-113176149D01*
X134677485Y-113167984D01*
X134704805Y-113152210D01*
X134713467Y-113147937D01*
X134742625Y-113135861D01*
X134767656Y-113116653D01*
X134775698Y-113111280D01*
X134803015Y-113095509D01*
X134825325Y-113073197D01*
X134832587Y-113066829D01*
X134857621Y-113047621D01*
X134876829Y-113022587D01*
X134883197Y-113015325D01*
X134905509Y-112993015D01*
X134921280Y-112965698D01*
X134926657Y-112957651D01*
X134934351Y-112947625D01*
X134945861Y-112932625D01*
X134957937Y-112903467D01*
X134962212Y-112894801D01*
X134977984Y-112867485D01*
X134986149Y-112837009D01*
X134989259Y-112827850D01*
X135001330Y-112798709D01*
X135003471Y-112782442D01*
X135005446Y-112767434D01*
X135007333Y-112757949D01*
X135011480Y-112742475D01*
X135015500Y-112727477D01*
X135015500Y-112695929D01*
X135016133Y-112686270D01*
X135018275Y-112669999D01*
X135020250Y-112655000D01*
X135016133Y-112623728D01*
X135015500Y-112614069D01*
X135015500Y-111768407D01*
X135023019Y-111735906D01*
X135024824Y-111732212D01*
X135024826Y-111732211D01*
X135079866Y-111619625D01*
X135090500Y-111546636D01*
X135090500Y-111025364D01*
X135090499Y-111025359D01*
X135439500Y-111025359D01*
X135439500Y-111546640D01*
X135448007Y-111605027D01*
X135450134Y-111619625D01*
X135505174Y-111732211D01*
X135505175Y-111732212D01*
X135506981Y-111735906D01*
X135514500Y-111768407D01*
X135514500Y-112629069D01*
X135513867Y-112638728D01*
X135509750Y-112669999D01*
X135513867Y-112701270D01*
X135514500Y-112710929D01*
X135514500Y-112742476D01*
X135522665Y-112772951D01*
X135524553Y-112782442D01*
X135528669Y-112813708D01*
X135540740Y-112842849D01*
X135543847Y-112852001D01*
X135552016Y-112882485D01*
X135557789Y-112892484D01*
X135567786Y-112909801D01*
X135572065Y-112918479D01*
X135584137Y-112947621D01*
X135584137Y-112947622D01*
X135584138Y-112947624D01*
X135584139Y-112947625D01*
X135603349Y-112972661D01*
X135608719Y-112980699D01*
X135621771Y-113003304D01*
X135624491Y-113008015D01*
X135646793Y-113030317D01*
X135653174Y-113037593D01*
X135672379Y-113062621D01*
X135672381Y-113062622D01*
X135672382Y-113062624D01*
X135697400Y-113081820D01*
X135704678Y-113088202D01*
X135726985Y-113110509D01*
X135737639Y-113116660D01*
X135754305Y-113126283D01*
X135762351Y-113131660D01*
X135785976Y-113149788D01*
X135787375Y-113150861D01*
X135816524Y-113162934D01*
X135825197Y-113167212D01*
X135846063Y-113179259D01*
X135852515Y-113182984D01*
X135882994Y-113191150D01*
X135892139Y-113194254D01*
X135921291Y-113206330D01*
X135952564Y-113210446D01*
X135962038Y-113212330D01*
X135992525Y-113220500D01*
X136024070Y-113220500D01*
X136033729Y-113221133D01*
X136065000Y-113225250D01*
X136096271Y-113221133D01*
X136105930Y-113220500D01*
X136137477Y-113220500D01*
X136152592Y-113216448D01*
X136167949Y-113212333D01*
X136177434Y-113210446D01*
X136208709Y-113206330D01*
X136230424Y-113197335D01*
X136237850Y-113194259D01*
X136247009Y-113191149D01*
X136277485Y-113182984D01*
X136304805Y-113167210D01*
X136313467Y-113162937D01*
X136342625Y-113150861D01*
X136367656Y-113131653D01*
X136375698Y-113126280D01*
X136403015Y-113110509D01*
X136425325Y-113088197D01*
X136432587Y-113081829D01*
X136457621Y-113062621D01*
X136476829Y-113037587D01*
X136483197Y-113030325D01*
X136505509Y-113008015D01*
X136521280Y-112980698D01*
X136526657Y-112972651D01*
X136538164Y-112957656D01*
X136545861Y-112947625D01*
X136557937Y-112918467D01*
X136562212Y-112909801D01*
X136577984Y-112882485D01*
X136586149Y-112852009D01*
X136589259Y-112842850D01*
X136601330Y-112813709D01*
X136603304Y-112798709D01*
X136605446Y-112782434D01*
X136607333Y-112772949D01*
X136611448Y-112757592D01*
X136615500Y-112742477D01*
X136615500Y-112710929D01*
X136616133Y-112701270D01*
X136616836Y-112695929D01*
X136620250Y-112670000D01*
X136616133Y-112638728D01*
X136615500Y-112629069D01*
X136615500Y-111768407D01*
X136623019Y-111735906D01*
X136624824Y-111732212D01*
X136624826Y-111732211D01*
X136679866Y-111619625D01*
X136690500Y-111546636D01*
X136690500Y-111025364D01*
X136679866Y-110952375D01*
X136624826Y-110839789D01*
X136536211Y-110751174D01*
X136536210Y-110751173D01*
X136423626Y-110696134D01*
X136350640Y-110685500D01*
X136350636Y-110685500D01*
X135779364Y-110685500D01*
X135779359Y-110685500D01*
X135706374Y-110696134D01*
X135706373Y-110696134D01*
X135593789Y-110751173D01*
X135505173Y-110839789D01*
X135450134Y-110952373D01*
X135450134Y-110952374D01*
X135439500Y-111025359D01*
X135090499Y-111025359D01*
X135079866Y-110952375D01*
X135024826Y-110839789D01*
X134936211Y-110751174D01*
X134936210Y-110751173D01*
X134823626Y-110696134D01*
X134750640Y-110685500D01*
X134750636Y-110685500D01*
X134179364Y-110685500D01*
X134179359Y-110685500D01*
X134106374Y-110696134D01*
X134106373Y-110696134D01*
X133993789Y-110751173D01*
X133905173Y-110839789D01*
X133850134Y-110952373D01*
X133850134Y-110952374D01*
X133839500Y-111025359D01*
X118515500Y-111025359D01*
X118515500Y-109996592D01*
X133840000Y-109996592D01*
X133850620Y-110069482D01*
X133905587Y-110181917D01*
X133994082Y-110270412D01*
X134106517Y-110325379D01*
X134179407Y-110335999D01*
X134179418Y-110336000D01*
X134390000Y-110336000D01*
X134540000Y-110336000D01*
X134750582Y-110336000D01*
X134750592Y-110335999D01*
X134823482Y-110325379D01*
X134935917Y-110270412D01*
X135024412Y-110181917D01*
X135079379Y-110069482D01*
X135089999Y-109996592D01*
X135440000Y-109996592D01*
X135450620Y-110069482D01*
X135505587Y-110181917D01*
X135594082Y-110270412D01*
X135706517Y-110325379D01*
X135779407Y-110335999D01*
X135779418Y-110336000D01*
X135990000Y-110336000D01*
X136140000Y-110336000D01*
X136350582Y-110336000D01*
X136350592Y-110335999D01*
X136423482Y-110325379D01*
X136535917Y-110270412D01*
X136624412Y-110181917D01*
X136679379Y-110069482D01*
X136689999Y-109996592D01*
X136690000Y-109996581D01*
X136690000Y-109811000D01*
X136140000Y-109811000D01*
X136140000Y-110336000D01*
X135990000Y-110336000D01*
X135990000Y-109811000D01*
X135440000Y-109811000D01*
X135440000Y-109996592D01*
X135089999Y-109996592D01*
X135090000Y-109996581D01*
X135090000Y-109811000D01*
X134540000Y-109811000D01*
X134540000Y-110336000D01*
X134390000Y-110336000D01*
X134390000Y-109811000D01*
X133840000Y-109811000D01*
X133840000Y-109996592D01*
X118515500Y-109996592D01*
X118515500Y-109475407D01*
X133840000Y-109475407D01*
X133840000Y-109661000D01*
X134390000Y-109661000D01*
X134540000Y-109661000D01*
X135090000Y-109661000D01*
X135090000Y-109475418D01*
X135089999Y-109475407D01*
X135440000Y-109475407D01*
X135440000Y-109661000D01*
X135990000Y-109661000D01*
X136140000Y-109661000D01*
X136690000Y-109661000D01*
X136690000Y-109475418D01*
X136689999Y-109475407D01*
X136679379Y-109402517D01*
X136624412Y-109290082D01*
X136535917Y-109201587D01*
X136423482Y-109146620D01*
X136350592Y-109136000D01*
X136140000Y-109136000D01*
X136140000Y-109661000D01*
X135990000Y-109661000D01*
X135990000Y-109136000D01*
X135779407Y-109136000D01*
X135706517Y-109146620D01*
X135594082Y-109201587D01*
X135505587Y-109290082D01*
X135450620Y-109402517D01*
X135440000Y-109475407D01*
X135089999Y-109475407D01*
X135079379Y-109402517D01*
X135024412Y-109290082D01*
X134935917Y-109201587D01*
X134823482Y-109146620D01*
X134750592Y-109136000D01*
X134540000Y-109136000D01*
X134540000Y-109661000D01*
X134390000Y-109661000D01*
X134390000Y-109136000D01*
X134179407Y-109136000D01*
X134106517Y-109146620D01*
X133994082Y-109201587D01*
X133905587Y-109290082D01*
X133850620Y-109402517D01*
X133840000Y-109475407D01*
X118515500Y-109475407D01*
X118515500Y-108521000D01*
X121269750Y-108521000D01*
X121288669Y-108664708D01*
X121344138Y-108798623D01*
X121344139Y-108798625D01*
X121432379Y-108913621D01*
X121547375Y-109001861D01*
X121681291Y-109057330D01*
X121825000Y-109076250D01*
X121968709Y-109057330D01*
X122102625Y-109001861D01*
X122217621Y-108913621D01*
X122305861Y-108798625D01*
X122361330Y-108664709D01*
X122380250Y-108521000D01*
X122361330Y-108377291D01*
X122305861Y-108243375D01*
X122217621Y-108128379D01*
X122102625Y-108040139D01*
X122102623Y-108040138D01*
X121968708Y-107984669D01*
X121825000Y-107965750D01*
X121681291Y-107984669D01*
X121547376Y-108040138D01*
X121432379Y-108128379D01*
X121344138Y-108243376D01*
X121288669Y-108377291D01*
X121269750Y-108521000D01*
X118515500Y-108521000D01*
X118515500Y-107815778D01*
X119775001Y-107815778D01*
X119783701Y-107859524D01*
X119816855Y-107909143D01*
X119816856Y-107909144D01*
X119866472Y-107942296D01*
X119910226Y-107950999D01*
X120350000Y-107950999D01*
X120500000Y-107950999D01*
X120939779Y-107950999D01*
X120983524Y-107942298D01*
X121033143Y-107909144D01*
X121033144Y-107909143D01*
X121066296Y-107859527D01*
X121075000Y-107815773D01*
X121075000Y-106301000D01*
X120500000Y-106301000D01*
X120500000Y-107950999D01*
X120350000Y-107950999D01*
X120350000Y-106301000D01*
X119775001Y-106301000D01*
X119775001Y-107815778D01*
X118515500Y-107815778D01*
X118515500Y-106161000D01*
X121239867Y-106161000D01*
X121258302Y-106289223D01*
X121258302Y-106289224D01*
X121258303Y-106289226D01*
X121312118Y-106407063D01*
X121396951Y-106504967D01*
X121505931Y-106575004D01*
X121630228Y-106611500D01*
X121759772Y-106611500D01*
X121884069Y-106575004D01*
X121993049Y-106504967D01*
X122077882Y-106407063D01*
X122131697Y-106289226D01*
X122150133Y-106161000D01*
X122131697Y-106032774D01*
X122077882Y-105914937D01*
X122040429Y-105871714D01*
X122022545Y-105817976D01*
X122047896Y-105767329D01*
X122056347Y-105761003D01*
X122060951Y-105758045D01*
X122145784Y-105660141D01*
X122173188Y-105600134D01*
X122214640Y-105561543D01*
X122271241Y-105563564D01*
X122309834Y-105605017D01*
X122314500Y-105630877D01*
X122314500Y-107815819D01*
X122323233Y-107859722D01*
X122356254Y-107909143D01*
X122356496Y-107909504D01*
X122406278Y-107942767D01*
X122450180Y-107951500D01*
X122450181Y-107951500D01*
X123479819Y-107951500D01*
X123479820Y-107951500D01*
X123523722Y-107942767D01*
X123573504Y-107909504D01*
X123606767Y-107859722D01*
X123615500Y-107815820D01*
X123615500Y-104636180D01*
X123606767Y-104592278D01*
X123573504Y-104542496D01*
X123536112Y-104517512D01*
X123523722Y-104509233D01*
X123479820Y-104500500D01*
X123479819Y-104500500D01*
X123289500Y-104500500D01*
X123237174Y-104478826D01*
X123215500Y-104426500D01*
X123215500Y-104314413D01*
X123237174Y-104262087D01*
X124447363Y-103051898D01*
X124447364Y-103051897D01*
X124485500Y-102959828D01*
X124485500Y-102860172D01*
X124485500Y-102036638D01*
X124489339Y-102013112D01*
X124490552Y-102009495D01*
X124508104Y-101872140D01*
X124515696Y-101847686D01*
X124560517Y-101760508D01*
X124560561Y-101760471D01*
X124560542Y-101760461D01*
X124561371Y-101758851D01*
X124644597Y-101597279D01*
X124647287Y-101591794D01*
X124647682Y-101590947D01*
X124650420Y-101578678D01*
X124655331Y-101564059D01*
X124671697Y-101528225D01*
X124671697Y-101528224D01*
X124690133Y-101400000D01*
X124671697Y-101271774D01*
X124617882Y-101153937D01*
X124533049Y-101056033D01*
X124428311Y-100988722D01*
X124424068Y-100985995D01*
X124419743Y-100984020D01*
X124381152Y-100942565D01*
X124383177Y-100885964D01*
X124410479Y-100854457D01*
X124503049Y-100794967D01*
X124587882Y-100697063D01*
X124641697Y-100579226D01*
X124660133Y-100451000D01*
X124641697Y-100322774D01*
X124587882Y-100204937D01*
X124503049Y-100107033D01*
X124436032Y-100063964D01*
X124394068Y-100036995D01*
X124269772Y-100000500D01*
X124140228Y-100000500D01*
X124015931Y-100036995D01*
X123906954Y-100107031D01*
X123906950Y-100107034D01*
X123822119Y-100204935D01*
X123768302Y-100322776D01*
X123762747Y-100361416D01*
X123733847Y-100410125D01*
X123678969Y-100424132D01*
X123630260Y-100395232D01*
X123615500Y-100350885D01*
X123615500Y-99586180D01*
X124854500Y-99586180D01*
X124854500Y-102765819D01*
X124863233Y-102809722D01*
X124888591Y-102847674D01*
X124896496Y-102859504D01*
X124946278Y-102892767D01*
X124990180Y-102901500D01*
X124990181Y-102901500D01*
X126019819Y-102901500D01*
X126019820Y-102901500D01*
X126063722Y-102892767D01*
X126113504Y-102859504D01*
X126146767Y-102809722D01*
X126155500Y-102765820D01*
X126155500Y-102699999D01*
X126339750Y-102699999D01*
X126343867Y-102731270D01*
X126344500Y-102740929D01*
X126344500Y-102772476D01*
X126352663Y-102802944D01*
X126354551Y-102812432D01*
X126358670Y-102843710D01*
X126370740Y-102872850D01*
X126373851Y-102882015D01*
X126382014Y-102912482D01*
X126397788Y-102939805D01*
X126402066Y-102948482D01*
X126414136Y-102977621D01*
X126414138Y-102977624D01*
X126414139Y-102977625D01*
X126433346Y-103002657D01*
X126438714Y-103010691D01*
X126454489Y-103038014D01*
X126476796Y-103060321D01*
X126483176Y-103067597D01*
X126502375Y-103092617D01*
X126502380Y-103092622D01*
X126527396Y-103111817D01*
X126534675Y-103118200D01*
X126776985Y-103360510D01*
X126902515Y-103432984D01*
X126902517Y-103432985D01*
X127000929Y-103459354D01*
X127042522Y-103470499D01*
X127042523Y-103470500D01*
X127042525Y-103470500D01*
X127042526Y-103470500D01*
X127187474Y-103470500D01*
X127635620Y-103470500D01*
X127667091Y-103480565D01*
X127668280Y-103478133D01*
X127673789Y-103480826D01*
X127786375Y-103535866D01*
X127859364Y-103546500D01*
X127859370Y-103546500D01*
X128380630Y-103546500D01*
X128380636Y-103546500D01*
X128453625Y-103535866D01*
X128566211Y-103480826D01*
X128654826Y-103392211D01*
X128709866Y-103279625D01*
X128720500Y-103206636D01*
X128720500Y-103206592D01*
X129070000Y-103206592D01*
X129080620Y-103279482D01*
X129135587Y-103391917D01*
X129224082Y-103480412D01*
X129336517Y-103535379D01*
X129409407Y-103545999D01*
X129409418Y-103546000D01*
X129595000Y-103546000D01*
X129745000Y-103546000D01*
X129930582Y-103546000D01*
X129930592Y-103545999D01*
X130003482Y-103535379D01*
X130115917Y-103480412D01*
X130204412Y-103391917D01*
X130259379Y-103279482D01*
X130269999Y-103206592D01*
X130270000Y-103206581D01*
X130270000Y-102996000D01*
X129745000Y-102996000D01*
X129745000Y-103546000D01*
X129595000Y-103546000D01*
X129595000Y-102996000D01*
X129070000Y-102996000D01*
X129070000Y-103206592D01*
X128720500Y-103206592D01*
X128720500Y-102635407D01*
X129070000Y-102635407D01*
X129070000Y-102846000D01*
X129595000Y-102846000D01*
X129745000Y-102846000D01*
X130270000Y-102846000D01*
X130270000Y-102635418D01*
X130269999Y-102635407D01*
X130259379Y-102562517D01*
X130204412Y-102450082D01*
X130115917Y-102361587D01*
X130003482Y-102306620D01*
X129930592Y-102296000D01*
X129745000Y-102296000D01*
X129745000Y-102846000D01*
X129595000Y-102846000D01*
X129595000Y-102296000D01*
X129409407Y-102296000D01*
X129336517Y-102306620D01*
X129224082Y-102361587D01*
X129135587Y-102450082D01*
X129080620Y-102562517D01*
X129070000Y-102635407D01*
X128720500Y-102635407D01*
X128720500Y-102635364D01*
X128709866Y-102562375D01*
X128654826Y-102449789D01*
X128566211Y-102361174D01*
X128566210Y-102361173D01*
X128453626Y-102306134D01*
X128380640Y-102295500D01*
X128380636Y-102295500D01*
X127859364Y-102295500D01*
X127859359Y-102295500D01*
X127786375Y-102306134D01*
X127673789Y-102361174D01*
X127673788Y-102361174D01*
X127672139Y-102361981D01*
X127639638Y-102369500D01*
X127373677Y-102369500D01*
X127321351Y-102347826D01*
X127313200Y-102339675D01*
X127306817Y-102332396D01*
X127287622Y-102307380D01*
X127287617Y-102307375D01*
X127262597Y-102288176D01*
X127255321Y-102281796D01*
X127248350Y-102274825D01*
X127233015Y-102259490D01*
X127205691Y-102243714D01*
X127197657Y-102238346D01*
X127172625Y-102219139D01*
X127172624Y-102219138D01*
X127172621Y-102219136D01*
X127143482Y-102207066D01*
X127134805Y-102202788D01*
X127107482Y-102187014D01*
X127077015Y-102178851D01*
X127067850Y-102175740D01*
X127038710Y-102163670D01*
X127007432Y-102159551D01*
X126997944Y-102157663D01*
X126967475Y-102149500D01*
X126967474Y-102149500D01*
X126935930Y-102149500D01*
X126926271Y-102148867D01*
X126895000Y-102144750D01*
X126863729Y-102148867D01*
X126854070Y-102149500D01*
X126822526Y-102149500D01*
X126803668Y-102154552D01*
X126792053Y-102157664D01*
X126782566Y-102159550D01*
X126751299Y-102163667D01*
X126751287Y-102163671D01*
X126722144Y-102175741D01*
X126712984Y-102178851D01*
X126682512Y-102187016D01*
X126682511Y-102187017D01*
X126655193Y-102202788D01*
X126646520Y-102207065D01*
X126637030Y-102210997D01*
X126617376Y-102219138D01*
X126592350Y-102238340D01*
X126584309Y-102243713D01*
X126556983Y-102259491D01*
X126534675Y-102281798D01*
X126527402Y-102288176D01*
X126502380Y-102307377D01*
X126502377Y-102307380D01*
X126483176Y-102332402D01*
X126476798Y-102339675D01*
X126454491Y-102361983D01*
X126438713Y-102389309D01*
X126433340Y-102397350D01*
X126414138Y-102422376D01*
X126402068Y-102451516D01*
X126397788Y-102460193D01*
X126382017Y-102487511D01*
X126382016Y-102487512D01*
X126373851Y-102517984D01*
X126370741Y-102527144D01*
X126358671Y-102556287D01*
X126358667Y-102556299D01*
X126354550Y-102587566D01*
X126352664Y-102597053D01*
X126344500Y-102627526D01*
X126344500Y-102627528D01*
X126344500Y-102659069D01*
X126343867Y-102668728D01*
X126339750Y-102699999D01*
X126155500Y-102699999D01*
X126155500Y-101500500D01*
X126177174Y-101448174D01*
X126229500Y-101426500D01*
X127054827Y-101426500D01*
X127054828Y-101426500D01*
X127146897Y-101388364D01*
X127363086Y-101172173D01*
X127415412Y-101150500D01*
X132056565Y-101150500D01*
X132084803Y-101159061D01*
X132085771Y-101156726D01*
X132092503Y-101159514D01*
X132092505Y-101159515D01*
X132200000Y-101180897D01*
X132307495Y-101159515D01*
X132358888Y-101125175D01*
X132414437Y-101114126D01*
X132441112Y-101125175D01*
X132492505Y-101159515D01*
X132600000Y-101180897D01*
X132707495Y-101159515D01*
X132707497Y-101159513D01*
X132714229Y-101156726D01*
X132715196Y-101159061D01*
X132743435Y-101150500D01*
X134056565Y-101150500D01*
X134084803Y-101159061D01*
X134085771Y-101156726D01*
X134092503Y-101159514D01*
X134092505Y-101159515D01*
X134200000Y-101180897D01*
X134307495Y-101159515D01*
X134358888Y-101125175D01*
X134414437Y-101114126D01*
X134441112Y-101125175D01*
X134492505Y-101159515D01*
X134600000Y-101180897D01*
X134707495Y-101159515D01*
X134707497Y-101159513D01*
X134714229Y-101156726D01*
X134715196Y-101159061D01*
X134743435Y-101150500D01*
X136056565Y-101150500D01*
X136084803Y-101159061D01*
X136085771Y-101156726D01*
X136092503Y-101159514D01*
X136092505Y-101159515D01*
X136200000Y-101180897D01*
X136307495Y-101159515D01*
X136358888Y-101125175D01*
X136414437Y-101114126D01*
X136441112Y-101125175D01*
X136492505Y-101159515D01*
X136600000Y-101180897D01*
X136707495Y-101159515D01*
X136707497Y-101159513D01*
X136714229Y-101156726D01*
X136715196Y-101159061D01*
X136743435Y-101150500D01*
X138056565Y-101150500D01*
X138084803Y-101159061D01*
X138085771Y-101156726D01*
X138092503Y-101159514D01*
X138092505Y-101159515D01*
X138200000Y-101180897D01*
X138261065Y-101168750D01*
X138316612Y-101179799D01*
X138348078Y-101226891D01*
X138349500Y-101241328D01*
X138349500Y-102158671D01*
X138327826Y-102210997D01*
X138275500Y-102232671D01*
X138261064Y-102231249D01*
X138200001Y-102219103D01*
X138200000Y-102219103D01*
X138092503Y-102240485D01*
X138085771Y-102243274D01*
X138084803Y-102240938D01*
X138056565Y-102249500D01*
X136743435Y-102249500D01*
X136715196Y-102240938D01*
X136714229Y-102243274D01*
X136707496Y-102240485D01*
X136600000Y-102219103D01*
X136492505Y-102240485D01*
X136441112Y-102274825D01*
X136385563Y-102285874D01*
X136358888Y-102274825D01*
X136335939Y-102259491D01*
X136307495Y-102240485D01*
X136200000Y-102219103D01*
X136092503Y-102240485D01*
X136085771Y-102243274D01*
X136084803Y-102240938D01*
X136056565Y-102249500D01*
X134743435Y-102249500D01*
X134715196Y-102240938D01*
X134714229Y-102243274D01*
X134707496Y-102240485D01*
X134600000Y-102219103D01*
X134492505Y-102240485D01*
X134441112Y-102274825D01*
X134385563Y-102285874D01*
X134358888Y-102274825D01*
X134335939Y-102259491D01*
X134307495Y-102240485D01*
X134200000Y-102219103D01*
X134092503Y-102240485D01*
X134085771Y-102243274D01*
X134084803Y-102240938D01*
X134056565Y-102249500D01*
X132743435Y-102249500D01*
X132715196Y-102240938D01*
X132714229Y-102243274D01*
X132707496Y-102240485D01*
X132600000Y-102219103D01*
X132492505Y-102240485D01*
X132441112Y-102274825D01*
X132385563Y-102285874D01*
X132358888Y-102274825D01*
X132335939Y-102259491D01*
X132307495Y-102240485D01*
X132200000Y-102219103D01*
X132092503Y-102240485D01*
X132085771Y-102243274D01*
X132084803Y-102240938D01*
X132056565Y-102249500D01*
X131276172Y-102249500D01*
X131184105Y-102287634D01*
X130592634Y-102879105D01*
X130554500Y-102971170D01*
X130554500Y-104470829D01*
X130592634Y-104562894D01*
X130592637Y-104562898D01*
X131142102Y-105112363D01*
X131142105Y-105112365D01*
X131166856Y-105122617D01*
X131234172Y-105150500D01*
X131333827Y-105150500D01*
X132056565Y-105150500D01*
X132084803Y-105159061D01*
X132085771Y-105156726D01*
X132092503Y-105159514D01*
X132092505Y-105159515D01*
X132200000Y-105180897D01*
X132307495Y-105159515D01*
X132358888Y-105125175D01*
X132414437Y-105114126D01*
X132441112Y-105125175D01*
X132492505Y-105159515D01*
X132600000Y-105180897D01*
X132707495Y-105159515D01*
X132707497Y-105159513D01*
X132714229Y-105156726D01*
X132715196Y-105159061D01*
X132743435Y-105150500D01*
X134056565Y-105150500D01*
X134084803Y-105159061D01*
X134085771Y-105156726D01*
X134092503Y-105159514D01*
X134092505Y-105159515D01*
X134200000Y-105180897D01*
X134307495Y-105159515D01*
X134358888Y-105125175D01*
X134414437Y-105114126D01*
X134441112Y-105125175D01*
X134492505Y-105159515D01*
X134600000Y-105180897D01*
X134707495Y-105159515D01*
X134707497Y-105159513D01*
X134714229Y-105156726D01*
X134715196Y-105159061D01*
X134743435Y-105150500D01*
X136056565Y-105150500D01*
X136084803Y-105159061D01*
X136085771Y-105156726D01*
X136092503Y-105159514D01*
X136092505Y-105159515D01*
X136200000Y-105180897D01*
X136307495Y-105159515D01*
X136358888Y-105125175D01*
X136414437Y-105114126D01*
X136441112Y-105125175D01*
X136492505Y-105159515D01*
X136600000Y-105180897D01*
X136707495Y-105159515D01*
X136707497Y-105159513D01*
X136714229Y-105156726D01*
X136715196Y-105159061D01*
X136743435Y-105150500D01*
X138056565Y-105150500D01*
X138084803Y-105159061D01*
X138085771Y-105156726D01*
X138092503Y-105159514D01*
X138092505Y-105159515D01*
X138200000Y-105180897D01*
X138261065Y-105168750D01*
X138316612Y-105179799D01*
X138348078Y-105226891D01*
X138349500Y-105241328D01*
X138349500Y-106158671D01*
X138327826Y-106210997D01*
X138275500Y-106232671D01*
X138261064Y-106231249D01*
X138200001Y-106219103D01*
X138200000Y-106219103D01*
X138092503Y-106240485D01*
X138085771Y-106243274D01*
X138084803Y-106240938D01*
X138056565Y-106249500D01*
X136743435Y-106249500D01*
X136715196Y-106240938D01*
X136714229Y-106243274D01*
X136707496Y-106240485D01*
X136600000Y-106219103D01*
X136492505Y-106240485D01*
X136441112Y-106274825D01*
X136385563Y-106285874D01*
X136358888Y-106274825D01*
X136349500Y-106268552D01*
X136307495Y-106240485D01*
X136200000Y-106219103D01*
X136092503Y-106240485D01*
X136085771Y-106243274D01*
X136084803Y-106240938D01*
X136056565Y-106249500D01*
X134743435Y-106249500D01*
X134715196Y-106240938D01*
X134714229Y-106243274D01*
X134707496Y-106240485D01*
X134600000Y-106219103D01*
X134492505Y-106240485D01*
X134441112Y-106274825D01*
X134385563Y-106285874D01*
X134358888Y-106274825D01*
X134349500Y-106268552D01*
X134307495Y-106240485D01*
X134200000Y-106219103D01*
X134092503Y-106240485D01*
X134085771Y-106243274D01*
X134084803Y-106240938D01*
X134056565Y-106249500D01*
X132743435Y-106249500D01*
X132715196Y-106240938D01*
X132714229Y-106243274D01*
X132707496Y-106240485D01*
X132600000Y-106219103D01*
X132492505Y-106240485D01*
X132441112Y-106274825D01*
X132385563Y-106285874D01*
X132358888Y-106274825D01*
X132349500Y-106268552D01*
X132307495Y-106240485D01*
X132200000Y-106219103D01*
X132092503Y-106240485D01*
X132085771Y-106243274D01*
X132084803Y-106240938D01*
X132056565Y-106249500D01*
X127283412Y-106249500D01*
X127231086Y-106227826D01*
X127016897Y-106013636D01*
X127016894Y-106013634D01*
X126924828Y-105975500D01*
X126229500Y-105975500D01*
X126177174Y-105953826D01*
X126155500Y-105901500D01*
X126155500Y-104729999D01*
X126317750Y-104729999D01*
X126321867Y-104761270D01*
X126322500Y-104770929D01*
X126322500Y-104802476D01*
X126330663Y-104832944D01*
X126332551Y-104842432D01*
X126336670Y-104873710D01*
X126348740Y-104902850D01*
X126351851Y-104912015D01*
X126360014Y-104942482D01*
X126375788Y-104969805D01*
X126380066Y-104978482D01*
X126392136Y-105007621D01*
X126392138Y-105007624D01*
X126392139Y-105007625D01*
X126411346Y-105032657D01*
X126416714Y-105040691D01*
X126432489Y-105068014D01*
X126454796Y-105090321D01*
X126461176Y-105097597D01*
X126480375Y-105122617D01*
X126480380Y-105122622D01*
X126505396Y-105141817D01*
X126512674Y-105148199D01*
X126534985Y-105170510D01*
X126552976Y-105180897D01*
X126562305Y-105186283D01*
X126570344Y-105191654D01*
X126595375Y-105210861D01*
X126609759Y-105216819D01*
X126624517Y-105222932D01*
X126633198Y-105227213D01*
X126660515Y-105242984D01*
X126690994Y-105251150D01*
X126700139Y-105254254D01*
X126729291Y-105266330D01*
X126760559Y-105270446D01*
X126770050Y-105272334D01*
X126800526Y-105280500D01*
X126832070Y-105280500D01*
X126841729Y-105281133D01*
X126873000Y-105285250D01*
X126904271Y-105281133D01*
X126913930Y-105280500D01*
X126945474Y-105280500D01*
X126975952Y-105272333D01*
X126985430Y-105270447D01*
X127016709Y-105266330D01*
X127045851Y-105254258D01*
X127055004Y-105251150D01*
X127085485Y-105242984D01*
X127112811Y-105227206D01*
X127121475Y-105222934D01*
X127150625Y-105210861D01*
X127175652Y-105191656D01*
X127183693Y-105186283D01*
X127211015Y-105170510D01*
X127233329Y-105148194D01*
X127240591Y-105141825D01*
X127265621Y-105122621D01*
X127284825Y-105097591D01*
X127291203Y-105090321D01*
X127309352Y-105072173D01*
X127361676Y-105050500D01*
X127612811Y-105050500D01*
X127665137Y-105072174D01*
X127673789Y-105080826D01*
X127786375Y-105135866D01*
X127859364Y-105146500D01*
X127859370Y-105146500D01*
X128380630Y-105146500D01*
X128380636Y-105146500D01*
X128453625Y-105135866D01*
X128566211Y-105080826D01*
X128654826Y-104992211D01*
X128709866Y-104879625D01*
X128720500Y-104806636D01*
X128720500Y-104806592D01*
X129070000Y-104806592D01*
X129080620Y-104879482D01*
X129135587Y-104991917D01*
X129224082Y-105080412D01*
X129336517Y-105135379D01*
X129409407Y-105145999D01*
X129409418Y-105146000D01*
X129595000Y-105146000D01*
X129745000Y-105146000D01*
X129930582Y-105146000D01*
X129930592Y-105145999D01*
X130003482Y-105135379D01*
X130115917Y-105080412D01*
X130204412Y-104991917D01*
X130259379Y-104879482D01*
X130269999Y-104806592D01*
X130270000Y-104806581D01*
X130270000Y-104596000D01*
X129745000Y-104596000D01*
X129745000Y-105146000D01*
X129595000Y-105146000D01*
X129595000Y-104596000D01*
X129070000Y-104596000D01*
X129070000Y-104806592D01*
X128720500Y-104806592D01*
X128720500Y-104235407D01*
X129070000Y-104235407D01*
X129070000Y-104446000D01*
X129595000Y-104446000D01*
X129745000Y-104446000D01*
X130270000Y-104446000D01*
X130270000Y-104235418D01*
X130269999Y-104235407D01*
X130259379Y-104162517D01*
X130204412Y-104050082D01*
X130115917Y-103961587D01*
X130003482Y-103906620D01*
X129930592Y-103896000D01*
X129745000Y-103896000D01*
X129745000Y-104446000D01*
X129595000Y-104446000D01*
X129595000Y-103896000D01*
X129409407Y-103896000D01*
X129336517Y-103906620D01*
X129224082Y-103961587D01*
X129135587Y-104050082D01*
X129080620Y-104162517D01*
X129070000Y-104235407D01*
X128720500Y-104235407D01*
X128720500Y-104235364D01*
X128709866Y-104162375D01*
X128654826Y-104049789D01*
X128566211Y-103961174D01*
X128566210Y-103961173D01*
X128453626Y-103906134D01*
X128380640Y-103895500D01*
X128380636Y-103895500D01*
X127859364Y-103895500D01*
X127859359Y-103895500D01*
X127786373Y-103906134D01*
X127713049Y-103941981D01*
X127680548Y-103949500D01*
X127030523Y-103949500D01*
X126962841Y-103967636D01*
X126952153Y-103970500D01*
X126890515Y-103987016D01*
X126764984Y-104059490D01*
X126512676Y-104311797D01*
X126505401Y-104318177D01*
X126480380Y-104337377D01*
X126480377Y-104337380D01*
X126461176Y-104362402D01*
X126454798Y-104369675D01*
X126432491Y-104391983D01*
X126416713Y-104419309D01*
X126411340Y-104427350D01*
X126392138Y-104452376D01*
X126380068Y-104481516D01*
X126375788Y-104490193D01*
X126360017Y-104517511D01*
X126360016Y-104517512D01*
X126351851Y-104547984D01*
X126348741Y-104557144D01*
X126336671Y-104586287D01*
X126336667Y-104586299D01*
X126332550Y-104617566D01*
X126330664Y-104627053D01*
X126322500Y-104657526D01*
X126322500Y-104657528D01*
X126322500Y-104689069D01*
X126321867Y-104698728D01*
X126317750Y-104729999D01*
X126155500Y-104729999D01*
X126155500Y-104636180D01*
X126151797Y-104617566D01*
X126146767Y-104592278D01*
X126113504Y-104542496D01*
X126076112Y-104517512D01*
X126063722Y-104509233D01*
X126019820Y-104500500D01*
X124990180Y-104500500D01*
X124968229Y-104504866D01*
X124946277Y-104509233D01*
X124896496Y-104542495D01*
X124896495Y-104542496D01*
X124863233Y-104592277D01*
X124854500Y-104636180D01*
X124854500Y-107815819D01*
X124863233Y-107859722D01*
X124896254Y-107909143D01*
X124896496Y-107909504D01*
X124946278Y-107942767D01*
X124990180Y-107951500D01*
X124990181Y-107951500D01*
X126019819Y-107951500D01*
X126019820Y-107951500D01*
X126063722Y-107942767D01*
X126113504Y-107909504D01*
X126146767Y-107859722D01*
X126155500Y-107815820D01*
X126155500Y-106550500D01*
X126177174Y-106498174D01*
X126229500Y-106476500D01*
X126740587Y-106476500D01*
X126792913Y-106498174D01*
X126932415Y-106637675D01*
X126932418Y-106637679D01*
X126936636Y-106641897D01*
X127007103Y-106712364D01*
X127045238Y-106728159D01*
X127045239Y-106728160D01*
X127099173Y-106750501D01*
X127207440Y-106750501D01*
X127207448Y-106750500D01*
X131858671Y-106750500D01*
X131910997Y-106772174D01*
X131932671Y-106824500D01*
X131931249Y-106838936D01*
X131919103Y-106899999D01*
X131940485Y-107007497D01*
X131943274Y-107014229D01*
X131940927Y-107015201D01*
X131949500Y-107043434D01*
X131949500Y-107659038D01*
X131948078Y-107673474D01*
X131944500Y-107691462D01*
X131944500Y-108188340D01*
X131944514Y-108188483D01*
X131944867Y-108195702D01*
X131944867Y-108199999D01*
X131963302Y-108328223D01*
X131963302Y-108328224D01*
X131963303Y-108328226D01*
X132017118Y-108446063D01*
X132101951Y-108543967D01*
X132210931Y-108614004D01*
X132335228Y-108650500D01*
X132464772Y-108650500D01*
X132589069Y-108614004D01*
X132698049Y-108543967D01*
X132782882Y-108446063D01*
X132836697Y-108328226D01*
X132855133Y-108200000D01*
X132836697Y-108071774D01*
X132782882Y-107953937D01*
X132698049Y-107856033D01*
X132698048Y-107856032D01*
X132698046Y-107856030D01*
X132698044Y-107856029D01*
X132686407Y-107848550D01*
X132681392Y-107845026D01*
X132615652Y-107794627D01*
X132608072Y-107789387D01*
X132603072Y-107785931D01*
X132602880Y-107785812D01*
X132601115Y-107784716D01*
X132587739Y-107777296D01*
X132554510Y-107760946D01*
X132554496Y-107760940D01*
X132554454Y-107760919D01*
X132507209Y-107737674D01*
X132505109Y-107736599D01*
X132495826Y-107731658D01*
X132459819Y-107687940D01*
X132457686Y-107678992D01*
X132454896Y-107662898D01*
X132454893Y-107662889D01*
X132454376Y-107661353D01*
X132450500Y-107637719D01*
X132450500Y-107240819D01*
X132472174Y-107188493D01*
X132524500Y-107166819D01*
X132538937Y-107168241D01*
X132600000Y-107180387D01*
X132707299Y-107159044D01*
X132734682Y-107140748D01*
X132546260Y-106952326D01*
X132524586Y-106900000D01*
X132546260Y-106847674D01*
X132547674Y-106846260D01*
X132600000Y-106824586D01*
X132652326Y-106846260D01*
X132840748Y-107034682D01*
X132859044Y-107007299D01*
X132880388Y-106899999D01*
X132868242Y-106838936D01*
X132879291Y-106783388D01*
X132926384Y-106751922D01*
X132940820Y-106750500D01*
X133858671Y-106750500D01*
X133910997Y-106772174D01*
X133932671Y-106824500D01*
X133931249Y-106838936D01*
X133919103Y-106899999D01*
X133940485Y-107007497D01*
X133943274Y-107014229D01*
X133940927Y-107015201D01*
X133949500Y-107043434D01*
X133949500Y-107659038D01*
X133948078Y-107673474D01*
X133944500Y-107691462D01*
X133944500Y-108188340D01*
X133944514Y-108188483D01*
X133944867Y-108195702D01*
X133944867Y-108199999D01*
X133963302Y-108328223D01*
X133963302Y-108328224D01*
X133963303Y-108328226D01*
X134017118Y-108446063D01*
X134101951Y-108543967D01*
X134210931Y-108614004D01*
X134335228Y-108650500D01*
X134464772Y-108650500D01*
X134589069Y-108614004D01*
X134698049Y-108543967D01*
X134782882Y-108446063D01*
X134836697Y-108328226D01*
X134855133Y-108200000D01*
X134836697Y-108071774D01*
X134782882Y-107953937D01*
X134698049Y-107856033D01*
X134698048Y-107856032D01*
X134698046Y-107856030D01*
X134698044Y-107856029D01*
X134686407Y-107848550D01*
X134681392Y-107845026D01*
X134615652Y-107794627D01*
X134608072Y-107789387D01*
X134603072Y-107785931D01*
X134602880Y-107785812D01*
X134601115Y-107784716D01*
X134587739Y-107777296D01*
X134554510Y-107760946D01*
X134554496Y-107760940D01*
X134554454Y-107760919D01*
X134507209Y-107737674D01*
X134505109Y-107736599D01*
X134495826Y-107731658D01*
X134459819Y-107687940D01*
X134457686Y-107678992D01*
X134454896Y-107662898D01*
X134454893Y-107662889D01*
X134454376Y-107661353D01*
X134450500Y-107637719D01*
X134450500Y-107240819D01*
X134472174Y-107188493D01*
X134524500Y-107166819D01*
X134538937Y-107168241D01*
X134600000Y-107180387D01*
X134707299Y-107159044D01*
X134734682Y-107140748D01*
X134546260Y-106952326D01*
X134524586Y-106900000D01*
X134546260Y-106847674D01*
X134547674Y-106846260D01*
X134600000Y-106824586D01*
X134652326Y-106846260D01*
X134840748Y-107034682D01*
X134859044Y-107007299D01*
X134880388Y-106899999D01*
X134868242Y-106838936D01*
X134879291Y-106783388D01*
X134926384Y-106751922D01*
X134940820Y-106750500D01*
X135858671Y-106750500D01*
X135910997Y-106772174D01*
X135932671Y-106824500D01*
X135931249Y-106838936D01*
X135919102Y-106899999D01*
X135940485Y-107007497D01*
X135943274Y-107014229D01*
X135940927Y-107015201D01*
X135949500Y-107043434D01*
X135949500Y-107659038D01*
X135948078Y-107673474D01*
X135944500Y-107691462D01*
X135944500Y-108188340D01*
X135944514Y-108188483D01*
X135944867Y-108195702D01*
X135944867Y-108199999D01*
X135963302Y-108328223D01*
X135963302Y-108328224D01*
X135963303Y-108328226D01*
X136017118Y-108446063D01*
X136101951Y-108543967D01*
X136210931Y-108614004D01*
X136335228Y-108650500D01*
X136464772Y-108650500D01*
X136589069Y-108614004D01*
X136698049Y-108543967D01*
X136782882Y-108446063D01*
X136836697Y-108328226D01*
X136855133Y-108200000D01*
X136836697Y-108071774D01*
X136782882Y-107953937D01*
X136698049Y-107856033D01*
X136698048Y-107856032D01*
X136698046Y-107856030D01*
X136698044Y-107856029D01*
X136686407Y-107848550D01*
X136681392Y-107845026D01*
X136615652Y-107794627D01*
X136608072Y-107789387D01*
X136603072Y-107785931D01*
X136602880Y-107785812D01*
X136601115Y-107784716D01*
X136587739Y-107777296D01*
X136554510Y-107760946D01*
X136554496Y-107760940D01*
X136554454Y-107760919D01*
X136507209Y-107737674D01*
X136505109Y-107736599D01*
X136495826Y-107731658D01*
X136459819Y-107687940D01*
X136457686Y-107678992D01*
X136454896Y-107662898D01*
X136454893Y-107662889D01*
X136454376Y-107661353D01*
X136450500Y-107637719D01*
X136450500Y-107240819D01*
X136472174Y-107188493D01*
X136524500Y-107166819D01*
X136538937Y-107168241D01*
X136600000Y-107180387D01*
X136707299Y-107159044D01*
X136734682Y-107140748D01*
X136546260Y-106952326D01*
X136524586Y-106900000D01*
X136546260Y-106847674D01*
X136547674Y-106846260D01*
X136600000Y-106824586D01*
X136652326Y-106846260D01*
X136840748Y-107034682D01*
X136859044Y-107007299D01*
X136880388Y-106899999D01*
X136868242Y-106838936D01*
X136879291Y-106783388D01*
X136926384Y-106751922D01*
X136940820Y-106750500D01*
X137858671Y-106750500D01*
X137910997Y-106772174D01*
X137932671Y-106824500D01*
X137931249Y-106838936D01*
X137919103Y-106899999D01*
X137940485Y-107007497D01*
X137943274Y-107014229D01*
X137940927Y-107015201D01*
X137949500Y-107043434D01*
X137949500Y-107659038D01*
X137948078Y-107673474D01*
X137944500Y-107691462D01*
X137944500Y-108188340D01*
X137944514Y-108188483D01*
X137944867Y-108195702D01*
X137944867Y-108199999D01*
X137963302Y-108328223D01*
X137963302Y-108328224D01*
X137963303Y-108328226D01*
X138017118Y-108446063D01*
X138101951Y-108543967D01*
X138210931Y-108614004D01*
X138335228Y-108650500D01*
X138464772Y-108650500D01*
X138589069Y-108614004D01*
X138698049Y-108543967D01*
X138782882Y-108446063D01*
X138836697Y-108328226D01*
X138855133Y-108200000D01*
X138836697Y-108071774D01*
X138782882Y-107953937D01*
X138698049Y-107856033D01*
X138698048Y-107856032D01*
X138698046Y-107856030D01*
X138698044Y-107856029D01*
X138686407Y-107848550D01*
X138681392Y-107845026D01*
X138615652Y-107794627D01*
X138608072Y-107789387D01*
X138603072Y-107785931D01*
X138602880Y-107785812D01*
X138601115Y-107784716D01*
X138587739Y-107777296D01*
X138554510Y-107760946D01*
X138554496Y-107760940D01*
X138554454Y-107760919D01*
X138507209Y-107737674D01*
X138505109Y-107736599D01*
X138495826Y-107731658D01*
X138459819Y-107687940D01*
X138457686Y-107678992D01*
X138454896Y-107662898D01*
X138454893Y-107662889D01*
X138454376Y-107661353D01*
X138450500Y-107637719D01*
X138450500Y-107240819D01*
X138472174Y-107188493D01*
X138524500Y-107166819D01*
X138538937Y-107168241D01*
X138600000Y-107180387D01*
X138707299Y-107159044D01*
X138734682Y-107140748D01*
X138546260Y-106952326D01*
X138524586Y-106900000D01*
X138546260Y-106847674D01*
X138600001Y-106793933D01*
X138600337Y-106793596D01*
X138638288Y-106773280D01*
X138641828Y-106772576D01*
X138697373Y-106783628D01*
X138728837Y-106830721D01*
X138717785Y-106886270D01*
X138708585Y-106897480D01*
X138706066Y-106899999D01*
X138706066Y-106900000D01*
X138840748Y-107034682D01*
X138859044Y-107007299D01*
X138880387Y-106900000D01*
X138859044Y-106792699D01*
X138824874Y-106741560D01*
X138813825Y-106686011D01*
X138824871Y-106659341D01*
X138859515Y-106607495D01*
X138880897Y-106500000D01*
X138859515Y-106392505D01*
X138859514Y-106392503D01*
X138856726Y-106385771D01*
X138859061Y-106384803D01*
X138850500Y-106356565D01*
X138850500Y-105043434D01*
X138859072Y-105015201D01*
X138856726Y-105014229D01*
X138859514Y-105007497D01*
X138859514Y-105007496D01*
X138859515Y-105007495D01*
X138880897Y-104900000D01*
X138862317Y-104806592D01*
X139525000Y-104806592D01*
X139535620Y-104879482D01*
X139590587Y-104991917D01*
X139679082Y-105080412D01*
X139791517Y-105135379D01*
X139864407Y-105145999D01*
X139864418Y-105146000D01*
X140050000Y-105146000D01*
X140200000Y-105146000D01*
X140385582Y-105146000D01*
X140385592Y-105145999D01*
X140458482Y-105135379D01*
X140570917Y-105080412D01*
X140659412Y-104991917D01*
X140714379Y-104879482D01*
X140724999Y-104806592D01*
X140725000Y-104806581D01*
X140725000Y-104596000D01*
X140200000Y-104596000D01*
X140200000Y-105146000D01*
X140050000Y-105146000D01*
X140050000Y-104596000D01*
X139525000Y-104596000D01*
X139525000Y-104806592D01*
X138862317Y-104806592D01*
X138859515Y-104792505D01*
X138825175Y-104741112D01*
X138814126Y-104685563D01*
X138825175Y-104658888D01*
X138832398Y-104648078D01*
X138859515Y-104607495D01*
X138880897Y-104500000D01*
X138859515Y-104392505D01*
X138859514Y-104392503D01*
X138856726Y-104385771D01*
X138859061Y-104384803D01*
X138850500Y-104356565D01*
X138850500Y-104240962D01*
X138851047Y-104235407D01*
X139525000Y-104235407D01*
X139525000Y-104446000D01*
X140050000Y-104446000D01*
X140200000Y-104446000D01*
X140725000Y-104446000D01*
X140725000Y-104235418D01*
X140724999Y-104235407D01*
X140724992Y-104235359D01*
X141074500Y-104235359D01*
X141074500Y-104806640D01*
X141079015Y-104837629D01*
X141085134Y-104879625D01*
X141115593Y-104941930D01*
X141116981Y-104944768D01*
X141124500Y-104977269D01*
X141124500Y-105789069D01*
X141123867Y-105798728D01*
X141119750Y-105829999D01*
X141123867Y-105861270D01*
X141124500Y-105870929D01*
X141124500Y-105902476D01*
X141132665Y-105932951D01*
X141134553Y-105942442D01*
X141138669Y-105973708D01*
X141150740Y-106002849D01*
X141153847Y-106012001D01*
X141162016Y-106042485D01*
X141167789Y-106052484D01*
X141177786Y-106069801D01*
X141182065Y-106078479D01*
X141194137Y-106107621D01*
X141194137Y-106107622D01*
X141194138Y-106107624D01*
X141194139Y-106107625D01*
X141213349Y-106132661D01*
X141218722Y-106140703D01*
X141234491Y-106168015D01*
X141256793Y-106190317D01*
X141263174Y-106197593D01*
X141282379Y-106222621D01*
X141282381Y-106222622D01*
X141282382Y-106222624D01*
X141307400Y-106241820D01*
X141314678Y-106248202D01*
X141336985Y-106270509D01*
X141355721Y-106281327D01*
X141364305Y-106286283D01*
X141372351Y-106291660D01*
X141385013Y-106301376D01*
X141397375Y-106310861D01*
X141426524Y-106322934D01*
X141435197Y-106327212D01*
X141462515Y-106342984D01*
X141492994Y-106351150D01*
X141502139Y-106354254D01*
X141531291Y-106366330D01*
X141562564Y-106370446D01*
X141572038Y-106372330D01*
X141602525Y-106380500D01*
X141634070Y-106380500D01*
X141643729Y-106381133D01*
X141675000Y-106385250D01*
X141706271Y-106381133D01*
X141715930Y-106380500D01*
X141747477Y-106380500D01*
X141762592Y-106376448D01*
X141777949Y-106372333D01*
X141787434Y-106370446D01*
X141818709Y-106366330D01*
X141842283Y-106356565D01*
X141847850Y-106354259D01*
X141857009Y-106351149D01*
X141887485Y-106342984D01*
X141914805Y-106327210D01*
X141923467Y-106322937D01*
X141952625Y-106310861D01*
X141977656Y-106291653D01*
X141985698Y-106286280D01*
X142013015Y-106270509D01*
X142035325Y-106248197D01*
X142042587Y-106241829D01*
X142067621Y-106222621D01*
X142086829Y-106197587D01*
X142093197Y-106190325D01*
X142115509Y-106168015D01*
X142131280Y-106140698D01*
X142136657Y-106132651D01*
X142155859Y-106107627D01*
X142155861Y-106107625D01*
X142167937Y-106078467D01*
X142172212Y-106069801D01*
X142187984Y-106042485D01*
X142196149Y-106012009D01*
X142199259Y-106002850D01*
X142211330Y-105973709D01*
X142213947Y-105953826D01*
X142215446Y-105942434D01*
X142217333Y-105932949D01*
X142221448Y-105917592D01*
X142225500Y-105902477D01*
X142225500Y-105870929D01*
X142226133Y-105861270D01*
X142230250Y-105830000D01*
X142226133Y-105798728D01*
X142225500Y-105789069D01*
X142225500Y-104977269D01*
X142233019Y-104944768D01*
X142234137Y-104942482D01*
X142264866Y-104879625D01*
X142275500Y-104806636D01*
X142275500Y-104235364D01*
X142264866Y-104162375D01*
X142209826Y-104049789D01*
X142121211Y-103961174D01*
X142121210Y-103961173D01*
X142008626Y-103906134D01*
X141935640Y-103895500D01*
X141935636Y-103895500D01*
X141414364Y-103895500D01*
X141414359Y-103895500D01*
X141341374Y-103906134D01*
X141341373Y-103906134D01*
X141228789Y-103961173D01*
X141140173Y-104049789D01*
X141085134Y-104162373D01*
X141085134Y-104162374D01*
X141074500Y-104235359D01*
X140724992Y-104235359D01*
X140714379Y-104162517D01*
X140659412Y-104050082D01*
X140570917Y-103961587D01*
X140458482Y-103906620D01*
X140385592Y-103896000D01*
X140200000Y-103896000D01*
X140200000Y-104446000D01*
X140050000Y-104446000D01*
X140050000Y-103896000D01*
X139864407Y-103896000D01*
X139791517Y-103906620D01*
X139679082Y-103961587D01*
X139590587Y-104050082D01*
X139535620Y-104162517D01*
X139525000Y-104235407D01*
X138851047Y-104235407D01*
X138851922Y-104226525D01*
X138855500Y-104208537D01*
X138855500Y-103711655D01*
X138855486Y-103711513D01*
X138855133Y-103704296D01*
X138855133Y-103700001D01*
X138853477Y-103688483D01*
X138836697Y-103571774D01*
X138782882Y-103453937D01*
X138698049Y-103356033D01*
X138698048Y-103356032D01*
X138698046Y-103356030D01*
X138698044Y-103356029D01*
X138686407Y-103348550D01*
X138681392Y-103345026D01*
X138623802Y-103300875D01*
X138595462Y-103251838D01*
X138607564Y-103206592D01*
X139525000Y-103206592D01*
X139535620Y-103279482D01*
X139590587Y-103391917D01*
X139679082Y-103480412D01*
X139791517Y-103535379D01*
X139864407Y-103545999D01*
X139864418Y-103546000D01*
X140050000Y-103546000D01*
X140200000Y-103546000D01*
X140385582Y-103546000D01*
X140385592Y-103545999D01*
X140458482Y-103535379D01*
X140570917Y-103480412D01*
X140659412Y-103391917D01*
X140714379Y-103279482D01*
X140724999Y-103206592D01*
X140725000Y-103206581D01*
X140725000Y-102996000D01*
X140200000Y-102996000D01*
X140200000Y-103546000D01*
X140050000Y-103546000D01*
X140050000Y-102996000D01*
X139525000Y-102996000D01*
X139525000Y-103206592D01*
X138607564Y-103206592D01*
X138610097Y-103197124D01*
X138654389Y-103169569D01*
X138707299Y-103159045D01*
X138734682Y-103140748D01*
X138546260Y-102952326D01*
X138524586Y-102900000D01*
X138546260Y-102847674D01*
X138600001Y-102793933D01*
X138600337Y-102793596D01*
X138638288Y-102773280D01*
X138641828Y-102772576D01*
X138697373Y-102783628D01*
X138728837Y-102830721D01*
X138717785Y-102886270D01*
X138708585Y-102897480D01*
X138706066Y-102899999D01*
X138706066Y-102900000D01*
X138840748Y-103034682D01*
X138859044Y-103007299D01*
X138880387Y-102900000D01*
X138859044Y-102792699D01*
X138824874Y-102741560D01*
X138813825Y-102686011D01*
X138824871Y-102659341D01*
X138840864Y-102635407D01*
X139525000Y-102635407D01*
X139525000Y-102846000D01*
X140050000Y-102846000D01*
X140200000Y-102846000D01*
X140725000Y-102846000D01*
X140725000Y-102635418D01*
X140724999Y-102635407D01*
X140724992Y-102635359D01*
X141074500Y-102635359D01*
X141074500Y-103206640D01*
X141085134Y-103279625D01*
X141085134Y-103279626D01*
X141140173Y-103392210D01*
X141140174Y-103392211D01*
X141228789Y-103480826D01*
X141341375Y-103535866D01*
X141414364Y-103546500D01*
X141414370Y-103546500D01*
X141935630Y-103546500D01*
X141935636Y-103546500D01*
X142008625Y-103535866D01*
X142121211Y-103480826D01*
X142209826Y-103392211D01*
X142264866Y-103279625D01*
X142275500Y-103206636D01*
X142275500Y-102635364D01*
X142264866Y-102562375D01*
X142233019Y-102497230D01*
X142225500Y-102464730D01*
X142225500Y-101485929D01*
X142226133Y-101476270D01*
X142230250Y-101445000D01*
X142226133Y-101413728D01*
X142225500Y-101404069D01*
X142225500Y-101372525D01*
X142225500Y-101372524D01*
X142217330Y-101342038D01*
X142215446Y-101332559D01*
X142211330Y-101301291D01*
X142199254Y-101272139D01*
X142196150Y-101262994D01*
X142187984Y-101232515D01*
X142172212Y-101205197D01*
X142167934Y-101196524D01*
X142155861Y-101167375D01*
X142145548Y-101153935D01*
X142136660Y-101142351D01*
X142131283Y-101134305D01*
X142126011Y-101125175D01*
X142115509Y-101106985D01*
X142093202Y-101084678D01*
X142086820Y-101077400D01*
X142067624Y-101052382D01*
X142067622Y-101052381D01*
X142067621Y-101052379D01*
X142042593Y-101033174D01*
X142035317Y-101026793D01*
X142013015Y-101004491D01*
X141985699Y-100988719D01*
X141977661Y-100983349D01*
X141952625Y-100964139D01*
X141952624Y-100964138D01*
X141952622Y-100964137D01*
X141923479Y-100952065D01*
X141914801Y-100947786D01*
X141897484Y-100937789D01*
X141887485Y-100932016D01*
X141857001Y-100923847D01*
X141847849Y-100920740D01*
X141818708Y-100908669D01*
X141787442Y-100904553D01*
X141777951Y-100902665D01*
X141747476Y-100894500D01*
X141747475Y-100894500D01*
X141715930Y-100894500D01*
X141706271Y-100893867D01*
X141675000Y-100889750D01*
X141643729Y-100893867D01*
X141634070Y-100894500D01*
X141602525Y-100894500D01*
X141572050Y-100902665D01*
X141562559Y-100904553D01*
X141531289Y-100908670D01*
X141502144Y-100920741D01*
X141492984Y-100923851D01*
X141462514Y-100932016D01*
X141435193Y-100947788D01*
X141426518Y-100952066D01*
X141397372Y-100964139D01*
X141372345Y-100983342D01*
X141364304Y-100988716D01*
X141336984Y-101004491D01*
X141314679Y-101026795D01*
X141307406Y-101033173D01*
X141282380Y-101052377D01*
X141282377Y-101052380D01*
X141263173Y-101077406D01*
X141256795Y-101084679D01*
X141234491Y-101106984D01*
X141218716Y-101134304D01*
X141213342Y-101142345D01*
X141194139Y-101167372D01*
X141182066Y-101196518D01*
X141177788Y-101205193D01*
X141162016Y-101232514D01*
X141153851Y-101262984D01*
X141150741Y-101272144D01*
X141138670Y-101301289D01*
X141134553Y-101332559D01*
X141132665Y-101342050D01*
X141124500Y-101372524D01*
X141124500Y-101404069D01*
X141123867Y-101413728D01*
X141119750Y-101444999D01*
X141123867Y-101476270D01*
X141124500Y-101485929D01*
X141124500Y-102464730D01*
X141116981Y-102497230D01*
X141085134Y-102562373D01*
X141085134Y-102562374D01*
X141074500Y-102635359D01*
X140724992Y-102635359D01*
X140714379Y-102562517D01*
X140659412Y-102450082D01*
X140570917Y-102361587D01*
X140458482Y-102306620D01*
X140385592Y-102296000D01*
X140200000Y-102296000D01*
X140200000Y-102846000D01*
X140050000Y-102846000D01*
X140050000Y-102296000D01*
X139864407Y-102296000D01*
X139791517Y-102306620D01*
X139679082Y-102361587D01*
X139590587Y-102450082D01*
X139535620Y-102562517D01*
X139525000Y-102635407D01*
X138840864Y-102635407D01*
X138859515Y-102607495D01*
X138880897Y-102500000D01*
X138859515Y-102392505D01*
X138859514Y-102392503D01*
X138856726Y-102385771D01*
X138859061Y-102384803D01*
X138850500Y-102356565D01*
X138850500Y-101043434D01*
X138859072Y-101015201D01*
X138856726Y-101014229D01*
X138859514Y-101007497D01*
X138859514Y-101007496D01*
X138859515Y-101007495D01*
X138880897Y-100900000D01*
X138859515Y-100792505D01*
X138825175Y-100741112D01*
X138814126Y-100685563D01*
X138825175Y-100658888D01*
X138832398Y-100648078D01*
X138859515Y-100607495D01*
X138880897Y-100500000D01*
X138859515Y-100392505D01*
X138859514Y-100392503D01*
X138856726Y-100385771D01*
X138859061Y-100384803D01*
X138850500Y-100356565D01*
X138850500Y-99740962D01*
X138851922Y-99726525D01*
X138855500Y-99708537D01*
X138855500Y-99211655D01*
X138855486Y-99211513D01*
X138855133Y-99204296D01*
X138855133Y-99200001D01*
X138836697Y-99071776D01*
X138836697Y-99071774D01*
X138782882Y-98953937D01*
X138698049Y-98856033D01*
X138610860Y-98800000D01*
X138589068Y-98785995D01*
X138464772Y-98749500D01*
X138335228Y-98749500D01*
X138210931Y-98785995D01*
X138101954Y-98856031D01*
X138101950Y-98856034D01*
X138017119Y-98953935D01*
X137963302Y-99071776D01*
X137944867Y-99200000D01*
X137963302Y-99328223D01*
X137963302Y-99328224D01*
X137963303Y-99328226D01*
X138017118Y-99446063D01*
X138101951Y-99543967D01*
X138113613Y-99551461D01*
X138118601Y-99554967D01*
X138184347Y-99605370D01*
X138195797Y-99613287D01*
X138196908Y-99614055D01*
X138198866Y-99615271D01*
X138212253Y-99622698D01*
X138292814Y-99662335D01*
X138294831Y-99663367D01*
X138304177Y-99668342D01*
X138340179Y-99712061D01*
X138342314Y-99721019D01*
X138344131Y-99731502D01*
X138344159Y-99731656D01*
X138345108Y-99737123D01*
X138345621Y-99738646D01*
X138349500Y-99762287D01*
X138349500Y-100159180D01*
X138327826Y-100211506D01*
X138275500Y-100233180D01*
X138261064Y-100231758D01*
X138200001Y-100219612D01*
X138200000Y-100219612D01*
X138092701Y-100240954D01*
X138065317Y-100259251D01*
X138253740Y-100447674D01*
X138275414Y-100500000D01*
X138253740Y-100552326D01*
X138252326Y-100553740D01*
X138200000Y-100575414D01*
X138147674Y-100553740D01*
X137959251Y-100365317D01*
X137940954Y-100392701D01*
X137919612Y-100500000D01*
X137931758Y-100561064D01*
X137920709Y-100616612D01*
X137873616Y-100648078D01*
X137859180Y-100649500D01*
X136941329Y-100649500D01*
X136889003Y-100627826D01*
X136867329Y-100575500D01*
X136868751Y-100561064D01*
X136880897Y-100500000D01*
X136871150Y-100451000D01*
X136859515Y-100392505D01*
X136859514Y-100392503D01*
X136856726Y-100385771D01*
X136859061Y-100384803D01*
X136850500Y-100356565D01*
X136850500Y-99740962D01*
X136851922Y-99726525D01*
X136855500Y-99708537D01*
X136855500Y-99211655D01*
X136855486Y-99211513D01*
X136855133Y-99204296D01*
X136855133Y-99200001D01*
X136836697Y-99071776D01*
X136836697Y-99071774D01*
X136782882Y-98953937D01*
X136698049Y-98856033D01*
X136610860Y-98800000D01*
X136589068Y-98785995D01*
X136464772Y-98749500D01*
X136335228Y-98749500D01*
X136210931Y-98785995D01*
X136101954Y-98856031D01*
X136101950Y-98856034D01*
X136017119Y-98953935D01*
X135963302Y-99071776D01*
X135944867Y-99200000D01*
X135963302Y-99328223D01*
X135963302Y-99328224D01*
X135963303Y-99328226D01*
X136017118Y-99446063D01*
X136101951Y-99543967D01*
X136113613Y-99551461D01*
X136118601Y-99554967D01*
X136184347Y-99605370D01*
X136195797Y-99613287D01*
X136196908Y-99614055D01*
X136198866Y-99615271D01*
X136212253Y-99622698D01*
X136292814Y-99662335D01*
X136294831Y-99663367D01*
X136304177Y-99668342D01*
X136340179Y-99712061D01*
X136342314Y-99721019D01*
X136344131Y-99731502D01*
X136344159Y-99731656D01*
X136345108Y-99737123D01*
X136345621Y-99738646D01*
X136349500Y-99762287D01*
X136349500Y-100159180D01*
X136327826Y-100211506D01*
X136275500Y-100233180D01*
X136261064Y-100231758D01*
X136200001Y-100219612D01*
X136200000Y-100219612D01*
X136092701Y-100240954D01*
X136065317Y-100259251D01*
X136253740Y-100447674D01*
X136275414Y-100500000D01*
X136253740Y-100552326D01*
X136252326Y-100553740D01*
X136200000Y-100575414D01*
X136147674Y-100553740D01*
X135959251Y-100365317D01*
X135940954Y-100392701D01*
X135919612Y-100500000D01*
X135931758Y-100561064D01*
X135920709Y-100616612D01*
X135873616Y-100648078D01*
X135859180Y-100649500D01*
X134941329Y-100649500D01*
X134889003Y-100627826D01*
X134867329Y-100575500D01*
X134868751Y-100561064D01*
X134880897Y-100500000D01*
X134871150Y-100451000D01*
X134859515Y-100392505D01*
X134859514Y-100392503D01*
X134856726Y-100385771D01*
X134859061Y-100384803D01*
X134850500Y-100356565D01*
X134850500Y-99740962D01*
X134851922Y-99726525D01*
X134855500Y-99708537D01*
X134855500Y-99211655D01*
X134855486Y-99211513D01*
X134855133Y-99204296D01*
X134855133Y-99200001D01*
X134836697Y-99071776D01*
X134836697Y-99071774D01*
X134782882Y-98953937D01*
X134698049Y-98856033D01*
X134610860Y-98800000D01*
X134589068Y-98785995D01*
X134464772Y-98749500D01*
X134335228Y-98749500D01*
X134210931Y-98785995D01*
X134101954Y-98856031D01*
X134101950Y-98856034D01*
X134017119Y-98953935D01*
X133963302Y-99071776D01*
X133944867Y-99200000D01*
X133963302Y-99328223D01*
X133963302Y-99328224D01*
X133963303Y-99328226D01*
X134017118Y-99446063D01*
X134101951Y-99543967D01*
X134113613Y-99551461D01*
X134118601Y-99554967D01*
X134184347Y-99605370D01*
X134195797Y-99613287D01*
X134196908Y-99614055D01*
X134198866Y-99615271D01*
X134212253Y-99622698D01*
X134292814Y-99662335D01*
X134294831Y-99663367D01*
X134304177Y-99668342D01*
X134340179Y-99712061D01*
X134342314Y-99721019D01*
X134344131Y-99731502D01*
X134344159Y-99731656D01*
X134345108Y-99737123D01*
X134345621Y-99738646D01*
X134349500Y-99762287D01*
X134349500Y-100159180D01*
X134327826Y-100211506D01*
X134275500Y-100233180D01*
X134261064Y-100231758D01*
X134200001Y-100219612D01*
X134200000Y-100219612D01*
X134092701Y-100240954D01*
X134065317Y-100259251D01*
X134253740Y-100447674D01*
X134275414Y-100500000D01*
X134253740Y-100552326D01*
X134252326Y-100553740D01*
X134200000Y-100575414D01*
X134147674Y-100553740D01*
X133959251Y-100365317D01*
X133940954Y-100392701D01*
X133919612Y-100500000D01*
X133931758Y-100561064D01*
X133920709Y-100616612D01*
X133873616Y-100648078D01*
X133859180Y-100649500D01*
X132941329Y-100649500D01*
X132889003Y-100627826D01*
X132867329Y-100575500D01*
X132868751Y-100561064D01*
X132880897Y-100500000D01*
X132871150Y-100451000D01*
X132859515Y-100392505D01*
X132859514Y-100392503D01*
X132856726Y-100385771D01*
X132859061Y-100384803D01*
X132850500Y-100356565D01*
X132850500Y-99740962D01*
X132851922Y-99726525D01*
X132855500Y-99708537D01*
X132855500Y-99211655D01*
X132855486Y-99211513D01*
X132855133Y-99204296D01*
X132855133Y-99200001D01*
X132836697Y-99071776D01*
X132836697Y-99071774D01*
X132782882Y-98953937D01*
X132698049Y-98856033D01*
X132610860Y-98800000D01*
X132589068Y-98785995D01*
X132464772Y-98749500D01*
X132335228Y-98749500D01*
X132210931Y-98785995D01*
X132101954Y-98856031D01*
X132101950Y-98856034D01*
X132017119Y-98953935D01*
X131963302Y-99071776D01*
X131944867Y-99200000D01*
X131963302Y-99328223D01*
X131963302Y-99328224D01*
X131963303Y-99328226D01*
X132017118Y-99446063D01*
X132101951Y-99543967D01*
X132113613Y-99551461D01*
X132118601Y-99554967D01*
X132184347Y-99605370D01*
X132195797Y-99613287D01*
X132196908Y-99614055D01*
X132198866Y-99615271D01*
X132212253Y-99622698D01*
X132292814Y-99662335D01*
X132294831Y-99663367D01*
X132304177Y-99668342D01*
X132340179Y-99712061D01*
X132342314Y-99721019D01*
X132344131Y-99731502D01*
X132344159Y-99731656D01*
X132345108Y-99737123D01*
X132345621Y-99738646D01*
X132349500Y-99762287D01*
X132349500Y-100159180D01*
X132327826Y-100211506D01*
X132275500Y-100233180D01*
X132261064Y-100231758D01*
X132200001Y-100219612D01*
X132200000Y-100219612D01*
X132092701Y-100240954D01*
X132065317Y-100259251D01*
X132253740Y-100447674D01*
X132275414Y-100500000D01*
X132253740Y-100552326D01*
X132252326Y-100553740D01*
X132200000Y-100575414D01*
X132147674Y-100553740D01*
X131959251Y-100365317D01*
X131940954Y-100392701D01*
X131919612Y-100500000D01*
X131931758Y-100561064D01*
X131920709Y-100616612D01*
X131873616Y-100648078D01*
X131859180Y-100649500D01*
X127231172Y-100649500D01*
X127139105Y-100687634D01*
X126922913Y-100903826D01*
X126870587Y-100925500D01*
X126229500Y-100925500D01*
X126177174Y-100903826D01*
X126155500Y-100851500D01*
X126155500Y-99586180D01*
X126146767Y-99542278D01*
X126113504Y-99492496D01*
X126063722Y-99459233D01*
X126019820Y-99450500D01*
X124990180Y-99450500D01*
X124968229Y-99454866D01*
X124946277Y-99459233D01*
X124896496Y-99492495D01*
X124896495Y-99492496D01*
X124863233Y-99542277D01*
X124854500Y-99586180D01*
X123615500Y-99586180D01*
X123606767Y-99542278D01*
X123573504Y-99492496D01*
X123523722Y-99459233D01*
X123479820Y-99450500D01*
X122450180Y-99450500D01*
X122428229Y-99454866D01*
X122406277Y-99459233D01*
X122356496Y-99492495D01*
X122356495Y-99492496D01*
X122323233Y-99542277D01*
X122314500Y-99586180D01*
X122314500Y-102765819D01*
X122323233Y-102809722D01*
X122348591Y-102847674D01*
X122356496Y-102859504D01*
X122406278Y-102892767D01*
X122450180Y-102901500D01*
X122640500Y-102901500D01*
X122692826Y-102923174D01*
X122714500Y-102975500D01*
X122714500Y-103056587D01*
X122692826Y-103108913D01*
X121550536Y-104251203D01*
X121512402Y-104343268D01*
X121512402Y-104777438D01*
X121508564Y-104800961D01*
X121507350Y-104804580D01*
X121489796Y-104941930D01*
X121482205Y-104966382D01*
X121437385Y-105053564D01*
X121437359Y-105053616D01*
X121353293Y-105216819D01*
X121350621Y-105222268D01*
X121350219Y-105223129D01*
X121350216Y-105223139D01*
X121347474Y-105235414D01*
X121342569Y-105250017D01*
X121326205Y-105285851D01*
X121326204Y-105285853D01*
X121307769Y-105414078D01*
X121326204Y-105542301D01*
X121326204Y-105542302D01*
X121326205Y-105542304D01*
X121380020Y-105660141D01*
X121380021Y-105660142D01*
X121417471Y-105703362D01*
X121435356Y-105757101D01*
X121410005Y-105807748D01*
X121401559Y-105814071D01*
X121396955Y-105817030D01*
X121396950Y-105817034D01*
X121312119Y-105914935D01*
X121258302Y-106032776D01*
X121239867Y-106161000D01*
X118515500Y-106161000D01*
X118515500Y-104636226D01*
X119775000Y-104636226D01*
X119775000Y-106151000D01*
X120350000Y-106151000D01*
X120500000Y-106151000D01*
X121074999Y-106151000D01*
X121074999Y-104636221D01*
X121066298Y-104592475D01*
X121033144Y-104542856D01*
X121033143Y-104542855D01*
X120983527Y-104509703D01*
X120939773Y-104501000D01*
X120500000Y-104501000D01*
X120500000Y-106151000D01*
X120350000Y-106151000D01*
X120350000Y-104501000D01*
X119910229Y-104501000D01*
X119866473Y-104509703D01*
X119816856Y-104542855D01*
X119816855Y-104542856D01*
X119783703Y-104592472D01*
X119775000Y-104636226D01*
X118515500Y-104636226D01*
X118515500Y-103790000D01*
X120414867Y-103790000D01*
X120433302Y-103918223D01*
X120433302Y-103918224D01*
X120433303Y-103918226D01*
X120487118Y-104036063D01*
X120571951Y-104133967D01*
X120680931Y-104204004D01*
X120805228Y-104240500D01*
X120934772Y-104240500D01*
X121059069Y-104204004D01*
X121168049Y-104133967D01*
X121252882Y-104036063D01*
X121306697Y-103918226D01*
X121325133Y-103790000D01*
X121306697Y-103661774D01*
X121252882Y-103543937D01*
X121168049Y-103446033D01*
X121083843Y-103391917D01*
X121059068Y-103375995D01*
X120934772Y-103339500D01*
X120805228Y-103339500D01*
X120680931Y-103375995D01*
X120571954Y-103446031D01*
X120571950Y-103446034D01*
X120487119Y-103543935D01*
X120433302Y-103661776D01*
X120414867Y-103790000D01*
X118515500Y-103790000D01*
X118515500Y-99586180D01*
X119774500Y-99586180D01*
X119774500Y-102765819D01*
X119783233Y-102809722D01*
X119808591Y-102847674D01*
X119816496Y-102859504D01*
X119866278Y-102892767D01*
X119910180Y-102901500D01*
X119910181Y-102901500D01*
X120939819Y-102901500D01*
X120939820Y-102901500D01*
X120983722Y-102892767D01*
X121033504Y-102859504D01*
X121066767Y-102809722D01*
X121075500Y-102765820D01*
X121075500Y-99586180D01*
X121066767Y-99542278D01*
X121033504Y-99492496D01*
X121008388Y-99475714D01*
X120976922Y-99428622D01*
X120975500Y-99414185D01*
X120975500Y-98800000D01*
X121269750Y-98800000D01*
X121288669Y-98943708D01*
X121341715Y-99071774D01*
X121344139Y-99077625D01*
X121432379Y-99192621D01*
X121547375Y-99280861D01*
X121681291Y-99336330D01*
X121825000Y-99355250D01*
X121968709Y-99336330D01*
X122102625Y-99280861D01*
X122217621Y-99192621D01*
X122305861Y-99077625D01*
X122361330Y-98943709D01*
X122380250Y-98800000D01*
X122361330Y-98656291D01*
X122305861Y-98522375D01*
X122217621Y-98407379D01*
X122102625Y-98319139D01*
X122066496Y-98304174D01*
X121968708Y-98263669D01*
X121825000Y-98244750D01*
X121681291Y-98263669D01*
X121547376Y-98319138D01*
X121432379Y-98407379D01*
X121344138Y-98522376D01*
X121288669Y-98656291D01*
X121269750Y-98800000D01*
X120975500Y-98800000D01*
X120975500Y-98756929D01*
X120976133Y-98747270D01*
X120980250Y-98716000D01*
X120976133Y-98684728D01*
X120975500Y-98675069D01*
X120975500Y-98643525D01*
X120975500Y-98643524D01*
X120967330Y-98613038D01*
X120965446Y-98603559D01*
X120961330Y-98572291D01*
X120949254Y-98543139D01*
X120946150Y-98533994D01*
X120937984Y-98503515D01*
X120922212Y-98476197D01*
X120917934Y-98467524D01*
X120905861Y-98438375D01*
X120886660Y-98413351D01*
X120881283Y-98405305D01*
X120876327Y-98396721D01*
X120865509Y-98377985D01*
X120843202Y-98355678D01*
X120836820Y-98348400D01*
X120817624Y-98323382D01*
X120817622Y-98323381D01*
X120817621Y-98323379D01*
X120792593Y-98304174D01*
X120785317Y-98297793D01*
X120763015Y-98275491D01*
X120742541Y-98263670D01*
X120735699Y-98259719D01*
X120727661Y-98254349D01*
X120702625Y-98235139D01*
X120702624Y-98235138D01*
X120702622Y-98235137D01*
X120673479Y-98223065D01*
X120664801Y-98218786D01*
X120647484Y-98208789D01*
X120637485Y-98203016D01*
X120607001Y-98194847D01*
X120597849Y-98191740D01*
X120568708Y-98179669D01*
X120537442Y-98175553D01*
X120527951Y-98173665D01*
X120497476Y-98165500D01*
X120497475Y-98165500D01*
X120465930Y-98165500D01*
X120456271Y-98164867D01*
X120425000Y-98160750D01*
X120393729Y-98164867D01*
X120384070Y-98165500D01*
X120352525Y-98165500D01*
X120322050Y-98173665D01*
X120312559Y-98175553D01*
X120281289Y-98179670D01*
X120252144Y-98191741D01*
X120242984Y-98194851D01*
X120212514Y-98203016D01*
X120185193Y-98218788D01*
X120176518Y-98223066D01*
X120147372Y-98235139D01*
X120122345Y-98254342D01*
X120114304Y-98259716D01*
X120086984Y-98275491D01*
X120064679Y-98297795D01*
X120057406Y-98304173D01*
X120032380Y-98323377D01*
X120032377Y-98323380D01*
X120013173Y-98348406D01*
X120006795Y-98355679D01*
X119984491Y-98377984D01*
X119968716Y-98405304D01*
X119963342Y-98413345D01*
X119944139Y-98438372D01*
X119932066Y-98467518D01*
X119927788Y-98476193D01*
X119912016Y-98503514D01*
X119903851Y-98533984D01*
X119900741Y-98543144D01*
X119888670Y-98572289D01*
X119884553Y-98603559D01*
X119882665Y-98613050D01*
X119874500Y-98643524D01*
X119874500Y-98675069D01*
X119873867Y-98684728D01*
X119869750Y-98715999D01*
X119873867Y-98747270D01*
X119874500Y-98756929D01*
X119874500Y-99414185D01*
X119852826Y-99466511D01*
X119841612Y-99475714D01*
X119816496Y-99492495D01*
X119816495Y-99492496D01*
X119783233Y-99542277D01*
X119774500Y-99586180D01*
X118515500Y-99586180D01*
X118515500Y-97906592D01*
X133840000Y-97906592D01*
X133850620Y-97979482D01*
X133905587Y-98091917D01*
X133994082Y-98180412D01*
X134106517Y-98235379D01*
X134179407Y-98245999D01*
X134179418Y-98246000D01*
X134390000Y-98246000D01*
X134540000Y-98246000D01*
X134750582Y-98246000D01*
X134750592Y-98245999D01*
X134823482Y-98235379D01*
X134935917Y-98180412D01*
X135024412Y-98091917D01*
X135079379Y-97979482D01*
X135089999Y-97906592D01*
X135440000Y-97906592D01*
X135450620Y-97979482D01*
X135505587Y-98091917D01*
X135594082Y-98180412D01*
X135706517Y-98235379D01*
X135779407Y-98245999D01*
X135779418Y-98246000D01*
X135990000Y-98246000D01*
X136140000Y-98246000D01*
X136350582Y-98246000D01*
X136350592Y-98245999D01*
X136423482Y-98235379D01*
X136535917Y-98180412D01*
X136624412Y-98091917D01*
X136679379Y-97979482D01*
X136689999Y-97906592D01*
X136690000Y-97906581D01*
X136690000Y-97721000D01*
X136140000Y-97721000D01*
X136140000Y-98246000D01*
X135990000Y-98246000D01*
X135990000Y-97721000D01*
X135440000Y-97721000D01*
X135440000Y-97906592D01*
X135089999Y-97906592D01*
X135090000Y-97906581D01*
X135090000Y-97721000D01*
X134540000Y-97721000D01*
X134540000Y-98246000D01*
X134390000Y-98246000D01*
X134390000Y-97721000D01*
X133840000Y-97721000D01*
X133840000Y-97906592D01*
X118515500Y-97906592D01*
X118515500Y-97385407D01*
X133840000Y-97385407D01*
X133840000Y-97571000D01*
X134390000Y-97571000D01*
X134540000Y-97571000D01*
X135090000Y-97571000D01*
X135090000Y-97385418D01*
X135089999Y-97385407D01*
X135440000Y-97385407D01*
X135440000Y-97571000D01*
X135990000Y-97571000D01*
X136140000Y-97571000D01*
X136690000Y-97571000D01*
X136690000Y-97385418D01*
X136689999Y-97385407D01*
X136679379Y-97312517D01*
X136624412Y-97200082D01*
X136535917Y-97111587D01*
X136423482Y-97056620D01*
X136350592Y-97046000D01*
X136140000Y-97046000D01*
X136140000Y-97571000D01*
X135990000Y-97571000D01*
X135990000Y-97046000D01*
X135779407Y-97046000D01*
X135706517Y-97056620D01*
X135594082Y-97111587D01*
X135505587Y-97200082D01*
X135450620Y-97312517D01*
X135440000Y-97385407D01*
X135089999Y-97385407D01*
X135079379Y-97312517D01*
X135024412Y-97200082D01*
X134935917Y-97111587D01*
X134823482Y-97056620D01*
X134750592Y-97046000D01*
X134540000Y-97046000D01*
X134540000Y-97571000D01*
X134390000Y-97571000D01*
X134390000Y-97046000D01*
X134179407Y-97046000D01*
X134106517Y-97056620D01*
X133994082Y-97111587D01*
X133905587Y-97200082D01*
X133850620Y-97312517D01*
X133840000Y-97385407D01*
X118515500Y-97385407D01*
X118515500Y-96203236D01*
X118515635Y-96198768D01*
X118517912Y-96161118D01*
X118531996Y-95928283D01*
X118533070Y-95919435D01*
X118581516Y-95655075D01*
X118583646Y-95646432D01*
X118663600Y-95389852D01*
X118666757Y-95381525D01*
X118777062Y-95136438D01*
X118781206Y-95128544D01*
X118920233Y-94898565D01*
X118925309Y-94891212D01*
X119091046Y-94679663D01*
X119096957Y-94672991D01*
X119286991Y-94482957D01*
X119293663Y-94477046D01*
X119505212Y-94311308D01*
X119512566Y-94306233D01*
X119554308Y-94280999D01*
X119742544Y-94167206D01*
X119750438Y-94163062D01*
X119995525Y-94052757D01*
X120003852Y-94049600D01*
X120260432Y-93969646D01*
X120269075Y-93967516D01*
X120533435Y-93919070D01*
X120542283Y-93917996D01*
X120812768Y-93901634D01*
X120817236Y-93901500D01*
X120854882Y-93901500D01*
X134159712Y-93901500D01*
X134212038Y-93923174D01*
G37*
%TD.AperFunction*%
%TD*%
%TA.AperFunction,Conductor*%
%TO.N,RX_1*%
G36*
X121860875Y-104817505D02*
G01*
X121864207Y-104824294D01*
X121886870Y-105001629D01*
X121886870Y-105001630D01*
X121886871Y-105001632D01*
X121950206Y-105124823D01*
X122034261Y-105288005D01*
X122035003Y-105296929D01*
X122029218Y-105303764D01*
X122028371Y-105304159D01*
X121767413Y-105413193D01*
X121758458Y-105413220D01*
X121758391Y-105413193D01*
X121497432Y-105304159D01*
X121491120Y-105297807D01*
X121491147Y-105288852D01*
X121491542Y-105288005D01*
X121575597Y-105124823D01*
X121638931Y-105001632D01*
X121638933Y-105001629D01*
X121661596Y-104824294D01*
X121666044Y-104816523D01*
X121673202Y-104814078D01*
X121852602Y-104814078D01*
X121860875Y-104817505D01*
G37*
%TD.AperFunction*%
%TD*%
%TA.AperFunction,Conductor*%
%TO.N,TX_1*%
G36*
X124500469Y-101509918D02*
G01*
X124506781Y-101516270D01*
X124506754Y-101525225D01*
X124506359Y-101526072D01*
X124422304Y-101689254D01*
X124358969Y-101812443D01*
X124336306Y-101989783D01*
X124331858Y-101997555D01*
X124324700Y-102000000D01*
X124145300Y-102000000D01*
X124137027Y-101996573D01*
X124133694Y-101989783D01*
X124111031Y-101812447D01*
X124047693Y-101689250D01*
X123963640Y-101526072D01*
X123962898Y-101517148D01*
X123968683Y-101510313D01*
X123969509Y-101509927D01*
X124230490Y-101400883D01*
X124239444Y-101400857D01*
X124500469Y-101509918D01*
G37*
%TD.AperFunction*%
%TD*%
%TA.AperFunction,Conductor*%
%TO.N,GND*%
G36*
X134298427Y-107683189D02*
G01*
X134301682Y-107689463D01*
X134317575Y-107781125D01*
X134317575Y-107781126D01*
X134365212Y-107838290D01*
X134365215Y-107838292D01*
X134435272Y-107875583D01*
X134485595Y-107900342D01*
X134519090Y-107916822D01*
X134521042Y-107918034D01*
X134601564Y-107979766D01*
X134606044Y-107987519D01*
X134603730Y-107996170D01*
X134602738Y-107997305D01*
X134403446Y-108197537D01*
X134395181Y-108200983D01*
X134395114Y-108200983D01*
X134111661Y-108200038D01*
X134103399Y-108196584D01*
X134100000Y-108188338D01*
X134100000Y-107691462D01*
X134103427Y-107683189D01*
X134111700Y-107679762D01*
X134290154Y-107679762D01*
X134298427Y-107683189D01*
G37*
%TD.AperFunction*%
%TD*%
%TA.AperFunction,Conductor*%
%TO.N,GND*%
G36*
X134688339Y-99199961D02*
G01*
X134696601Y-99203415D01*
X134700000Y-99211661D01*
X134700000Y-99708538D01*
X134696573Y-99716811D01*
X134688300Y-99720238D01*
X134509846Y-99720238D01*
X134501573Y-99716811D01*
X134498318Y-99710537D01*
X134497268Y-99704486D01*
X134482424Y-99618872D01*
X134434787Y-99561708D01*
X134434786Y-99561707D01*
X134434783Y-99561705D01*
X134364726Y-99524415D01*
X134280908Y-99483175D01*
X134278955Y-99481962D01*
X134198435Y-99420233D01*
X134193954Y-99412480D01*
X134196268Y-99403830D01*
X134197247Y-99402708D01*
X134396555Y-99202461D01*
X134404818Y-99199016D01*
X134688339Y-99199961D01*
G37*
%TD.AperFunction*%
%TD*%
%TA.AperFunction,Conductor*%
%TO.N,GND*%
G36*
X136688339Y-103699961D02*
G01*
X136696601Y-103703415D01*
X136700000Y-103711661D01*
X136700000Y-104208538D01*
X136696573Y-104216811D01*
X136688300Y-104220238D01*
X136509846Y-104220238D01*
X136501573Y-104216811D01*
X136498318Y-104210537D01*
X136497268Y-104204486D01*
X136482424Y-104118872D01*
X136434787Y-104061708D01*
X136434786Y-104061707D01*
X136434783Y-104061705D01*
X136364726Y-104024415D01*
X136280908Y-103983175D01*
X136278955Y-103981962D01*
X136198435Y-103920233D01*
X136193954Y-103912480D01*
X136196268Y-103903830D01*
X136197247Y-103902708D01*
X136396555Y-103702461D01*
X136404818Y-103699016D01*
X136688339Y-103699961D01*
G37*
%TD.AperFunction*%
%TD*%
%TA.AperFunction,Conductor*%
%TO.N,GND*%
G36*
X136688339Y-99199961D02*
G01*
X136696601Y-99203415D01*
X136700000Y-99211661D01*
X136700000Y-99708538D01*
X136696573Y-99716811D01*
X136688300Y-99720238D01*
X136509846Y-99720238D01*
X136501573Y-99716811D01*
X136498318Y-99710537D01*
X136497268Y-99704486D01*
X136482424Y-99618872D01*
X136434787Y-99561708D01*
X136434786Y-99561707D01*
X136434783Y-99561705D01*
X136364726Y-99524415D01*
X136280908Y-99483175D01*
X136278955Y-99481962D01*
X136198435Y-99420233D01*
X136193954Y-99412480D01*
X136196268Y-99403830D01*
X136197247Y-99402708D01*
X136396555Y-99202461D01*
X136404818Y-99199016D01*
X136688339Y-99199961D01*
G37*
%TD.AperFunction*%
%TD*%
%TA.AperFunction,Conductor*%
%TO.N,GND*%
G36*
X132688339Y-103699961D02*
G01*
X132696601Y-103703415D01*
X132700000Y-103711661D01*
X132700000Y-104208538D01*
X132696573Y-104216811D01*
X132688300Y-104220238D01*
X132509846Y-104220238D01*
X132501573Y-104216811D01*
X132498318Y-104210537D01*
X132497268Y-104204486D01*
X132482424Y-104118872D01*
X132434787Y-104061708D01*
X132434786Y-104061707D01*
X132434783Y-104061705D01*
X132364726Y-104024415D01*
X132280908Y-103983175D01*
X132278955Y-103981962D01*
X132198435Y-103920233D01*
X132193954Y-103912480D01*
X132196268Y-103903830D01*
X132197247Y-103902708D01*
X132396555Y-103702461D01*
X132404818Y-103699016D01*
X132688339Y-103699961D01*
G37*
%TD.AperFunction*%
%TD*%
%TA.AperFunction,Conductor*%
%TO.N,GND*%
G36*
X134688339Y-103699961D02*
G01*
X134696601Y-103703415D01*
X134700000Y-103711661D01*
X134700000Y-104208538D01*
X134696573Y-104216811D01*
X134688300Y-104220238D01*
X134509846Y-104220238D01*
X134501573Y-104216811D01*
X134498318Y-104210537D01*
X134497268Y-104204486D01*
X134482424Y-104118872D01*
X134434787Y-104061708D01*
X134434786Y-104061707D01*
X134434783Y-104061705D01*
X134364726Y-104024415D01*
X134280908Y-103983175D01*
X134278955Y-103981962D01*
X134198435Y-103920233D01*
X134193954Y-103912480D01*
X134196268Y-103903830D01*
X134197247Y-103902708D01*
X134396555Y-103702461D01*
X134404818Y-103699016D01*
X134688339Y-103699961D01*
G37*
%TD.AperFunction*%
%TD*%
%TA.AperFunction,Conductor*%
%TO.N,GND*%
G36*
X136298427Y-107683189D02*
G01*
X136301682Y-107689463D01*
X136317575Y-107781125D01*
X136317575Y-107781126D01*
X136365212Y-107838290D01*
X136365215Y-107838292D01*
X136435272Y-107875583D01*
X136485595Y-107900342D01*
X136519090Y-107916822D01*
X136521042Y-107918034D01*
X136601564Y-107979766D01*
X136606044Y-107987519D01*
X136603730Y-107996170D01*
X136602738Y-107997305D01*
X136403446Y-108197537D01*
X136395181Y-108200983D01*
X136395114Y-108200983D01*
X136111661Y-108200038D01*
X136103399Y-108196584D01*
X136100000Y-108188338D01*
X136100000Y-107691462D01*
X136103427Y-107683189D01*
X136111700Y-107679762D01*
X136290154Y-107679762D01*
X136298427Y-107683189D01*
G37*
%TD.AperFunction*%
%TD*%
%TA.AperFunction,Conductor*%
%TO.N,GND*%
G36*
X134298427Y-103183189D02*
G01*
X134301682Y-103189463D01*
X134317575Y-103281125D01*
X134317575Y-103281126D01*
X134365212Y-103338290D01*
X134365215Y-103338292D01*
X134435272Y-103375583D01*
X134485595Y-103400342D01*
X134519090Y-103416822D01*
X134521042Y-103418034D01*
X134601564Y-103479766D01*
X134606044Y-103487519D01*
X134603730Y-103496170D01*
X134602738Y-103497305D01*
X134403446Y-103697537D01*
X134395181Y-103700983D01*
X134395114Y-103700983D01*
X134111661Y-103700038D01*
X134103399Y-103696584D01*
X134100000Y-103688338D01*
X134100000Y-103191462D01*
X134103427Y-103183189D01*
X134111700Y-103179762D01*
X134290154Y-103179762D01*
X134298427Y-103183189D01*
G37*
%TD.AperFunction*%
%TD*%
%TA.AperFunction,Conductor*%
%TO.N,GND*%
G36*
X138688339Y-103699961D02*
G01*
X138696601Y-103703415D01*
X138700000Y-103711661D01*
X138700000Y-104208538D01*
X138696573Y-104216811D01*
X138688300Y-104220238D01*
X138509846Y-104220238D01*
X138501573Y-104216811D01*
X138498318Y-104210537D01*
X138497268Y-104204486D01*
X138482424Y-104118872D01*
X138434787Y-104061708D01*
X138434786Y-104061707D01*
X138434783Y-104061705D01*
X138364726Y-104024415D01*
X138280908Y-103983175D01*
X138278955Y-103981962D01*
X138198435Y-103920233D01*
X138193954Y-103912480D01*
X138196268Y-103903830D01*
X138197247Y-103902708D01*
X138396555Y-103702461D01*
X138404818Y-103699016D01*
X138688339Y-103699961D01*
G37*
%TD.AperFunction*%
%TD*%
%TA.AperFunction,Conductor*%
%TO.N,GND*%
G36*
X132298427Y-103183189D02*
G01*
X132301682Y-103189463D01*
X132317575Y-103281125D01*
X132317575Y-103281126D01*
X132365212Y-103338290D01*
X132365215Y-103338292D01*
X132435272Y-103375583D01*
X132485595Y-103400342D01*
X132519090Y-103416822D01*
X132521042Y-103418034D01*
X132601564Y-103479766D01*
X132606044Y-103487519D01*
X132603730Y-103496170D01*
X132602738Y-103497305D01*
X132403446Y-103697537D01*
X132395181Y-103700983D01*
X132395114Y-103700983D01*
X132111661Y-103700038D01*
X132103399Y-103696584D01*
X132100000Y-103688338D01*
X132100000Y-103191462D01*
X132103427Y-103183189D01*
X132111700Y-103179762D01*
X132290154Y-103179762D01*
X132298427Y-103183189D01*
G37*
%TD.AperFunction*%
%TD*%
%TA.AperFunction,Conductor*%
%TO.N,GND*%
G36*
X132298427Y-107683189D02*
G01*
X132301682Y-107689463D01*
X132317575Y-107781125D01*
X132317575Y-107781126D01*
X132365212Y-107838290D01*
X132365215Y-107838292D01*
X132435272Y-107875583D01*
X132485595Y-107900342D01*
X132519090Y-107916822D01*
X132521042Y-107918034D01*
X132601564Y-107979766D01*
X132606044Y-107987519D01*
X132603730Y-107996170D01*
X132602738Y-107997305D01*
X132403446Y-108197537D01*
X132395181Y-108200983D01*
X132395114Y-108200983D01*
X132111661Y-108200038D01*
X132103399Y-108196584D01*
X132100000Y-108188338D01*
X132100000Y-107691462D01*
X132103427Y-107683189D01*
X132111700Y-107679762D01*
X132290154Y-107679762D01*
X132298427Y-107683189D01*
G37*
%TD.AperFunction*%
%TD*%
%TA.AperFunction,Conductor*%
%TO.N,GND*%
G36*
X136298427Y-103183189D02*
G01*
X136301682Y-103189463D01*
X136317575Y-103281125D01*
X136317575Y-103281126D01*
X136365212Y-103338290D01*
X136365215Y-103338292D01*
X136435272Y-103375583D01*
X136485595Y-103400342D01*
X136519090Y-103416822D01*
X136521042Y-103418034D01*
X136601564Y-103479766D01*
X136606044Y-103487519D01*
X136603730Y-103496170D01*
X136602738Y-103497305D01*
X136403446Y-103697537D01*
X136395181Y-103700983D01*
X136395114Y-103700983D01*
X136111661Y-103700038D01*
X136103399Y-103696584D01*
X136100000Y-103688338D01*
X136100000Y-103191462D01*
X136103427Y-103183189D01*
X136111700Y-103179762D01*
X136290154Y-103179762D01*
X136298427Y-103183189D01*
G37*
%TD.AperFunction*%
%TD*%
%TA.AperFunction,Conductor*%
%TO.N,GND*%
G36*
X138298427Y-103183189D02*
G01*
X138301682Y-103189463D01*
X138317575Y-103281125D01*
X138317575Y-103281126D01*
X138365212Y-103338290D01*
X138365215Y-103338292D01*
X138435272Y-103375583D01*
X138485595Y-103400342D01*
X138519090Y-103416822D01*
X138521042Y-103418034D01*
X138601564Y-103479766D01*
X138606044Y-103487519D01*
X138603730Y-103496170D01*
X138602738Y-103497305D01*
X138403446Y-103697537D01*
X138395181Y-103700983D01*
X138395114Y-103700983D01*
X138111661Y-103700038D01*
X138103399Y-103696584D01*
X138100000Y-103688338D01*
X138100000Y-103191462D01*
X138103427Y-103183189D01*
X138111700Y-103179762D01*
X138290154Y-103179762D01*
X138298427Y-103183189D01*
G37*
%TD.AperFunction*%
%TD*%
%TA.AperFunction,Conductor*%
%TO.N,GND*%
G36*
X132688339Y-99199961D02*
G01*
X132696601Y-99203415D01*
X132700000Y-99211661D01*
X132700000Y-99708538D01*
X132696573Y-99716811D01*
X132688300Y-99720238D01*
X132509846Y-99720238D01*
X132501573Y-99716811D01*
X132498318Y-99710537D01*
X132497268Y-99704486D01*
X132482424Y-99618872D01*
X132434787Y-99561708D01*
X132434786Y-99561707D01*
X132434783Y-99561705D01*
X132364726Y-99524415D01*
X132280908Y-99483175D01*
X132278955Y-99481962D01*
X132198435Y-99420233D01*
X132193954Y-99412480D01*
X132196268Y-99403830D01*
X132197247Y-99402708D01*
X132396555Y-99202461D01*
X132404818Y-99199016D01*
X132688339Y-99199961D01*
G37*
%TD.AperFunction*%
%TD*%
%TA.AperFunction,Conductor*%
%TO.N,GND*%
G36*
X138298427Y-107683189D02*
G01*
X138301682Y-107689463D01*
X138317575Y-107781125D01*
X138317575Y-107781126D01*
X138365212Y-107838290D01*
X138365215Y-107838292D01*
X138435272Y-107875583D01*
X138485595Y-107900342D01*
X138519090Y-107916822D01*
X138521042Y-107918034D01*
X138601564Y-107979766D01*
X138606044Y-107987519D01*
X138603730Y-107996170D01*
X138602738Y-107997305D01*
X138403446Y-108197537D01*
X138395181Y-108200983D01*
X138395114Y-108200983D01*
X138111661Y-108200038D01*
X138103399Y-108196584D01*
X138100000Y-108188338D01*
X138100000Y-107691462D01*
X138103427Y-107683189D01*
X138111700Y-107679762D01*
X138290154Y-107679762D01*
X138298427Y-107683189D01*
G37*
%TD.AperFunction*%
%TD*%
%TA.AperFunction,Conductor*%
%TO.N,GND*%
G36*
X138688339Y-99199961D02*
G01*
X138696601Y-99203415D01*
X138700000Y-99211661D01*
X138700000Y-99708538D01*
X138696573Y-99716811D01*
X138688300Y-99720238D01*
X138509846Y-99720238D01*
X138501573Y-99716811D01*
X138498318Y-99710537D01*
X138497268Y-99704486D01*
X138482424Y-99618872D01*
X138434787Y-99561708D01*
X138434786Y-99561707D01*
X138434783Y-99561705D01*
X138364726Y-99524415D01*
X138280908Y-99483175D01*
X138278955Y-99481962D01*
X138198435Y-99420233D01*
X138193954Y-99412480D01*
X138196268Y-99403830D01*
X138197247Y-99402708D01*
X138396555Y-99202461D01*
X138404818Y-99199016D01*
X138688339Y-99199961D01*
G37*
%TD.AperFunction*%
%TD*%
M02*
