M48
; DRILL file {KiCad 8.0.4} date 2024-08-13T13:30:01+0200
; FORMAT={-:-/ absolute / inch / decimal}
; #@! TF.CreationDate,2024-08-13T13:30:01+02:00
; #@! TF.GenerationSoftware,Kicad,Pcbnew,8.0.4
; #@! TF.FileFunction,Plated,1,4,PTH
FMAT,2
INCH
; #@! TA.AperFunction,Plated,PTH,ViaDrill
T1C0.0118
; #@! TA.AperFunction,Plated,PTH,ViaDrill
T2C0.0197
%
G90
G05
T1
X4.7587Y-4.0862
X4.7911Y-4.1796
X4.7938Y-4.1502
X4.89Y-3.9548
X4.8911Y-3.9921
X5.1738Y-4.0827
X5.2126Y-3.9055
X5.2126Y-4.0827
X5.2126Y-4.2598
X5.252Y-4.0827
X5.2913Y-3.9055
X5.2913Y-4.0827
X5.2913Y-4.2598
X5.3307Y-4.0827
X5.3701Y-3.9055
X5.3701Y-4.0827
X5.3701Y-4.2598
X5.4094Y-4.0827
X5.4488Y-3.9055
X5.4488Y-4.0827
X5.4488Y-4.2598
T2
X4.7411Y-3.8865
X4.7411Y-4.2733
X4.7963Y-3.8898
X4.7963Y-4.2725
X4.995Y-4.1232
X4.9959Y-4.0433
X5.2939Y-3.7215
X5.2939Y-4.4352
X5.3569Y-3.7215
X5.3569Y-4.4358
X5.5778Y-3.9939
X5.5778Y-4.1665
M30
