%TF.GenerationSoftware,KiCad,Pcbnew,8.0.4*%
%TF.CreationDate,2024-08-13T13:30:06+02:00*%
%TF.ProjectId,TMP104_Development board,544d5031-3034-45f4-9465-76656c6f706d,rev?*%
%TF.SameCoordinates,Original*%
%TF.FileFunction,Paste,Top*%
%TF.FilePolarity,Positive*%
%FSLAX46Y46*%
G04 Gerber Fmt 4.6, Leading zero omitted, Abs format (unit mm)*
G04 Created by KiCad (PCBNEW 8.0.4) date 2024-08-13 13:30:06*
%MOMM*%
%LPD*%
G01*
G04 APERTURE LIST*
G04 Aperture macros list*
%AMRoundRect*
0 Rectangle with rounded corners*
0 $1 Rounding radius*
0 $2 $3 $4 $5 $6 $7 $8 $9 X,Y pos of 4 corners*
0 Add a 4 corners polygon primitive as box body*
4,1,4,$2,$3,$4,$5,$6,$7,$8,$9,$2,$3,0*
0 Add four circle primitives for the rounded corners*
1,1,$1+$1,$2,$3*
1,1,$1+$1,$4,$5*
1,1,$1+$1,$6,$7*
1,1,$1+$1,$8,$9*
0 Add four rect primitives between the rounded corners*
20,1,$1+$1,$2,$3,$4,$5,0*
20,1,$1+$1,$4,$5,$6,$7,0*
20,1,$1+$1,$6,$7,$8,$9,0*
20,1,$1+$1,$8,$9,$2,$3,0*%
G04 Aperture macros list end*
%ADD10C,0.250000*%
%ADD11RoundRect,0.225000X0.225000X0.250000X-0.225000X0.250000X-0.225000X-0.250000X0.225000X-0.250000X0*%
%ADD12RoundRect,0.225000X0.250000X-0.225000X0.250000X0.225000X-0.250000X0.225000X-0.250000X-0.225000X0*%
%ADD13RoundRect,0.225000X-0.225000X-0.250000X0.225000X-0.250000X0.225000X0.250000X-0.225000X0.250000X0*%
%ADD14RoundRect,0.225000X-0.250000X0.225000X-0.250000X-0.225000X0.250000X-0.225000X0.250000X0.225000X0*%
%ADD15R,1.000000X3.150000*%
G04 APERTURE END LIST*
D10*
%TO.C,U12*%
X134200000Y-104500000D03*
X134600000Y-104500000D03*
X134200000Y-104900000D03*
X134600000Y-104900000D03*
%TD*%
D11*
%TO.C,C5*%
X129670000Y-104521000D03*
X128120000Y-104521000D03*
%TD*%
D12*
%TO.C,C1*%
X134465000Y-97646000D03*
X134465000Y-96096000D03*
%TD*%
D10*
%TO.C,U11*%
X136200000Y-104500000D03*
X136600000Y-104500000D03*
X136200000Y-104900000D03*
X136600000Y-104900000D03*
%TD*%
%TO.C,U13*%
X132200000Y-104500000D03*
X132600000Y-104500000D03*
X132200000Y-104900000D03*
X132600000Y-104900000D03*
%TD*%
D13*
%TO.C,C8*%
X140125000Y-104521000D03*
X141675000Y-104521000D03*
%TD*%
D10*
%TO.C,U4*%
X136200000Y-100500000D03*
X136600000Y-100500000D03*
X136200000Y-100900000D03*
X136600000Y-100900000D03*
%TD*%
%TO.C,U7*%
X136600000Y-102900000D03*
X136200000Y-102900000D03*
X136600000Y-102500000D03*
X136200000Y-102500000D03*
%TD*%
%TO.C,U3*%
X134200000Y-100500000D03*
X134600000Y-100500000D03*
X134200000Y-100900000D03*
X134600000Y-100900000D03*
%TD*%
%TO.C,U16*%
X136600000Y-106900000D03*
X136200000Y-106900000D03*
X136600000Y-106500000D03*
X136200000Y-106500000D03*
%TD*%
%TO.C,U2*%
X132200000Y-100500000D03*
X132600000Y-100500000D03*
X132200000Y-100900000D03*
X132600000Y-100900000D03*
%TD*%
D14*
%TO.C,C3*%
X136065000Y-109736000D03*
X136065000Y-111286000D03*
%TD*%
D10*
%TO.C,U17*%
X138600000Y-106900000D03*
X138200000Y-106900000D03*
X138600000Y-106500000D03*
X138200000Y-106500000D03*
%TD*%
D13*
%TO.C,C7*%
X140125000Y-102921000D03*
X141675000Y-102921000D03*
%TD*%
D12*
%TO.C,C2*%
X136065000Y-97646000D03*
X136065000Y-96096000D03*
%TD*%
D10*
%TO.C,U6*%
X138600000Y-102900000D03*
X138200000Y-102900000D03*
X138600000Y-102500000D03*
X138200000Y-102500000D03*
%TD*%
D15*
%TO.C,J1*%
X120425000Y-106226000D03*
X120425000Y-101176000D03*
X122965000Y-106226000D03*
X122965000Y-101176000D03*
X125505000Y-106226000D03*
X125505000Y-101176000D03*
%TD*%
D10*
%TO.C,U8*%
X134600000Y-102900000D03*
X134200000Y-102900000D03*
X134600000Y-102500000D03*
X134200000Y-102500000D03*
%TD*%
%TO.C,U10*%
X138200000Y-104500000D03*
X138600000Y-104500000D03*
X138200000Y-104900000D03*
X138600000Y-104900000D03*
%TD*%
D11*
%TO.C,C6*%
X129670000Y-102921000D03*
X128120000Y-102921000D03*
%TD*%
D10*
%TO.C,U14*%
X132600000Y-106900000D03*
X132200000Y-106900000D03*
X132600000Y-106500000D03*
X132200000Y-106500000D03*
%TD*%
%TO.C,U9*%
X132600000Y-102900000D03*
X132200000Y-102900000D03*
X132600000Y-102500000D03*
X132200000Y-102500000D03*
%TD*%
%TO.C,U5*%
X138200000Y-100500000D03*
X138600000Y-100500000D03*
X138200000Y-100900000D03*
X138600000Y-100900000D03*
%TD*%
%TO.C,U15*%
X134600000Y-106900000D03*
X134200000Y-106900000D03*
X134600000Y-106500000D03*
X134200000Y-106500000D03*
%TD*%
D14*
%TO.C,C4*%
X134465000Y-109736000D03*
X134465000Y-111286000D03*
%TD*%
M02*
