%TF.GenerationSoftware,KiCad,Pcbnew,8.0.2*%
%TF.CreationDate,2024-05-21T15:52:10+02:00*%
%TF.ProjectId,HYDRA_VMM3_Adapter,48594452-415f-4564-9d4d-335f41646170,0*%
%TF.SameCoordinates,Original*%
%TF.FileFunction,Paste,Bot*%
%TF.FilePolarity,Positive*%
%FSLAX46Y46*%
G04 Gerber Fmt 4.6, Leading zero omitted, Abs format (unit mm)*
G04 Created by KiCad (PCBNEW 8.0.2) date 2024-05-21 15:52:10*
%MOMM*%
%LPD*%
G01*
G04 APERTURE LIST*
%ADD10R,0.350000X1.200000*%
G04 APERTURE END LIST*
D10*
%TO.C,J1*%
X162240000Y-53310000D03*
X161640000Y-53310000D03*
X161040000Y-53310000D03*
X160440000Y-53310000D03*
X159840000Y-53310000D03*
X159240000Y-53310000D03*
X158640000Y-53310000D03*
X158040000Y-53310000D03*
X157440000Y-53310000D03*
X156840000Y-53310000D03*
X156240000Y-53310000D03*
X155640000Y-53310000D03*
X155040000Y-53310000D03*
X154440000Y-53310000D03*
X153840000Y-53310000D03*
X153240000Y-53310000D03*
X152640000Y-53310000D03*
X152040000Y-53310000D03*
X151440000Y-53310000D03*
X150840000Y-53310000D03*
X150240000Y-53310000D03*
X149640000Y-53310000D03*
X149040000Y-53310000D03*
X148440000Y-53310000D03*
X147840000Y-53310000D03*
X147240000Y-53310000D03*
X146640000Y-53310000D03*
X146040000Y-53310000D03*
X142030000Y-53310000D03*
X141430000Y-53310000D03*
X140830000Y-53310000D03*
X140230000Y-53310000D03*
X139630000Y-53310000D03*
X139030000Y-53310000D03*
X138430000Y-53310000D03*
X137830000Y-53310000D03*
X137230000Y-53310000D03*
X136630000Y-53310000D03*
X136030000Y-53310000D03*
X135430000Y-53310000D03*
X134830000Y-53310000D03*
X134230000Y-53310000D03*
X129320000Y-53310000D03*
X128720000Y-53310000D03*
X128120000Y-53310000D03*
X127520000Y-53310000D03*
X126920000Y-53310000D03*
X126320000Y-53310000D03*
X125720000Y-53310000D03*
X125120000Y-53310000D03*
X124520000Y-53310000D03*
X123920000Y-53310000D03*
X123320000Y-53310000D03*
X122720000Y-53310000D03*
X122120000Y-53310000D03*
X121520000Y-53310000D03*
X120920000Y-53310000D03*
X120320000Y-53310000D03*
X119720000Y-53310000D03*
X119120000Y-53310000D03*
X118520000Y-53310000D03*
X117920000Y-53310000D03*
X117320000Y-53310000D03*
X116720000Y-53310000D03*
X116120000Y-53310000D03*
X115520000Y-53310000D03*
X114920000Y-53310000D03*
X114320000Y-53310000D03*
X113720000Y-53310000D03*
X113120000Y-53310000D03*
X162240000Y-57910000D03*
X161640000Y-57910000D03*
X161040000Y-57910000D03*
X160440000Y-57910000D03*
X159840000Y-57910000D03*
X159240000Y-57910000D03*
X158640000Y-57910000D03*
X158040000Y-57910000D03*
X157440000Y-57910000D03*
X156840000Y-57910000D03*
X156240000Y-57910000D03*
X155640000Y-57910000D03*
X155040000Y-57910000D03*
X154440000Y-57910000D03*
X153840000Y-57910000D03*
X153240000Y-57910000D03*
X152640000Y-57910000D03*
X152040000Y-57910000D03*
X151440000Y-57910000D03*
X150840000Y-57910000D03*
X150240000Y-57910000D03*
X149640000Y-57910000D03*
X149040000Y-57910000D03*
X148440000Y-57910000D03*
X147840000Y-57910000D03*
X147240000Y-57910000D03*
X146640000Y-57910000D03*
X146040000Y-57910000D03*
X142030000Y-57910000D03*
X141430000Y-57910000D03*
X140830000Y-57910000D03*
X140230000Y-57910000D03*
X139630000Y-57910000D03*
X139030000Y-57910000D03*
X138430000Y-57910000D03*
X137830000Y-57910000D03*
X137230000Y-57910000D03*
X136630000Y-57910000D03*
X136030000Y-57910000D03*
X135430000Y-57910000D03*
X134830000Y-57910000D03*
X134230000Y-57910000D03*
X129320000Y-57910000D03*
X128720000Y-57910000D03*
X128120000Y-57910000D03*
X127520000Y-57910000D03*
X126920000Y-57910000D03*
X126320000Y-57910000D03*
X125720000Y-57910000D03*
X125120000Y-57910000D03*
X124520000Y-57910000D03*
X123920000Y-57910000D03*
X123320000Y-57910000D03*
X122720000Y-57910000D03*
X122120000Y-57910000D03*
X121520000Y-57910000D03*
X120920000Y-57910000D03*
X120320000Y-57910000D03*
X119720000Y-57910000D03*
X119120000Y-57910000D03*
X118520000Y-57910000D03*
X117920000Y-57910000D03*
X117320000Y-57910000D03*
X116720000Y-57910000D03*
X116120000Y-57910000D03*
X115520000Y-57910000D03*
X114920000Y-57910000D03*
X114320000Y-57910000D03*
X113720000Y-57910000D03*
X113120000Y-57910000D03*
%TD*%
%TO.C,J6*%
X51110000Y-79230000D03*
X51710000Y-79230000D03*
X52310000Y-79230000D03*
X52910000Y-79230000D03*
X53510000Y-79230000D03*
X54110000Y-79230000D03*
X54710000Y-79230000D03*
X55310000Y-79230000D03*
X55910000Y-79230000D03*
X56510000Y-79230000D03*
X57110000Y-79230000D03*
X57710000Y-79230000D03*
X58310000Y-79230000D03*
X58910000Y-79230000D03*
X59510000Y-79230000D03*
X60110000Y-79230000D03*
X60710000Y-79230000D03*
X61310000Y-79230000D03*
X61910000Y-79230000D03*
X62510000Y-79230000D03*
X63110000Y-79230000D03*
X63710000Y-79230000D03*
X64310000Y-79230000D03*
X64910000Y-79230000D03*
X65510000Y-79230000D03*
X66110000Y-79230000D03*
X66710000Y-79230000D03*
X67310000Y-79230000D03*
X71320000Y-79230000D03*
X71920000Y-79230000D03*
X72520000Y-79230000D03*
X73120000Y-79230000D03*
X73720000Y-79230000D03*
X74320000Y-79230000D03*
X74920000Y-79230000D03*
X75520000Y-79230000D03*
X76120000Y-79230000D03*
X76720000Y-79230000D03*
X77320000Y-79230000D03*
X77920000Y-79230000D03*
X78520000Y-79230000D03*
X79120000Y-79230000D03*
X84030000Y-79230000D03*
X84630000Y-79230000D03*
X85230000Y-79230000D03*
X85830000Y-79230000D03*
X86430000Y-79230000D03*
X87030000Y-79230000D03*
X87630000Y-79230000D03*
X88230000Y-79230000D03*
X88830000Y-79230000D03*
X89430000Y-79230000D03*
X90030000Y-79230000D03*
X90630000Y-79230000D03*
X91230000Y-79230000D03*
X91830000Y-79230000D03*
X92430000Y-79230000D03*
X93030000Y-79230000D03*
X93630000Y-79230000D03*
X94230000Y-79230000D03*
X94830000Y-79230000D03*
X95430000Y-79230000D03*
X96030000Y-79230000D03*
X96630000Y-79230000D03*
X97230000Y-79230000D03*
X97830000Y-79230000D03*
X98430000Y-79230000D03*
X99030000Y-79230000D03*
X99630000Y-79230000D03*
X100230000Y-79230000D03*
X51110000Y-74630000D03*
X51710000Y-74630000D03*
X52310000Y-74630000D03*
X52910000Y-74630000D03*
X53510000Y-74630000D03*
X54110000Y-74630000D03*
X54710000Y-74630000D03*
X55310000Y-74630000D03*
X55910000Y-74630000D03*
X56510000Y-74630000D03*
X57110000Y-74630000D03*
X57710000Y-74630000D03*
X58310000Y-74630000D03*
X58910000Y-74630000D03*
X59510000Y-74630000D03*
X60110000Y-74630000D03*
X60710000Y-74630000D03*
X61310000Y-74630000D03*
X61910000Y-74630000D03*
X62510000Y-74630000D03*
X63110000Y-74630000D03*
X63710000Y-74630000D03*
X64310000Y-74630000D03*
X64910000Y-74630000D03*
X65510000Y-74630000D03*
X66110000Y-74630000D03*
X66710000Y-74630000D03*
X67310000Y-74630000D03*
X71320000Y-74630000D03*
X71920000Y-74630000D03*
X72520000Y-74630000D03*
X73120000Y-74630000D03*
X73720000Y-74630000D03*
X74320000Y-74630000D03*
X74920000Y-74630000D03*
X75520000Y-74630000D03*
X76120000Y-74630000D03*
X76720000Y-74630000D03*
X77320000Y-74630000D03*
X77920000Y-74630000D03*
X78520000Y-74630000D03*
X79120000Y-74630000D03*
X84030000Y-74630000D03*
X84630000Y-74630000D03*
X85230000Y-74630000D03*
X85830000Y-74630000D03*
X86430000Y-74630000D03*
X87030000Y-74630000D03*
X87630000Y-74630000D03*
X88230000Y-74630000D03*
X88830000Y-74630000D03*
X89430000Y-74630000D03*
X90030000Y-74630000D03*
X90630000Y-74630000D03*
X91230000Y-74630000D03*
X91830000Y-74630000D03*
X92430000Y-74630000D03*
X93030000Y-74630000D03*
X93630000Y-74630000D03*
X94230000Y-74630000D03*
X94830000Y-74630000D03*
X95430000Y-74630000D03*
X96030000Y-74630000D03*
X96630000Y-74630000D03*
X97230000Y-74630000D03*
X97830000Y-74630000D03*
X98430000Y-74630000D03*
X99030000Y-74630000D03*
X99630000Y-74630000D03*
X100230000Y-74630000D03*
%TD*%
%TO.C,J2*%
X162240000Y-63970000D03*
X161640000Y-63970000D03*
X161040000Y-63970000D03*
X160440000Y-63970000D03*
X159840000Y-63970000D03*
X159240000Y-63970000D03*
X158640000Y-63970000D03*
X158040000Y-63970000D03*
X157440000Y-63970000D03*
X156840000Y-63970000D03*
X156240000Y-63970000D03*
X155640000Y-63970000D03*
X155040000Y-63970000D03*
X154440000Y-63970000D03*
X153840000Y-63970000D03*
X153240000Y-63970000D03*
X152640000Y-63970000D03*
X152040000Y-63970000D03*
X151440000Y-63970000D03*
X150840000Y-63970000D03*
X150240000Y-63970000D03*
X149640000Y-63970000D03*
X149040000Y-63970000D03*
X148440000Y-63970000D03*
X147840000Y-63970000D03*
X147240000Y-63970000D03*
X146640000Y-63970000D03*
X146040000Y-63970000D03*
X142030000Y-63970000D03*
X141430000Y-63970000D03*
X140830000Y-63970000D03*
X140230000Y-63970000D03*
X139630000Y-63970000D03*
X139030000Y-63970000D03*
X138430000Y-63970000D03*
X137830000Y-63970000D03*
X137230000Y-63970000D03*
X136630000Y-63970000D03*
X136030000Y-63970000D03*
X135430000Y-63970000D03*
X134830000Y-63970000D03*
X134230000Y-63970000D03*
X129320000Y-63970000D03*
X128720000Y-63970000D03*
X128120000Y-63970000D03*
X127520000Y-63970000D03*
X126920000Y-63970000D03*
X126320000Y-63970000D03*
X125720000Y-63970000D03*
X125120000Y-63970000D03*
X124520000Y-63970000D03*
X123920000Y-63970000D03*
X123320000Y-63970000D03*
X122720000Y-63970000D03*
X122120000Y-63970000D03*
X121520000Y-63970000D03*
X120920000Y-63970000D03*
X120320000Y-63970000D03*
X119720000Y-63970000D03*
X119120000Y-63970000D03*
X118520000Y-63970000D03*
X117920000Y-63970000D03*
X117320000Y-63970000D03*
X116720000Y-63970000D03*
X116120000Y-63970000D03*
X115520000Y-63970000D03*
X114920000Y-63970000D03*
X114320000Y-63970000D03*
X113720000Y-63970000D03*
X113120000Y-63970000D03*
X162240000Y-68570000D03*
X161640000Y-68570000D03*
X161040000Y-68570000D03*
X160440000Y-68570000D03*
X159840000Y-68570000D03*
X159240000Y-68570000D03*
X158640000Y-68570000D03*
X158040000Y-68570000D03*
X157440000Y-68570000D03*
X156840000Y-68570000D03*
X156240000Y-68570000D03*
X155640000Y-68570000D03*
X155040000Y-68570000D03*
X154440000Y-68570000D03*
X153840000Y-68570000D03*
X153240000Y-68570000D03*
X152640000Y-68570000D03*
X152040000Y-68570000D03*
X151440000Y-68570000D03*
X150840000Y-68570000D03*
X150240000Y-68570000D03*
X149640000Y-68570000D03*
X149040000Y-68570000D03*
X148440000Y-68570000D03*
X147840000Y-68570000D03*
X147240000Y-68570000D03*
X146640000Y-68570000D03*
X146040000Y-68570000D03*
X142030000Y-68570000D03*
X141430000Y-68570000D03*
X140830000Y-68570000D03*
X140230000Y-68570000D03*
X139630000Y-68570000D03*
X139030000Y-68570000D03*
X138430000Y-68570000D03*
X137830000Y-68570000D03*
X137230000Y-68570000D03*
X136630000Y-68570000D03*
X136030000Y-68570000D03*
X135430000Y-68570000D03*
X134830000Y-68570000D03*
X134230000Y-68570000D03*
X129320000Y-68570000D03*
X128720000Y-68570000D03*
X128120000Y-68570000D03*
X127520000Y-68570000D03*
X126920000Y-68570000D03*
X126320000Y-68570000D03*
X125720000Y-68570000D03*
X125120000Y-68570000D03*
X124520000Y-68570000D03*
X123920000Y-68570000D03*
X123320000Y-68570000D03*
X122720000Y-68570000D03*
X122120000Y-68570000D03*
X121520000Y-68570000D03*
X120920000Y-68570000D03*
X120320000Y-68570000D03*
X119720000Y-68570000D03*
X119120000Y-68570000D03*
X118520000Y-68570000D03*
X117920000Y-68570000D03*
X117320000Y-68570000D03*
X116720000Y-68570000D03*
X116120000Y-68570000D03*
X115520000Y-68570000D03*
X114920000Y-68570000D03*
X114320000Y-68570000D03*
X113720000Y-68570000D03*
X113120000Y-68570000D03*
%TD*%
%TO.C,J4*%
X51110000Y-57910000D03*
X51710000Y-57910000D03*
X52310000Y-57910000D03*
X52910000Y-57910000D03*
X53510000Y-57910000D03*
X54110000Y-57910000D03*
X54710000Y-57910000D03*
X55310000Y-57910000D03*
X55910000Y-57910000D03*
X56510000Y-57910000D03*
X57110000Y-57910000D03*
X57710000Y-57910000D03*
X58310000Y-57910000D03*
X58910000Y-57910000D03*
X59510000Y-57910000D03*
X60110000Y-57910000D03*
X60710000Y-57910000D03*
X61310000Y-57910000D03*
X61910000Y-57910000D03*
X62510000Y-57910000D03*
X63110000Y-57910000D03*
X63710000Y-57910000D03*
X64310000Y-57910000D03*
X64910000Y-57910000D03*
X65510000Y-57910000D03*
X66110000Y-57910000D03*
X66710000Y-57910000D03*
X67310000Y-57910000D03*
X71320000Y-57910000D03*
X71920000Y-57910000D03*
X72520000Y-57910000D03*
X73120000Y-57910000D03*
X73720000Y-57910000D03*
X74320000Y-57910000D03*
X74920000Y-57910000D03*
X75520000Y-57910000D03*
X76120000Y-57910000D03*
X76720000Y-57910000D03*
X77320000Y-57910000D03*
X77920000Y-57910000D03*
X78520000Y-57910000D03*
X79120000Y-57910000D03*
X84030000Y-57910000D03*
X84630000Y-57910000D03*
X85230000Y-57910000D03*
X85830000Y-57910000D03*
X86430000Y-57910000D03*
X87030000Y-57910000D03*
X87630000Y-57910000D03*
X88230000Y-57910000D03*
X88830000Y-57910000D03*
X89430000Y-57910000D03*
X90030000Y-57910000D03*
X90630000Y-57910000D03*
X91230000Y-57910000D03*
X91830000Y-57910000D03*
X92430000Y-57910000D03*
X93030000Y-57910000D03*
X93630000Y-57910000D03*
X94230000Y-57910000D03*
X94830000Y-57910000D03*
X95430000Y-57910000D03*
X96030000Y-57910000D03*
X96630000Y-57910000D03*
X97230000Y-57910000D03*
X97830000Y-57910000D03*
X98430000Y-57910000D03*
X99030000Y-57910000D03*
X99630000Y-57910000D03*
X100230000Y-57910000D03*
X51110000Y-53310000D03*
X51710000Y-53310000D03*
X52310000Y-53310000D03*
X52910000Y-53310000D03*
X53510000Y-53310000D03*
X54110000Y-53310000D03*
X54710000Y-53310000D03*
X55310000Y-53310000D03*
X55910000Y-53310000D03*
X56510000Y-53310000D03*
X57110000Y-53310000D03*
X57710000Y-53310000D03*
X58310000Y-53310000D03*
X58910000Y-53310000D03*
X59510000Y-53310000D03*
X60110000Y-53310000D03*
X60710000Y-53310000D03*
X61310000Y-53310000D03*
X61910000Y-53310000D03*
X62510000Y-53310000D03*
X63110000Y-53310000D03*
X63710000Y-53310000D03*
X64310000Y-53310000D03*
X64910000Y-53310000D03*
X65510000Y-53310000D03*
X66110000Y-53310000D03*
X66710000Y-53310000D03*
X67310000Y-53310000D03*
X71320000Y-53310000D03*
X71920000Y-53310000D03*
X72520000Y-53310000D03*
X73120000Y-53310000D03*
X73720000Y-53310000D03*
X74320000Y-53310000D03*
X74920000Y-53310000D03*
X75520000Y-53310000D03*
X76120000Y-53310000D03*
X76720000Y-53310000D03*
X77320000Y-53310000D03*
X77920000Y-53310000D03*
X78520000Y-53310000D03*
X79120000Y-53310000D03*
X84030000Y-53310000D03*
X84630000Y-53310000D03*
X85230000Y-53310000D03*
X85830000Y-53310000D03*
X86430000Y-53310000D03*
X87030000Y-53310000D03*
X87630000Y-53310000D03*
X88230000Y-53310000D03*
X88830000Y-53310000D03*
X89430000Y-53310000D03*
X90030000Y-53310000D03*
X90630000Y-53310000D03*
X91230000Y-53310000D03*
X91830000Y-53310000D03*
X92430000Y-53310000D03*
X93030000Y-53310000D03*
X93630000Y-53310000D03*
X94230000Y-53310000D03*
X94830000Y-53310000D03*
X95430000Y-53310000D03*
X96030000Y-53310000D03*
X96630000Y-53310000D03*
X97230000Y-53310000D03*
X97830000Y-53310000D03*
X98430000Y-53310000D03*
X99030000Y-53310000D03*
X99630000Y-53310000D03*
X100230000Y-53310000D03*
%TD*%
%TO.C,J3*%
X162240000Y-74630000D03*
X161640000Y-74630000D03*
X161040000Y-74630000D03*
X160440000Y-74630000D03*
X159840000Y-74630000D03*
X159240000Y-74630000D03*
X158640000Y-74630000D03*
X158040000Y-74630000D03*
X157440000Y-74630000D03*
X156840000Y-74630000D03*
X156240000Y-74630000D03*
X155640000Y-74630000D03*
X155040000Y-74630000D03*
X154440000Y-74630000D03*
X153840000Y-74630000D03*
X153240000Y-74630000D03*
X152640000Y-74630000D03*
X152040000Y-74630000D03*
X151440000Y-74630000D03*
X150840000Y-74630000D03*
X150240000Y-74630000D03*
X149640000Y-74630000D03*
X149040000Y-74630000D03*
X148440000Y-74630000D03*
X147840000Y-74630000D03*
X147240000Y-74630000D03*
X146640000Y-74630000D03*
X146040000Y-74630000D03*
X142030000Y-74630000D03*
X141430000Y-74630000D03*
X140830000Y-74630000D03*
X140230000Y-74630000D03*
X139630000Y-74630000D03*
X139030000Y-74630000D03*
X138430000Y-74630000D03*
X137830000Y-74630000D03*
X137230000Y-74630000D03*
X136630000Y-74630000D03*
X136030000Y-74630000D03*
X135430000Y-74630000D03*
X134830000Y-74630000D03*
X134230000Y-74630000D03*
X129320000Y-74630000D03*
X128720000Y-74630000D03*
X128120000Y-74630000D03*
X127520000Y-74630000D03*
X126920000Y-74630000D03*
X126320000Y-74630000D03*
X125720000Y-74630000D03*
X125120000Y-74630000D03*
X124520000Y-74630000D03*
X123920000Y-74630000D03*
X123320000Y-74630000D03*
X122720000Y-74630000D03*
X122120000Y-74630000D03*
X121520000Y-74630000D03*
X120920000Y-74630000D03*
X120320000Y-74630000D03*
X119720000Y-74630000D03*
X119120000Y-74630000D03*
X118520000Y-74630000D03*
X117920000Y-74630000D03*
X117320000Y-74630000D03*
X116720000Y-74630000D03*
X116120000Y-74630000D03*
X115520000Y-74630000D03*
X114920000Y-74630000D03*
X114320000Y-74630000D03*
X113720000Y-74630000D03*
X113120000Y-74630000D03*
X162240000Y-79230000D03*
X161640000Y-79230000D03*
X161040000Y-79230000D03*
X160440000Y-79230000D03*
X159840000Y-79230000D03*
X159240000Y-79230000D03*
X158640000Y-79230000D03*
X158040000Y-79230000D03*
X157440000Y-79230000D03*
X156840000Y-79230000D03*
X156240000Y-79230000D03*
X155640000Y-79230000D03*
X155040000Y-79230000D03*
X154440000Y-79230000D03*
X153840000Y-79230000D03*
X153240000Y-79230000D03*
X152640000Y-79230000D03*
X152040000Y-79230000D03*
X151440000Y-79230000D03*
X150840000Y-79230000D03*
X150240000Y-79230000D03*
X149640000Y-79230000D03*
X149040000Y-79230000D03*
X148440000Y-79230000D03*
X147840000Y-79230000D03*
X147240000Y-79230000D03*
X146640000Y-79230000D03*
X146040000Y-79230000D03*
X142030000Y-79230000D03*
X141430000Y-79230000D03*
X140830000Y-79230000D03*
X140230000Y-79230000D03*
X139630000Y-79230000D03*
X139030000Y-79230000D03*
X138430000Y-79230000D03*
X137830000Y-79230000D03*
X137230000Y-79230000D03*
X136630000Y-79230000D03*
X136030000Y-79230000D03*
X135430000Y-79230000D03*
X134830000Y-79230000D03*
X134230000Y-79230000D03*
X129320000Y-79230000D03*
X128720000Y-79230000D03*
X128120000Y-79230000D03*
X127520000Y-79230000D03*
X126920000Y-79230000D03*
X126320000Y-79230000D03*
X125720000Y-79230000D03*
X125120000Y-79230000D03*
X124520000Y-79230000D03*
X123920000Y-79230000D03*
X123320000Y-79230000D03*
X122720000Y-79230000D03*
X122120000Y-79230000D03*
X121520000Y-79230000D03*
X120920000Y-79230000D03*
X120320000Y-79230000D03*
X119720000Y-79230000D03*
X119120000Y-79230000D03*
X118520000Y-79230000D03*
X117920000Y-79230000D03*
X117320000Y-79230000D03*
X116720000Y-79230000D03*
X116120000Y-79230000D03*
X115520000Y-79230000D03*
X114920000Y-79230000D03*
X114320000Y-79230000D03*
X113720000Y-79230000D03*
X113120000Y-79230000D03*
%TD*%
%TO.C,J5*%
X51110000Y-68570000D03*
X51710000Y-68570000D03*
X52310000Y-68570000D03*
X52910000Y-68570000D03*
X53510000Y-68570000D03*
X54110000Y-68570000D03*
X54710000Y-68570000D03*
X55310000Y-68570000D03*
X55910000Y-68570000D03*
X56510000Y-68570000D03*
X57110000Y-68570000D03*
X57710000Y-68570000D03*
X58310000Y-68570000D03*
X58910000Y-68570000D03*
X59510000Y-68570000D03*
X60110000Y-68570000D03*
X60710000Y-68570000D03*
X61310000Y-68570000D03*
X61910000Y-68570000D03*
X62510000Y-68570000D03*
X63110000Y-68570000D03*
X63710000Y-68570000D03*
X64310000Y-68570000D03*
X64910000Y-68570000D03*
X65510000Y-68570000D03*
X66110000Y-68570000D03*
X66710000Y-68570000D03*
X67310000Y-68570000D03*
X71320000Y-68570000D03*
X71920000Y-68570000D03*
X72520000Y-68570000D03*
X73120000Y-68570000D03*
X73720000Y-68570000D03*
X74320000Y-68570000D03*
X74920000Y-68570000D03*
X75520000Y-68570000D03*
X76120000Y-68570000D03*
X76720000Y-68570000D03*
X77320000Y-68570000D03*
X77920000Y-68570000D03*
X78520000Y-68570000D03*
X79120000Y-68570000D03*
X84030000Y-68570000D03*
X84630000Y-68570000D03*
X85230000Y-68570000D03*
X85830000Y-68570000D03*
X86430000Y-68570000D03*
X87030000Y-68570000D03*
X87630000Y-68570000D03*
X88230000Y-68570000D03*
X88830000Y-68570000D03*
X89430000Y-68570000D03*
X90030000Y-68570000D03*
X90630000Y-68570000D03*
X91230000Y-68570000D03*
X91830000Y-68570000D03*
X92430000Y-68570000D03*
X93030000Y-68570000D03*
X93630000Y-68570000D03*
X94230000Y-68570000D03*
X94830000Y-68570000D03*
X95430000Y-68570000D03*
X96030000Y-68570000D03*
X96630000Y-68570000D03*
X97230000Y-68570000D03*
X97830000Y-68570000D03*
X98430000Y-68570000D03*
X99030000Y-68570000D03*
X99630000Y-68570000D03*
X100230000Y-68570000D03*
X51110000Y-63970000D03*
X51710000Y-63970000D03*
X52310000Y-63970000D03*
X52910000Y-63970000D03*
X53510000Y-63970000D03*
X54110000Y-63970000D03*
X54710000Y-63970000D03*
X55310000Y-63970000D03*
X55910000Y-63970000D03*
X56510000Y-63970000D03*
X57110000Y-63970000D03*
X57710000Y-63970000D03*
X58310000Y-63970000D03*
X58910000Y-63970000D03*
X59510000Y-63970000D03*
X60110000Y-63970000D03*
X60710000Y-63970000D03*
X61310000Y-63970000D03*
X61910000Y-63970000D03*
X62510000Y-63970000D03*
X63110000Y-63970000D03*
X63710000Y-63970000D03*
X64310000Y-63970000D03*
X64910000Y-63970000D03*
X65510000Y-63970000D03*
X66110000Y-63970000D03*
X66710000Y-63970000D03*
X67310000Y-63970000D03*
X71320000Y-63970000D03*
X71920000Y-63970000D03*
X72520000Y-63970000D03*
X73120000Y-63970000D03*
X73720000Y-63970000D03*
X74320000Y-63970000D03*
X74920000Y-63970000D03*
X75520000Y-63970000D03*
X76120000Y-63970000D03*
X76720000Y-63970000D03*
X77320000Y-63970000D03*
X77920000Y-63970000D03*
X78520000Y-63970000D03*
X79120000Y-63970000D03*
X84030000Y-63970000D03*
X84630000Y-63970000D03*
X85230000Y-63970000D03*
X85830000Y-63970000D03*
X86430000Y-63970000D03*
X87030000Y-63970000D03*
X87630000Y-63970000D03*
X88230000Y-63970000D03*
X88830000Y-63970000D03*
X89430000Y-63970000D03*
X90030000Y-63970000D03*
X90630000Y-63970000D03*
X91230000Y-63970000D03*
X91830000Y-63970000D03*
X92430000Y-63970000D03*
X93030000Y-63970000D03*
X93630000Y-63970000D03*
X94230000Y-63970000D03*
X94830000Y-63970000D03*
X95430000Y-63970000D03*
X96030000Y-63970000D03*
X96630000Y-63970000D03*
X97230000Y-63970000D03*
X97830000Y-63970000D03*
X98430000Y-63970000D03*
X99030000Y-63970000D03*
X99630000Y-63970000D03*
X100230000Y-63970000D03*
%TD*%
M02*
