M48
; DRILL file {KiCad 8.0.2} date 2024-05-21T15:52:19+0200
; FORMAT={-:-/ absolute / inch / decimal}
; #@! TF.CreationDate,2024-05-21T15:52:19+02:00
; #@! TF.GenerationSoftware,Kicad,Pcbnew,8.0.2
; #@! TF.FileFunction,Plated,1,8,PTH
FMAT,2
INCH
; #@! TA.AperFunction,Plated,PTH,ViaDrill
T1C0.0059
; #@! TA.AperFunction,Plated,PTH,ComponentDrill
T2C0.0453
; #@! TA.AperFunction,Plated,PTH,ComponentDrill
T3C0.0728
; #@! TA.AperFunction,Plated,PTH,ComponentDrill
T4C0.1260
%
G90
G05
T1
X1.3657Y-2.0264
X1.3657Y-2.0429
X1.3657Y-2.0591
X1.3657Y-2.1421
X1.3657Y-2.1587
X1.3657Y-2.1748
X1.3657Y-3.0496
X1.3657Y-3.0661
X1.3657Y-3.0823
X1.3657Y-3.1472
X1.3657Y-3.1638
X1.3657Y-3.1799
X1.3894Y-2.0264
X1.3894Y-2.0429
X1.3894Y-2.0591
X1.3894Y-2.1421
X1.3894Y-2.1587
X1.3894Y-2.1748
X1.3894Y-3.0496
X1.3894Y-3.0661
X1.3894Y-3.0823
X1.3894Y-3.1472
X1.3894Y-3.1638
X1.3894Y-3.1799
X1.413Y-2.0264
X1.413Y-2.0429
X1.413Y-2.0591
X1.413Y-2.1421
X1.413Y-2.1587
X1.413Y-2.1748
X1.413Y-3.0496
X1.413Y-3.0661
X1.413Y-3.0823
X1.413Y-3.1472
X1.413Y-3.1638
X1.413Y-3.1799
X1.4366Y-2.0264
X1.4366Y-2.0429
X1.4366Y-2.0591
X1.4366Y-2.1421
X1.4366Y-2.1587
X1.4366Y-2.1748
X1.4366Y-3.0496
X1.4366Y-3.0661
X1.4366Y-3.0823
X1.4366Y-3.1472
X1.4366Y-3.1638
X1.4366Y-3.1799
X1.4602Y-2.0268
X1.4602Y-2.0433
X1.4602Y-2.0594
X1.4602Y-2.1425
X1.4602Y-2.1591
X1.4602Y-2.1752
X1.4602Y-3.05
X1.4602Y-3.0665
X1.4602Y-3.0827
X1.4602Y-3.1476
X1.4602Y-3.1642
X1.4602Y-3.1803
X1.4839Y-2.0268
X1.4839Y-2.0433
X1.4839Y-2.0594
X1.4839Y-2.1425
X1.4839Y-2.1591
X1.4839Y-2.1752
X1.4839Y-3.05
X1.4839Y-3.0665
X1.4839Y-3.0827
X1.4839Y-3.1476
X1.4839Y-3.1642
X1.4839Y-3.1803
X1.5075Y-2.0268
X1.5075Y-2.0433
X1.5075Y-2.0594
X1.5075Y-2.1425
X1.5075Y-2.1591
X1.5075Y-2.1752
X1.5075Y-3.05
X1.5075Y-3.0665
X1.5075Y-3.0827
X1.5075Y-3.1476
X1.5075Y-3.1642
X1.5075Y-3.1803
X1.5311Y-2.0268
X1.5311Y-2.0433
X1.5311Y-2.0594
X1.5311Y-2.1425
X1.5311Y-2.1591
X1.5311Y-2.1752
X1.5311Y-3.05
X1.5311Y-3.0665
X1.5311Y-3.0827
X1.5311Y-3.1476
X1.5311Y-3.1642
X1.5311Y-3.1803
X1.5547Y-2.0264
X1.5547Y-2.0429
X1.5547Y-2.0591
X1.5547Y-2.1421
X1.5547Y-2.1587
X1.5547Y-2.1748
X1.5547Y-3.0496
X1.5547Y-3.0661
X1.5547Y-3.0823
X1.5547Y-3.1472
X1.5547Y-3.1638
X1.5547Y-3.1799
X1.5783Y-2.0264
X1.5783Y-2.0429
X1.5783Y-2.0591
X1.5783Y-2.1421
X1.5783Y-2.1587
X1.5783Y-2.1748
X1.5783Y-3.0496
X1.5783Y-3.0661
X1.5783Y-3.0823
X1.5783Y-3.1472
X1.5783Y-3.1638
X1.5783Y-3.1799
X2.0122Y-2.0823
X2.0122Y-2.0988
X2.0122Y-2.115
X2.0122Y-2.502
X2.0122Y-2.5185
X2.0122Y-2.5346
X2.0122Y-2.9217
X2.0122Y-2.9382
X2.0122Y-2.9543
X2.0358Y-2.0823
X2.0358Y-2.0988
X2.0358Y-2.115
X2.0358Y-2.502
X2.0358Y-2.5185
X2.0358Y-2.5346
X2.0358Y-2.9217
X2.0358Y-2.9382
X2.0358Y-2.9543
X2.0594Y-2.0823
X2.0594Y-2.0988
X2.0594Y-2.115
X2.0594Y-2.502
X2.0594Y-2.5185
X2.0594Y-2.5346
X2.0594Y-2.9217
X2.0594Y-2.9382
X2.0594Y-2.9543
X2.0831Y-2.0823
X2.0831Y-2.0988
X2.0831Y-2.115
X2.0831Y-2.502
X2.0831Y-2.5185
X2.0831Y-2.5346
X2.0831Y-2.9217
X2.0831Y-2.9382
X2.0831Y-2.9543
X2.1067Y-2.0823
X2.1067Y-2.0988
X2.1067Y-2.115
X2.1067Y-2.502
X2.1067Y-2.5185
X2.1067Y-2.5346
X2.1067Y-2.922
X2.1067Y-2.9386
X2.1067Y-2.9547
X2.1303Y-2.0823
X2.1303Y-2.0988
X2.1303Y-2.115
X2.1303Y-2.502
X2.1303Y-2.5185
X2.1303Y-2.5346
X2.1303Y-2.922
X2.1303Y-2.9386
X2.1303Y-2.9547
X2.1539Y-2.0823
X2.1539Y-2.0988
X2.1539Y-2.115
X2.1539Y-2.502
X2.1539Y-2.5185
X2.1539Y-2.5346
X2.1539Y-2.922
X2.1539Y-2.9386
X2.1539Y-2.9547
X2.1776Y-2.0823
X2.1776Y-2.0988
X2.1776Y-2.115
X2.1776Y-2.502
X2.1776Y-2.5185
X2.1776Y-2.5346
X2.1776Y-2.922
X2.1776Y-2.9386
X2.1776Y-2.9547
X2.2012Y-2.0827
X2.2012Y-2.0992
X2.2012Y-2.1154
X2.2012Y-2.5024
X2.2012Y-2.5189
X2.2012Y-2.535
X2.2012Y-2.9224
X2.2012Y-2.939
X2.2012Y-2.9551
X2.2248Y-2.0827
X2.2248Y-2.0992
X2.2248Y-2.1154
X2.2248Y-2.5024
X2.2248Y-2.5189
X2.2248Y-2.535
X2.2248Y-2.9224
X2.2248Y-2.939
X2.2248Y-2.9551
X2.2484Y-2.0827
X2.2484Y-2.0992
X2.2484Y-2.1154
X2.2484Y-2.2634
X2.2484Y-2.2799
X2.2484Y-2.2961
X2.2484Y-2.5024
X2.2484Y-2.5189
X2.2484Y-2.535
X2.2484Y-2.6835
X2.2484Y-2.7
X2.2484Y-2.7161
X2.2484Y-2.9224
X2.2484Y-2.939
X2.2484Y-2.9551
X2.2484Y-3.1028
X2.2484Y-3.1193
X2.2484Y-3.1354
X2.272Y-2.0827
X2.272Y-2.0992
X2.272Y-2.1154
X2.272Y-2.2634
X2.272Y-2.2799
X2.272Y-2.2961
X2.272Y-2.5024
X2.272Y-2.5189
X2.272Y-2.535
X2.272Y-2.6835
X2.272Y-2.7
X2.272Y-2.7161
X2.272Y-2.9224
X2.272Y-2.939
X2.272Y-2.9551
X2.272Y-3.1028
X2.272Y-3.1193
X2.272Y-3.1354
X2.2957Y-2.0823
X2.2957Y-2.0988
X2.2957Y-2.115
X2.2957Y-2.2634
X2.2957Y-2.2799
X2.2957Y-2.2961
X2.2957Y-2.502
X2.2957Y-2.5185
X2.2957Y-2.5346
X2.2957Y-2.6835
X2.2957Y-2.7
X2.2957Y-2.7161
X2.2957Y-2.922
X2.2957Y-2.9386
X2.2957Y-2.9547
X2.2957Y-3.1028
X2.2957Y-3.1193
X2.2957Y-3.1354
X2.3193Y-2.0823
X2.3193Y-2.0988
X2.3193Y-2.115
X2.3193Y-2.2634
X2.3193Y-2.2799
X2.3193Y-2.2961
X2.3193Y-2.502
X2.3193Y-2.5185
X2.3193Y-2.5346
X2.3193Y-2.6835
X2.3193Y-2.7
X2.3193Y-2.7161
X2.3193Y-2.922
X2.3193Y-2.9386
X2.3193Y-2.9547
X2.3193Y-3.1028
X2.3193Y-3.1193
X2.3193Y-3.1354
X2.5463Y-2.2154
X2.5463Y-2.8453
X2.625Y-2.2154
X2.625Y-2.8453
X2.7037Y-2.2154
X2.7037Y-2.8453
X2.7825Y-2.2154
X2.7825Y-2.8453
X2.8612Y-2.2154
X2.8612Y-2.8453
X2.8612Y-3.0028
X2.94Y-2.2154
X2.94Y-2.8453
X2.94Y-3.0028
X3.0187Y-2.2154
X3.0187Y-2.8453
X3.0974Y-2.2154
X3.0974Y-2.8453
X3.1762Y-2.2154
X3.1762Y-2.3728
X3.1762Y-2.6091
X3.1762Y-2.8453
X3.2549Y-2.1366
X3.2549Y-2.2154
X3.2549Y-2.3728
X3.2549Y-2.6091
X3.2549Y-2.8453
X3.2549Y-3.0028
X3.3337Y-2.2154
X3.3337Y-2.3728
X3.3337Y-2.6091
X3.3337Y-2.8453
X3.3791Y-2.0988
X3.4124Y-2.2154
X3.4124Y-2.3728
X3.4124Y-2.6091
X3.4124Y-2.8453
X3.45Y-2.0988
X3.4911Y-2.2154
X3.4911Y-2.3728
X3.4911Y-2.6091
X3.4911Y-2.8453
X3.4911Y-3.0028
X3.5209Y-2.0988
X3.5699Y-2.3728
X3.5699Y-2.6091
X3.5699Y-2.8453
X3.6486Y-2.3728
X3.6486Y-2.6091
X3.7274Y-2.3728
X3.7274Y-2.6091
X3.7274Y-2.7665
X3.8061Y-2.3728
X3.8061Y-2.6091
X3.8061Y-2.7665
X3.8848Y-2.3728
X3.8848Y-2.6091
X3.8848Y-2.7665
X3.9636Y-2.3728
X3.9636Y-2.6091
X3.9636Y-2.7665
X4.0423Y-2.3728
X4.0423Y-2.6091
X4.0423Y-2.7665
X4.0817Y-3.0028
X4.1211Y-2.3728
X4.1211Y-2.7665
X4.1998Y-2.0579
X4.1998Y-2.1366
X4.1998Y-2.2154
X4.1998Y-2.2941
X4.1998Y-2.3728
X4.1998Y-2.4516
X4.1998Y-2.5303
X4.1998Y-2.6091
X4.1998Y-2.6878
X4.1998Y-2.7665
X4.1998Y-2.8453
X4.1998Y-2.924
X4.1998Y-3.0028
X4.1998Y-3.0815
X4.1998Y-3.1602
X4.2785Y-2.3728
X4.3573Y-2.3728
X4.3573Y-2.6091
X4.436Y-2.6091
X4.5148Y-2.6091
X4.5935Y-2.3728
X4.5935Y-2.6091
X4.6722Y-2.3728
X4.751Y-2.2154
X4.751Y-2.3728
X4.8297Y-2.2154
X4.8297Y-2.3728
X4.8297Y-2.6091
X4.8297Y-3.0028
X4.8787Y-2.0988
X4.9085Y-2.2154
X4.9085Y-2.3728
X4.9085Y-2.6091
X4.9085Y-2.8453
X4.9085Y-3.0028
X4.9496Y-2.0988
X4.9872Y-2.2154
X4.9872Y-2.3728
X4.9872Y-2.6091
X4.9872Y-2.8453
X4.9872Y-3.0028
X5.0205Y-2.0988
X5.0659Y-2.2154
X5.0659Y-2.3728
X5.0659Y-2.6091
X5.0659Y-2.8453
X5.0659Y-3.0028
X5.1447Y-2.2154
X5.1447Y-2.3728
X5.1447Y-2.6091
X5.1447Y-2.8453
X5.1447Y-3.0028
X5.2234Y-2.2154
X5.2234Y-2.3728
X5.2234Y-2.6091
X5.2234Y-2.8453
X5.2234Y-3.0028
X5.3022Y-2.2154
X5.3022Y-2.6091
X5.3022Y-3.0028
X5.3809Y-2.2154
X5.3809Y-2.6091
X5.3809Y-2.8453
X5.4596Y-2.2154
X5.4596Y-2.6091
X5.4596Y-2.8453
X5.5384Y-2.2154
X5.5384Y-2.8453
X5.6171Y-2.2154
X5.6171Y-2.8453
X5.6959Y-2.8453
X5.7746Y-2.8453
X5.8533Y-2.8453
X6.0803Y-2.0823
X6.0803Y-2.0988
X6.0803Y-2.115
X6.0803Y-2.2634
X6.0803Y-2.2799
X6.0803Y-2.2961
X6.0803Y-2.502
X6.0803Y-2.5185
X6.0803Y-2.5346
X6.0803Y-2.6831
X6.0803Y-2.6996
X6.0803Y-2.7157
X6.0803Y-2.9217
X6.0803Y-2.9382
X6.0803Y-2.9543
X6.0803Y-3.1028
X6.0803Y-3.1193
X6.0803Y-3.1354
X6.1039Y-2.0823
X6.1039Y-2.0988
X6.1039Y-2.115
X6.1039Y-2.2634
X6.1039Y-2.2799
X6.1039Y-2.2961
X6.1039Y-2.502
X6.1039Y-2.5185
X6.1039Y-2.5346
X6.1039Y-2.6831
X6.1039Y-2.6996
X6.1039Y-2.7157
X6.1039Y-2.9217
X6.1039Y-2.9382
X6.1039Y-2.9543
X6.1039Y-3.1028
X6.1039Y-3.1193
X6.1039Y-3.1354
X6.1276Y-2.0823
X6.1276Y-2.0988
X6.1276Y-2.115
X6.1276Y-2.2634
X6.1276Y-2.2799
X6.1276Y-2.2961
X6.1276Y-2.502
X6.1276Y-2.5185
X6.1276Y-2.5346
X6.1276Y-2.6831
X6.1276Y-2.6996
X6.1276Y-2.7157
X6.1276Y-2.9217
X6.1276Y-2.9382
X6.1276Y-2.9543
X6.1276Y-3.1028
X6.1276Y-3.1193
X6.1276Y-3.1354
X6.1512Y-2.0823
X6.1512Y-2.0988
X6.1512Y-2.115
X6.1512Y-2.2634
X6.1512Y-2.2799
X6.1512Y-2.2961
X6.1512Y-2.502
X6.1512Y-2.5185
X6.1512Y-2.5346
X6.1512Y-2.6831
X6.1512Y-2.6996
X6.1512Y-2.7157
X6.1512Y-2.9217
X6.1512Y-2.9382
X6.1512Y-2.9543
X6.1512Y-3.1028
X6.1512Y-3.1193
X6.1512Y-3.1354
X6.1748Y-2.2638
X6.1748Y-2.2803
X6.1748Y-2.2965
X6.1748Y-2.6835
X6.1748Y-2.7
X6.1748Y-2.7161
X6.1748Y-3.1031
X6.1748Y-3.1197
X6.1748Y-3.1358
X6.1984Y-2.2638
X6.1984Y-2.2803
X6.1984Y-2.2965
X6.1984Y-2.6835
X6.1984Y-2.7
X6.1984Y-2.7161
X6.1984Y-3.1031
X6.1984Y-3.1197
X6.1984Y-3.1358
X6.222Y-2.2638
X6.222Y-2.2803
X6.222Y-2.2965
X6.222Y-2.6835
X6.222Y-2.7
X6.222Y-2.7161
X6.222Y-3.1031
X6.222Y-3.1197
X6.222Y-3.1358
X6.2457Y-2.2638
X6.2457Y-2.2803
X6.2457Y-2.2965
X6.2457Y-2.6835
X6.2457Y-2.7
X6.2457Y-2.7161
X6.2457Y-3.1031
X6.2457Y-3.1197
X6.2457Y-3.1358
X6.2693Y-2.2634
X6.2693Y-2.2799
X6.2693Y-2.2961
X6.2693Y-2.6831
X6.2693Y-2.6996
X6.2693Y-2.7157
X6.2693Y-3.1028
X6.2693Y-3.1193
X6.2693Y-3.1354
X6.2929Y-2.2634
X6.2929Y-2.2799
X6.2929Y-2.2961
X6.2929Y-2.6831
X6.2929Y-2.6996
X6.2929Y-2.7157
X6.2929Y-3.1028
X6.2929Y-3.1193
X6.2929Y-3.1354
X6.3165Y-2.2634
X6.3165Y-2.2799
X6.3165Y-2.2961
X6.3165Y-2.6831
X6.3165Y-2.6996
X6.3165Y-2.7157
X6.3165Y-3.1031
X6.3165Y-3.1197
X6.3165Y-3.1358
X6.3402Y-2.2634
X6.3402Y-2.2799
X6.3402Y-2.2961
X6.3402Y-2.6831
X6.3402Y-2.6996
X6.3402Y-2.7157
X6.3402Y-3.1031
X6.3402Y-3.1197
X6.3402Y-3.1358
X6.3638Y-2.2634
X6.3638Y-2.2799
X6.3638Y-2.2961
X6.3638Y-2.6831
X6.3638Y-2.6996
X6.3638Y-2.7157
X6.3638Y-3.1031
X6.3638Y-3.1197
X6.3638Y-3.1358
X6.3874Y-2.2634
X6.3874Y-2.2799
X6.3874Y-2.2961
X6.3874Y-2.6831
X6.3874Y-2.6996
X6.3874Y-2.7157
X6.3874Y-3.1031
X6.3874Y-3.1197
X6.3874Y-3.1358
X6.835Y-2.0264
X6.835Y-2.0429
X6.835Y-2.0591
X6.835Y-2.1421
X6.835Y-2.1587
X6.835Y-2.1748
X6.835Y-3.0496
X6.835Y-3.0661
X6.835Y-3.0823
X6.835Y-3.1472
X6.835Y-3.1638
X6.835Y-3.1799
X6.8587Y-2.0264
X6.8587Y-2.0429
X6.8587Y-2.0591
X6.8587Y-2.1421
X6.8587Y-2.1587
X6.8587Y-2.1748
X6.8587Y-3.0496
X6.8587Y-3.0661
X6.8587Y-3.0823
X6.8587Y-3.1472
X6.8587Y-3.1638
X6.8587Y-3.1799
X6.8823Y-2.0264
X6.8823Y-2.0429
X6.8823Y-2.0591
X6.8823Y-2.1421
X6.8823Y-2.1587
X6.8823Y-2.1748
X6.8823Y-3.0496
X6.8823Y-3.0661
X6.8823Y-3.0823
X6.8823Y-3.1472
X6.8823Y-3.1638
X6.8823Y-3.1799
X6.9059Y-2.0264
X6.9059Y-2.0429
X6.9059Y-2.0591
X6.9059Y-2.1421
X6.9059Y-2.1587
X6.9059Y-2.1748
X6.9059Y-3.0496
X6.9059Y-3.0661
X6.9059Y-3.0823
X6.9059Y-3.1472
X6.9059Y-3.1638
X6.9059Y-3.1799
X6.9295Y-2.0268
X6.9295Y-2.0433
X6.9295Y-2.0594
X6.9295Y-2.1425
X6.9295Y-2.1591
X6.9295Y-2.1752
X6.9295Y-3.05
X6.9295Y-3.0665
X6.9295Y-3.0827
X6.9295Y-3.1476
X6.9295Y-3.1642
X6.9295Y-3.1803
X6.9531Y-2.0268
X6.9531Y-2.0433
X6.9531Y-2.0594
X6.9531Y-2.1425
X6.9531Y-2.1591
X6.9531Y-2.1752
X6.9531Y-3.05
X6.9531Y-3.0665
X6.9531Y-3.0827
X6.9531Y-3.1476
X6.9531Y-3.1642
X6.9531Y-3.1803
X6.9768Y-2.0268
X6.9768Y-2.0433
X6.9768Y-2.0594
X6.9768Y-2.1425
X6.9768Y-2.1591
X6.9768Y-2.1752
X6.9768Y-3.05
X6.9768Y-3.0665
X6.9768Y-3.0827
X6.9768Y-3.1476
X6.9768Y-3.1642
X6.9768Y-3.1803
X7.0004Y-2.0268
X7.0004Y-2.0433
X7.0004Y-2.0594
X7.0004Y-2.1425
X7.0004Y-2.1591
X7.0004Y-2.1752
X7.0004Y-3.05
X7.0004Y-3.0665
X7.0004Y-3.0827
X7.0004Y-3.1476
X7.0004Y-3.1642
X7.0004Y-3.1803
X7.024Y-2.0264
X7.024Y-2.0429
X7.024Y-2.0591
X7.024Y-2.1421
X7.024Y-2.1587
X7.024Y-2.1748
X7.024Y-3.0496
X7.024Y-3.0661
X7.024Y-3.0823
X7.024Y-3.1472
X7.024Y-3.1638
X7.024Y-3.1799
X7.0476Y-2.0264
X7.0476Y-2.0429
X7.0476Y-2.0591
X7.0476Y-2.1421
X7.0476Y-2.1587
X7.0476Y-2.1748
X7.0476Y-3.0496
X7.0476Y-3.0661
X7.0476Y-3.0823
X7.0476Y-3.1472
X7.0476Y-3.1638
X7.0476Y-3.1799
T3
X1.3848Y-2.4437
X1.3848Y-2.6091
X1.3848Y-2.7744
X1.6014Y-2.4437
X1.6014Y-2.6091
X1.6014Y-2.7744
X6.7982Y-2.4437
X6.7982Y-2.6091
X6.7982Y-2.7744
X7.0148Y-2.4437
X7.0148Y-2.6091
X7.0148Y-2.7744
T4
X1.06Y-2.1465
X1.06Y-3.0717
X7.3396Y-2.1465
X7.3396Y-3.0717
T2
G00X1.8795Y-2.1628
M15
G01X1.8795Y-2.2159
M16
G05
G00X1.8795Y-2.5825
M15
G01X1.8795Y-2.6356
M16
G05
G00X1.8795Y-3.0022
M15
G01X1.8795Y-3.0553
M16
G05
G00X6.5201Y-2.2159
M15
G01X6.5201Y-2.1628
M16
G05
G00X6.5201Y-2.6356
M15
G01X6.5201Y-2.5825
M16
G05
G00X6.5201Y-3.0553
M15
G01X6.5201Y-3.0022
M16
G05
M30
