M48
; DRILL file {KiCad 8.0.2} date 2024-05-21T15:52:19+0200
; FORMAT={-:-/ absolute / inch / decimal}
; #@! TF.CreationDate,2024-05-21T15:52:19+02:00
; #@! TF.GenerationSoftware,Kicad,Pcbnew,8.0.2
; #@! TF.FileFunction,Plated,2,6,Buried
FMAT,2
INCH
; #@! TA.AperFunction,Plated,Buried,ViaDrill
T1C0.0059
%
G90
G05
T1
X2.4311Y-2.474
X2.4535Y-3.0634
X2.4565Y-2.1443
X2.7223Y-3.0842
X2.7535Y-2.524
X2.7559Y-3.078
X2.7654Y-2.7051
X2.7819Y-2.4894
X2.7823Y-2.0736
X2.7843Y-2.2646
X2.8087Y-3.0769
X2.857Y-3.0744
X2.8945Y-3.1602
X2.9305Y-3.1732
X2.9362Y-3.0303
X2.9398Y-2.5453
X3.0059Y-3.1645
X3.0209Y-3.0396
X3.0883Y-3.1627
X3.0981Y-2.4675
X3.181Y-3.1353
X3.2073Y-3.1659
X3.2508Y-2.4689
X3.2558Y-3.1262
X3.2811Y-2.5213
X3.2819Y-3.1606
X3.4717Y-3.0898
X3.5601Y-2.9997
X3.5669Y-2.2386
X3.5846Y-2.1449
X3.6413Y-2.9953
X3.6547Y-2.2299
X3.6786Y-3.1609
X3.7059Y-2.213
X3.7933Y-2.9902
X3.805Y-2.2279
X3.9068Y-3.1699
X3.9472Y-2.848
X3.9626Y-2.2299
X4.4264Y-2.3012
X4.4583Y-2.4549
X4.5114Y-2.3382
X4.5221Y-2.2368
X4.5276Y-2.4583
X4.6146Y-2.2091
X4.6437Y-2.9831
X4.6793Y-2.9761
X4.7Y-2.2281
X4.7449Y-2.9781
X4.7886Y-3.1673
X4.9335Y-3.1705
X5.3827Y-2.5749
X5.4075Y-2.7539
X5.4779Y-3.1724
X5.4992Y-3.0039
X5.5287Y-2.2409
X5.5328Y-3.0751
X5.5398Y-2.5776
X5.5614Y-3.165
X5.6154Y-3.1677
X5.6157Y-2.5966
X5.6213Y-2.5591
X5.6646Y-3.0
X5.6889Y-3.0904
X5.698Y-2.7518
X5.7181Y-2.1309
X5.7929Y-2.9858
X5.9177Y-3.0693
M30
