M48
; DRILL file {KiCad 8.0.2} date 2024-05-21T15:52:19+0200
; FORMAT={-:-/ absolute / inch / decimal}
; #@! TF.CreationDate,2024-05-21T15:52:19+02:00
; #@! TF.GenerationSoftware,Kicad,Pcbnew,8.0.2
; #@! TF.FileFunction,Plated,1,4,Blind
FMAT,2
INCH
; #@! TA.AperFunction,Plated,Buried,ViaDrill
T1C0.0059
%
G90
G05
T1
X2.5856Y-2.3335
X2.5856Y-3.1996
X2.6644Y-2.176
X2.6644Y-2.6484
X2.6644Y-3.1996
X2.7431Y-2.0185
X2.7431Y-2.2437
X2.7431Y-2.4122
X2.7431Y-2.4909
X2.7431Y-2.7272
X2.8219Y-2.0185
X2.8219Y-2.0972
X2.8219Y-2.4122
X2.8219Y-2.7272
X2.8219Y-3.0421
X2.9006Y-2.176
X2.9006Y-2.5697
X2.9793Y-2.176
X2.9793Y-2.3335
X2.9793Y-2.7272
X3.0581Y-2.0185
X3.0581Y-2.4122
X3.0581Y-2.5697
X3.0581Y-2.7272
X3.0581Y-3.1996
X3.1368Y-2.2547
X3.1368Y-2.4122
X3.1368Y-2.4909
X3.2156Y-2.0185
X3.2156Y-2.0972
X3.2156Y-2.3335
X3.2943Y-2.2547
X3.2943Y-2.4909
X3.2943Y-3.1996
X3.4518Y-2.5697
X3.4518Y-3.0421
X3.5305Y-2.2547
X3.5305Y-2.4909
X3.5305Y-2.8846
X3.5305Y-2.9634
X3.5305Y-3.0421
X3.6091Y-2.3433
X3.6093Y-2.4909
X3.688Y-2.2547
X3.688Y-2.5697
X3.688Y-2.8846
X3.688Y-3.1209
X3.7667Y-2.2547
X3.7667Y-2.3335
X3.7667Y-2.5697
X3.7667Y-2.8846
X3.8455Y-2.4909
X3.8455Y-2.9634
X3.8455Y-3.0421
X3.9242Y-2.3335
X3.9242Y-2.4909
X3.9242Y-3.0421
X4.003Y-2.4909
X4.003Y-2.8846
X4.0817Y-2.0185
X4.0817Y-2.0972
X4.0817Y-2.6484
X4.0817Y-3.1209
X4.1604Y-2.0185
X4.1604Y-2.0972
X4.1604Y-2.176
X4.1604Y-2.4122
X4.1604Y-2.8059
X4.2392Y-2.0185
X4.3179Y-2.0185
X4.3179Y-2.2547
X4.3179Y-2.4122
X4.3179Y-2.9634
X4.3179Y-3.1209
X4.3967Y-2.7272
X4.3967Y-2.8957
X4.3967Y-3.1209
X4.4754Y-2.3335
X4.4754Y-2.4122
X4.4754Y-2.9634
X4.5541Y-2.4122
X4.5541Y-2.7272
X4.5541Y-3.0421
X4.6329Y-2.2547
X4.6329Y-2.4122
X4.6329Y-2.5697
X4.6329Y-2.9634
X4.6329Y-3.0421
X4.7116Y-2.3335
X4.7116Y-2.8846
X4.7116Y-3.0421
X4.7116Y-3.211
X4.8691Y-2.4909
X4.9478Y-2.2547
X4.9478Y-2.9634
X5.0266Y-2.4909
X5.0266Y-3.0421
X5.0266Y-3.1209
X5.1053Y-2.5697
X5.1053Y-3.0421
X5.1161Y-3.124
X5.1841Y-2.176
X5.1841Y-2.4122
X5.1841Y-2.4909
X5.1841Y-2.5697
X5.1841Y-2.9756
X5.2628Y-2.0972
X5.2628Y-2.4122
X5.2628Y-2.8059
X5.3413Y-2.4008
X5.3415Y-2.2547
X5.3415Y-2.5697
X5.3415Y-2.9634
X5.3415Y-3.1996
X5.4203Y-2.3335
X5.4203Y-2.8059
X5.499Y-2.7272
X5.5778Y-2.0972
X5.5778Y-3.1996
X5.6565Y-2.0972
X5.6565Y-2.3335
X5.6565Y-2.7272
X5.7352Y-2.0185
X5.7352Y-2.2547
X5.7352Y-2.4909
X5.7352Y-3.1209
X5.7352Y-3.1882
X5.8138Y-3.1878
X5.814Y-2.4122
M30
