M48
; DRILL file {KiCad 8.0.2} date 2024-05-21T15:52:19+0200
; FORMAT={-:-/ absolute / inch / decimal}
; #@! TF.CreationDate,2024-05-21T15:52:19+02:00
; #@! TF.GenerationSoftware,Kicad,Pcbnew,8.0.2
; #@! TF.FileFunction,Plated,4,8,Blind
FMAT,2
INCH
; #@! TA.AperFunction,Plated,Buried,ViaDrill
T1C0.0059
%
G90
G05
T1
X2.3665Y-2.2799
X2.3902Y-2.9413
X2.4138Y-2.7051
X2.461Y-2.0988
X2.461Y-2.524
X2.461Y-2.9413
X2.4846Y-2.0988
X2.4846Y-2.2799
X2.4846Y-3.1224
X2.5083Y-2.7051
X2.5319Y-2.2799
X2.5319Y-2.524
X2.5555Y-2.0988
X2.5791Y-2.0988
X2.5791Y-2.7051
X2.6028Y-2.2799
X2.6264Y-2.524
X2.65Y-3.1224
X2.8315Y-2.115
X2.8551Y-2.2799
X2.8551Y-2.524
X2.8551Y-2.7051
X2.8787Y-2.0988
X2.9024Y-2.0988
X2.926Y-2.7051
X2.9496Y-2.2799
X2.9732Y-2.5319
X2.9969Y-2.2799
X2.9969Y-3.1224
X3.0205Y-2.2799
X3.0441Y-2.0988
X3.0677Y-2.0988
X3.0913Y-2.2799
X3.0913Y-2.5283
X3.3319Y-3.1224
X3.3555Y-2.524
X3.3791Y-2.9413
X3.4028Y-2.2799
X3.4028Y-2.9413
X3.4264Y-2.2953
X3.4264Y-2.524
X3.4736Y-2.524
X3.4972Y-2.2799
X3.4972Y-2.9413
X3.4972Y-3.1224
X3.5209Y-2.2953
X3.5445Y-2.2933
X3.5445Y-2.524
X3.5681Y-2.9413
X3.6154Y-2.2945
X3.6154Y-2.9413
X3.6154Y-3.1224
X3.639Y-2.524
X3.6862Y-2.2961
X3.7098Y-2.524
X3.7807Y-2.2799
X3.7807Y-2.524
X3.7807Y-2.9413
X3.8516Y-3.1224
X3.8752Y-2.7051
X3.9461Y-2.5339
X3.9461Y-2.9413
X4.548Y-3.1224
X4.5717Y-2.524
X4.5717Y-2.7051
X4.5717Y-2.9413
X4.6189Y-2.924
X4.6189Y-3.1193
X4.6425Y-2.2799
X4.6661Y-2.7051
X4.7134Y-2.524
X4.7134Y-2.9224
X4.7606Y-2.5319
X4.7843Y-2.2799
X4.7843Y-2.524
X4.7843Y-3.1035
X4.8079Y-2.524
X4.8551Y-2.2799
X4.8551Y-2.5343
X4.8551Y-2.9413
X4.8551Y-3.1224
X4.8787Y-3.1224
X4.9024Y-2.9413
X4.926Y-2.2799
X4.926Y-3.1224
X5.0441Y-2.2799
X5.0441Y-2.524
X5.0677Y-2.9539
X5.3083Y-2.0988
X5.3555Y-3.1224
X5.3555Y-2.5167
X5.3791Y-3.1224
X5.3792Y-2.9224
X5.4028Y-2.0988
X5.4028Y-2.5248
X5.4264Y-2.7051
X5.4264Y-3.1224
X5.45Y-2.2799
X5.45Y-3.1193
X5.4736Y-2.5185
X5.4736Y-2.9413
X5.4972Y-2.2799
X5.4972Y-2.5185
X5.5209Y-2.524
X5.5445Y-2.2799
X5.5681Y-2.6839
X5.5917Y-2.524
X5.7496Y-2.5343
X5.7496Y-2.6933
X5.8205Y-2.115
X5.8205Y-2.5343
X5.8913Y-2.0988
X5.8913Y-2.2957
X5.8913Y-2.6996
X5.9386Y-2.9413
X5.9622Y-2.9224
X5.9622Y-3.1224
X5.9858Y-2.0988
X5.9858Y-2.2799
X6.0094Y-2.2799
X6.0094Y-2.524
X6.0094Y-2.9413
X6.0331Y-2.9413
M30
