M48
; DRILL file {KiCad 9.0.1} date 2025-05-14T13:37:01+0200
; FORMAT={-:-/ absolute / metric / decimal}
; #@! TF.CreationDate,2025-05-14T13:37:01+02:00
; #@! TF.GenerationSoftware,Kicad,Pcbnew,9.0.1
; #@! TF.FileFunction,Plated,1,4,PTH
FMAT,2
METRIC
; #@! TA.AperFunction,Plated,PTH,ViaDrill
T1C0.200
%
G90
G05
T1
X65.3Y-59.95
X65.49Y-52.95
X65.52Y-54.94
X65.52Y-58.93
X65.54Y-53.95
X65.56Y-55.94
X65.56Y-60.95
X65.58Y-57.95
X65.6Y-56.94
X65.891Y-60.441
X65.911Y-56.427
X65.914Y-57.451
X65.92Y-59.45
X66.01Y-58.45
X66.07Y-53.45
X66.25Y-54.45
X66.28Y-55.46
X76.415Y-70.63
X76.875Y-69.22
X77.115Y-67.32
X77.755Y-65.79
X78.075Y-67.32
X78.325Y-70.82
X79.145Y-71.01
X79.145Y-71.97
X79.885Y-70.88
X80.325Y-67.333
X80.51Y-70.24
X80.935Y-65.78
X81.215Y-66.66
X81.375Y-68.88
X82.335Y-68.88
X84.62Y-56.95
X84.63Y-60.13
X85.5Y-56.67
X86.16Y-59.81
X86.16Y-60.77
X86.173Y-57.56
X87.72Y-55.55
X87.72Y-56.51
X88.06Y-61.01
X89.07Y-57.37
X89.47Y-61.47
X89.66Y-59.56
X89.72Y-58.0
X89.85Y-58.74
X90.81Y-58.74
X120.45Y-77.92
X120.95Y-79.309
X120.95Y-77.22
X121.45Y-76.67
X121.95Y-79.223
M30
