%TF.GenerationSoftware,KiCad,Pcbnew,9.0.1*%
%TF.CreationDate,2025-05-14T13:37:05+02:00*%
%TF.ProjectId,Card_Adapter_Flex_AddOn,43617264-5f41-4646-9170-7465725f466c,0*%
%TF.SameCoordinates,Original*%
%TF.FileFunction,Copper,L1,Top*%
%TF.FilePolarity,Positive*%
%FSLAX46Y46*%
G04 Gerber Fmt 4.6, Leading zero omitted, Abs format (unit mm)*
G04 Created by KiCad (PCBNEW 9.0.1) date 2025-05-14 13:37:05*
%MOMM*%
%LPD*%
G01*
G04 APERTURE LIST*
G04 Aperture macros list*
%AMRoundRect*
0 Rectangle with rounded corners*
0 $1 Rounding radius*
0 $2 $3 $4 $5 $6 $7 $8 $9 X,Y pos of 4 corners*
0 Add a 4 corners polygon primitive as box body*
4,1,4,$2,$3,$4,$5,$6,$7,$8,$9,$2,$3,0*
0 Add four circle primitives for the rounded corners*
1,1,$1+$1,$2,$3*
1,1,$1+$1,$4,$5*
1,1,$1+$1,$6,$7*
1,1,$1+$1,$8,$9*
0 Add four rect primitives between the rounded corners*
20,1,$1+$1,$2,$3,$4,$5,0*
20,1,$1+$1,$4,$5,$6,$7,0*
20,1,$1+$1,$6,$7,$8,$9,0*
20,1,$1+$1,$8,$9,$2,$3,0*%
%AMOutline5P*
0 Free polygon, 5 corners , with rotation*
0 The origin of the aperture is its center*
0 number of corners: always 5*
0 $1 to $10 corner X, Y*
0 $11 Rotation angle, in degrees counterclockwise*
0 create outline with 5 corners*
4,1,5,$1,$2,$3,$4,$5,$6,$7,$8,$9,$10,$1,$2,$11*%
%AMOutline6P*
0 Free polygon, 6 corners , with rotation*
0 The origin of the aperture is its center*
0 number of corners: always 6*
0 $1 to $12 corner X, Y*
0 $13 Rotation angle, in degrees counterclockwise*
0 create outline with 6 corners*
4,1,6,$1,$2,$3,$4,$5,$6,$7,$8,$9,$10,$11,$12,$1,$2,$13*%
%AMOutline7P*
0 Free polygon, 7 corners , with rotation*
0 The origin of the aperture is its center*
0 number of corners: always 7*
0 $1 to $14 corner X, Y*
0 $15 Rotation angle, in degrees counterclockwise*
0 create outline with 7 corners*
4,1,7,$1,$2,$3,$4,$5,$6,$7,$8,$9,$10,$11,$12,$13,$14,$1,$2,$15*%
%AMOutline8P*
0 Free polygon, 8 corners , with rotation*
0 The origin of the aperture is its center*
0 number of corners: always 8*
0 $1 to $16 corner X, Y*
0 $17 Rotation angle, in degrees counterclockwise*
0 create outline with 8 corners*
4,1,8,$1,$2,$3,$4,$5,$6,$7,$8,$9,$10,$11,$12,$13,$14,$15,$16,$1,$2,$17*%
G04 Aperture macros list end*
%TA.AperFunction,SMDPad,CuDef*%
%ADD10RoundRect,0.140000X-0.170000X0.140000X-0.170000X-0.140000X0.170000X-0.140000X0.170000X0.140000X0*%
%TD*%
%TA.AperFunction,SMDPad,CuDef*%
%ADD11RoundRect,0.140000X0.140000X0.170000X-0.140000X0.170000X-0.140000X-0.170000X0.140000X-0.170000X0*%
%TD*%
%TA.AperFunction,SMDPad,CuDef*%
%ADD12RoundRect,0.135000X-0.135000X-0.185000X0.135000X-0.185000X0.135000X0.185000X-0.135000X0.185000X0*%
%TD*%
%TA.AperFunction,SMDPad,CuDef*%
%ADD13RoundRect,0.140000X-0.140000X-0.170000X0.140000X-0.170000X0.140000X0.170000X-0.140000X0.170000X0*%
%TD*%
%TA.AperFunction,SMDPad,CuDef*%
%ADD14RoundRect,0.140000X0.170000X-0.140000X0.170000X0.140000X-0.170000X0.140000X-0.170000X-0.140000X0*%
%TD*%
%TA.AperFunction,SMDPad,CuDef*%
%ADD15RoundRect,0.135000X0.135000X0.185000X-0.135000X0.185000X-0.135000X-0.185000X0.135000X-0.185000X0*%
%TD*%
%TA.AperFunction,SMDPad,CuDef*%
%ADD16Outline5P,-0.100000X0.325000X0.100000X0.325000X0.100000X-0.225000X0.000000X-0.325000X-0.100000X-0.325000X180.000000*%
%TD*%
%TA.AperFunction,SMDPad,CuDef*%
%ADD17R,0.200000X0.550000*%
%TD*%
%TA.AperFunction,SMDPad,CuDef*%
%ADD18R,0.550000X0.200000*%
%TD*%
%TA.AperFunction,SMDPad,CuDef*%
%ADD19RoundRect,0.135000X0.185000X-0.135000X0.185000X0.135000X-0.185000X0.135000X-0.185000X-0.135000X0*%
%TD*%
%TA.AperFunction,SMDPad,CuDef*%
%ADD20Outline5P,-0.100000X0.325000X0.100000X0.325000X0.100000X-0.225000X0.000000X-0.325000X-0.100000X-0.325000X270.000000*%
%TD*%
%TA.AperFunction,SMDPad,CuDef*%
%ADD21RoundRect,0.135000X-0.185000X0.135000X-0.185000X-0.135000X0.185000X-0.135000X0.185000X0.135000X0*%
%TD*%
%TA.AperFunction,ViaPad*%
%ADD22C,0.400000*%
%TD*%
%TA.AperFunction,Conductor*%
%ADD23C,0.200000*%
%TD*%
%TA.AperFunction,Conductor*%
%ADD24C,0.100000*%
%TD*%
%TA.AperFunction,Conductor*%
%ADD25C,0.150000*%
%TD*%
G04 APERTURE END LIST*
D10*
%TO.P,C19,1*%
%TO.N,Master_trigger_out_2*%
X78735000Y-63930000D03*
%TO.P,C19,2*%
%TO.N,Net-(U3-CLK_OUT2)*%
X78735000Y-64890000D03*
%TD*%
D11*
%TO.P,C17,1*%
%TO.N,GND*%
X82335000Y-68880000D03*
%TO.P,C17,2*%
%TO.N,+3V3*%
X81375000Y-68880000D03*
%TD*%
D12*
%TO.P,R12,1*%
%TO.N,GND*%
X76430000Y-70595000D03*
%TO.P,R12,2*%
%TO.N,Master_trigger_in*%
X77450000Y-70595000D03*
%TD*%
D13*
%TO.P,C15,1*%
%TO.N,GND*%
X77115000Y-67320000D03*
%TO.P,C15,2*%
%TO.N,+3V3*%
X78075000Y-67320000D03*
%TD*%
D14*
%TO.P,C11,1*%
%TO.N,Heim_time_out_1*%
X87080000Y-62870000D03*
%TO.P,C11,2*%
%TO.N,Net-(U1-CLK_OUT1)*%
X87080000Y-61910000D03*
%TD*%
D15*
%TO.P,R14,1*%
%TO.N,GND*%
X80935000Y-65780000D03*
%TO.P,R14,2*%
%TO.N,Net-(U3-CLK_OUT3)*%
X79915000Y-65780000D03*
%TD*%
D14*
%TO.P,C1,1*%
%TO.N,GND*%
X86160000Y-60770000D03*
%TO.P,C1,2*%
%TO.N,+3V3*%
X86160000Y-59810000D03*
%TD*%
D10*
%TO.P,C14,1*%
%TO.N,Heim_time_out_4*%
X86480000Y-54810000D03*
%TO.P,C14,2*%
%TO.N,Net-(U1-CLK_OUT4)*%
X86480000Y-55770000D03*
%TD*%
D13*
%TO.P,C18,1*%
%TO.N,Master_trigger_out_1*%
X75015000Y-68240000D03*
%TO.P,C18,2*%
%TO.N,Net-(U3-CLK_OUT1)*%
X75975000Y-68240000D03*
%TD*%
%TO.P,C12,1*%
%TO.N,Heim_time_out_2*%
X82770000Y-59150000D03*
%TO.P,C12,2*%
%TO.N,Net-(U1-CLK_OUT2)*%
X83730000Y-59150000D03*
%TD*%
D16*
%TO.P,U3,1,OE_2*%
%TO.N,+3V3*%
X78745000Y-70155000D03*
D17*
%TO.P,U3,2,VDD*%
X79145000Y-70205000D03*
%TO.P,U3,3,GND*%
%TO.N,GND*%
X79545000Y-70205000D03*
%TO.P,U3,4,OE_3*%
%TO.N,+3V3*%
X79945000Y-70205000D03*
D18*
%TO.P,U3,5,OE_4*%
X80470000Y-69680000D03*
%TO.P,U3,6,OE_OSC*%
%TO.N,/Master trigger/Signaling*%
X80470000Y-69280000D03*
%TO.P,U3,7,VDD*%
%TO.N,+3V3*%
X80470000Y-68880000D03*
%TO.P,U3,8,CLK_OUT4*%
%TO.N,Net-(U3-CLK_OUT4)*%
X80470000Y-68480000D03*
D17*
%TO.P,U3,9,GND*%
%TO.N,GND*%
X79945000Y-67955000D03*
%TO.P,U3,10,CLK_OUT3*%
%TO.N,Net-(U3-CLK_OUT3)*%
X79545000Y-67955000D03*
%TO.P,U3,11,CLK_OUT2*%
%TO.N,Net-(U3-CLK_OUT2)*%
X79145000Y-67955000D03*
%TO.P,U3,12,VDD*%
%TO.N,+3V3*%
X78745000Y-67955000D03*
D18*
%TO.P,U3,13,CLK_OUT1*%
%TO.N,Net-(U3-CLK_OUT1)*%
X78220000Y-68480000D03*
%TO.P,U3,14,GND*%
%TO.N,GND*%
X78220000Y-68880000D03*
%TO.P,U3,15,CLK_IN*%
%TO.N,Master_trigger_in*%
X78220000Y-69280000D03*
%TO.P,U3,16,OE_1*%
%TO.N,+3V3*%
X78220000Y-69680000D03*
%TD*%
D11*
%TO.P,C2,1*%
%TO.N,GND*%
X90900000Y-58740000D03*
%TO.P,C2,2*%
%TO.N,+3V3*%
X89940000Y-58740000D03*
%TD*%
D19*
%TO.P,R3,1*%
%TO.N,GND*%
X84630000Y-60130000D03*
%TO.P,R3,2*%
%TO.N,Net-(U1-CLK_OUT2)*%
X84630000Y-59110000D03*
%TD*%
D20*
%TO.P,U1,1,OE_2*%
%TO.N,+3V3*%
X88995000Y-59140000D03*
D18*
%TO.P,U1,2,VDD*%
X89045000Y-58740000D03*
%TO.P,U1,3,GND*%
%TO.N,GND*%
X89045000Y-58340000D03*
%TO.P,U1,4,OE_3*%
%TO.N,+3V3*%
X89045000Y-57940000D03*
D17*
%TO.P,U1,5,OE_4*%
X88520000Y-57415000D03*
%TO.P,U1,6,OE_OSC*%
%TO.N,/Heimtime/Signaling*%
X88120000Y-57415000D03*
%TO.P,U1,7,VDD*%
%TO.N,+3V3*%
X87720000Y-57415000D03*
%TO.P,U1,8,CLK_OUT4*%
%TO.N,Net-(U1-CLK_OUT4)*%
X87320000Y-57415000D03*
D18*
%TO.P,U1,9,GND*%
%TO.N,GND*%
X86795000Y-57940000D03*
%TO.P,U1,10,CLK_OUT3*%
%TO.N,Net-(U1-CLK_OUT3)*%
X86795000Y-58340000D03*
%TO.P,U1,11,CLK_OUT2*%
%TO.N,Net-(U1-CLK_OUT2)*%
X86795000Y-58740000D03*
%TO.P,U1,12,VDD*%
%TO.N,+3V3*%
X86795000Y-59140000D03*
D17*
%TO.P,U1,13,CLK_OUT1*%
%TO.N,Net-(U1-CLK_OUT1)*%
X87320000Y-59665000D03*
%TO.P,U1,14,GND*%
%TO.N,GND*%
X87720000Y-59665000D03*
%TO.P,U1,15,CLK_IN*%
%TO.N,Heim_time_in*%
X88120000Y-59665000D03*
%TO.P,U1,16,OE_1*%
%TO.N,+3V3*%
X88520000Y-59665000D03*
%TD*%
D15*
%TO.P,R4,1*%
%TO.N,GND*%
X88060000Y-61010000D03*
%TO.P,R4,2*%
%TO.N,Net-(U1-CLK_OUT1)*%
X87040000Y-61010000D03*
%TD*%
D12*
%TO.P,R1,1*%
%TO.N,GND*%
X85500000Y-56670000D03*
%TO.P,R1,2*%
%TO.N,Net-(U1-CLK_OUT4)*%
X86520000Y-56670000D03*
%TD*%
D14*
%TO.P,C16,1*%
%TO.N,GND*%
X79145000Y-72060000D03*
%TO.P,C16,2*%
%TO.N,+3V3*%
X79145000Y-71100000D03*
%TD*%
D21*
%TO.P,R2,1*%
%TO.N,GND*%
X84620000Y-56950000D03*
%TO.P,R2,2*%
%TO.N,Net-(U1-CLK_OUT3)*%
X84620000Y-57970000D03*
%TD*%
D13*
%TO.P,C13,1*%
%TO.N,Heim_time_out_3*%
X82750000Y-57930000D03*
%TO.P,C13,2*%
%TO.N,Net-(U1-CLK_OUT3)*%
X83710000Y-57930000D03*
%TD*%
D10*
%TO.P,C3,1*%
%TO.N,GND*%
X87720000Y-55550000D03*
%TO.P,C3,2*%
%TO.N,+3V3*%
X87720000Y-56510000D03*
%TD*%
D19*
%TO.P,R11,1*%
%TO.N,GND*%
X89470000Y-61470000D03*
%TO.P,R11,2*%
%TO.N,Heim_time_in*%
X89470000Y-60450000D03*
%TD*%
%TO.P,R16,1*%
%TO.N,GND*%
X76875000Y-69220000D03*
%TO.P,R16,2*%
%TO.N,Net-(U3-CLK_OUT1)*%
X76875000Y-68200000D03*
%TD*%
D11*
%TO.P,C21,1*%
%TO.N,Master_trigger_out_4*%
X83075000Y-67640000D03*
%TO.P,C21,2*%
%TO.N,Net-(U3-CLK_OUT4)*%
X82115000Y-67640000D03*
%TD*%
D21*
%TO.P,R13,1*%
%TO.N,GND*%
X81215000Y-66660000D03*
%TO.P,R13,2*%
%TO.N,Net-(U3-CLK_OUT4)*%
X81215000Y-67680000D03*
%TD*%
D12*
%TO.P,R15,1*%
%TO.N,GND*%
X77755000Y-65790000D03*
%TO.P,R15,2*%
%TO.N,Net-(U3-CLK_OUT2)*%
X78775000Y-65790000D03*
%TD*%
D10*
%TO.P,C20,1*%
%TO.N,Master_trigger_out_3*%
X79955000Y-63910000D03*
%TO.P,C20,2*%
%TO.N,Net-(U3-CLK_OUT3)*%
X79955000Y-64870000D03*
%TD*%
D22*
%TO.N,GND*%
X65520000Y-54940000D03*
X88060000Y-61010000D03*
X79885000Y-70880002D03*
X81215000Y-66660000D03*
X84630000Y-60130000D03*
X90810000Y-58740000D03*
X89720002Y-58000000D03*
X82335000Y-68880000D03*
X120950000Y-77220000D03*
X120949999Y-79308589D03*
X79145000Y-71970000D03*
X65560000Y-60950000D03*
X80324750Y-67333142D03*
X89470000Y-61470000D03*
X85500000Y-56670000D03*
X65600000Y-56940000D03*
X76415000Y-70630000D03*
X80935000Y-65780000D03*
X87720000Y-55550000D03*
X65560000Y-55940000D03*
X86173142Y-57560250D03*
X65580000Y-57950000D03*
X84620000Y-56950000D03*
X65540000Y-53950000D03*
X65490000Y-52950000D03*
X65520000Y-58930000D03*
X65300000Y-59950000D03*
X76875000Y-69220000D03*
X77755000Y-65790000D03*
X86160000Y-60770000D03*
X77115000Y-67320000D03*
%TO.N,Heim_time_in*%
X121450000Y-76670000D03*
%TO.N,Master_trigger_in*%
X120450000Y-77920000D03*
%TO.N,+3V3*%
X81375000Y-68880000D03*
X78075000Y-67320000D03*
X89850000Y-58740000D03*
X86160000Y-59810000D03*
X79145000Y-71010000D03*
X89660000Y-59560000D03*
X80510000Y-70240000D03*
X89070000Y-57370000D03*
X87720000Y-56510000D03*
X121950000Y-79223310D03*
X78325000Y-70820000D03*
%TO.N,Heim_time_out_1*%
X65910797Y-56426770D03*
%TO.N,Heim_time_out_2*%
X66280000Y-55460000D03*
%TO.N,Heim_time_out_3*%
X66250000Y-54450000D03*
%TO.N,Heim_time_out_4*%
X66070000Y-53450000D03*
%TO.N,Master_trigger_out_1*%
X65890507Y-60440768D03*
%TO.N,Master_trigger_out_2*%
X65920000Y-59450000D03*
%TO.N,Master_trigger_out_3*%
X66010000Y-58450000D03*
%TO.N,Master_trigger_out_4*%
X65913783Y-57451412D03*
%TD*%
D23*
%TO.N,GND*%
X86552892Y-57940000D02*
X86173142Y-57560250D01*
X89045000Y-58340000D02*
X89380002Y-58340000D01*
X79945000Y-67712892D02*
X80324750Y-67333142D01*
X87720000Y-59665000D02*
X87720000Y-60670000D01*
X78220000Y-68880000D02*
X77215000Y-68880000D01*
X86795000Y-57940000D02*
X86552892Y-57940000D01*
X79545000Y-70540002D02*
X79885000Y-70880002D01*
X77215000Y-68880000D02*
X76875000Y-69220000D01*
X89380002Y-58340000D02*
X89720002Y-58000000D01*
X79945000Y-67955000D02*
X79945000Y-67712892D01*
X79545000Y-70205000D02*
X79545000Y-70540002D01*
X87720000Y-60670000D02*
X88060000Y-61010000D01*
%TO.N,Heim_time_in*%
X118999980Y-73480000D02*
X93340000Y-73480000D01*
X91593553Y-61213553D02*
X90976446Y-60596446D01*
D24*
X89470000Y-60450000D02*
X89260000Y-60240000D01*
D23*
X91740000Y-71880000D02*
X91740000Y-61567107D01*
D24*
X88120000Y-60180000D02*
X88290000Y-60350000D01*
D23*
X121450000Y-76670000D02*
X121450000Y-75930020D01*
X90622893Y-60450000D02*
X89470000Y-60450000D01*
D24*
X89370000Y-60350000D02*
X89470000Y-60450000D01*
X88290000Y-60350000D02*
X89370000Y-60350000D01*
X88120000Y-59665000D02*
X88120000Y-60180000D01*
X89430000Y-60410000D02*
G75*
G02*
X89470000Y-60450000I0J-40000D01*
G01*
D23*
X121450000Y-75930020D02*
G75*
G03*
X118999980Y-73480000I-2450000J20D01*
G01*
X90976446Y-60596446D02*
G75*
G03*
X90622893Y-60450005I-353546J-353554D01*
G01*
X93340000Y-73480000D02*
G75*
G02*
X91740000Y-71880000I0J1600000D01*
G01*
D24*
X89260000Y-60240000D02*
G75*
G02*
X89470000Y-60450000I0J-210000D01*
G01*
D23*
X91593553Y-61213553D02*
G75*
G02*
X91739995Y-61567107I-353553J-353547D01*
G01*
%TO.N,Master_trigger_in*%
X120450000Y-77920000D02*
X120450000Y-75920000D01*
X79298553Y-74323553D02*
X77596446Y-72621446D01*
D24*
X77435000Y-70630000D02*
X77645000Y-70420000D01*
D23*
X119000000Y-74470000D02*
X79652107Y-74470000D01*
D24*
X78220000Y-69280000D02*
X77705000Y-69280000D01*
X77535000Y-70530000D02*
X77435000Y-70630000D01*
X77705000Y-69280000D02*
X77535000Y-69450000D01*
X77535000Y-69450000D02*
X77535000Y-70530000D01*
D23*
X77450000Y-72267893D02*
X77450000Y-70595000D01*
X120450000Y-75920000D02*
G75*
G03*
X119000000Y-74470000I-1450000J0D01*
G01*
X77596446Y-72621446D02*
G75*
G02*
X77450005Y-72267893I353554J353546D01*
G01*
D24*
X77475000Y-70590000D02*
G75*
G02*
X77435000Y-70630000I-40000J0D01*
G01*
D23*
X79298553Y-74323553D02*
G75*
G03*
X79652107Y-74469995I353547J353553D01*
G01*
D24*
X77645000Y-70420000D02*
G75*
G02*
X77435000Y-70630000I-210000J0D01*
G01*
D23*
%TO.N,+3V3*%
X80470000Y-68880000D02*
X81375000Y-68880000D01*
X78075000Y-67320000D02*
X78075000Y-67760000D01*
X86795000Y-59615000D02*
X86795000Y-59140000D01*
X86600000Y-59810000D02*
X86795000Y-59615000D01*
X78075000Y-67760000D02*
X78270000Y-67955000D01*
X86160000Y-59810000D02*
X86600000Y-59810000D01*
X78270000Y-67955000D02*
X78745000Y-67955000D01*
X87720000Y-57415000D02*
X87720000Y-56510000D01*
D25*
%TO.N,Heim_time_out_1*%
X65910797Y-56426770D02*
X65934027Y-56450000D01*
X77232893Y-56742893D02*
X83067107Y-62577107D01*
X65934027Y-56450000D02*
X76525786Y-56450000D01*
X83774214Y-62870000D02*
X87080000Y-62870000D01*
X83067107Y-62577107D02*
G75*
G03*
X83774214Y-62869990I707093J707107D01*
G01*
X76525786Y-56450000D02*
G75*
G02*
X77232900Y-56742886I14J-1000000D01*
G01*
%TO.N,Heim_time_out_2*%
X77762893Y-55752893D02*
X80867107Y-58857107D01*
X81574214Y-59150000D02*
X82770000Y-59150000D01*
X66280000Y-55460000D02*
X77055786Y-55460000D01*
X80867107Y-58857107D02*
G75*
G03*
X81574214Y-59149990I707093J707107D01*
G01*
X77762893Y-55752893D02*
G75*
G03*
X77055786Y-55460010I-707093J-707107D01*
G01*
%TO.N,Heim_time_out_3*%
X81077107Y-57637107D02*
X78940000Y-55500000D01*
X77475786Y-54450000D02*
X66250000Y-54450000D01*
X82750000Y-57930000D02*
X81784214Y-57930000D01*
X78940000Y-55500000D02*
X78182893Y-54742893D01*
X78182893Y-54742893D02*
G75*
G03*
X77475786Y-54450010I-707093J-707107D01*
G01*
X81784214Y-57930000D02*
G75*
G02*
X81077100Y-57637114I-14J1000000D01*
G01*
%TO.N,Heim_time_out_4*%
X83495786Y-53450000D02*
X66070000Y-53450000D01*
X86480000Y-54810000D02*
X85684214Y-54810000D01*
X84977107Y-54517107D02*
X84202893Y-53742893D01*
X83495786Y-53450000D02*
G75*
G02*
X84202900Y-53742886I14J-1000000D01*
G01*
X85684214Y-54810000D02*
G75*
G02*
X84977100Y-54517114I-14J1000000D01*
G01*
D23*
%TO.N,Net-(U1-CLK_OUT1)*%
X87040000Y-61870000D02*
X87080000Y-61910000D01*
X87320000Y-59665000D02*
X87320000Y-59980000D01*
X87320000Y-59980000D02*
X87040000Y-60260000D01*
X87040000Y-61010000D02*
X87040000Y-61870000D01*
X87040000Y-60260000D02*
X87040000Y-61010000D01*
D25*
%TO.N,Master_trigger_out_1*%
X75015000Y-68240000D02*
X75015000Y-63599214D01*
X65891275Y-60440000D02*
X65890507Y-60440768D01*
X71855786Y-60440000D02*
X65891275Y-60440000D01*
X74722107Y-62892107D02*
X72562893Y-60732893D01*
X71855786Y-60440000D02*
G75*
G02*
X72562900Y-60732886I14J-1000000D01*
G01*
X75015000Y-63599214D02*
G75*
G03*
X74722114Y-62892100I-1000000J14D01*
G01*
D23*
%TO.N,Net-(U3-CLK_OUT1)*%
X76015000Y-68200000D02*
X75975000Y-68240000D01*
X76875000Y-68200000D02*
X76015000Y-68200000D01*
X78220000Y-68480000D02*
X77905000Y-68480000D01*
X77905000Y-68480000D02*
X77625000Y-68200000D01*
X77625000Y-68200000D02*
X76875000Y-68200000D01*
%TO.N,Net-(U3-CLK_OUT2)*%
X78775000Y-64930000D02*
X78735000Y-64890000D01*
X79145000Y-67410000D02*
X78775000Y-67040000D01*
X78775000Y-65790000D02*
X78775000Y-64930000D01*
X79145000Y-67955000D02*
X79145000Y-67410000D01*
X78775000Y-67040000D02*
X78775000Y-65790000D01*
D25*
%TO.N,Master_trigger_out_2*%
X78735000Y-63930000D02*
X78124732Y-63930000D01*
X77894730Y-63834730D02*
X73802893Y-59742893D01*
X73095786Y-59450000D02*
X65920000Y-59450000D01*
X73802893Y-59742893D02*
G75*
G03*
X73095786Y-59450010I-707093J-707107D01*
G01*
X77894730Y-63834730D02*
G75*
G03*
X78124732Y-63929969I229970J230030D01*
G01*
D23*
%TO.N,Net-(U3-CLK_OUT3)*%
X79545000Y-67400000D02*
X79915000Y-67030000D01*
X79915000Y-65780000D02*
X79915000Y-64910000D01*
X79545000Y-67955000D02*
X79545000Y-67400000D01*
X79915000Y-64910000D02*
X79955000Y-64870000D01*
X79915000Y-67030000D02*
X79915000Y-65780000D01*
D25*
%TO.N,Master_trigger_out_3*%
X74645786Y-58450000D02*
X66010000Y-58450000D01*
X79955000Y-63910000D02*
X79955000Y-63457070D01*
X79875755Y-63265755D02*
X75352893Y-58742893D01*
X79955000Y-63457070D02*
G75*
G03*
X79875748Y-63265762I-270600J-30D01*
G01*
X75352893Y-58742893D02*
G75*
G03*
X74645786Y-58450010I-707093J-707107D01*
G01*
D23*
%TO.N,Net-(U3-CLK_OUT4)*%
X80470000Y-67895000D02*
X80470000Y-68480000D01*
X80685000Y-67680000D02*
X80470000Y-67895000D01*
X81215000Y-67680000D02*
X80685000Y-67680000D01*
X82115000Y-67640000D02*
X81255000Y-67640000D01*
X81255000Y-67640000D02*
X81215000Y-67680000D01*
D25*
%TO.N,Master_trigger_out_4*%
X75817198Y-57451412D02*
X65913783Y-57451412D01*
X83075000Y-67640000D02*
X83075000Y-64699214D01*
X82782107Y-63992107D02*
X82772107Y-63992107D01*
X82772107Y-63992107D02*
X76524305Y-57744305D01*
X76524305Y-57744305D02*
G75*
G03*
X75817198Y-57451410I-707105J-707095D01*
G01*
X83075000Y-64699214D02*
G75*
G03*
X82782114Y-63992100I-1000000J14D01*
G01*
D23*
%TO.N,Net-(U1-CLK_OUT2)*%
X85880000Y-59110000D02*
X84630000Y-59110000D01*
X84630000Y-59110000D02*
X83770000Y-59110000D01*
X83770000Y-59110000D02*
X83730000Y-59150000D01*
X86250000Y-58740000D02*
X85880000Y-59110000D01*
X86795000Y-58740000D02*
X86250000Y-58740000D01*
%TO.N,Net-(U1-CLK_OUT3)*%
X83750000Y-57970000D02*
X83710000Y-57930000D01*
X84620000Y-57970000D02*
X83750000Y-57970000D01*
X86240000Y-58340000D02*
X85870000Y-57970000D01*
X86795000Y-58340000D02*
X86240000Y-58340000D01*
X85870000Y-57970000D02*
X84620000Y-57970000D01*
%TO.N,Net-(U1-CLK_OUT4)*%
X86480000Y-56630000D02*
X86520000Y-56670000D01*
X86735000Y-57415000D02*
X87320000Y-57415000D01*
X86480000Y-55770000D02*
X86480000Y-56630000D01*
X86520000Y-57200000D02*
X86735000Y-57415000D01*
X86520000Y-56670000D02*
X86520000Y-57200000D01*
%TD*%
%TA.AperFunction,Conductor*%
%TO.N,+3V3*%
G36*
X80725101Y-69604352D02*
G01*
X80739453Y-69639000D01*
X80739450Y-69639544D01*
X80730538Y-70441544D01*
X80715802Y-70476031D01*
X80681541Y-70490000D01*
X79889000Y-70490000D01*
X79854352Y-70475648D01*
X79840000Y-70441000D01*
X79840000Y-69960296D01*
X79854352Y-69925648D01*
X80175648Y-69604352D01*
X80210296Y-69590000D01*
X80690453Y-69590000D01*
X80725101Y-69604352D01*
G37*
%TD.AperFunction*%
%TD*%
%TA.AperFunction,Conductor*%
%TO.N,+3V3*%
G36*
X90205648Y-58394352D02*
G01*
X90220000Y-58429000D01*
X90220000Y-59891000D01*
X90205648Y-59925648D01*
X90171000Y-59940000D01*
X88469000Y-59940000D01*
X88434352Y-59925648D01*
X88420000Y-59891000D01*
X88420000Y-59405703D01*
X88429127Y-59377222D01*
X88670000Y-59040000D01*
X88760721Y-58677116D01*
X88783048Y-58646983D01*
X88808258Y-58640000D01*
X89319999Y-58640000D01*
X89320000Y-58640000D01*
X89434289Y-58537533D01*
X89448230Y-58528758D01*
X89493576Y-58509976D01*
X89565794Y-58437756D01*
X89569996Y-58434015D01*
X89572688Y-58431881D01*
X89588902Y-58422382D01*
X89623712Y-58391455D01*
X89624800Y-58390594D01*
X89634979Y-58387696D01*
X89655229Y-58380000D01*
X90171000Y-58380000D01*
X90205648Y-58394352D01*
G37*
%TD.AperFunction*%
%TD*%
%TA.AperFunction,Conductor*%
%TO.N,+3V3*%
G36*
X78507778Y-69589127D02*
G01*
X78845000Y-69830000D01*
X79207884Y-69920721D01*
X79238017Y-69943048D01*
X79245000Y-69968258D01*
X79245000Y-70480001D01*
X79347458Y-70594282D01*
X79356244Y-70608239D01*
X79375024Y-70653577D01*
X79375025Y-70653578D01*
X79447226Y-70725778D01*
X79450984Y-70729996D01*
X79453117Y-70732688D01*
X79462616Y-70748899D01*
X79493551Y-70783720D01*
X79494406Y-70784799D01*
X79497303Y-70794976D01*
X79505000Y-70815229D01*
X79505000Y-71331000D01*
X79490648Y-71365648D01*
X79456000Y-71380000D01*
X77994000Y-71380000D01*
X77959352Y-71365648D01*
X77945000Y-71331000D01*
X77945000Y-69629000D01*
X77959352Y-69594352D01*
X77994000Y-69580000D01*
X78479297Y-69580000D01*
X78507778Y-69589127D01*
G37*
%TD.AperFunction*%
%TD*%
%TA.AperFunction,Conductor*%
%TO.N,+3V3*%
G36*
X88469456Y-57140549D02*
G01*
X89271545Y-57149461D01*
X89306031Y-57164197D01*
X89320000Y-57198458D01*
X89320000Y-57991000D01*
X89305648Y-58025648D01*
X89271000Y-58040000D01*
X88790296Y-58040000D01*
X88755648Y-58025648D01*
X88434352Y-57704352D01*
X88420000Y-57669704D01*
X88420000Y-57189547D01*
X88434352Y-57154899D01*
X88469000Y-57140547D01*
X88469456Y-57140549D01*
G37*
%TD.AperFunction*%
%TD*%
%TA.AperFunction,Conductor*%
%TO.N,GND*%
G36*
X86345233Y-57459329D02*
G01*
X86345626Y-57459967D01*
X86387428Y-57533109D01*
X86388111Y-57534519D01*
X86398222Y-57559543D01*
X86414005Y-57598604D01*
X86440873Y-57662665D01*
X86440876Y-57662671D01*
X86440878Y-57662675D01*
X86472065Y-57711229D01*
X86516653Y-57761419D01*
X86519586Y-57769879D01*
X86516179Y-57777462D01*
X86389995Y-57903646D01*
X86381722Y-57907073D01*
X86374371Y-57904475D01*
X86288671Y-57835256D01*
X86211462Y-57801099D01*
X86211455Y-57801096D01*
X86211452Y-57801095D01*
X86184519Y-57791024D01*
X86183160Y-57790414D01*
X86073455Y-57732569D01*
X86067735Y-57725679D01*
X86068563Y-57716763D01*
X86069152Y-57715768D01*
X86072153Y-57711229D01*
X86171120Y-57561531D01*
X86174423Y-57558228D01*
X86329022Y-57456020D01*
X86337812Y-57454317D01*
X86345233Y-57459329D01*
G37*
%TD.AperFunction*%
%TD*%
%TA.AperFunction,Conductor*%
%TO.N,GND*%
G36*
X80168236Y-67228562D02*
G01*
X80169223Y-67229146D01*
X80323465Y-67331118D01*
X80326773Y-67334426D01*
X80428978Y-67489021D01*
X80430682Y-67497812D01*
X80425670Y-67505233D01*
X80425024Y-67505631D01*
X80351896Y-67547424D01*
X80350477Y-67548113D01*
X80286395Y-67574005D01*
X80222333Y-67600873D01*
X80222320Y-67600880D01*
X80173771Y-67632064D01*
X80123581Y-67676653D01*
X80115120Y-67679586D01*
X80107537Y-67676179D01*
X79981353Y-67549995D01*
X79977926Y-67541722D01*
X79980522Y-67534373D01*
X80049743Y-67448671D01*
X80083900Y-67371463D01*
X80093977Y-67344512D01*
X80094580Y-67343168D01*
X80152432Y-67233452D01*
X80159320Y-67227734D01*
X80168236Y-67228562D01*
G37*
%TD.AperFunction*%
%TD*%
%TA.AperFunction,Conductor*%
%TO.N,GND*%
G36*
X79683768Y-70535775D02*
G01*
X79769470Y-70604995D01*
X79846679Y-70639152D01*
X79873621Y-70649226D01*
X79874978Y-70649835D01*
X79914336Y-70670588D01*
X79984686Y-70707682D01*
X79990406Y-70714572D01*
X79989578Y-70723488D01*
X79988989Y-70724483D01*
X79887023Y-70878717D01*
X79883715Y-70882025D01*
X79729121Y-70984230D01*
X79720330Y-70985934D01*
X79712909Y-70980922D01*
X79712511Y-70980276D01*
X79670716Y-70907147D01*
X79670026Y-70905724D01*
X79644150Y-70841681D01*
X79617263Y-70777576D01*
X79586077Y-70729023D01*
X79541487Y-70678831D01*
X79538555Y-70670372D01*
X79541961Y-70662790D01*
X79668147Y-70536604D01*
X79676419Y-70533178D01*
X79683768Y-70535775D01*
G37*
%TD.AperFunction*%
%TD*%
%TA.AperFunction,Conductor*%
%TO.N,GND*%
G36*
X89563488Y-57895420D02*
G01*
X89564475Y-57896004D01*
X89718717Y-57997976D01*
X89722025Y-58001284D01*
X89824230Y-58155879D01*
X89825934Y-58164670D01*
X89820922Y-58172091D01*
X89820276Y-58172489D01*
X89747148Y-58214282D01*
X89745729Y-58214971D01*
X89681647Y-58240863D01*
X89617585Y-58267731D01*
X89617572Y-58267738D01*
X89569023Y-58298922D01*
X89518833Y-58343511D01*
X89510372Y-58346444D01*
X89502789Y-58343037D01*
X89376605Y-58216853D01*
X89373178Y-58208580D01*
X89375774Y-58201231D01*
X89444995Y-58115529D01*
X89479152Y-58038321D01*
X89489229Y-58011370D01*
X89489832Y-58010026D01*
X89547684Y-57900310D01*
X89554572Y-57894592D01*
X89563488Y-57895420D01*
G37*
%TD.AperFunction*%
%TD*%
%TA.AperFunction,Conductor*%
%TO.N,Heim_time_in*%
G36*
X121547752Y-76277270D02*
G01*
X121551113Y-76284305D01*
X121562766Y-76393844D01*
X121562767Y-76393848D01*
X121593206Y-76472589D01*
X121593212Y-76472602D01*
X121605134Y-76498767D01*
X121605664Y-76500159D01*
X121642337Y-76618641D01*
X121641509Y-76627557D01*
X121634619Y-76633277D01*
X121633499Y-76633564D01*
X121452339Y-76670522D01*
X121447661Y-76670522D01*
X121266076Y-76633477D01*
X121258655Y-76628465D01*
X121256951Y-76619674D01*
X121257122Y-76618953D01*
X121279285Y-76537668D01*
X121279802Y-76536179D01*
X121295091Y-76500159D01*
X121306791Y-76472595D01*
X121333108Y-76408254D01*
X121345388Y-76351870D01*
X121349349Y-76284852D01*
X121353258Y-76276796D01*
X121361029Y-76273843D01*
X121539479Y-76273843D01*
X121547752Y-76277270D01*
G37*
%TD.AperFunction*%
%TD*%
%TA.AperFunction,Conductor*%
%TO.N,Master_trigger_in*%
G36*
X120547752Y-77527270D02*
G01*
X120551113Y-77534305D01*
X120562766Y-77643844D01*
X120562767Y-77643848D01*
X120593206Y-77722589D01*
X120593212Y-77722602D01*
X120605134Y-77748767D01*
X120605664Y-77750159D01*
X120642337Y-77868641D01*
X120641509Y-77877557D01*
X120634619Y-77883277D01*
X120633499Y-77883564D01*
X120452339Y-77920522D01*
X120447661Y-77920522D01*
X120266076Y-77883477D01*
X120258655Y-77878465D01*
X120256951Y-77869674D01*
X120257122Y-77868953D01*
X120279285Y-77787668D01*
X120279802Y-77786179D01*
X120295091Y-77750159D01*
X120306791Y-77722595D01*
X120333108Y-77658254D01*
X120345388Y-77601870D01*
X120349349Y-77534852D01*
X120353258Y-77526796D01*
X120361029Y-77523843D01*
X120539479Y-77523843D01*
X120547752Y-77527270D01*
G37*
%TD.AperFunction*%
%TD*%
%TA.AperFunction,Conductor*%
%TO.N,+3V3*%
G36*
X81332557Y-68688490D02*
G01*
X81338277Y-68695380D01*
X81338564Y-68696500D01*
X81375522Y-68877661D01*
X81375522Y-68882339D01*
X81338477Y-69063923D01*
X81333465Y-69071344D01*
X81324674Y-69073048D01*
X81323935Y-69072872D01*
X81242672Y-69050715D01*
X81241179Y-69050197D01*
X81177584Y-69023204D01*
X81113256Y-68996892D01*
X81056871Y-68984612D01*
X80989852Y-68980650D01*
X80981796Y-68976740D01*
X80978843Y-68968970D01*
X80978843Y-68790521D01*
X80982270Y-68782248D01*
X80989305Y-68778887D01*
X80994977Y-68778283D01*
X81098848Y-68767233D01*
X81177595Y-68736791D01*
X81203776Y-68724860D01*
X81205157Y-68724335D01*
X81323642Y-68687662D01*
X81332557Y-68688490D01*
G37*
%TD.AperFunction*%
%TD*%
%TA.AperFunction,Conductor*%
%TO.N,+3V3*%
G36*
X87903923Y-56546522D02*
G01*
X87911344Y-56551534D01*
X87913048Y-56560325D01*
X87912872Y-56561064D01*
X87890715Y-56642326D01*
X87890197Y-56643819D01*
X87863216Y-56707386D01*
X87836891Y-56771744D01*
X87824612Y-56828127D01*
X87820651Y-56895147D01*
X87816742Y-56903204D01*
X87808971Y-56906157D01*
X87630521Y-56906157D01*
X87622248Y-56902730D01*
X87618887Y-56895695D01*
X87607233Y-56786151D01*
X87576792Y-56707409D01*
X87576790Y-56707404D01*
X87564864Y-56681230D01*
X87564334Y-56679838D01*
X87527662Y-56561356D01*
X87528490Y-56552442D01*
X87535380Y-56546722D01*
X87536483Y-56546439D01*
X87717662Y-56509477D01*
X87722338Y-56509477D01*
X87903923Y-56546522D01*
G37*
%TD.AperFunction*%
%TD*%
%TA.AperFunction,Conductor*%
%TO.N,Heim_time_out_1*%
G36*
X65962393Y-56234912D02*
G01*
X66048517Y-56264350D01*
X66050091Y-56264888D01*
X66052824Y-56266242D01*
X66116994Y-56309282D01*
X66196515Y-56357745D01*
X66196516Y-56357745D01*
X66196518Y-56357746D01*
X66220304Y-56364044D01*
X66244093Y-56370343D01*
X66296118Y-56374197D01*
X66304116Y-56378226D01*
X66306954Y-56385865D01*
X66306954Y-56514504D01*
X66303527Y-56522777D01*
X66296519Y-56526135D01*
X66187205Y-56538025D01*
X66187196Y-56538027D01*
X66108748Y-56569014D01*
X66080707Y-56582037D01*
X66079259Y-56582595D01*
X65962171Y-56619076D01*
X65953253Y-56618266D01*
X65947521Y-56611386D01*
X65947230Y-56610258D01*
X65910274Y-56429108D01*
X65910274Y-56424431D01*
X65919700Y-56378226D01*
X65947156Y-56243645D01*
X65952167Y-56236226D01*
X65960958Y-56234522D01*
X65962393Y-56234912D01*
G37*
%TD.AperFunction*%
%TD*%
%TA.AperFunction,Conductor*%
%TO.N,Heim_time_out_2*%
G36*
X66331337Y-55267646D02*
G01*
X66416580Y-55293962D01*
X66418755Y-55294883D01*
X66483138Y-55330219D01*
X66556692Y-55367929D01*
X66556696Y-55367931D01*
X66607666Y-55380366D01*
X66665248Y-55384261D01*
X66673270Y-55388238D01*
X66676157Y-55395934D01*
X66676157Y-55524049D01*
X66672730Y-55532322D01*
X66665230Y-55535723D01*
X66608828Y-55539458D01*
X66608822Y-55539459D01*
X66558464Y-55551456D01*
X66483120Y-55589790D01*
X66483116Y-55589792D01*
X66436490Y-55616612D01*
X66434368Y-55617566D01*
X66331552Y-55651963D01*
X66322619Y-55651338D01*
X66316744Y-55644579D01*
X66316376Y-55643206D01*
X66279477Y-55462339D01*
X66279477Y-55457661D01*
X66293640Y-55388238D01*
X66316438Y-55276488D01*
X66321449Y-55269069D01*
X66330240Y-55267365D01*
X66331337Y-55267646D01*
G37*
%TD.AperFunction*%
%TD*%
%TA.AperFunction,Conductor*%
%TO.N,Heim_time_out_3*%
G36*
X66301337Y-54257646D02*
G01*
X66386580Y-54283962D01*
X66388755Y-54284883D01*
X66453138Y-54320219D01*
X66526692Y-54357929D01*
X66526696Y-54357931D01*
X66577666Y-54370366D01*
X66635248Y-54374261D01*
X66643270Y-54378238D01*
X66646157Y-54385934D01*
X66646157Y-54514049D01*
X66642730Y-54522322D01*
X66635230Y-54525723D01*
X66578828Y-54529458D01*
X66578822Y-54529459D01*
X66528464Y-54541456D01*
X66453120Y-54579790D01*
X66453116Y-54579792D01*
X66406490Y-54606612D01*
X66404368Y-54607566D01*
X66301552Y-54641963D01*
X66292619Y-54641338D01*
X66286744Y-54634579D01*
X66286376Y-54633206D01*
X66249477Y-54452339D01*
X66249477Y-54447661D01*
X66263640Y-54378238D01*
X66286438Y-54266488D01*
X66291449Y-54259069D01*
X66300240Y-54257365D01*
X66301337Y-54257646D01*
G37*
%TD.AperFunction*%
%TD*%
%TA.AperFunction,Conductor*%
%TO.N,Heim_time_out_4*%
G36*
X66121337Y-53257646D02*
G01*
X66206580Y-53283962D01*
X66208755Y-53284883D01*
X66273138Y-53320219D01*
X66346692Y-53357929D01*
X66346696Y-53357931D01*
X66397666Y-53370366D01*
X66455248Y-53374261D01*
X66463270Y-53378238D01*
X66466157Y-53385934D01*
X66466157Y-53514049D01*
X66462730Y-53522322D01*
X66455230Y-53525723D01*
X66398828Y-53529458D01*
X66398822Y-53529459D01*
X66348464Y-53541456D01*
X66273120Y-53579790D01*
X66273116Y-53579792D01*
X66226490Y-53606612D01*
X66224368Y-53607566D01*
X66121552Y-53641963D01*
X66112619Y-53641338D01*
X66106744Y-53634579D01*
X66106376Y-53633206D01*
X66069477Y-53452339D01*
X66069477Y-53447661D01*
X66083640Y-53378238D01*
X66106438Y-53266488D01*
X66111449Y-53259069D01*
X66120240Y-53257365D01*
X66121337Y-53257646D01*
G37*
%TD.AperFunction*%
%TD*%
%TA.AperFunction,Conductor*%
%TO.N,Master_trigger_out_1*%
G36*
X65941840Y-60248399D02*
G01*
X66019036Y-60272145D01*
X66026984Y-60274590D01*
X66029142Y-60275499D01*
X66093506Y-60310572D01*
X66166842Y-60347937D01*
X66217945Y-60360367D01*
X66275753Y-60364264D01*
X66283775Y-60368239D01*
X66286664Y-60375937D01*
X66286664Y-60504054D01*
X66283237Y-60512327D01*
X66275743Y-60515728D01*
X66219349Y-60519490D01*
X66169006Y-60531571D01*
X66093749Y-60570152D01*
X66046643Y-60597418D01*
X66044500Y-60598385D01*
X65943911Y-60632103D01*
X65942064Y-60632722D01*
X65933130Y-60632103D01*
X65927252Y-60625348D01*
X65926883Y-60623977D01*
X65889984Y-60443106D01*
X65889984Y-60438429D01*
X65902733Y-60375937D01*
X65926947Y-60257245D01*
X65931959Y-60249825D01*
X65940750Y-60248121D01*
X65941840Y-60248399D01*
G37*
%TD.AperFunction*%
%TD*%
%TA.AperFunction,Conductor*%
%TO.N,Master_trigger_out_2*%
G36*
X65971337Y-59257646D02*
G01*
X66056580Y-59283962D01*
X66058755Y-59284883D01*
X66123138Y-59320219D01*
X66196692Y-59357929D01*
X66196696Y-59357931D01*
X66247666Y-59370366D01*
X66305248Y-59374261D01*
X66313270Y-59378238D01*
X66316157Y-59385934D01*
X66316157Y-59514049D01*
X66312730Y-59522322D01*
X66305230Y-59525723D01*
X66248828Y-59529458D01*
X66248822Y-59529459D01*
X66198464Y-59541456D01*
X66123120Y-59579790D01*
X66123116Y-59579792D01*
X66076490Y-59606612D01*
X66074368Y-59607566D01*
X65971552Y-59641963D01*
X65962619Y-59641338D01*
X65956744Y-59634579D01*
X65956376Y-59633206D01*
X65919477Y-59452339D01*
X65919477Y-59447661D01*
X65933640Y-59378238D01*
X65956438Y-59266488D01*
X65961449Y-59259069D01*
X65970240Y-59257365D01*
X65971337Y-59257646D01*
G37*
%TD.AperFunction*%
%TD*%
%TA.AperFunction,Conductor*%
%TO.N,Master_trigger_out_3*%
G36*
X66061337Y-58257646D02*
G01*
X66146580Y-58283962D01*
X66148755Y-58284883D01*
X66213138Y-58320219D01*
X66286692Y-58357929D01*
X66286696Y-58357931D01*
X66337666Y-58370366D01*
X66395248Y-58374261D01*
X66403270Y-58378238D01*
X66406157Y-58385934D01*
X66406157Y-58514049D01*
X66402730Y-58522322D01*
X66395230Y-58525723D01*
X66338828Y-58529458D01*
X66338822Y-58529459D01*
X66288464Y-58541456D01*
X66213120Y-58579790D01*
X66213116Y-58579792D01*
X66166490Y-58606612D01*
X66164368Y-58607566D01*
X66061552Y-58641963D01*
X66052619Y-58641338D01*
X66046744Y-58634579D01*
X66046376Y-58633206D01*
X66009477Y-58452339D01*
X66009477Y-58447661D01*
X66023640Y-58378238D01*
X66046438Y-58266488D01*
X66051449Y-58259069D01*
X66060240Y-58257365D01*
X66061337Y-58257646D01*
G37*
%TD.AperFunction*%
%TD*%
%TA.AperFunction,Conductor*%
%TO.N,Master_trigger_out_4*%
G36*
X65965120Y-57259058D02*
G01*
X66050363Y-57285374D01*
X66052538Y-57286295D01*
X66116921Y-57321631D01*
X66190475Y-57359341D01*
X66190479Y-57359343D01*
X66241449Y-57371778D01*
X66299031Y-57375673D01*
X66307053Y-57379650D01*
X66309940Y-57387346D01*
X66309940Y-57515461D01*
X66306513Y-57523734D01*
X66299013Y-57527135D01*
X66242611Y-57530870D01*
X66242605Y-57530871D01*
X66192247Y-57542868D01*
X66116903Y-57581202D01*
X66116899Y-57581204D01*
X66070273Y-57608024D01*
X66068151Y-57608978D01*
X65965335Y-57643375D01*
X65956402Y-57642750D01*
X65950527Y-57635991D01*
X65950159Y-57634618D01*
X65913260Y-57453751D01*
X65913260Y-57449073D01*
X65927423Y-57379650D01*
X65950221Y-57267900D01*
X65955232Y-57260481D01*
X65964023Y-57258777D01*
X65965120Y-57259058D01*
G37*
%TD.AperFunction*%
%TD*%
M02*
