%TF.GenerationSoftware,KiCad,Pcbnew,9.0.1*%
%TF.CreationDate,2025-05-20T09:40:34+02:00*%
%TF.ProjectId,Card_Adapter_Flex_AddOn,43617264-5f41-4646-9170-7465725f466c,0*%
%TF.SameCoordinates,Original*%
%TF.FileFunction,Paste,Top*%
%TF.FilePolarity,Positive*%
%FSLAX46Y46*%
G04 Gerber Fmt 4.6, Leading zero omitted, Abs format (unit mm)*
G04 Created by KiCad (PCBNEW 9.0.1) date 2025-05-20 09:40:34*
%MOMM*%
%LPD*%
G01*
G04 APERTURE LIST*
G04 Aperture macros list*
%AMRoundRect*
0 Rectangle with rounded corners*
0 $1 Rounding radius*
0 $2 $3 $4 $5 $6 $7 $8 $9 X,Y pos of 4 corners*
0 Add a 4 corners polygon primitive as box body*
4,1,4,$2,$3,$4,$5,$6,$7,$8,$9,$2,$3,0*
0 Add four circle primitives for the rounded corners*
1,1,$1+$1,$2,$3*
1,1,$1+$1,$4,$5*
1,1,$1+$1,$6,$7*
1,1,$1+$1,$8,$9*
0 Add four rect primitives between the rounded corners*
20,1,$1+$1,$2,$3,$4,$5,0*
20,1,$1+$1,$4,$5,$6,$7,0*
20,1,$1+$1,$6,$7,$8,$9,0*
20,1,$1+$1,$8,$9,$2,$3,0*%
%AMOutline5P*
0 Free polygon, 5 corners , with rotation*
0 The origin of the aperture is its center*
0 number of corners: always 5*
0 $1 to $10 corner X, Y*
0 $11 Rotation angle, in degrees counterclockwise*
0 create outline with 5 corners*
4,1,5,$1,$2,$3,$4,$5,$6,$7,$8,$9,$10,$1,$2,$11*%
%AMOutline6P*
0 Free polygon, 6 corners , with rotation*
0 The origin of the aperture is its center*
0 number of corners: always 6*
0 $1 to $12 corner X, Y*
0 $13 Rotation angle, in degrees counterclockwise*
0 create outline with 6 corners*
4,1,6,$1,$2,$3,$4,$5,$6,$7,$8,$9,$10,$11,$12,$1,$2,$13*%
%AMOutline7P*
0 Free polygon, 7 corners , with rotation*
0 The origin of the aperture is its center*
0 number of corners: always 7*
0 $1 to $14 corner X, Y*
0 $15 Rotation angle, in degrees counterclockwise*
0 create outline with 7 corners*
4,1,7,$1,$2,$3,$4,$5,$6,$7,$8,$9,$10,$11,$12,$13,$14,$1,$2,$15*%
%AMOutline8P*
0 Free polygon, 8 corners , with rotation*
0 The origin of the aperture is its center*
0 number of corners: always 8*
0 $1 to $16 corner X, Y*
0 $17 Rotation angle, in degrees counterclockwise*
0 create outline with 8 corners*
4,1,8,$1,$2,$3,$4,$5,$6,$7,$8,$9,$10,$11,$12,$13,$14,$15,$16,$1,$2,$17*%
G04 Aperture macros list end*
%ADD10RoundRect,0.140000X-0.170000X0.140000X-0.170000X-0.140000X0.170000X-0.140000X0.170000X0.140000X0*%
%ADD11RoundRect,0.140000X0.140000X0.170000X-0.140000X0.170000X-0.140000X-0.170000X0.140000X-0.170000X0*%
%ADD12RoundRect,0.135000X-0.135000X-0.185000X0.135000X-0.185000X0.135000X0.185000X-0.135000X0.185000X0*%
%ADD13RoundRect,0.140000X-0.140000X-0.170000X0.140000X-0.170000X0.140000X0.170000X-0.140000X0.170000X0*%
%ADD14RoundRect,0.140000X0.170000X-0.140000X0.170000X0.140000X-0.170000X0.140000X-0.170000X-0.140000X0*%
%ADD15RoundRect,0.135000X0.135000X0.185000X-0.135000X0.185000X-0.135000X-0.185000X0.135000X-0.185000X0*%
%ADD16Outline5P,-0.100000X0.325000X0.100000X0.325000X0.100000X-0.225000X0.000000X-0.325000X-0.100000X-0.325000X180.000000*%
%ADD17R,0.200000X0.550000*%
%ADD18R,0.550000X0.200000*%
%ADD19RoundRect,0.135000X0.185000X-0.135000X0.185000X0.135000X-0.185000X0.135000X-0.185000X-0.135000X0*%
%ADD20Outline5P,-0.100000X0.325000X0.100000X0.325000X0.100000X-0.225000X0.000000X-0.325000X-0.100000X-0.325000X270.000000*%
%ADD21RoundRect,0.135000X-0.185000X0.135000X-0.185000X-0.135000X0.185000X-0.135000X0.185000X0.135000X0*%
G04 APERTURE END LIST*
D10*
%TO.C,C19*%
X78735000Y-63930000D03*
X78735000Y-64890000D03*
%TD*%
D11*
%TO.C,C17*%
X82335000Y-68880000D03*
X81375000Y-68880000D03*
%TD*%
D12*
%TO.C,R12*%
X76430000Y-70595000D03*
X77450000Y-70595000D03*
%TD*%
D13*
%TO.C,C15*%
X77115000Y-67320000D03*
X78075000Y-67320000D03*
%TD*%
D14*
%TO.C,C11*%
X87080000Y-62870000D03*
X87080000Y-61910000D03*
%TD*%
D15*
%TO.C,R14*%
X80935000Y-65780000D03*
X79915000Y-65780000D03*
%TD*%
D14*
%TO.C,C1*%
X86160000Y-60770000D03*
X86160000Y-59810000D03*
%TD*%
D10*
%TO.C,C14*%
X86480000Y-54810000D03*
X86480000Y-55770000D03*
%TD*%
D13*
%TO.C,C18*%
X75015000Y-68240000D03*
X75975000Y-68240000D03*
%TD*%
%TO.C,C12*%
X82770000Y-59150000D03*
X83730000Y-59150000D03*
%TD*%
D16*
%TO.C,U3*%
X78745000Y-70155000D03*
D17*
X79145000Y-70205000D03*
X79545000Y-70205000D03*
X79945000Y-70205000D03*
D18*
X80470000Y-69680000D03*
X80470000Y-69280000D03*
X80470000Y-68880000D03*
X80470000Y-68480000D03*
D17*
X79945000Y-67955000D03*
X79545000Y-67955000D03*
X79145000Y-67955000D03*
X78745000Y-67955000D03*
D18*
X78220000Y-68480000D03*
X78220000Y-68880000D03*
X78220000Y-69280000D03*
X78220000Y-69680000D03*
%TD*%
D11*
%TO.C,C2*%
X90900000Y-58740000D03*
X89940000Y-58740000D03*
%TD*%
D19*
%TO.C,R3*%
X84630000Y-60130000D03*
X84630000Y-59110000D03*
%TD*%
D20*
%TO.C,U1*%
X88995000Y-59140000D03*
D18*
X89045000Y-58740000D03*
X89045000Y-58340000D03*
X89045000Y-57940000D03*
D17*
X88520000Y-57415000D03*
X88120000Y-57415000D03*
X87720000Y-57415000D03*
X87320000Y-57415000D03*
D18*
X86795000Y-57940000D03*
X86795000Y-58340000D03*
X86795000Y-58740000D03*
X86795000Y-59140000D03*
D17*
X87320000Y-59665000D03*
X87720000Y-59665000D03*
X88120000Y-59665000D03*
X88520000Y-59665000D03*
%TD*%
D15*
%TO.C,R4*%
X88060000Y-61010000D03*
X87040000Y-61010000D03*
%TD*%
D12*
%TO.C,R1*%
X85500000Y-56670000D03*
X86520000Y-56670000D03*
%TD*%
D14*
%TO.C,C16*%
X79145000Y-72060000D03*
X79145000Y-71100000D03*
%TD*%
D21*
%TO.C,R2*%
X84620000Y-56950000D03*
X84620000Y-57970000D03*
%TD*%
D13*
%TO.C,C13*%
X82750000Y-57930000D03*
X83710000Y-57930000D03*
%TD*%
D10*
%TO.C,C3*%
X87720000Y-55550000D03*
X87720000Y-56510000D03*
%TD*%
D19*
%TO.C,R11*%
X89470000Y-61470000D03*
X89470000Y-60450000D03*
%TD*%
%TO.C,R16*%
X76875000Y-69220000D03*
X76875000Y-68200000D03*
%TD*%
D11*
%TO.C,C21*%
X83075000Y-67640000D03*
X82115000Y-67640000D03*
%TD*%
D21*
%TO.C,R13*%
X81215000Y-66660000D03*
X81215000Y-67680000D03*
%TD*%
D12*
%TO.C,R15*%
X77755000Y-65790000D03*
X78775000Y-65790000D03*
%TD*%
D10*
%TO.C,C20*%
X79955000Y-63910000D03*
X79955000Y-64870000D03*
%TD*%
M02*
