%TF.GenerationSoftware,KiCad,Pcbnew,9.0.1*%
%TF.CreationDate,2025-05-14T13:37:06+02:00*%
%TF.ProjectId,Card_Adapter_Flex_AddOn,43617264-5f41-4646-9170-7465725f466c,0*%
%TF.SameCoordinates,Original*%
%TF.FileFunction,Profile,NP*%
%FSLAX46Y46*%
G04 Gerber Fmt 4.6, Leading zero omitted, Abs format (unit mm)*
G04 Created by KiCad (PCBNEW 9.0.1) date 2025-05-14 13:37:06*
%MOMM*%
%LPD*%
G01*
G04 APERTURE LIST*
%TA.AperFunction,Profile*%
%ADD10C,0.050000*%
%TD*%
G04 APERTURE END LIST*
D10*
X93610000Y-72470000D02*
G75*
G02*
X92860000Y-71720000I0J750000D01*
G01*
X92860000Y-71720000D02*
X92860000Y-53200000D01*
X119950000Y-79470000D02*
X119950000Y-75920000D01*
X119000000Y-74970000D02*
G75*
G02*
X119950000Y-75920000I0J-950000D01*
G01*
X73610000Y-74970000D02*
G75*
G02*
X72860000Y-74220000I0J750000D01*
G01*
X119000000Y-72470000D02*
X93610000Y-72470000D01*
X119000000Y-74970000D02*
X73610000Y-74970000D01*
X72860000Y-74220000D02*
X72860000Y-62200000D01*
X72110000Y-61450000D02*
G75*
G02*
X72860000Y-62200000I0J-750000D01*
G01*
X92110000Y-52450000D02*
G75*
G02*
X92860000Y-53200000I0J-750000D01*
G01*
X65100000Y-52450000D02*
X92110000Y-52450000D01*
X122450000Y-79470000D02*
X122450000Y-75920000D01*
X72110000Y-61450000D02*
X65100000Y-61450000D01*
X119000000Y-72470000D02*
G75*
G02*
X122450000Y-75920000I0J-3450000D01*
G01*
%TO.C,J2*%
X119950000Y-79470000D02*
X119950000Y-81170000D01*
X120250000Y-81470000D02*
X122150000Y-81470000D01*
X122450000Y-81170000D02*
X122450000Y-79470000D01*
X120250000Y-81470000D02*
G75*
G02*
X119950000Y-81170000I0J300000D01*
G01*
X122450000Y-81170000D02*
G75*
G02*
X122150000Y-81470000I-300000J0D01*
G01*
%TO.C,J1*%
X63100000Y-52750000D02*
X63100000Y-61150000D01*
X63400000Y-61450000D02*
X65100000Y-61450000D01*
X65100000Y-52450000D02*
X63400000Y-52450000D01*
X63100000Y-52750000D02*
G75*
G02*
X63400000Y-52450000I300000J0D01*
G01*
X63400000Y-61450000D02*
G75*
G02*
X63100000Y-61150000I0J300000D01*
G01*
%TD*%
M02*
