M48
; DRILL file {KiCad 8.0.2} date 2024-07-11T13:13:56+0200
; FORMAT={-:-/ absolute / inch / decimal}
; #@! TF.CreationDate,2024-07-11T13:13:56+02:00
; #@! TF.GenerationSoftware,Kicad,Pcbnew,8.0.2
; #@! TF.FileFunction,Plated,1,3,Blind
FMAT,2
INCH
; #@! TA.AperFunction,Plated,Buried,ViaDrill
T1C0.0079
%
G90
G05
T1
X4.7763Y-2.94
X4.7909Y-2.4035
X4.7909Y-2.561
X4.7909Y-2.6799
X4.7909Y-2.7976
X4.7909Y-2.9165
X4.7921Y-2.4433
X4.7921Y-2.4827
X4.7921Y-2.6008
X4.7921Y-2.6402
X4.7921Y-2.7197
X4.7921Y-2.8374
X4.7921Y-2.8768
X4.796Y-2.9535
X4.8169Y-2.9776
X4.8176Y-2.9406
X4.8185Y-2.3839
X4.8185Y-2.5413
X4.8185Y-2.6602
X4.8185Y-2.778
X4.8185Y-2.8969
X4.8197Y-2.4236
X4.8197Y-2.463
X4.8197Y-2.5811
X4.8197Y-2.6205
X4.8197Y-2.7
X4.8197Y-2.8177
X4.8197Y-2.8571
X4.8433Y-3.5469
X4.8669Y-3.5469
X4.8906Y-3.5469
X4.9142Y-3.5469
X4.9323Y-2.7902
X4.9378Y-3.5469
X4.9583Y-2.8453
X4.9614Y-3.5469
X4.978Y-2.8791
X4.985Y-3.5469
X4.9996Y-2.939
X5.0087Y-3.5469
X5.0205Y-2.9684
X5.0323Y-3.5469
X5.0559Y-3.5469
X5.0795Y-3.5469
X5.1031Y-3.5469
X5.1268Y-3.5469
X5.1504Y-3.5469
X5.1673Y-1.5181
X5.1673Y-1.6756
X5.1677Y-1.5965
X5.1677Y-1.6362
X5.174Y-3.5469
X5.1949Y-1.5378
X5.1949Y-1.6953
X5.1953Y-1.6161
X5.1953Y-1.6559
X5.1976Y-3.5469
X5.2213Y-3.5469
X5.2449Y-3.5469
X5.2685Y-3.5469
X5.2921Y-3.5469
X5.3161Y-3.5472
X5.3394Y-3.5469
X5.363Y-3.5469
X5.3866Y-3.5469
X5.4102Y-3.5469
X5.4339Y-3.5469
X5.4575Y-3.5469
X5.4811Y-3.5469
M30
