%TF.GenerationSoftware,KiCad,Pcbnew,8.0.2*%
%TF.CreationDate,2024-07-11T13:13:48+02:00*%
%TF.ProjectId,HYDRA_VMM3_CARD,48594452-415f-4564-9d4d-335f43415244,rev?*%
%TF.SameCoordinates,Original*%
%TF.FileFunction,Copper,L5,Inr*%
%TF.FilePolarity,Positive*%
%FSLAX46Y46*%
G04 Gerber Fmt 4.6, Leading zero omitted, Abs format (unit mm)*
G04 Created by KiCad (PCBNEW 8.0.2) date 2024-07-11 13:13:48*
%MOMM*%
%LPD*%
G01*
G04 APERTURE LIST*
%TA.AperFunction,ComponentPad*%
%ADD10C,2.000000*%
%TD*%
%TA.AperFunction,ComponentPad*%
%ADD11C,3.800000*%
%TD*%
%TA.AperFunction,ComponentPad*%
%ADD12R,0.850000X0.850000*%
%TD*%
%TA.AperFunction,ComponentPad*%
%ADD13O,0.850000X0.850000*%
%TD*%
%TA.AperFunction,ComponentPad*%
%ADD14C,1.600000*%
%TD*%
%TA.AperFunction,ComponentPad*%
%ADD15R,1.600000X1.600000*%
%TD*%
%TA.AperFunction,ViaPad*%
%ADD16C,0.400000*%
%TD*%
%TA.AperFunction,ViaPad*%
%ADD17C,0.600000*%
%TD*%
%TA.AperFunction,Conductor*%
%ADD18C,1.500000*%
%TD*%
G04 APERTURE END LIST*
D10*
%TO.N,GND*%
%TO.C,15*%
X77748000Y-78380000D03*
%TD*%
%TO.N,GND*%
%TO.C,*%
X138083000Y-34660000D03*
%TD*%
%TO.N,GND*%
%TO.C,16*%
X111423000Y-78380000D03*
%TD*%
%TO.N,GND*%
%TO.C,*%
X135543000Y-78360000D03*
%TD*%
%TO.N,GND*%
%TO.C,*%
X135543000Y-34660000D03*
%TD*%
%TO.N,GND*%
%TO.C,*%
X72668000Y-34680000D03*
%TD*%
%TO.N,GND*%
%TO.C,*%
X133003000Y-34660000D03*
%TD*%
%TO.N,GND*%
%TO.C,11*%
X72668000Y-78380000D03*
%TD*%
%TO.N,GND*%
%TO.C,*%
X75208000Y-37220000D03*
%TD*%
%TO.N,GND*%
%TO.C,*%
X138083000Y-37200000D03*
%TD*%
D11*
%TO.N,GND*%
%TO.C,*%
X139450000Y-57580000D03*
%TD*%
D10*
%TO.N,GND*%
%TO.C,*%
X133003000Y-78360000D03*
%TD*%
%TO.N,GND*%
%TO.C,18*%
X116503000Y-80900000D03*
%TD*%
%TO.N,GND*%
%TO.C,*%
X135543000Y-80900000D03*
%TD*%
%TO.N,GND*%
%TO.C,*%
X135543000Y-37200000D03*
%TD*%
%TO.N,GND*%
%TO.C,22*%
X119043000Y-78360000D03*
%TD*%
%TO.N,GND*%
%TO.C,17*%
X113963000Y-80920000D03*
%TD*%
D12*
%TO.N,I2C_VCC*%
%TO.C,J2*%
X137800000Y-44280000D03*
D13*
%TO.N,Signal_Out*%
X137800000Y-45280000D03*
%TO.N,GND*%
X137800000Y-46280000D03*
%TO.N,SCL*%
X137800000Y-47280000D03*
%TO.N,SDA*%
X137800000Y-48280000D03*
%TO.N,Signal_In*%
X137800000Y-49280000D03*
%TD*%
D10*
%TO.N,GND*%
%TO.C,13*%
X80288000Y-37220000D03*
%TD*%
D11*
%TO.N,GND*%
%TO.C,REF\u002A\u002A3*%
X53050000Y-57580000D03*
%TD*%
D14*
%TO.N,Net-(3.3V1-Pad1)*%
%TO.C,3.3V1*%
X64450000Y-60970000D03*
%TD*%
D10*
%TO.N,GND*%
%TO.C,*%
X72668000Y-37220000D03*
%TD*%
%TO.N,GND*%
%TO.C,*%
X133003000Y-80900000D03*
%TD*%
%TO.N,GND*%
%TO.C,6*%
X119043000Y-34660000D03*
%TD*%
%TO.N,GND*%
%TO.C,*%
X111423000Y-37220000D03*
%TD*%
%TO.N,GND*%
%TO.C,*%
X77748000Y-37220000D03*
%TD*%
%TO.N,GND*%
%TO.C,10*%
X111423000Y-80920000D03*
%TD*%
%TO.N,GND*%
%TO.C,24*%
X80288000Y-78380000D03*
%TD*%
%TO.N,GND*%
%TO.C,9*%
X77748000Y-80920000D03*
%TD*%
%TO.N,GND*%
%TO.C,1*%
X113963000Y-37220000D03*
%TD*%
%TO.N,GND*%
%TO.C,12*%
X75208000Y-78380000D03*
%TD*%
D11*
%TO.N,GND*%
%TO.C,REF\u002A\u002A*%
X39650000Y-35780000D03*
%TD*%
D10*
%TO.N,GND*%
%TO.C,2*%
X116503000Y-37200000D03*
%TD*%
D15*
%TO.N,GND*%
%TO.C,GND1*%
X64450000Y-63510000D03*
%TD*%
D11*
%TO.N,GND*%
%TO.C,*%
X53050000Y-79380000D03*
%TD*%
%TO.N,GND*%
%TO.C,25*%
X39650000Y-79380000D03*
%TD*%
D10*
%TO.N,GND*%
%TO.C,*%
X138083000Y-80900000D03*
%TD*%
%TO.N,GND*%
%TO.C,19*%
X119043000Y-80900000D03*
%TD*%
D11*
%TO.N,GND*%
%TO.C,REF\u002A\u002A2*%
X39650000Y-57580000D03*
%TD*%
D10*
%TO.N,GND*%
%TO.C,5*%
X116503000Y-34660000D03*
%TD*%
%TO.N,GND*%
%TO.C,20*%
X113963000Y-78380000D03*
%TD*%
%TO.N,GND*%
%TO.C,*%
X111423000Y-34680000D03*
%TD*%
%TO.N,GND*%
%TO.C,*%
X77748000Y-34680000D03*
%TD*%
%TO.N,GND*%
%TO.C,*%
X133003000Y-37200000D03*
%TD*%
%TO.N,GND*%
%TO.C,3*%
X119043000Y-37200000D03*
%TD*%
D14*
%TO.N,Net-(1.8V1-Pad1)*%
%TO.C,1.8V1*%
X64450000Y-66050000D03*
%TD*%
D10*
%TO.N,GND*%
%TO.C,4*%
X113963000Y-34680000D03*
%TD*%
D11*
%TO.N,GND*%
%TO.C,REF\u002A\u002A1*%
X53050000Y-35780000D03*
%TD*%
D10*
%TO.N,GND*%
%TO.C,*%
X138083000Y-78360000D03*
%TD*%
%TO.N,GND*%
%TO.C,*%
X75208000Y-34680000D03*
%TD*%
%TO.N,GND*%
%TO.C,8*%
X75208000Y-80920000D03*
%TD*%
%TO.N,GND*%
%TO.C,7*%
X72668000Y-80920000D03*
%TD*%
%TO.N,GND*%
%TO.C,23*%
X80288000Y-80920000D03*
%TD*%
%TO.N,GND*%
%TO.C,14*%
X80288000Y-34680000D03*
%TD*%
%TO.N,GND*%
%TO.C,21*%
X116503000Y-78360000D03*
%TD*%
D16*
%TO.N,P1*%
X74720000Y-66410000D03*
X75460000Y-68700000D03*
X92886000Y-47570000D03*
X74320000Y-67570000D03*
X74700000Y-67920000D03*
X75440000Y-67210000D03*
X75030000Y-68300000D03*
X75440000Y-67910000D03*
X75860000Y-68310000D03*
X73960000Y-67160000D03*
X76260000Y-67910000D03*
X74350000Y-66750000D03*
X75060000Y-66860000D03*
X93876000Y-76440000D03*
X74720000Y-67190000D03*
X75820000Y-67550000D03*
X75090000Y-67550000D03*
%TO.N,Ch_1*%
X74250000Y-43970000D03*
%TO.N,Ch_25*%
X131250000Y-46556000D03*
%TO.N,Ch_13*%
X72400000Y-42220000D03*
%TO.N,Ch_93*%
X131250000Y-66556000D03*
%TO.N,Ch_39*%
X131950000Y-50070000D03*
%TO.N,Ch_119*%
X131950000Y-74070000D03*
%TO.N,Ch_123*%
X131950000Y-75070000D03*
%TO.N,Ch_107*%
X131946000Y-71066000D03*
%TO.N,Ch_73*%
X131250000Y-60556000D03*
%TO.N,Ch_5*%
X72500000Y-45820000D03*
%TO.N,Ch_61*%
X131250000Y-56570000D03*
%TO.N,Ch_127*%
X131761416Y-77055999D03*
%TO.N,Ch_103*%
X131950000Y-69070000D03*
%TO.N,Ch_75*%
X131946000Y-61066000D03*
%TO.N,Ch_21*%
X131250000Y-44556000D03*
%TO.N,Ch_117*%
X131250000Y-73570000D03*
%TO.N,Ch_31*%
X131950000Y-48070000D03*
%TO.N,Ch_79*%
X131950000Y-62070000D03*
%TO.N,Ch_49*%
X131250000Y-53570000D03*
%TO.N,Ch_59*%
X131950000Y-56070000D03*
%TO.N,Ch_41*%
X131250000Y-50570000D03*
%TO.N,Ch_77*%
X131250000Y-61570000D03*
%TO.N,Ch_47*%
X131946000Y-53066000D03*
%TO.N,Ch_53*%
X131250000Y-54556000D03*
%TO.N,Ch_111*%
X131950000Y-72070000D03*
%TO.N,Ch_125*%
X132048000Y-76310000D03*
%TO.N,Ch_11*%
X71141852Y-42782563D03*
%TO.N,Ch_19*%
X131950000Y-44080000D03*
%TO.N,Ch_15*%
X73687437Y-42711852D03*
%TO.N,Ch_121*%
X131250000Y-74570000D03*
%TO.N,Ch_45*%
X131250000Y-52556000D03*
%TO.N,Ch_95*%
X131946000Y-67066000D03*
%TO.N,Ch_9*%
X70650000Y-44070000D03*
%TO.N,Ch_87*%
X131946000Y-65066000D03*
%TO.N,Ch_97*%
X131250000Y-67570000D03*
%TO.N,Ch_67*%
X131946000Y-59066000D03*
%TO.N,Ch_83*%
X131950000Y-63070000D03*
%TO.N,Ch_63*%
X131950000Y-57070000D03*
%TO.N,Ch_99*%
X131950000Y-68070000D03*
%TO.N,Ch_85*%
X131250000Y-64556000D03*
%TO.N,Ch_23*%
X131950000Y-45056000D03*
%TO.N,Ch_69*%
X131250000Y-59570000D03*
%TO.N,Ch_113*%
X131250000Y-72556000D03*
%TO.N,Ch_89*%
X131250000Y-65570000D03*
%TO.N,Ch_37*%
X131250000Y-49570000D03*
%TO.N,Ch_81*%
X131250000Y-62570000D03*
%TO.N,Ch_7*%
X71212563Y-45328148D03*
%TO.N,Ch_43*%
X131950000Y-51070000D03*
%TO.N,Ch_29*%
X131250000Y-47570000D03*
%TO.N,Ch_71*%
X131950000Y-60070000D03*
%TO.N,Ch_33*%
X131250000Y-48556000D03*
%TO.N,Ch_57*%
X131250000Y-55570000D03*
%TO.N,Ch_3*%
X73758148Y-45257437D03*
%TO.N,Ch_27*%
X131946000Y-47066000D03*
%TO.N,Ch_105*%
X131250000Y-70556000D03*
%TO.N,Ch_51*%
X131950000Y-54070000D03*
%TO.N,Ch_17*%
X131250000Y-43580000D03*
%TO.N,Ch_115*%
X131946000Y-73066000D03*
%TO.N,Ch_65*%
X131250000Y-58556000D03*
%TO.N,Ch_55*%
X131946000Y-55066000D03*
%TO.N,Ch_91*%
X131950000Y-66070000D03*
%TO.N,Ch_109*%
X131250000Y-71570000D03*
%TO.N,Ch_35*%
X131946000Y-49066000D03*
%TO.N,Ch_101*%
X131250000Y-68570000D03*
%TO.N,Ch_14*%
X72400000Y-53220000D03*
%TO.N,Ch_16*%
X73687437Y-53711852D03*
D17*
%TO.N,GND*%
X50650000Y-35280000D03*
X51650000Y-55280000D03*
X41650000Y-47280000D03*
X46150000Y-68280000D03*
X42650000Y-65280000D03*
X45650000Y-77280000D03*
X40150000Y-52280000D03*
X49650000Y-59280000D03*
X42150000Y-48280000D03*
X48150000Y-68280000D03*
X49650000Y-61280000D03*
X42150000Y-42280000D03*
X45650000Y-75280000D03*
X49150000Y-38280000D03*
X39650000Y-49280000D03*
D16*
X97386000Y-78740000D03*
D17*
X39150000Y-40280000D03*
X39650000Y-53280000D03*
X44150000Y-42280000D03*
X48650000Y-79280000D03*
X51150000Y-46280000D03*
X48150000Y-64280000D03*
X49650000Y-55280000D03*
D16*
X71540000Y-54999423D03*
D17*
X44150000Y-46280000D03*
X43650000Y-47280000D03*
X43150000Y-36280000D03*
X53150000Y-52280000D03*
X43150000Y-60280000D03*
X38650000Y-43280000D03*
X42150000Y-36280000D03*
X50650000Y-61280000D03*
X49650000Y-77280000D03*
D16*
X103950000Y-44780000D03*
D17*
X54150000Y-66280000D03*
D16*
X104996666Y-50780000D03*
D17*
X54150000Y-42280000D03*
D16*
X85950000Y-57780000D03*
X96862666Y-83740000D03*
D17*
X45650000Y-37280000D03*
X48150000Y-70280000D03*
X51150000Y-42280000D03*
X41150000Y-66280000D03*
X47150000Y-70280000D03*
X44650000Y-49280000D03*
X44650000Y-67280000D03*
D16*
X97386000Y-80740000D03*
D17*
X47150000Y-76280000D03*
X48150000Y-80280000D03*
X41150000Y-70280000D03*
X45650000Y-41280000D03*
X52650000Y-47280000D03*
X51150000Y-66280000D03*
D16*
X85950000Y-59780000D03*
D17*
X42650000Y-61280000D03*
X53650000Y-75280000D03*
X45650000Y-47280000D03*
X43650000Y-39280000D03*
D16*
X74590446Y-53922446D03*
X105520000Y-47780000D03*
D17*
X46150000Y-58280000D03*
X47150000Y-56280000D03*
D16*
X86996666Y-64780000D03*
D17*
X50650000Y-75280000D03*
D16*
X73340000Y-54999423D03*
X87520000Y-61780000D03*
D17*
X46650000Y-63280000D03*
X47150000Y-46280000D03*
X47650000Y-45280000D03*
X43150000Y-40280000D03*
X43650000Y-75280000D03*
X39650000Y-41280000D03*
X47650000Y-43280000D03*
X46150000Y-56280000D03*
X44150000Y-78280000D03*
X47650000Y-65280000D03*
X46650000Y-43280000D03*
X53650000Y-61280000D03*
X46150000Y-40280000D03*
X43650000Y-77280000D03*
X51650000Y-45280000D03*
D16*
X95816000Y-80740000D03*
D17*
X41150000Y-38280000D03*
X53150000Y-54280000D03*
X41650000Y-41280000D03*
X47650000Y-51280000D03*
X50150000Y-66280000D03*
X45150000Y-68280000D03*
X44650000Y-69280000D03*
X46650000Y-75280000D03*
X39150000Y-68280000D03*
X49150000Y-48280000D03*
X44650000Y-51280000D03*
X49650000Y-43280000D03*
X39150000Y-72280000D03*
D16*
X97386000Y-81740000D03*
D17*
X39650000Y-39280000D03*
X46650000Y-51280000D03*
X41150000Y-72280000D03*
D16*
X86996666Y-57780000D03*
D17*
X45650000Y-43280000D03*
X43150000Y-38280000D03*
X53150000Y-50280000D03*
X51650000Y-73280000D03*
X49650000Y-73280000D03*
X47650000Y-61280000D03*
X46150000Y-76280000D03*
X45650000Y-39280000D03*
X45650000Y-71280000D03*
X43650000Y-63280000D03*
X52650000Y-71280000D03*
X53150000Y-74280000D03*
X48150000Y-56280000D03*
X51650000Y-65280000D03*
X47150000Y-58280000D03*
X47650000Y-63280000D03*
X48150000Y-60280000D03*
X38650000Y-55280000D03*
X50650000Y-45280000D03*
X50650000Y-71280000D03*
X51150000Y-70280000D03*
D16*
X85950000Y-64780000D03*
D17*
X46150000Y-54280000D03*
X48650000Y-75280000D03*
D16*
X72890000Y-54220000D03*
D17*
X48650000Y-45280000D03*
X38650000Y-61280000D03*
X41150000Y-40280000D03*
X47150000Y-68280000D03*
X43150000Y-72280000D03*
X44650000Y-59280000D03*
X54150000Y-62280000D03*
X39650000Y-71280000D03*
X53650000Y-63280000D03*
X47650000Y-79280000D03*
X41150000Y-42280000D03*
X44650000Y-73280000D03*
X54150000Y-60280000D03*
X43650000Y-51280000D03*
X41650000Y-63280000D03*
X53650000Y-39280000D03*
X50150000Y-44280000D03*
X40650000Y-53280000D03*
X41650000Y-53280000D03*
X48650000Y-37280000D03*
X39150000Y-74280000D03*
X51150000Y-62280000D03*
X46650000Y-53280000D03*
X42150000Y-38280000D03*
X40150000Y-40280000D03*
X41650000Y-37280000D03*
X53150000Y-70280000D03*
X46650000Y-79280000D03*
D16*
X97386000Y-85740000D03*
D17*
X51650000Y-43280000D03*
D16*
X96862666Y-81740000D03*
D17*
X39150000Y-42280000D03*
X49650000Y-79280000D03*
X47650000Y-57280000D03*
X44150000Y-74280000D03*
X52650000Y-53280000D03*
X53650000Y-41280000D03*
D16*
X104473333Y-51780000D03*
D17*
X42150000Y-80280000D03*
D16*
X72440000Y-55899423D03*
D17*
X44650000Y-61280000D03*
D16*
X85950000Y-60780000D03*
D17*
X40150000Y-76280000D03*
X54150000Y-54280000D03*
X46150000Y-46280000D03*
X47650000Y-67280000D03*
X48150000Y-40280000D03*
X50650000Y-37280000D03*
X42650000Y-37280000D03*
X44650000Y-37280000D03*
D16*
X86996666Y-56780000D03*
D17*
X47650000Y-35280000D03*
D16*
X103950000Y-53780000D03*
D17*
X54150000Y-68280000D03*
X41650000Y-65280000D03*
X51650000Y-53280000D03*
X40150000Y-46280000D03*
X42150000Y-68280000D03*
X49150000Y-36280000D03*
X44150000Y-80280000D03*
X52650000Y-45280000D03*
X45150000Y-60280000D03*
D16*
X72440000Y-54099423D03*
D17*
X48150000Y-74280000D03*
X45150000Y-72280000D03*
D16*
X103950000Y-49780000D03*
X97386000Y-84740000D03*
D17*
X54150000Y-38280000D03*
X53650000Y-67280000D03*
X42650000Y-67280000D03*
X45650000Y-79280000D03*
X43150000Y-50280000D03*
X52150000Y-44280000D03*
D16*
X86473333Y-64780000D03*
D17*
X53150000Y-72280000D03*
X49150000Y-80280000D03*
X48150000Y-76280000D03*
X47650000Y-55280000D03*
X46150000Y-38280000D03*
X48650000Y-57280000D03*
X42150000Y-50280000D03*
X44650000Y-65280000D03*
X46650000Y-65280000D03*
D16*
X96862666Y-77740000D03*
D17*
X41150000Y-76280000D03*
X53650000Y-73280000D03*
X44150000Y-48280000D03*
X40650000Y-41280000D03*
X46650000Y-39280000D03*
X39150000Y-54280000D03*
X45150000Y-36280000D03*
X53150000Y-62280000D03*
X43650000Y-41280000D03*
X51650000Y-49280000D03*
X52650000Y-75280000D03*
X52150000Y-68280000D03*
X52150000Y-50280000D03*
X51150000Y-76280000D03*
X44650000Y-53280000D03*
X48650000Y-63280000D03*
X43150000Y-62280000D03*
X44650000Y-41280000D03*
D16*
X96862666Y-78740000D03*
D17*
X52650000Y-63280000D03*
X46650000Y-45280000D03*
X39650000Y-65280000D03*
X53150000Y-42280000D03*
X46650000Y-59280000D03*
X45650000Y-45280000D03*
X44150000Y-60280000D03*
X48150000Y-58280000D03*
D16*
X105520000Y-51780000D03*
D17*
X42650000Y-75280000D03*
D16*
X105520000Y-46780000D03*
X71990000Y-55778846D03*
D17*
X44150000Y-54280000D03*
X49650000Y-53280000D03*
X42650000Y-35280000D03*
X39650000Y-47280000D03*
D16*
X104473333Y-52780000D03*
X103950000Y-46780000D03*
D17*
X51650000Y-51280000D03*
D16*
X86996666Y-61780000D03*
D17*
X49150000Y-60280000D03*
X48650000Y-67280000D03*
X42150000Y-76280000D03*
X42150000Y-52280000D03*
X40650000Y-55280000D03*
X50650000Y-67280000D03*
X52150000Y-46280000D03*
X48150000Y-62280000D03*
X52150000Y-48280000D03*
D16*
X85950000Y-55780000D03*
X104996666Y-49780000D03*
D17*
X45150000Y-52280000D03*
X48650000Y-61280000D03*
X52650000Y-65280000D03*
X45150000Y-66280000D03*
X48650000Y-77280000D03*
X50650000Y-55280000D03*
X46150000Y-78280000D03*
X51650000Y-71280000D03*
D16*
X87520000Y-63780000D03*
D17*
X44650000Y-43280000D03*
X47150000Y-66280000D03*
X39650000Y-51280000D03*
X46150000Y-42280000D03*
X50150000Y-50280000D03*
X54150000Y-50280000D03*
X48150000Y-52280000D03*
D16*
X86996666Y-59780000D03*
D17*
X47150000Y-52280000D03*
X42150000Y-40280000D03*
X47150000Y-50280000D03*
D16*
X95816000Y-77740000D03*
X86996666Y-55780000D03*
X85950000Y-61780000D03*
D17*
X51150000Y-52280000D03*
D16*
X96339333Y-77740000D03*
D17*
X40650000Y-75280000D03*
D16*
X96339333Y-86740000D03*
X86473333Y-63780000D03*
X104473333Y-48780000D03*
D17*
X50150000Y-42280000D03*
X48650000Y-73280000D03*
X42650000Y-79280000D03*
X52150000Y-62280000D03*
X42650000Y-77280000D03*
X51150000Y-44280000D03*
X53150000Y-44280000D03*
X40150000Y-74280000D03*
X38650000Y-69280000D03*
X52650000Y-61280000D03*
X38650000Y-67280000D03*
D16*
X86473333Y-61780000D03*
X86473333Y-57780000D03*
D17*
X39150000Y-66280000D03*
X40650000Y-65280000D03*
X42150000Y-74280000D03*
D16*
X95816000Y-86740000D03*
X104996666Y-52780000D03*
D17*
X47650000Y-75280000D03*
X49150000Y-78280000D03*
X50650000Y-57280000D03*
X52650000Y-67280000D03*
X49150000Y-56280000D03*
X46150000Y-74280000D03*
X40650000Y-63280000D03*
X40650000Y-43280000D03*
D16*
X96339333Y-78740000D03*
D17*
X50650000Y-51280000D03*
X46650000Y-69280000D03*
X50150000Y-70280000D03*
D16*
X103950000Y-45780000D03*
X104996666Y-47780000D03*
D17*
X42650000Y-43280000D03*
X38650000Y-45280000D03*
X52150000Y-40280000D03*
X51150000Y-74280000D03*
D16*
X97386000Y-77740000D03*
X86996666Y-58780000D03*
D17*
X49150000Y-46280000D03*
X40650000Y-71280000D03*
D16*
X86996666Y-63780000D03*
D17*
X38650000Y-49280000D03*
D16*
X104473333Y-53780000D03*
D17*
X54150000Y-70280000D03*
X46150000Y-50280000D03*
X52150000Y-60280000D03*
X50650000Y-53280000D03*
X42150000Y-64280000D03*
X51650000Y-63280000D03*
X42650000Y-69280000D03*
D16*
X85950000Y-58780000D03*
D17*
X51150000Y-54280000D03*
D16*
X85950000Y-62780000D03*
X105520000Y-45780000D03*
D17*
X53650000Y-65280000D03*
X41150000Y-74280000D03*
X53650000Y-53280000D03*
X47650000Y-73280000D03*
X44650000Y-63280000D03*
X43650000Y-55280000D03*
X50650000Y-73280000D03*
X44650000Y-71280000D03*
D16*
X95816000Y-83740000D03*
D17*
X47150000Y-40280000D03*
X53150000Y-60280000D03*
X49650000Y-63280000D03*
X54150000Y-46280000D03*
X52650000Y-43280000D03*
X54150000Y-48280000D03*
X42150000Y-66280000D03*
X50650000Y-49280000D03*
X53650000Y-69280000D03*
X42650000Y-49280000D03*
X51650000Y-61280000D03*
X44150000Y-50280000D03*
X39650000Y-69280000D03*
X39650000Y-61280000D03*
D16*
X95816000Y-81740000D03*
D17*
X48650000Y-65280000D03*
X44150000Y-58280000D03*
X42650000Y-47280000D03*
X43150000Y-52280000D03*
X42150000Y-58280000D03*
X44150000Y-68280000D03*
X48150000Y-72280000D03*
X47150000Y-38280000D03*
X52150000Y-70280000D03*
X45650000Y-55280000D03*
X47650000Y-49280000D03*
D16*
X96862666Y-85740000D03*
D17*
X40150000Y-62280000D03*
X45650000Y-67280000D03*
D16*
X96339333Y-84740000D03*
X104473333Y-47780000D03*
D17*
X52150000Y-66280000D03*
X53650000Y-47280000D03*
X48150000Y-48280000D03*
X45150000Y-58280000D03*
X41650000Y-49280000D03*
X44150000Y-66280000D03*
D16*
X97386000Y-86740000D03*
D17*
X50650000Y-41280000D03*
X43150000Y-54280000D03*
X50150000Y-78280000D03*
X50150000Y-74280000D03*
X41150000Y-50280000D03*
X42150000Y-56280000D03*
X43150000Y-56280000D03*
X39150000Y-70280000D03*
X53150000Y-48280000D03*
X43650000Y-65280000D03*
X39150000Y-44280000D03*
X46650000Y-37280000D03*
X43150000Y-78280000D03*
X39650000Y-67280000D03*
X49650000Y-51280000D03*
X50150000Y-76280000D03*
X43650000Y-79280000D03*
D16*
X95816000Y-78740000D03*
D17*
X39150000Y-60280000D03*
X41150000Y-48280000D03*
X52150000Y-42280000D03*
X47650000Y-37280000D03*
D16*
X86996666Y-60780000D03*
D17*
X49150000Y-62280000D03*
D16*
X86473333Y-60780000D03*
X86473333Y-55780000D03*
D17*
X54150000Y-44280000D03*
X45650000Y-49280000D03*
X45150000Y-76280000D03*
D16*
X103950000Y-51780000D03*
D17*
X45650000Y-59280000D03*
X44150000Y-38280000D03*
X44150000Y-40280000D03*
D16*
X103950000Y-50780000D03*
D17*
X41650000Y-69280000D03*
D16*
X96862666Y-79740000D03*
D17*
X47150000Y-80280000D03*
X42150000Y-54280000D03*
X41650000Y-67280000D03*
X53150000Y-68280000D03*
X52650000Y-41280000D03*
X42150000Y-44280000D03*
X53650000Y-51280000D03*
X47150000Y-60280000D03*
X43150000Y-80280000D03*
X52150000Y-52280000D03*
X38650000Y-71280000D03*
X45650000Y-69280000D03*
X43150000Y-70280000D03*
D16*
X104996666Y-48780000D03*
D17*
X49650000Y-49280000D03*
X47650000Y-41280000D03*
X47650000Y-71280000D03*
D16*
X104996666Y-51780000D03*
D17*
X42650000Y-71280000D03*
X38650000Y-51280000D03*
X49150000Y-58280000D03*
D16*
X105520000Y-48780000D03*
D17*
X42150000Y-70280000D03*
X50650000Y-47280000D03*
X41650000Y-51280000D03*
X46150000Y-72280000D03*
X49150000Y-66280000D03*
X43650000Y-57280000D03*
X43650000Y-69280000D03*
X53650000Y-45280000D03*
X45650000Y-61280000D03*
X42150000Y-72280000D03*
D16*
X104996666Y-53780000D03*
D17*
X39150000Y-62280000D03*
X42650000Y-59280000D03*
X43650000Y-37280000D03*
X45650000Y-53280000D03*
X42650000Y-57280000D03*
X46650000Y-77280000D03*
D16*
X96862666Y-80740000D03*
D17*
X47650000Y-59280000D03*
X45150000Y-50280000D03*
D16*
X87520000Y-60780000D03*
D17*
X39650000Y-73280000D03*
X52150000Y-76280000D03*
X53150000Y-46280000D03*
D16*
X85950000Y-63780000D03*
D17*
X40650000Y-51280000D03*
X50650000Y-43280000D03*
X43650000Y-73280000D03*
X43650000Y-49280000D03*
D16*
X87520000Y-59780000D03*
X97386000Y-83740000D03*
D17*
X48150000Y-54280000D03*
X46150000Y-64280000D03*
D16*
X104996666Y-46780000D03*
D17*
X45150000Y-38280000D03*
X46650000Y-57280000D03*
X41650000Y-55280000D03*
X40150000Y-60280000D03*
D16*
X71660577Y-55449423D03*
D17*
X50150000Y-68280000D03*
X43150000Y-58280000D03*
X43650000Y-43280000D03*
X42650000Y-63280000D03*
X52150000Y-72280000D03*
X53150000Y-38280000D03*
X47150000Y-36280000D03*
X53650000Y-43280000D03*
D16*
X87520000Y-57780000D03*
D17*
X48650000Y-71280000D03*
X46650000Y-67280000D03*
X48150000Y-78280000D03*
D16*
X96339333Y-82740000D03*
D17*
X44650000Y-57280000D03*
X47650000Y-69280000D03*
X45150000Y-42280000D03*
X51150000Y-68280000D03*
D16*
X87520000Y-64780000D03*
D17*
X39150000Y-38280000D03*
D16*
X87520000Y-58780000D03*
D17*
X41650000Y-73280000D03*
D16*
X95816000Y-79740000D03*
D17*
X40650000Y-69280000D03*
X49650000Y-45280000D03*
X43150000Y-48280000D03*
D16*
X105520000Y-49780000D03*
X96339333Y-81740000D03*
D17*
X39150000Y-52280000D03*
X45650000Y-35280000D03*
D16*
X86473333Y-56780000D03*
D17*
X46650000Y-61280000D03*
X48650000Y-49280000D03*
X40150000Y-44280000D03*
X38650000Y-47280000D03*
X40650000Y-61280000D03*
X40150000Y-66280000D03*
X39650000Y-75280000D03*
D16*
X105520000Y-44780000D03*
X105520000Y-52780000D03*
D17*
X39150000Y-64280000D03*
X40150000Y-68280000D03*
X39650000Y-63280000D03*
X47150000Y-48280000D03*
X44150000Y-64280000D03*
X45650000Y-63280000D03*
X50150000Y-56280000D03*
X52150000Y-38280000D03*
X48650000Y-55280000D03*
X41650000Y-59280000D03*
X51650000Y-41280000D03*
D16*
X103950000Y-52780000D03*
D17*
X41650000Y-43280000D03*
X41150000Y-44280000D03*
X50150000Y-48280000D03*
D16*
X86473333Y-58780000D03*
D17*
X40150000Y-38280000D03*
X54150000Y-40280000D03*
X46650000Y-41280000D03*
X46150000Y-44280000D03*
D16*
X73219423Y-54549423D03*
D17*
X42650000Y-41280000D03*
D16*
X97386000Y-82740000D03*
D17*
X48150000Y-36280000D03*
X50650000Y-63280000D03*
X40650000Y-39280000D03*
D16*
X85950000Y-56780000D03*
D17*
X42650000Y-53280000D03*
X44150000Y-56280000D03*
D16*
X96862666Y-86740000D03*
D17*
X48150000Y-38280000D03*
X51650000Y-77280000D03*
X46150000Y-62280000D03*
X41650000Y-71280000D03*
X44150000Y-72280000D03*
X50650000Y-65280000D03*
X41650000Y-61280000D03*
X43650000Y-35280000D03*
X52150000Y-74280000D03*
X48650000Y-69280000D03*
X40150000Y-48280000D03*
X43650000Y-59280000D03*
X39150000Y-50280000D03*
X43650000Y-67280000D03*
X44150000Y-62280000D03*
X49650000Y-71280000D03*
X49650000Y-39280000D03*
X54150000Y-76280000D03*
X46150000Y-60280000D03*
X51150000Y-48280000D03*
X40150000Y-64280000D03*
X43150000Y-46280000D03*
X48650000Y-47280000D03*
X39150000Y-48280000D03*
D16*
X97386000Y-79740000D03*
D17*
X41150000Y-46280000D03*
X49150000Y-40280000D03*
X47150000Y-64280000D03*
X41150000Y-68280000D03*
X48150000Y-44280000D03*
X42650000Y-45280000D03*
D16*
X86473333Y-59780000D03*
D17*
X45150000Y-70280000D03*
X44150000Y-76280000D03*
X38650000Y-63280000D03*
D16*
X96862666Y-82740000D03*
D17*
X41150000Y-52280000D03*
X45150000Y-40280000D03*
X43650000Y-61280000D03*
X49150000Y-52280000D03*
X49150000Y-68280000D03*
X40650000Y-45280000D03*
X50650000Y-79280000D03*
X40150000Y-72280000D03*
D16*
X104996666Y-45780000D03*
D17*
X52150000Y-54280000D03*
X53650000Y-49280000D03*
X45650000Y-65280000D03*
X42150000Y-60280000D03*
X49150000Y-50280000D03*
X38650000Y-53280000D03*
X43150000Y-44280000D03*
X41650000Y-75280000D03*
X45650000Y-51280000D03*
D16*
X87520000Y-62780000D03*
D17*
X51650000Y-67280000D03*
X48150000Y-50280000D03*
X40650000Y-73280000D03*
X42650000Y-51280000D03*
X46150000Y-52280000D03*
X43150000Y-66280000D03*
D16*
X86473333Y-62780000D03*
D17*
X48150000Y-46280000D03*
X53150000Y-66280000D03*
X50150000Y-36280000D03*
D16*
X87520000Y-56780000D03*
D17*
X42150000Y-62280000D03*
X51150000Y-40280000D03*
X47150000Y-62280000D03*
X44150000Y-44280000D03*
X41150000Y-54280000D03*
D16*
X87520000Y-55780000D03*
D17*
X52650000Y-49280000D03*
X42650000Y-55280000D03*
X50150000Y-46280000D03*
X42650000Y-39280000D03*
X41650000Y-39280000D03*
X41150000Y-60280000D03*
X51150000Y-72280000D03*
X48650000Y-51280000D03*
X39650000Y-45280000D03*
X43150000Y-68280000D03*
X41150000Y-64280000D03*
X49650000Y-57280000D03*
X47150000Y-42280000D03*
X52650000Y-39280000D03*
X40650000Y-47280000D03*
X49150000Y-74280000D03*
D16*
X104473333Y-46780000D03*
D17*
X50150000Y-80280000D03*
D16*
X105520000Y-53780000D03*
D17*
X41650000Y-77280000D03*
X53150000Y-64280000D03*
X52650000Y-73280000D03*
D16*
X96339333Y-85740000D03*
D17*
X39150000Y-76280000D03*
X44150000Y-52280000D03*
X50150000Y-64280000D03*
D16*
X96339333Y-80740000D03*
D17*
X48650000Y-41280000D03*
X50650000Y-77280000D03*
D16*
X96339333Y-83740000D03*
D17*
X49650000Y-67280000D03*
X44650000Y-55280000D03*
X43150000Y-64280000D03*
X46150000Y-48280000D03*
X49650000Y-69280000D03*
X50150000Y-40280000D03*
X38650000Y-73280000D03*
X49150000Y-54280000D03*
X47650000Y-47280000D03*
X49650000Y-37280000D03*
D16*
X104473333Y-44780000D03*
X103950000Y-47780000D03*
D17*
X45150000Y-44280000D03*
X51150000Y-60280000D03*
X45150000Y-64280000D03*
X45650000Y-57280000D03*
X47650000Y-77280000D03*
X50150000Y-54280000D03*
X44650000Y-47280000D03*
D16*
X104473333Y-49780000D03*
D17*
X41650000Y-45280000D03*
X44650000Y-45280000D03*
D16*
X72890000Y-55778846D03*
D17*
X45150000Y-78280000D03*
X53150000Y-40280000D03*
D16*
X104473333Y-50780000D03*
D17*
X51650000Y-47280000D03*
X47150000Y-72280000D03*
X48650000Y-43280000D03*
X44650000Y-77280000D03*
X46150000Y-36280000D03*
X46150000Y-66280000D03*
D16*
X103950000Y-48780000D03*
D17*
X51650000Y-39280000D03*
X54150000Y-52280000D03*
X42650000Y-73280000D03*
X48650000Y-53280000D03*
X46650000Y-49280000D03*
X47150000Y-78280000D03*
X45150000Y-74280000D03*
X47650000Y-53280000D03*
X44650000Y-35280000D03*
X40150000Y-42280000D03*
X49150000Y-76280000D03*
X46650000Y-71280000D03*
D16*
X104473333Y-45780000D03*
D17*
X50650000Y-59280000D03*
X48150000Y-66280000D03*
X51150000Y-38280000D03*
X47150000Y-74280000D03*
X50150000Y-60280000D03*
X45150000Y-62280000D03*
D16*
X96339333Y-79740000D03*
D17*
X39150000Y-46280000D03*
X43650000Y-53280000D03*
X50150000Y-72280000D03*
X38650000Y-41280000D03*
X51650000Y-75280000D03*
X40150000Y-70280000D03*
X44650000Y-79280000D03*
X50150000Y-62280000D03*
X39650000Y-43280000D03*
X49650000Y-75280000D03*
X42150000Y-46280000D03*
X46650000Y-55280000D03*
D16*
X95816000Y-84740000D03*
D17*
X44650000Y-75280000D03*
X46150000Y-70280000D03*
X43650000Y-71280000D03*
X40150000Y-50280000D03*
X42150000Y-78280000D03*
X40150000Y-54280000D03*
X40650000Y-67280000D03*
X47650000Y-39280000D03*
X49650000Y-41280000D03*
X38650000Y-39280000D03*
X54150000Y-74280000D03*
X38650000Y-75280000D03*
X47150000Y-54280000D03*
X45150000Y-48280000D03*
X50650000Y-39280000D03*
X54150000Y-64280000D03*
X43150000Y-42280000D03*
X44150000Y-70280000D03*
X49150000Y-42280000D03*
X50650000Y-69280000D03*
D16*
X86996666Y-62780000D03*
D17*
X43150000Y-74280000D03*
X52150000Y-64280000D03*
X51150000Y-50280000D03*
X48650000Y-59280000D03*
D16*
X105520000Y-50780000D03*
D17*
X53650000Y-71280000D03*
D16*
X95816000Y-82740000D03*
D17*
X48650000Y-39280000D03*
X40650000Y-49280000D03*
D16*
X95816000Y-85740000D03*
D17*
X46650000Y-47280000D03*
X48150000Y-42280000D03*
X50150000Y-38280000D03*
X45150000Y-54280000D03*
X54150000Y-72280000D03*
X49150000Y-44280000D03*
X45150000Y-56280000D03*
X43150000Y-76280000D03*
X49150000Y-70280000D03*
X50150000Y-58280000D03*
X50150000Y-52280000D03*
D16*
X96862666Y-84740000D03*
X104996666Y-44780000D03*
D17*
X49650000Y-35280000D03*
X52650000Y-69280000D03*
X47150000Y-44280000D03*
X46650000Y-73280000D03*
X51150000Y-64280000D03*
X44650000Y-39280000D03*
X38650000Y-65280000D03*
X48650000Y-35280000D03*
X41150000Y-62280000D03*
X43650000Y-45280000D03*
X49150000Y-72280000D03*
X45150000Y-80280000D03*
X52650000Y-51280000D03*
X45650000Y-73280000D03*
X46650000Y-35280000D03*
X45150000Y-46280000D03*
X46150000Y-80280000D03*
X49650000Y-65280000D03*
X53150000Y-76280000D03*
X51650000Y-69280000D03*
X49650000Y-47280000D03*
D16*
X73219423Y-55449423D03*
D17*
X44150000Y-36280000D03*
X49150000Y-64280000D03*
D16*
X71660000Y-44430000D03*
X73218846Y-44430000D03*
X71660000Y-43530000D03*
X72439423Y-43080000D03*
X72889423Y-43200577D03*
X71539423Y-43980000D03*
X73218846Y-43530000D03*
X72889423Y-44759423D03*
X72439423Y-44880000D03*
X73339423Y-43980000D03*
X71989423Y-43200577D03*
X71989423Y-44759423D03*
X94126000Y-42140000D03*
X95410000Y-76450000D03*
%TO.N,Ch_2*%
X74250000Y-54970000D03*
%TO.N,Ch_10*%
X70650000Y-55070000D03*
%TO.N,Ch_6*%
X72500000Y-56820000D03*
%TO.N,Ch_4*%
X73758148Y-56257437D03*
%TO.N,Ch_8*%
X71212563Y-56328148D03*
%TO.N,Ch_12*%
X71141852Y-53782563D03*
%TO.N,Sig1*%
X65925000Y-43970000D03*
X72450000Y-43970000D03*
%TO.N,Sig2*%
X72450000Y-54970000D03*
X65925000Y-49970000D03*
%TD*%
D18*
%TO.N,GND*%
X64465000Y-63515000D02*
X69065000Y-63515000D01*
%TD*%
%TA.AperFunction,Conductor*%
%TO.N,GND*%
G36*
X113386978Y-78687890D02*
G01*
X113458112Y-78794351D01*
X113548649Y-78884888D01*
X113655110Y-78956022D01*
X113665511Y-78960330D01*
X113195938Y-79429904D01*
X113310507Y-79510127D01*
X113310520Y-79510135D01*
X113320865Y-79514959D01*
X113379949Y-79564535D01*
X113406329Y-79637012D01*
X113392936Y-79712968D01*
X113343360Y-79772052D01*
X113320872Y-79785036D01*
X113310527Y-79789860D01*
X113310517Y-79789865D01*
X113195938Y-79870095D01*
X113665512Y-80339669D01*
X113655110Y-80343978D01*
X113548649Y-80415112D01*
X113458112Y-80505649D01*
X113386978Y-80612110D01*
X113382669Y-80622512D01*
X112913095Y-80152938D01*
X112832865Y-80267517D01*
X112832860Y-80267527D01*
X112828036Y-80277872D01*
X112778457Y-80336953D01*
X112705979Y-80363330D01*
X112630023Y-80349933D01*
X112570942Y-80300354D01*
X112557959Y-80277865D01*
X112553135Y-80267520D01*
X112553127Y-80267507D01*
X112472904Y-80152938D01*
X112003330Y-80622511D01*
X111999022Y-80612110D01*
X111927888Y-80505649D01*
X111837351Y-80415112D01*
X111730890Y-80343978D01*
X111720486Y-80339668D01*
X112190061Y-79870094D01*
X112075492Y-79789872D01*
X112075479Y-79789864D01*
X112065133Y-79785040D01*
X112006049Y-79735464D01*
X111979669Y-79662987D01*
X111993062Y-79587031D01*
X112042638Y-79527947D01*
X112065133Y-79514960D01*
X112075474Y-79510137D01*
X112075488Y-79510129D01*
X112190061Y-79429904D01*
X111720487Y-78960330D01*
X111730890Y-78956022D01*
X111837351Y-78884888D01*
X111927888Y-78794351D01*
X111999022Y-78687890D01*
X112003330Y-78677487D01*
X112472904Y-79147061D01*
X112553129Y-79032488D01*
X112553137Y-79032474D01*
X112557960Y-79022133D01*
X112607536Y-78963049D01*
X112680013Y-78936669D01*
X112755969Y-78950062D01*
X112815053Y-78999638D01*
X112828040Y-79022133D01*
X112832864Y-79032479D01*
X112832872Y-79032492D01*
X112913094Y-79147060D01*
X113382668Y-78677486D01*
X113386978Y-78687890D01*
G37*
%TD.AperFunction*%
%TA.AperFunction,Conductor*%
G36*
X115926978Y-78667890D02*
G01*
X115998112Y-78774351D01*
X116088649Y-78864888D01*
X116195110Y-78936022D01*
X116205511Y-78940330D01*
X115735938Y-79409904D01*
X115850507Y-79490127D01*
X115850520Y-79490135D01*
X115860865Y-79494959D01*
X115919949Y-79544535D01*
X115946329Y-79617012D01*
X115932936Y-79692968D01*
X115883360Y-79752052D01*
X115860872Y-79765036D01*
X115850527Y-79769860D01*
X115850517Y-79769865D01*
X115735938Y-79850095D01*
X116205512Y-80319669D01*
X116195110Y-80323978D01*
X116088649Y-80395112D01*
X115998112Y-80485649D01*
X115926978Y-80592110D01*
X115922669Y-80602512D01*
X115453095Y-80132938D01*
X115372865Y-80247517D01*
X115372858Y-80247529D01*
X115363374Y-80267869D01*
X115313796Y-80326952D01*
X115241319Y-80353329D01*
X115165363Y-80339934D01*
X115106280Y-80290356D01*
X115093295Y-80267864D01*
X115093132Y-80267515D01*
X115093127Y-80267507D01*
X115012904Y-80152938D01*
X114543330Y-80622511D01*
X114539022Y-80612110D01*
X114467888Y-80505649D01*
X114377351Y-80415112D01*
X114270890Y-80343978D01*
X114260486Y-80339668D01*
X114730061Y-79870094D01*
X114615492Y-79789872D01*
X114615479Y-79789864D01*
X114605133Y-79785040D01*
X114546049Y-79735464D01*
X114519669Y-79662987D01*
X114533062Y-79587031D01*
X114582638Y-79527947D01*
X114605133Y-79514960D01*
X114615474Y-79510137D01*
X114615488Y-79510129D01*
X114730061Y-79429904D01*
X114260487Y-78960330D01*
X114270890Y-78956022D01*
X114377351Y-78884888D01*
X114467888Y-78794351D01*
X114539022Y-78687890D01*
X114543330Y-78677487D01*
X115012904Y-79147061D01*
X115093129Y-79032488D01*
X115093137Y-79032474D01*
X115102623Y-79012133D01*
X115152199Y-78953049D01*
X115224676Y-78926669D01*
X115300632Y-78940062D01*
X115359716Y-78989638D01*
X115372703Y-79012132D01*
X115372866Y-79012483D01*
X115372872Y-79012492D01*
X115453094Y-79127060D01*
X115922668Y-78657486D01*
X115926978Y-78667890D01*
G37*
%TD.AperFunction*%
%TA.AperFunction,Conductor*%
G36*
X118466978Y-78667890D02*
G01*
X118538112Y-78774351D01*
X118628649Y-78864888D01*
X118735110Y-78936022D01*
X118745511Y-78940330D01*
X118275938Y-79409904D01*
X118390507Y-79490127D01*
X118390520Y-79490135D01*
X118400865Y-79494959D01*
X118459949Y-79544535D01*
X118486329Y-79617012D01*
X118472936Y-79692968D01*
X118423360Y-79752052D01*
X118400872Y-79765036D01*
X118390527Y-79769860D01*
X118390517Y-79769865D01*
X118275938Y-79850095D01*
X118745512Y-80319669D01*
X118735110Y-80323978D01*
X118628649Y-80395112D01*
X118538112Y-80485649D01*
X118466978Y-80592110D01*
X118462669Y-80602512D01*
X117993095Y-80132938D01*
X117912865Y-80247517D01*
X117912860Y-80247527D01*
X117908036Y-80257872D01*
X117858457Y-80316953D01*
X117785979Y-80343330D01*
X117710023Y-80329933D01*
X117650942Y-80280354D01*
X117637959Y-80257865D01*
X117633135Y-80247520D01*
X117633127Y-80247507D01*
X117552904Y-80132938D01*
X117083330Y-80602511D01*
X117079022Y-80592110D01*
X117007888Y-80485649D01*
X116917351Y-80395112D01*
X116810890Y-80323978D01*
X116800486Y-80319668D01*
X117270061Y-79850094D01*
X117155492Y-79769872D01*
X117155479Y-79769864D01*
X117145133Y-79765040D01*
X117086049Y-79715464D01*
X117059669Y-79642987D01*
X117073062Y-79567031D01*
X117122638Y-79507947D01*
X117145133Y-79494960D01*
X117155474Y-79490137D01*
X117155488Y-79490129D01*
X117270061Y-79409904D01*
X116800487Y-78940330D01*
X116810890Y-78936022D01*
X116917351Y-78864888D01*
X117007888Y-78774351D01*
X117079022Y-78667890D01*
X117083330Y-78657487D01*
X117552904Y-79127061D01*
X117633129Y-79012488D01*
X117633137Y-79012474D01*
X117637960Y-79002133D01*
X117687536Y-78943049D01*
X117760013Y-78916669D01*
X117835969Y-78930062D01*
X117895053Y-78979638D01*
X117908040Y-79002133D01*
X117912864Y-79012479D01*
X117912872Y-79012492D01*
X117993094Y-79127060D01*
X118462668Y-78657486D01*
X118466978Y-78667890D01*
G37*
%TD.AperFunction*%
%TA.AperFunction,Conductor*%
G36*
X134966978Y-78667890D02*
G01*
X135038112Y-78774351D01*
X135128649Y-78864888D01*
X135235110Y-78936022D01*
X135245511Y-78940330D01*
X134775938Y-79409904D01*
X134890507Y-79490127D01*
X134890520Y-79490135D01*
X134900865Y-79494959D01*
X134959949Y-79544535D01*
X134986329Y-79617012D01*
X134972936Y-79692968D01*
X134923360Y-79752052D01*
X134900872Y-79765036D01*
X134890527Y-79769860D01*
X134890517Y-79769865D01*
X134775938Y-79850095D01*
X135245512Y-80319669D01*
X135235110Y-80323978D01*
X135128649Y-80395112D01*
X135038112Y-80485649D01*
X134966978Y-80592110D01*
X134962669Y-80602512D01*
X134493095Y-80132938D01*
X134412865Y-80247517D01*
X134412860Y-80247527D01*
X134408036Y-80257872D01*
X134358457Y-80316953D01*
X134285979Y-80343330D01*
X134210023Y-80329933D01*
X134150942Y-80280354D01*
X134137959Y-80257865D01*
X134133135Y-80247520D01*
X134133127Y-80247507D01*
X134052904Y-80132938D01*
X133583330Y-80602511D01*
X133579022Y-80592110D01*
X133507888Y-80485649D01*
X133417351Y-80395112D01*
X133310890Y-80323978D01*
X133300486Y-80319668D01*
X133770060Y-79850094D01*
X133655492Y-79769872D01*
X133655479Y-79769864D01*
X133645133Y-79765040D01*
X133586049Y-79715464D01*
X133559669Y-79642987D01*
X133573062Y-79567031D01*
X133622638Y-79507947D01*
X133645133Y-79494960D01*
X133655474Y-79490137D01*
X133655488Y-79490129D01*
X133770061Y-79409904D01*
X133300487Y-78940330D01*
X133310890Y-78936022D01*
X133417351Y-78864888D01*
X133507888Y-78774351D01*
X133579022Y-78667890D01*
X133583330Y-78657487D01*
X134052904Y-79127061D01*
X134133129Y-79012488D01*
X134133137Y-79012474D01*
X134137960Y-79002133D01*
X134187536Y-78943049D01*
X134260013Y-78916669D01*
X134335969Y-78930062D01*
X134395053Y-78979638D01*
X134408040Y-79002133D01*
X134412864Y-79012479D01*
X134412872Y-79012492D01*
X134493094Y-79127060D01*
X134962668Y-78657486D01*
X134966978Y-78667890D01*
G37*
%TD.AperFunction*%
%TA.AperFunction,Conductor*%
G36*
X137506978Y-78667890D02*
G01*
X137578112Y-78774351D01*
X137668649Y-78864888D01*
X137775110Y-78936022D01*
X137785511Y-78940330D01*
X137315938Y-79409904D01*
X137430507Y-79490127D01*
X137430520Y-79490135D01*
X137440865Y-79494959D01*
X137499949Y-79544535D01*
X137526329Y-79617012D01*
X137512936Y-79692968D01*
X137463360Y-79752052D01*
X137440872Y-79765036D01*
X137430527Y-79769860D01*
X137430517Y-79769865D01*
X137315938Y-79850095D01*
X137785512Y-80319669D01*
X137775110Y-80323978D01*
X137668649Y-80395112D01*
X137578112Y-80485649D01*
X137506978Y-80592110D01*
X137502669Y-80602512D01*
X137033095Y-80132938D01*
X136952865Y-80247517D01*
X136952860Y-80247527D01*
X136948036Y-80257872D01*
X136898457Y-80316953D01*
X136825979Y-80343330D01*
X136750023Y-80329933D01*
X136690942Y-80280354D01*
X136677959Y-80257865D01*
X136673135Y-80247520D01*
X136673127Y-80247507D01*
X136592904Y-80132938D01*
X136123330Y-80602511D01*
X136119022Y-80592110D01*
X136047888Y-80485649D01*
X135957351Y-80395112D01*
X135850890Y-80323978D01*
X135840486Y-80319668D01*
X136310061Y-79850094D01*
X136195492Y-79769872D01*
X136195479Y-79769864D01*
X136185133Y-79765040D01*
X136126049Y-79715464D01*
X136099669Y-79642987D01*
X136113062Y-79567031D01*
X136162638Y-79507947D01*
X136185133Y-79494960D01*
X136195474Y-79490137D01*
X136195488Y-79490129D01*
X136310061Y-79409904D01*
X135840487Y-78940330D01*
X135850890Y-78936022D01*
X135957351Y-78864888D01*
X136047888Y-78774351D01*
X136119022Y-78667890D01*
X136123330Y-78657487D01*
X136592904Y-79127061D01*
X136673129Y-79012488D01*
X136673137Y-79012474D01*
X136677960Y-79002133D01*
X136727536Y-78943049D01*
X136800013Y-78916669D01*
X136875969Y-78930062D01*
X136935053Y-78979638D01*
X136948040Y-79002133D01*
X136952864Y-79012479D01*
X136952872Y-79012492D01*
X137033094Y-79127060D01*
X137502668Y-78657486D01*
X137506978Y-78667890D01*
G37*
%TD.AperFunction*%
%TA.AperFunction,Conductor*%
G36*
X73041937Y-53645334D02*
G01*
X73080504Y-53712127D01*
X73084308Y-53731250D01*
X73102391Y-53868609D01*
X73102392Y-53868613D01*
X73102393Y-53868614D01*
X73104144Y-53872841D01*
X73162900Y-54014692D01*
X73217159Y-54085403D01*
X73259155Y-54140134D01*
X73384596Y-54236388D01*
X73530675Y-54296896D01*
X73530678Y-54296896D01*
X73530680Y-54296897D01*
X73530677Y-54296897D01*
X73687434Y-54317534D01*
X73691598Y-54317534D01*
X73695619Y-54318611D01*
X73697119Y-54318809D01*
X73697093Y-54319006D01*
X73766098Y-54337496D01*
X73820636Y-54392034D01*
X73840598Y-54466534D01*
X73820636Y-54541034D01*
X73809808Y-54557239D01*
X73725463Y-54667159D01*
X73664954Y-54813242D01*
X73644318Y-54969997D01*
X73644318Y-54970002D01*
X73664954Y-55126757D01*
X73725463Y-55272840D01*
X73821717Y-55398281D01*
X73824660Y-55401224D01*
X73826741Y-55404828D01*
X73827663Y-55406030D01*
X73827504Y-55406151D01*
X73863224Y-55468019D01*
X73863224Y-55545147D01*
X73824660Y-55611942D01*
X73757865Y-55650506D01*
X73738749Y-55654308D01*
X73601390Y-55672391D01*
X73455307Y-55732900D01*
X73329866Y-55829154D01*
X73329865Y-55829155D01*
X73233611Y-55954596D01*
X73173102Y-56100679D01*
X73152466Y-56257434D01*
X73152466Y-56261598D01*
X73151388Y-56265619D01*
X73151191Y-56267119D01*
X73150993Y-56267093D01*
X73132504Y-56336098D01*
X73077966Y-56390636D01*
X73003466Y-56410598D01*
X72928966Y-56390636D01*
X72912761Y-56379808D01*
X72802840Y-56295463D01*
X72721081Y-56261598D01*
X72656762Y-56234956D01*
X72656760Y-56234955D01*
X72656756Y-56234954D01*
X72656759Y-56234954D01*
X72500003Y-56214318D01*
X72499997Y-56214318D01*
X72343242Y-56234954D01*
X72197159Y-56295463D01*
X72071715Y-56391719D01*
X72068770Y-56394665D01*
X72065164Y-56396746D01*
X72063970Y-56397663D01*
X72063849Y-56397505D01*
X72001973Y-56433226D01*
X71924845Y-56433222D01*
X71858052Y-56394655D01*
X71819491Y-56327858D01*
X71815691Y-56308748D01*
X71797608Y-56171390D01*
X71797607Y-56171388D01*
X71797607Y-56171386D01*
X71737099Y-56025307D01*
X71640845Y-55899866D01*
X71626522Y-55888875D01*
X71515403Y-55803611D01*
X71408708Y-55759417D01*
X71369325Y-55743104D01*
X71369323Y-55743103D01*
X71369319Y-55743102D01*
X71369322Y-55743102D01*
X71212566Y-55722466D01*
X71208402Y-55722466D01*
X71204380Y-55721388D01*
X71202881Y-55721191D01*
X71202906Y-55720993D01*
X71133902Y-55702504D01*
X71079364Y-55647966D01*
X71059402Y-55573466D01*
X71079364Y-55498966D01*
X71090192Y-55482761D01*
X71149069Y-55406030D01*
X71174536Y-55372841D01*
X71235044Y-55226762D01*
X71235572Y-55222757D01*
X71255682Y-55070002D01*
X71255682Y-55069997D01*
X71242517Y-54969997D01*
X71844318Y-54969997D01*
X71844318Y-54970002D01*
X71864954Y-55126757D01*
X71925463Y-55272840D01*
X72002196Y-55372840D01*
X72021718Y-55398282D01*
X72147159Y-55494536D01*
X72293238Y-55555044D01*
X72293241Y-55555044D01*
X72293243Y-55555045D01*
X72293240Y-55555045D01*
X72449997Y-55575682D01*
X72450000Y-55575682D01*
X72450003Y-55575682D01*
X72606757Y-55555045D01*
X72606758Y-55555044D01*
X72606762Y-55555044D01*
X72752841Y-55494536D01*
X72878282Y-55398282D01*
X72974536Y-55272841D01*
X73035044Y-55126762D01*
X73035932Y-55120021D01*
X73055682Y-54970002D01*
X73055682Y-54969997D01*
X73035045Y-54813242D01*
X73035044Y-54813240D01*
X73035044Y-54813238D01*
X72974536Y-54667159D01*
X72878282Y-54541718D01*
X72841619Y-54513585D01*
X72752840Y-54445463D01*
X72641251Y-54399242D01*
X72606762Y-54384956D01*
X72606760Y-54384955D01*
X72606756Y-54384954D01*
X72606759Y-54384954D01*
X72450003Y-54364318D01*
X72449997Y-54364318D01*
X72293242Y-54384954D01*
X72147159Y-54445463D01*
X72021718Y-54541717D01*
X72021717Y-54541718D01*
X71925463Y-54667159D01*
X71864954Y-54813242D01*
X71844318Y-54969997D01*
X71242517Y-54969997D01*
X71235045Y-54913242D01*
X71235044Y-54913240D01*
X71235044Y-54913238D01*
X71174536Y-54767159D01*
X71078282Y-54641718D01*
X71078281Y-54641717D01*
X71075339Y-54638775D01*
X71073257Y-54635169D01*
X71072337Y-54633970D01*
X71072494Y-54633848D01*
X71036775Y-54571980D01*
X71036775Y-54494852D01*
X71075339Y-54428057D01*
X71142134Y-54389493D01*
X71161249Y-54385691D01*
X71189038Y-54382032D01*
X71298609Y-54367608D01*
X71298610Y-54367607D01*
X71298614Y-54367607D01*
X71444693Y-54307099D01*
X71570134Y-54210845D01*
X71666388Y-54085404D01*
X71726896Y-53939325D01*
X71730331Y-53913238D01*
X71747534Y-53782565D01*
X71747534Y-53778401D01*
X71748611Y-53774378D01*
X71748809Y-53772881D01*
X71749006Y-53772906D01*
X71767496Y-53703901D01*
X71822034Y-53649363D01*
X71896534Y-53629401D01*
X71971034Y-53649363D01*
X71987225Y-53660181D01*
X72097159Y-53744536D01*
X72243238Y-53805044D01*
X72243241Y-53805044D01*
X72243243Y-53805045D01*
X72243240Y-53805045D01*
X72399997Y-53825682D01*
X72400000Y-53825682D01*
X72400003Y-53825682D01*
X72556757Y-53805045D01*
X72556758Y-53805044D01*
X72556762Y-53805044D01*
X72702841Y-53744536D01*
X72828282Y-53648282D01*
X72828285Y-53648277D01*
X72831219Y-53645344D01*
X72834823Y-53643262D01*
X72836030Y-53642337D01*
X72836151Y-53642495D01*
X72898012Y-53606777D01*
X72975140Y-53606773D01*
X73041937Y-53645334D01*
G37*
%TD.AperFunction*%
%TA.AperFunction,Conductor*%
G36*
X73041937Y-42645334D02*
G01*
X73080504Y-42712127D01*
X73084308Y-42731250D01*
X73102391Y-42868609D01*
X73162900Y-43014692D01*
X73217159Y-43085403D01*
X73259155Y-43140134D01*
X73384596Y-43236388D01*
X73530675Y-43296896D01*
X73530678Y-43296896D01*
X73530680Y-43296897D01*
X73530677Y-43296897D01*
X73687434Y-43317534D01*
X73691598Y-43317534D01*
X73695619Y-43318611D01*
X73697119Y-43318809D01*
X73697093Y-43319006D01*
X73766098Y-43337496D01*
X73820636Y-43392034D01*
X73840598Y-43466534D01*
X73820636Y-43541034D01*
X73809808Y-43557239D01*
X73725463Y-43667159D01*
X73664954Y-43813242D01*
X73644318Y-43969997D01*
X73644318Y-43970002D01*
X73664954Y-44126757D01*
X73725463Y-44272840D01*
X73821717Y-44398281D01*
X73824660Y-44401224D01*
X73826741Y-44404828D01*
X73827663Y-44406030D01*
X73827504Y-44406151D01*
X73863224Y-44468019D01*
X73863224Y-44545147D01*
X73824660Y-44611942D01*
X73757865Y-44650506D01*
X73738749Y-44654308D01*
X73601390Y-44672391D01*
X73455307Y-44732900D01*
X73329866Y-44829154D01*
X73329865Y-44829155D01*
X73233611Y-44954596D01*
X73173102Y-45100679D01*
X73152466Y-45257434D01*
X73152466Y-45261598D01*
X73151388Y-45265619D01*
X73151191Y-45267119D01*
X73150993Y-45267093D01*
X73132504Y-45336098D01*
X73077966Y-45390636D01*
X73003466Y-45410598D01*
X72928966Y-45390636D01*
X72912761Y-45379808D01*
X72802840Y-45295463D01*
X72721081Y-45261598D01*
X72656762Y-45234956D01*
X72656760Y-45234955D01*
X72656756Y-45234954D01*
X72656759Y-45234954D01*
X72500003Y-45214318D01*
X72499997Y-45214318D01*
X72343242Y-45234954D01*
X72197159Y-45295463D01*
X72071715Y-45391719D01*
X72068770Y-45394665D01*
X72065164Y-45396746D01*
X72063970Y-45397663D01*
X72063849Y-45397505D01*
X72001973Y-45433226D01*
X71924845Y-45433222D01*
X71858052Y-45394655D01*
X71819491Y-45327858D01*
X71815691Y-45308748D01*
X71797608Y-45171390D01*
X71797607Y-45171388D01*
X71797607Y-45171386D01*
X71737099Y-45025307D01*
X71640845Y-44899866D01*
X71617179Y-44881706D01*
X71515403Y-44803611D01*
X71408708Y-44759417D01*
X71369325Y-44743104D01*
X71369323Y-44743103D01*
X71369319Y-44743102D01*
X71369322Y-44743102D01*
X71212566Y-44722466D01*
X71208402Y-44722466D01*
X71204380Y-44721388D01*
X71202881Y-44721191D01*
X71202906Y-44720993D01*
X71133902Y-44702504D01*
X71079364Y-44647966D01*
X71059402Y-44573466D01*
X71079364Y-44498966D01*
X71090192Y-44482761D01*
X71149069Y-44406030D01*
X71174536Y-44372841D01*
X71235044Y-44226762D01*
X71248084Y-44127718D01*
X71255682Y-44070002D01*
X71255682Y-44069997D01*
X71242517Y-43969997D01*
X71844318Y-43969997D01*
X71844318Y-43970002D01*
X71864954Y-44126757D01*
X71925463Y-44272840D01*
X72002196Y-44372840D01*
X72021718Y-44398282D01*
X72147159Y-44494536D01*
X72293238Y-44555044D01*
X72293241Y-44555044D01*
X72293243Y-44555045D01*
X72293240Y-44555045D01*
X72449997Y-44575682D01*
X72450000Y-44575682D01*
X72450003Y-44575682D01*
X72606757Y-44555045D01*
X72606758Y-44555044D01*
X72606762Y-44555044D01*
X72752841Y-44494536D01*
X72878282Y-44398282D01*
X72974536Y-44272841D01*
X73035044Y-44126762D01*
X73035274Y-44125021D01*
X73055682Y-43970002D01*
X73055682Y-43969997D01*
X73035045Y-43813242D01*
X73035044Y-43813240D01*
X73035044Y-43813238D01*
X72974536Y-43667159D01*
X72878282Y-43541718D01*
X72817341Y-43494956D01*
X72752840Y-43445463D01*
X72672944Y-43412369D01*
X72606762Y-43384956D01*
X72606760Y-43384955D01*
X72606756Y-43384954D01*
X72606759Y-43384954D01*
X72450003Y-43364318D01*
X72449997Y-43364318D01*
X72293242Y-43384954D01*
X72147159Y-43445463D01*
X72021718Y-43541717D01*
X72021717Y-43541718D01*
X71925463Y-43667159D01*
X71864954Y-43813242D01*
X71844318Y-43969997D01*
X71242517Y-43969997D01*
X71235045Y-43913242D01*
X71235044Y-43913240D01*
X71235044Y-43913238D01*
X71174536Y-43767159D01*
X71078282Y-43641718D01*
X71078281Y-43641717D01*
X71075339Y-43638775D01*
X71073257Y-43635169D01*
X71072337Y-43633970D01*
X71072494Y-43633848D01*
X71036775Y-43571980D01*
X71036775Y-43494852D01*
X71075339Y-43428057D01*
X71142134Y-43389493D01*
X71161249Y-43385691D01*
X71189038Y-43382032D01*
X71298609Y-43367608D01*
X71298610Y-43367607D01*
X71298614Y-43367607D01*
X71444693Y-43307099D01*
X71570134Y-43210845D01*
X71666388Y-43085404D01*
X71726896Y-42939325D01*
X71736206Y-42868614D01*
X71747534Y-42782565D01*
X71747534Y-42778401D01*
X71748611Y-42774378D01*
X71748809Y-42772881D01*
X71749006Y-42772906D01*
X71767496Y-42703901D01*
X71822034Y-42649363D01*
X71896534Y-42629401D01*
X71971034Y-42649363D01*
X71987225Y-42660181D01*
X72097159Y-42744536D01*
X72243238Y-42805044D01*
X72243241Y-42805044D01*
X72243243Y-42805045D01*
X72243240Y-42805045D01*
X72399997Y-42825682D01*
X72400000Y-42825682D01*
X72400003Y-42825682D01*
X72556757Y-42805045D01*
X72556758Y-42805044D01*
X72556762Y-42805044D01*
X72702841Y-42744536D01*
X72828282Y-42648282D01*
X72828285Y-42648277D01*
X72831219Y-42645344D01*
X72834823Y-42643262D01*
X72836030Y-42642337D01*
X72836151Y-42642495D01*
X72898012Y-42606777D01*
X72975140Y-42606773D01*
X73041937Y-42645334D01*
G37*
%TD.AperFunction*%
%TA.AperFunction,Conductor*%
G36*
X39646251Y-33293966D02*
G01*
X39704005Y-33280500D01*
X52995995Y-33280500D01*
X53046251Y-33293966D01*
X53104005Y-33280500D01*
X71927644Y-33280500D01*
X72002144Y-33300462D01*
X72056682Y-33355000D01*
X72076644Y-33429500D01*
X72056682Y-33504000D01*
X72013107Y-33551554D01*
X71900938Y-33630095D01*
X72370512Y-34099669D01*
X72360110Y-34103978D01*
X72253649Y-34175112D01*
X72163112Y-34265649D01*
X72091978Y-34372110D01*
X72087669Y-34382512D01*
X71618095Y-33912938D01*
X71537865Y-34027517D01*
X71537862Y-34027522D01*
X71441733Y-34233674D01*
X71441732Y-34233676D01*
X71382859Y-34453393D01*
X71363034Y-34680000D01*
X71382859Y-34906606D01*
X71441732Y-35126323D01*
X71441733Y-35126325D01*
X71537866Y-35332483D01*
X71537872Y-35332492D01*
X71618094Y-35447060D01*
X72087668Y-34977486D01*
X72091978Y-34987890D01*
X72163112Y-35094351D01*
X72253649Y-35184888D01*
X72360110Y-35256022D01*
X72370511Y-35260330D01*
X71900938Y-35729904D01*
X72015507Y-35810127D01*
X72015520Y-35810135D01*
X72025865Y-35814959D01*
X72084949Y-35864535D01*
X72111329Y-35937012D01*
X72097936Y-36012968D01*
X72048360Y-36072052D01*
X72025872Y-36085036D01*
X72015527Y-36089860D01*
X72015517Y-36089865D01*
X71900938Y-36170095D01*
X72370512Y-36639669D01*
X72360110Y-36643978D01*
X72253649Y-36715112D01*
X72163112Y-36805649D01*
X72091978Y-36912110D01*
X72087669Y-36922512D01*
X71618095Y-36452938D01*
X71537865Y-36567517D01*
X71537862Y-36567522D01*
X71441733Y-36773674D01*
X71441732Y-36773676D01*
X71382859Y-36993393D01*
X71363034Y-37220000D01*
X71382859Y-37446606D01*
X71441732Y-37666323D01*
X71441733Y-37666325D01*
X71537866Y-37872483D01*
X71537872Y-37872492D01*
X71618094Y-37987060D01*
X72087668Y-37517486D01*
X72091978Y-37527890D01*
X72163112Y-37634351D01*
X72253649Y-37724888D01*
X72360110Y-37796022D01*
X72370511Y-37800330D01*
X71900938Y-38269904D01*
X72015507Y-38350127D01*
X72015516Y-38350133D01*
X72221674Y-38446266D01*
X72221676Y-38446267D01*
X72441394Y-38505140D01*
X72441393Y-38505140D01*
X72668000Y-38524965D01*
X72894606Y-38505140D01*
X73114323Y-38446267D01*
X73114325Y-38446266D01*
X73320478Y-38350135D01*
X73320488Y-38350129D01*
X73435061Y-38269904D01*
X72965487Y-37800330D01*
X72975890Y-37796022D01*
X73082351Y-37724888D01*
X73172888Y-37634351D01*
X73244022Y-37527890D01*
X73248330Y-37517487D01*
X73717904Y-37987061D01*
X73798129Y-37872488D01*
X73798137Y-37872474D01*
X73802960Y-37862133D01*
X73852536Y-37803049D01*
X73925013Y-37776669D01*
X74000969Y-37790062D01*
X74060053Y-37839638D01*
X74073040Y-37862133D01*
X74077864Y-37872479D01*
X74077872Y-37872492D01*
X74158094Y-37987060D01*
X74627668Y-37517486D01*
X74631978Y-37527890D01*
X74703112Y-37634351D01*
X74793649Y-37724888D01*
X74900110Y-37796022D01*
X74910511Y-37800330D01*
X74440938Y-38269904D01*
X74555507Y-38350127D01*
X74555516Y-38350133D01*
X74761674Y-38446266D01*
X74761676Y-38446267D01*
X74981394Y-38505140D01*
X74981393Y-38505140D01*
X75208000Y-38524965D01*
X75434606Y-38505140D01*
X75654323Y-38446267D01*
X75654325Y-38446266D01*
X75860478Y-38350135D01*
X75860488Y-38350129D01*
X75975061Y-38269904D01*
X75505487Y-37800330D01*
X75515890Y-37796022D01*
X75622351Y-37724888D01*
X75712888Y-37634351D01*
X75784022Y-37527890D01*
X75788330Y-37517487D01*
X76257904Y-37987061D01*
X76338129Y-37872488D01*
X76338137Y-37872474D01*
X76342960Y-37862133D01*
X76392536Y-37803049D01*
X76465013Y-37776669D01*
X76540969Y-37790062D01*
X76600053Y-37839638D01*
X76613040Y-37862133D01*
X76617864Y-37872479D01*
X76617872Y-37872492D01*
X76698094Y-37987060D01*
X77167668Y-37517486D01*
X77171978Y-37527890D01*
X77243112Y-37634351D01*
X77333649Y-37724888D01*
X77440110Y-37796022D01*
X77450511Y-37800330D01*
X76980938Y-38269904D01*
X77095507Y-38350127D01*
X77095516Y-38350133D01*
X77301674Y-38446266D01*
X77301676Y-38446267D01*
X77521394Y-38505140D01*
X77521393Y-38505140D01*
X77748000Y-38524965D01*
X77974606Y-38505140D01*
X78194323Y-38446267D01*
X78194325Y-38446266D01*
X78400478Y-38350135D01*
X78400488Y-38350129D01*
X78515061Y-38269904D01*
X78045487Y-37800330D01*
X78055890Y-37796022D01*
X78162351Y-37724888D01*
X78252888Y-37634351D01*
X78324022Y-37527890D01*
X78328330Y-37517487D01*
X78797904Y-37987061D01*
X78878129Y-37872488D01*
X78878137Y-37872474D01*
X78882960Y-37862133D01*
X78932536Y-37803049D01*
X79005013Y-37776669D01*
X79080969Y-37790062D01*
X79140053Y-37839638D01*
X79153040Y-37862133D01*
X79157864Y-37872479D01*
X79157872Y-37872492D01*
X79238094Y-37987060D01*
X79707668Y-37517486D01*
X79711978Y-37527890D01*
X79783112Y-37634351D01*
X79873649Y-37724888D01*
X79980110Y-37796022D01*
X79990511Y-37800330D01*
X79520938Y-38269904D01*
X79635507Y-38350127D01*
X79635516Y-38350133D01*
X79841674Y-38446266D01*
X79841676Y-38446267D01*
X80061394Y-38505140D01*
X80061393Y-38505140D01*
X80288000Y-38524965D01*
X80514606Y-38505140D01*
X80734323Y-38446267D01*
X80734325Y-38446266D01*
X80940478Y-38350135D01*
X80940488Y-38350129D01*
X81055061Y-38269904D01*
X80585487Y-37800330D01*
X80595890Y-37796022D01*
X80702351Y-37724888D01*
X80792888Y-37634351D01*
X80864022Y-37527890D01*
X80868330Y-37517487D01*
X81337904Y-37987061D01*
X81418129Y-37872488D01*
X81418135Y-37872478D01*
X81514266Y-37666325D01*
X81514267Y-37666323D01*
X81573140Y-37446606D01*
X81592965Y-37220000D01*
X81573140Y-36993393D01*
X81514267Y-36773676D01*
X81514266Y-36773674D01*
X81418133Y-36567516D01*
X81418127Y-36567507D01*
X81337904Y-36452938D01*
X80868330Y-36922511D01*
X80864022Y-36912110D01*
X80792888Y-36805649D01*
X80702351Y-36715112D01*
X80595890Y-36643978D01*
X80585486Y-36639668D01*
X81055061Y-36170094D01*
X80940492Y-36089872D01*
X80940479Y-36089864D01*
X80930133Y-36085040D01*
X80871049Y-36035464D01*
X80844669Y-35962987D01*
X80858062Y-35887031D01*
X80907638Y-35827947D01*
X80930133Y-35814960D01*
X80940474Y-35810137D01*
X80940488Y-35810129D01*
X81055061Y-35729904D01*
X80585487Y-35260330D01*
X80595890Y-35256022D01*
X80702351Y-35184888D01*
X80792888Y-35094351D01*
X80864022Y-34987890D01*
X80868330Y-34977487D01*
X81337904Y-35447061D01*
X81418129Y-35332488D01*
X81418135Y-35332478D01*
X81514266Y-35126325D01*
X81514267Y-35126323D01*
X81573140Y-34906606D01*
X81592965Y-34680000D01*
X81573140Y-34453393D01*
X81514267Y-34233676D01*
X81514266Y-34233674D01*
X81418133Y-34027516D01*
X81418127Y-34027507D01*
X81337904Y-33912938D01*
X80868330Y-34382511D01*
X80864022Y-34372110D01*
X80792888Y-34265649D01*
X80702351Y-34175112D01*
X80595890Y-34103978D01*
X80585486Y-34099668D01*
X81055061Y-33630094D01*
X80942893Y-33551553D01*
X80893316Y-33492470D01*
X80879923Y-33416513D01*
X80906303Y-33344037D01*
X80965386Y-33294460D01*
X81028356Y-33280500D01*
X110682644Y-33280500D01*
X110757144Y-33300462D01*
X110811682Y-33355000D01*
X110831644Y-33429500D01*
X110811682Y-33504000D01*
X110768107Y-33551554D01*
X110655938Y-33630095D01*
X111125512Y-34099669D01*
X111115110Y-34103978D01*
X111008649Y-34175112D01*
X110918112Y-34265649D01*
X110846978Y-34372110D01*
X110842669Y-34382512D01*
X110373095Y-33912938D01*
X110292865Y-34027517D01*
X110292862Y-34027522D01*
X110196733Y-34233674D01*
X110196732Y-34233676D01*
X110137859Y-34453393D01*
X110118034Y-34680000D01*
X110137859Y-34906606D01*
X110196732Y-35126323D01*
X110196733Y-35126325D01*
X110292866Y-35332483D01*
X110292872Y-35332492D01*
X110373094Y-35447060D01*
X110842668Y-34977486D01*
X110846978Y-34987890D01*
X110918112Y-35094351D01*
X111008649Y-35184888D01*
X111115110Y-35256022D01*
X111125511Y-35260330D01*
X110655938Y-35729904D01*
X110770507Y-35810127D01*
X110770520Y-35810135D01*
X110780865Y-35814959D01*
X110839949Y-35864535D01*
X110866329Y-35937012D01*
X110852936Y-36012968D01*
X110803360Y-36072052D01*
X110780872Y-36085036D01*
X110770527Y-36089860D01*
X110770517Y-36089865D01*
X110655938Y-36170095D01*
X111125512Y-36639669D01*
X111115110Y-36643978D01*
X111008649Y-36715112D01*
X110918112Y-36805649D01*
X110846978Y-36912110D01*
X110842669Y-36922512D01*
X110373095Y-36452938D01*
X110292865Y-36567517D01*
X110292862Y-36567522D01*
X110196733Y-36773674D01*
X110196732Y-36773676D01*
X110137859Y-36993393D01*
X110118034Y-37220000D01*
X110137859Y-37446606D01*
X110196732Y-37666323D01*
X110196733Y-37666325D01*
X110292866Y-37872483D01*
X110292872Y-37872492D01*
X110373094Y-37987060D01*
X110842668Y-37517486D01*
X110846978Y-37527890D01*
X110918112Y-37634351D01*
X111008649Y-37724888D01*
X111115110Y-37796022D01*
X111125511Y-37800330D01*
X110655938Y-38269904D01*
X110770507Y-38350127D01*
X110770516Y-38350133D01*
X110976674Y-38446266D01*
X110976676Y-38446267D01*
X111196394Y-38505140D01*
X111196393Y-38505140D01*
X111423000Y-38524965D01*
X111649606Y-38505140D01*
X111869323Y-38446267D01*
X111869325Y-38446266D01*
X112075478Y-38350135D01*
X112075488Y-38350129D01*
X112190061Y-38269904D01*
X111720487Y-37800330D01*
X111730890Y-37796022D01*
X111837351Y-37724888D01*
X111927888Y-37634351D01*
X111999022Y-37527890D01*
X112003330Y-37517487D01*
X112472904Y-37987061D01*
X112553129Y-37872488D01*
X112553137Y-37872474D01*
X112557960Y-37862133D01*
X112607536Y-37803049D01*
X112680013Y-37776669D01*
X112755969Y-37790062D01*
X112815053Y-37839638D01*
X112828040Y-37862133D01*
X112832864Y-37872479D01*
X112832872Y-37872492D01*
X112913094Y-37987060D01*
X113382668Y-37517486D01*
X113386978Y-37527890D01*
X113458112Y-37634351D01*
X113548649Y-37724888D01*
X113655110Y-37796022D01*
X113665511Y-37800330D01*
X113195938Y-38269904D01*
X113310507Y-38350127D01*
X113310516Y-38350133D01*
X113516674Y-38446266D01*
X113516676Y-38446267D01*
X113736394Y-38505140D01*
X113736393Y-38505140D01*
X113963000Y-38524965D01*
X114189606Y-38505140D01*
X114409323Y-38446267D01*
X114409325Y-38446266D01*
X114615478Y-38350135D01*
X114615488Y-38350129D01*
X114730061Y-38269904D01*
X114260487Y-37800330D01*
X114270890Y-37796022D01*
X114377351Y-37724888D01*
X114467888Y-37634351D01*
X114539022Y-37527890D01*
X114543330Y-37517487D01*
X115012904Y-37987061D01*
X115093129Y-37872488D01*
X115093137Y-37872474D01*
X115102623Y-37852133D01*
X115152199Y-37793049D01*
X115224676Y-37766669D01*
X115300632Y-37780062D01*
X115359716Y-37829638D01*
X115372703Y-37852132D01*
X115372866Y-37852483D01*
X115372872Y-37852492D01*
X115453094Y-37967060D01*
X115922668Y-37497486D01*
X115926978Y-37507890D01*
X115998112Y-37614351D01*
X116088649Y-37704888D01*
X116195110Y-37776022D01*
X116205511Y-37780330D01*
X115735938Y-38249904D01*
X115850507Y-38330127D01*
X115850516Y-38330133D01*
X116056674Y-38426266D01*
X116056676Y-38426267D01*
X116276394Y-38485140D01*
X116276393Y-38485140D01*
X116503000Y-38504965D01*
X116729606Y-38485140D01*
X116949323Y-38426267D01*
X116949325Y-38426266D01*
X117155478Y-38330135D01*
X117155488Y-38330129D01*
X117270061Y-38249904D01*
X116800487Y-37780330D01*
X116810890Y-37776022D01*
X116917351Y-37704888D01*
X117007888Y-37614351D01*
X117079022Y-37507890D01*
X117083330Y-37497487D01*
X117552904Y-37967061D01*
X117633129Y-37852488D01*
X117633137Y-37852474D01*
X117637960Y-37842133D01*
X117687536Y-37783049D01*
X117760013Y-37756669D01*
X117835969Y-37770062D01*
X117895053Y-37819638D01*
X117908040Y-37842133D01*
X117912864Y-37852479D01*
X117912872Y-37852492D01*
X117993094Y-37967060D01*
X118462668Y-37497486D01*
X118466978Y-37507890D01*
X118538112Y-37614351D01*
X118628649Y-37704888D01*
X118735110Y-37776022D01*
X118745511Y-37780330D01*
X118275938Y-38249904D01*
X118390507Y-38330127D01*
X118390516Y-38330133D01*
X118596674Y-38426266D01*
X118596676Y-38426267D01*
X118816394Y-38485140D01*
X118816393Y-38485140D01*
X119043000Y-38504965D01*
X119269606Y-38485140D01*
X119489323Y-38426267D01*
X119489325Y-38426266D01*
X119695478Y-38330135D01*
X119695488Y-38330129D01*
X119810061Y-38249904D01*
X119340487Y-37780330D01*
X119350890Y-37776022D01*
X119457351Y-37704888D01*
X119547888Y-37614351D01*
X119619022Y-37507890D01*
X119623330Y-37497487D01*
X120092904Y-37967061D01*
X120173129Y-37852488D01*
X120173135Y-37852478D01*
X120269266Y-37646325D01*
X120269267Y-37646323D01*
X120328140Y-37426606D01*
X120347965Y-37200000D01*
X120328140Y-36973393D01*
X120269267Y-36753676D01*
X120269266Y-36753674D01*
X120173133Y-36547516D01*
X120173127Y-36547507D01*
X120092904Y-36432938D01*
X119623330Y-36902511D01*
X119619022Y-36892110D01*
X119547888Y-36785649D01*
X119457351Y-36695112D01*
X119350890Y-36623978D01*
X119340486Y-36619668D01*
X119810061Y-36150094D01*
X119695492Y-36069872D01*
X119695479Y-36069864D01*
X119685133Y-36065040D01*
X119626049Y-36015464D01*
X119599669Y-35942987D01*
X119613062Y-35867031D01*
X119662638Y-35807947D01*
X119685133Y-35794960D01*
X119695474Y-35790137D01*
X119695488Y-35790129D01*
X119810061Y-35709904D01*
X119627314Y-35527157D01*
X126017500Y-35527157D01*
X126017500Y-35684842D01*
X126048262Y-35839494D01*
X126048263Y-35839498D01*
X126108604Y-35985176D01*
X126108605Y-35985178D01*
X126108606Y-35985179D01*
X126196211Y-36116289D01*
X126307711Y-36227789D01*
X126438821Y-36315394D01*
X126584503Y-36375737D01*
X126739158Y-36406500D01*
X126896842Y-36406500D01*
X127051497Y-36375737D01*
X127197179Y-36315394D01*
X127328289Y-36227789D01*
X127439789Y-36116289D01*
X127527394Y-35985179D01*
X127587737Y-35839497D01*
X127618500Y-35684842D01*
X127618500Y-35527158D01*
X127587737Y-35372503D01*
X127531205Y-35236022D01*
X127527395Y-35226823D01*
X127527292Y-35226669D01*
X127439789Y-35095711D01*
X127328289Y-34984211D01*
X127197179Y-34896606D01*
X127197178Y-34896605D01*
X127197176Y-34896604D01*
X127051498Y-34836263D01*
X127051494Y-34836262D01*
X126896842Y-34805500D01*
X126739158Y-34805500D01*
X126584505Y-34836262D01*
X126584501Y-34836263D01*
X126438823Y-34896604D01*
X126351012Y-34955278D01*
X126339691Y-34962843D01*
X126307707Y-34984214D01*
X126196214Y-35095707D01*
X126196211Y-35095710D01*
X126196211Y-35095711D01*
X126189119Y-35106325D01*
X126108604Y-35226823D01*
X126048263Y-35372501D01*
X126048262Y-35372505D01*
X126017500Y-35527157D01*
X119627314Y-35527157D01*
X119340487Y-35240330D01*
X119350890Y-35236022D01*
X119457351Y-35164888D01*
X119547888Y-35074351D01*
X119619022Y-34967890D01*
X119623330Y-34957487D01*
X120092904Y-35427061D01*
X120173129Y-35312488D01*
X120173135Y-35312478D01*
X120269266Y-35106325D01*
X120269267Y-35106323D01*
X120328140Y-34886606D01*
X120347965Y-34660000D01*
X120328140Y-34433393D01*
X120269267Y-34213676D01*
X120269266Y-34213674D01*
X120173133Y-34007516D01*
X120173127Y-34007507D01*
X120092904Y-33892938D01*
X119623330Y-34362511D01*
X119619022Y-34352110D01*
X119547888Y-34245649D01*
X119457351Y-34155112D01*
X119350890Y-34083978D01*
X119340486Y-34079668D01*
X119810060Y-33610094D01*
X119726456Y-33551553D01*
X119676879Y-33492470D01*
X119663486Y-33416513D01*
X119689866Y-33344037D01*
X119748949Y-33294460D01*
X119811919Y-33280500D01*
X132234081Y-33280500D01*
X132308581Y-33300462D01*
X132363119Y-33355000D01*
X132383081Y-33429500D01*
X132363119Y-33504000D01*
X132319544Y-33551554D01*
X132235938Y-33610095D01*
X132705512Y-34079669D01*
X132695110Y-34083978D01*
X132588649Y-34155112D01*
X132498112Y-34245649D01*
X132426978Y-34352110D01*
X132422669Y-34362512D01*
X131953095Y-33892938D01*
X131872865Y-34007517D01*
X131872862Y-34007522D01*
X131776733Y-34213674D01*
X131776732Y-34213676D01*
X131717859Y-34433393D01*
X131698034Y-34660000D01*
X131717859Y-34886606D01*
X131776732Y-35106323D01*
X131776733Y-35106325D01*
X131872866Y-35312483D01*
X131872872Y-35312492D01*
X131953094Y-35427060D01*
X132422668Y-34957486D01*
X132426978Y-34967890D01*
X132498112Y-35074351D01*
X132588649Y-35164888D01*
X132695110Y-35236022D01*
X132705511Y-35240330D01*
X132235938Y-35709904D01*
X132350507Y-35790127D01*
X132350520Y-35790135D01*
X132360865Y-35794959D01*
X132419949Y-35844535D01*
X132446329Y-35917012D01*
X132432936Y-35992968D01*
X132383360Y-36052052D01*
X132360872Y-36065036D01*
X132350527Y-36069860D01*
X132350517Y-36069865D01*
X132235938Y-36150095D01*
X132705512Y-36619669D01*
X132695110Y-36623978D01*
X132588649Y-36695112D01*
X132498112Y-36785649D01*
X132426978Y-36892110D01*
X132422669Y-36902512D01*
X131953095Y-36432938D01*
X131872865Y-36547517D01*
X131872862Y-36547522D01*
X131776733Y-36753674D01*
X131776732Y-36753676D01*
X131717859Y-36973393D01*
X131698034Y-37200000D01*
X131717859Y-37426606D01*
X131776732Y-37646323D01*
X131776733Y-37646325D01*
X131872866Y-37852483D01*
X131872872Y-37852492D01*
X131953094Y-37967060D01*
X132422668Y-37497486D01*
X132426978Y-37507890D01*
X132498112Y-37614351D01*
X132588649Y-37704888D01*
X132695110Y-37776022D01*
X132705511Y-37780330D01*
X132235938Y-38249904D01*
X132350507Y-38330127D01*
X132350516Y-38330133D01*
X132556674Y-38426266D01*
X132556676Y-38426267D01*
X132776394Y-38485140D01*
X132776393Y-38485140D01*
X133003000Y-38504965D01*
X133229606Y-38485140D01*
X133449323Y-38426267D01*
X133449325Y-38426266D01*
X133655478Y-38330135D01*
X133655488Y-38330129D01*
X133770061Y-38249904D01*
X133300487Y-37780330D01*
X133310890Y-37776022D01*
X133417351Y-37704888D01*
X133507888Y-37614351D01*
X133579022Y-37507890D01*
X133583330Y-37497487D01*
X134052904Y-37967061D01*
X134133129Y-37852488D01*
X134133137Y-37852474D01*
X134137960Y-37842133D01*
X134187536Y-37783049D01*
X134260013Y-37756669D01*
X134335969Y-37770062D01*
X134395053Y-37819638D01*
X134408040Y-37842133D01*
X134412864Y-37852479D01*
X134412872Y-37852492D01*
X134493094Y-37967060D01*
X134962668Y-37497486D01*
X134966978Y-37507890D01*
X135038112Y-37614351D01*
X135128649Y-37704888D01*
X135235110Y-37776022D01*
X135245511Y-37780330D01*
X134775938Y-38249904D01*
X134890507Y-38330127D01*
X134890516Y-38330133D01*
X135096674Y-38426266D01*
X135096676Y-38426267D01*
X135316394Y-38485140D01*
X135316393Y-38485140D01*
X135543000Y-38504965D01*
X135769606Y-38485140D01*
X135989323Y-38426267D01*
X135989325Y-38426266D01*
X136195478Y-38330135D01*
X136195488Y-38330129D01*
X136310061Y-38249904D01*
X135840487Y-37780330D01*
X135850890Y-37776022D01*
X135957351Y-37704888D01*
X136047888Y-37614351D01*
X136119022Y-37507890D01*
X136123330Y-37497487D01*
X136592904Y-37967061D01*
X136673129Y-37852488D01*
X136673137Y-37852474D01*
X136677960Y-37842133D01*
X136727536Y-37783049D01*
X136800013Y-37756669D01*
X136875969Y-37770062D01*
X136935053Y-37819638D01*
X136948040Y-37842133D01*
X136952864Y-37852479D01*
X136952872Y-37852492D01*
X137033094Y-37967060D01*
X137502668Y-37497486D01*
X137506978Y-37507890D01*
X137578112Y-37614351D01*
X137668649Y-37704888D01*
X137775110Y-37776022D01*
X137785511Y-37780330D01*
X137315938Y-38249904D01*
X137430507Y-38330127D01*
X137430516Y-38330133D01*
X137636674Y-38426266D01*
X137636676Y-38426267D01*
X137856394Y-38485140D01*
X137856393Y-38485140D01*
X138083000Y-38504965D01*
X138309606Y-38485140D01*
X138529323Y-38426267D01*
X138529325Y-38426266D01*
X138735478Y-38330135D01*
X138735488Y-38330129D01*
X138850061Y-38249904D01*
X138380487Y-37780330D01*
X138390890Y-37776022D01*
X138497351Y-37704888D01*
X138587888Y-37614351D01*
X138659022Y-37507890D01*
X138663330Y-37497487D01*
X139132904Y-37967061D01*
X139213129Y-37852488D01*
X139213135Y-37852478D01*
X139309266Y-37646325D01*
X139309267Y-37646323D01*
X139368140Y-37426606D01*
X139387965Y-37200000D01*
X139368140Y-36973393D01*
X139309267Y-36753676D01*
X139309266Y-36753674D01*
X139213133Y-36547516D01*
X139213127Y-36547507D01*
X139132904Y-36432938D01*
X138663330Y-36902511D01*
X138659022Y-36892110D01*
X138587888Y-36785649D01*
X138497351Y-36695112D01*
X138390890Y-36623978D01*
X138380486Y-36619668D01*
X138850061Y-36150094D01*
X138735492Y-36069872D01*
X138735479Y-36069864D01*
X138725133Y-36065040D01*
X138666049Y-36015464D01*
X138639669Y-35942987D01*
X138653062Y-35867031D01*
X138702638Y-35807947D01*
X138725133Y-35794960D01*
X138735474Y-35790137D01*
X138735488Y-35790129D01*
X138850061Y-35709904D01*
X138380487Y-35240330D01*
X138390890Y-35236022D01*
X138497351Y-35164888D01*
X138587888Y-35074351D01*
X138659022Y-34967890D01*
X138663330Y-34957487D01*
X139132904Y-35427061D01*
X139213129Y-35312488D01*
X139213135Y-35312478D01*
X139309266Y-35106325D01*
X139309267Y-35106323D01*
X139368140Y-34886606D01*
X139387965Y-34660000D01*
X139368140Y-34433393D01*
X139309267Y-34213676D01*
X139309266Y-34213674D01*
X139213133Y-34007516D01*
X139213127Y-34007507D01*
X139132904Y-33892938D01*
X138663330Y-34362511D01*
X138659022Y-34352110D01*
X138587888Y-34245649D01*
X138497351Y-34155112D01*
X138390890Y-34083978D01*
X138380486Y-34079668D01*
X138850061Y-33610094D01*
X138766456Y-33551553D01*
X138716879Y-33492470D01*
X138703486Y-33416513D01*
X138729866Y-33344037D01*
X138788949Y-33294460D01*
X138851919Y-33280500D01*
X141650500Y-33280500D01*
X141725000Y-33300462D01*
X141779538Y-33355000D01*
X141799500Y-33429500D01*
X141799500Y-56754711D01*
X141779538Y-56829211D01*
X141725000Y-56883749D01*
X141650500Y-56903711D01*
X141576000Y-56883749D01*
X141521462Y-56829211D01*
X141509408Y-56802606D01*
X141486899Y-56736297D01*
X141359346Y-56477643D01*
X141199126Y-56237858D01*
X141199117Y-56237846D01*
X141141123Y-56171717D01*
X140356534Y-56956306D01*
X140289033Y-56863398D01*
X140166602Y-56740967D01*
X140073691Y-56673463D01*
X140858280Y-55888875D01*
X140792144Y-55830876D01*
X140792141Y-55830873D01*
X140552356Y-55670653D01*
X140293707Y-55543103D01*
X140020628Y-55450405D01*
X139737775Y-55394142D01*
X139450000Y-55375280D01*
X139162224Y-55394142D01*
X138879371Y-55450405D01*
X138606292Y-55543103D01*
X138347643Y-55670653D01*
X138107847Y-55830881D01*
X138041718Y-55888874D01*
X138041718Y-55888875D01*
X138826307Y-56673464D01*
X138733398Y-56740967D01*
X138610967Y-56863398D01*
X138543464Y-56956307D01*
X137758875Y-56171718D01*
X137758874Y-56171718D01*
X137700881Y-56237847D01*
X137540653Y-56477643D01*
X137413103Y-56736292D01*
X137320405Y-57009371D01*
X137264142Y-57292224D01*
X137245280Y-57580000D01*
X137264142Y-57867775D01*
X137320405Y-58150628D01*
X137413103Y-58423707D01*
X137540653Y-58682356D01*
X137700873Y-58922141D01*
X137700876Y-58922144D01*
X137758875Y-58988280D01*
X138543463Y-58203691D01*
X138610967Y-58296602D01*
X138733398Y-58419033D01*
X138826307Y-58486534D01*
X138041717Y-59271124D01*
X138107846Y-59329117D01*
X138107858Y-59329126D01*
X138347643Y-59489346D01*
X138606292Y-59616896D01*
X138879371Y-59709594D01*
X139162224Y-59765857D01*
X139450000Y-59784719D01*
X139737775Y-59765857D01*
X140020628Y-59709594D01*
X140293707Y-59616896D01*
X140552356Y-59489346D01*
X140792152Y-59329119D01*
X140858280Y-59271125D01*
X140858281Y-59271124D01*
X140073692Y-58486535D01*
X140166602Y-58419033D01*
X140289033Y-58296602D01*
X140356535Y-58203691D01*
X141141124Y-58988281D01*
X141141125Y-58988280D01*
X141199119Y-58922152D01*
X141359346Y-58682356D01*
X141486896Y-58423707D01*
X141509407Y-58357394D01*
X141552257Y-58293264D01*
X141621431Y-58259151D01*
X141698394Y-58264195D01*
X141762524Y-58307045D01*
X141796637Y-58376219D01*
X141799500Y-58405288D01*
X141799500Y-87130500D01*
X141779538Y-87205000D01*
X141725000Y-87259538D01*
X141650500Y-87279500D01*
X141115892Y-87279500D01*
X141050000Y-87279500D01*
X140951583Y-87279500D01*
X140757174Y-87310291D01*
X140569975Y-87371116D01*
X140569972Y-87371117D01*
X140569963Y-87371121D01*
X140394598Y-87460474D01*
X140394593Y-87460477D01*
X140235363Y-87576165D01*
X140235352Y-87576174D01*
X140096174Y-87715352D01*
X140096165Y-87715363D01*
X139980477Y-87874593D01*
X139980474Y-87874598D01*
X139891121Y-88049963D01*
X139891117Y-88049972D01*
X139891116Y-88049975D01*
X139830291Y-88237174D01*
X139799500Y-88431583D01*
X139799500Y-88431587D01*
X139799500Y-92760968D01*
X139779538Y-92835468D01*
X139755859Y-92866327D01*
X139386327Y-93235859D01*
X139319532Y-93274423D01*
X139280968Y-93279500D01*
X122959032Y-93279500D01*
X122884532Y-93259538D01*
X122853673Y-93235859D01*
X122484140Y-92866326D01*
X122445576Y-92799531D01*
X122440499Y-92760967D01*
X122440499Y-88163040D01*
X122442420Y-88145351D01*
X122442140Y-88145327D01*
X122442974Y-88135593D01*
X122440653Y-88084535D01*
X122440499Y-88077768D01*
X122440499Y-88026612D01*
X122440499Y-88026608D01*
X122440497Y-88026604D01*
X122439224Y-88016930D01*
X122439478Y-88016896D01*
X122436736Y-87999209D01*
X122433902Y-87937625D01*
X122416625Y-87845892D01*
X122384933Y-87677623D01*
X122299978Y-87427059D01*
X122180715Y-87190889D01*
X122029504Y-86973783D01*
X121849335Y-86780034D01*
X121849333Y-86780033D01*
X121849331Y-86780030D01*
X121643781Y-86613482D01*
X121643759Y-86613467D01*
X121416877Y-86477397D01*
X121391506Y-86466685D01*
X121173131Y-86374488D01*
X121173124Y-86374486D01*
X120917360Y-86306788D01*
X120654635Y-86275635D01*
X120654631Y-86275635D01*
X120390124Y-86281644D01*
X120390118Y-86281644D01*
X120390113Y-86281645D01*
X120129080Y-86324693D01*
X120129075Y-86324694D01*
X119876649Y-86403937D01*
X119876644Y-86403939D01*
X119637833Y-86517805D01*
X119417344Y-86664048D01*
X119219556Y-86839771D01*
X119048369Y-87041502D01*
X118907174Y-87265247D01*
X118907170Y-87265254D01*
X118798759Y-87506587D01*
X118798758Y-87506591D01*
X118738395Y-87715354D01*
X118725267Y-87760755D01*
X118695172Y-87973186D01*
X118688155Y-88022713D01*
X118688087Y-88146857D01*
X118688082Y-88155041D01*
X118688082Y-88220890D01*
X118688226Y-88221984D01*
X118689500Y-88241430D01*
X118689500Y-92760968D01*
X118669538Y-92835468D01*
X118645859Y-92866327D01*
X118276327Y-93235859D01*
X118209532Y-93274423D01*
X118170968Y-93279500D01*
X110249032Y-93279500D01*
X110174532Y-93259538D01*
X110143673Y-93235859D01*
X109774141Y-92866327D01*
X109735577Y-92799532D01*
X109730500Y-92760968D01*
X109730500Y-87592815D01*
X109730500Y-87592811D01*
X109695400Y-87371195D01*
X109626063Y-87157798D01*
X109626062Y-87157797D01*
X109626062Y-87157795D01*
X109566807Y-87041502D01*
X109524197Y-86957875D01*
X109392311Y-86776349D01*
X109233651Y-86617689D01*
X109052125Y-86485803D01*
X108987167Y-86452705D01*
X108852204Y-86383937D01*
X108669871Y-86324694D01*
X108638805Y-86314600D01*
X108417189Y-86279500D01*
X108192811Y-86279500D01*
X107971195Y-86314600D01*
X107757795Y-86383937D01*
X107557873Y-86485804D01*
X107557872Y-86485804D01*
X107376350Y-86617688D01*
X107376347Y-86617690D01*
X107217690Y-86776347D01*
X107217688Y-86776350D01*
X107085804Y-86957872D01*
X107085804Y-86957873D01*
X106983937Y-87157795D01*
X106942276Y-87286017D01*
X106914600Y-87371195D01*
X106879500Y-87592811D01*
X106879500Y-87592815D01*
X106879500Y-92760968D01*
X106859538Y-92835468D01*
X106835859Y-92866327D01*
X106466327Y-93235859D01*
X106399532Y-93274423D01*
X106360968Y-93279500D01*
X90039032Y-93279500D01*
X89964532Y-93259538D01*
X89933673Y-93235859D01*
X89564141Y-92866327D01*
X89525577Y-92799532D01*
X89520500Y-92760968D01*
X89520500Y-88431587D01*
X89520500Y-88431583D01*
X89489709Y-88237174D01*
X89428884Y-88049975D01*
X89339524Y-87874595D01*
X89223828Y-87715354D01*
X89084646Y-87576172D01*
X88925405Y-87460476D01*
X88859820Y-87427059D01*
X88750036Y-87371121D01*
X88750030Y-87371119D01*
X88750025Y-87371116D01*
X88562826Y-87310291D01*
X88368417Y-87279500D01*
X88368412Y-87279500D01*
X87669500Y-87279500D01*
X87595000Y-87259538D01*
X87540462Y-87205000D01*
X87520500Y-87130500D01*
X87520500Y-82714108D01*
X87520499Y-82714106D01*
X87486392Y-82586814D01*
X87420500Y-82472686D01*
X87327314Y-82379500D01*
X87327311Y-82379498D01*
X87327310Y-82379497D01*
X87256514Y-82338623D01*
X87213186Y-82313608D01*
X87085892Y-82279500D01*
X81085481Y-82279500D01*
X81010981Y-82259538D01*
X80956443Y-82205000D01*
X80936481Y-82130500D01*
X80956443Y-82056000D01*
X81000017Y-82008447D01*
X81055061Y-81969904D01*
X80585487Y-81500330D01*
X80595890Y-81496022D01*
X80702351Y-81424888D01*
X80792888Y-81334351D01*
X80864022Y-81227890D01*
X80868330Y-81217487D01*
X81337904Y-81687061D01*
X81418129Y-81572488D01*
X81418135Y-81572478D01*
X81514266Y-81366325D01*
X81514267Y-81366323D01*
X81573140Y-81146606D01*
X81592965Y-80920000D01*
X81573140Y-80693393D01*
X81514267Y-80473676D01*
X81514266Y-80473674D01*
X81418133Y-80267516D01*
X81418127Y-80267507D01*
X81337904Y-80152938D01*
X80868330Y-80622511D01*
X80864022Y-80612110D01*
X80792888Y-80505649D01*
X80702351Y-80415112D01*
X80595890Y-80343978D01*
X80585486Y-80339668D01*
X81055060Y-79870094D01*
X80940492Y-79789872D01*
X80940479Y-79789864D01*
X80930133Y-79785040D01*
X80871049Y-79735464D01*
X80844669Y-79662987D01*
X80858062Y-79587031D01*
X80907638Y-79527947D01*
X80930133Y-79514960D01*
X80940474Y-79510137D01*
X80940488Y-79510129D01*
X81055061Y-79429904D01*
X80585487Y-78960330D01*
X80595890Y-78956022D01*
X80702351Y-78884888D01*
X80792888Y-78794351D01*
X80864022Y-78687890D01*
X80868330Y-78677487D01*
X81337904Y-79147061D01*
X81418129Y-79032488D01*
X81418135Y-79032478D01*
X81514266Y-78826325D01*
X81514267Y-78826323D01*
X81573140Y-78606606D01*
X81592965Y-78380000D01*
X110118034Y-78380000D01*
X110137859Y-78606606D01*
X110196732Y-78826323D01*
X110196733Y-78826325D01*
X110292866Y-79032483D01*
X110292872Y-79032492D01*
X110373094Y-79147060D01*
X110842668Y-78677486D01*
X110846978Y-78687890D01*
X110918112Y-78794351D01*
X111008649Y-78884888D01*
X111115110Y-78956022D01*
X111125511Y-78960330D01*
X110655938Y-79429904D01*
X110770507Y-79510127D01*
X110770520Y-79510135D01*
X110780865Y-79514959D01*
X110839949Y-79564535D01*
X110866329Y-79637012D01*
X110852936Y-79712968D01*
X110803360Y-79772052D01*
X110780872Y-79785036D01*
X110770527Y-79789860D01*
X110770517Y-79789865D01*
X110655938Y-79870095D01*
X111125512Y-80339669D01*
X111115110Y-80343978D01*
X111008649Y-80415112D01*
X110918112Y-80505649D01*
X110846978Y-80612110D01*
X110842669Y-80622512D01*
X110373095Y-80152938D01*
X110292865Y-80267517D01*
X110292862Y-80267522D01*
X110196733Y-80473674D01*
X110196732Y-80473676D01*
X110137859Y-80693393D01*
X110118034Y-80920000D01*
X110137859Y-81146606D01*
X110196732Y-81366323D01*
X110196733Y-81366325D01*
X110292866Y-81572483D01*
X110292872Y-81572492D01*
X110373094Y-81687060D01*
X110842668Y-81217486D01*
X110846978Y-81227890D01*
X110918112Y-81334351D01*
X111008649Y-81424888D01*
X111115110Y-81496022D01*
X111125511Y-81500330D01*
X110655938Y-81969904D01*
X110770507Y-82050127D01*
X110770516Y-82050133D01*
X110976674Y-82146266D01*
X110976676Y-82146267D01*
X111196394Y-82205140D01*
X111196393Y-82205140D01*
X111423000Y-82224965D01*
X111649606Y-82205140D01*
X111869323Y-82146267D01*
X111869325Y-82146266D01*
X112075478Y-82050135D01*
X112075488Y-82050129D01*
X112190061Y-81969904D01*
X111720487Y-81500330D01*
X111730890Y-81496022D01*
X111837351Y-81424888D01*
X111927888Y-81334351D01*
X111999022Y-81227890D01*
X112003330Y-81217487D01*
X112472904Y-81687061D01*
X112553129Y-81572488D01*
X112553137Y-81572474D01*
X112557960Y-81562133D01*
X112607536Y-81503049D01*
X112680013Y-81476669D01*
X112755969Y-81490062D01*
X112815053Y-81539638D01*
X112828040Y-81562133D01*
X112832864Y-81572479D01*
X112832872Y-81572492D01*
X112913094Y-81687060D01*
X113382668Y-81217486D01*
X113386978Y-81227890D01*
X113458112Y-81334351D01*
X113548649Y-81424888D01*
X113655110Y-81496022D01*
X113665511Y-81500330D01*
X113195938Y-81969904D01*
X113310507Y-82050127D01*
X113310516Y-82050133D01*
X113516674Y-82146266D01*
X113516676Y-82146267D01*
X113736394Y-82205140D01*
X113736393Y-82205140D01*
X113963000Y-82224965D01*
X114189606Y-82205140D01*
X114409323Y-82146267D01*
X114409325Y-82146266D01*
X114615478Y-82050135D01*
X114615488Y-82050129D01*
X114730061Y-81969904D01*
X114260487Y-81500330D01*
X114270890Y-81496022D01*
X114377351Y-81424888D01*
X114467888Y-81334351D01*
X114539022Y-81227890D01*
X114543330Y-81217487D01*
X115012904Y-81687061D01*
X115093129Y-81572488D01*
X115093137Y-81572474D01*
X115102623Y-81552133D01*
X115152199Y-81493049D01*
X115224676Y-81466669D01*
X115300632Y-81480062D01*
X115359716Y-81529638D01*
X115372703Y-81552132D01*
X115372866Y-81552483D01*
X115372872Y-81552492D01*
X115453094Y-81667060D01*
X115922668Y-81197486D01*
X115926978Y-81207890D01*
X115998112Y-81314351D01*
X116088649Y-81404888D01*
X116195110Y-81476022D01*
X116205511Y-81480330D01*
X115735938Y-81949904D01*
X115850507Y-82030127D01*
X115850516Y-82030133D01*
X116056674Y-82126266D01*
X116056676Y-82126267D01*
X116276394Y-82185140D01*
X116276393Y-82185140D01*
X116503000Y-82204965D01*
X116729606Y-82185140D01*
X116949323Y-82126267D01*
X116949325Y-82126266D01*
X117155478Y-82030135D01*
X117155488Y-82030129D01*
X117270061Y-81949904D01*
X116800487Y-81480330D01*
X116810890Y-81476022D01*
X116917351Y-81404888D01*
X117007888Y-81314351D01*
X117079022Y-81207890D01*
X117083330Y-81197487D01*
X117552904Y-81667061D01*
X117633129Y-81552488D01*
X117633137Y-81552474D01*
X117637960Y-81542133D01*
X117687536Y-81483049D01*
X117760013Y-81456669D01*
X117835969Y-81470062D01*
X117895053Y-81519638D01*
X117908040Y-81542133D01*
X117912864Y-81552479D01*
X117912872Y-81552492D01*
X117993094Y-81667060D01*
X118462668Y-81197486D01*
X118466978Y-81207890D01*
X118538112Y-81314351D01*
X118628649Y-81404888D01*
X118735110Y-81476022D01*
X118745511Y-81480330D01*
X118275938Y-81949904D01*
X118390507Y-82030127D01*
X118390516Y-82030133D01*
X118596674Y-82126266D01*
X118596676Y-82126267D01*
X118816394Y-82185140D01*
X118816393Y-82185140D01*
X119043000Y-82204965D01*
X119269606Y-82185140D01*
X119489323Y-82126267D01*
X119489325Y-82126266D01*
X119695478Y-82030135D01*
X119695488Y-82030129D01*
X119810061Y-81949904D01*
X119340487Y-81480330D01*
X119350890Y-81476022D01*
X119457351Y-81404888D01*
X119547888Y-81314351D01*
X119619022Y-81207890D01*
X119623330Y-81197487D01*
X120092904Y-81667061D01*
X120173129Y-81552488D01*
X120173135Y-81552478D01*
X120269266Y-81346325D01*
X120269267Y-81346323D01*
X120328140Y-81126606D01*
X120347965Y-80900000D01*
X120328140Y-80673393D01*
X120269267Y-80453676D01*
X120269266Y-80453674D01*
X120173133Y-80247516D01*
X120173127Y-80247507D01*
X120092904Y-80132938D01*
X119623330Y-80602511D01*
X119619022Y-80592110D01*
X119547888Y-80485649D01*
X119457351Y-80395112D01*
X119350890Y-80323978D01*
X119340486Y-80319668D01*
X119737923Y-79922232D01*
X125967500Y-79922232D01*
X125967500Y-80089767D01*
X126000183Y-80254079D01*
X126064294Y-80408858D01*
X126064301Y-80408870D01*
X126151892Y-80539958D01*
X126157374Y-80548162D01*
X126275838Y-80666626D01*
X126275841Y-80666628D01*
X126415129Y-80759698D01*
X126415133Y-80759700D01*
X126415137Y-80759703D01*
X126415138Y-80759703D01*
X126415141Y-80759705D01*
X126460472Y-80778481D01*
X126569918Y-80823816D01*
X126734233Y-80856500D01*
X126901767Y-80856500D01*
X127066082Y-80823816D01*
X127220863Y-80759703D01*
X127360162Y-80666626D01*
X127478626Y-80548162D01*
X127571703Y-80408863D01*
X127635816Y-80254082D01*
X127668500Y-80089767D01*
X127668500Y-79922233D01*
X127635816Y-79757918D01*
X127585735Y-79637012D01*
X127571705Y-79603141D01*
X127571698Y-79603129D01*
X127478628Y-79463841D01*
X127478626Y-79463838D01*
X127360162Y-79345374D01*
X127282420Y-79293428D01*
X127220870Y-79252301D01*
X127220858Y-79252294D01*
X127098136Y-79201461D01*
X127066082Y-79188184D01*
X127066080Y-79188183D01*
X127066079Y-79188183D01*
X126901767Y-79155500D01*
X126734233Y-79155500D01*
X126569920Y-79188183D01*
X126415141Y-79252294D01*
X126415129Y-79252301D01*
X126275841Y-79345371D01*
X126275834Y-79345377D01*
X126157377Y-79463834D01*
X126157371Y-79463841D01*
X126064301Y-79603129D01*
X126064294Y-79603141D01*
X126000183Y-79757920D01*
X125967500Y-79922232D01*
X119737923Y-79922232D01*
X119810061Y-79850094D01*
X119695492Y-79769872D01*
X119695479Y-79769864D01*
X119685133Y-79765040D01*
X119626049Y-79715464D01*
X119599669Y-79642987D01*
X119613062Y-79567031D01*
X119662638Y-79507947D01*
X119685133Y-79494960D01*
X119695474Y-79490137D01*
X119695488Y-79490129D01*
X119810061Y-79409904D01*
X119340487Y-78940330D01*
X119350890Y-78936022D01*
X119457351Y-78864888D01*
X119547888Y-78774351D01*
X119619022Y-78667890D01*
X119623330Y-78657487D01*
X120092904Y-79127061D01*
X120173129Y-79012488D01*
X120173135Y-79012478D01*
X120269266Y-78806325D01*
X120269267Y-78806323D01*
X120328140Y-78586606D01*
X120347965Y-78360000D01*
X120328140Y-78133393D01*
X120269267Y-77913676D01*
X120269266Y-77913674D01*
X120173133Y-77707516D01*
X120173127Y-77707507D01*
X120092904Y-77592938D01*
X119623330Y-78062511D01*
X119619022Y-78052110D01*
X119547888Y-77945649D01*
X119457351Y-77855112D01*
X119350890Y-77783978D01*
X119340486Y-77779668D01*
X119810060Y-77310094D01*
X119695492Y-77229872D01*
X119695483Y-77229866D01*
X119489325Y-77133733D01*
X119489323Y-77133732D01*
X119269605Y-77074859D01*
X119269606Y-77074859D01*
X119043000Y-77055034D01*
X118816393Y-77074859D01*
X118596676Y-77133732D01*
X118596674Y-77133733D01*
X118390522Y-77229862D01*
X118390517Y-77229865D01*
X118275938Y-77310095D01*
X118745512Y-77779669D01*
X118735110Y-77783978D01*
X118628649Y-77855112D01*
X118538112Y-77945649D01*
X118466978Y-78052110D01*
X118462669Y-78062512D01*
X117993095Y-77592938D01*
X117912865Y-77707517D01*
X117912860Y-77707527D01*
X117908036Y-77717872D01*
X117858457Y-77776953D01*
X117785979Y-77803330D01*
X117710023Y-77789933D01*
X117650942Y-77740354D01*
X117637959Y-77717865D01*
X117633135Y-77707520D01*
X117633127Y-77707507D01*
X117552904Y-77592938D01*
X117083330Y-78062511D01*
X117079022Y-78052110D01*
X117007888Y-77945649D01*
X116917351Y-77855112D01*
X116810890Y-77783978D01*
X116800486Y-77779668D01*
X117270061Y-77310094D01*
X117155492Y-77229872D01*
X117155483Y-77229866D01*
X116949325Y-77133733D01*
X116949323Y-77133732D01*
X116729605Y-77074859D01*
X116729606Y-77074859D01*
X116503000Y-77055034D01*
X116276393Y-77074859D01*
X116056676Y-77133732D01*
X116056674Y-77133733D01*
X115850522Y-77229862D01*
X115850517Y-77229865D01*
X115735938Y-77310095D01*
X116205512Y-77779669D01*
X116195110Y-77783978D01*
X116088649Y-77855112D01*
X115998112Y-77945649D01*
X115926978Y-78052110D01*
X115922669Y-78062512D01*
X115453095Y-77592938D01*
X115372865Y-77707517D01*
X115372858Y-77707529D01*
X115363374Y-77727869D01*
X115313796Y-77786952D01*
X115241319Y-77813329D01*
X115165363Y-77799934D01*
X115106280Y-77750356D01*
X115093295Y-77727864D01*
X115093132Y-77727515D01*
X115093127Y-77727507D01*
X115012904Y-77612938D01*
X114543330Y-78082511D01*
X114539022Y-78072110D01*
X114467888Y-77965649D01*
X114377351Y-77875112D01*
X114270890Y-77803978D01*
X114260486Y-77799668D01*
X114730061Y-77330094D01*
X114615492Y-77249872D01*
X114615483Y-77249866D01*
X114409325Y-77153733D01*
X114409323Y-77153732D01*
X114189605Y-77094859D01*
X114189606Y-77094859D01*
X113963000Y-77075034D01*
X113736393Y-77094859D01*
X113516676Y-77153732D01*
X113516674Y-77153733D01*
X113310522Y-77249862D01*
X113310517Y-77249865D01*
X113195938Y-77330095D01*
X113665512Y-77799669D01*
X113655110Y-77803978D01*
X113548649Y-77875112D01*
X113458112Y-77965649D01*
X113386978Y-78072110D01*
X113382669Y-78082512D01*
X112913095Y-77612938D01*
X112832865Y-77727517D01*
X112832860Y-77727527D01*
X112828036Y-77737872D01*
X112778457Y-77796953D01*
X112705979Y-77823330D01*
X112630023Y-77809933D01*
X112570942Y-77760354D01*
X112557959Y-77737865D01*
X112553135Y-77727520D01*
X112553127Y-77727507D01*
X112472904Y-77612938D01*
X112003330Y-78082511D01*
X111999022Y-78072110D01*
X111927888Y-77965649D01*
X111837351Y-77875112D01*
X111730890Y-77803978D01*
X111720486Y-77799668D01*
X112190061Y-77330094D01*
X112075492Y-77249872D01*
X112075483Y-77249866D01*
X111869325Y-77153733D01*
X111869323Y-77153732D01*
X111649605Y-77094859D01*
X111649606Y-77094859D01*
X111423000Y-77075034D01*
X111196393Y-77094859D01*
X110976676Y-77153732D01*
X110976674Y-77153733D01*
X110770522Y-77249862D01*
X110770517Y-77249865D01*
X110655938Y-77330095D01*
X111125512Y-77799669D01*
X111115110Y-77803978D01*
X111008649Y-77875112D01*
X110918112Y-77965649D01*
X110846978Y-78072110D01*
X110842669Y-78082512D01*
X110373095Y-77612938D01*
X110292865Y-77727517D01*
X110292862Y-77727522D01*
X110196733Y-77933674D01*
X110196732Y-77933676D01*
X110137859Y-78153393D01*
X110118034Y-78380000D01*
X81592965Y-78380000D01*
X81573140Y-78153393D01*
X81514267Y-77933676D01*
X81514266Y-77933674D01*
X81418133Y-77727516D01*
X81418127Y-77727507D01*
X81337904Y-77612938D01*
X80868330Y-78082511D01*
X80864022Y-78072110D01*
X80792888Y-77965649D01*
X80702351Y-77875112D01*
X80595890Y-77803978D01*
X80585486Y-77799668D01*
X81055061Y-77330094D01*
X80940492Y-77249872D01*
X80940483Y-77249866D01*
X80734325Y-77153733D01*
X80734323Y-77153732D01*
X80514605Y-77094859D01*
X80514606Y-77094859D01*
X80288000Y-77075034D01*
X80061393Y-77094859D01*
X79841676Y-77153732D01*
X79841674Y-77153733D01*
X79635522Y-77249862D01*
X79635517Y-77249865D01*
X79520938Y-77330095D01*
X79990512Y-77799669D01*
X79980110Y-77803978D01*
X79873649Y-77875112D01*
X79783112Y-77965649D01*
X79711978Y-78072110D01*
X79707669Y-78082512D01*
X79238095Y-77612938D01*
X79157865Y-77727517D01*
X79157860Y-77727527D01*
X79153036Y-77737872D01*
X79103457Y-77796953D01*
X79030979Y-77823330D01*
X78955023Y-77809933D01*
X78895942Y-77760354D01*
X78882959Y-77737865D01*
X78878135Y-77727520D01*
X78878127Y-77727507D01*
X78797904Y-77612938D01*
X78328330Y-78082511D01*
X78324022Y-78072110D01*
X78252888Y-77965649D01*
X78162351Y-77875112D01*
X78055890Y-77803978D01*
X78045486Y-77799668D01*
X78515061Y-77330094D01*
X78400492Y-77249872D01*
X78400483Y-77249866D01*
X78194325Y-77153733D01*
X78194323Y-77153732D01*
X77974605Y-77094859D01*
X77974606Y-77094859D01*
X77748000Y-77075034D01*
X77521393Y-77094859D01*
X77301676Y-77153732D01*
X77301674Y-77153733D01*
X77095522Y-77249862D01*
X77095517Y-77249865D01*
X76980938Y-77330095D01*
X77450512Y-77799669D01*
X77440110Y-77803978D01*
X77333649Y-77875112D01*
X77243112Y-77965649D01*
X77171978Y-78072110D01*
X77167669Y-78082512D01*
X76698095Y-77612938D01*
X76617865Y-77727517D01*
X76617860Y-77727527D01*
X76613036Y-77737872D01*
X76563457Y-77796953D01*
X76490979Y-77823330D01*
X76415023Y-77809933D01*
X76355942Y-77760354D01*
X76342959Y-77737865D01*
X76338135Y-77727520D01*
X76338127Y-77727507D01*
X76257904Y-77612938D01*
X75788330Y-78082511D01*
X75784022Y-78072110D01*
X75712888Y-77965649D01*
X75622351Y-77875112D01*
X75515890Y-77803978D01*
X75505486Y-77799668D01*
X75975061Y-77330094D01*
X75860492Y-77249872D01*
X75860483Y-77249866D01*
X75654325Y-77153733D01*
X75654323Y-77153732D01*
X75434605Y-77094859D01*
X75434606Y-77094859D01*
X75208000Y-77075034D01*
X74981393Y-77094859D01*
X74761676Y-77153732D01*
X74761674Y-77153733D01*
X74555522Y-77249862D01*
X74555517Y-77249865D01*
X74440938Y-77330095D01*
X74910512Y-77799669D01*
X74900110Y-77803978D01*
X74793649Y-77875112D01*
X74703112Y-77965649D01*
X74631978Y-78072110D01*
X74627669Y-78082512D01*
X74158095Y-77612938D01*
X74077865Y-77727517D01*
X74077860Y-77727527D01*
X74073036Y-77737872D01*
X74023457Y-77796953D01*
X73950979Y-77823330D01*
X73875023Y-77809933D01*
X73815942Y-77760354D01*
X73802959Y-77737865D01*
X73798135Y-77727520D01*
X73798127Y-77727507D01*
X73717904Y-77612938D01*
X73248330Y-78082511D01*
X73244022Y-78072110D01*
X73172888Y-77965649D01*
X73082351Y-77875112D01*
X72975890Y-77803978D01*
X72965486Y-77799668D01*
X73435061Y-77330094D01*
X73320492Y-77249872D01*
X73320483Y-77249866D01*
X73114325Y-77153733D01*
X73114323Y-77153732D01*
X72894605Y-77094859D01*
X72894606Y-77094859D01*
X72668000Y-77075034D01*
X72441393Y-77094859D01*
X72221676Y-77153732D01*
X72221674Y-77153733D01*
X72015522Y-77249862D01*
X72015517Y-77249865D01*
X71900938Y-77330095D01*
X72370512Y-77799669D01*
X72360110Y-77803978D01*
X72253649Y-77875112D01*
X72163112Y-77965649D01*
X72091978Y-78072110D01*
X72087669Y-78082512D01*
X71618095Y-77612938D01*
X71537865Y-77727517D01*
X71537862Y-77727522D01*
X71441733Y-77933674D01*
X71441732Y-77933676D01*
X71382859Y-78153393D01*
X71363034Y-78380000D01*
X71382859Y-78606606D01*
X71441732Y-78826323D01*
X71441733Y-78826325D01*
X71537866Y-79032483D01*
X71537872Y-79032492D01*
X71618094Y-79147060D01*
X72087668Y-78677486D01*
X72091978Y-78687890D01*
X72163112Y-78794351D01*
X72253649Y-78884888D01*
X72360110Y-78956022D01*
X72370511Y-78960330D01*
X71900938Y-79429904D01*
X72015507Y-79510127D01*
X72015520Y-79510135D01*
X72025865Y-79514959D01*
X72084949Y-79564535D01*
X72111329Y-79637012D01*
X72097936Y-79712968D01*
X72048360Y-79772052D01*
X72025872Y-79785036D01*
X72015527Y-79789860D01*
X72015517Y-79789865D01*
X71900938Y-79870095D01*
X72370512Y-80339669D01*
X72360110Y-80343978D01*
X72253649Y-80415112D01*
X72163112Y-80505649D01*
X72091978Y-80612110D01*
X72087669Y-80622512D01*
X71618095Y-80152938D01*
X71537865Y-80267517D01*
X71537862Y-80267522D01*
X71441733Y-80473674D01*
X71441732Y-80473676D01*
X71382859Y-80693393D01*
X71363034Y-80920000D01*
X71382859Y-81146606D01*
X71441732Y-81366323D01*
X71441733Y-81366325D01*
X71537866Y-81572483D01*
X71537872Y-81572492D01*
X71618094Y-81687060D01*
X72087668Y-81217486D01*
X72091978Y-81227890D01*
X72163112Y-81334351D01*
X72253649Y-81424888D01*
X72360110Y-81496022D01*
X72370511Y-81500330D01*
X71900938Y-81969904D01*
X71955982Y-82008447D01*
X72005559Y-82067530D01*
X72018952Y-82143487D01*
X71992572Y-82215963D01*
X71933489Y-82265540D01*
X71870519Y-82279500D01*
X37699500Y-82279500D01*
X37625000Y-82259538D01*
X37570462Y-82205000D01*
X37550500Y-82130500D01*
X37550500Y-80688958D01*
X37570462Y-80614458D01*
X37625000Y-80559920D01*
X37699500Y-80539958D01*
X37774000Y-80559920D01*
X37823389Y-80606178D01*
X37900873Y-80722141D01*
X37900876Y-80722144D01*
X37958875Y-80788280D01*
X38743463Y-80003691D01*
X38810967Y-80096602D01*
X38933398Y-80219033D01*
X39026307Y-80286534D01*
X38241717Y-81071124D01*
X38307846Y-81129117D01*
X38307858Y-81129126D01*
X38547643Y-81289346D01*
X38806292Y-81416896D01*
X39079371Y-81509594D01*
X39362224Y-81565857D01*
X39650000Y-81584719D01*
X39937775Y-81565857D01*
X40220628Y-81509594D01*
X40493707Y-81416896D01*
X40752356Y-81289346D01*
X40992152Y-81129119D01*
X41058280Y-81071125D01*
X41058281Y-81071124D01*
X40273692Y-80286535D01*
X40366602Y-80219033D01*
X40489033Y-80096602D01*
X40556535Y-80003691D01*
X41341124Y-80788281D01*
X41341125Y-80788280D01*
X41399119Y-80722152D01*
X41559346Y-80482356D01*
X41686896Y-80223707D01*
X41779594Y-79950628D01*
X41835857Y-79667775D01*
X41854719Y-79380000D01*
X50845280Y-79380000D01*
X50864142Y-79667775D01*
X50920405Y-79950628D01*
X51013103Y-80223707D01*
X51140653Y-80482356D01*
X51300873Y-80722141D01*
X51300876Y-80722144D01*
X51358875Y-80788280D01*
X52143463Y-80003691D01*
X52210967Y-80096602D01*
X52333398Y-80219033D01*
X52426307Y-80286534D01*
X51641717Y-81071124D01*
X51707846Y-81129117D01*
X51707858Y-81129126D01*
X51947643Y-81289346D01*
X52206292Y-81416896D01*
X52479371Y-81509594D01*
X52762224Y-81565857D01*
X53050000Y-81584719D01*
X53337775Y-81565857D01*
X53620628Y-81509594D01*
X53893707Y-81416896D01*
X54152356Y-81289346D01*
X54392152Y-81129119D01*
X54458280Y-81071125D01*
X54458281Y-81071124D01*
X53673692Y-80286535D01*
X53766602Y-80219033D01*
X53889033Y-80096602D01*
X53956535Y-80003691D01*
X54741124Y-80788281D01*
X54741125Y-80788280D01*
X54799119Y-80722152D01*
X54959346Y-80482356D01*
X55086896Y-80223707D01*
X55179594Y-79950628D01*
X55235857Y-79667775D01*
X55254719Y-79380000D01*
X55235857Y-79092224D01*
X55179594Y-78809371D01*
X55086896Y-78536292D01*
X54959346Y-78277643D01*
X54799126Y-78037858D01*
X54799117Y-78037846D01*
X54741123Y-77971717D01*
X53956534Y-78756306D01*
X53889033Y-78663398D01*
X53766602Y-78540967D01*
X53673691Y-78473463D01*
X54458280Y-77688875D01*
X54392144Y-77630876D01*
X54392141Y-77630873D01*
X54152356Y-77470653D01*
X53893707Y-77343103D01*
X53620628Y-77250405D01*
X53337775Y-77194142D01*
X53050000Y-77175280D01*
X52762224Y-77194142D01*
X52479371Y-77250405D01*
X52206292Y-77343103D01*
X51947643Y-77470653D01*
X51707847Y-77630881D01*
X51641718Y-77688874D01*
X51641718Y-77688875D01*
X52426307Y-78473464D01*
X52333398Y-78540967D01*
X52210967Y-78663398D01*
X52143464Y-78756307D01*
X51358875Y-77971718D01*
X51358874Y-77971718D01*
X51300881Y-78037847D01*
X51140653Y-78277643D01*
X51013103Y-78536292D01*
X50920405Y-78809371D01*
X50864142Y-79092224D01*
X50845280Y-79380000D01*
X41854719Y-79380000D01*
X41835857Y-79092224D01*
X41779594Y-78809371D01*
X41686896Y-78536292D01*
X41559346Y-78277643D01*
X41399126Y-78037858D01*
X41399117Y-78037846D01*
X41341123Y-77971717D01*
X40556534Y-78756306D01*
X40489033Y-78663398D01*
X40366602Y-78540967D01*
X40273691Y-78473463D01*
X41058280Y-77688875D01*
X40992144Y-77630876D01*
X40992141Y-77630873D01*
X40752356Y-77470653D01*
X40493707Y-77343103D01*
X40220628Y-77250405D01*
X39937775Y-77194142D01*
X39650000Y-77175280D01*
X39362224Y-77194142D01*
X39079371Y-77250405D01*
X38806292Y-77343103D01*
X38547643Y-77470653D01*
X38307847Y-77630881D01*
X38241718Y-77688874D01*
X38241718Y-77688875D01*
X39026307Y-78473464D01*
X38933398Y-78540967D01*
X38810967Y-78663398D01*
X38743464Y-78756307D01*
X37958875Y-77971718D01*
X37958874Y-77971718D01*
X37900883Y-78037844D01*
X37823389Y-78153822D01*
X37765400Y-78204675D01*
X37689754Y-78219722D01*
X37616719Y-78194930D01*
X37565866Y-78136941D01*
X37550500Y-78071041D01*
X37550500Y-76439997D01*
X93270318Y-76439997D01*
X93270318Y-76440002D01*
X93290954Y-76596757D01*
X93351463Y-76742840D01*
X93388537Y-76791155D01*
X93447718Y-76868282D01*
X93573159Y-76964536D01*
X93719238Y-77025044D01*
X93719241Y-77025044D01*
X93719243Y-77025045D01*
X93719240Y-77025045D01*
X93875997Y-77045682D01*
X93876000Y-77045682D01*
X93876003Y-77045682D01*
X94032757Y-77025045D01*
X94032758Y-77025044D01*
X94032762Y-77025044D01*
X94178841Y-76964536D01*
X94304282Y-76868282D01*
X94400536Y-76742841D01*
X94461044Y-76596762D01*
X94471986Y-76513653D01*
X94481682Y-76440002D01*
X94481682Y-76439997D01*
X94461045Y-76283242D01*
X94461044Y-76283240D01*
X94461044Y-76283238D01*
X94400536Y-76137159D01*
X94304282Y-76011718D01*
X94178841Y-75915464D01*
X94178840Y-75915463D01*
X94097364Y-75881715D01*
X94032762Y-75854956D01*
X94032760Y-75854955D01*
X94032756Y-75854954D01*
X94032759Y-75854954D01*
X93876003Y-75834318D01*
X93875997Y-75834318D01*
X93719242Y-75854954D01*
X93573159Y-75915463D01*
X93447718Y-76011717D01*
X93447717Y-76011718D01*
X93351463Y-76137159D01*
X93290954Y-76283242D01*
X93270318Y-76439997D01*
X37550500Y-76439997D01*
X37550500Y-70555997D01*
X130644318Y-70555997D01*
X130644318Y-70556002D01*
X130664954Y-70712757D01*
X130725464Y-70858841D01*
X130725465Y-70858843D01*
X130812519Y-70972296D01*
X130842034Y-71043553D01*
X130831967Y-71120021D01*
X130812519Y-71153704D01*
X130725465Y-71267156D01*
X130725464Y-71267158D01*
X130664954Y-71413242D01*
X130644318Y-71569997D01*
X130644318Y-71570002D01*
X130664954Y-71726757D01*
X130725463Y-71872840D01*
X130801777Y-71972295D01*
X130831292Y-72043552D01*
X130821225Y-72120021D01*
X130801777Y-72153705D01*
X130725463Y-72253159D01*
X130664954Y-72399242D01*
X130644318Y-72555997D01*
X130644318Y-72556002D01*
X130664954Y-72712757D01*
X130725464Y-72858841D01*
X130725465Y-72858843D01*
X130812519Y-72972296D01*
X130842034Y-73043553D01*
X130831967Y-73120021D01*
X130812519Y-73153704D01*
X130725465Y-73267156D01*
X130725464Y-73267158D01*
X130664954Y-73413242D01*
X130644318Y-73569997D01*
X130644318Y-73570002D01*
X130664954Y-73726757D01*
X130725463Y-73872840D01*
X130807148Y-73979295D01*
X130836663Y-74050553D01*
X130826596Y-74127021D01*
X130807148Y-74160705D01*
X130725463Y-74267159D01*
X130664954Y-74413242D01*
X130644318Y-74569997D01*
X130644318Y-74570002D01*
X130664954Y-74726757D01*
X130725463Y-74872840D01*
X130756465Y-74913242D01*
X130821718Y-74998282D01*
X130947159Y-75094536D01*
X131093238Y-75155044D01*
X131093241Y-75155044D01*
X131093243Y-75155045D01*
X131093240Y-75155045D01*
X131259682Y-75176957D01*
X131259317Y-75179722D01*
X131318740Y-75195644D01*
X131373278Y-75250182D01*
X131381898Y-75267663D01*
X131425462Y-75372839D01*
X131425464Y-75372841D01*
X131521718Y-75498282D01*
X131647159Y-75594536D01*
X131647161Y-75594537D01*
X131651952Y-75597303D01*
X131706489Y-75651842D01*
X131726450Y-75726342D01*
X131706487Y-75800842D01*
X131668156Y-75844549D01*
X131619720Y-75881715D01*
X131619717Y-75881718D01*
X131523463Y-76007159D01*
X131462954Y-76153242D01*
X131442318Y-76309997D01*
X131442318Y-76310002D01*
X131459061Y-76437184D01*
X131448994Y-76513653D01*
X131402042Y-76574841D01*
X131333136Y-76627714D01*
X131333133Y-76627717D01*
X131236879Y-76753158D01*
X131176370Y-76899241D01*
X131155734Y-77055996D01*
X131155734Y-77056001D01*
X131176370Y-77212756D01*
X131236879Y-77358839D01*
X131236880Y-77358840D01*
X131333134Y-77484281D01*
X131458575Y-77580535D01*
X131604654Y-77641043D01*
X131604657Y-77641043D01*
X131604659Y-77641044D01*
X131604657Y-77641044D01*
X131685083Y-77651632D01*
X131756341Y-77681147D01*
X131803294Y-77742336D01*
X131813361Y-77818804D01*
X131800677Y-77862325D01*
X131776733Y-77913674D01*
X131776732Y-77913676D01*
X131717859Y-78133393D01*
X131698034Y-78360000D01*
X131717859Y-78586606D01*
X131776732Y-78806323D01*
X131776733Y-78806325D01*
X131872866Y-79012483D01*
X131872872Y-79012492D01*
X131953094Y-79127060D01*
X132422668Y-78657486D01*
X132426978Y-78667890D01*
X132498112Y-78774351D01*
X132588649Y-78864888D01*
X132695110Y-78936022D01*
X132705511Y-78940330D01*
X132235938Y-79409904D01*
X132350507Y-79490127D01*
X132350520Y-79490135D01*
X132360865Y-79494959D01*
X132419949Y-79544535D01*
X132446329Y-79617012D01*
X132432936Y-79692968D01*
X132383360Y-79752052D01*
X132360872Y-79765036D01*
X132350527Y-79769860D01*
X132350517Y-79769865D01*
X132235938Y-79850095D01*
X132705512Y-80319669D01*
X132695110Y-80323978D01*
X132588649Y-80395112D01*
X132498112Y-80485649D01*
X132426978Y-80592110D01*
X132422669Y-80602512D01*
X131953095Y-80132938D01*
X131872865Y-80247517D01*
X131872862Y-80247522D01*
X131776733Y-80453674D01*
X131776732Y-80453676D01*
X131717859Y-80673393D01*
X131698034Y-80900000D01*
X131717859Y-81126606D01*
X131776732Y-81346323D01*
X131776733Y-81346325D01*
X131872866Y-81552483D01*
X131872872Y-81552492D01*
X131953094Y-81667060D01*
X132422668Y-81197486D01*
X132426978Y-81207890D01*
X132498112Y-81314351D01*
X132588649Y-81404888D01*
X132695110Y-81476022D01*
X132705511Y-81480330D01*
X132235938Y-81949904D01*
X132350507Y-82030127D01*
X132350516Y-82030133D01*
X132556674Y-82126266D01*
X132556676Y-82126267D01*
X132776394Y-82185140D01*
X132776393Y-82185140D01*
X133003000Y-82204965D01*
X133229606Y-82185140D01*
X133449323Y-82126267D01*
X133449325Y-82126266D01*
X133655478Y-82030135D01*
X133655488Y-82030129D01*
X133770061Y-81949904D01*
X133300487Y-81480330D01*
X133310890Y-81476022D01*
X133417351Y-81404888D01*
X133507888Y-81314351D01*
X133579022Y-81207890D01*
X133583330Y-81197487D01*
X134052904Y-81667061D01*
X134133129Y-81552488D01*
X134133137Y-81552474D01*
X134137960Y-81542133D01*
X134187536Y-81483049D01*
X134260013Y-81456669D01*
X134335969Y-81470062D01*
X134395053Y-81519638D01*
X134408040Y-81542133D01*
X134412864Y-81552479D01*
X134412872Y-81552492D01*
X134493094Y-81667060D01*
X134962668Y-81197486D01*
X134966978Y-81207890D01*
X135038112Y-81314351D01*
X135128649Y-81404888D01*
X135235110Y-81476022D01*
X135245511Y-81480330D01*
X134775938Y-81949904D01*
X134890507Y-82030127D01*
X134890516Y-82030133D01*
X135096674Y-82126266D01*
X135096676Y-82126267D01*
X135316394Y-82185140D01*
X135316393Y-82185140D01*
X135543000Y-82204965D01*
X135769606Y-82185140D01*
X135989323Y-82126267D01*
X135989325Y-82126266D01*
X136195478Y-82030135D01*
X136195488Y-82030129D01*
X136310061Y-81949904D01*
X135840487Y-81480330D01*
X135850890Y-81476022D01*
X135957351Y-81404888D01*
X136047888Y-81314351D01*
X136119022Y-81207890D01*
X136123330Y-81197487D01*
X136592904Y-81667061D01*
X136673129Y-81552488D01*
X136673137Y-81552474D01*
X136677960Y-81542133D01*
X136727536Y-81483049D01*
X136800013Y-81456669D01*
X136875969Y-81470062D01*
X136935053Y-81519638D01*
X136948040Y-81542133D01*
X136952864Y-81552479D01*
X136952872Y-81552492D01*
X137033094Y-81667060D01*
X137502668Y-81197486D01*
X137506978Y-81207890D01*
X137578112Y-81314351D01*
X137668649Y-81404888D01*
X137775110Y-81476022D01*
X137785511Y-81480330D01*
X137315938Y-81949904D01*
X137430507Y-82030127D01*
X137430516Y-82030133D01*
X137636674Y-82126266D01*
X137636676Y-82126267D01*
X137856394Y-82185140D01*
X137856393Y-82185140D01*
X138083000Y-82204965D01*
X138309606Y-82185140D01*
X138529323Y-82126267D01*
X138529325Y-82126266D01*
X138735478Y-82030135D01*
X138735488Y-82030129D01*
X138850061Y-81949904D01*
X138380487Y-81480330D01*
X138390890Y-81476022D01*
X138497351Y-81404888D01*
X138587888Y-81314351D01*
X138659022Y-81207890D01*
X138663330Y-81197487D01*
X139132904Y-81667061D01*
X139213129Y-81552488D01*
X139213135Y-81552478D01*
X139309266Y-81346325D01*
X139309267Y-81346323D01*
X139368140Y-81126606D01*
X139387965Y-80900000D01*
X139368140Y-80673393D01*
X139309267Y-80453676D01*
X139309266Y-80453674D01*
X139213133Y-80247516D01*
X139213127Y-80247507D01*
X139132904Y-80132938D01*
X138663330Y-80602511D01*
X138659022Y-80592110D01*
X138587888Y-80485649D01*
X138497351Y-80395112D01*
X138390890Y-80323978D01*
X138380486Y-80319668D01*
X138850061Y-79850094D01*
X138735492Y-79769872D01*
X138735479Y-79769864D01*
X138725133Y-79765040D01*
X138666049Y-79715464D01*
X138639669Y-79642987D01*
X138653062Y-79567031D01*
X138702638Y-79507947D01*
X138725133Y-79494960D01*
X138735474Y-79490137D01*
X138735488Y-79490129D01*
X138850061Y-79409904D01*
X138380487Y-78940330D01*
X138390890Y-78936022D01*
X138497351Y-78864888D01*
X138587888Y-78774351D01*
X138659022Y-78667890D01*
X138663330Y-78657487D01*
X139132904Y-79127061D01*
X139213129Y-79012488D01*
X139213135Y-79012478D01*
X139309266Y-78806325D01*
X139309267Y-78806323D01*
X139368140Y-78586606D01*
X139387965Y-78360000D01*
X139368140Y-78133393D01*
X139309267Y-77913676D01*
X139309266Y-77913674D01*
X139213133Y-77707516D01*
X139213127Y-77707507D01*
X139132904Y-77592938D01*
X138663330Y-78062511D01*
X138659022Y-78052110D01*
X138587888Y-77945649D01*
X138497351Y-77855112D01*
X138390890Y-77783978D01*
X138380486Y-77779668D01*
X138850060Y-77310094D01*
X138735492Y-77229872D01*
X138735483Y-77229866D01*
X138529325Y-77133733D01*
X138529323Y-77133732D01*
X138309605Y-77074859D01*
X138309606Y-77074859D01*
X138083000Y-77055034D01*
X137856393Y-77074859D01*
X137636676Y-77133732D01*
X137636674Y-77133733D01*
X137430522Y-77229862D01*
X137430517Y-77229865D01*
X137315938Y-77310095D01*
X137785512Y-77779669D01*
X137775110Y-77783978D01*
X137668649Y-77855112D01*
X137578112Y-77945649D01*
X137506978Y-78052110D01*
X137502669Y-78062512D01*
X137033095Y-77592938D01*
X136952865Y-77707517D01*
X136952860Y-77707527D01*
X136948036Y-77717872D01*
X136898457Y-77776953D01*
X136825979Y-77803330D01*
X136750023Y-77789933D01*
X136690942Y-77740354D01*
X136677959Y-77717865D01*
X136673135Y-77707520D01*
X136673127Y-77707507D01*
X136592904Y-77592938D01*
X136123330Y-78062511D01*
X136119022Y-78052110D01*
X136047888Y-77945649D01*
X135957351Y-77855112D01*
X135850890Y-77783978D01*
X135840486Y-77779668D01*
X136310060Y-77310094D01*
X136195492Y-77229872D01*
X136195483Y-77229866D01*
X135989325Y-77133733D01*
X135989323Y-77133732D01*
X135769605Y-77074859D01*
X135769606Y-77074859D01*
X135543000Y-77055034D01*
X135316393Y-77074859D01*
X135096676Y-77133732D01*
X135096674Y-77133733D01*
X134890522Y-77229862D01*
X134890517Y-77229865D01*
X134775938Y-77310095D01*
X135245512Y-77779669D01*
X135235110Y-77783978D01*
X135128649Y-77855112D01*
X135038112Y-77945649D01*
X134966978Y-78052110D01*
X134962669Y-78062512D01*
X134493095Y-77592938D01*
X134412865Y-77707517D01*
X134412860Y-77707527D01*
X134408036Y-77717872D01*
X134358457Y-77776953D01*
X134285979Y-77803330D01*
X134210023Y-77789933D01*
X134150942Y-77740354D01*
X134137959Y-77717865D01*
X134133135Y-77707520D01*
X134133127Y-77707507D01*
X134052904Y-77592938D01*
X133583330Y-78062511D01*
X133579022Y-78052110D01*
X133507888Y-77945649D01*
X133417351Y-77855112D01*
X133310890Y-77783978D01*
X133300486Y-77779668D01*
X133770060Y-77310094D01*
X133655492Y-77229872D01*
X133655483Y-77229866D01*
X133449325Y-77133733D01*
X133449323Y-77133732D01*
X133229605Y-77074859D01*
X133229606Y-77074859D01*
X133003000Y-77055034D01*
X132776393Y-77074859D01*
X132550391Y-77135417D01*
X132549856Y-77133421D01*
X132483112Y-77139242D01*
X132413219Y-77106628D01*
X132368997Y-77043437D01*
X132361300Y-77011961D01*
X132350354Y-76928814D01*
X132360421Y-76852345D01*
X132407372Y-76791158D01*
X132476282Y-76738282D01*
X132572536Y-76612841D01*
X132633044Y-76466762D01*
X132636568Y-76440000D01*
X132653682Y-76310002D01*
X132653682Y-76309997D01*
X132633045Y-76153242D01*
X132633044Y-76153240D01*
X132633044Y-76153238D01*
X132572536Y-76007159D01*
X132476282Y-75881718D01*
X132350841Y-75785464D01*
X132350840Y-75785463D01*
X132350838Y-75785462D01*
X132346044Y-75782694D01*
X132291508Y-75728154D01*
X132271549Y-75653653D01*
X132291514Y-75579154D01*
X132329842Y-75535450D01*
X132378282Y-75498282D01*
X132474536Y-75372841D01*
X132535044Y-75226762D01*
X132555682Y-75070000D01*
X132555682Y-75069997D01*
X132535045Y-74913242D01*
X132535044Y-74913240D01*
X132535044Y-74913238D01*
X132474536Y-74767159D01*
X132392850Y-74660704D01*
X132363336Y-74589448D01*
X132373403Y-74512980D01*
X132392851Y-74479295D01*
X132443538Y-74413238D01*
X132474536Y-74372841D01*
X132535044Y-74226762D01*
X132555682Y-74070000D01*
X132553122Y-74050553D01*
X132535045Y-73913242D01*
X132535044Y-73913240D01*
X132535044Y-73913238D01*
X132474536Y-73767159D01*
X132389315Y-73656097D01*
X132359801Y-73584841D01*
X132369868Y-73508373D01*
X132389314Y-73474690D01*
X132470536Y-73368841D01*
X132531044Y-73222762D01*
X132551682Y-73066000D01*
X132531044Y-72909238D01*
X132470536Y-72763159D01*
X132392385Y-72661310D01*
X132362870Y-72590053D01*
X132372937Y-72513585D01*
X132392380Y-72479908D01*
X132474536Y-72372841D01*
X132535044Y-72226762D01*
X132548084Y-72127718D01*
X132555682Y-72070002D01*
X132555682Y-72069997D01*
X132535045Y-71913242D01*
X132535044Y-71913240D01*
X132535044Y-71913238D01*
X132474536Y-71767159D01*
X132389315Y-71656097D01*
X132359801Y-71584841D01*
X132369868Y-71508373D01*
X132389314Y-71474690D01*
X132470536Y-71368841D01*
X132531044Y-71222762D01*
X132551682Y-71066000D01*
X132531044Y-70909238D01*
X132470536Y-70763159D01*
X132374282Y-70637718D01*
X132267788Y-70556002D01*
X132248840Y-70541463D01*
X132102758Y-70480954D01*
X131940692Y-70459618D01*
X131869435Y-70430102D01*
X131822483Y-70368913D01*
X131774536Y-70253159D01*
X131678282Y-70127718D01*
X131678281Y-70127717D01*
X131552840Y-70031463D01*
X131472944Y-69998369D01*
X131406762Y-69970956D01*
X131406760Y-69970955D01*
X131406756Y-69970954D01*
X131406759Y-69970954D01*
X131250003Y-69950318D01*
X131249997Y-69950318D01*
X131093242Y-69970954D01*
X130947159Y-70031463D01*
X130821718Y-70127717D01*
X130821717Y-70127718D01*
X130725463Y-70253159D01*
X130664954Y-70399242D01*
X130644318Y-70555997D01*
X37550500Y-70555997D01*
X37550500Y-60969995D01*
X63244357Y-60969995D01*
X63244357Y-60970004D01*
X63264884Y-61191531D01*
X63264884Y-61191534D01*
X63325770Y-61405528D01*
X63424939Y-61604685D01*
X63424941Y-61604688D01*
X63424942Y-61604689D01*
X63559019Y-61782236D01*
X63723438Y-61932124D01*
X63912599Y-62049247D01*
X63912601Y-62049247D01*
X63912603Y-62049249D01*
X64100555Y-62122062D01*
X64162813Y-62167588D01*
X64193967Y-62238145D01*
X64185668Y-62314825D01*
X64140142Y-62377083D01*
X64069585Y-62408237D01*
X64046730Y-62410000D01*
X63605205Y-62410000D01*
X63580125Y-62412909D01*
X63477522Y-62458212D01*
X63477522Y-62458213D01*
X63398213Y-62537521D01*
X63352908Y-62640128D01*
X63350000Y-62665204D01*
X63350000Y-63310000D01*
X63988120Y-63310000D01*
X63984075Y-63317007D01*
X63950000Y-63444174D01*
X63950000Y-63575826D01*
X63984075Y-63702993D01*
X63988120Y-63710000D01*
X63350001Y-63710000D01*
X63350001Y-64354794D01*
X63352909Y-64379874D01*
X63398212Y-64482477D01*
X63477521Y-64561786D01*
X63580128Y-64607091D01*
X63605204Y-64609999D01*
X64046729Y-64609999D01*
X64121229Y-64629961D01*
X64175767Y-64684499D01*
X64195729Y-64758999D01*
X64175767Y-64833499D01*
X64121229Y-64888037D01*
X64100555Y-64897937D01*
X63912602Y-64970751D01*
X63723436Y-65087877D01*
X63559019Y-65237763D01*
X63424939Y-65415314D01*
X63325770Y-65614471D01*
X63264884Y-65828465D01*
X63264884Y-65828468D01*
X63244357Y-66049995D01*
X63244357Y-66050004D01*
X63264884Y-66271531D01*
X63264884Y-66271534D01*
X63325770Y-66485528D01*
X63424939Y-66684685D01*
X63424941Y-66684688D01*
X63424942Y-66684689D01*
X63559019Y-66862236D01*
X63723438Y-67012124D01*
X63912599Y-67129247D01*
X63912601Y-67129247D01*
X63912603Y-67129249D01*
X63912605Y-67129250D01*
X64102363Y-67202762D01*
X64120060Y-67209618D01*
X64338757Y-67250500D01*
X64338759Y-67250500D01*
X64561241Y-67250500D01*
X64561243Y-67250500D01*
X64779940Y-67209618D01*
X64908026Y-67159997D01*
X73354318Y-67159997D01*
X73354318Y-67160002D01*
X73374954Y-67316757D01*
X73435463Y-67462840D01*
X73529078Y-67584841D01*
X73531718Y-67588282D01*
X73657159Y-67684536D01*
X73672932Y-67691069D01*
X73734123Y-67738020D01*
X73753573Y-67771708D01*
X73795463Y-67872840D01*
X73826465Y-67913242D01*
X73891718Y-67998282D01*
X74017159Y-68094536D01*
X74087077Y-68123496D01*
X74148266Y-68170447D01*
X74167715Y-68204135D01*
X74175462Y-68222840D01*
X74271716Y-68348280D01*
X74271718Y-68348282D01*
X74397160Y-68444537D01*
X74405618Y-68449420D01*
X74404206Y-68451864D01*
X74452913Y-68489238D01*
X74472360Y-68522922D01*
X74505463Y-68602840D01*
X74601717Y-68728281D01*
X74601718Y-68728282D01*
X74727160Y-68824537D01*
X74832431Y-68868141D01*
X74893621Y-68915093D01*
X74913070Y-68948779D01*
X74935463Y-69002841D01*
X75031716Y-69128280D01*
X75031718Y-69128282D01*
X75157159Y-69224536D01*
X75303238Y-69285044D01*
X75303241Y-69285044D01*
X75303243Y-69285045D01*
X75303240Y-69285045D01*
X75459997Y-69305682D01*
X75460000Y-69305682D01*
X75460003Y-69305682D01*
X75616757Y-69285045D01*
X75616758Y-69285044D01*
X75616762Y-69285044D01*
X75762841Y-69224536D01*
X75888282Y-69128282D01*
X75984536Y-69002841D01*
X76008142Y-68945850D01*
X76055091Y-68884662D01*
X76088772Y-68865215D01*
X76162841Y-68834536D01*
X76288282Y-68738282D01*
X76384536Y-68612841D01*
X76413142Y-68543777D01*
X76460092Y-68482591D01*
X76493772Y-68463144D01*
X76562841Y-68434536D01*
X76688282Y-68338282D01*
X76784536Y-68212841D01*
X76845044Y-68066762D01*
X76865682Y-67910000D01*
X76845044Y-67753238D01*
X76784536Y-67607159D01*
X76688282Y-67481718D01*
X76663680Y-67462840D01*
X76562839Y-67385462D01*
X76449883Y-67338675D01*
X76425495Y-67328573D01*
X76364306Y-67281622D01*
X76344853Y-67247925D01*
X76344536Y-67247159D01*
X76248282Y-67121718D01*
X76246071Y-67120021D01*
X76122840Y-67025463D01*
X76047921Y-66994431D01*
X75986731Y-66947478D01*
X75967283Y-66913791D01*
X75964536Y-66907159D01*
X75868282Y-66781718D01*
X75844096Y-66763159D01*
X75742840Y-66685463D01*
X75672921Y-66656502D01*
X75611731Y-66609549D01*
X75592284Y-66575866D01*
X75584536Y-66557159D01*
X75488282Y-66431718D01*
X75362841Y-66335464D01*
X75362840Y-66335463D01*
X75357947Y-66331709D01*
X75310994Y-66270519D01*
X75305511Y-66254365D01*
X75244536Y-66107159D01*
X75148282Y-65981718D01*
X75148281Y-65981717D01*
X75022840Y-65885463D01*
X74942944Y-65852369D01*
X74876762Y-65824956D01*
X74876760Y-65824955D01*
X74876756Y-65824954D01*
X74876759Y-65824954D01*
X74720003Y-65804318D01*
X74719997Y-65804318D01*
X74563242Y-65824954D01*
X74417159Y-65885463D01*
X74291718Y-65981717D01*
X74291716Y-65981719D01*
X74195466Y-66107154D01*
X74195465Y-66107157D01*
X74190643Y-66118798D01*
X74143688Y-66179985D01*
X74110009Y-66199429D01*
X74047159Y-66225462D01*
X73921719Y-66321716D01*
X73921716Y-66321719D01*
X73825462Y-66447159D01*
X73789784Y-66533293D01*
X73742831Y-66594482D01*
X73709150Y-66613928D01*
X73657157Y-66635465D01*
X73657154Y-66635466D01*
X73531719Y-66731716D01*
X73531717Y-66731718D01*
X73435463Y-66857159D01*
X73374954Y-67003242D01*
X73354318Y-67159997D01*
X64908026Y-67159997D01*
X64987394Y-67129250D01*
X64987396Y-67129249D01*
X64987396Y-67129248D01*
X64987401Y-67129247D01*
X65176562Y-67012124D01*
X65340981Y-66862236D01*
X65475058Y-66684689D01*
X65574229Y-66485528D01*
X65635115Y-66271536D01*
X65646519Y-66148460D01*
X65655643Y-66050004D01*
X65655643Y-66049995D01*
X65640397Y-65885464D01*
X65635115Y-65828464D01*
X65574229Y-65614472D01*
X65574229Y-65614471D01*
X65475060Y-65415314D01*
X65473495Y-65413242D01*
X65340981Y-65237764D01*
X65176562Y-65087876D01*
X64987401Y-64970753D01*
X64987400Y-64970752D01*
X64987396Y-64970750D01*
X64987394Y-64970749D01*
X64799444Y-64897937D01*
X64737186Y-64852410D01*
X64706032Y-64781854D01*
X64714331Y-64705174D01*
X64759858Y-64642916D01*
X64830414Y-64611762D01*
X64853269Y-64609999D01*
X65294795Y-64609999D01*
X65319874Y-64607090D01*
X65422477Y-64561787D01*
X65422478Y-64561787D01*
X65428268Y-64555997D01*
X130644318Y-64555997D01*
X130644318Y-64556002D01*
X130664954Y-64712757D01*
X130725464Y-64858841D01*
X130725465Y-64858843D01*
X130812519Y-64972296D01*
X130842034Y-65043553D01*
X130831967Y-65120021D01*
X130812519Y-65153704D01*
X130725465Y-65267156D01*
X130725464Y-65267158D01*
X130664954Y-65413242D01*
X130644318Y-65569997D01*
X130644318Y-65570002D01*
X130664954Y-65726757D01*
X130725463Y-65872840D01*
X130801777Y-65972295D01*
X130831292Y-66043552D01*
X130821225Y-66120021D01*
X130801777Y-66153705D01*
X130725463Y-66253159D01*
X130664954Y-66399242D01*
X130644318Y-66555997D01*
X130644318Y-66556002D01*
X130664954Y-66712757D01*
X130725464Y-66858841D01*
X130725465Y-66858843D01*
X130812519Y-66972296D01*
X130842034Y-67043553D01*
X130831967Y-67120021D01*
X130812519Y-67153704D01*
X130725465Y-67267156D01*
X130725464Y-67267158D01*
X130664954Y-67413242D01*
X130644318Y-67569997D01*
X130644318Y-67570002D01*
X130664954Y-67726757D01*
X130725463Y-67872840D01*
X130807148Y-67979295D01*
X130836663Y-68050553D01*
X130826596Y-68127021D01*
X130807148Y-68160705D01*
X130725463Y-68267159D01*
X130664954Y-68413242D01*
X130644318Y-68569997D01*
X130644318Y-68570002D01*
X130664954Y-68726757D01*
X130725463Y-68872840D01*
X130756465Y-68913242D01*
X130821718Y-68998282D01*
X130947159Y-69094536D01*
X131093238Y-69155044D01*
X131093241Y-69155044D01*
X131093243Y-69155045D01*
X131093240Y-69155045D01*
X131259682Y-69176957D01*
X131259317Y-69179722D01*
X131318740Y-69195644D01*
X131373278Y-69250182D01*
X131381898Y-69267663D01*
X131425462Y-69372839D01*
X131425464Y-69372841D01*
X131521718Y-69498282D01*
X131647159Y-69594536D01*
X131793238Y-69655044D01*
X131793241Y-69655044D01*
X131793243Y-69655045D01*
X131793240Y-69655045D01*
X131949997Y-69675682D01*
X131950000Y-69675682D01*
X131950003Y-69675682D01*
X132106757Y-69655045D01*
X132106758Y-69655044D01*
X132106762Y-69655044D01*
X132252841Y-69594536D01*
X132378282Y-69498282D01*
X132474536Y-69372841D01*
X132535044Y-69226762D01*
X132548010Y-69128280D01*
X132555682Y-69070002D01*
X132555682Y-69069997D01*
X132535045Y-68913242D01*
X132535044Y-68913240D01*
X132535044Y-68913238D01*
X132474536Y-68767159D01*
X132392850Y-68660704D01*
X132363336Y-68589448D01*
X132373403Y-68512980D01*
X132392851Y-68479295D01*
X132405247Y-68463140D01*
X132474536Y-68372841D01*
X132535044Y-68226762D01*
X132535561Y-68222841D01*
X132555682Y-68070002D01*
X132555682Y-68069997D01*
X132535045Y-67913242D01*
X132535044Y-67913240D01*
X132535044Y-67913238D01*
X132474536Y-67767159D01*
X132389315Y-67656097D01*
X132359801Y-67584841D01*
X132369868Y-67508373D01*
X132389314Y-67474690D01*
X132470536Y-67368841D01*
X132531044Y-67222762D01*
X132532775Y-67209618D01*
X132551682Y-67066002D01*
X132551682Y-67065997D01*
X132531045Y-66909242D01*
X132531044Y-66909240D01*
X132531044Y-66909238D01*
X132470536Y-66763159D01*
X132392385Y-66661310D01*
X132362870Y-66590053D01*
X132372937Y-66513585D01*
X132392380Y-66479908D01*
X132474536Y-66372841D01*
X132535044Y-66226762D01*
X132538643Y-66199429D01*
X132555682Y-66070002D01*
X132555682Y-66069997D01*
X132535045Y-65913242D01*
X132535044Y-65913240D01*
X132535044Y-65913238D01*
X132474536Y-65767159D01*
X132389315Y-65656097D01*
X132359801Y-65584841D01*
X132369868Y-65508373D01*
X132389314Y-65474690D01*
X132470536Y-65368841D01*
X132531044Y-65222762D01*
X132551682Y-65066000D01*
X132539143Y-64970753D01*
X132531045Y-64909242D01*
X132531044Y-64909240D01*
X132531044Y-64909238D01*
X132470536Y-64763159D01*
X132374282Y-64637718D01*
X132340456Y-64611762D01*
X132248840Y-64541463D01*
X132102758Y-64480954D01*
X131940692Y-64459618D01*
X131869435Y-64430102D01*
X131822483Y-64368913D01*
X131774536Y-64253159D01*
X131678282Y-64127718D01*
X131678281Y-64127717D01*
X131552840Y-64031463D01*
X131472944Y-63998369D01*
X131406762Y-63970956D01*
X131406760Y-63970955D01*
X131406756Y-63970954D01*
X131406759Y-63970954D01*
X131250003Y-63950318D01*
X131249997Y-63950318D01*
X131093242Y-63970954D01*
X130947159Y-64031463D01*
X130821718Y-64127717D01*
X130821717Y-64127718D01*
X130725463Y-64253159D01*
X130664954Y-64399242D01*
X130644318Y-64555997D01*
X65428268Y-64555997D01*
X65501786Y-64482478D01*
X65547091Y-64379871D01*
X65550000Y-64354795D01*
X65550000Y-63710000D01*
X64911880Y-63710000D01*
X64915925Y-63702993D01*
X64950000Y-63575826D01*
X64950000Y-63444174D01*
X64915925Y-63317007D01*
X64911880Y-63310000D01*
X65549999Y-63310000D01*
X65549999Y-62665205D01*
X65547090Y-62640125D01*
X65501787Y-62537522D01*
X65422478Y-62458213D01*
X65319871Y-62412908D01*
X65294796Y-62410000D01*
X64853270Y-62410000D01*
X64778770Y-62390038D01*
X64724232Y-62335500D01*
X64704270Y-62261000D01*
X64724232Y-62186500D01*
X64778770Y-62131962D01*
X64799445Y-62122062D01*
X64933839Y-62069997D01*
X64987401Y-62049247D01*
X65176562Y-61932124D01*
X65340981Y-61782236D01*
X65475058Y-61604689D01*
X65574229Y-61405528D01*
X65635115Y-61191536D01*
X65647025Y-61063000D01*
X65655643Y-60970004D01*
X65655643Y-60969995D01*
X65644238Y-60846924D01*
X65635115Y-60748464D01*
X65580354Y-60556000D01*
X65574229Y-60534471D01*
X65475060Y-60335314D01*
X65340980Y-60157763D01*
X65176563Y-60007877D01*
X65176562Y-60007876D01*
X64987401Y-59890753D01*
X64987400Y-59890752D01*
X64987396Y-59890750D01*
X64987394Y-59890749D01*
X64779944Y-59810383D01*
X64779941Y-59810382D01*
X64779940Y-59810382D01*
X64724775Y-59800069D01*
X64561247Y-59769500D01*
X64561243Y-59769500D01*
X64338757Y-59769500D01*
X64338752Y-59769500D01*
X64120055Y-59810383D01*
X63912605Y-59890749D01*
X63912603Y-59890750D01*
X63723436Y-60007877D01*
X63559019Y-60157763D01*
X63424939Y-60335314D01*
X63325770Y-60534471D01*
X63264884Y-60748465D01*
X63264884Y-60748468D01*
X63244357Y-60969995D01*
X37550500Y-60969995D01*
X37550500Y-58888958D01*
X37570462Y-58814458D01*
X37625000Y-58759920D01*
X37699500Y-58739958D01*
X37774000Y-58759920D01*
X37823389Y-58806178D01*
X37900873Y-58922141D01*
X37900876Y-58922144D01*
X37958875Y-58988280D01*
X38743463Y-58203691D01*
X38810967Y-58296602D01*
X38933398Y-58419033D01*
X39026307Y-58486534D01*
X38241717Y-59271124D01*
X38307846Y-59329117D01*
X38307858Y-59329126D01*
X38547643Y-59489346D01*
X38806292Y-59616896D01*
X39079371Y-59709594D01*
X39362224Y-59765857D01*
X39650000Y-59784719D01*
X39937775Y-59765857D01*
X40220628Y-59709594D01*
X40493707Y-59616896D01*
X40752356Y-59489346D01*
X40992152Y-59329119D01*
X41058280Y-59271125D01*
X41058281Y-59271124D01*
X40273692Y-58486535D01*
X40366602Y-58419033D01*
X40489033Y-58296602D01*
X40556535Y-58203691D01*
X41341124Y-58988281D01*
X41341125Y-58988280D01*
X41399119Y-58922152D01*
X41559346Y-58682356D01*
X41686896Y-58423707D01*
X41779594Y-58150628D01*
X41835857Y-57867775D01*
X41854719Y-57580000D01*
X50845280Y-57580000D01*
X50864142Y-57867775D01*
X50920405Y-58150628D01*
X51013103Y-58423707D01*
X51140653Y-58682356D01*
X51300873Y-58922141D01*
X51300876Y-58922144D01*
X51358875Y-58988280D01*
X52143463Y-58203691D01*
X52210967Y-58296602D01*
X52333398Y-58419033D01*
X52426307Y-58486534D01*
X51641717Y-59271124D01*
X51707846Y-59329117D01*
X51707858Y-59329126D01*
X51947643Y-59489346D01*
X52206292Y-59616896D01*
X52479371Y-59709594D01*
X52762224Y-59765857D01*
X53050000Y-59784719D01*
X53337775Y-59765857D01*
X53620628Y-59709594D01*
X53893707Y-59616896D01*
X54152356Y-59489346D01*
X54392152Y-59329119D01*
X54458280Y-59271125D01*
X54458281Y-59271124D01*
X53673692Y-58486535D01*
X53766602Y-58419033D01*
X53889033Y-58296602D01*
X53956535Y-58203691D01*
X54741124Y-58988281D01*
X54741125Y-58988280D01*
X54799119Y-58922152D01*
X54959346Y-58682356D01*
X55021659Y-58555997D01*
X130644318Y-58555997D01*
X130644318Y-58556002D01*
X130664954Y-58712757D01*
X130725464Y-58858841D01*
X130725465Y-58858843D01*
X130812519Y-58972296D01*
X130842034Y-59043553D01*
X130831967Y-59120021D01*
X130812519Y-59153704D01*
X130725465Y-59267156D01*
X130725464Y-59267158D01*
X130664954Y-59413242D01*
X130644318Y-59569997D01*
X130644318Y-59570002D01*
X130664954Y-59726757D01*
X130725463Y-59872840D01*
X130801777Y-59972295D01*
X130831292Y-60043552D01*
X130821225Y-60120021D01*
X130801777Y-60153705D01*
X130725463Y-60253159D01*
X130664954Y-60399242D01*
X130644318Y-60555997D01*
X130644318Y-60556002D01*
X130664954Y-60712757D01*
X130725464Y-60858841D01*
X130725465Y-60858843D01*
X130812519Y-60972296D01*
X130842034Y-61043553D01*
X130831967Y-61120021D01*
X130812519Y-61153704D01*
X130725465Y-61267156D01*
X130725464Y-61267158D01*
X130664954Y-61413242D01*
X130644318Y-61569997D01*
X130644318Y-61570002D01*
X130664954Y-61726757D01*
X130725463Y-61872840D01*
X130807148Y-61979295D01*
X130836663Y-62050553D01*
X130826596Y-62127021D01*
X130807148Y-62160705D01*
X130725463Y-62267159D01*
X130664954Y-62413242D01*
X130644318Y-62569997D01*
X130644318Y-62570002D01*
X130664954Y-62726757D01*
X130725463Y-62872840D01*
X130756465Y-62913242D01*
X130821718Y-62998282D01*
X130947159Y-63094536D01*
X131093238Y-63155044D01*
X131093241Y-63155044D01*
X131093243Y-63155045D01*
X131093240Y-63155045D01*
X131259682Y-63176957D01*
X131259317Y-63179722D01*
X131318740Y-63195644D01*
X131373278Y-63250182D01*
X131381898Y-63267663D01*
X131425462Y-63372839D01*
X131521717Y-63498281D01*
X131521718Y-63498282D01*
X131647159Y-63594536D01*
X131793238Y-63655044D01*
X131793241Y-63655044D01*
X131793243Y-63655045D01*
X131793240Y-63655045D01*
X131949997Y-63675682D01*
X131950000Y-63675682D01*
X131950003Y-63675682D01*
X132106757Y-63655045D01*
X132106758Y-63655044D01*
X132106762Y-63655044D01*
X132252841Y-63594536D01*
X132378282Y-63498282D01*
X132474536Y-63372841D01*
X132535044Y-63226762D01*
X132538174Y-63202993D01*
X132555682Y-63070002D01*
X132555682Y-63069997D01*
X132535045Y-62913242D01*
X132535044Y-62913240D01*
X132535044Y-62913238D01*
X132474536Y-62767159D01*
X132392850Y-62660704D01*
X132363336Y-62589448D01*
X132373403Y-62512980D01*
X132392851Y-62479295D01*
X132409028Y-62458213D01*
X132474536Y-62372841D01*
X132535044Y-62226762D01*
X132542835Y-62167588D01*
X132555682Y-62070002D01*
X132555682Y-62069997D01*
X132535045Y-61913242D01*
X132535044Y-61913240D01*
X132535044Y-61913238D01*
X132474536Y-61767159D01*
X132389315Y-61656097D01*
X132359801Y-61584841D01*
X132369868Y-61508373D01*
X132389314Y-61474690D01*
X132470536Y-61368841D01*
X132531044Y-61222762D01*
X132535156Y-61191534D01*
X132551682Y-61066002D01*
X132551682Y-61065997D01*
X132531045Y-60909242D01*
X132531044Y-60909240D01*
X132531044Y-60909238D01*
X132470536Y-60763159D01*
X132392385Y-60661310D01*
X132362870Y-60590053D01*
X132372937Y-60513585D01*
X132392380Y-60479908D01*
X132474536Y-60372841D01*
X132535044Y-60226762D01*
X132548084Y-60127718D01*
X132555682Y-60070002D01*
X132555682Y-60069997D01*
X132535045Y-59913242D01*
X132535044Y-59913240D01*
X132535044Y-59913238D01*
X132474536Y-59767159D01*
X132389315Y-59656097D01*
X132359801Y-59584841D01*
X132369868Y-59508373D01*
X132389314Y-59474690D01*
X132470536Y-59368841D01*
X132531044Y-59222762D01*
X132551682Y-59066000D01*
X132548727Y-59043553D01*
X132531045Y-58909242D01*
X132531044Y-58909240D01*
X132531044Y-58909238D01*
X132470536Y-58763159D01*
X132374282Y-58637718D01*
X132267788Y-58556002D01*
X132248840Y-58541463D01*
X132102758Y-58480954D01*
X131940692Y-58459618D01*
X131869435Y-58430102D01*
X131822483Y-58368913D01*
X131774536Y-58253159D01*
X131678282Y-58127718D01*
X131678281Y-58127717D01*
X131552840Y-58031463D01*
X131472944Y-57998369D01*
X131406762Y-57970956D01*
X131406760Y-57970955D01*
X131406756Y-57970954D01*
X131406759Y-57970954D01*
X131250003Y-57950318D01*
X131249997Y-57950318D01*
X131093242Y-57970954D01*
X130947159Y-58031463D01*
X130821718Y-58127717D01*
X130821717Y-58127718D01*
X130725463Y-58253159D01*
X130664954Y-58399242D01*
X130644318Y-58555997D01*
X55021659Y-58555997D01*
X55086896Y-58423707D01*
X55179594Y-58150628D01*
X55235857Y-57867775D01*
X55254719Y-57580000D01*
X55235857Y-57292224D01*
X55179594Y-57009371D01*
X55086896Y-56736292D01*
X54959346Y-56477643D01*
X54799126Y-56237858D01*
X54799117Y-56237846D01*
X54741123Y-56171717D01*
X53956534Y-56956306D01*
X53889033Y-56863398D01*
X53766602Y-56740967D01*
X53673691Y-56673463D01*
X54458280Y-55888875D01*
X54392144Y-55830876D01*
X54392141Y-55830873D01*
X54152356Y-55670653D01*
X53893707Y-55543103D01*
X53620628Y-55450405D01*
X53337775Y-55394142D01*
X53050000Y-55375280D01*
X52762224Y-55394142D01*
X52479371Y-55450405D01*
X52206292Y-55543103D01*
X51947643Y-55670653D01*
X51707847Y-55830881D01*
X51641718Y-55888874D01*
X51641718Y-55888875D01*
X52426307Y-56673464D01*
X52333398Y-56740967D01*
X52210967Y-56863398D01*
X52143464Y-56956307D01*
X51358875Y-56171718D01*
X51358874Y-56171718D01*
X51300881Y-56237847D01*
X51140653Y-56477643D01*
X51013103Y-56736292D01*
X50920405Y-57009371D01*
X50864142Y-57292224D01*
X50845280Y-57580000D01*
X41854719Y-57580000D01*
X41835857Y-57292224D01*
X41779594Y-57009371D01*
X41686896Y-56736292D01*
X41559346Y-56477643D01*
X41399126Y-56237858D01*
X41399117Y-56237846D01*
X41341123Y-56171717D01*
X40556534Y-56956306D01*
X40489033Y-56863398D01*
X40366602Y-56740967D01*
X40273691Y-56673463D01*
X41058280Y-55888875D01*
X40992144Y-55830876D01*
X40992141Y-55830873D01*
X40752356Y-55670653D01*
X40493707Y-55543103D01*
X40220628Y-55450405D01*
X39937775Y-55394142D01*
X39650000Y-55375280D01*
X39362224Y-55394142D01*
X39079371Y-55450405D01*
X38806292Y-55543103D01*
X38547643Y-55670653D01*
X38307847Y-55830881D01*
X38241718Y-55888874D01*
X38241718Y-55888875D01*
X39026307Y-56673464D01*
X38933398Y-56740967D01*
X38810967Y-56863398D01*
X38743464Y-56956307D01*
X37958875Y-56171718D01*
X37958874Y-56171718D01*
X37900883Y-56237844D01*
X37823389Y-56353822D01*
X37765400Y-56404675D01*
X37689754Y-56419722D01*
X37616719Y-56394930D01*
X37565866Y-56336941D01*
X37550500Y-56271041D01*
X37550500Y-55069997D01*
X70044318Y-55069997D01*
X70044318Y-55070002D01*
X70064954Y-55226757D01*
X70125463Y-55372840D01*
X70218844Y-55494536D01*
X70221718Y-55498282D01*
X70347159Y-55594536D01*
X70493238Y-55655044D01*
X70493241Y-55655044D01*
X70493243Y-55655045D01*
X70493240Y-55655045D01*
X70649997Y-55675682D01*
X70654161Y-55675682D01*
X70658182Y-55676759D01*
X70659682Y-55676957D01*
X70659656Y-55677154D01*
X70728661Y-55695644D01*
X70783199Y-55750182D01*
X70803161Y-55824682D01*
X70783199Y-55899182D01*
X70772371Y-55915387D01*
X70688026Y-56025307D01*
X70627517Y-56171390D01*
X70606881Y-56328145D01*
X70606881Y-56328150D01*
X70627517Y-56484905D01*
X70688026Y-56630988D01*
X70782027Y-56753492D01*
X70784281Y-56756430D01*
X70909722Y-56852684D01*
X71055801Y-56913192D01*
X71055804Y-56913192D01*
X71055806Y-56913193D01*
X71055803Y-56913193D01*
X71212560Y-56933830D01*
X71212563Y-56933830D01*
X71212566Y-56933830D01*
X71369320Y-56913193D01*
X71369321Y-56913192D01*
X71369325Y-56913192D01*
X71515404Y-56852684D01*
X71640845Y-56756430D01*
X71640848Y-56756425D01*
X71643782Y-56753492D01*
X71647386Y-56751410D01*
X71648593Y-56750485D01*
X71648714Y-56750643D01*
X71710575Y-56714925D01*
X71787703Y-56714921D01*
X71854500Y-56753482D01*
X71893067Y-56820275D01*
X71896871Y-56839398D01*
X71914954Y-56976757D01*
X71975463Y-57122840D01*
X72031328Y-57195644D01*
X72071718Y-57248282D01*
X72197159Y-57344536D01*
X72343238Y-57405044D01*
X72343241Y-57405044D01*
X72343243Y-57405045D01*
X72343240Y-57405045D01*
X72499997Y-57425682D01*
X72500000Y-57425682D01*
X72500003Y-57425682D01*
X72656757Y-57405045D01*
X72656758Y-57405044D01*
X72656762Y-57405044D01*
X72802841Y-57344536D01*
X72928282Y-57248282D01*
X73024536Y-57122841D01*
X73085044Y-56976762D01*
X73094662Y-56903711D01*
X73105682Y-56820002D01*
X73105682Y-56815838D01*
X73106759Y-56811815D01*
X73106957Y-56810318D01*
X73107154Y-56810343D01*
X73125644Y-56741338D01*
X73180182Y-56686800D01*
X73254682Y-56666838D01*
X73329182Y-56686800D01*
X73345373Y-56697618D01*
X73455307Y-56781973D01*
X73601386Y-56842481D01*
X73601389Y-56842481D01*
X73601391Y-56842482D01*
X73601388Y-56842482D01*
X73758145Y-56863119D01*
X73758148Y-56863119D01*
X73758151Y-56863119D01*
X73914905Y-56842482D01*
X73914906Y-56842481D01*
X73914910Y-56842481D01*
X74060989Y-56781973D01*
X74186430Y-56685719D01*
X74282684Y-56560278D01*
X74343192Y-56414199D01*
X74362556Y-56267119D01*
X74363830Y-56257439D01*
X74363830Y-56257434D01*
X74343193Y-56100679D01*
X74343192Y-56100677D01*
X74343192Y-56100675D01*
X74282684Y-55954596D01*
X74186430Y-55829155D01*
X74186429Y-55829154D01*
X74183487Y-55826212D01*
X74181405Y-55822606D01*
X74180485Y-55821407D01*
X74180642Y-55821285D01*
X74144923Y-55759417D01*
X74144923Y-55682289D01*
X74183487Y-55615494D01*
X74250282Y-55576930D01*
X74269397Y-55573128D01*
X74297186Y-55569469D01*
X74406757Y-55555045D01*
X74406758Y-55555044D01*
X74406762Y-55555044D01*
X74552841Y-55494536D01*
X74678282Y-55398282D01*
X74774536Y-55272841D01*
X74835044Y-55126762D01*
X74835932Y-55120021D01*
X74855682Y-54970002D01*
X74855682Y-54969997D01*
X74835045Y-54813242D01*
X74835044Y-54813240D01*
X74835044Y-54813238D01*
X74774536Y-54667159D01*
X74678282Y-54541718D01*
X74641619Y-54513585D01*
X74552840Y-54445463D01*
X74441251Y-54399242D01*
X74406762Y-54384956D01*
X74406760Y-54384955D01*
X74406756Y-54384954D01*
X74406759Y-54384954D01*
X74250003Y-54364318D01*
X74245839Y-54364318D01*
X74241817Y-54363240D01*
X74240318Y-54363043D01*
X74240343Y-54362845D01*
X74171339Y-54344356D01*
X74116801Y-54289818D01*
X74096839Y-54215318D01*
X74116801Y-54140818D01*
X74127629Y-54124613D01*
X74169533Y-54070002D01*
X74211973Y-54014693D01*
X74272481Y-53868614D01*
X74284888Y-53774378D01*
X74293119Y-53711854D01*
X74293119Y-53711849D01*
X74272482Y-53555094D01*
X74272481Y-53555092D01*
X74272481Y-53555090D01*
X74211973Y-53409011D01*
X74115719Y-53283570D01*
X74094331Y-53267158D01*
X73990277Y-53187315D01*
X73909132Y-53153704D01*
X73844199Y-53126808D01*
X73844197Y-53126807D01*
X73844193Y-53126806D01*
X73844196Y-53126806D01*
X73687440Y-53106170D01*
X73687434Y-53106170D01*
X73530679Y-53126806D01*
X73384596Y-53187315D01*
X73259152Y-53283571D01*
X73256207Y-53286517D01*
X73252601Y-53288598D01*
X73251407Y-53289515D01*
X73251286Y-53289357D01*
X73189410Y-53325078D01*
X73112282Y-53325074D01*
X73045489Y-53286507D01*
X73006928Y-53219710D01*
X73003128Y-53200600D01*
X72985045Y-53063242D01*
X72985044Y-53063240D01*
X72985044Y-53063238D01*
X72924536Y-52917159D01*
X72828282Y-52791718D01*
X72725385Y-52712762D01*
X72702840Y-52695463D01*
X72622944Y-52662369D01*
X72556762Y-52634956D01*
X72556760Y-52634955D01*
X72556756Y-52634954D01*
X72556759Y-52634954D01*
X72400003Y-52614318D01*
X72399997Y-52614318D01*
X72243242Y-52634954D01*
X72097159Y-52695463D01*
X71971718Y-52791717D01*
X71971717Y-52791718D01*
X71875463Y-52917159D01*
X71814954Y-53063242D01*
X71794318Y-53219997D01*
X71794318Y-53224161D01*
X71793240Y-53228182D01*
X71793043Y-53229682D01*
X71792845Y-53229656D01*
X71774356Y-53298661D01*
X71719818Y-53353199D01*
X71645318Y-53373161D01*
X71570818Y-53353199D01*
X71554613Y-53342371D01*
X71444692Y-53258026D01*
X71352888Y-53220000D01*
X71298614Y-53197519D01*
X71298612Y-53197518D01*
X71298608Y-53197517D01*
X71298611Y-53197517D01*
X71141855Y-53176881D01*
X71141849Y-53176881D01*
X70985094Y-53197517D01*
X70839011Y-53258026D01*
X70713570Y-53354280D01*
X70713569Y-53354281D01*
X70617315Y-53479722D01*
X70556806Y-53625805D01*
X70536170Y-53782560D01*
X70536170Y-53782565D01*
X70556806Y-53939320D01*
X70617315Y-54085403D01*
X70713569Y-54210844D01*
X70716512Y-54213787D01*
X70718593Y-54217391D01*
X70719515Y-54218593D01*
X70719356Y-54218714D01*
X70755076Y-54280582D01*
X70755076Y-54357710D01*
X70716512Y-54424505D01*
X70649717Y-54463069D01*
X70630601Y-54466871D01*
X70493242Y-54484954D01*
X70347159Y-54545463D01*
X70221718Y-54641717D01*
X70221717Y-54641718D01*
X70125463Y-54767159D01*
X70064954Y-54913242D01*
X70044318Y-55069997D01*
X37550500Y-55069997D01*
X37550500Y-52555997D01*
X130644318Y-52555997D01*
X130644318Y-52556002D01*
X130664954Y-52712757D01*
X130725464Y-52858841D01*
X130725465Y-52858843D01*
X130812519Y-52972296D01*
X130842034Y-53043553D01*
X130831967Y-53120021D01*
X130812519Y-53153704D01*
X130725465Y-53267156D01*
X130725464Y-53267158D01*
X130664954Y-53413242D01*
X130644318Y-53569997D01*
X130644318Y-53570002D01*
X130664954Y-53726757D01*
X130725463Y-53872840D01*
X130801777Y-53972295D01*
X130831292Y-54043552D01*
X130821225Y-54120021D01*
X130801777Y-54153705D01*
X130725463Y-54253159D01*
X130664954Y-54399242D01*
X130644318Y-54555997D01*
X130644318Y-54556002D01*
X130664954Y-54712757D01*
X130725464Y-54858841D01*
X130725465Y-54858843D01*
X130812519Y-54972296D01*
X130842034Y-55043553D01*
X130831967Y-55120021D01*
X130812519Y-55153704D01*
X130725465Y-55267156D01*
X130725464Y-55267158D01*
X130664954Y-55413242D01*
X130644318Y-55569997D01*
X130644318Y-55570002D01*
X130664954Y-55726757D01*
X130725463Y-55872840D01*
X130807148Y-55979295D01*
X130836663Y-56050553D01*
X130826596Y-56127021D01*
X130807148Y-56160705D01*
X130725463Y-56267159D01*
X130664954Y-56413242D01*
X130644318Y-56569997D01*
X130644318Y-56570002D01*
X130664954Y-56726757D01*
X130725463Y-56872840D01*
X130756465Y-56913242D01*
X130821718Y-56998282D01*
X130947159Y-57094536D01*
X131093238Y-57155044D01*
X131093241Y-57155044D01*
X131093243Y-57155045D01*
X131093240Y-57155045D01*
X131259682Y-57176957D01*
X131259317Y-57179722D01*
X131318740Y-57195644D01*
X131373278Y-57250182D01*
X131381898Y-57267663D01*
X131425462Y-57372839D01*
X131425464Y-57372841D01*
X131521718Y-57498282D01*
X131647159Y-57594536D01*
X131793238Y-57655044D01*
X131793241Y-57655044D01*
X131793243Y-57655045D01*
X131793240Y-57655045D01*
X131949997Y-57675682D01*
X131950000Y-57675682D01*
X131950003Y-57675682D01*
X132106757Y-57655045D01*
X132106758Y-57655044D01*
X132106762Y-57655044D01*
X132252841Y-57594536D01*
X132378282Y-57498282D01*
X132474536Y-57372841D01*
X132535044Y-57226762D01*
X132548726Y-57122841D01*
X132555682Y-57070002D01*
X132555682Y-57069997D01*
X132535045Y-56913242D01*
X132535044Y-56913240D01*
X132535044Y-56913238D01*
X132474536Y-56767159D01*
X132392850Y-56660704D01*
X132363336Y-56589448D01*
X132373403Y-56512980D01*
X132392851Y-56479295D01*
X132438563Y-56419722D01*
X132474536Y-56372841D01*
X132535044Y-56226762D01*
X132536683Y-56214318D01*
X132555682Y-56070002D01*
X132555682Y-56069997D01*
X132535045Y-55913242D01*
X132535044Y-55913240D01*
X132535044Y-55913238D01*
X132474536Y-55767159D01*
X132389315Y-55656097D01*
X132359801Y-55584841D01*
X132369868Y-55508373D01*
X132389314Y-55474690D01*
X132470536Y-55368841D01*
X132531044Y-55222762D01*
X132543684Y-55126757D01*
X132551682Y-55066002D01*
X132551682Y-55065997D01*
X132531045Y-54909242D01*
X132531044Y-54909240D01*
X132531044Y-54909238D01*
X132470536Y-54763159D01*
X132392385Y-54661310D01*
X132362870Y-54590053D01*
X132372937Y-54513585D01*
X132392380Y-54479908D01*
X132474536Y-54372841D01*
X132535044Y-54226762D01*
X132536120Y-54218593D01*
X132555682Y-54070002D01*
X132555682Y-54069997D01*
X132535045Y-53913242D01*
X132535044Y-53913240D01*
X132535044Y-53913238D01*
X132474536Y-53767159D01*
X132389315Y-53656097D01*
X132359801Y-53584841D01*
X132369868Y-53508373D01*
X132389314Y-53474690D01*
X132470536Y-53368841D01*
X132531044Y-53222762D01*
X132534368Y-53197519D01*
X132551682Y-53066002D01*
X132551682Y-53065997D01*
X132531045Y-52909242D01*
X132531044Y-52909240D01*
X132531044Y-52909238D01*
X132470536Y-52763159D01*
X132374282Y-52637718D01*
X132370683Y-52634956D01*
X132248840Y-52541463D01*
X132102758Y-52480954D01*
X131940692Y-52459618D01*
X131869435Y-52430102D01*
X131822483Y-52368913D01*
X131774536Y-52253159D01*
X131678282Y-52127718D01*
X131678281Y-52127717D01*
X131552840Y-52031463D01*
X131472944Y-51998369D01*
X131406762Y-51970956D01*
X131406760Y-51970955D01*
X131406756Y-51970954D01*
X131406759Y-51970954D01*
X131250003Y-51950318D01*
X131249997Y-51950318D01*
X131093242Y-51970954D01*
X130947159Y-52031463D01*
X130821718Y-52127717D01*
X130821717Y-52127718D01*
X130725463Y-52253159D01*
X130664954Y-52399242D01*
X130644318Y-52555997D01*
X37550500Y-52555997D01*
X37550500Y-49969997D01*
X65319318Y-49969997D01*
X65319318Y-49970002D01*
X65339954Y-50126757D01*
X65400463Y-50272840D01*
X65477196Y-50372840D01*
X65496718Y-50398282D01*
X65622159Y-50494536D01*
X65768238Y-50555044D01*
X65768241Y-50555044D01*
X65768243Y-50555045D01*
X65768240Y-50555045D01*
X65924997Y-50575682D01*
X65925000Y-50575682D01*
X65925003Y-50575682D01*
X66081757Y-50555045D01*
X66081758Y-50555044D01*
X66081762Y-50555044D01*
X66227841Y-50494536D01*
X66353282Y-50398282D01*
X66449536Y-50272841D01*
X66510044Y-50126762D01*
X66512844Y-50105500D01*
X66530682Y-49970002D01*
X66530682Y-49969997D01*
X66510045Y-49813242D01*
X66510044Y-49813240D01*
X66510044Y-49813238D01*
X66449536Y-49667159D01*
X66353282Y-49541718D01*
X66265926Y-49474687D01*
X66227840Y-49445463D01*
X66147944Y-49412369D01*
X66081762Y-49384956D01*
X66081760Y-49384955D01*
X66081756Y-49384954D01*
X66081759Y-49384954D01*
X65925003Y-49364318D01*
X65924997Y-49364318D01*
X65768242Y-49384954D01*
X65622159Y-49445463D01*
X65496718Y-49541717D01*
X65496717Y-49541718D01*
X65400463Y-49667159D01*
X65339954Y-49813242D01*
X65319318Y-49969997D01*
X37550500Y-49969997D01*
X37550500Y-47569997D01*
X92280318Y-47569997D01*
X92280318Y-47570002D01*
X92300954Y-47726757D01*
X92361463Y-47872840D01*
X92437778Y-47972295D01*
X92457718Y-47998282D01*
X92583159Y-48094536D01*
X92729238Y-48155044D01*
X92729241Y-48155044D01*
X92729243Y-48155045D01*
X92729240Y-48155045D01*
X92885997Y-48175682D01*
X92886000Y-48175682D01*
X92886003Y-48175682D01*
X93042757Y-48155045D01*
X93042758Y-48155044D01*
X93042762Y-48155044D01*
X93188841Y-48094536D01*
X93314282Y-47998282D01*
X93410536Y-47872841D01*
X93471044Y-47726762D01*
X93473844Y-47705500D01*
X93491682Y-47570002D01*
X93491682Y-47569997D01*
X93471045Y-47413242D01*
X93471044Y-47413240D01*
X93471044Y-47413238D01*
X93410536Y-47267159D01*
X93314282Y-47141718D01*
X93269587Y-47107422D01*
X93188840Y-47045463D01*
X93108944Y-47012369D01*
X93042762Y-46984956D01*
X93042760Y-46984955D01*
X93042756Y-46984954D01*
X93042759Y-46984954D01*
X92886003Y-46964318D01*
X92885997Y-46964318D01*
X92729242Y-46984954D01*
X92583159Y-47045463D01*
X92457718Y-47141717D01*
X92457717Y-47141718D01*
X92361463Y-47267159D01*
X92300954Y-47413242D01*
X92280318Y-47569997D01*
X37550500Y-47569997D01*
X37550500Y-46555997D01*
X130644318Y-46555997D01*
X130644318Y-46556002D01*
X130664954Y-46712757D01*
X130664955Y-46712761D01*
X130664956Y-46712762D01*
X130697825Y-46792114D01*
X130725464Y-46858841D01*
X130725465Y-46858843D01*
X130812519Y-46972296D01*
X130842034Y-47043553D01*
X130831967Y-47120021D01*
X130812519Y-47153704D01*
X130725465Y-47267156D01*
X130725464Y-47267158D01*
X130664954Y-47413242D01*
X130644318Y-47569997D01*
X130644318Y-47570002D01*
X130664954Y-47726757D01*
X130725463Y-47872840D01*
X130801777Y-47972295D01*
X130831292Y-48043552D01*
X130821225Y-48120021D01*
X130801777Y-48153705D01*
X130725463Y-48253159D01*
X130664954Y-48399242D01*
X130644318Y-48555997D01*
X130644318Y-48556002D01*
X130664954Y-48712757D01*
X130664955Y-48712761D01*
X130664956Y-48712762D01*
X130723666Y-48854500D01*
X130725464Y-48858841D01*
X130725465Y-48858843D01*
X130812519Y-48972296D01*
X130842034Y-49043553D01*
X130831967Y-49120021D01*
X130812519Y-49153704D01*
X130725465Y-49267156D01*
X130725464Y-49267158D01*
X130664954Y-49413242D01*
X130644318Y-49569997D01*
X130644318Y-49570002D01*
X130664954Y-49726757D01*
X130725463Y-49872840D01*
X130807148Y-49979295D01*
X130836663Y-50050553D01*
X130826596Y-50127021D01*
X130807148Y-50160705D01*
X130725463Y-50267159D01*
X130664954Y-50413242D01*
X130644318Y-50569997D01*
X130644318Y-50570002D01*
X130664954Y-50726757D01*
X130725463Y-50872840D01*
X130756465Y-50913242D01*
X130821718Y-50998282D01*
X130947159Y-51094536D01*
X131093238Y-51155044D01*
X131093241Y-51155044D01*
X131093243Y-51155045D01*
X131093240Y-51155045D01*
X131259682Y-51176957D01*
X131259317Y-51179722D01*
X131318740Y-51195644D01*
X131373278Y-51250182D01*
X131381898Y-51267663D01*
X131425462Y-51372839D01*
X131425464Y-51372841D01*
X131521718Y-51498282D01*
X131647159Y-51594536D01*
X131793238Y-51655044D01*
X131793241Y-51655044D01*
X131793243Y-51655045D01*
X131793240Y-51655045D01*
X131949997Y-51675682D01*
X131950000Y-51675682D01*
X131950003Y-51675682D01*
X132106757Y-51655045D01*
X132106758Y-51655044D01*
X132106762Y-51655044D01*
X132252841Y-51594536D01*
X132378282Y-51498282D01*
X132474536Y-51372841D01*
X132535044Y-51226762D01*
X132555682Y-51070000D01*
X132555682Y-51069997D01*
X132535045Y-50913242D01*
X132535044Y-50913240D01*
X132535044Y-50913238D01*
X132474536Y-50767159D01*
X132392850Y-50660704D01*
X132363336Y-50589448D01*
X132373403Y-50512980D01*
X132392851Y-50479295D01*
X132455015Y-50398281D01*
X132474536Y-50372841D01*
X132535044Y-50226762D01*
X132551009Y-50105500D01*
X132555682Y-50070002D01*
X132555682Y-50069997D01*
X132535045Y-49913242D01*
X132535044Y-49913240D01*
X132535044Y-49913238D01*
X132474536Y-49767159D01*
X132389315Y-49656097D01*
X132359801Y-49584841D01*
X132369868Y-49508373D01*
X132389314Y-49474690D01*
X132470536Y-49368841D01*
X132531044Y-49222762D01*
X132546229Y-49107424D01*
X132551682Y-49066002D01*
X132551682Y-49065997D01*
X132531045Y-48909242D01*
X132531044Y-48909240D01*
X132531044Y-48909238D01*
X132470536Y-48763159D01*
X132392385Y-48661310D01*
X132362870Y-48590053D01*
X132372937Y-48513585D01*
X132392380Y-48479908D01*
X132474536Y-48372841D01*
X132535044Y-48226762D01*
X132548084Y-48127718D01*
X132555682Y-48070002D01*
X132555682Y-48069997D01*
X132535045Y-47913242D01*
X132535044Y-47913240D01*
X132535044Y-47913238D01*
X132474536Y-47767159D01*
X132389315Y-47656097D01*
X132359801Y-47584841D01*
X132369868Y-47508373D01*
X132389314Y-47474690D01*
X132470536Y-47368841D01*
X132531044Y-47222762D01*
X132546229Y-47107424D01*
X132551682Y-47066002D01*
X132551682Y-47065997D01*
X132531045Y-46909242D01*
X132531044Y-46909240D01*
X132531044Y-46909238D01*
X132470536Y-46763159D01*
X132374282Y-46637718D01*
X132320643Y-46596559D01*
X132248840Y-46541463D01*
X132102758Y-46480954D01*
X131940692Y-46459618D01*
X131869435Y-46430102D01*
X131822483Y-46368913D01*
X131774536Y-46253159D01*
X131678282Y-46127718D01*
X131678281Y-46127717D01*
X131552840Y-46031463D01*
X131472944Y-45998369D01*
X131406762Y-45970956D01*
X131406760Y-45970955D01*
X131406756Y-45970954D01*
X131406759Y-45970954D01*
X131250003Y-45950318D01*
X131249997Y-45950318D01*
X131093242Y-45970954D01*
X130947159Y-46031463D01*
X130821718Y-46127717D01*
X130821717Y-46127718D01*
X130725463Y-46253159D01*
X130664954Y-46399242D01*
X130644318Y-46555997D01*
X37550500Y-46555997D01*
X37550500Y-43969997D01*
X65319318Y-43969997D01*
X65319318Y-43970002D01*
X65339954Y-44126757D01*
X65400463Y-44272840D01*
X65477196Y-44372840D01*
X65496718Y-44398282D01*
X65622159Y-44494536D01*
X65768238Y-44555044D01*
X65768241Y-44555044D01*
X65768243Y-44555045D01*
X65768240Y-44555045D01*
X65924997Y-44575682D01*
X65925000Y-44575682D01*
X65925003Y-44575682D01*
X66081757Y-44555045D01*
X66081758Y-44555044D01*
X66081762Y-44555044D01*
X66227841Y-44494536D01*
X66353282Y-44398282D01*
X66449536Y-44272841D01*
X66510044Y-44126762D01*
X66510274Y-44125021D01*
X66517518Y-44069997D01*
X70044318Y-44069997D01*
X70044318Y-44070002D01*
X70064954Y-44226757D01*
X70125463Y-44372840D01*
X70218844Y-44494536D01*
X70221718Y-44498282D01*
X70347159Y-44594536D01*
X70493238Y-44655044D01*
X70493241Y-44655044D01*
X70493243Y-44655045D01*
X70493240Y-44655045D01*
X70649997Y-44675682D01*
X70654161Y-44675682D01*
X70658182Y-44676759D01*
X70659682Y-44676957D01*
X70659656Y-44677154D01*
X70728661Y-44695644D01*
X70783199Y-44750182D01*
X70803161Y-44824682D01*
X70783199Y-44899182D01*
X70772371Y-44915387D01*
X70688026Y-45025307D01*
X70627517Y-45171390D01*
X70606881Y-45328145D01*
X70606881Y-45328150D01*
X70627517Y-45484905D01*
X70688026Y-45630988D01*
X70782027Y-45753492D01*
X70784281Y-45756430D01*
X70909722Y-45852684D01*
X71055801Y-45913192D01*
X71055804Y-45913192D01*
X71055806Y-45913193D01*
X71055803Y-45913193D01*
X71212560Y-45933830D01*
X71212563Y-45933830D01*
X71212566Y-45933830D01*
X71369320Y-45913193D01*
X71369321Y-45913192D01*
X71369325Y-45913192D01*
X71515404Y-45852684D01*
X71640845Y-45756430D01*
X71640848Y-45756425D01*
X71643782Y-45753492D01*
X71647386Y-45751410D01*
X71648593Y-45750485D01*
X71648714Y-45750643D01*
X71710575Y-45714925D01*
X71787703Y-45714921D01*
X71854500Y-45753482D01*
X71893067Y-45820275D01*
X71896871Y-45839398D01*
X71914954Y-45976757D01*
X71975463Y-46122840D01*
X71975464Y-46122841D01*
X72071718Y-46248282D01*
X72197159Y-46344536D01*
X72343238Y-46405044D01*
X72343241Y-46405044D01*
X72343243Y-46405045D01*
X72343240Y-46405045D01*
X72499997Y-46425682D01*
X72500000Y-46425682D01*
X72500003Y-46425682D01*
X72656757Y-46405045D01*
X72656758Y-46405044D01*
X72656762Y-46405044D01*
X72802841Y-46344536D01*
X72928282Y-46248282D01*
X73024536Y-46122841D01*
X73085044Y-45976762D01*
X73085809Y-45970956D01*
X73105682Y-45820002D01*
X73105682Y-45815838D01*
X73106759Y-45811815D01*
X73106957Y-45810318D01*
X73107154Y-45810343D01*
X73125644Y-45741338D01*
X73180182Y-45686800D01*
X73254682Y-45666838D01*
X73329182Y-45686800D01*
X73345373Y-45697618D01*
X73455307Y-45781973D01*
X73601386Y-45842481D01*
X73601389Y-45842481D01*
X73601391Y-45842482D01*
X73601388Y-45842482D01*
X73758145Y-45863119D01*
X73758148Y-45863119D01*
X73758151Y-45863119D01*
X73914905Y-45842482D01*
X73914906Y-45842481D01*
X73914910Y-45842481D01*
X74060989Y-45781973D01*
X74186430Y-45685719D01*
X74282684Y-45560278D01*
X74343192Y-45414199D01*
X74350481Y-45358839D01*
X74363830Y-45257439D01*
X74363830Y-45257434D01*
X74343193Y-45100679D01*
X74343192Y-45100677D01*
X74343192Y-45100675D01*
X74282684Y-44954596D01*
X74186430Y-44829155D01*
X74186429Y-44829154D01*
X74183487Y-44826212D01*
X74181405Y-44822606D01*
X74180485Y-44821407D01*
X74180642Y-44821285D01*
X74144923Y-44759417D01*
X74144923Y-44682289D01*
X74183487Y-44615494D01*
X74250282Y-44576930D01*
X74269397Y-44573128D01*
X74308351Y-44568000D01*
X74406757Y-44555045D01*
X74406758Y-44555044D01*
X74406762Y-44555044D01*
X74552841Y-44494536D01*
X74678282Y-44398282D01*
X74774536Y-44272841D01*
X74835044Y-44126762D01*
X74835274Y-44125021D01*
X74855682Y-43970002D01*
X74855682Y-43969997D01*
X74835045Y-43813242D01*
X74835044Y-43813240D01*
X74835044Y-43813238D01*
X74774536Y-43667159D01*
X74707654Y-43579997D01*
X130644318Y-43579997D01*
X130644318Y-43580002D01*
X130664954Y-43736757D01*
X130725464Y-43882841D01*
X130725465Y-43882843D01*
X130797940Y-43977296D01*
X130827455Y-44048553D01*
X130817388Y-44125021D01*
X130797940Y-44158704D01*
X130725465Y-44253156D01*
X130725464Y-44253158D01*
X130664954Y-44399242D01*
X130644318Y-44555997D01*
X130644318Y-44556002D01*
X130664954Y-44712757D01*
X130725463Y-44858840D01*
X130756944Y-44899866D01*
X130821718Y-44984282D01*
X130947159Y-45080536D01*
X131093238Y-45141044D01*
X131093241Y-45141044D01*
X131093243Y-45141045D01*
X131093240Y-45141045D01*
X131259682Y-45162957D01*
X131259317Y-45165722D01*
X131318740Y-45181644D01*
X131373278Y-45236182D01*
X131381898Y-45253663D01*
X131425462Y-45358839D01*
X131521717Y-45484281D01*
X131521718Y-45484282D01*
X131647159Y-45580536D01*
X131793238Y-45641044D01*
X131793241Y-45641044D01*
X131793243Y-45641045D01*
X131793240Y-45641045D01*
X131949997Y-45661682D01*
X131950000Y-45661682D01*
X131950003Y-45661682D01*
X132106757Y-45641045D01*
X132106758Y-45641044D01*
X132106762Y-45641044D01*
X132252841Y-45580536D01*
X132378282Y-45484282D01*
X132474536Y-45358841D01*
X132507193Y-45280000D01*
X136969953Y-45280000D01*
X136988092Y-45452576D01*
X136988093Y-45452581D01*
X136988094Y-45452583D01*
X137041711Y-45617604D01*
X137041716Y-45617615D01*
X137081036Y-45685718D01*
X137121861Y-45756429D01*
X137128476Y-45767885D01*
X137128475Y-45767885D01*
X137128476Y-45767887D01*
X137128478Y-45767889D01*
X137133880Y-45773889D01*
X137168895Y-45842607D01*
X137164860Y-45919630D01*
X137149316Y-45952859D01*
X137142665Y-45963443D01*
X137101881Y-46080000D01*
X137577606Y-46080000D01*
X137608585Y-46083256D01*
X137637123Y-46089322D01*
X137588060Y-46138386D01*
X137550000Y-46230272D01*
X137550000Y-46329728D01*
X137588060Y-46421614D01*
X137637123Y-46470677D01*
X137608585Y-46476744D01*
X137577606Y-46480000D01*
X137101881Y-46480000D01*
X137142666Y-46596559D01*
X137149314Y-46607139D01*
X137172047Y-46680840D01*
X137154883Y-46756035D01*
X137133886Y-46786103D01*
X137128480Y-46792106D01*
X137128478Y-46792110D01*
X137041716Y-46942384D01*
X137041711Y-46942395D01*
X136988094Y-47107416D01*
X136988093Y-47107419D01*
X136988092Y-47107424D01*
X136969953Y-47280000D01*
X136988092Y-47452576D01*
X136988093Y-47452581D01*
X136988094Y-47452583D01*
X137041711Y-47617604D01*
X137041713Y-47617608D01*
X137041714Y-47617611D01*
X137063935Y-47656098D01*
X137092457Y-47705500D01*
X137112419Y-47780000D01*
X137092457Y-47854500D01*
X137041715Y-47942387D01*
X137041711Y-47942395D01*
X136988094Y-48107416D01*
X136988093Y-48107419D01*
X136988092Y-48107424D01*
X136969953Y-48280000D01*
X136988092Y-48452576D01*
X136988093Y-48452581D01*
X136988094Y-48452583D01*
X137041711Y-48617604D01*
X137041713Y-48617608D01*
X137041714Y-48617611D01*
X137053323Y-48637718D01*
X137092457Y-48705500D01*
X137112419Y-48780000D01*
X137092457Y-48854500D01*
X137041715Y-48942387D01*
X137041711Y-48942395D01*
X136988094Y-49107416D01*
X136988093Y-49107419D01*
X136988092Y-49107424D01*
X136969953Y-49280000D01*
X136988092Y-49452576D01*
X136988093Y-49452581D01*
X136988094Y-49452583D01*
X137041711Y-49617604D01*
X137041716Y-49617615D01*
X137128477Y-49767888D01*
X137244589Y-49896844D01*
X137244592Y-49896847D01*
X137384977Y-49998843D01*
X137498619Y-50049439D01*
X137543501Y-50069422D01*
X137610223Y-50083604D01*
X137713234Y-50105500D01*
X137713236Y-50105500D01*
X137886766Y-50105500D01*
X137965794Y-50088701D01*
X138056499Y-50069422D01*
X138215024Y-49998842D01*
X138355410Y-49896845D01*
X138471522Y-49767889D01*
X138558286Y-49617611D01*
X138611908Y-49452576D01*
X138630047Y-49280000D01*
X138611908Y-49107424D01*
X138558286Y-48942389D01*
X138507542Y-48854500D01*
X138487580Y-48780001D01*
X138507540Y-48705504D01*
X138558286Y-48617611D01*
X138611908Y-48452576D01*
X138630047Y-48280000D01*
X138611908Y-48107424D01*
X138558286Y-47942389D01*
X138507542Y-47854500D01*
X138487580Y-47780001D01*
X138507540Y-47705504D01*
X138558286Y-47617611D01*
X138611908Y-47452576D01*
X138630047Y-47280000D01*
X138611908Y-47107424D01*
X138558286Y-46942389D01*
X138471522Y-46792111D01*
X138466120Y-46786111D01*
X138431104Y-46717392D01*
X138435138Y-46640370D01*
X138450687Y-46607134D01*
X138457334Y-46596555D01*
X138457336Y-46596551D01*
X138498119Y-46480000D01*
X138022394Y-46480000D01*
X137991415Y-46476744D01*
X137962876Y-46470677D01*
X138011940Y-46421614D01*
X138050000Y-46329728D01*
X138050000Y-46230272D01*
X138011940Y-46138386D01*
X137962876Y-46089322D01*
X137991415Y-46083256D01*
X138022394Y-46080000D01*
X138498119Y-46080000D01*
X138457333Y-45963442D01*
X138450686Y-45952862D01*
X138427952Y-45879161D01*
X138445115Y-45803966D01*
X138466116Y-45773892D01*
X138471522Y-45767889D01*
X138558286Y-45617611D01*
X138611908Y-45452576D01*
X138630047Y-45280000D01*
X138611908Y-45107424D01*
X138575506Y-44995390D01*
X138571471Y-44918370D01*
X138584456Y-44881703D01*
X138596105Y-44858841D01*
X138610646Y-44830304D01*
X138625500Y-44736519D01*
X138625499Y-43823482D01*
X138610646Y-43729696D01*
X138553050Y-43616658D01*
X138463342Y-43526950D01*
X138400547Y-43494954D01*
X138350305Y-43469354D01*
X138332499Y-43466534D01*
X138256519Y-43454500D01*
X138256514Y-43454500D01*
X137343481Y-43454500D01*
X137249695Y-43469354D01*
X137249693Y-43469355D01*
X137136657Y-43526950D01*
X137046950Y-43616657D01*
X136989354Y-43729694D01*
X136988235Y-43736762D01*
X136974500Y-43823481D01*
X136974500Y-43823482D01*
X136974500Y-43823485D01*
X136974500Y-44736519D01*
X136989353Y-44830303D01*
X136989353Y-44830304D01*
X137015544Y-44881706D01*
X137031580Y-44957148D01*
X137024492Y-44995392D01*
X136988094Y-45107416D01*
X136988093Y-45107419D01*
X136988092Y-45107424D01*
X136969953Y-45280000D01*
X132507193Y-45280000D01*
X132535044Y-45212762D01*
X132540492Y-45171386D01*
X132555682Y-45056002D01*
X132555682Y-45055997D01*
X132535045Y-44899242D01*
X132535044Y-44899240D01*
X132535044Y-44899238D01*
X132474536Y-44753159D01*
X132402057Y-44658703D01*
X132372543Y-44587449D01*
X132382610Y-44510981D01*
X132402056Y-44477298D01*
X132474536Y-44382841D01*
X132535044Y-44236762D01*
X132536362Y-44226757D01*
X132555682Y-44080002D01*
X132555682Y-44079997D01*
X132535045Y-43923242D01*
X132535044Y-43923240D01*
X132535044Y-43923238D01*
X132474536Y-43777159D01*
X132378282Y-43651718D01*
X132365249Y-43641717D01*
X132252840Y-43555463D01*
X132172944Y-43522369D01*
X132106762Y-43494956D01*
X132106760Y-43494955D01*
X132106756Y-43494954D01*
X132106759Y-43494954D01*
X131940318Y-43473043D01*
X131940682Y-43470277D01*
X131881260Y-43454356D01*
X131826722Y-43399818D01*
X131818102Y-43382337D01*
X131774537Y-43277160D01*
X131678282Y-43151718D01*
X131678281Y-43151717D01*
X131552840Y-43055463D01*
X131454409Y-43014692D01*
X131406762Y-42994956D01*
X131406760Y-42994955D01*
X131406756Y-42994954D01*
X131406759Y-42994954D01*
X131250003Y-42974318D01*
X131249997Y-42974318D01*
X131093242Y-42994954D01*
X130947159Y-43055463D01*
X130821718Y-43151717D01*
X130821717Y-43151718D01*
X130725463Y-43277159D01*
X130664954Y-43423242D01*
X130644318Y-43579997D01*
X74707654Y-43579997D01*
X74678282Y-43541718D01*
X74617341Y-43494956D01*
X74552840Y-43445463D01*
X74472944Y-43412369D01*
X74406762Y-43384956D01*
X74406760Y-43384955D01*
X74406756Y-43384954D01*
X74406759Y-43384954D01*
X74250003Y-43364318D01*
X74245839Y-43364318D01*
X74241817Y-43363240D01*
X74240318Y-43363043D01*
X74240343Y-43362845D01*
X74171339Y-43344356D01*
X74116801Y-43289818D01*
X74096839Y-43215318D01*
X74116801Y-43140818D01*
X74127629Y-43124613D01*
X74180689Y-43055463D01*
X74211973Y-43014693D01*
X74272481Y-42868614D01*
X74284888Y-42774378D01*
X74293119Y-42711854D01*
X74293119Y-42711849D01*
X74272482Y-42555094D01*
X74272481Y-42555092D01*
X74272481Y-42555090D01*
X74211973Y-42409011D01*
X74115719Y-42283570D01*
X74082430Y-42258026D01*
X73990277Y-42187315D01*
X73910381Y-42154221D01*
X73844199Y-42126808D01*
X73844197Y-42126807D01*
X73844193Y-42126806D01*
X73844196Y-42126806D01*
X73687440Y-42106170D01*
X73687434Y-42106170D01*
X73530679Y-42126806D01*
X73384596Y-42187315D01*
X73259152Y-42283571D01*
X73256207Y-42286517D01*
X73252601Y-42288598D01*
X73251407Y-42289515D01*
X73251286Y-42289357D01*
X73189410Y-42325078D01*
X73112282Y-42325074D01*
X73045489Y-42286507D01*
X73006928Y-42219710D01*
X73003128Y-42200600D01*
X72985045Y-42063242D01*
X72985044Y-42063240D01*
X72985044Y-42063238D01*
X72924536Y-41917159D01*
X72828282Y-41791718D01*
X72702841Y-41695464D01*
X72702840Y-41695463D01*
X72622944Y-41662369D01*
X72556762Y-41634956D01*
X72556760Y-41634955D01*
X72556756Y-41634954D01*
X72556759Y-41634954D01*
X72400003Y-41614318D01*
X72399997Y-41614318D01*
X72243242Y-41634954D01*
X72097159Y-41695463D01*
X71971718Y-41791717D01*
X71971717Y-41791718D01*
X71875463Y-41917159D01*
X71814954Y-42063242D01*
X71794318Y-42219997D01*
X71794318Y-42224161D01*
X71793240Y-42228182D01*
X71793043Y-42229682D01*
X71792845Y-42229656D01*
X71774356Y-42298661D01*
X71719818Y-42353199D01*
X71645318Y-42373161D01*
X71570818Y-42353199D01*
X71554613Y-42342371D01*
X71444692Y-42258026D01*
X71352888Y-42220000D01*
X71298614Y-42197519D01*
X71298612Y-42197518D01*
X71298608Y-42197517D01*
X71298611Y-42197517D01*
X71141855Y-42176881D01*
X71141849Y-42176881D01*
X70985094Y-42197517D01*
X70839011Y-42258026D01*
X70713570Y-42354280D01*
X70713569Y-42354281D01*
X70617315Y-42479722D01*
X70556806Y-42625805D01*
X70536170Y-42782560D01*
X70536170Y-42782565D01*
X70556806Y-42939320D01*
X70617315Y-43085403D01*
X70713569Y-43210844D01*
X70716512Y-43213787D01*
X70718593Y-43217391D01*
X70719515Y-43218593D01*
X70719356Y-43218714D01*
X70755076Y-43280582D01*
X70755076Y-43357710D01*
X70716512Y-43424505D01*
X70649717Y-43463069D01*
X70630601Y-43466871D01*
X70493242Y-43484954D01*
X70347159Y-43545463D01*
X70221718Y-43641717D01*
X70221717Y-43641718D01*
X70125463Y-43767159D01*
X70064954Y-43913242D01*
X70044318Y-44069997D01*
X66517518Y-44069997D01*
X66530682Y-43970002D01*
X66530682Y-43969997D01*
X66510045Y-43813242D01*
X66510044Y-43813240D01*
X66510044Y-43813238D01*
X66449536Y-43667159D01*
X66353282Y-43541718D01*
X66292341Y-43494956D01*
X66227840Y-43445463D01*
X66147944Y-43412369D01*
X66081762Y-43384956D01*
X66081760Y-43384955D01*
X66081756Y-43384954D01*
X66081759Y-43384954D01*
X65925003Y-43364318D01*
X65924997Y-43364318D01*
X65768242Y-43384954D01*
X65622159Y-43445463D01*
X65496718Y-43541717D01*
X65496717Y-43541718D01*
X65400463Y-43667159D01*
X65339954Y-43813242D01*
X65319318Y-43969997D01*
X37550500Y-43969997D01*
X37550500Y-37088958D01*
X37570462Y-37014458D01*
X37625000Y-36959920D01*
X37699500Y-36939958D01*
X37774000Y-36959920D01*
X37823389Y-37006178D01*
X37900873Y-37122141D01*
X37900876Y-37122144D01*
X37958875Y-37188280D01*
X38743463Y-36403691D01*
X38810967Y-36496602D01*
X38933398Y-36619033D01*
X39026307Y-36686534D01*
X38241717Y-37471124D01*
X38307846Y-37529117D01*
X38307858Y-37529126D01*
X38547643Y-37689346D01*
X38806292Y-37816896D01*
X39079371Y-37909594D01*
X39362224Y-37965857D01*
X39650000Y-37984719D01*
X39937775Y-37965857D01*
X40220628Y-37909594D01*
X40493707Y-37816896D01*
X40752356Y-37689346D01*
X40992152Y-37529119D01*
X41058280Y-37471125D01*
X41058281Y-37471124D01*
X40273692Y-36686535D01*
X40366602Y-36619033D01*
X40489033Y-36496602D01*
X40556535Y-36403691D01*
X41341124Y-37188281D01*
X41341125Y-37188280D01*
X41399119Y-37122152D01*
X41559346Y-36882356D01*
X41686896Y-36623707D01*
X41779594Y-36350628D01*
X41835857Y-36067775D01*
X41854719Y-35780000D01*
X50845280Y-35780000D01*
X50864142Y-36067775D01*
X50920405Y-36350628D01*
X51013103Y-36623707D01*
X51140653Y-36882356D01*
X51300873Y-37122141D01*
X51300876Y-37122144D01*
X51358875Y-37188280D01*
X52143463Y-36403691D01*
X52210967Y-36496602D01*
X52333398Y-36619033D01*
X52426307Y-36686534D01*
X51641717Y-37471124D01*
X51707846Y-37529117D01*
X51707858Y-37529126D01*
X51947643Y-37689346D01*
X52206292Y-37816896D01*
X52479371Y-37909594D01*
X52762224Y-37965857D01*
X53050000Y-37984719D01*
X53337775Y-37965857D01*
X53620628Y-37909594D01*
X53893707Y-37816896D01*
X54152356Y-37689346D01*
X54392152Y-37529119D01*
X54458280Y-37471125D01*
X54458281Y-37471124D01*
X53673692Y-36686535D01*
X53766602Y-36619033D01*
X53889033Y-36496602D01*
X53956535Y-36403691D01*
X54741124Y-37188281D01*
X54741125Y-37188280D01*
X54799119Y-37122152D01*
X54959346Y-36882356D01*
X55086896Y-36623707D01*
X55179594Y-36350628D01*
X55235857Y-36067775D01*
X55254719Y-35780000D01*
X55235857Y-35492224D01*
X55179594Y-35209371D01*
X55086896Y-34936292D01*
X54959346Y-34677643D01*
X54799126Y-34437858D01*
X54799117Y-34437846D01*
X54741123Y-34371717D01*
X53956534Y-35156306D01*
X53889033Y-35063398D01*
X53766602Y-34940967D01*
X53673691Y-34873463D01*
X54458280Y-34088875D01*
X54392144Y-34030876D01*
X54392141Y-34030873D01*
X54152356Y-33870653D01*
X53893707Y-33743103D01*
X53620628Y-33650405D01*
X53337775Y-33594142D01*
X53094260Y-33578181D01*
X53052486Y-33564000D01*
X53005740Y-33578181D01*
X52762224Y-33594142D01*
X52479371Y-33650405D01*
X52206292Y-33743103D01*
X51947643Y-33870653D01*
X51707847Y-34030881D01*
X51641718Y-34088874D01*
X51641718Y-34088875D01*
X52426307Y-34873464D01*
X52333398Y-34940967D01*
X52210967Y-35063398D01*
X52143464Y-35156307D01*
X51358875Y-34371718D01*
X51358874Y-34371718D01*
X51300881Y-34437847D01*
X51140653Y-34677643D01*
X51013103Y-34936292D01*
X50920405Y-35209371D01*
X50864142Y-35492224D01*
X50845280Y-35780000D01*
X41854719Y-35780000D01*
X41835857Y-35492224D01*
X41779594Y-35209371D01*
X41686896Y-34936292D01*
X41559346Y-34677643D01*
X41399126Y-34437858D01*
X41399117Y-34437846D01*
X41341123Y-34371717D01*
X40556534Y-35156306D01*
X40489033Y-35063398D01*
X40366602Y-34940967D01*
X40273691Y-34873463D01*
X41058280Y-34088875D01*
X40992144Y-34030876D01*
X40992141Y-34030873D01*
X40752356Y-33870653D01*
X40493707Y-33743103D01*
X40220628Y-33650405D01*
X39937775Y-33594142D01*
X39694260Y-33578181D01*
X39652486Y-33564000D01*
X39605740Y-33578181D01*
X39362224Y-33594142D01*
X39079371Y-33650405D01*
X38806292Y-33743103D01*
X38547643Y-33870653D01*
X38307847Y-34030881D01*
X38241718Y-34088874D01*
X38241718Y-34088875D01*
X39026307Y-34873464D01*
X38933398Y-34940967D01*
X38810967Y-35063398D01*
X38743464Y-35156307D01*
X37958875Y-34371718D01*
X37958874Y-34371718D01*
X37900883Y-34437844D01*
X37823389Y-34553822D01*
X37765400Y-34604675D01*
X37689754Y-34619722D01*
X37616719Y-34594930D01*
X37565866Y-34536941D01*
X37550500Y-34471041D01*
X37550500Y-33429500D01*
X37570462Y-33355000D01*
X37625000Y-33300462D01*
X37699500Y-33280500D01*
X39595995Y-33280500D01*
X39646251Y-33293966D01*
G37*
%TD.AperFunction*%
%TA.AperFunction,Conductor*%
G36*
X74631978Y-81227890D02*
G01*
X74703112Y-81334351D01*
X74793649Y-81424888D01*
X74900110Y-81496022D01*
X74910511Y-81500330D01*
X74440938Y-81969904D01*
X74495982Y-82008447D01*
X74545559Y-82067530D01*
X74558952Y-82143487D01*
X74532572Y-82215963D01*
X74473489Y-82265540D01*
X74410519Y-82279500D01*
X73465481Y-82279500D01*
X73390981Y-82259538D01*
X73336443Y-82205000D01*
X73316481Y-82130500D01*
X73336443Y-82056000D01*
X73380017Y-82008447D01*
X73435061Y-81969904D01*
X72965487Y-81500330D01*
X72975890Y-81496022D01*
X73082351Y-81424888D01*
X73172888Y-81334351D01*
X73244022Y-81227890D01*
X73248330Y-81217487D01*
X73717904Y-81687061D01*
X73798129Y-81572488D01*
X73798137Y-81572474D01*
X73802960Y-81562133D01*
X73852536Y-81503049D01*
X73925013Y-81476669D01*
X74000969Y-81490062D01*
X74060053Y-81539638D01*
X74073040Y-81562133D01*
X74077864Y-81572479D01*
X74077872Y-81572492D01*
X74158094Y-81687060D01*
X74627668Y-81217486D01*
X74631978Y-81227890D01*
G37*
%TD.AperFunction*%
%TA.AperFunction,Conductor*%
G36*
X77171978Y-81227890D02*
G01*
X77243112Y-81334351D01*
X77333649Y-81424888D01*
X77440110Y-81496022D01*
X77450511Y-81500330D01*
X76980938Y-81969904D01*
X77035982Y-82008447D01*
X77085559Y-82067530D01*
X77098952Y-82143487D01*
X77072572Y-82215963D01*
X77013489Y-82265540D01*
X76950519Y-82279500D01*
X76005481Y-82279500D01*
X75930981Y-82259538D01*
X75876443Y-82205000D01*
X75856481Y-82130500D01*
X75876443Y-82056000D01*
X75920017Y-82008447D01*
X75975061Y-81969904D01*
X75505487Y-81500330D01*
X75515890Y-81496022D01*
X75622351Y-81424888D01*
X75712888Y-81334351D01*
X75784022Y-81227890D01*
X75788330Y-81217487D01*
X76257904Y-81687061D01*
X76338129Y-81572488D01*
X76338137Y-81572474D01*
X76342960Y-81562133D01*
X76392536Y-81503049D01*
X76465013Y-81476669D01*
X76540969Y-81490062D01*
X76600053Y-81539638D01*
X76613040Y-81562133D01*
X76617864Y-81572479D01*
X76617872Y-81572492D01*
X76698094Y-81687060D01*
X77167668Y-81217486D01*
X77171978Y-81227890D01*
G37*
%TD.AperFunction*%
%TA.AperFunction,Conductor*%
G36*
X79711978Y-81227890D02*
G01*
X79783112Y-81334351D01*
X79873649Y-81424888D01*
X79980110Y-81496022D01*
X79990511Y-81500330D01*
X79520938Y-81969904D01*
X79575982Y-82008447D01*
X79625559Y-82067530D01*
X79638952Y-82143487D01*
X79612572Y-82215963D01*
X79553489Y-82265540D01*
X79490519Y-82279500D01*
X78545481Y-82279500D01*
X78470981Y-82259538D01*
X78416443Y-82205000D01*
X78396481Y-82130500D01*
X78416443Y-82056000D01*
X78460017Y-82008447D01*
X78515061Y-81969904D01*
X78045487Y-81500330D01*
X78055890Y-81496022D01*
X78162351Y-81424888D01*
X78252888Y-81334351D01*
X78324022Y-81227890D01*
X78328330Y-81217487D01*
X78797904Y-81687061D01*
X78878129Y-81572488D01*
X78878137Y-81572474D01*
X78882960Y-81562133D01*
X78932536Y-81503049D01*
X79005013Y-81476669D01*
X79080969Y-81490062D01*
X79140053Y-81539638D01*
X79153040Y-81562133D01*
X79157864Y-81572479D01*
X79157872Y-81572492D01*
X79238094Y-81687060D01*
X79707668Y-81217486D01*
X79711978Y-81227890D01*
G37*
%TD.AperFunction*%
%TA.AperFunction,Conductor*%
G36*
X74631978Y-78687890D02*
G01*
X74703112Y-78794351D01*
X74793649Y-78884888D01*
X74900110Y-78956022D01*
X74910511Y-78960330D01*
X74440938Y-79429904D01*
X74555507Y-79510127D01*
X74555520Y-79510135D01*
X74565865Y-79514959D01*
X74624949Y-79564535D01*
X74651329Y-79637012D01*
X74637936Y-79712968D01*
X74588360Y-79772052D01*
X74565872Y-79785036D01*
X74555527Y-79789860D01*
X74555517Y-79789865D01*
X74440938Y-79870095D01*
X74910512Y-80339669D01*
X74900110Y-80343978D01*
X74793649Y-80415112D01*
X74703112Y-80505649D01*
X74631978Y-80612110D01*
X74627669Y-80622512D01*
X74158095Y-80152938D01*
X74077865Y-80267517D01*
X74077860Y-80267527D01*
X74073036Y-80277872D01*
X74023457Y-80336953D01*
X73950979Y-80363330D01*
X73875023Y-80349933D01*
X73815942Y-80300354D01*
X73802959Y-80277865D01*
X73798135Y-80267520D01*
X73798127Y-80267507D01*
X73717904Y-80152938D01*
X73248330Y-80622511D01*
X73244022Y-80612110D01*
X73172888Y-80505649D01*
X73082351Y-80415112D01*
X72975890Y-80343978D01*
X72965486Y-80339668D01*
X73435061Y-79870094D01*
X73320492Y-79789872D01*
X73320479Y-79789864D01*
X73310133Y-79785040D01*
X73251049Y-79735464D01*
X73224669Y-79662987D01*
X73238062Y-79587031D01*
X73287638Y-79527947D01*
X73310133Y-79514960D01*
X73320474Y-79510137D01*
X73320488Y-79510129D01*
X73435061Y-79429904D01*
X72965487Y-78960330D01*
X72975890Y-78956022D01*
X73082351Y-78884888D01*
X73172888Y-78794351D01*
X73244022Y-78687890D01*
X73248330Y-78677487D01*
X73717904Y-79147061D01*
X73798129Y-79032488D01*
X73798137Y-79032474D01*
X73802960Y-79022133D01*
X73852536Y-78963049D01*
X73925013Y-78936669D01*
X74000969Y-78950062D01*
X74060053Y-78999638D01*
X74073040Y-79022133D01*
X74077864Y-79032479D01*
X74077872Y-79032492D01*
X74158094Y-79147060D01*
X74627668Y-78677486D01*
X74631978Y-78687890D01*
G37*
%TD.AperFunction*%
%TA.AperFunction,Conductor*%
G36*
X77171978Y-78687890D02*
G01*
X77243112Y-78794351D01*
X77333649Y-78884888D01*
X77440110Y-78956022D01*
X77450511Y-78960330D01*
X76980938Y-79429904D01*
X77095507Y-79510127D01*
X77095520Y-79510135D01*
X77105865Y-79514959D01*
X77164949Y-79564535D01*
X77191329Y-79637012D01*
X77177936Y-79712968D01*
X77128360Y-79772052D01*
X77105872Y-79785036D01*
X77095527Y-79789860D01*
X77095517Y-79789865D01*
X76980938Y-79870095D01*
X77450512Y-80339669D01*
X77440110Y-80343978D01*
X77333649Y-80415112D01*
X77243112Y-80505649D01*
X77171978Y-80612110D01*
X77167669Y-80622512D01*
X76698095Y-80152938D01*
X76617865Y-80267517D01*
X76617860Y-80267527D01*
X76613036Y-80277872D01*
X76563457Y-80336953D01*
X76490979Y-80363330D01*
X76415023Y-80349933D01*
X76355942Y-80300354D01*
X76342959Y-80277865D01*
X76338135Y-80267520D01*
X76338127Y-80267507D01*
X76257904Y-80152938D01*
X75788330Y-80622511D01*
X75784022Y-80612110D01*
X75712888Y-80505649D01*
X75622351Y-80415112D01*
X75515890Y-80343978D01*
X75505486Y-80339668D01*
X75975061Y-79870094D01*
X75860492Y-79789872D01*
X75860479Y-79789864D01*
X75850133Y-79785040D01*
X75791049Y-79735464D01*
X75764669Y-79662987D01*
X75778062Y-79587031D01*
X75827638Y-79527947D01*
X75850133Y-79514960D01*
X75860474Y-79510137D01*
X75860488Y-79510129D01*
X75975061Y-79429904D01*
X75505487Y-78960330D01*
X75515890Y-78956022D01*
X75622351Y-78884888D01*
X75712888Y-78794351D01*
X75784022Y-78687890D01*
X75788330Y-78677487D01*
X76257904Y-79147061D01*
X76338129Y-79032488D01*
X76338137Y-79032474D01*
X76342960Y-79022133D01*
X76392536Y-78963049D01*
X76465013Y-78936669D01*
X76540969Y-78950062D01*
X76600053Y-78999638D01*
X76613040Y-79022133D01*
X76617864Y-79032479D01*
X76617872Y-79032492D01*
X76698094Y-79147060D01*
X77167668Y-78677486D01*
X77171978Y-78687890D01*
G37*
%TD.AperFunction*%
%TA.AperFunction,Conductor*%
G36*
X79711978Y-78687890D02*
G01*
X79783112Y-78794351D01*
X79873649Y-78884888D01*
X79980110Y-78956022D01*
X79990511Y-78960330D01*
X79520938Y-79429904D01*
X79635507Y-79510127D01*
X79635520Y-79510135D01*
X79645865Y-79514959D01*
X79704949Y-79564535D01*
X79731329Y-79637012D01*
X79717936Y-79712968D01*
X79668360Y-79772052D01*
X79645872Y-79785036D01*
X79635527Y-79789860D01*
X79635517Y-79789865D01*
X79520938Y-79870095D01*
X79990512Y-80339669D01*
X79980110Y-80343978D01*
X79873649Y-80415112D01*
X79783112Y-80505649D01*
X79711978Y-80612110D01*
X79707669Y-80622512D01*
X79238095Y-80152938D01*
X79157865Y-80267517D01*
X79157860Y-80267527D01*
X79153036Y-80277872D01*
X79103457Y-80336953D01*
X79030979Y-80363330D01*
X78955023Y-80349933D01*
X78895942Y-80300354D01*
X78882959Y-80277865D01*
X78878135Y-80267520D01*
X78878127Y-80267507D01*
X78797904Y-80152938D01*
X78328330Y-80622511D01*
X78324022Y-80612110D01*
X78252888Y-80505649D01*
X78162351Y-80415112D01*
X78055890Y-80343978D01*
X78045486Y-80339668D01*
X78515061Y-79870094D01*
X78400492Y-79789872D01*
X78400479Y-79789864D01*
X78390133Y-79785040D01*
X78331049Y-79735464D01*
X78304669Y-79662987D01*
X78318062Y-79587031D01*
X78367638Y-79527947D01*
X78390133Y-79514960D01*
X78400474Y-79510137D01*
X78400488Y-79510129D01*
X78515061Y-79429904D01*
X78045487Y-78960330D01*
X78055890Y-78956022D01*
X78162351Y-78884888D01*
X78252888Y-78794351D01*
X78324022Y-78687890D01*
X78328330Y-78677487D01*
X78797904Y-79147061D01*
X78878129Y-79032488D01*
X78878137Y-79032474D01*
X78882960Y-79022133D01*
X78932536Y-78963049D01*
X79005013Y-78936669D01*
X79080969Y-78950062D01*
X79140053Y-78999638D01*
X79153040Y-79022133D01*
X79157864Y-79032479D01*
X79157872Y-79032492D01*
X79238094Y-79147060D01*
X79707668Y-78677486D01*
X79711978Y-78687890D01*
G37*
%TD.AperFunction*%
%TA.AperFunction,Conductor*%
G36*
X74631978Y-34987890D02*
G01*
X74703112Y-35094351D01*
X74793649Y-35184888D01*
X74900110Y-35256022D01*
X74910511Y-35260330D01*
X74440938Y-35729904D01*
X74555507Y-35810127D01*
X74555520Y-35810135D01*
X74565865Y-35814959D01*
X74624949Y-35864535D01*
X74651329Y-35937012D01*
X74637936Y-36012968D01*
X74588360Y-36072052D01*
X74565872Y-36085036D01*
X74555527Y-36089860D01*
X74555517Y-36089865D01*
X74440938Y-36170095D01*
X74910512Y-36639669D01*
X74900110Y-36643978D01*
X74793649Y-36715112D01*
X74703112Y-36805649D01*
X74631978Y-36912110D01*
X74627669Y-36922512D01*
X74158095Y-36452938D01*
X74077865Y-36567517D01*
X74077860Y-36567527D01*
X74073036Y-36577872D01*
X74023457Y-36636953D01*
X73950979Y-36663330D01*
X73875023Y-36649933D01*
X73815942Y-36600354D01*
X73802959Y-36577865D01*
X73798135Y-36567520D01*
X73798127Y-36567507D01*
X73717904Y-36452938D01*
X73248330Y-36922511D01*
X73244022Y-36912110D01*
X73172888Y-36805649D01*
X73082351Y-36715112D01*
X72975890Y-36643978D01*
X72965486Y-36639668D01*
X73435061Y-36170094D01*
X73320492Y-36089872D01*
X73320479Y-36089864D01*
X73310133Y-36085040D01*
X73251049Y-36035464D01*
X73224669Y-35962987D01*
X73238062Y-35887031D01*
X73287638Y-35827947D01*
X73310133Y-35814960D01*
X73320474Y-35810137D01*
X73320488Y-35810129D01*
X73435061Y-35729904D01*
X72965487Y-35260330D01*
X72975890Y-35256022D01*
X73082351Y-35184888D01*
X73172888Y-35094351D01*
X73244022Y-34987890D01*
X73248330Y-34977487D01*
X73717904Y-35447061D01*
X73798129Y-35332488D01*
X73798137Y-35332474D01*
X73802960Y-35322133D01*
X73852536Y-35263049D01*
X73925013Y-35236669D01*
X74000969Y-35250062D01*
X74060053Y-35299638D01*
X74073040Y-35322133D01*
X74077864Y-35332479D01*
X74077872Y-35332492D01*
X74158094Y-35447060D01*
X74627668Y-34977486D01*
X74631978Y-34987890D01*
G37*
%TD.AperFunction*%
%TA.AperFunction,Conductor*%
G36*
X77171978Y-34987890D02*
G01*
X77243112Y-35094351D01*
X77333649Y-35184888D01*
X77440110Y-35256022D01*
X77450511Y-35260330D01*
X76980938Y-35729904D01*
X77095507Y-35810127D01*
X77095520Y-35810135D01*
X77105865Y-35814959D01*
X77164949Y-35864535D01*
X77191329Y-35937012D01*
X77177936Y-36012968D01*
X77128360Y-36072052D01*
X77105872Y-36085036D01*
X77095527Y-36089860D01*
X77095517Y-36089865D01*
X76980938Y-36170095D01*
X77450512Y-36639669D01*
X77440110Y-36643978D01*
X77333649Y-36715112D01*
X77243112Y-36805649D01*
X77171978Y-36912110D01*
X77167669Y-36922512D01*
X76698095Y-36452938D01*
X76617865Y-36567517D01*
X76617860Y-36567527D01*
X76613036Y-36577872D01*
X76563457Y-36636953D01*
X76490979Y-36663330D01*
X76415023Y-36649933D01*
X76355942Y-36600354D01*
X76342959Y-36577865D01*
X76338135Y-36567520D01*
X76338127Y-36567507D01*
X76257904Y-36452938D01*
X75788330Y-36922511D01*
X75784022Y-36912110D01*
X75712888Y-36805649D01*
X75622351Y-36715112D01*
X75515890Y-36643978D01*
X75505486Y-36639668D01*
X75975061Y-36170094D01*
X75860492Y-36089872D01*
X75860479Y-36089864D01*
X75850133Y-36085040D01*
X75791049Y-36035464D01*
X75764669Y-35962987D01*
X75778062Y-35887031D01*
X75827638Y-35827947D01*
X75850133Y-35814960D01*
X75860474Y-35810137D01*
X75860488Y-35810129D01*
X75975061Y-35729904D01*
X75505487Y-35260330D01*
X75515890Y-35256022D01*
X75622351Y-35184888D01*
X75712888Y-35094351D01*
X75784022Y-34987890D01*
X75788330Y-34977487D01*
X76257904Y-35447061D01*
X76338129Y-35332488D01*
X76338137Y-35332474D01*
X76342960Y-35322133D01*
X76392536Y-35263049D01*
X76465013Y-35236669D01*
X76540969Y-35250062D01*
X76600053Y-35299638D01*
X76613040Y-35322133D01*
X76617864Y-35332479D01*
X76617872Y-35332492D01*
X76698094Y-35447060D01*
X77167668Y-34977486D01*
X77171978Y-34987890D01*
G37*
%TD.AperFunction*%
%TA.AperFunction,Conductor*%
G36*
X79711978Y-34987890D02*
G01*
X79783112Y-35094351D01*
X79873649Y-35184888D01*
X79980110Y-35256022D01*
X79990511Y-35260330D01*
X79520938Y-35729904D01*
X79635507Y-35810127D01*
X79635520Y-35810135D01*
X79645865Y-35814959D01*
X79704949Y-35864535D01*
X79731329Y-35937012D01*
X79717936Y-36012968D01*
X79668360Y-36072052D01*
X79645872Y-36085036D01*
X79635527Y-36089860D01*
X79635517Y-36089865D01*
X79520938Y-36170095D01*
X79990512Y-36639669D01*
X79980110Y-36643978D01*
X79873649Y-36715112D01*
X79783112Y-36805649D01*
X79711978Y-36912110D01*
X79707669Y-36922512D01*
X79238095Y-36452938D01*
X79157865Y-36567517D01*
X79157860Y-36567527D01*
X79153036Y-36577872D01*
X79103457Y-36636953D01*
X79030979Y-36663330D01*
X78955023Y-36649933D01*
X78895942Y-36600354D01*
X78882959Y-36577865D01*
X78878135Y-36567520D01*
X78878127Y-36567507D01*
X78797904Y-36452938D01*
X78328330Y-36922511D01*
X78324022Y-36912110D01*
X78252888Y-36805649D01*
X78162351Y-36715112D01*
X78055890Y-36643978D01*
X78045486Y-36639668D01*
X78515061Y-36170094D01*
X78400492Y-36089872D01*
X78400479Y-36089864D01*
X78390133Y-36085040D01*
X78331049Y-36035464D01*
X78304669Y-35962987D01*
X78318062Y-35887031D01*
X78367638Y-35827947D01*
X78390133Y-35814960D01*
X78400474Y-35810137D01*
X78400488Y-35810129D01*
X78515061Y-35729904D01*
X78045487Y-35260330D01*
X78055890Y-35256022D01*
X78162351Y-35184888D01*
X78252888Y-35094351D01*
X78324022Y-34987890D01*
X78328330Y-34977487D01*
X78797904Y-35447061D01*
X78878129Y-35332488D01*
X78878137Y-35332474D01*
X78882960Y-35322133D01*
X78932536Y-35263049D01*
X79005013Y-35236669D01*
X79080969Y-35250062D01*
X79140053Y-35299638D01*
X79153040Y-35322133D01*
X79157864Y-35332479D01*
X79157872Y-35332492D01*
X79238094Y-35447060D01*
X79707668Y-34977486D01*
X79711978Y-34987890D01*
G37*
%TD.AperFunction*%
%TA.AperFunction,Conductor*%
G36*
X113386978Y-34987890D02*
G01*
X113458112Y-35094351D01*
X113548649Y-35184888D01*
X113655110Y-35256022D01*
X113665511Y-35260330D01*
X113195938Y-35729904D01*
X113310507Y-35810127D01*
X113310520Y-35810135D01*
X113320865Y-35814959D01*
X113379949Y-35864535D01*
X113406329Y-35937012D01*
X113392936Y-36012968D01*
X113343360Y-36072052D01*
X113320872Y-36085036D01*
X113310527Y-36089860D01*
X113310517Y-36089865D01*
X113195938Y-36170095D01*
X113665512Y-36639669D01*
X113655110Y-36643978D01*
X113548649Y-36715112D01*
X113458112Y-36805649D01*
X113386978Y-36912110D01*
X113382669Y-36922512D01*
X112913095Y-36452938D01*
X112832865Y-36567517D01*
X112832860Y-36567527D01*
X112828036Y-36577872D01*
X112778457Y-36636953D01*
X112705979Y-36663330D01*
X112630023Y-36649933D01*
X112570942Y-36600354D01*
X112557959Y-36577865D01*
X112553135Y-36567520D01*
X112553127Y-36567507D01*
X112472904Y-36452938D01*
X112003330Y-36922511D01*
X111999022Y-36912110D01*
X111927888Y-36805649D01*
X111837351Y-36715112D01*
X111730890Y-36643978D01*
X111720486Y-36639668D01*
X112190061Y-36170094D01*
X112075492Y-36089872D01*
X112075479Y-36089864D01*
X112065133Y-36085040D01*
X112006049Y-36035464D01*
X111979669Y-35962987D01*
X111993062Y-35887031D01*
X112042638Y-35827947D01*
X112065133Y-35814960D01*
X112075474Y-35810137D01*
X112075488Y-35810129D01*
X112190061Y-35729904D01*
X111720487Y-35260330D01*
X111730890Y-35256022D01*
X111837351Y-35184888D01*
X111927888Y-35094351D01*
X111999022Y-34987890D01*
X112003330Y-34977487D01*
X112472904Y-35447061D01*
X112553129Y-35332488D01*
X112553137Y-35332474D01*
X112557960Y-35322133D01*
X112607536Y-35263049D01*
X112680013Y-35236669D01*
X112755969Y-35250062D01*
X112815053Y-35299638D01*
X112828040Y-35322133D01*
X112832864Y-35332479D01*
X112832872Y-35332492D01*
X112913094Y-35447060D01*
X113382668Y-34977486D01*
X113386978Y-34987890D01*
G37*
%TD.AperFunction*%
%TA.AperFunction,Conductor*%
G36*
X115926978Y-34967890D02*
G01*
X115998112Y-35074351D01*
X116088649Y-35164888D01*
X116195110Y-35236022D01*
X116205511Y-35240330D01*
X115735938Y-35709904D01*
X115850507Y-35790127D01*
X115850520Y-35790135D01*
X115860865Y-35794959D01*
X115919949Y-35844535D01*
X115946329Y-35917012D01*
X115932936Y-35992968D01*
X115883360Y-36052052D01*
X115860872Y-36065036D01*
X115850527Y-36069860D01*
X115850517Y-36069865D01*
X115735938Y-36150095D01*
X116205512Y-36619669D01*
X116195110Y-36623978D01*
X116088649Y-36695112D01*
X115998112Y-36785649D01*
X115926978Y-36892110D01*
X115922669Y-36902512D01*
X115453095Y-36432938D01*
X115372865Y-36547517D01*
X115372858Y-36547529D01*
X115363374Y-36567869D01*
X115313796Y-36626952D01*
X115241319Y-36653329D01*
X115165363Y-36639934D01*
X115106280Y-36590356D01*
X115093295Y-36567864D01*
X115093132Y-36567515D01*
X115093127Y-36567507D01*
X115012904Y-36452938D01*
X114543330Y-36922511D01*
X114539022Y-36912110D01*
X114467888Y-36805649D01*
X114377351Y-36715112D01*
X114270890Y-36643978D01*
X114260486Y-36639668D01*
X114730061Y-36170094D01*
X114615492Y-36089872D01*
X114615479Y-36089864D01*
X114605133Y-36085040D01*
X114546049Y-36035464D01*
X114519669Y-35962987D01*
X114533062Y-35887031D01*
X114582638Y-35827947D01*
X114605133Y-35814960D01*
X114615474Y-35810137D01*
X114615488Y-35810129D01*
X114730061Y-35729904D01*
X114260487Y-35260330D01*
X114270890Y-35256022D01*
X114377351Y-35184888D01*
X114467888Y-35094351D01*
X114539022Y-34987890D01*
X114543330Y-34977487D01*
X115012904Y-35447061D01*
X115093129Y-35332488D01*
X115093137Y-35332474D01*
X115102623Y-35312133D01*
X115152199Y-35253049D01*
X115224676Y-35226669D01*
X115300632Y-35240062D01*
X115359716Y-35289638D01*
X115372703Y-35312132D01*
X115372866Y-35312483D01*
X115372872Y-35312492D01*
X115453094Y-35427060D01*
X115922668Y-34957486D01*
X115926978Y-34967890D01*
G37*
%TD.AperFunction*%
%TA.AperFunction,Conductor*%
G36*
X118466978Y-34967890D02*
G01*
X118538112Y-35074351D01*
X118628649Y-35164888D01*
X118735110Y-35236022D01*
X118745511Y-35240330D01*
X118275938Y-35709904D01*
X118390507Y-35790127D01*
X118390520Y-35790135D01*
X118400865Y-35794959D01*
X118459949Y-35844535D01*
X118486329Y-35917012D01*
X118472936Y-35992968D01*
X118423360Y-36052052D01*
X118400872Y-36065036D01*
X118390527Y-36069860D01*
X118390517Y-36069865D01*
X118275938Y-36150095D01*
X118745512Y-36619669D01*
X118735110Y-36623978D01*
X118628649Y-36695112D01*
X118538112Y-36785649D01*
X118466978Y-36892110D01*
X118462669Y-36902512D01*
X117993095Y-36432938D01*
X117912865Y-36547517D01*
X117912860Y-36547527D01*
X117908036Y-36557872D01*
X117858457Y-36616953D01*
X117785979Y-36643330D01*
X117710023Y-36629933D01*
X117650942Y-36580354D01*
X117637959Y-36557865D01*
X117633135Y-36547520D01*
X117633127Y-36547507D01*
X117552904Y-36432938D01*
X117083330Y-36902511D01*
X117079022Y-36892110D01*
X117007888Y-36785649D01*
X116917351Y-36695112D01*
X116810890Y-36623978D01*
X116800486Y-36619668D01*
X117270060Y-36150094D01*
X117155492Y-36069872D01*
X117155479Y-36069864D01*
X117145133Y-36065040D01*
X117086049Y-36015464D01*
X117059669Y-35942987D01*
X117073062Y-35867031D01*
X117122638Y-35807947D01*
X117145133Y-35794960D01*
X117155474Y-35790137D01*
X117155488Y-35790129D01*
X117270061Y-35709904D01*
X116800487Y-35240330D01*
X116810890Y-35236022D01*
X116917351Y-35164888D01*
X117007888Y-35074351D01*
X117079022Y-34967890D01*
X117083330Y-34957487D01*
X117552904Y-35427061D01*
X117633129Y-35312488D01*
X117633137Y-35312474D01*
X117637960Y-35302133D01*
X117687536Y-35243049D01*
X117760013Y-35216669D01*
X117835969Y-35230062D01*
X117895053Y-35279638D01*
X117908040Y-35302133D01*
X117912864Y-35312479D01*
X117912872Y-35312492D01*
X117993094Y-35427060D01*
X118462668Y-34957486D01*
X118466978Y-34967890D01*
G37*
%TD.AperFunction*%
%TA.AperFunction,Conductor*%
G36*
X134966978Y-34967890D02*
G01*
X135038112Y-35074351D01*
X135128649Y-35164888D01*
X135235110Y-35236022D01*
X135245511Y-35240330D01*
X134775938Y-35709904D01*
X134890507Y-35790127D01*
X134890520Y-35790135D01*
X134900865Y-35794959D01*
X134959949Y-35844535D01*
X134986329Y-35917012D01*
X134972936Y-35992968D01*
X134923360Y-36052052D01*
X134900872Y-36065036D01*
X134890527Y-36069860D01*
X134890517Y-36069865D01*
X134775938Y-36150095D01*
X135245512Y-36619669D01*
X135235110Y-36623978D01*
X135128649Y-36695112D01*
X135038112Y-36785649D01*
X134966978Y-36892110D01*
X134962669Y-36902512D01*
X134493095Y-36432938D01*
X134412865Y-36547517D01*
X134412860Y-36547527D01*
X134408036Y-36557872D01*
X134358457Y-36616953D01*
X134285979Y-36643330D01*
X134210023Y-36629933D01*
X134150942Y-36580354D01*
X134137959Y-36557865D01*
X134133135Y-36547520D01*
X134133127Y-36547507D01*
X134052904Y-36432938D01*
X133583330Y-36902511D01*
X133579022Y-36892110D01*
X133507888Y-36785649D01*
X133417351Y-36695112D01*
X133310890Y-36623978D01*
X133300486Y-36619668D01*
X133770060Y-36150094D01*
X133655492Y-36069872D01*
X133655479Y-36069864D01*
X133645133Y-36065040D01*
X133586049Y-36015464D01*
X133559669Y-35942987D01*
X133573062Y-35867031D01*
X133622638Y-35807947D01*
X133645133Y-35794960D01*
X133655474Y-35790137D01*
X133655488Y-35790129D01*
X133770061Y-35709904D01*
X133300487Y-35240330D01*
X133310890Y-35236022D01*
X133417351Y-35164888D01*
X133507888Y-35074351D01*
X133579022Y-34967890D01*
X133583330Y-34957487D01*
X134052904Y-35427061D01*
X134133129Y-35312488D01*
X134133137Y-35312474D01*
X134137960Y-35302133D01*
X134187536Y-35243049D01*
X134260013Y-35216669D01*
X134335969Y-35230062D01*
X134395053Y-35279638D01*
X134408040Y-35302133D01*
X134412864Y-35312479D01*
X134412872Y-35312492D01*
X134493094Y-35427060D01*
X134962668Y-34957486D01*
X134966978Y-34967890D01*
G37*
%TD.AperFunction*%
%TA.AperFunction,Conductor*%
G36*
X137506978Y-34967890D02*
G01*
X137578112Y-35074351D01*
X137668649Y-35164888D01*
X137775110Y-35236022D01*
X137785511Y-35240330D01*
X137315938Y-35709904D01*
X137430507Y-35790127D01*
X137430520Y-35790135D01*
X137440865Y-35794959D01*
X137499949Y-35844535D01*
X137526329Y-35917012D01*
X137512936Y-35992968D01*
X137463360Y-36052052D01*
X137440872Y-36065036D01*
X137430527Y-36069860D01*
X137430517Y-36069865D01*
X137315938Y-36150095D01*
X137785512Y-36619669D01*
X137775110Y-36623978D01*
X137668649Y-36695112D01*
X137578112Y-36785649D01*
X137506978Y-36892110D01*
X137502669Y-36902512D01*
X137033095Y-36432938D01*
X136952865Y-36547517D01*
X136952860Y-36547527D01*
X136948036Y-36557872D01*
X136898457Y-36616953D01*
X136825979Y-36643330D01*
X136750023Y-36629933D01*
X136690942Y-36580354D01*
X136677959Y-36557865D01*
X136673135Y-36547520D01*
X136673127Y-36547507D01*
X136592904Y-36432938D01*
X136123330Y-36902511D01*
X136119022Y-36892110D01*
X136047888Y-36785649D01*
X135957351Y-36695112D01*
X135850890Y-36623978D01*
X135840486Y-36619668D01*
X136310060Y-36150094D01*
X136195492Y-36069872D01*
X136195479Y-36069864D01*
X136185133Y-36065040D01*
X136126049Y-36015464D01*
X136099669Y-35942987D01*
X136113062Y-35867031D01*
X136162638Y-35807947D01*
X136185133Y-35794960D01*
X136195474Y-35790137D01*
X136195488Y-35790129D01*
X136310061Y-35709904D01*
X135840487Y-35240330D01*
X135850890Y-35236022D01*
X135957351Y-35164888D01*
X136047888Y-35074351D01*
X136119022Y-34967890D01*
X136123330Y-34957487D01*
X136592904Y-35427061D01*
X136673129Y-35312488D01*
X136673137Y-35312474D01*
X136677960Y-35302133D01*
X136727536Y-35243049D01*
X136800013Y-35216669D01*
X136875969Y-35230062D01*
X136935053Y-35279638D01*
X136948040Y-35302133D01*
X136952864Y-35312479D01*
X136952872Y-35312492D01*
X137033094Y-35427060D01*
X137502668Y-34957486D01*
X137506978Y-34967890D01*
G37*
%TD.AperFunction*%
%TA.AperFunction,Conductor*%
G36*
X74542144Y-33300462D02*
G01*
X74596682Y-33355000D01*
X74616644Y-33429500D01*
X74596682Y-33504000D01*
X74553107Y-33551554D01*
X74440938Y-33630095D01*
X74910512Y-34099669D01*
X74900110Y-34103978D01*
X74793649Y-34175112D01*
X74703112Y-34265649D01*
X74631978Y-34372110D01*
X74627669Y-34382512D01*
X74158095Y-33912938D01*
X74077865Y-34027517D01*
X74077860Y-34027527D01*
X74073036Y-34037872D01*
X74023457Y-34096953D01*
X73950979Y-34123330D01*
X73875023Y-34109933D01*
X73815942Y-34060354D01*
X73802959Y-34037865D01*
X73798135Y-34027520D01*
X73798127Y-34027507D01*
X73717904Y-33912938D01*
X73248330Y-34382511D01*
X73244022Y-34372110D01*
X73172888Y-34265649D01*
X73082351Y-34175112D01*
X72975890Y-34103978D01*
X72965486Y-34099668D01*
X73435061Y-33630094D01*
X73322893Y-33551553D01*
X73273316Y-33492470D01*
X73259923Y-33416513D01*
X73286303Y-33344037D01*
X73345386Y-33294460D01*
X73408356Y-33280500D01*
X74467644Y-33280500D01*
X74542144Y-33300462D01*
G37*
%TD.AperFunction*%
%TA.AperFunction,Conductor*%
G36*
X77082144Y-33300462D02*
G01*
X77136682Y-33355000D01*
X77156644Y-33429500D01*
X77136682Y-33504000D01*
X77093107Y-33551554D01*
X76980938Y-33630095D01*
X77450512Y-34099669D01*
X77440110Y-34103978D01*
X77333649Y-34175112D01*
X77243112Y-34265649D01*
X77171978Y-34372110D01*
X77167669Y-34382512D01*
X76698095Y-33912938D01*
X76617865Y-34027517D01*
X76617860Y-34027527D01*
X76613036Y-34037872D01*
X76563457Y-34096953D01*
X76490979Y-34123330D01*
X76415023Y-34109933D01*
X76355942Y-34060354D01*
X76342959Y-34037865D01*
X76338135Y-34027520D01*
X76338127Y-34027507D01*
X76257904Y-33912938D01*
X75788330Y-34382511D01*
X75784022Y-34372110D01*
X75712888Y-34265649D01*
X75622351Y-34175112D01*
X75515890Y-34103978D01*
X75505486Y-34099668D01*
X75975060Y-33630094D01*
X75862893Y-33551553D01*
X75813316Y-33492470D01*
X75799923Y-33416513D01*
X75826303Y-33344037D01*
X75885386Y-33294460D01*
X75948356Y-33280500D01*
X77007644Y-33280500D01*
X77082144Y-33300462D01*
G37*
%TD.AperFunction*%
%TA.AperFunction,Conductor*%
G36*
X79622144Y-33300462D02*
G01*
X79676682Y-33355000D01*
X79696644Y-33429500D01*
X79676682Y-33504000D01*
X79633107Y-33551554D01*
X79520938Y-33630095D01*
X79990512Y-34099669D01*
X79980110Y-34103978D01*
X79873649Y-34175112D01*
X79783112Y-34265649D01*
X79711978Y-34372110D01*
X79707669Y-34382512D01*
X79238095Y-33912938D01*
X79157865Y-34027517D01*
X79157860Y-34027527D01*
X79153036Y-34037872D01*
X79103457Y-34096953D01*
X79030979Y-34123330D01*
X78955023Y-34109933D01*
X78895942Y-34060354D01*
X78882959Y-34037865D01*
X78878135Y-34027520D01*
X78878127Y-34027507D01*
X78797904Y-33912938D01*
X78328330Y-34382511D01*
X78324022Y-34372110D01*
X78252888Y-34265649D01*
X78162351Y-34175112D01*
X78055890Y-34103978D01*
X78045486Y-34099668D01*
X78515061Y-33630094D01*
X78402893Y-33551553D01*
X78353316Y-33492470D01*
X78339923Y-33416513D01*
X78366303Y-33344037D01*
X78425386Y-33294460D01*
X78488356Y-33280500D01*
X79547644Y-33280500D01*
X79622144Y-33300462D01*
G37*
%TD.AperFunction*%
%TA.AperFunction,Conductor*%
G36*
X113297144Y-33300462D02*
G01*
X113351682Y-33355000D01*
X113371644Y-33429500D01*
X113351682Y-33504000D01*
X113308107Y-33551554D01*
X113195938Y-33630095D01*
X113665512Y-34099669D01*
X113655110Y-34103978D01*
X113548649Y-34175112D01*
X113458112Y-34265649D01*
X113386978Y-34372110D01*
X113382669Y-34382512D01*
X112913095Y-33912938D01*
X112832865Y-34027517D01*
X112832860Y-34027527D01*
X112828036Y-34037872D01*
X112778457Y-34096953D01*
X112705979Y-34123330D01*
X112630023Y-34109933D01*
X112570942Y-34060354D01*
X112557959Y-34037865D01*
X112553135Y-34027520D01*
X112553127Y-34027507D01*
X112472904Y-33912938D01*
X112003330Y-34382511D01*
X111999022Y-34372110D01*
X111927888Y-34265649D01*
X111837351Y-34175112D01*
X111730890Y-34103978D01*
X111720486Y-34099668D01*
X112190061Y-33630094D01*
X112077893Y-33551553D01*
X112028316Y-33492470D01*
X112014923Y-33416513D01*
X112041303Y-33344037D01*
X112100386Y-33294460D01*
X112163356Y-33280500D01*
X113222644Y-33280500D01*
X113297144Y-33300462D01*
G37*
%TD.AperFunction*%
%TA.AperFunction,Conductor*%
G36*
X115808581Y-33300462D02*
G01*
X115863119Y-33355000D01*
X115883081Y-33429500D01*
X115863119Y-33504000D01*
X115819544Y-33551554D01*
X115735938Y-33610095D01*
X116205512Y-34079669D01*
X116195110Y-34083978D01*
X116088649Y-34155112D01*
X115998112Y-34245649D01*
X115926978Y-34352110D01*
X115922669Y-34362512D01*
X115453095Y-33892938D01*
X115372865Y-34007517D01*
X115372858Y-34007529D01*
X115363374Y-34027869D01*
X115313796Y-34086952D01*
X115241319Y-34113329D01*
X115165363Y-34099934D01*
X115106280Y-34050356D01*
X115093295Y-34027864D01*
X115093132Y-34027515D01*
X115093127Y-34027507D01*
X115012904Y-33912938D01*
X114543330Y-34382511D01*
X114539022Y-34372110D01*
X114467888Y-34265649D01*
X114377351Y-34175112D01*
X114270890Y-34103978D01*
X114260486Y-34099668D01*
X114730061Y-33630094D01*
X114617893Y-33551553D01*
X114568316Y-33492470D01*
X114554923Y-33416513D01*
X114581303Y-33344037D01*
X114640386Y-33294460D01*
X114703356Y-33280500D01*
X115734081Y-33280500D01*
X115808581Y-33300462D01*
G37*
%TD.AperFunction*%
%TA.AperFunction,Conductor*%
G36*
X118348581Y-33300462D02*
G01*
X118403119Y-33355000D01*
X118423081Y-33429500D01*
X118403119Y-33504000D01*
X118359544Y-33551554D01*
X118275938Y-33610095D01*
X118745512Y-34079669D01*
X118735110Y-34083978D01*
X118628649Y-34155112D01*
X118538112Y-34245649D01*
X118466978Y-34352110D01*
X118462669Y-34362512D01*
X117993095Y-33892938D01*
X117912865Y-34007517D01*
X117912860Y-34007527D01*
X117908036Y-34017872D01*
X117858457Y-34076953D01*
X117785979Y-34103330D01*
X117710023Y-34089933D01*
X117650942Y-34040354D01*
X117637959Y-34017865D01*
X117633135Y-34007520D01*
X117633127Y-34007507D01*
X117552904Y-33892938D01*
X117083330Y-34362511D01*
X117079022Y-34352110D01*
X117007888Y-34245649D01*
X116917351Y-34155112D01*
X116810890Y-34083978D01*
X116800486Y-34079668D01*
X117270060Y-33610094D01*
X117186456Y-33551553D01*
X117136879Y-33492470D01*
X117123486Y-33416513D01*
X117149866Y-33344037D01*
X117208949Y-33294460D01*
X117271919Y-33280500D01*
X118274081Y-33280500D01*
X118348581Y-33300462D01*
G37*
%TD.AperFunction*%
%TA.AperFunction,Conductor*%
G36*
X134848581Y-33300462D02*
G01*
X134903119Y-33355000D01*
X134923081Y-33429500D01*
X134903119Y-33504000D01*
X134859544Y-33551554D01*
X134775938Y-33610095D01*
X135245512Y-34079669D01*
X135235110Y-34083978D01*
X135128649Y-34155112D01*
X135038112Y-34245649D01*
X134966978Y-34352110D01*
X134962669Y-34362512D01*
X134493095Y-33892938D01*
X134412865Y-34007517D01*
X134412860Y-34007527D01*
X134408036Y-34017872D01*
X134358457Y-34076953D01*
X134285979Y-34103330D01*
X134210023Y-34089933D01*
X134150942Y-34040354D01*
X134137959Y-34017865D01*
X134133135Y-34007520D01*
X134133127Y-34007507D01*
X134052904Y-33892938D01*
X133583330Y-34362511D01*
X133579022Y-34352110D01*
X133507888Y-34245649D01*
X133417351Y-34155112D01*
X133310890Y-34083978D01*
X133300486Y-34079668D01*
X133770061Y-33610094D01*
X133686456Y-33551553D01*
X133636879Y-33492470D01*
X133623486Y-33416513D01*
X133649866Y-33344037D01*
X133708949Y-33294460D01*
X133771919Y-33280500D01*
X134774081Y-33280500D01*
X134848581Y-33300462D01*
G37*
%TD.AperFunction*%
%TA.AperFunction,Conductor*%
G36*
X137388581Y-33300462D02*
G01*
X137443119Y-33355000D01*
X137463081Y-33429500D01*
X137443119Y-33504000D01*
X137399544Y-33551554D01*
X137315938Y-33610095D01*
X137785512Y-34079669D01*
X137775110Y-34083978D01*
X137668649Y-34155112D01*
X137578112Y-34245649D01*
X137506978Y-34352110D01*
X137502669Y-34362512D01*
X137033095Y-33892938D01*
X136952865Y-34007517D01*
X136952860Y-34007527D01*
X136948036Y-34017872D01*
X136898457Y-34076953D01*
X136825979Y-34103330D01*
X136750023Y-34089933D01*
X136690942Y-34040354D01*
X136677959Y-34017865D01*
X136673135Y-34007520D01*
X136673127Y-34007507D01*
X136592904Y-33892938D01*
X136123330Y-34362511D01*
X136119022Y-34352110D01*
X136047888Y-34245649D01*
X135957351Y-34155112D01*
X135850890Y-34083978D01*
X135840486Y-34079668D01*
X136310061Y-33610094D01*
X136226456Y-33551553D01*
X136176879Y-33492470D01*
X136163486Y-33416513D01*
X136189866Y-33344037D01*
X136248949Y-33294460D01*
X136311919Y-33280500D01*
X137314081Y-33280500D01*
X137388581Y-33300462D01*
G37*
%TD.AperFunction*%
%TD*%
M02*
