%TF.GenerationSoftware,KiCad,Pcbnew,8.0.2*%
%TF.CreationDate,2024-07-11T13:13:48+02:00*%
%TF.ProjectId,HYDRA_VMM3_CARD,48594452-415f-4564-9d4d-335f43415244,rev?*%
%TF.SameCoordinates,Original*%
%TF.FileFunction,Soldermask,Bot*%
%TF.FilePolarity,Negative*%
%FSLAX46Y46*%
G04 Gerber Fmt 4.6, Leading zero omitted, Abs format (unit mm)*
G04 Created by KiCad (PCBNEW 8.0.2) date 2024-07-11 13:13:48*
%MOMM*%
%LPD*%
G01*
G04 APERTURE LIST*
G04 Aperture macros list*
%AMRoundRect*
0 Rectangle with rounded corners*
0 $1 Rounding radius*
0 $2 $3 $4 $5 $6 $7 $8 $9 X,Y pos of 4 corners*
0 Add a 4 corners polygon primitive as box body*
4,1,4,$2,$3,$4,$5,$6,$7,$8,$9,$2,$3,0*
0 Add four circle primitives for the rounded corners*
1,1,$1+$1,$2,$3*
1,1,$1+$1,$4,$5*
1,1,$1+$1,$6,$7*
1,1,$1+$1,$8,$9*
0 Add four rect primitives between the rounded corners*
20,1,$1+$1,$2,$3,$4,$5,0*
20,1,$1+$1,$4,$5,$6,$7,0*
20,1,$1+$1,$6,$7,$8,$9,0*
20,1,$1+$1,$8,$9,$2,$3,0*%
%AMFreePoly0*
4,1,37,-0.247476,0.892000,0.250000,0.892000,0.309954,0.872520,0.347008,0.821520,0.352000,0.790000,0.352000,-0.790000,0.332520,-0.849954,0.281520,-0.887008,0.250000,-0.892000,-0.247476,-0.892000,-0.250000,-0.892500,-0.330000,-0.892500,-0.368890,-0.884795,-0.369244,-0.884649,-0.417242,-0.843781,-0.424649,-0.829244,-0.424795,-0.828890,-0.432500,-0.790000,-0.432500,-0.270000,-0.424795,-0.231110,
-0.424649,-0.230756,-0.402479,-0.197521,-0.352500,-0.147542,-0.352500,0.147542,-0.402479,0.197521,-0.424649,0.230756,-0.424795,0.231110,-0.432500,0.270000,-0.432500,0.790000,-0.424795,0.828890,-0.424649,0.829244,-0.383781,0.877242,-0.369244,0.884649,-0.368890,0.884795,-0.330000,0.892500,-0.250000,0.892500,-0.247476,0.892000,-0.247476,0.892000,$1*%
%AMFreePoly1*
4,1,37,0.368890,0.884795,0.369244,0.884649,0.417242,0.843781,0.424649,0.829244,0.424795,0.828890,0.432500,0.790000,0.432500,0.270000,0.424795,0.231110,0.424649,0.230756,0.402479,0.197521,0.352500,0.147542,0.352500,-0.147542,0.402479,-0.197521,0.424649,-0.230756,0.424795,-0.231110,0.432500,-0.270000,0.432500,-0.790000,0.424795,-0.828890,0.424649,-0.829244,0.383781,-0.877242,
0.369244,-0.884649,0.368890,-0.884795,0.330000,-0.892500,0.250000,-0.892500,0.247476,-0.892000,-0.250000,-0.892000,-0.309954,-0.872520,-0.347008,-0.821520,-0.352000,-0.790000,-0.352000,0.790000,-0.332520,0.849954,-0.281520,0.887008,-0.250000,0.892000,0.247476,0.892000,0.250000,0.892500,0.330000,0.892500,0.368890,0.884795,0.368890,0.884795,$1*%
G04 Aperture macros list end*
%ADD10C,2.000000*%
%ADD11C,3.800000*%
%ADD12RoundRect,0.095000X-0.095000X-0.965000X0.095000X-0.965000X0.095000X0.965000X-0.095000X0.965000X0*%
%ADD13R,0.850000X0.850000*%
%ADD14O,0.850000X0.850000*%
%ADD15C,1.600000*%
%ADD16C,1.100000*%
%ADD17R,1.600000X1.600000*%
%ADD18C,0.800000*%
%ADD19RoundRect,0.237500X0.237500X-0.250000X0.237500X0.250000X-0.237500X0.250000X-0.237500X-0.250000X0*%
%ADD20RoundRect,0.237500X-0.237500X0.250000X-0.237500X-0.250000X0.237500X-0.250000X0.237500X0.250000X0*%
%ADD21RoundRect,0.237500X-0.237500X0.287500X-0.237500X-0.287500X0.237500X-0.287500X0.237500X0.287500X0*%
%ADD22RoundRect,0.102000X0.300000X0.275000X-0.300000X0.275000X-0.300000X-0.275000X0.300000X-0.275000X0*%
%ADD23FreePoly0,180.000000*%
%ADD24FreePoly1,180.000000*%
%ADD25RoundRect,0.102000X0.250000X0.250000X-0.250000X0.250000X-0.250000X-0.250000X0.250000X-0.250000X0*%
%ADD26RoundRect,0.102000X-0.275000X0.300000X-0.275000X-0.300000X0.275000X-0.300000X0.275000X0.300000X0*%
%ADD27FreePoly0,270.000000*%
%ADD28FreePoly1,270.000000*%
%ADD29RoundRect,0.102000X-0.250000X0.250000X-0.250000X-0.250000X0.250000X-0.250000X0.250000X0.250000X0*%
%ADD30C,0.150000*%
%ADD31RoundRect,0.237500X0.371231X-0.035355X-0.035355X0.371231X-0.371231X0.035355X0.035355X-0.371231X0*%
%ADD32R,18.000000X48.000000*%
%ADD33RoundRect,0.237500X0.237500X-0.287500X0.237500X0.287500X-0.237500X0.287500X-0.237500X-0.287500X0*%
G04 APERTURE END LIST*
D10*
%TO.C,15*%
X77748000Y-78380000D03*
%TD*%
%TO.C,*%
X138083000Y-34660000D03*
%TD*%
%TO.C,16*%
X111423000Y-78380000D03*
%TD*%
%TO.C,*%
X135543000Y-78360000D03*
%TD*%
%TO.C,*%
X135543000Y-34660000D03*
%TD*%
%TO.C,*%
X72668000Y-34680000D03*
%TD*%
%TO.C,*%
X133003000Y-34660000D03*
%TD*%
%TO.C,11*%
X72668000Y-78380000D03*
%TD*%
%TO.C,*%
X75208000Y-37220000D03*
%TD*%
%TO.C,*%
X138083000Y-37200000D03*
%TD*%
D11*
%TO.C,*%
X139450000Y-57580000D03*
%TD*%
D12*
%TO.C,J1*%
X90100000Y-91840000D03*
X90700000Y-91840000D03*
X91300000Y-91840000D03*
X91900000Y-91840000D03*
X92500000Y-91840000D03*
X93100000Y-91840000D03*
X93700000Y-91840000D03*
X94300000Y-91840000D03*
X94900000Y-91840000D03*
X95500000Y-91840000D03*
X96100000Y-91840000D03*
X96700000Y-91840000D03*
X97300000Y-91840000D03*
X97900000Y-91840000D03*
X98500000Y-91840000D03*
X99100000Y-91840000D03*
X99700000Y-91840000D03*
X100300000Y-91840000D03*
X100900000Y-91840000D03*
X101500000Y-91840000D03*
X102100000Y-91840000D03*
X102700000Y-91840000D03*
X103300000Y-91840000D03*
X103900000Y-91840000D03*
X104500000Y-91840000D03*
X105100000Y-91840000D03*
X105700000Y-91840000D03*
X106300000Y-91840000D03*
X110310000Y-91840000D03*
X110910000Y-91840000D03*
X111510000Y-91840000D03*
X112110000Y-91840000D03*
X112710000Y-91840000D03*
X113310000Y-91840000D03*
X113910000Y-91840000D03*
X114510000Y-91840000D03*
X115110000Y-91840000D03*
X115710000Y-91840000D03*
X116310000Y-91840000D03*
X116910000Y-91840000D03*
X117510000Y-91840000D03*
X118110000Y-91840000D03*
X123020000Y-91840000D03*
X123620000Y-91840000D03*
X124220000Y-91840000D03*
X124820000Y-91840000D03*
X125420000Y-91840000D03*
X126020000Y-91840000D03*
X126620000Y-91840000D03*
X127220000Y-91840000D03*
X127820000Y-91840000D03*
X128420000Y-91840000D03*
X129020000Y-91840000D03*
X129620000Y-91840000D03*
X130220000Y-91840000D03*
X130820000Y-91840000D03*
X131420000Y-91840000D03*
X132020000Y-91840000D03*
X132620000Y-91840000D03*
X133220000Y-91840000D03*
X133820000Y-91840000D03*
X134420000Y-91840000D03*
X135020000Y-91840000D03*
X135620000Y-91840000D03*
X136220000Y-91840000D03*
X136820000Y-91840000D03*
X137420000Y-91840000D03*
X138020000Y-91840000D03*
X138620000Y-91840000D03*
X139220000Y-91840000D03*
%TD*%
D10*
%TO.C,*%
X133003000Y-78360000D03*
%TD*%
%TO.C,18*%
X116503000Y-80900000D03*
%TD*%
%TO.C,*%
X135543000Y-80900000D03*
%TD*%
%TO.C,*%
X135543000Y-37200000D03*
%TD*%
%TO.C,22*%
X119043000Y-78360000D03*
%TD*%
%TO.C,17*%
X113963000Y-80920000D03*
%TD*%
D13*
%TO.C,J2*%
X137800000Y-44280000D03*
D14*
X137800000Y-45280000D03*
X137800000Y-46280000D03*
X137800000Y-47280000D03*
X137800000Y-48280000D03*
X137800000Y-49280000D03*
%TD*%
D10*
%TO.C,13*%
X80288000Y-37220000D03*
%TD*%
D11*
%TO.C,REF\u002A\u002A3*%
X53050000Y-57580000D03*
%TD*%
D15*
%TO.C,3.3V1*%
X64450000Y-60970000D03*
%TD*%
D10*
%TO.C,*%
X72668000Y-37220000D03*
%TD*%
%TO.C,*%
X133003000Y-80900000D03*
%TD*%
%TO.C,6*%
X119043000Y-34660000D03*
%TD*%
%TO.C,*%
X111423000Y-37220000D03*
%TD*%
%TO.C,*%
X77748000Y-37220000D03*
%TD*%
%TO.C,10*%
X111423000Y-80920000D03*
%TD*%
D16*
%TO.C,U1*%
X126818000Y-35606000D03*
X126818000Y-80006000D03*
%TD*%
D10*
%TO.C,24*%
X80288000Y-78380000D03*
%TD*%
%TO.C,9*%
X77748000Y-80920000D03*
%TD*%
%TO.C,1*%
X113963000Y-37220000D03*
%TD*%
%TO.C,12*%
X75208000Y-78380000D03*
%TD*%
D11*
%TO.C,REF\u002A\u002A*%
X39650000Y-35780000D03*
%TD*%
D10*
%TO.C,2*%
X116503000Y-37200000D03*
%TD*%
D17*
%TO.C,GND1*%
X64450000Y-63510000D03*
%TD*%
D11*
%TO.C,*%
X53050000Y-79380000D03*
%TD*%
%TO.C,25*%
X39650000Y-79380000D03*
%TD*%
D10*
%TO.C,*%
X138083000Y-80900000D03*
%TD*%
%TO.C,19*%
X119043000Y-80900000D03*
%TD*%
D11*
%TO.C,REF\u002A\u002A2*%
X39650000Y-57580000D03*
%TD*%
D10*
%TO.C,5*%
X116503000Y-34660000D03*
%TD*%
%TO.C,20*%
X113963000Y-78380000D03*
%TD*%
%TO.C,*%
X111423000Y-34680000D03*
%TD*%
%TO.C,*%
X77748000Y-34680000D03*
%TD*%
%TO.C,*%
X133003000Y-37200000D03*
%TD*%
%TO.C,3*%
X119043000Y-37200000D03*
%TD*%
D15*
%TO.C,1.8V1*%
X64450000Y-66050000D03*
%TD*%
D10*
%TO.C,4*%
X113963000Y-34680000D03*
%TD*%
D11*
%TO.C,REF\u002A\u002A1*%
X53050000Y-35780000D03*
%TD*%
D10*
%TO.C,*%
X138083000Y-78360000D03*
%TD*%
%TO.C,*%
X75208000Y-34680000D03*
%TD*%
%TO.C,8*%
X75208000Y-80920000D03*
%TD*%
%TO.C,7*%
X72668000Y-80920000D03*
%TD*%
%TO.C,23*%
X80288000Y-80920000D03*
%TD*%
%TO.C,14*%
X80288000Y-34680000D03*
%TD*%
%TO.C,21*%
X116503000Y-78360000D03*
%TD*%
D18*
%TO.C,Ch5*%
X72400000Y-42220000D03*
%TD*%
D19*
%TO.C,R2*%
X66260000Y-75755000D03*
X66260000Y-73930000D03*
%TD*%
D18*
%TO.C,Ch13*%
X72500000Y-45820000D03*
%TD*%
%TO.C,Ch3*%
X73687437Y-42711852D03*
%TD*%
%TO.C,Ch15*%
X73758148Y-45257437D03*
%TD*%
D20*
%TO.C,R1*%
X66260000Y-55425000D03*
X66260000Y-57250000D03*
%TD*%
D18*
%TO.C,Ch1*%
X74250000Y-43970000D03*
%TD*%
D21*
%TO.C,3.3V_On1*%
X64670000Y-55485000D03*
X64670000Y-57235000D03*
%TD*%
D22*
%TO.C,Temp_TX1*%
X92300000Y-37755000D03*
D23*
X91300000Y-36780000D03*
D24*
X93300000Y-36780000D03*
D25*
X92300000Y-35780000D03*
%TD*%
D18*
%TO.C,Ch11*%
X71212563Y-45328148D03*
%TD*%
%TO.C,Sig1_selector*%
X72450000Y-43970000D03*
%TD*%
%TO.C,Ch9*%
X70650000Y-44070000D03*
%TD*%
D26*
%TO.C,Sig2*%
X65925000Y-49970000D03*
D27*
X64950000Y-50970000D03*
D28*
X64950000Y-48970000D03*
D29*
X63950000Y-49970000D03*
%TD*%
D18*
%TO.C,Sig2_selector*%
X72450000Y-54970000D03*
%TD*%
D26*
%TO.C,Sig1*%
X65925000Y-43970000D03*
D27*
X64950000Y-44970000D03*
D28*
X64950000Y-42970000D03*
D29*
X63950000Y-43970000D03*
%TD*%
D18*
%TO.C,Ch16*%
X73687437Y-53711852D03*
%TD*%
%TO.C,Ch14*%
X72400000Y-53220000D03*
%TD*%
%TO.C,Ch4*%
X73758148Y-56257437D03*
%TD*%
D30*
%TO.C,Temp_1*%
X95006000Y-40000000D03*
X95006000Y-40400000D03*
X95406000Y-40000000D03*
X95406000Y-40400000D03*
%TD*%
D18*
%TO.C,Ch2*%
X74250000Y-54970000D03*
%TD*%
%TO.C,Ch7*%
X71141852Y-42782563D03*
%TD*%
D31*
%TO.C,3.3V_0.5A1*%
X73468718Y-65928718D03*
X72231282Y-64691282D03*
%TD*%
D30*
%TO.C,Temp_2*%
X95006000Y-75560000D03*
X95406000Y-75560000D03*
X95006000Y-75160000D03*
X95406000Y-75160000D03*
%TD*%
D18*
%TO.C,Ch12*%
X71141852Y-53782563D03*
%TD*%
D31*
%TO.C,1.8V_2.5A1*%
X68068718Y-69638718D03*
X66831282Y-68401282D03*
%TD*%
D18*
%TO.C,Ch10*%
X70650000Y-55070000D03*
%TD*%
D32*
%TO.C,REF\u002A\u002A*%
X46650000Y-57780000D03*
%TD*%
D33*
%TO.C,1.8_On1*%
X64670000Y-75695000D03*
X64670000Y-73945000D03*
%TD*%
D18*
%TO.C,Ch6*%
X72500000Y-56820000D03*
%TD*%
%TO.C,Ch8*%
X71212563Y-56328148D03*
%TD*%
D22*
%TO.C,Temp_RX1*%
X99300000Y-37755000D03*
D23*
X98300000Y-36780000D03*
D24*
X100300000Y-36780000D03*
D25*
X99300000Y-35780000D03*
%TD*%
M02*
