%TF.GenerationSoftware,KiCad,Pcbnew,9.0.2*%
%TF.CreationDate,2025-05-21T10:17:49+02:00*%
%TF.ProjectId,Card_Adapter_Flex_AddOn_2Layers.kicad_pro,43617264-5f41-4646-9170-7465725f466c,0*%
%TF.SameCoordinates,Original*%
%TF.FileFunction,Other,User*%
%FSLAX46Y46*%
G04 Gerber Fmt 4.6, Leading zero omitted, Abs format (unit mm)*
G04 Created by KiCad (PCBNEW 9.0.2) date 2025-05-21 10:17:49*
%MOMM*%
%LPD*%
G01*
G04 APERTURE LIST*
%ADD10C,0.100000*%
%ADD11C,0.150000*%
G04 APERTURE END LIST*
D10*
X72860000Y-52450000D02*
X113940000Y-52450000D01*
X113940000Y-74970000D01*
X72860000Y-74970000D01*
X72860000Y-52450000D01*
D11*
X96101541Y-63149819D02*
X96720588Y-63149819D01*
X96720588Y-63149819D02*
X96387255Y-63530771D01*
X96387255Y-63530771D02*
X96530112Y-63530771D01*
X96530112Y-63530771D02*
X96625350Y-63578390D01*
X96625350Y-63578390D02*
X96672969Y-63626009D01*
X96672969Y-63626009D02*
X96720588Y-63721247D01*
X96720588Y-63721247D02*
X96720588Y-63959342D01*
X96720588Y-63959342D02*
X96672969Y-64054580D01*
X96672969Y-64054580D02*
X96625350Y-64102200D01*
X96625350Y-64102200D02*
X96530112Y-64149819D01*
X96530112Y-64149819D02*
X96244398Y-64149819D01*
X96244398Y-64149819D02*
X96149160Y-64102200D01*
X96149160Y-64102200D02*
X96101541Y-64054580D01*
X97149160Y-64149819D02*
X97149160Y-63149819D01*
X97149160Y-63149819D02*
X97482493Y-63864104D01*
X97482493Y-63864104D02*
X97815826Y-63149819D01*
X97815826Y-63149819D02*
X97815826Y-64149819D01*
X99101541Y-64149819D02*
X99292017Y-64149819D01*
X99292017Y-64149819D02*
X99387255Y-64102200D01*
X99387255Y-64102200D02*
X99434874Y-64054580D01*
X99434874Y-64054580D02*
X99530112Y-63911723D01*
X99530112Y-63911723D02*
X99577731Y-63721247D01*
X99577731Y-63721247D02*
X99577731Y-63340295D01*
X99577731Y-63340295D02*
X99530112Y-63245057D01*
X99530112Y-63245057D02*
X99482493Y-63197438D01*
X99482493Y-63197438D02*
X99387255Y-63149819D01*
X99387255Y-63149819D02*
X99196779Y-63149819D01*
X99196779Y-63149819D02*
X99101541Y-63197438D01*
X99101541Y-63197438D02*
X99053922Y-63245057D01*
X99053922Y-63245057D02*
X99006303Y-63340295D01*
X99006303Y-63340295D02*
X99006303Y-63578390D01*
X99006303Y-63578390D02*
X99053922Y-63673628D01*
X99053922Y-63673628D02*
X99101541Y-63721247D01*
X99101541Y-63721247D02*
X99196779Y-63768866D01*
X99196779Y-63768866D02*
X99387255Y-63768866D01*
X99387255Y-63768866D02*
X99482493Y-63721247D01*
X99482493Y-63721247D02*
X99530112Y-63673628D01*
X99530112Y-63673628D02*
X99577731Y-63578390D01*
X100196779Y-63149819D02*
X100292017Y-63149819D01*
X100292017Y-63149819D02*
X100387255Y-63197438D01*
X100387255Y-63197438D02*
X100434874Y-63245057D01*
X100434874Y-63245057D02*
X100482493Y-63340295D01*
X100482493Y-63340295D02*
X100530112Y-63530771D01*
X100530112Y-63530771D02*
X100530112Y-63768866D01*
X100530112Y-63768866D02*
X100482493Y-63959342D01*
X100482493Y-63959342D02*
X100434874Y-64054580D01*
X100434874Y-64054580D02*
X100387255Y-64102200D01*
X100387255Y-64102200D02*
X100292017Y-64149819D01*
X100292017Y-64149819D02*
X100196779Y-64149819D01*
X100196779Y-64149819D02*
X100101541Y-64102200D01*
X100101541Y-64102200D02*
X100053922Y-64054580D01*
X100053922Y-64054580D02*
X100006303Y-63959342D01*
X100006303Y-63959342D02*
X99958684Y-63768866D01*
X99958684Y-63768866D02*
X99958684Y-63530771D01*
X99958684Y-63530771D02*
X100006303Y-63340295D01*
X100006303Y-63340295D02*
X100053922Y-63245057D01*
X100053922Y-63245057D02*
X100101541Y-63197438D01*
X100101541Y-63197438D02*
X100196779Y-63149819D01*
X100863446Y-63149819D02*
X101530112Y-63149819D01*
X101530112Y-63149819D02*
X101101541Y-64149819D01*
X101815827Y-63149819D02*
X102482493Y-63149819D01*
X102482493Y-63149819D02*
X102053922Y-64149819D01*
X103482494Y-63149819D02*
X104053922Y-63149819D01*
X103768208Y-64149819D02*
X103768208Y-63149819D01*
X104815827Y-64149819D02*
X104815827Y-63626009D01*
X104815827Y-63626009D02*
X104768208Y-63530771D01*
X104768208Y-63530771D02*
X104672970Y-63483152D01*
X104672970Y-63483152D02*
X104482494Y-63483152D01*
X104482494Y-63483152D02*
X104387256Y-63530771D01*
X104815827Y-64102200D02*
X104720589Y-64149819D01*
X104720589Y-64149819D02*
X104482494Y-64149819D01*
X104482494Y-64149819D02*
X104387256Y-64102200D01*
X104387256Y-64102200D02*
X104339637Y-64006961D01*
X104339637Y-64006961D02*
X104339637Y-63911723D01*
X104339637Y-63911723D02*
X104387256Y-63816485D01*
X104387256Y-63816485D02*
X104482494Y-63768866D01*
X104482494Y-63768866D02*
X104720589Y-63768866D01*
X104720589Y-63768866D02*
X104815827Y-63721247D01*
X105292018Y-63483152D02*
X105292018Y-64483152D01*
X105292018Y-63530771D02*
X105387256Y-63483152D01*
X105387256Y-63483152D02*
X105577732Y-63483152D01*
X105577732Y-63483152D02*
X105672970Y-63530771D01*
X105672970Y-63530771D02*
X105720589Y-63578390D01*
X105720589Y-63578390D02*
X105768208Y-63673628D01*
X105768208Y-63673628D02*
X105768208Y-63959342D01*
X105768208Y-63959342D02*
X105720589Y-64054580D01*
X105720589Y-64054580D02*
X105672970Y-64102200D01*
X105672970Y-64102200D02*
X105577732Y-64149819D01*
X105577732Y-64149819D02*
X105387256Y-64149819D01*
X105387256Y-64149819D02*
X105292018Y-64102200D01*
X106577732Y-64102200D02*
X106482494Y-64149819D01*
X106482494Y-64149819D02*
X106292018Y-64149819D01*
X106292018Y-64149819D02*
X106196780Y-64102200D01*
X106196780Y-64102200D02*
X106149161Y-64006961D01*
X106149161Y-64006961D02*
X106149161Y-63626009D01*
X106149161Y-63626009D02*
X106196780Y-63530771D01*
X106196780Y-63530771D02*
X106292018Y-63483152D01*
X106292018Y-63483152D02*
X106482494Y-63483152D01*
X106482494Y-63483152D02*
X106577732Y-63530771D01*
X106577732Y-63530771D02*
X106625351Y-63626009D01*
X106625351Y-63626009D02*
X106625351Y-63721247D01*
X106625351Y-63721247D02*
X106149161Y-63816485D01*
M02*
