M48
; DRILL file {KiCad 9.0.2} date 2025-05-21T10:17:29+0200
; FORMAT={-:-/ absolute / metric / decimal}
; #@! TF.CreationDate,2025-05-21T10:17:29+02:00
; #@! TF.GenerationSoftware,Kicad,Pcbnew,9.0.2
; #@! TF.FileFunction,Plated,1,2,PTH
FMAT,2
METRIC
; #@! TA.AperFunction,Plated,PTH,ViaDrill
T1C0.200
%
G90
G05
T1
X65.1Y-52.95
X65.1Y-53.95
X65.1Y-54.95
X65.1Y-55.95
X65.1Y-56.95
X65.1Y-57.95
X65.1Y-58.95
X65.1Y-59.95
X65.1Y-60.95
X65.891Y-60.441
X65.911Y-56.427
X65.914Y-57.451
X65.92Y-59.45
X66.01Y-58.45
X66.07Y-53.45
X66.25Y-54.45
X66.28Y-55.46
X76.415Y-70.63
X76.875Y-69.22
X77.115Y-67.32
X77.755Y-65.79
X79.145Y-71.97
X79.885Y-70.88
X80.325Y-67.333
X80.935Y-65.78
X81.215Y-66.66
X82.335Y-68.88
X84.62Y-56.95
X84.63Y-60.13
X85.5Y-56.67
X86.16Y-60.77
X86.173Y-57.56
X87.72Y-55.55
X88.06Y-61.01
X89.47Y-61.47
X89.72Y-58.0
X90.81Y-58.74
X120.45Y-79.46
X121.45Y-79.47
X122.09Y-79.67
X122.09Y-80.09
X122.09Y-80.51
M30
