%TF.GenerationSoftware,KiCad,Pcbnew,9.0.2*%
%TF.CreationDate,2025-05-21T10:17:49+02:00*%
%TF.ProjectId,Card_Adapter_Flex_AddOn_2Layers.kicad_pro,43617264-5f41-4646-9170-7465725f466c,0*%
%TF.SameCoordinates,Original*%
%TF.FileFunction,Copper,L1,Top*%
%TF.FilePolarity,Positive*%
%FSLAX46Y46*%
G04 Gerber Fmt 4.6, Leading zero omitted, Abs format (unit mm)*
G04 Created by KiCad (PCBNEW 9.0.2) date 2025-05-21 10:17:49*
%MOMM*%
%LPD*%
G01*
G04 APERTURE LIST*
G04 Aperture macros list*
%AMRoundRect*
0 Rectangle with rounded corners*
0 $1 Rounding radius*
0 $2 $3 $4 $5 $6 $7 $8 $9 X,Y pos of 4 corners*
0 Add a 4 corners polygon primitive as box body*
4,1,4,$2,$3,$4,$5,$6,$7,$8,$9,$2,$3,0*
0 Add four circle primitives for the rounded corners*
1,1,$1+$1,$2,$3*
1,1,$1+$1,$4,$5*
1,1,$1+$1,$6,$7*
1,1,$1+$1,$8,$9*
0 Add four rect primitives between the rounded corners*
20,1,$1+$1,$2,$3,$4,$5,0*
20,1,$1+$1,$4,$5,$6,$7,0*
20,1,$1+$1,$6,$7,$8,$9,0*
20,1,$1+$1,$8,$9,$2,$3,0*%
%AMOutline5P*
0 Free polygon, 5 corners , with rotation*
0 The origin of the aperture is its center*
0 number of corners: always 5*
0 $1 to $10 corner X, Y*
0 $11 Rotation angle, in degrees counterclockwise*
0 create outline with 5 corners*
4,1,5,$1,$2,$3,$4,$5,$6,$7,$8,$9,$10,$1,$2,$11*%
%AMOutline6P*
0 Free polygon, 6 corners , with rotation*
0 The origin of the aperture is its center*
0 number of corners: always 6*
0 $1 to $12 corner X, Y*
0 $13 Rotation angle, in degrees counterclockwise*
0 create outline with 6 corners*
4,1,6,$1,$2,$3,$4,$5,$6,$7,$8,$9,$10,$11,$12,$1,$2,$13*%
%AMOutline7P*
0 Free polygon, 7 corners , with rotation*
0 The origin of the aperture is its center*
0 number of corners: always 7*
0 $1 to $14 corner X, Y*
0 $15 Rotation angle, in degrees counterclockwise*
0 create outline with 7 corners*
4,1,7,$1,$2,$3,$4,$5,$6,$7,$8,$9,$10,$11,$12,$13,$14,$1,$2,$15*%
%AMOutline8P*
0 Free polygon, 8 corners , with rotation*
0 The origin of the aperture is its center*
0 number of corners: always 8*
0 $1 to $16 corner X, Y*
0 $17 Rotation angle, in degrees counterclockwise*
0 create outline with 8 corners*
4,1,8,$1,$2,$3,$4,$5,$6,$7,$8,$9,$10,$11,$12,$13,$14,$15,$16,$1,$2,$17*%
G04 Aperture macros list end*
%TA.AperFunction,SMDPad,CuDef*%
%ADD10RoundRect,0.140000X-0.170000X0.140000X-0.170000X-0.140000X0.170000X-0.140000X0.170000X0.140000X0*%
%TD*%
%TA.AperFunction,SMDPad,CuDef*%
%ADD11RoundRect,0.140000X0.140000X0.170000X-0.140000X0.170000X-0.140000X-0.170000X0.140000X-0.170000X0*%
%TD*%
%TA.AperFunction,SMDPad,CuDef*%
%ADD12RoundRect,0.135000X-0.135000X-0.185000X0.135000X-0.185000X0.135000X0.185000X-0.135000X0.185000X0*%
%TD*%
%TA.AperFunction,SMDPad,CuDef*%
%ADD13RoundRect,0.140000X-0.140000X-0.170000X0.140000X-0.170000X0.140000X0.170000X-0.140000X0.170000X0*%
%TD*%
%TA.AperFunction,SMDPad,CuDef*%
%ADD14RoundRect,0.140000X0.170000X-0.140000X0.170000X0.140000X-0.170000X0.140000X-0.170000X-0.140000X0*%
%TD*%
%TA.AperFunction,SMDPad,CuDef*%
%ADD15RoundRect,0.135000X0.135000X0.185000X-0.135000X0.185000X-0.135000X-0.185000X0.135000X-0.185000X0*%
%TD*%
%TA.AperFunction,SMDPad,CuDef*%
%ADD16Outline5P,-0.100000X0.325000X0.100000X0.325000X0.100000X-0.225000X0.000000X-0.325000X-0.100000X-0.325000X180.000000*%
%TD*%
%TA.AperFunction,SMDPad,CuDef*%
%ADD17R,0.200000X0.550000*%
%TD*%
%TA.AperFunction,SMDPad,CuDef*%
%ADD18R,0.550000X0.200000*%
%TD*%
%TA.AperFunction,SMDPad,CuDef*%
%ADD19RoundRect,0.135000X0.185000X-0.135000X0.185000X0.135000X-0.185000X0.135000X-0.185000X-0.135000X0*%
%TD*%
%TA.AperFunction,SMDPad,CuDef*%
%ADD20Outline5P,-0.100000X0.325000X0.100000X0.325000X0.100000X-0.225000X0.000000X-0.325000X-0.100000X-0.325000X270.000000*%
%TD*%
%TA.AperFunction,SMDPad,CuDef*%
%ADD21RoundRect,0.135000X-0.185000X0.135000X-0.185000X-0.135000X0.185000X-0.135000X0.185000X0.135000X0*%
%TD*%
%TA.AperFunction,ViaPad*%
%ADD22C,0.400000*%
%TD*%
%TA.AperFunction,Conductor*%
%ADD23C,0.200000*%
%TD*%
%TA.AperFunction,Conductor*%
%ADD24C,0.100000*%
%TD*%
%TA.AperFunction,Conductor*%
%ADD25C,0.150000*%
%TD*%
G04 APERTURE END LIST*
D10*
%TO.P,C19,1*%
%TO.N,Master_trigger_out_2*%
X78735000Y-63930000D03*
%TO.P,C19,2*%
%TO.N,Net-(U3-CLK_OUT2)*%
X78735000Y-64890000D03*
%TD*%
D11*
%TO.P,C17,1*%
%TO.N,GND*%
X82335000Y-68880000D03*
%TO.P,C17,2*%
%TO.N,+3V3*%
X81375000Y-68880000D03*
%TD*%
D12*
%TO.P,R12,1*%
%TO.N,GND*%
X76430000Y-70595000D03*
%TO.P,R12,2*%
%TO.N,Master_trigger_in*%
X77450000Y-70595000D03*
%TD*%
D13*
%TO.P,C15,1*%
%TO.N,GND*%
X77115000Y-67320000D03*
%TO.P,C15,2*%
%TO.N,+3V3*%
X78075000Y-67320000D03*
%TD*%
D14*
%TO.P,C11,1*%
%TO.N,Heim_time_out_1*%
X87080000Y-62870000D03*
%TO.P,C11,2*%
%TO.N,Net-(U1-CLK_OUT1)*%
X87080000Y-61910000D03*
%TD*%
D15*
%TO.P,R14,1*%
%TO.N,GND*%
X80935000Y-65780000D03*
%TO.P,R14,2*%
%TO.N,Net-(U3-CLK_OUT3)*%
X79915000Y-65780000D03*
%TD*%
D14*
%TO.P,C1,1*%
%TO.N,GND*%
X86160000Y-60770000D03*
%TO.P,C1,2*%
%TO.N,+3V3*%
X86160000Y-59810000D03*
%TD*%
D10*
%TO.P,C14,1*%
%TO.N,Heim_time_out_4*%
X86480000Y-54810000D03*
%TO.P,C14,2*%
%TO.N,Net-(U1-CLK_OUT4)*%
X86480000Y-55770000D03*
%TD*%
D13*
%TO.P,C18,1*%
%TO.N,Master_trigger_out_1*%
X75015000Y-68240000D03*
%TO.P,C18,2*%
%TO.N,Net-(U3-CLK_OUT1)*%
X75975000Y-68240000D03*
%TD*%
%TO.P,C12,1*%
%TO.N,Heim_time_out_2*%
X82770000Y-59150000D03*
%TO.P,C12,2*%
%TO.N,Net-(U1-CLK_OUT2)*%
X83730000Y-59150000D03*
%TD*%
D16*
%TO.P,U3,1,OE_2*%
%TO.N,+3V3*%
X78745000Y-70155000D03*
D17*
%TO.P,U3,2,VDD*%
X79145000Y-70205000D03*
%TO.P,U3,3,GND*%
%TO.N,GND*%
X79545000Y-70205000D03*
%TO.P,U3,4,OE_3*%
%TO.N,+3V3*%
X79945000Y-70205000D03*
D18*
%TO.P,U3,5,OE_4*%
X80470000Y-69680000D03*
%TO.P,U3,6,OE_OSC*%
%TO.N,/Master trigger/Signaling*%
X80470000Y-69280000D03*
%TO.P,U3,7,VDD*%
%TO.N,+3V3*%
X80470000Y-68880000D03*
%TO.P,U3,8,CLK_OUT4*%
%TO.N,Net-(U3-CLK_OUT4)*%
X80470000Y-68480000D03*
D17*
%TO.P,U3,9,GND*%
%TO.N,GND*%
X79945000Y-67955000D03*
%TO.P,U3,10,CLK_OUT3*%
%TO.N,Net-(U3-CLK_OUT3)*%
X79545000Y-67955000D03*
%TO.P,U3,11,CLK_OUT2*%
%TO.N,Net-(U3-CLK_OUT2)*%
X79145000Y-67955000D03*
%TO.P,U3,12,VDD*%
%TO.N,+3V3*%
X78745000Y-67955000D03*
D18*
%TO.P,U3,13,CLK_OUT1*%
%TO.N,Net-(U3-CLK_OUT1)*%
X78220000Y-68480000D03*
%TO.P,U3,14,GND*%
%TO.N,GND*%
X78220000Y-68880000D03*
%TO.P,U3,15,CLK_IN*%
%TO.N,Master_trigger_in*%
X78220000Y-69280000D03*
%TO.P,U3,16,OE_1*%
%TO.N,+3V3*%
X78220000Y-69680000D03*
%TD*%
D11*
%TO.P,C2,1*%
%TO.N,GND*%
X90900000Y-58740000D03*
%TO.P,C2,2*%
%TO.N,+3V3*%
X89940000Y-58740000D03*
%TD*%
D19*
%TO.P,R3,1*%
%TO.N,GND*%
X84630000Y-60130000D03*
%TO.P,R3,2*%
%TO.N,Net-(U1-CLK_OUT2)*%
X84630000Y-59110000D03*
%TD*%
D20*
%TO.P,U1,1,OE_2*%
%TO.N,+3V3*%
X88995000Y-59140000D03*
D18*
%TO.P,U1,2,VDD*%
X89045000Y-58740000D03*
%TO.P,U1,3,GND*%
%TO.N,GND*%
X89045000Y-58340000D03*
%TO.P,U1,4,OE_3*%
%TO.N,+3V3*%
X89045000Y-57940000D03*
D17*
%TO.P,U1,5,OE_4*%
X88520000Y-57415000D03*
%TO.P,U1,6,OE_OSC*%
%TO.N,/Heimtime/Signaling*%
X88120000Y-57415000D03*
%TO.P,U1,7,VDD*%
%TO.N,+3V3*%
X87720000Y-57415000D03*
%TO.P,U1,8,CLK_OUT4*%
%TO.N,Net-(U1-CLK_OUT4)*%
X87320000Y-57415000D03*
D18*
%TO.P,U1,9,GND*%
%TO.N,GND*%
X86795000Y-57940000D03*
%TO.P,U1,10,CLK_OUT3*%
%TO.N,Net-(U1-CLK_OUT3)*%
X86795000Y-58340000D03*
%TO.P,U1,11,CLK_OUT2*%
%TO.N,Net-(U1-CLK_OUT2)*%
X86795000Y-58740000D03*
%TO.P,U1,12,VDD*%
%TO.N,+3V3*%
X86795000Y-59140000D03*
D17*
%TO.P,U1,13,CLK_OUT1*%
%TO.N,Net-(U1-CLK_OUT1)*%
X87320000Y-59665000D03*
%TO.P,U1,14,GND*%
%TO.N,GND*%
X87720000Y-59665000D03*
%TO.P,U1,15,CLK_IN*%
%TO.N,Heim_time_in*%
X88120000Y-59665000D03*
%TO.P,U1,16,OE_1*%
%TO.N,+3V3*%
X88520000Y-59665000D03*
%TD*%
D15*
%TO.P,R4,1*%
%TO.N,GND*%
X88060000Y-61010000D03*
%TO.P,R4,2*%
%TO.N,Net-(U1-CLK_OUT1)*%
X87040000Y-61010000D03*
%TD*%
D12*
%TO.P,R1,1*%
%TO.N,GND*%
X85500000Y-56670000D03*
%TO.P,R1,2*%
%TO.N,Net-(U1-CLK_OUT4)*%
X86520000Y-56670000D03*
%TD*%
D14*
%TO.P,C16,1*%
%TO.N,GND*%
X79145000Y-72060000D03*
%TO.P,C16,2*%
%TO.N,+3V3*%
X79145000Y-71100000D03*
%TD*%
D21*
%TO.P,R2,1*%
%TO.N,GND*%
X84620000Y-56950000D03*
%TO.P,R2,2*%
%TO.N,Net-(U1-CLK_OUT3)*%
X84620000Y-57970000D03*
%TD*%
D13*
%TO.P,C13,1*%
%TO.N,Heim_time_out_3*%
X82750000Y-57930000D03*
%TO.P,C13,2*%
%TO.N,Net-(U1-CLK_OUT3)*%
X83710000Y-57930000D03*
%TD*%
D10*
%TO.P,C3,1*%
%TO.N,GND*%
X87720000Y-55550000D03*
%TO.P,C3,2*%
%TO.N,+3V3*%
X87720000Y-56510000D03*
%TD*%
D19*
%TO.P,R11,1*%
%TO.N,GND*%
X89470000Y-61470000D03*
%TO.P,R11,2*%
%TO.N,Heim_time_in*%
X89470000Y-60450000D03*
%TD*%
%TO.P,R16,1*%
%TO.N,GND*%
X76875000Y-69220000D03*
%TO.P,R16,2*%
%TO.N,Net-(U3-CLK_OUT1)*%
X76875000Y-68200000D03*
%TD*%
D11*
%TO.P,C21,1*%
%TO.N,Master_trigger_out_4*%
X83075000Y-67640000D03*
%TO.P,C21,2*%
%TO.N,Net-(U3-CLK_OUT4)*%
X82115000Y-67640000D03*
%TD*%
D21*
%TO.P,R13,1*%
%TO.N,GND*%
X81215000Y-66660000D03*
%TO.P,R13,2*%
%TO.N,Net-(U3-CLK_OUT4)*%
X81215000Y-67680000D03*
%TD*%
D12*
%TO.P,R15,1*%
%TO.N,GND*%
X77755000Y-65790000D03*
%TO.P,R15,2*%
%TO.N,Net-(U3-CLK_OUT2)*%
X78775000Y-65790000D03*
%TD*%
D10*
%TO.P,C20,1*%
%TO.N,Master_trigger_out_3*%
X79955000Y-63910000D03*
%TO.P,C20,2*%
%TO.N,Net-(U3-CLK_OUT3)*%
X79955000Y-64870000D03*
%TD*%
D22*
%TO.N,Master_trigger_in*%
X120450000Y-79460000D03*
%TO.N,GND*%
X65100000Y-54950000D03*
X88060000Y-61010000D03*
X79885000Y-70880002D03*
X81215000Y-66660000D03*
X84630000Y-60130000D03*
X90810000Y-58740000D03*
X89720002Y-58000000D03*
X82335000Y-68880000D03*
X79145000Y-71970000D03*
X65100000Y-60950000D03*
X80324750Y-67333142D03*
X89470000Y-61470000D03*
X85500000Y-56670000D03*
X65100000Y-56950000D03*
X76415000Y-70630000D03*
X80935000Y-65780000D03*
X87720000Y-55550000D03*
X65100000Y-55950000D03*
X86173142Y-57560250D03*
X65100000Y-57950000D03*
X84620000Y-56950000D03*
X65100000Y-53950000D03*
X65100000Y-52950000D03*
X65100000Y-58950000D03*
X65100000Y-59950000D03*
X76875000Y-69220000D03*
X77755000Y-65790000D03*
X86160000Y-60770000D03*
X77115000Y-67320000D03*
%TO.N,Heim_time_in*%
X121450000Y-79470000D03*
%TO.N,+3V3*%
X122090000Y-80510000D03*
X122090000Y-79670000D03*
X122090000Y-80090000D03*
%TO.N,Heim_time_out_1*%
X65910797Y-56426770D03*
%TO.N,Heim_time_out_2*%
X66280000Y-55460000D03*
%TO.N,Heim_time_out_3*%
X66250000Y-54450000D03*
%TO.N,Heim_time_out_4*%
X66070000Y-53450000D03*
%TO.N,Master_trigger_out_1*%
X65890507Y-60440768D03*
%TO.N,Master_trigger_out_2*%
X65920000Y-59450000D03*
%TO.N,Master_trigger_out_3*%
X66010000Y-58450000D03*
%TO.N,Master_trigger_out_4*%
X65913783Y-57451412D03*
%TD*%
D23*
%TO.N,GND*%
X86552892Y-57940000D02*
X86173142Y-57560250D01*
X89045000Y-58340000D02*
X89380002Y-58340000D01*
X79945000Y-67712892D02*
X80324750Y-67333142D01*
X87720000Y-59665000D02*
X87720000Y-60670000D01*
X78220000Y-68880000D02*
X77215000Y-68880000D01*
X86795000Y-57940000D02*
X86552892Y-57940000D01*
X79545000Y-70540002D02*
X79885000Y-70880002D01*
X77215000Y-68880000D02*
X76875000Y-69220000D01*
X89380002Y-58340000D02*
X89720002Y-58000000D01*
X79945000Y-67955000D02*
X79945000Y-67712892D01*
X79545000Y-70205000D02*
X79545000Y-70540002D01*
X87720000Y-60670000D02*
X88060000Y-61010000D01*
%TO.N,Heim_time_in*%
X91740000Y-71880000D02*
X91740000Y-61567107D01*
X90622893Y-60450000D02*
X89470000Y-60450000D01*
X121450000Y-79470000D02*
X121450000Y-75930020D01*
D24*
X89470000Y-60450000D02*
X89260000Y-60240000D01*
D23*
X91593553Y-61213553D02*
X90976446Y-60596446D01*
X118999980Y-73480000D02*
X93340000Y-73480000D01*
D24*
X88120000Y-60180000D02*
X88290000Y-60350000D01*
X89370000Y-60350000D02*
X89470000Y-60450000D01*
X88290000Y-60350000D02*
X89370000Y-60350000D01*
X88120000Y-59665000D02*
X88120000Y-60180000D01*
X89430000Y-60410000D02*
G75*
G02*
X89470000Y-60450000I0J-40000D01*
G01*
D23*
X93340000Y-73480000D02*
G75*
G02*
X91740000Y-71880000I0J1600000D01*
G01*
X121450000Y-75930020D02*
G75*
G03*
X118999980Y-73480000I-2450000J20D01*
G01*
X91740000Y-61567107D02*
G75*
G03*
X91593556Y-61213550I-500000J7D01*
G01*
X90976446Y-60596446D02*
G75*
G03*
X90622893Y-60450005I-353546J-353554D01*
G01*
D24*
X89260000Y-60240000D02*
G75*
G02*
X89470000Y-60450000I0J-210000D01*
G01*
%TO.N,Master_trigger_in*%
X77435000Y-70630000D02*
X77645000Y-70420000D01*
X78220000Y-69280000D02*
X77705000Y-69280000D01*
X77535000Y-70530000D02*
X77435000Y-70630000D01*
X77705000Y-69280000D02*
X77535000Y-69450000D01*
X77535000Y-69450000D02*
X77535000Y-70530000D01*
X77475000Y-70590000D02*
G75*
G02*
X77435000Y-70630000I-40000J0D01*
G01*
X77645000Y-70420000D02*
G75*
G02*
X77435000Y-70630000I-210000J0D01*
G01*
D23*
%TO.N,+3V3*%
X80470000Y-68880000D02*
X81375000Y-68880000D01*
X78075000Y-67320000D02*
X78075000Y-67760000D01*
X86795000Y-59615000D02*
X86795000Y-59140000D01*
X86600000Y-59810000D02*
X86795000Y-59615000D01*
X78075000Y-67760000D02*
X78270000Y-67955000D01*
X86160000Y-59810000D02*
X86600000Y-59810000D01*
X78270000Y-67955000D02*
X78745000Y-67955000D01*
X87720000Y-57415000D02*
X87720000Y-56510000D01*
D25*
%TO.N,Heim_time_out_1*%
X65910797Y-56426770D02*
X65934027Y-56450000D01*
X77232893Y-56742893D02*
X83067107Y-62577107D01*
X65934027Y-56450000D02*
X76525786Y-56450000D01*
X83774214Y-62870000D02*
X87080000Y-62870000D01*
X83067107Y-62577107D02*
G75*
G03*
X83774214Y-62869990I707093J707107D01*
G01*
X76525786Y-56450000D02*
G75*
G02*
X77232900Y-56742886I14J-1000000D01*
G01*
%TO.N,Heim_time_out_2*%
X77762893Y-55752893D02*
X80867107Y-58857107D01*
X81574214Y-59150000D02*
X82770000Y-59150000D01*
X66280000Y-55460000D02*
X77055786Y-55460000D01*
X80867107Y-58857107D02*
G75*
G03*
X81574214Y-59149990I707093J707107D01*
G01*
X77762893Y-55752893D02*
G75*
G03*
X77055786Y-55460010I-707093J-707107D01*
G01*
%TO.N,Heim_time_out_3*%
X81077107Y-57637107D02*
X78940000Y-55500000D01*
X77475786Y-54450000D02*
X66250000Y-54450000D01*
X82750000Y-57930000D02*
X81784214Y-57930000D01*
X78940000Y-55500000D02*
X78182893Y-54742893D01*
X78182893Y-54742893D02*
G75*
G03*
X77475786Y-54450010I-707093J-707107D01*
G01*
X81784214Y-57930000D02*
G75*
G02*
X81077100Y-57637114I-14J1000000D01*
G01*
%TO.N,Heim_time_out_4*%
X83495786Y-53450000D02*
X66070000Y-53450000D01*
X86480000Y-54810000D02*
X85684214Y-54810000D01*
X84977107Y-54517107D02*
X84202893Y-53742893D01*
X83495786Y-53450000D02*
G75*
G02*
X84202900Y-53742886I14J-1000000D01*
G01*
X85684214Y-54810000D02*
G75*
G02*
X84977100Y-54517114I-14J1000000D01*
G01*
D23*
%TO.N,Net-(U1-CLK_OUT1)*%
X87040000Y-61870000D02*
X87080000Y-61910000D01*
X87320000Y-59665000D02*
X87320000Y-59980000D01*
X87320000Y-59980000D02*
X87040000Y-60260000D01*
X87040000Y-61010000D02*
X87040000Y-61870000D01*
X87040000Y-60260000D02*
X87040000Y-61010000D01*
D25*
%TO.N,Master_trigger_out_1*%
X75015000Y-68240000D02*
X75015000Y-63599214D01*
X65891275Y-60440000D02*
X65890507Y-60440768D01*
X71855786Y-60440000D02*
X65891275Y-60440000D01*
X74722107Y-62892107D02*
X72562893Y-60732893D01*
X71855786Y-60440000D02*
G75*
G02*
X72562900Y-60732886I14J-1000000D01*
G01*
X75015000Y-63599214D02*
G75*
G03*
X74722114Y-62892100I-1000000J14D01*
G01*
D23*
%TO.N,Net-(U3-CLK_OUT1)*%
X76015000Y-68200000D02*
X75975000Y-68240000D01*
X76875000Y-68200000D02*
X76015000Y-68200000D01*
X78220000Y-68480000D02*
X77905000Y-68480000D01*
X77905000Y-68480000D02*
X77625000Y-68200000D01*
X77625000Y-68200000D02*
X76875000Y-68200000D01*
%TO.N,Net-(U3-CLK_OUT2)*%
X78775000Y-64930000D02*
X78735000Y-64890000D01*
X79145000Y-67410000D02*
X78775000Y-67040000D01*
X78775000Y-65790000D02*
X78775000Y-64930000D01*
X79145000Y-67955000D02*
X79145000Y-67410000D01*
X78775000Y-67040000D02*
X78775000Y-65790000D01*
D25*
%TO.N,Master_trigger_out_2*%
X78735000Y-63930000D02*
X78124732Y-63930000D01*
X77894730Y-63834730D02*
X73802893Y-59742893D01*
X73095786Y-59450000D02*
X65920000Y-59450000D01*
X73802893Y-59742893D02*
G75*
G03*
X73095786Y-59450010I-707093J-707107D01*
G01*
X77894730Y-63834730D02*
G75*
G03*
X78124732Y-63929969I229970J230030D01*
G01*
D23*
%TO.N,Net-(U3-CLK_OUT3)*%
X79545000Y-67400000D02*
X79915000Y-67030000D01*
X79915000Y-65780000D02*
X79915000Y-64910000D01*
X79545000Y-67955000D02*
X79545000Y-67400000D01*
X79915000Y-64910000D02*
X79955000Y-64870000D01*
X79915000Y-67030000D02*
X79915000Y-65780000D01*
D25*
%TO.N,Master_trigger_out_3*%
X74645786Y-58450000D02*
X66010000Y-58450000D01*
X79955000Y-63910000D02*
X79955000Y-63457070D01*
X79875755Y-63265755D02*
X75352893Y-58742893D01*
X79955000Y-63457070D02*
G75*
G03*
X79875748Y-63265762I-270600J-30D01*
G01*
X75352893Y-58742893D02*
G75*
G03*
X74645786Y-58450010I-707093J-707107D01*
G01*
D23*
%TO.N,Net-(U3-CLK_OUT4)*%
X80470000Y-67895000D02*
X80470000Y-68480000D01*
X80685000Y-67680000D02*
X80470000Y-67895000D01*
X81215000Y-67680000D02*
X80685000Y-67680000D01*
X82115000Y-67640000D02*
X81255000Y-67640000D01*
X81255000Y-67640000D02*
X81215000Y-67680000D01*
D25*
%TO.N,Master_trigger_out_4*%
X75817198Y-57451412D02*
X65913783Y-57451412D01*
X83075000Y-67640000D02*
X83075000Y-64699214D01*
X82782107Y-63992107D02*
X82772107Y-63992107D01*
X82772107Y-63992107D02*
X76524305Y-57744305D01*
X76524305Y-57744305D02*
G75*
G03*
X75817198Y-57451410I-707105J-707095D01*
G01*
X83075000Y-64699214D02*
G75*
G03*
X82782114Y-63992100I-1000000J14D01*
G01*
D23*
%TO.N,Net-(U1-CLK_OUT2)*%
X85880000Y-59110000D02*
X84630000Y-59110000D01*
X84630000Y-59110000D02*
X83770000Y-59110000D01*
X83770000Y-59110000D02*
X83730000Y-59150000D01*
X86250000Y-58740000D02*
X85880000Y-59110000D01*
X86795000Y-58740000D02*
X86250000Y-58740000D01*
%TO.N,Net-(U1-CLK_OUT3)*%
X83750000Y-57970000D02*
X83710000Y-57930000D01*
X84620000Y-57970000D02*
X83750000Y-57970000D01*
X86240000Y-58340000D02*
X85870000Y-57970000D01*
X86795000Y-58340000D02*
X86240000Y-58340000D01*
X85870000Y-57970000D02*
X84620000Y-57970000D01*
%TO.N,Net-(U1-CLK_OUT4)*%
X86480000Y-56630000D02*
X86520000Y-56670000D01*
X86735000Y-57415000D02*
X87320000Y-57415000D01*
X86480000Y-55770000D02*
X86480000Y-56630000D01*
X86520000Y-57200000D02*
X86735000Y-57415000D01*
X86520000Y-56670000D02*
X86520000Y-57200000D01*
%TO.N,Master_trigger_in*%
X77450000Y-72267893D02*
X77450000Y-70595000D01*
X77596446Y-72621446D02*
G75*
G02*
X77450005Y-72267893I353554J353546D01*
G01*
X79652107Y-74470000D02*
G75*
G02*
X79298550Y-74323556I-7J500000D01*
G01*
X79298553Y-74323553D02*
X77596446Y-72621446D01*
X119000000Y-74470000D02*
X79652107Y-74470000D01*
X120450000Y-75920000D02*
G75*
G03*
X119000000Y-74470000I-1450000J0D01*
G01*
X120450000Y-79460000D02*
X120450000Y-75920000D01*
%TD*%
%TA.AperFunction,Conductor*%
%TO.N,+3V3*%
G36*
X89320000Y-57150000D02*
G01*
X89320000Y-58040000D01*
X88770000Y-58040000D01*
X88670000Y-57940000D01*
X88670000Y-57790000D01*
X88520000Y-57790000D01*
X88420000Y-57690000D01*
X88420000Y-57140000D01*
X89320000Y-57150000D01*
G37*
%TD.AperFunction*%
%TD*%
%TA.AperFunction,Conductor*%
%TO.N,+3V3*%
G36*
X78590000Y-69647857D02*
G01*
X78590000Y-69830000D01*
X78845000Y-69830000D01*
X79245000Y-69930000D01*
X79245000Y-70480000D01*
X79353043Y-70600509D01*
X79375024Y-70653576D01*
X79375025Y-70653577D01*
X79375025Y-70653578D01*
X79447226Y-70725778D01*
X79450770Y-70729728D01*
X79453030Y-70732540D01*
X79462616Y-70748899D01*
X79500014Y-70790995D01*
X79500777Y-70791944D01*
X79500877Y-70792288D01*
X79503813Y-70796161D01*
X79505000Y-70798009D01*
X79505000Y-71380000D01*
X77945000Y-71380000D01*
X77945000Y-69580000D01*
X78495000Y-69580000D01*
X78590000Y-69647857D01*
G37*
%TD.AperFunction*%
%TD*%
%TA.AperFunction,Conductor*%
%TO.N,+3V3*%
G36*
X90220000Y-59940000D02*
G01*
X88420000Y-59940000D01*
X88420000Y-59390000D01*
X88491429Y-59290000D01*
X88670000Y-59290000D01*
X88670000Y-59040000D01*
X88770000Y-58640000D01*
X89320000Y-58640000D01*
X89440508Y-58531957D01*
X89493576Y-58509976D01*
X89565795Y-58437755D01*
X89569727Y-58434229D01*
X89572536Y-58431970D01*
X89588902Y-58422382D01*
X89631017Y-58384966D01*
X89631944Y-58384221D01*
X89632289Y-58384120D01*
X89636154Y-58381189D01*
X89638007Y-58380000D01*
X90220000Y-58380000D01*
X90220000Y-59940000D01*
G37*
%TD.AperFunction*%
%TD*%
%TA.AperFunction,Conductor*%
%TO.N,+3V3*%
G36*
X89320000Y-58640000D02*
G01*
X88770000Y-58640000D01*
X88670000Y-59040000D01*
X88670000Y-58582284D01*
X88684352Y-58547636D01*
X88719000Y-58533284D01*
X88728560Y-58534226D01*
X88730786Y-58534668D01*
X88730787Y-58534669D01*
X88760101Y-58540500D01*
X88999408Y-58540499D01*
X88999418Y-58540500D01*
X89005118Y-58540500D01*
X89419882Y-58540500D01*
X89419884Y-58540500D01*
X89440510Y-58531956D01*
X89320000Y-58640000D01*
G37*
%TD.AperFunction*%
%TA.AperFunction,Conductor*%
G36*
X79337364Y-69844352D02*
G01*
X79351716Y-69879000D01*
X79350774Y-69888560D01*
X79344500Y-69920097D01*
X79344500Y-69920101D01*
X79344500Y-70165116D01*
X79344500Y-70165118D01*
X79344500Y-70500120D01*
X79344500Y-70579884D01*
X79353043Y-70600510D01*
X79245000Y-70480000D01*
X79245000Y-69930000D01*
X78845000Y-69830000D01*
X79302716Y-69830000D01*
X79337364Y-69844352D01*
G37*
%TD.AperFunction*%
%TA.AperFunction,Conductor*%
G36*
X92112733Y-52550807D02*
G01*
X92249048Y-52566166D01*
X92259732Y-52568605D01*
X92386596Y-52612997D01*
X92396478Y-52617756D01*
X92510283Y-52689263D01*
X92518862Y-52696105D01*
X92613894Y-52791137D01*
X92620736Y-52799716D01*
X92692242Y-52913519D01*
X92697002Y-52923404D01*
X92741392Y-53050260D01*
X92743834Y-53060958D01*
X92759192Y-53197266D01*
X92759500Y-53202752D01*
X92759500Y-71693071D01*
X92759500Y-71720000D01*
X92759500Y-71803767D01*
X92774664Y-71880000D01*
X92792183Y-71968079D01*
X92792185Y-71968085D01*
X92856296Y-72122862D01*
X92949371Y-72262159D01*
X93067840Y-72380628D01*
X93186623Y-72459996D01*
X93207137Y-72473703D01*
X93361918Y-72537816D01*
X93526233Y-72570500D01*
X93590009Y-72570500D01*
X118973071Y-72570500D01*
X118998714Y-72570500D01*
X119001278Y-72570567D01*
X119347561Y-72588715D01*
X119352643Y-72589249D01*
X119693871Y-72643294D01*
X119698883Y-72644360D01*
X120032574Y-72733772D01*
X120037446Y-72735355D01*
X120359968Y-72859159D01*
X120364644Y-72861241D01*
X120672462Y-73018082D01*
X120676900Y-73020644D01*
X120966638Y-73208802D01*
X120970775Y-73211808D01*
X121177330Y-73379072D01*
X121239260Y-73429222D01*
X121243071Y-73432654D01*
X121487345Y-73676928D01*
X121490777Y-73680739D01*
X121699234Y-73938163D01*
X121708186Y-73949217D01*
X121711201Y-73953367D01*
X121899353Y-74243096D01*
X121901917Y-74247537D01*
X122058756Y-74555350D01*
X122060842Y-74560036D01*
X122184643Y-74882550D01*
X122186228Y-74887428D01*
X122275638Y-75221113D01*
X122276705Y-75226130D01*
X122330749Y-75567346D01*
X122331285Y-75572446D01*
X122349433Y-75918720D01*
X122349500Y-75921285D01*
X122349500Y-81166142D01*
X122348897Y-81173807D01*
X122348897Y-81173808D01*
X122340949Y-81223985D01*
X122336211Y-81238565D01*
X122314921Y-81280349D01*
X122305910Y-81292751D01*
X122272751Y-81325910D01*
X122260349Y-81334921D01*
X122218565Y-81356211D01*
X122203985Y-81360949D01*
X122159831Y-81367942D01*
X122153806Y-81368897D01*
X122146142Y-81369500D01*
X120253858Y-81369500D01*
X120246193Y-81368897D01*
X120238950Y-81367749D01*
X120196014Y-81360949D01*
X120181434Y-81356211D01*
X120139650Y-81334921D01*
X120127248Y-81325910D01*
X120094089Y-81292751D01*
X120085078Y-81280349D01*
X120063788Y-81238565D01*
X120059050Y-81223984D01*
X120051103Y-81173807D01*
X120050500Y-81166142D01*
X120050500Y-75828099D01*
X120050500Y-75828093D01*
X120018581Y-75647072D01*
X119955713Y-75474344D01*
X119955711Y-75474340D01*
X119955709Y-75474336D01*
X119863809Y-75315160D01*
X119863806Y-75315156D01*
X119745653Y-75174347D01*
X119604844Y-75056194D01*
X119604843Y-75056193D01*
X119604839Y-75056190D01*
X119445663Y-74964290D01*
X119445654Y-74964286D01*
X119272932Y-74901420D01*
X119272929Y-74901419D01*
X119272928Y-74901419D01*
X119091907Y-74869500D01*
X73612752Y-74869500D01*
X73607266Y-74869192D01*
X73470958Y-74853834D01*
X73460260Y-74851392D01*
X73333404Y-74807002D01*
X73323519Y-74802242D01*
X73209716Y-74730736D01*
X73201137Y-74723894D01*
X73106105Y-74628862D01*
X73099263Y-74620283D01*
X73080724Y-74590778D01*
X73027756Y-74506478D01*
X73022997Y-74496595D01*
X73013020Y-74468082D01*
X72978605Y-74369732D01*
X72976166Y-74359048D01*
X72960808Y-74222733D01*
X72960500Y-74217247D01*
X72960500Y-70386800D01*
X76059500Y-70386800D01*
X76059500Y-70803199D01*
X76073163Y-70871886D01*
X76125213Y-70949786D01*
X76164163Y-70975811D01*
X76203112Y-71001836D01*
X76271804Y-71015500D01*
X76588196Y-71015500D01*
X76656888Y-71001836D01*
X76734786Y-70949786D01*
X76786836Y-70871888D01*
X76800500Y-70803196D01*
X76800500Y-70386804D01*
X76786836Y-70318112D01*
X76760811Y-70279163D01*
X76734786Y-70240213D01*
X76665499Y-70193918D01*
X76656888Y-70188164D01*
X76656887Y-70188163D01*
X76656886Y-70188163D01*
X76588199Y-70174500D01*
X76588196Y-70174500D01*
X76271804Y-70174500D01*
X76271800Y-70174500D01*
X76203113Y-70188163D01*
X76125213Y-70240213D01*
X76073163Y-70318113D01*
X76059500Y-70386800D01*
X72960500Y-70386800D01*
X72960500Y-62116236D01*
X72960500Y-62116233D01*
X72927816Y-61951918D01*
X72863703Y-61797137D01*
X72862304Y-61795043D01*
X72770628Y-61657840D01*
X72652159Y-61539371D01*
X72512862Y-61446296D01*
X72358085Y-61382185D01*
X72358079Y-61382183D01*
X72291816Y-61369002D01*
X72193767Y-61349500D01*
X72193764Y-61349500D01*
X63403858Y-61349500D01*
X63396193Y-61348897D01*
X63388950Y-61347749D01*
X63346014Y-61340949D01*
X63331434Y-61336211D01*
X63289650Y-61314921D01*
X63277248Y-61305910D01*
X63244089Y-61272751D01*
X63235078Y-61260349D01*
X63213788Y-61218565D01*
X63209050Y-61203984D01*
X63201103Y-61153807D01*
X63200500Y-61146142D01*
X63200500Y-60910436D01*
X64799500Y-60910436D01*
X64799500Y-60989563D01*
X64809739Y-61027775D01*
X64819979Y-61065989D01*
X64859540Y-61134511D01*
X64915489Y-61190460D01*
X64984011Y-61230021D01*
X65003705Y-61235298D01*
X65060436Y-61250500D01*
X65060438Y-61250500D01*
X65139564Y-61250500D01*
X65167134Y-61243112D01*
X65215989Y-61230021D01*
X65284511Y-61190460D01*
X65340460Y-61134511D01*
X65380021Y-61065989D01*
X65390260Y-61027775D01*
X65400500Y-60989563D01*
X65400500Y-60910436D01*
X65391843Y-60878134D01*
X65380021Y-60834011D01*
X65380020Y-60834009D01*
X65380020Y-60834008D01*
X65350901Y-60783574D01*
X65340460Y-60765489D01*
X65284511Y-60709540D01*
X65274713Y-60703883D01*
X65215990Y-60669979D01*
X65139564Y-60649500D01*
X65139562Y-60649500D01*
X65060438Y-60649500D01*
X65060436Y-60649500D01*
X64984010Y-60669979D01*
X64984008Y-60669979D01*
X64915488Y-60709540D01*
X64915488Y-60709541D01*
X64859541Y-60765488D01*
X64859540Y-60765488D01*
X64819979Y-60834008D01*
X64819979Y-60834010D01*
X64799500Y-60910436D01*
X63200500Y-60910436D01*
X63200500Y-60401204D01*
X65590007Y-60401204D01*
X65590007Y-60480331D01*
X65610486Y-60556757D01*
X65610486Y-60556759D01*
X65634493Y-60598339D01*
X65650047Y-60625279D01*
X65705996Y-60681228D01*
X65774518Y-60720789D01*
X65809985Y-60730292D01*
X65850943Y-60741268D01*
X65850945Y-60741268D01*
X65930067Y-60741268D01*
X65930069Y-60741268D01*
X65946123Y-60736965D01*
X65952588Y-60735693D01*
X65961316Y-60734576D01*
X65975594Y-60732752D01*
X66078030Y-60698415D01*
X66087892Y-60694548D01*
X66090035Y-60693581D01*
X66099494Y-60688725D01*
X66143200Y-60663425D01*
X66145346Y-60662255D01*
X66200691Y-60633882D01*
X66211596Y-60629844D01*
X66231257Y-60625126D01*
X66239412Y-60623885D01*
X66271465Y-60621747D01*
X66282754Y-60620995D01*
X66282757Y-60620994D01*
X66282765Y-60620994D01*
X66292544Y-60618535D01*
X66298735Y-60616979D01*
X66310682Y-60615500D01*
X71820879Y-60615500D01*
X71853863Y-60615500D01*
X71857706Y-60615651D01*
X71873881Y-60616923D01*
X71980931Y-60625347D01*
X71988513Y-60626548D01*
X72106829Y-60654951D01*
X72114132Y-60657324D01*
X72226545Y-60703885D01*
X72233387Y-60707371D01*
X72328230Y-60765489D01*
X72337134Y-60770945D01*
X72343355Y-60775465D01*
X72437248Y-60855656D01*
X72440073Y-60858268D01*
X74596642Y-63014837D01*
X74599254Y-63017662D01*
X74679526Y-63111650D01*
X74684046Y-63117871D01*
X74747617Y-63221613D01*
X74751107Y-63228464D01*
X74797664Y-63340865D01*
X74800040Y-63348178D01*
X74828440Y-63466480D01*
X74829643Y-63474074D01*
X74839349Y-63597424D01*
X74839500Y-63601268D01*
X74839500Y-67791636D01*
X74825148Y-67826284D01*
X74800060Y-67839694D01*
X74781162Y-67843453D01*
X74701608Y-67896608D01*
X74648452Y-67976163D01*
X74634500Y-68046306D01*
X74634500Y-68433693D01*
X74648452Y-68503836D01*
X74701608Y-68583391D01*
X74754524Y-68618748D01*
X74781161Y-68636546D01*
X74781163Y-68636547D01*
X74851306Y-68650499D01*
X74851312Y-68650500D01*
X75178688Y-68650500D01*
X75181322Y-68649976D01*
X75248836Y-68636547D01*
X75248836Y-68636546D01*
X75248839Y-68636546D01*
X75328391Y-68583391D01*
X75381546Y-68503839D01*
X75385602Y-68483452D01*
X75395499Y-68433693D01*
X75395500Y-68433688D01*
X75395500Y-68046312D01*
X75395499Y-68046306D01*
X75594500Y-68046306D01*
X75594500Y-68433693D01*
X75608452Y-68503836D01*
X75661608Y-68583391D01*
X75714524Y-68618748D01*
X75741161Y-68636546D01*
X75741163Y-68636547D01*
X75811306Y-68650499D01*
X75811312Y-68650500D01*
X76138688Y-68650500D01*
X76141322Y-68649976D01*
X76208836Y-68636547D01*
X76208836Y-68636546D01*
X76208839Y-68636546D01*
X76288391Y-68583391D01*
X76341546Y-68503839D01*
X76348377Y-68469500D01*
X76354257Y-68439940D01*
X76362197Y-68428055D01*
X76367667Y-68414852D01*
X76372303Y-68412931D01*
X76375092Y-68408758D01*
X76402315Y-68400500D01*
X76424493Y-68400500D01*
X76459141Y-68414852D01*
X76464806Y-68423326D01*
X76465483Y-68422875D01*
X76520213Y-68504786D01*
X76559163Y-68530811D01*
X76598112Y-68556836D01*
X76666804Y-68570500D01*
X77083196Y-68570500D01*
X77151888Y-68556836D01*
X77229786Y-68504786D01*
X77281836Y-68426888D01*
X77281836Y-68426887D01*
X77284517Y-68422875D01*
X77286667Y-68424311D01*
X77306775Y-68404222D01*
X77325507Y-68400500D01*
X77521654Y-68400500D01*
X77556302Y-68414852D01*
X77737301Y-68595852D01*
X77751653Y-68630500D01*
X77737301Y-68665148D01*
X77702653Y-68679500D01*
X77175116Y-68679500D01*
X77101424Y-68710025D01*
X77101423Y-68710025D01*
X76976302Y-68835148D01*
X76941654Y-68849500D01*
X76666800Y-68849500D01*
X76598113Y-68863163D01*
X76520213Y-68915213D01*
X76468163Y-68993113D01*
X76454500Y-69061800D01*
X76454500Y-69378199D01*
X76468163Y-69446886D01*
X76468163Y-69446887D01*
X76468164Y-69446888D01*
X76471883Y-69452454D01*
X76520213Y-69524786D01*
X76559163Y-69550811D01*
X76598112Y-69576836D01*
X76666804Y-69590500D01*
X77083196Y-69590500D01*
X77151888Y-69576836D01*
X77229786Y-69524786D01*
X77281836Y-69446888D01*
X77285096Y-69430500D01*
X77287442Y-69418708D01*
X77296392Y-69405312D01*
X77294311Y-69384171D01*
X77295500Y-69378196D01*
X77295500Y-69129500D01*
X77309852Y-69094852D01*
X77344500Y-69080500D01*
X77573364Y-69080500D01*
X77608012Y-69094852D01*
X77622364Y-69129500D01*
X77608012Y-69164148D01*
X77407414Y-69364745D01*
X77407411Y-69364750D01*
X77396996Y-69389897D01*
X77396994Y-69389900D01*
X77387638Y-69412485D01*
X77381557Y-69418565D01*
X77384500Y-69428267D01*
X77384500Y-70125500D01*
X77370148Y-70160148D01*
X77335500Y-70174500D01*
X77291800Y-70174500D01*
X77223113Y-70188163D01*
X77145213Y-70240213D01*
X77093163Y-70318113D01*
X77079500Y-70386800D01*
X77079500Y-70803199D01*
X77093163Y-70871886D01*
X77145213Y-70949786D01*
X77195871Y-70983634D01*
X77223112Y-71001836D01*
X77227125Y-71004517D01*
X77225680Y-71006678D01*
X77245751Y-71026709D01*
X77249500Y-71045506D01*
X77249500Y-72312430D01*
X77249504Y-72312469D01*
X77249504Y-72336883D01*
X77273991Y-72459996D01*
X77276422Y-72472218D01*
X77276422Y-72472219D01*
X77329227Y-72599704D01*
X77405881Y-72714428D01*
X77405885Y-72714433D01*
X77424755Y-72733304D01*
X77424765Y-72733315D01*
X77426470Y-72735020D01*
X79128577Y-74437127D01*
X79128578Y-74437129D01*
X79137883Y-74446434D01*
X79143844Y-74452395D01*
X79143846Y-74452401D01*
X79143848Y-74452406D01*
X79156776Y-74465333D01*
X79205563Y-74514118D01*
X79320296Y-74590778D01*
X79447780Y-74643582D01*
X79583116Y-74670501D01*
X79652110Y-74670500D01*
X118960118Y-74670500D01*
X118998075Y-74670500D01*
X119001918Y-74670650D01*
X119191625Y-74685580D01*
X119199211Y-74686782D01*
X119347693Y-74722430D01*
X119382368Y-74730755D01*
X119389681Y-74733131D01*
X119563705Y-74805214D01*
X119570545Y-74808699D01*
X119731151Y-74907119D01*
X119737362Y-74911630D01*
X119810040Y-74973703D01*
X119880597Y-75033965D01*
X119886034Y-75039402D01*
X119900376Y-75056194D01*
X120001288Y-75174347D01*
X120008365Y-75182632D01*
X120012882Y-75188850D01*
X120016715Y-75195105D01*
X120111297Y-75349449D01*
X120114788Y-75356300D01*
X120186868Y-75530319D01*
X120189244Y-75537631D01*
X120233216Y-75720784D01*
X120234419Y-75728378D01*
X120249349Y-75918080D01*
X120249500Y-75921925D01*
X120249500Y-79041395D01*
X120249212Y-79046696D01*
X120248821Y-79050288D01*
X120244033Y-79068627D01*
X120240710Y-79124821D01*
X120240578Y-79126042D01*
X120240406Y-79126355D01*
X120239744Y-79131169D01*
X120232887Y-79162652D01*
X120230362Y-79170775D01*
X120209520Y-79221730D01*
X120209272Y-79222324D01*
X120182692Y-79284947D01*
X120180134Y-79291586D01*
X120179626Y-79293049D01*
X120177498Y-79299923D01*
X120155340Y-79381191D01*
X120154475Y-79384586D01*
X120154299Y-79385326D01*
X120154298Y-79385332D01*
X120154035Y-79398036D01*
X120152377Y-79409697D01*
X120149500Y-79420436D01*
X120149500Y-79499563D01*
X120169979Y-79575989D01*
X120169979Y-79575991D01*
X120209540Y-79644511D01*
X120265489Y-79700460D01*
X120334011Y-79740021D01*
X120369478Y-79749524D01*
X120410436Y-79760500D01*
X120410438Y-79760500D01*
X120489564Y-79760500D01*
X120516230Y-79753354D01*
X120565989Y-79740021D01*
X120634511Y-79700460D01*
X120690460Y-79644511D01*
X120730021Y-79575989D01*
X120747820Y-79509563D01*
X120750500Y-79499563D01*
X120750500Y-79420436D01*
X120747396Y-79408855D01*
X120746754Y-79406460D01*
X120745351Y-79398874D01*
X120743120Y-79377446D01*
X120714493Y-79284958D01*
X120706450Y-79258973D01*
X120704258Y-79252616D01*
X120703729Y-79251227D01*
X120701141Y-79245029D01*
X120691086Y-79222964D01*
X120689971Y-79220313D01*
X120670821Y-79170775D01*
X120668533Y-79164857D01*
X120665513Y-79152374D01*
X120663924Y-79137440D01*
X120656021Y-79063144D01*
X120653331Y-79053639D01*
X120652352Y-79050181D01*
X120650500Y-79036836D01*
X120650500Y-75801958D01*
X120650499Y-75801949D01*
X120647512Y-75781171D01*
X120616901Y-75568265D01*
X120550386Y-75341736D01*
X120452309Y-75126979D01*
X120452307Y-75126977D01*
X120452305Y-75126971D01*
X120324671Y-74928369D01*
X120324666Y-74928363D01*
X120170061Y-74749938D01*
X119991636Y-74595333D01*
X119991630Y-74595328D01*
X119793028Y-74467695D01*
X119793028Y-74467694D01*
X119578263Y-74369613D01*
X119351735Y-74303099D01*
X119351732Y-74303098D01*
X119118050Y-74269500D01*
X119118046Y-74269500D01*
X119039882Y-74269500D01*
X79697693Y-74269500D01*
X79691987Y-74269499D01*
X79691986Y-74269499D01*
X79674206Y-74269499D01*
X79655314Y-74269499D01*
X79655313Y-74269498D01*
X79648920Y-74269080D01*
X79580981Y-74260137D01*
X79568625Y-74256826D01*
X79508315Y-74231845D01*
X79497237Y-74225450D01*
X79442897Y-74183755D01*
X79438078Y-74179528D01*
X77740497Y-72481947D01*
X77736270Y-72477128D01*
X77733642Y-72473703D01*
X77694551Y-72422757D01*
X77688159Y-72411685D01*
X77663177Y-72351371D01*
X77659867Y-72339016D01*
X77656841Y-72316032D01*
X77650918Y-72271040D01*
X77650500Y-72264645D01*
X77650500Y-72262159D01*
X77650501Y-72228014D01*
X77650500Y-72228011D01*
X77650500Y-71896306D01*
X78734500Y-71896306D01*
X78734500Y-72223693D01*
X78748452Y-72293836D01*
X78801608Y-72373391D01*
X78846959Y-72403693D01*
X78881161Y-72426546D01*
X78881163Y-72426547D01*
X78951306Y-72440499D01*
X78951312Y-72440500D01*
X79338688Y-72440500D01*
X79339625Y-72440313D01*
X79408836Y-72426547D01*
X79408836Y-72426546D01*
X79408839Y-72426546D01*
X79488391Y-72373391D01*
X79541546Y-72293839D01*
X79546707Y-72267896D01*
X79555499Y-72223693D01*
X79555500Y-72223688D01*
X79555500Y-71896312D01*
X79555499Y-71896306D01*
X79541547Y-71826163D01*
X79488391Y-71746608D01*
X79408836Y-71693452D01*
X79338693Y-71679500D01*
X79338688Y-71679500D01*
X79228332Y-71679500D01*
X79215650Y-71677830D01*
X79208849Y-71676007D01*
X79184564Y-71669500D01*
X79184562Y-71669500D01*
X79105438Y-71669500D01*
X79105436Y-71669500D01*
X79081150Y-71676007D01*
X79074349Y-71677830D01*
X79061668Y-71679500D01*
X78951306Y-71679500D01*
X78881163Y-71693452D01*
X78801608Y-71746608D01*
X78748452Y-71826163D01*
X78734500Y-71896306D01*
X77650500Y-71896306D01*
X77650500Y-71045506D01*
X77664852Y-71010858D01*
X77673330Y-71005198D01*
X77672875Y-71004517D01*
X77676887Y-71001836D01*
X77676888Y-71001836D01*
X77754786Y-70949786D01*
X77806836Y-70871888D01*
X77820500Y-70803196D01*
X77820500Y-70386804D01*
X77806836Y-70318112D01*
X77754786Y-70240214D01*
X77754785Y-70240213D01*
X77707276Y-70208468D01*
X77686441Y-70177285D01*
X77685500Y-70167726D01*
X77685500Y-69532635D01*
X77699852Y-69497987D01*
X77752987Y-69444852D01*
X77787635Y-69430500D01*
X77831680Y-69430500D01*
X77866328Y-69444852D01*
X77872421Y-69452275D01*
X77872540Y-69452454D01*
X77872543Y-69452457D01*
X77905787Y-69474669D01*
X77935101Y-69480500D01*
X78504898Y-69480499D01*
X78531444Y-69475219D01*
X78568224Y-69482536D01*
X78589059Y-69513719D01*
X78590000Y-69523278D01*
X78590000Y-69647857D01*
X78495000Y-69580000D01*
X77945000Y-69580000D01*
X77945000Y-71380000D01*
X79505000Y-71380000D01*
X79505000Y-70798009D01*
X79521219Y-70823260D01*
X79525178Y-70830789D01*
X79546472Y-70881561D01*
X79546716Y-70882156D01*
X79572205Y-70945238D01*
X79575090Y-70951739D01*
X79575794Y-70953192D01*
X79579117Y-70959492D01*
X79606318Y-71007085D01*
X79620915Y-71032625D01*
X79622690Y-71035615D01*
X79623088Y-71036261D01*
X79631900Y-71045450D01*
X79638968Y-71054863D01*
X79644540Y-71064513D01*
X79700489Y-71120462D01*
X79769011Y-71160023D01*
X79804478Y-71169526D01*
X79845436Y-71180502D01*
X79845438Y-71180502D01*
X79924564Y-71180502D01*
X79951230Y-71173356D01*
X80000989Y-71160023D01*
X80069511Y-71120462D01*
X80125460Y-71064513D01*
X80165021Y-70995991D01*
X80185500Y-70919564D01*
X80185500Y-70840440D01*
X80185500Y-70840438D01*
X80172505Y-70791944D01*
X80165021Y-70764013D01*
X80165020Y-70764011D01*
X80165020Y-70764010D01*
X80125459Y-70695490D01*
X80069514Y-70639545D01*
X80069511Y-70639542D01*
X80068905Y-70639192D01*
X80056992Y-70632313D01*
X80050625Y-70627933D01*
X80040594Y-70619796D01*
X80033893Y-70614360D01*
X80010365Y-70601954D01*
X79924174Y-70556507D01*
X79918179Y-70553586D01*
X79916813Y-70552973D01*
X79910563Y-70550404D01*
X79887875Y-70541920D01*
X79885216Y-70540836D01*
X79830830Y-70516777D01*
X79819869Y-70510088D01*
X79791157Y-70486898D01*
X79763711Y-70464729D01*
X79745775Y-70431793D01*
X79745500Y-70426610D01*
X79745500Y-70159418D01*
X79745499Y-70159408D01*
X79745499Y-69920105D01*
X79745499Y-69920102D01*
X79739669Y-69890787D01*
X79739667Y-69890785D01*
X79739225Y-69888558D01*
X79746543Y-69851776D01*
X79777726Y-69830941D01*
X79787284Y-69830000D01*
X79950000Y-69830000D01*
X79840000Y-69940000D01*
X79840000Y-70490000D01*
X80730000Y-70490000D01*
X80740000Y-69590000D01*
X80190000Y-69590000D01*
X80100000Y-69680000D01*
X80100000Y-69523279D01*
X80114352Y-69488631D01*
X80149000Y-69474279D01*
X80158559Y-69475221D01*
X80174505Y-69478392D01*
X80185101Y-69480500D01*
X80754898Y-69480499D01*
X80784213Y-69474669D01*
X80817457Y-69452457D01*
X80839669Y-69419213D01*
X80845500Y-69389899D01*
X80845499Y-69170102D01*
X80839669Y-69140787D01*
X80839667Y-69140784D01*
X80839667Y-69140783D01*
X80817457Y-69107543D01*
X80784212Y-69085330D01*
X80754901Y-69079500D01*
X80185105Y-69079500D01*
X80185102Y-69079501D01*
X80158557Y-69084780D01*
X80121775Y-69077462D01*
X80100941Y-69046278D01*
X80100000Y-69036721D01*
X80100000Y-68723279D01*
X80114352Y-68688631D01*
X80119965Y-68686306D01*
X81954500Y-68686306D01*
X81954500Y-69073693D01*
X81968452Y-69143836D01*
X82021608Y-69223391D01*
X82074524Y-69258748D01*
X82101161Y-69276546D01*
X82101163Y-69276547D01*
X82171306Y-69290499D01*
X82171312Y-69290500D01*
X82498688Y-69290500D01*
X82499625Y-69290313D01*
X82568836Y-69276547D01*
X82568836Y-69276546D01*
X82568839Y-69276546D01*
X82648391Y-69223391D01*
X82701546Y-69143839D01*
X82704399Y-69129500D01*
X82715499Y-69073693D01*
X82715500Y-69073688D01*
X82715500Y-68686312D01*
X82715499Y-68686306D01*
X82701547Y-68616163D01*
X82648391Y-68536608D01*
X82568836Y-68483452D01*
X82498693Y-68469500D01*
X82498688Y-68469500D01*
X82171312Y-68469500D01*
X82171306Y-68469500D01*
X82101163Y-68483452D01*
X82021608Y-68536608D01*
X81968452Y-68616163D01*
X81954500Y-68686306D01*
X80119965Y-68686306D01*
X80149000Y-68674279D01*
X80158559Y-68675221D01*
X80174505Y-68678392D01*
X80185101Y-68680500D01*
X80430116Y-68680499D01*
X80430118Y-68680500D01*
X80509882Y-68680500D01*
X80509883Y-68680499D01*
X80754898Y-68680499D01*
X80784213Y-68674669D01*
X80817457Y-68652457D01*
X80839669Y-68619213D01*
X80845500Y-68589899D01*
X80845499Y-68370102D01*
X80839669Y-68340787D01*
X80839667Y-68340784D01*
X80839667Y-68340783D01*
X80817457Y-68307543D01*
X80784212Y-68285330D01*
X80754904Y-68279500D01*
X80754899Y-68279500D01*
X80719500Y-68279500D01*
X80684852Y-68265148D01*
X80670500Y-68230500D01*
X80670500Y-67998346D01*
X80684850Y-67963699D01*
X80739310Y-67909239D01*
X80773956Y-67894889D01*
X80808604Y-67909240D01*
X80814695Y-67916662D01*
X80830300Y-67940017D01*
X80860213Y-67984786D01*
X80882235Y-67999500D01*
X80938112Y-68036836D01*
X81006804Y-68050500D01*
X81423196Y-68050500D01*
X81491888Y-68036836D01*
X81569786Y-67984786D01*
X81621836Y-67906888D01*
X81624311Y-67894441D01*
X81627197Y-67879940D01*
X81635137Y-67868055D01*
X81640607Y-67854852D01*
X81645243Y-67852931D01*
X81648032Y-67848758D01*
X81675255Y-67840500D01*
X81695642Y-67840500D01*
X81730290Y-67854852D01*
X81743699Y-67879939D01*
X81747016Y-67896608D01*
X81748454Y-67903839D01*
X81801608Y-67983391D01*
X81854524Y-68018748D01*
X81881161Y-68036546D01*
X81881163Y-68036547D01*
X81951306Y-68050499D01*
X81951312Y-68050500D01*
X82278688Y-68050500D01*
X82279625Y-68050313D01*
X82348836Y-68036547D01*
X82348836Y-68036546D01*
X82348839Y-68036546D01*
X82428391Y-67983391D01*
X82481546Y-67903839D01*
X82482985Y-67896609D01*
X82495499Y-67833693D01*
X82495500Y-67833688D01*
X82495500Y-67446312D01*
X82495499Y-67446306D01*
X82481547Y-67376163D01*
X82480912Y-67375213D01*
X82446134Y-67323163D01*
X82428391Y-67296608D01*
X82348836Y-67243452D01*
X82278693Y-67229500D01*
X82278688Y-67229500D01*
X81951312Y-67229500D01*
X81951306Y-67229500D01*
X81881163Y-67243452D01*
X81801608Y-67296608D01*
X81748454Y-67376160D01*
X81747329Y-67381816D01*
X81743700Y-67400060D01*
X81735759Y-67411944D01*
X81730290Y-67425148D01*
X81725653Y-67427068D01*
X81722865Y-67431242D01*
X81695642Y-67439500D01*
X81638932Y-67439500D01*
X81604284Y-67425148D01*
X81598190Y-67417723D01*
X81569786Y-67375213D01*
X81504524Y-67331607D01*
X81491888Y-67323164D01*
X81491887Y-67323163D01*
X81491886Y-67323163D01*
X81423199Y-67309500D01*
X81423196Y-67309500D01*
X81006804Y-67309500D01*
X81006800Y-67309500D01*
X80938113Y-67323163D01*
X80860213Y-67375213D01*
X80805483Y-67457125D01*
X80803332Y-67455688D01*
X80783225Y-67475778D01*
X80764493Y-67479500D01*
X80660492Y-67479500D01*
X80625844Y-67465148D01*
X80611492Y-67430500D01*
X80613162Y-67417817D01*
X80625250Y-67372705D01*
X80625250Y-67293578D01*
X80610811Y-67239694D01*
X80604771Y-67217153D01*
X80604770Y-67217151D01*
X80604770Y-67217150D01*
X80568064Y-67153575D01*
X80565210Y-67148631D01*
X80509261Y-67092682D01*
X80440740Y-67053121D01*
X80364314Y-67032642D01*
X80364312Y-67032642D01*
X80285188Y-67032642D01*
X80285186Y-67032642D01*
X80208760Y-67053121D01*
X80188999Y-67064530D01*
X80151817Y-67069424D01*
X80122064Y-67046593D01*
X80115500Y-67022094D01*
X80115500Y-66230506D01*
X80129852Y-66195858D01*
X80138330Y-66190198D01*
X80137875Y-66189517D01*
X80141887Y-66186836D01*
X80141888Y-66186836D01*
X80219786Y-66134786D01*
X80271836Y-66056888D01*
X80285500Y-65988196D01*
X80285500Y-65571804D01*
X80285499Y-65571800D01*
X80564500Y-65571800D01*
X80564500Y-65988199D01*
X80578163Y-66056886D01*
X80578163Y-66056887D01*
X80578164Y-66056888D01*
X80584846Y-66066888D01*
X80630213Y-66134786D01*
X80669163Y-66160811D01*
X80708112Y-66186836D01*
X80776804Y-66200500D01*
X80956732Y-66200500D01*
X80991380Y-66214852D01*
X81005732Y-66249500D01*
X80991380Y-66284148D01*
X80966292Y-66297558D01*
X80938113Y-66303163D01*
X80860213Y-66355213D01*
X80808163Y-66433113D01*
X80794500Y-66501800D01*
X80794500Y-66818199D01*
X80808163Y-66886886D01*
X80860213Y-66964786D01*
X80877908Y-66976609D01*
X80938112Y-67016836D01*
X81006804Y-67030500D01*
X81423196Y-67030500D01*
X81491888Y-67016836D01*
X81569786Y-66964786D01*
X81621836Y-66886888D01*
X81635500Y-66818196D01*
X81635500Y-66501804D01*
X81621836Y-66433112D01*
X81595811Y-66394163D01*
X81569786Y-66355213D01*
X81511493Y-66316264D01*
X81491888Y-66303164D01*
X81491887Y-66303163D01*
X81491886Y-66303163D01*
X81423199Y-66289500D01*
X81423196Y-66289500D01*
X81143268Y-66289500D01*
X81108620Y-66275148D01*
X81094268Y-66240500D01*
X81108620Y-66205852D01*
X81133708Y-66192442D01*
X81149693Y-66189261D01*
X81161888Y-66186836D01*
X81239786Y-66134786D01*
X81291836Y-66056888D01*
X81305500Y-65988196D01*
X81305500Y-65571804D01*
X81291836Y-65503112D01*
X81246468Y-65435214D01*
X81239786Y-65425213D01*
X81176852Y-65383163D01*
X81161888Y-65373164D01*
X81161887Y-65373163D01*
X81161886Y-65373163D01*
X81093199Y-65359500D01*
X81093196Y-65359500D01*
X80776804Y-65359500D01*
X80776800Y-65359500D01*
X80708113Y-65373163D01*
X80630213Y-65425213D01*
X80578163Y-65503113D01*
X80564500Y-65571800D01*
X80285499Y-65571800D01*
X80271836Y-65503112D01*
X80226468Y-65435214D01*
X80219786Y-65425213D01*
X80137876Y-65370483D01*
X80139308Y-65368339D01*
X80138828Y-65367858D01*
X80129852Y-65364140D01*
X80126110Y-65355108D01*
X80119206Y-65348186D01*
X80115500Y-65329492D01*
X80115500Y-65297314D01*
X80129852Y-65262666D01*
X80154937Y-65249256D01*
X80218839Y-65236546D01*
X80298391Y-65183391D01*
X80351546Y-65103839D01*
X80365500Y-65033688D01*
X80365500Y-64706312D01*
X80363732Y-64697424D01*
X80351547Y-64636163D01*
X80298391Y-64556608D01*
X80218836Y-64503452D01*
X80148693Y-64489500D01*
X80148688Y-64489500D01*
X79761312Y-64489500D01*
X79761306Y-64489500D01*
X79691163Y-64503452D01*
X79611608Y-64556608D01*
X79558452Y-64636163D01*
X79544500Y-64706306D01*
X79544500Y-65033693D01*
X79558452Y-65103836D01*
X79611608Y-65183391D01*
X79641541Y-65203391D01*
X79691161Y-65236546D01*
X79691162Y-65236546D01*
X79692723Y-65237589D01*
X79695511Y-65241762D01*
X79700148Y-65243683D01*
X79705617Y-65256886D01*
X79713558Y-65268771D01*
X79714500Y-65278331D01*
X79714500Y-65329492D01*
X79700148Y-65364140D01*
X79691674Y-65369809D01*
X79692124Y-65370483D01*
X79610213Y-65425213D01*
X79558163Y-65503113D01*
X79544500Y-65571800D01*
X79544500Y-65988199D01*
X79558163Y-66056886D01*
X79558163Y-66056887D01*
X79558164Y-66056888D01*
X79564846Y-66066888D01*
X79610213Y-66134786D01*
X79660871Y-66168634D01*
X79688112Y-66186836D01*
X79692125Y-66189517D01*
X79690680Y-66191678D01*
X79710751Y-66211709D01*
X79714500Y-66230506D01*
X79714500Y-66926654D01*
X79700148Y-66961302D01*
X79431426Y-67230023D01*
X79431426Y-67230024D01*
X79403036Y-67258413D01*
X79374647Y-67286802D01*
X79339998Y-67301153D01*
X79305351Y-67286801D01*
X79258574Y-67240024D01*
X78989852Y-66971302D01*
X78975500Y-66936654D01*
X78975500Y-66240506D01*
X78989852Y-66205858D01*
X78998330Y-66200198D01*
X78997875Y-66199517D01*
X79001887Y-66196836D01*
X79001888Y-66196836D01*
X79079786Y-66144786D01*
X79131836Y-66066888D01*
X79145500Y-65998196D01*
X79145500Y-65581804D01*
X79131836Y-65513112D01*
X79105811Y-65474163D01*
X79079786Y-65435213D01*
X78997876Y-65380483D01*
X78999308Y-65378339D01*
X78998828Y-65377858D01*
X78989852Y-65374140D01*
X78986110Y-65365108D01*
X78979206Y-65358186D01*
X78975500Y-65339492D01*
X78975500Y-65298331D01*
X78989852Y-65263683D01*
X78997277Y-65257589D01*
X78998837Y-65256546D01*
X78998839Y-65256546D01*
X79078391Y-65203391D01*
X79131546Y-65123839D01*
X79135525Y-65103839D01*
X79145499Y-65053693D01*
X79145500Y-65053688D01*
X79145500Y-64726312D01*
X79145499Y-64726306D01*
X79131547Y-64656163D01*
X79078391Y-64576608D01*
X78998836Y-64523452D01*
X78928693Y-64509500D01*
X78928688Y-64509500D01*
X78541312Y-64509500D01*
X78541306Y-64509500D01*
X78471163Y-64523452D01*
X78391608Y-64576608D01*
X78338452Y-64656163D01*
X78324500Y-64726306D01*
X78324500Y-65053693D01*
X78338452Y-65123836D01*
X78391608Y-65203391D01*
X78441227Y-65236545D01*
X78471161Y-65256546D01*
X78535061Y-65269256D01*
X78546944Y-65277196D01*
X78560148Y-65282666D01*
X78562068Y-65287302D01*
X78566242Y-65290091D01*
X78574500Y-65317314D01*
X78574500Y-65339492D01*
X78560148Y-65374140D01*
X78551674Y-65379809D01*
X78552124Y-65380483D01*
X78470213Y-65435213D01*
X78418163Y-65513113D01*
X78404500Y-65581800D01*
X78404500Y-65998199D01*
X78418163Y-66066886D01*
X78470213Y-66144786D01*
X78520871Y-66178634D01*
X78548112Y-66196836D01*
X78552125Y-66199517D01*
X78550680Y-66201678D01*
X78570751Y-66221709D01*
X78574500Y-66240506D01*
X78574500Y-67000118D01*
X78574500Y-67079882D01*
X78605024Y-67153574D01*
X78605025Y-67153575D01*
X78605025Y-67153576D01*
X78930148Y-67478698D01*
X78944500Y-67513346D01*
X78944500Y-68239894D01*
X78944501Y-68239898D01*
X78950331Y-68269213D01*
X78950331Y-68269214D01*
X78950775Y-68271442D01*
X78943457Y-68308224D01*
X78912274Y-68329059D01*
X78902716Y-68330000D01*
X78608653Y-68330000D01*
X78574005Y-68315648D01*
X78567911Y-68308222D01*
X78567457Y-68307543D01*
X78534212Y-68285330D01*
X78504904Y-68279500D01*
X78504899Y-68279500D01*
X78259883Y-68279500D01*
X78259882Y-68279500D01*
X78008346Y-68279500D01*
X77973698Y-68265148D01*
X77738576Y-68030025D01*
X77664883Y-67999500D01*
X77664882Y-67999500D01*
X77325507Y-67999500D01*
X77290859Y-67985148D01*
X77285193Y-67976673D01*
X77284517Y-67977125D01*
X77229786Y-67895213D01*
X77152322Y-67843454D01*
X77151888Y-67843164D01*
X77151887Y-67843163D01*
X77151886Y-67843163D01*
X77083199Y-67829500D01*
X77083196Y-67829500D01*
X76666804Y-67829500D01*
X76666800Y-67829500D01*
X76598113Y-67843163D01*
X76520213Y-67895213D01*
X76465483Y-67977125D01*
X76463332Y-67975688D01*
X76462866Y-67976153D01*
X76459141Y-67985148D01*
X76450127Y-67988881D01*
X76443225Y-67995778D01*
X76424493Y-67999500D01*
X76383331Y-67999500D01*
X76348683Y-67985148D01*
X76342589Y-67977723D01*
X76341546Y-67976162D01*
X76341546Y-67976161D01*
X76301793Y-67916666D01*
X76288391Y-67896608D01*
X76208836Y-67843452D01*
X76138693Y-67829500D01*
X76138688Y-67829500D01*
X75811312Y-67829500D01*
X75811306Y-67829500D01*
X75741163Y-67843452D01*
X75661608Y-67896608D01*
X75608452Y-67976163D01*
X75594500Y-68046306D01*
X75395499Y-68046306D01*
X75381547Y-67976163D01*
X75381540Y-67976153D01*
X75341793Y-67916666D01*
X75328391Y-67896608D01*
X75256777Y-67848758D01*
X75248839Y-67843454D01*
X75248838Y-67843453D01*
X75248837Y-67843453D01*
X75229940Y-67839694D01*
X75198758Y-67818858D01*
X75190500Y-67791636D01*
X75190500Y-67126306D01*
X76734500Y-67126306D01*
X76734500Y-67513693D01*
X76748452Y-67583836D01*
X76801608Y-67663391D01*
X76848331Y-67694610D01*
X76881161Y-67716546D01*
X76881163Y-67716547D01*
X76951306Y-67730499D01*
X76951312Y-67730500D01*
X77278688Y-67730500D01*
X77306218Y-67725024D01*
X77348836Y-67716547D01*
X77348836Y-67716546D01*
X77348839Y-67716546D01*
X77428391Y-67663391D01*
X77481546Y-67583839D01*
X77483199Y-67575532D01*
X77495499Y-67513693D01*
X77495500Y-67513688D01*
X77495500Y-67126312D01*
X77495499Y-67126306D01*
X77481547Y-67056163D01*
X77479514Y-67053121D01*
X77455270Y-67016836D01*
X77428391Y-66976608D01*
X77348836Y-66923452D01*
X77278693Y-66909500D01*
X77278688Y-66909500D01*
X76951312Y-66909500D01*
X76951306Y-66909500D01*
X76881163Y-66923452D01*
X76801608Y-66976608D01*
X76748452Y-67056163D01*
X76734500Y-67126306D01*
X75190500Y-67126306D01*
X75190500Y-65581800D01*
X77384500Y-65581800D01*
X77384500Y-65998199D01*
X77398163Y-66066886D01*
X77450213Y-66144786D01*
X77489163Y-66170811D01*
X77528112Y-66196836D01*
X77596804Y-66210500D01*
X77913196Y-66210500D01*
X77981888Y-66196836D01*
X78059786Y-66144786D01*
X78111836Y-66066888D01*
X78125500Y-65998196D01*
X78125500Y-65581804D01*
X78111836Y-65513112D01*
X78085811Y-65474163D01*
X78059786Y-65435213D01*
X78001493Y-65396264D01*
X77981888Y-65383164D01*
X77981887Y-65383163D01*
X77981886Y-65383163D01*
X77913199Y-65369500D01*
X77913196Y-65369500D01*
X77596804Y-65369500D01*
X77596800Y-65369500D01*
X77528113Y-65383163D01*
X77450213Y-65435213D01*
X77398163Y-65513113D01*
X77384500Y-65581800D01*
X75190500Y-65581800D01*
X75190500Y-63559502D01*
X75190490Y-63559402D01*
X75190490Y-63543453D01*
X75190491Y-63506703D01*
X75161549Y-63323953D01*
X75104375Y-63147981D01*
X75104371Y-63147974D01*
X75104368Y-63147966D01*
X75020378Y-62983123D01*
X74911625Y-62833432D01*
X74911622Y-62833429D01*
X74877780Y-62799587D01*
X74877777Y-62799582D01*
X72702132Y-60623937D01*
X72702122Y-60623914D01*
X72621579Y-60543371D01*
X72621576Y-60543369D01*
X72471886Y-60434615D01*
X72307025Y-60350617D01*
X72307020Y-60350615D01*
X72131052Y-60293442D01*
X72131043Y-60293439D01*
X71972251Y-60268292D01*
X71948298Y-60264499D01*
X71948297Y-60264499D01*
X71855784Y-60264500D01*
X66309708Y-60264500D01*
X66303719Y-60264133D01*
X66300283Y-60263709D01*
X66282849Y-60259003D01*
X66236918Y-60255906D01*
X66235582Y-60255742D01*
X66235196Y-60255523D01*
X66229993Y-60254721D01*
X66209314Y-60249691D01*
X66198652Y-60245740D01*
X66143308Y-60217542D01*
X66142108Y-60216909D01*
X66079632Y-60182865D01*
X66079628Y-60182863D01*
X66079622Y-60182860D01*
X66070096Y-60178272D01*
X66070092Y-60178270D01*
X66070081Y-60178265D01*
X66067936Y-60177362D01*
X66057992Y-60173749D01*
X65972874Y-60147566D01*
X65967917Y-60146172D01*
X65967836Y-60146151D01*
X65966823Y-60145893D01*
X65954861Y-60145543D01*
X65943612Y-60143896D01*
X65930069Y-60140268D01*
X65850945Y-60140268D01*
X65850943Y-60140268D01*
X65774517Y-60160747D01*
X65774515Y-60160747D01*
X65705995Y-60200308D01*
X65705995Y-60200309D01*
X65650048Y-60256256D01*
X65650047Y-60256256D01*
X65610486Y-60324776D01*
X65610486Y-60324778D01*
X65590007Y-60401204D01*
X63200500Y-60401204D01*
X63200500Y-59910436D01*
X64799500Y-59910436D01*
X64799500Y-59989563D01*
X64819979Y-60065989D01*
X64819979Y-60065991D01*
X64838093Y-60097364D01*
X64859540Y-60134511D01*
X64915489Y-60190460D01*
X64984011Y-60230021D01*
X65019478Y-60239524D01*
X65060436Y-60250500D01*
X65060438Y-60250500D01*
X65139564Y-60250500D01*
X65166230Y-60243354D01*
X65215989Y-60230021D01*
X65284511Y-60190460D01*
X65340460Y-60134511D01*
X65380021Y-60065989D01*
X65400500Y-59989562D01*
X65400500Y-59910438D01*
X65400500Y-59910436D01*
X65389200Y-59868268D01*
X65380021Y-59834011D01*
X65380020Y-59834009D01*
X65380020Y-59834008D01*
X65344891Y-59773164D01*
X65340460Y-59765489D01*
X65284511Y-59709540D01*
X65264643Y-59698069D01*
X65215990Y-59669979D01*
X65139564Y-59649500D01*
X65139562Y-59649500D01*
X65060438Y-59649500D01*
X65060436Y-59649500D01*
X64984010Y-59669979D01*
X64984008Y-59669979D01*
X64915488Y-59709540D01*
X64915488Y-59709541D01*
X64859541Y-59765488D01*
X64859540Y-59765488D01*
X64819979Y-59834008D01*
X64819979Y-59834010D01*
X64799500Y-59910436D01*
X63200500Y-59910436D01*
X63200500Y-59410436D01*
X65619500Y-59410436D01*
X65619500Y-59489563D01*
X65639979Y-59565989D01*
X65639979Y-59565991D01*
X65677507Y-59630990D01*
X65679540Y-59634511D01*
X65735489Y-59690460D01*
X65804011Y-59730021D01*
X65839478Y-59739524D01*
X65880436Y-59750500D01*
X65880438Y-59750500D01*
X65959559Y-59750500D01*
X65959562Y-59750500D01*
X65975583Y-59746206D01*
X65982063Y-59744932D01*
X66005023Y-59742013D01*
X66107839Y-59707616D01*
X66117628Y-59703789D01*
X66119750Y-59702835D01*
X66129094Y-59698062D01*
X66172340Y-59673184D01*
X66174440Y-59672047D01*
X66229934Y-59643812D01*
X66240781Y-59639826D01*
X66260650Y-59635092D01*
X66268744Y-59633869D01*
X66312202Y-59630992D01*
X66320913Y-59628805D01*
X66328212Y-59626974D01*
X66340139Y-59625500D01*
X73060879Y-59625500D01*
X73093863Y-59625500D01*
X73097706Y-59625651D01*
X73113881Y-59626923D01*
X73220931Y-59635347D01*
X73228513Y-59636548D01*
X73346829Y-59664951D01*
X73354132Y-59667324D01*
X73466545Y-59713885D01*
X73473387Y-59717371D01*
X73564436Y-59773164D01*
X73577134Y-59780945D01*
X73583355Y-59785465D01*
X73677248Y-59865656D01*
X73680073Y-59868268D01*
X77745956Y-63934150D01*
X77745961Y-63934162D01*
X77756282Y-63944480D01*
X77756312Y-63944553D01*
X77770627Y-63958864D01*
X77770627Y-63958865D01*
X77805508Y-63993737D01*
X77887535Y-64048531D01*
X77978675Y-64086271D01*
X78075427Y-64105505D01*
X78124749Y-64105500D01*
X78286636Y-64105500D01*
X78321284Y-64119852D01*
X78334694Y-64144940D01*
X78338453Y-64163837D01*
X78391608Y-64243391D01*
X78441229Y-64276546D01*
X78471161Y-64296546D01*
X78471163Y-64296547D01*
X78541306Y-64310499D01*
X78541312Y-64310500D01*
X78928688Y-64310500D01*
X78929625Y-64310313D01*
X78998836Y-64296547D01*
X78998836Y-64296546D01*
X78998839Y-64296546D01*
X79078391Y-64243391D01*
X79131546Y-64163839D01*
X79133517Y-64153934D01*
X79145499Y-64093693D01*
X79145500Y-64093688D01*
X79145500Y-63766312D01*
X79145499Y-63766306D01*
X79131547Y-63696163D01*
X79078391Y-63616608D01*
X78998836Y-63563452D01*
X78928693Y-63549500D01*
X78928688Y-63549500D01*
X78541312Y-63549500D01*
X78541306Y-63549500D01*
X78471163Y-63563452D01*
X78391608Y-63616608D01*
X78338453Y-63696162D01*
X78334694Y-63715060D01*
X78313858Y-63746242D01*
X78286636Y-63754500D01*
X78164612Y-63754500D01*
X78159630Y-63754499D01*
X78159624Y-63754497D01*
X78134320Y-63754499D01*
X78127917Y-63754499D01*
X78127916Y-63754498D01*
X78121531Y-63754081D01*
X78092336Y-63750240D01*
X78079985Y-63746932D01*
X78067880Y-63741920D01*
X78055777Y-63736908D01*
X78044700Y-63730514D01*
X78021520Y-63712732D01*
X78016696Y-63708502D01*
X73942132Y-59633937D01*
X73942122Y-59633914D01*
X73861579Y-59553371D01*
X73861576Y-59553369D01*
X73711886Y-59444615D01*
X73547025Y-59360617D01*
X73547020Y-59360615D01*
X73371052Y-59303442D01*
X73371043Y-59303439D01*
X73212251Y-59278292D01*
X73188298Y-59274499D01*
X73188297Y-59274499D01*
X73095784Y-59274500D01*
X66339221Y-59274500D01*
X66333212Y-59274130D01*
X66329776Y-59273705D01*
X66312368Y-59269002D01*
X66266719Y-59265914D01*
X66265359Y-59265746D01*
X66264971Y-59265526D01*
X66259755Y-59264720D01*
X66239378Y-59259749D01*
X66228636Y-59255749D01*
X66173204Y-59227330D01*
X66171984Y-59226682D01*
X66109523Y-59192401D01*
X66099883Y-59187729D01*
X66097737Y-59186821D01*
X66097735Y-59186820D01*
X66097718Y-59186813D01*
X66097703Y-59186807D01*
X66097679Y-59186798D01*
X66087738Y-59183168D01*
X66087710Y-59183159D01*
X66045017Y-59169979D01*
X66002457Y-59156840D01*
X66001204Y-59156486D01*
X65997489Y-59155438D01*
X65996424Y-59155166D01*
X65996421Y-59155165D01*
X65996419Y-59155165D01*
X65996417Y-59155164D01*
X65996411Y-59155164D01*
X65984457Y-59154809D01*
X65973234Y-59153162D01*
X65959564Y-59149500D01*
X65959562Y-59149500D01*
X65880438Y-59149500D01*
X65880436Y-59149500D01*
X65804010Y-59169979D01*
X65804008Y-59169979D01*
X65735488Y-59209540D01*
X65735488Y-59209541D01*
X65679541Y-59265488D01*
X65679540Y-59265488D01*
X65639979Y-59334008D01*
X65639979Y-59334010D01*
X65619500Y-59410436D01*
X63200500Y-59410436D01*
X63200500Y-58910436D01*
X64799500Y-58910436D01*
X64799500Y-58989563D01*
X64819979Y-59065989D01*
X64819979Y-59065991D01*
X64859540Y-59134511D01*
X64915489Y-59190460D01*
X64965649Y-59219420D01*
X64978227Y-59226682D01*
X64984011Y-59230021D01*
X65018946Y-59239382D01*
X65060436Y-59250500D01*
X65060438Y-59250500D01*
X65139564Y-59250500D01*
X65166230Y-59243354D01*
X65215989Y-59230021D01*
X65284511Y-59190460D01*
X65340460Y-59134511D01*
X65380021Y-59065989D01*
X65400500Y-58989562D01*
X65400500Y-58910438D01*
X65400500Y-58910436D01*
X65389200Y-58868268D01*
X65380021Y-58834011D01*
X65380020Y-58834009D01*
X65380020Y-58834008D01*
X65349383Y-58780945D01*
X65340460Y-58765489D01*
X65284511Y-58709540D01*
X65264643Y-58698069D01*
X65215990Y-58669979D01*
X65139564Y-58649500D01*
X65139562Y-58649500D01*
X65060438Y-58649500D01*
X65060436Y-58649500D01*
X64984010Y-58669979D01*
X64984008Y-58669979D01*
X64915488Y-58709540D01*
X64915488Y-58709541D01*
X64859541Y-58765488D01*
X64859540Y-58765488D01*
X64819979Y-58834008D01*
X64819979Y-58834010D01*
X64799500Y-58910436D01*
X63200500Y-58910436D01*
X63200500Y-58410436D01*
X65709500Y-58410436D01*
X65709500Y-58489563D01*
X65729979Y-58565989D01*
X65729979Y-58565991D01*
X65767507Y-58630990D01*
X65769540Y-58634511D01*
X65825489Y-58690460D01*
X65894011Y-58730021D01*
X65929386Y-58739500D01*
X65970436Y-58750500D01*
X65970438Y-58750500D01*
X66049559Y-58750500D01*
X66049562Y-58750500D01*
X66065583Y-58746206D01*
X66072063Y-58744932D01*
X66095023Y-58742013D01*
X66197839Y-58707616D01*
X66207628Y-58703789D01*
X66209750Y-58702835D01*
X66219094Y-58698062D01*
X66262340Y-58673184D01*
X66264440Y-58672047D01*
X66319934Y-58643812D01*
X66330781Y-58639826D01*
X66350650Y-58635092D01*
X66358744Y-58633869D01*
X66402202Y-58630992D01*
X66410913Y-58628805D01*
X66418212Y-58626974D01*
X66430139Y-58625500D01*
X74610879Y-58625500D01*
X74643863Y-58625500D01*
X74647706Y-58625651D01*
X74663881Y-58626923D01*
X74770931Y-58635347D01*
X74778513Y-58636548D01*
X74896829Y-58664951D01*
X74904132Y-58667324D01*
X75016545Y-58713885D01*
X75023387Y-58717371D01*
X75127134Y-58780945D01*
X75133355Y-58785465D01*
X75227248Y-58865656D01*
X75230073Y-58868268D01*
X79749378Y-63387573D01*
X79753605Y-63392393D01*
X79762840Y-63404429D01*
X79769234Y-63415502D01*
X79773798Y-63426518D01*
X79777109Y-63438872D01*
X79779080Y-63453830D01*
X79779500Y-63460231D01*
X79779500Y-63485668D01*
X79765148Y-63520316D01*
X79740060Y-63533726D01*
X79691162Y-63543453D01*
X79611608Y-63596608D01*
X79558452Y-63676163D01*
X79544500Y-63746306D01*
X79544500Y-64073693D01*
X79558452Y-64143836D01*
X79611608Y-64223391D01*
X79641541Y-64243391D01*
X79691161Y-64276546D01*
X79691163Y-64276547D01*
X79761306Y-64290499D01*
X79761312Y-64290500D01*
X80148688Y-64290500D01*
X80149625Y-64290313D01*
X80218836Y-64276547D01*
X80218836Y-64276546D01*
X80218839Y-64276546D01*
X80298391Y-64223391D01*
X80351546Y-64143839D01*
X80356318Y-64119852D01*
X80365499Y-64073693D01*
X80365500Y-64073688D01*
X80365500Y-63746312D01*
X80365499Y-63746306D01*
X80351547Y-63676163D01*
X80298391Y-63596608D01*
X80227887Y-63549500D01*
X80218839Y-63543454D01*
X80218838Y-63543453D01*
X80218837Y-63543453D01*
X80169943Y-63533727D01*
X80158060Y-63525787D01*
X80144859Y-63520321D01*
X80142936Y-63515682D01*
X80138761Y-63512892D01*
X80130503Y-63485675D01*
X80130502Y-63477358D01*
X80130510Y-63477336D01*
X80130508Y-63457051D01*
X80130509Y-63457051D01*
X80130505Y-63413120D01*
X80113358Y-63326949D01*
X80112118Y-63323956D01*
X80079734Y-63245782D01*
X80079733Y-63245780D01*
X80079732Y-63245778D01*
X80030918Y-63172725D01*
X80024538Y-63166345D01*
X80024537Y-63166342D01*
X79987513Y-63129318D01*
X79987512Y-63129316D01*
X79972383Y-63114187D01*
X79972376Y-63114181D01*
X75492132Y-58633937D01*
X75492122Y-58633914D01*
X75411579Y-58553371D01*
X75411576Y-58553369D01*
X75261886Y-58444615D01*
X75097025Y-58360617D01*
X75097020Y-58360615D01*
X74921052Y-58303442D01*
X74921043Y-58303439D01*
X74762251Y-58278292D01*
X74738298Y-58274499D01*
X74738297Y-58274499D01*
X74645784Y-58274500D01*
X66429221Y-58274500D01*
X66423212Y-58274130D01*
X66419776Y-58273705D01*
X66402368Y-58269002D01*
X66356719Y-58265914D01*
X66355359Y-58265746D01*
X66354971Y-58265526D01*
X66349755Y-58264720D01*
X66329378Y-58259749D01*
X66318636Y-58255749D01*
X66263204Y-58227330D01*
X66261984Y-58226682D01*
X66199523Y-58192401D01*
X66189883Y-58187729D01*
X66187737Y-58186821D01*
X66187735Y-58186820D01*
X66187718Y-58186813D01*
X66187703Y-58186807D01*
X66187679Y-58186798D01*
X66177738Y-58183168D01*
X66177710Y-58183159D01*
X66139756Y-58171442D01*
X66092457Y-58156840D01*
X66091204Y-58156486D01*
X66087489Y-58155438D01*
X66086424Y-58155166D01*
X66086421Y-58155165D01*
X66086419Y-58155165D01*
X66086417Y-58155164D01*
X66086411Y-58155164D01*
X66074457Y-58154809D01*
X66063234Y-58153162D01*
X66049564Y-58149500D01*
X66049562Y-58149500D01*
X65970438Y-58149500D01*
X65970436Y-58149500D01*
X65894010Y-58169979D01*
X65894008Y-58169979D01*
X65825488Y-58209540D01*
X65825488Y-58209541D01*
X65769541Y-58265488D01*
X65769540Y-58265488D01*
X65729979Y-58334008D01*
X65729979Y-58334010D01*
X65709500Y-58410436D01*
X63200500Y-58410436D01*
X63200500Y-57910436D01*
X64799500Y-57910436D01*
X64799500Y-57989563D01*
X64819979Y-58065989D01*
X64819979Y-58065991D01*
X64851906Y-58121288D01*
X64859540Y-58134511D01*
X64915489Y-58190460D01*
X64965649Y-58219420D01*
X64978227Y-58226682D01*
X64984011Y-58230021D01*
X65019478Y-58239524D01*
X65060436Y-58250500D01*
X65060438Y-58250500D01*
X65139564Y-58250500D01*
X65166230Y-58243354D01*
X65215989Y-58230021D01*
X65284511Y-58190460D01*
X65340460Y-58134511D01*
X65380021Y-58065989D01*
X65397759Y-57999791D01*
X65400500Y-57989563D01*
X65400500Y-57910436D01*
X65391843Y-57878134D01*
X65380021Y-57834011D01*
X65380020Y-57834009D01*
X65380020Y-57834008D01*
X65352811Y-57786881D01*
X65340460Y-57765489D01*
X65284511Y-57709540D01*
X65275326Y-57704237D01*
X65215990Y-57669979D01*
X65139564Y-57649500D01*
X65139562Y-57649500D01*
X65060438Y-57649500D01*
X65060436Y-57649500D01*
X64984010Y-57669979D01*
X64984008Y-57669979D01*
X64915488Y-57709540D01*
X64915488Y-57709541D01*
X64859541Y-57765488D01*
X64859540Y-57765488D01*
X64819979Y-57834008D01*
X64819979Y-57834010D01*
X64799500Y-57910436D01*
X63200500Y-57910436D01*
X63200500Y-57411848D01*
X65613283Y-57411848D01*
X65613283Y-57490975D01*
X65633762Y-57567401D01*
X65633762Y-57567403D01*
X65671290Y-57632402D01*
X65673323Y-57635923D01*
X65729272Y-57691872D01*
X65797794Y-57731433D01*
X65827900Y-57739500D01*
X65874219Y-57751912D01*
X65874221Y-57751912D01*
X65953342Y-57751912D01*
X65953345Y-57751912D01*
X65969366Y-57747618D01*
X65975846Y-57746344D01*
X65998806Y-57743425D01*
X66101622Y-57709028D01*
X66111411Y-57705201D01*
X66113533Y-57704247D01*
X66122877Y-57699474D01*
X66166123Y-57674596D01*
X66168223Y-57673459D01*
X66223717Y-57645224D01*
X66234564Y-57641238D01*
X66254433Y-57636504D01*
X66262527Y-57635281D01*
X66305985Y-57632404D01*
X66316153Y-57629852D01*
X66321995Y-57628386D01*
X66333922Y-57626912D01*
X75782289Y-57626912D01*
X75815272Y-57626912D01*
X75819116Y-57627063D01*
X75830841Y-57627985D01*
X75942339Y-57636760D01*
X75949922Y-57637961D01*
X76068236Y-57666366D01*
X76075542Y-57668740D01*
X76187364Y-57715059D01*
X76187949Y-57715301D01*
X76194795Y-57718789D01*
X76298540Y-57782364D01*
X76304753Y-57786879D01*
X76398764Y-57867172D01*
X76401589Y-57869784D01*
X82623324Y-64091518D01*
X82623325Y-64091520D01*
X82672694Y-64140889D01*
X82679878Y-64143864D01*
X82686340Y-64149873D01*
X82687184Y-64151719D01*
X82690233Y-64153934D01*
X82739526Y-64211650D01*
X82744046Y-64217871D01*
X82807617Y-64321613D01*
X82811107Y-64328464D01*
X82857664Y-64440865D01*
X82860040Y-64448178D01*
X82888440Y-64566480D01*
X82889643Y-64574074D01*
X82899349Y-64697424D01*
X82899500Y-64701268D01*
X82899500Y-67191636D01*
X82885148Y-67226284D01*
X82860060Y-67239694D01*
X82841162Y-67243453D01*
X82761608Y-67296608D01*
X82708452Y-67376163D01*
X82694500Y-67446306D01*
X82694500Y-67833693D01*
X82708452Y-67903836D01*
X82761608Y-67983391D01*
X82814524Y-68018748D01*
X82841161Y-68036546D01*
X82841163Y-68036547D01*
X82911306Y-68050499D01*
X82911312Y-68050500D01*
X83238688Y-68050500D01*
X83239625Y-68050313D01*
X83308836Y-68036547D01*
X83308836Y-68036546D01*
X83308839Y-68036546D01*
X83388391Y-67983391D01*
X83441546Y-67903839D01*
X83442985Y-67896609D01*
X83455499Y-67833693D01*
X83455500Y-67833688D01*
X83455500Y-67446312D01*
X83455499Y-67446306D01*
X83441547Y-67376163D01*
X83440912Y-67375213D01*
X83406134Y-67323163D01*
X83388391Y-67296608D01*
X83328860Y-67256832D01*
X83308839Y-67243454D01*
X83308838Y-67243453D01*
X83308837Y-67243453D01*
X83289940Y-67239694D01*
X83258758Y-67218858D01*
X83250500Y-67191636D01*
X83250500Y-64659502D01*
X83250490Y-64659402D01*
X83250490Y-64636161D01*
X83250491Y-64606703D01*
X83221549Y-64423953D01*
X83164375Y-64247981D01*
X83164371Y-64247974D01*
X83164368Y-64247966D01*
X83080378Y-64083123D01*
X82971625Y-63933432D01*
X82968940Y-63930747D01*
X82937781Y-63899588D01*
X82937780Y-63899586D01*
X82930889Y-63892694D01*
X82881520Y-63843325D01*
X82881519Y-63843324D01*
X82873448Y-63839981D01*
X82857554Y-63829360D01*
X76620420Y-57592225D01*
X76620402Y-57592210D01*
X76582987Y-57554795D01*
X76582986Y-57554794D01*
X76582985Y-57554793D01*
X76433294Y-57446035D01*
X76268434Y-57362034D01*
X76268433Y-57362033D01*
X76268432Y-57362033D01*
X76092462Y-57304856D01*
X76092459Y-57304855D01*
X75909712Y-57275912D01*
X75852107Y-57275912D01*
X66333004Y-57275912D01*
X66326995Y-57275542D01*
X66323559Y-57275117D01*
X66306151Y-57270414D01*
X66260502Y-57267326D01*
X66259142Y-57267158D01*
X66258754Y-57266938D01*
X66253538Y-57266132D01*
X66233161Y-57261161D01*
X66222419Y-57257161D01*
X66166987Y-57228742D01*
X66165767Y-57228094D01*
X66103306Y-57193813D01*
X66093666Y-57189141D01*
X66091520Y-57188233D01*
X66091518Y-57188232D01*
X66091501Y-57188225D01*
X66091486Y-57188219D01*
X66091462Y-57188210D01*
X66081521Y-57184580D01*
X66081493Y-57184571D01*
X66038800Y-57171391D01*
X65996240Y-57158252D01*
X65994987Y-57157898D01*
X65991272Y-57156850D01*
X65990207Y-57156578D01*
X65990204Y-57156577D01*
X65990202Y-57156577D01*
X65990200Y-57156576D01*
X65990194Y-57156576D01*
X65978240Y-57156221D01*
X65967017Y-57154574D01*
X65953347Y-57150912D01*
X65953345Y-57150912D01*
X65874221Y-57150912D01*
X65874219Y-57150912D01*
X65797793Y-57171391D01*
X65797791Y-57171391D01*
X65729271Y-57210952D01*
X65729271Y-57210953D01*
X65673324Y-57266900D01*
X65673323Y-57266900D01*
X65633762Y-57335420D01*
X65633762Y-57335422D01*
X65613283Y-57411848D01*
X63200500Y-57411848D01*
X63200500Y-56910436D01*
X64799500Y-56910436D01*
X64799500Y-56989563D01*
X64819979Y-57065989D01*
X64819979Y-57065991D01*
X64849401Y-57116950D01*
X64859540Y-57134511D01*
X64915489Y-57190460D01*
X64950984Y-57210953D01*
X64981795Y-57228742D01*
X64984011Y-57230021D01*
X65019478Y-57239524D01*
X65060436Y-57250500D01*
X65060438Y-57250500D01*
X65139564Y-57250500D01*
X65166230Y-57243354D01*
X65215989Y-57230021D01*
X65218205Y-57228742D01*
X65242872Y-57214500D01*
X65284511Y-57190460D01*
X65340460Y-57134511D01*
X65374720Y-57075170D01*
X65380020Y-57065991D01*
X65380020Y-57065990D01*
X65380021Y-57065989D01*
X65400500Y-56989562D01*
X65400500Y-56910438D01*
X65400500Y-56910436D01*
X65389200Y-56868268D01*
X65380021Y-56834011D01*
X65380020Y-56834009D01*
X65380020Y-56834008D01*
X65340459Y-56765488D01*
X65284511Y-56709540D01*
X65215990Y-56669979D01*
X65139564Y-56649500D01*
X65139562Y-56649500D01*
X65060438Y-56649500D01*
X65060436Y-56649500D01*
X64984010Y-56669979D01*
X64984008Y-56669979D01*
X64915488Y-56709540D01*
X64915488Y-56709541D01*
X64859541Y-56765488D01*
X64859540Y-56765488D01*
X64819979Y-56834008D01*
X64819979Y-56834010D01*
X64799500Y-56910436D01*
X63200500Y-56910436D01*
X63200500Y-56387206D01*
X65610297Y-56387206D01*
X65610297Y-56466333D01*
X65630776Y-56542759D01*
X65630776Y-56542761D01*
X65659877Y-56593164D01*
X65670337Y-56611281D01*
X65726286Y-56667230D01*
X65794808Y-56706791D01*
X65826791Y-56715361D01*
X65871233Y-56727270D01*
X65871235Y-56727270D01*
X65950357Y-56727270D01*
X65950359Y-56727270D01*
X65964497Y-56723481D01*
X65971997Y-56722087D01*
X65993554Y-56719800D01*
X66110642Y-56683319D01*
X66117195Y-56681038D01*
X66118643Y-56680480D01*
X66125145Y-56677721D01*
X66149097Y-56666596D01*
X66151657Y-56665496D01*
X66206605Y-56643792D01*
X66219298Y-56640655D01*
X66307927Y-56631016D01*
X66318464Y-56628013D01*
X66320707Y-56627375D01*
X66334133Y-56625500D01*
X76490879Y-56625500D01*
X76523863Y-56625500D01*
X76527706Y-56625651D01*
X76543881Y-56626923D01*
X76650931Y-56635347D01*
X76658513Y-56636548D01*
X76776829Y-56664951D01*
X76784132Y-56667324D01*
X76896545Y-56713885D01*
X76903387Y-56717371D01*
X76981911Y-56765489D01*
X77007134Y-56780945D01*
X77013355Y-56785465D01*
X77107248Y-56865656D01*
X77110073Y-56868268D01*
X82929424Y-62687619D01*
X82929435Y-62687644D01*
X83008420Y-62766628D01*
X83008423Y-62766630D01*
X83158113Y-62875384D01*
X83158115Y-62875385D01*
X83322978Y-62959384D01*
X83498951Y-63016559D01*
X83498954Y-63016559D01*
X83498956Y-63016560D01*
X83530441Y-63021546D01*
X83681702Y-63045501D01*
X83774216Y-63045500D01*
X86631636Y-63045500D01*
X86666284Y-63059852D01*
X86679694Y-63084940D01*
X86683453Y-63103837D01*
X86736608Y-63183391D01*
X86789524Y-63218748D01*
X86816161Y-63236546D01*
X86816163Y-63236547D01*
X86886306Y-63250499D01*
X86886312Y-63250500D01*
X87273688Y-63250500D01*
X87297407Y-63245782D01*
X87343836Y-63236547D01*
X87343836Y-63236546D01*
X87343839Y-63236546D01*
X87423391Y-63183391D01*
X87476546Y-63103839D01*
X87480306Y-63084940D01*
X87490499Y-63033693D01*
X87490500Y-63033688D01*
X87490500Y-62706312D01*
X87490499Y-62706306D01*
X87476547Y-62636163D01*
X87423391Y-62556608D01*
X87343836Y-62503452D01*
X87273693Y-62489500D01*
X87273688Y-62489500D01*
X86886312Y-62489500D01*
X86886306Y-62489500D01*
X86816163Y-62503452D01*
X86736608Y-62556608D01*
X86683453Y-62636162D01*
X86679694Y-62655060D01*
X86658858Y-62686242D01*
X86631636Y-62694500D01*
X83776137Y-62694500D01*
X83772293Y-62694349D01*
X83649073Y-62684653D01*
X83641479Y-62683450D01*
X83523175Y-62655049D01*
X83515862Y-62652673D01*
X83403459Y-62606116D01*
X83396608Y-62602626D01*
X83292865Y-62539054D01*
X83286644Y-62534534D01*
X83192750Y-62454342D01*
X83189925Y-62451730D01*
X81344501Y-60606306D01*
X85749500Y-60606306D01*
X85749500Y-60933693D01*
X85763452Y-61003836D01*
X85816608Y-61083391D01*
X85861166Y-61113163D01*
X85896161Y-61136546D01*
X85896163Y-61136547D01*
X85966306Y-61150499D01*
X85966312Y-61150500D01*
X86353688Y-61150500D01*
X86356202Y-61150000D01*
X86423836Y-61136547D01*
X86423836Y-61136546D01*
X86423839Y-61136546D01*
X86503391Y-61083391D01*
X86556546Y-61003839D01*
X86570500Y-60933688D01*
X86570500Y-60606312D01*
X86569341Y-60600483D01*
X86556547Y-60536163D01*
X86503391Y-60456608D01*
X86423836Y-60403452D01*
X86353693Y-60389500D01*
X86353688Y-60389500D01*
X85966312Y-60389500D01*
X85966306Y-60389500D01*
X85896163Y-60403452D01*
X85816608Y-60456608D01*
X85763452Y-60536163D01*
X85749500Y-60606306D01*
X81344501Y-60606306D01*
X80709995Y-59971800D01*
X84209500Y-59971800D01*
X84209500Y-60288199D01*
X84223163Y-60356886D01*
X84275213Y-60434786D01*
X84304966Y-60454666D01*
X84353112Y-60486836D01*
X84421804Y-60500500D01*
X84838196Y-60500500D01*
X84906888Y-60486836D01*
X84984786Y-60434786D01*
X85036836Y-60356888D01*
X85050500Y-60288196D01*
X85050500Y-59971804D01*
X85036836Y-59903112D01*
X85010811Y-59864163D01*
X84984786Y-59825213D01*
X84918533Y-59780945D01*
X84906888Y-59773164D01*
X84906887Y-59773163D01*
X84906886Y-59773163D01*
X84838199Y-59759500D01*
X84838196Y-59759500D01*
X84421804Y-59759500D01*
X84421800Y-59759500D01*
X84353113Y-59773163D01*
X84275213Y-59825213D01*
X84223163Y-59903113D01*
X84209500Y-59971800D01*
X80709995Y-59971800D01*
X77372132Y-56633937D01*
X77372122Y-56633914D01*
X77291579Y-56553371D01*
X77291576Y-56553369D01*
X77141886Y-56444615D01*
X76977025Y-56360617D01*
X76977020Y-56360615D01*
X76801052Y-56303442D01*
X76801043Y-56303439D01*
X76642251Y-56278292D01*
X76618298Y-56274499D01*
X76618297Y-56274499D01*
X76525784Y-56274500D01*
X66330480Y-56274500D01*
X66323936Y-56274061D01*
X66320618Y-56273613D01*
X66303912Y-56268985D01*
X66264714Y-56266080D01*
X66263246Y-56265883D01*
X66262796Y-56265621D01*
X66257248Y-56264690D01*
X66251481Y-56263163D01*
X66245212Y-56261503D01*
X66232258Y-56255978D01*
X66209746Y-56242259D01*
X66174742Y-56220927D01*
X66172983Y-56219802D01*
X66111590Y-56178625D01*
X66099684Y-56171722D01*
X66099654Y-56171705D01*
X66098196Y-56170983D01*
X66096926Y-56170354D01*
X66096920Y-56170351D01*
X66096917Y-56170350D01*
X66084241Y-56165069D01*
X66084211Y-56165058D01*
X65996522Y-56135085D01*
X65996520Y-56135084D01*
X65996516Y-56135083D01*
X65994650Y-56134511D01*
X65990070Y-56133107D01*
X65989719Y-56133011D01*
X65988627Y-56132715D01*
X65988624Y-56132714D01*
X65988617Y-56132714D01*
X65977658Y-56132308D01*
X65966790Y-56130672D01*
X65950362Y-56126270D01*
X65950359Y-56126270D01*
X65871235Y-56126270D01*
X65871233Y-56126270D01*
X65794807Y-56146749D01*
X65794805Y-56146749D01*
X65726285Y-56186310D01*
X65726285Y-56186311D01*
X65670338Y-56242258D01*
X65670337Y-56242258D01*
X65630776Y-56310778D01*
X65630776Y-56310780D01*
X65610297Y-56387206D01*
X63200500Y-56387206D01*
X63200500Y-55910436D01*
X64799500Y-55910436D01*
X64799500Y-55989563D01*
X64819979Y-56065989D01*
X64819979Y-56065991D01*
X64858503Y-56132715D01*
X64859540Y-56134511D01*
X64915489Y-56190460D01*
X64984011Y-56230021D01*
X65009937Y-56236968D01*
X65060436Y-56250500D01*
X65060438Y-56250500D01*
X65139564Y-56250500D01*
X65170321Y-56242258D01*
X65215989Y-56230021D01*
X65284511Y-56190460D01*
X65340460Y-56134511D01*
X65380021Y-56065989D01*
X65400500Y-55989562D01*
X65400500Y-55910438D01*
X65400500Y-55910436D01*
X65391180Y-55875656D01*
X65380021Y-55834011D01*
X65380020Y-55834009D01*
X65380020Y-55834008D01*
X65351054Y-55783839D01*
X65340460Y-55765489D01*
X65284511Y-55709540D01*
X65268782Y-55700459D01*
X65215990Y-55669979D01*
X65139564Y-55649500D01*
X65139562Y-55649500D01*
X65060438Y-55649500D01*
X65060436Y-55649500D01*
X64984010Y-55669979D01*
X64984008Y-55669979D01*
X64915488Y-55709540D01*
X64915488Y-55709541D01*
X64859541Y-55765488D01*
X64859540Y-55765488D01*
X64819979Y-55834008D01*
X64819979Y-55834010D01*
X64799500Y-55910436D01*
X63200500Y-55910436D01*
X63200500Y-55420436D01*
X65979500Y-55420436D01*
X65979500Y-55499563D01*
X65999979Y-55575989D01*
X65999979Y-55575991D01*
X66037507Y-55640990D01*
X66039540Y-55644511D01*
X66095489Y-55700460D01*
X66164011Y-55740021D01*
X66199478Y-55749524D01*
X66240436Y-55760500D01*
X66240438Y-55760500D01*
X66319559Y-55760500D01*
X66319562Y-55760500D01*
X66335583Y-55756206D01*
X66342063Y-55754932D01*
X66365023Y-55752013D01*
X66467839Y-55717616D01*
X66477628Y-55713789D01*
X66479750Y-55712835D01*
X66489094Y-55708062D01*
X66532340Y-55683184D01*
X66534440Y-55682047D01*
X66589934Y-55653812D01*
X66600781Y-55649826D01*
X66620650Y-55645092D01*
X66628744Y-55643869D01*
X66672202Y-55640992D01*
X66680913Y-55638805D01*
X66688212Y-55636974D01*
X66700139Y-55635500D01*
X77020879Y-55635500D01*
X77053863Y-55635500D01*
X77057706Y-55635651D01*
X77073881Y-55636923D01*
X77180931Y-55645347D01*
X77188513Y-55646548D01*
X77306829Y-55674951D01*
X77314132Y-55677324D01*
X77426545Y-55723885D01*
X77433387Y-55727371D01*
X77537134Y-55790945D01*
X77543355Y-55795465D01*
X77637248Y-55875656D01*
X77640073Y-55878268D01*
X80729424Y-58967619D01*
X80729435Y-58967644D01*
X80808420Y-59046628D01*
X80808423Y-59046630D01*
X80958113Y-59155384D01*
X81098705Y-59227017D01*
X81122978Y-59239384D01*
X81298951Y-59296559D01*
X81298954Y-59296559D01*
X81298956Y-59296560D01*
X81330441Y-59301546D01*
X81481702Y-59325501D01*
X81574216Y-59325500D01*
X82345669Y-59325500D01*
X82380317Y-59339852D01*
X82393727Y-59364941D01*
X82403452Y-59413836D01*
X82456608Y-59493391D01*
X82509524Y-59528748D01*
X82536161Y-59546546D01*
X82536163Y-59546547D01*
X82606306Y-59560499D01*
X82606312Y-59560500D01*
X82933688Y-59560500D01*
X82934625Y-59560313D01*
X83003836Y-59546547D01*
X83003836Y-59546546D01*
X83003839Y-59546546D01*
X83083391Y-59493391D01*
X83136546Y-59413839D01*
X83143257Y-59380104D01*
X83150499Y-59343693D01*
X83150500Y-59343688D01*
X83150500Y-58956312D01*
X83150499Y-58956306D01*
X83136547Y-58886163D01*
X83136540Y-58886153D01*
X83118748Y-58859524D01*
X83083391Y-58806608D01*
X83003836Y-58753452D01*
X82933693Y-58739500D01*
X82933688Y-58739500D01*
X82606312Y-58739500D01*
X82606306Y-58739500D01*
X82536163Y-58753452D01*
X82456608Y-58806608D01*
X82403452Y-58886163D01*
X82393727Y-58935059D01*
X82372892Y-58966242D01*
X82345669Y-58974500D01*
X81576137Y-58974500D01*
X81572293Y-58974349D01*
X81449073Y-58964653D01*
X81441479Y-58963450D01*
X81323175Y-58935049D01*
X81315862Y-58932673D01*
X81203459Y-58886116D01*
X81196608Y-58882626D01*
X81092865Y-58819054D01*
X81086644Y-58814534D01*
X80992750Y-58734342D01*
X80989925Y-58731730D01*
X77902132Y-55643937D01*
X77902122Y-55643914D01*
X77821579Y-55563371D01*
X77821576Y-55563369D01*
X77671886Y-55454615D01*
X77507025Y-55370617D01*
X77507020Y-55370615D01*
X77331052Y-55313442D01*
X77331043Y-55313439D01*
X77172251Y-55288292D01*
X77148298Y-55284499D01*
X77148297Y-55284499D01*
X77055784Y-55284500D01*
X66699221Y-55284500D01*
X66693212Y-55284130D01*
X66689776Y-55283705D01*
X66672368Y-55279002D01*
X66626719Y-55275914D01*
X66625359Y-55275746D01*
X66624971Y-55275526D01*
X66619755Y-55274720D01*
X66599378Y-55269749D01*
X66588636Y-55265749D01*
X66533204Y-55237330D01*
X66531984Y-55236682D01*
X66469523Y-55202401D01*
X66459883Y-55197729D01*
X66457737Y-55196821D01*
X66457735Y-55196820D01*
X66457718Y-55196813D01*
X66457703Y-55196807D01*
X66457679Y-55196798D01*
X66447738Y-55193168D01*
X66447710Y-55193159D01*
X66393900Y-55176547D01*
X66362457Y-55166840D01*
X66361204Y-55166486D01*
X66357489Y-55165438D01*
X66356424Y-55165166D01*
X66356421Y-55165165D01*
X66356419Y-55165165D01*
X66356417Y-55165164D01*
X66356411Y-55165164D01*
X66344457Y-55164809D01*
X66333234Y-55163162D01*
X66319564Y-55159500D01*
X66319562Y-55159500D01*
X66240438Y-55159500D01*
X66240436Y-55159500D01*
X66164010Y-55179979D01*
X66164008Y-55179979D01*
X66095488Y-55219540D01*
X66095488Y-55219541D01*
X66039541Y-55275488D01*
X66039540Y-55275488D01*
X65999979Y-55344008D01*
X65999979Y-55344010D01*
X65979500Y-55420436D01*
X63200500Y-55420436D01*
X63200500Y-54910436D01*
X64799500Y-54910436D01*
X64799500Y-54989563D01*
X64819979Y-55065989D01*
X64819979Y-55065991D01*
X64853120Y-55123391D01*
X64859540Y-55134511D01*
X64915489Y-55190460D01*
X64984011Y-55230021D01*
X65008870Y-55236682D01*
X65060436Y-55250500D01*
X65060438Y-55250500D01*
X65139564Y-55250500D01*
X65166230Y-55243354D01*
X65215989Y-55230021D01*
X65284511Y-55190460D01*
X65340460Y-55134511D01*
X65380021Y-55065989D01*
X65400500Y-54989562D01*
X65400500Y-54910438D01*
X65400500Y-54910436D01*
X65389200Y-54868268D01*
X65380021Y-54834011D01*
X65380020Y-54834009D01*
X65380020Y-54834008D01*
X65340459Y-54765488D01*
X65284511Y-54709540D01*
X65215990Y-54669979D01*
X65139564Y-54649500D01*
X65139562Y-54649500D01*
X65060438Y-54649500D01*
X65060436Y-54649500D01*
X64984010Y-54669979D01*
X64984008Y-54669979D01*
X64915488Y-54709540D01*
X64915488Y-54709541D01*
X64859541Y-54765488D01*
X64859540Y-54765488D01*
X64819979Y-54834008D01*
X64819979Y-54834010D01*
X64799500Y-54910436D01*
X63200500Y-54910436D01*
X63200500Y-54410436D01*
X65949500Y-54410436D01*
X65949500Y-54489563D01*
X65969979Y-54565989D01*
X65969979Y-54565991D01*
X66005561Y-54627619D01*
X66009540Y-54634511D01*
X66065489Y-54690460D01*
X66134011Y-54730021D01*
X66169478Y-54739524D01*
X66210436Y-54750500D01*
X66210438Y-54750500D01*
X66289559Y-54750500D01*
X66289562Y-54750500D01*
X66305583Y-54746206D01*
X66312063Y-54744932D01*
X66335023Y-54742013D01*
X66437839Y-54707616D01*
X66447628Y-54703789D01*
X66449750Y-54702835D01*
X66459094Y-54698062D01*
X66502340Y-54673184D01*
X66504440Y-54672047D01*
X66559934Y-54643812D01*
X66570781Y-54639826D01*
X66590650Y-54635092D01*
X66598744Y-54633869D01*
X66642202Y-54630992D01*
X66650913Y-54628805D01*
X66658212Y-54626974D01*
X66670139Y-54625500D01*
X77440879Y-54625500D01*
X77473863Y-54625500D01*
X77477706Y-54625651D01*
X77493881Y-54626923D01*
X77600931Y-54635347D01*
X77608513Y-54636548D01*
X77726829Y-54664951D01*
X77734132Y-54667324D01*
X77846545Y-54713885D01*
X77853387Y-54717371D01*
X77931911Y-54765489D01*
X77957134Y-54780945D01*
X77963355Y-54785465D01*
X78057248Y-54865656D01*
X78060073Y-54868268D01*
X80939424Y-57747619D01*
X80939435Y-57747644D01*
X81018420Y-57826628D01*
X81018423Y-57826630D01*
X81168113Y-57935384D01*
X81268531Y-57986548D01*
X81332978Y-58019384D01*
X81508951Y-58076559D01*
X81508954Y-58076559D01*
X81508956Y-58076560D01*
X81540441Y-58081546D01*
X81691702Y-58105501D01*
X81784216Y-58105500D01*
X82325669Y-58105500D01*
X82360317Y-58119852D01*
X82373727Y-58144941D01*
X82383452Y-58193836D01*
X82436608Y-58273391D01*
X82481579Y-58303439D01*
X82516161Y-58326546D01*
X82516163Y-58326547D01*
X82586306Y-58340499D01*
X82586312Y-58340500D01*
X82913688Y-58340500D01*
X82924195Y-58338410D01*
X82983836Y-58326547D01*
X82983836Y-58326546D01*
X82983839Y-58326546D01*
X83063391Y-58273391D01*
X83116546Y-58193839D01*
X83117219Y-58190460D01*
X83130499Y-58123693D01*
X83130500Y-58123688D01*
X83130500Y-57736312D01*
X83130499Y-57736306D01*
X83329500Y-57736306D01*
X83329500Y-58123693D01*
X83343452Y-58193836D01*
X83396608Y-58273391D01*
X83441579Y-58303439D01*
X83476161Y-58326546D01*
X83476163Y-58326547D01*
X83546306Y-58340499D01*
X83546312Y-58340500D01*
X83873688Y-58340500D01*
X83884195Y-58338410D01*
X83943836Y-58326547D01*
X83943836Y-58326546D01*
X83943839Y-58326546D01*
X84023391Y-58273391D01*
X84076546Y-58193839D01*
X84076547Y-58193836D01*
X84077589Y-58192277D01*
X84081762Y-58189488D01*
X84083683Y-58184852D01*
X84096886Y-58179382D01*
X84108771Y-58171442D01*
X84118331Y-58170500D01*
X84169493Y-58170500D01*
X84204141Y-58184852D01*
X84209806Y-58193326D01*
X84210483Y-58192875D01*
X84213163Y-58196887D01*
X84213164Y-58196888D01*
X84221618Y-58209540D01*
X84265213Y-58274786D01*
X84304163Y-58300811D01*
X84343112Y-58326836D01*
X84411804Y-58340500D01*
X84828196Y-58340500D01*
X84896888Y-58326836D01*
X84974786Y-58274786D01*
X85026836Y-58196888D01*
X85026836Y-58196887D01*
X85029517Y-58192875D01*
X85031667Y-58194311D01*
X85051775Y-58174222D01*
X85070507Y-58170500D01*
X85766654Y-58170500D01*
X85801302Y-58184852D01*
X86126801Y-58510351D01*
X86141153Y-58544999D01*
X86126801Y-58579647D01*
X85811302Y-58895148D01*
X85776654Y-58909500D01*
X85080507Y-58909500D01*
X85045859Y-58895148D01*
X85040193Y-58886673D01*
X85039517Y-58887125D01*
X85026917Y-58868268D01*
X85004026Y-58834008D01*
X84984786Y-58805213D01*
X84907319Y-58753452D01*
X84906888Y-58753164D01*
X84906887Y-58753163D01*
X84906886Y-58753163D01*
X84838199Y-58739500D01*
X84838196Y-58739500D01*
X84421804Y-58739500D01*
X84421800Y-58739500D01*
X84353113Y-58753163D01*
X84275213Y-58805213D01*
X84220483Y-58887125D01*
X84218332Y-58885688D01*
X84217866Y-58886153D01*
X84214141Y-58895148D01*
X84205127Y-58898881D01*
X84198225Y-58905778D01*
X84179493Y-58909500D01*
X84138331Y-58909500D01*
X84103683Y-58895148D01*
X84097589Y-58887723D01*
X84096546Y-58886162D01*
X84096546Y-58886161D01*
X84069935Y-58846336D01*
X84043391Y-58806608D01*
X83963836Y-58753452D01*
X83893693Y-58739500D01*
X83893688Y-58739500D01*
X83566312Y-58739500D01*
X83566306Y-58739500D01*
X83496163Y-58753452D01*
X83416608Y-58806608D01*
X83363452Y-58886163D01*
X83349500Y-58956306D01*
X83349500Y-59343693D01*
X83363452Y-59413836D01*
X83416608Y-59493391D01*
X83469524Y-59528748D01*
X83496161Y-59546546D01*
X83496163Y-59546547D01*
X83566306Y-59560499D01*
X83566312Y-59560500D01*
X83893688Y-59560500D01*
X83894625Y-59560313D01*
X83963836Y-59546547D01*
X83963836Y-59546546D01*
X83963839Y-59546546D01*
X84043391Y-59493391D01*
X84096546Y-59413839D01*
X84103258Y-59380095D01*
X84109257Y-59349940D01*
X84117197Y-59338055D01*
X84122667Y-59324852D01*
X84127303Y-59322931D01*
X84130092Y-59318758D01*
X84157315Y-59310500D01*
X84179493Y-59310500D01*
X84214141Y-59324852D01*
X84219806Y-59333326D01*
X84220483Y-59332875D01*
X84223163Y-59336887D01*
X84223164Y-59336888D01*
X84227708Y-59343688D01*
X84275213Y-59414786D01*
X84314163Y-59440811D01*
X84353112Y-59466836D01*
X84421804Y-59480500D01*
X84838196Y-59480500D01*
X84906888Y-59466836D01*
X84984786Y-59414786D01*
X85036836Y-59336888D01*
X85036836Y-59336887D01*
X85039517Y-59332875D01*
X85041667Y-59334311D01*
X85061775Y-59314222D01*
X85080507Y-59310500D01*
X85919880Y-59310500D01*
X85919882Y-59310500D01*
X85993574Y-59279976D01*
X86318698Y-58954852D01*
X86353346Y-58940500D01*
X86844627Y-58940500D01*
X86844631Y-58940499D01*
X87079895Y-58940499D01*
X87079898Y-58940499D01*
X87101442Y-58936214D01*
X87138223Y-58943530D01*
X87159058Y-58974713D01*
X87160000Y-58984272D01*
X87160000Y-59284790D01*
X87148556Y-59312416D01*
X87150224Y-59313531D01*
X87125330Y-59350786D01*
X87125330Y-59350787D01*
X87119500Y-59380095D01*
X87119500Y-59876654D01*
X87105148Y-59911302D01*
X86926426Y-60090024D01*
X86898790Y-60117660D01*
X86870024Y-60146425D01*
X86839500Y-60220116D01*
X86839500Y-60559492D01*
X86825148Y-60594140D01*
X86816674Y-60599809D01*
X86817124Y-60600483D01*
X86735213Y-60655213D01*
X86683164Y-60733112D01*
X86683163Y-60733112D01*
X86669500Y-60801800D01*
X86669500Y-61218199D01*
X86683163Y-61286886D01*
X86735213Y-61364786D01*
X86761253Y-61382185D01*
X86813112Y-61416836D01*
X86817125Y-61419517D01*
X86815680Y-61421678D01*
X86816122Y-61422119D01*
X86825148Y-61425858D01*
X86828868Y-61434840D01*
X86835751Y-61441709D01*
X86839500Y-61460506D01*
X86839500Y-61501668D01*
X86825148Y-61536316D01*
X86817723Y-61542410D01*
X86736608Y-61596608D01*
X86683452Y-61676163D01*
X86669500Y-61746306D01*
X86669500Y-62073693D01*
X86683452Y-62143836D01*
X86736608Y-62223391D01*
X86789524Y-62258748D01*
X86816161Y-62276546D01*
X86816163Y-62276547D01*
X86886306Y-62290499D01*
X86886312Y-62290500D01*
X87273688Y-62290500D01*
X87274625Y-62290313D01*
X87343836Y-62276547D01*
X87343836Y-62276546D01*
X87343839Y-62276546D01*
X87423391Y-62223391D01*
X87476546Y-62143839D01*
X87490500Y-62073688D01*
X87490500Y-61746312D01*
X87480669Y-61696888D01*
X87476547Y-61676163D01*
X87423391Y-61596608D01*
X87354384Y-61550500D01*
X87343839Y-61543454D01*
X87343838Y-61543453D01*
X87343837Y-61543453D01*
X87279940Y-61530743D01*
X87268055Y-61522802D01*
X87254852Y-61517333D01*
X87252931Y-61512696D01*
X87248758Y-61509908D01*
X87240500Y-61482685D01*
X87240500Y-61460506D01*
X87254852Y-61425858D01*
X87263330Y-61420198D01*
X87262875Y-61419517D01*
X87266887Y-61416836D01*
X87266888Y-61416836D01*
X87344786Y-61364786D01*
X87396836Y-61286888D01*
X87410500Y-61218196D01*
X87410500Y-60801804D01*
X87396836Y-60733112D01*
X87379638Y-60707373D01*
X87344786Y-60655213D01*
X87262876Y-60600483D01*
X87264308Y-60598339D01*
X87244206Y-60578186D01*
X87240500Y-60559492D01*
X87240500Y-60363346D01*
X87254852Y-60328698D01*
X87435852Y-60147698D01*
X87470500Y-60133346D01*
X87505148Y-60147698D01*
X87519500Y-60182346D01*
X87519500Y-60630118D01*
X87519500Y-60709882D01*
X87550024Y-60783574D01*
X87550025Y-60783575D01*
X87550025Y-60783576D01*
X87675148Y-60908698D01*
X87689500Y-60943346D01*
X87689500Y-61218199D01*
X87703163Y-61286886D01*
X87755213Y-61364786D01*
X87781250Y-61382183D01*
X87833112Y-61416836D01*
X87901804Y-61430500D01*
X88218196Y-61430500D01*
X88286888Y-61416836D01*
X88364786Y-61364786D01*
X88400190Y-61311800D01*
X89049500Y-61311800D01*
X89049500Y-61628199D01*
X89063163Y-61696886D01*
X89115213Y-61774786D01*
X89148664Y-61797137D01*
X89193112Y-61826836D01*
X89261804Y-61840500D01*
X89678196Y-61840500D01*
X89746888Y-61826836D01*
X89824786Y-61774786D01*
X89876836Y-61696888D01*
X89890500Y-61628196D01*
X89890500Y-61311804D01*
X89876836Y-61243112D01*
X89850691Y-61203984D01*
X89824786Y-61165213D01*
X89757966Y-61120566D01*
X89746888Y-61113164D01*
X89746887Y-61113163D01*
X89746886Y-61113163D01*
X89678199Y-61099500D01*
X89678196Y-61099500D01*
X89261804Y-61099500D01*
X89261800Y-61099500D01*
X89193113Y-61113163D01*
X89115213Y-61165213D01*
X89063163Y-61243113D01*
X89049500Y-61311800D01*
X88400190Y-61311800D01*
X88416836Y-61286888D01*
X88430500Y-61218196D01*
X88430500Y-60801804D01*
X88416836Y-60733112D01*
X88399638Y-60707373D01*
X88364786Y-60655213D01*
X88291590Y-60606306D01*
X88286888Y-60603164D01*
X88286887Y-60603163D01*
X88286886Y-60603163D01*
X88258708Y-60597558D01*
X88245311Y-60588606D01*
X88224174Y-60590689D01*
X88221863Y-60590229D01*
X88218196Y-60589500D01*
X88218195Y-60589500D01*
X87969500Y-60589500D01*
X87934852Y-60575148D01*
X87920500Y-60540500D01*
X87920500Y-60311636D01*
X87934852Y-60276988D01*
X87969500Y-60262636D01*
X88004148Y-60276988D01*
X88204748Y-60477587D01*
X88220950Y-60484297D01*
X88242518Y-60493231D01*
X88252486Y-60497361D01*
X88258567Y-60503442D01*
X88268268Y-60500500D01*
X89000500Y-60500500D01*
X89035148Y-60514852D01*
X89049500Y-60549500D01*
X89049500Y-60608199D01*
X89063163Y-60676886D01*
X89063163Y-60676887D01*
X89063164Y-60676888D01*
X89066064Y-60681228D01*
X89115213Y-60754786D01*
X89142413Y-60772960D01*
X89193112Y-60806836D01*
X89261804Y-60820500D01*
X89678196Y-60820500D01*
X89746888Y-60806836D01*
X89824786Y-60754786D01*
X89876836Y-60676888D01*
X89876836Y-60676887D01*
X89879517Y-60672875D01*
X89881667Y-60674311D01*
X89901775Y-60654222D01*
X89920507Y-60650500D01*
X90583012Y-60650500D01*
X90583014Y-60650501D01*
X90619685Y-60650500D01*
X90626079Y-60650919D01*
X90694019Y-60659862D01*
X90706373Y-60663172D01*
X90749963Y-60681228D01*
X90766684Y-60688154D01*
X90777761Y-60694549D01*
X90832099Y-60736242D01*
X90836919Y-60740469D01*
X91449502Y-61353052D01*
X91453729Y-61357871D01*
X91495446Y-61412239D01*
X91501841Y-61423317D01*
X91526821Y-61483627D01*
X91530132Y-61495983D01*
X91539080Y-61563958D01*
X91539499Y-61570353D01*
X91539499Y-61612685D01*
X91539500Y-61612694D01*
X91539500Y-71840118D01*
X91539500Y-71880000D01*
X91539500Y-71998011D01*
X91570307Y-72232014D01*
X91570308Y-72232018D01*
X91570309Y-72232025D01*
X91631391Y-72459986D01*
X91631395Y-72459996D01*
X91721716Y-72678050D01*
X91839725Y-72882447D01*
X91839735Y-72882462D01*
X91983403Y-73069693D01*
X91983413Y-73069705D01*
X92150294Y-73236586D01*
X92150306Y-73236596D01*
X92337537Y-73380264D01*
X92337546Y-73380270D01*
X92337550Y-73380273D01*
X92541951Y-73498284D01*
X92760007Y-73588606D01*
X92760010Y-73588606D01*
X92760013Y-73588608D01*
X92987974Y-73649690D01*
X92987975Y-73649690D01*
X92987986Y-73649693D01*
X93221989Y-73680500D01*
X93300118Y-73680500D01*
X118960100Y-73680500D01*
X118998495Y-73680500D01*
X119001453Y-73680589D01*
X119017639Y-73681568D01*
X119268187Y-73696721D01*
X119274046Y-73697434D01*
X119535422Y-73745330D01*
X119541148Y-73746741D01*
X119794844Y-73825795D01*
X119800371Y-73827891D01*
X120042693Y-73936949D01*
X120047923Y-73939695D01*
X120275324Y-74077163D01*
X120280183Y-74080516D01*
X120489360Y-74244396D01*
X120493789Y-74248320D01*
X120681679Y-74436210D01*
X120685603Y-74440639D01*
X120846408Y-74645892D01*
X120849479Y-74649811D01*
X120852838Y-74654679D01*
X120897042Y-74727800D01*
X120990302Y-74882072D01*
X120993052Y-74887311D01*
X121102107Y-75129625D01*
X121104205Y-75135158D01*
X121183255Y-75388842D01*
X121184671Y-75394587D01*
X121232564Y-75655945D01*
X121233278Y-75661819D01*
X121249411Y-75928546D01*
X121249500Y-75931504D01*
X121249500Y-79051395D01*
X121249212Y-79056696D01*
X121248821Y-79060288D01*
X121244033Y-79078627D01*
X121240710Y-79134821D01*
X121240578Y-79136042D01*
X121240406Y-79136355D01*
X121239744Y-79141169D01*
X121232887Y-79172652D01*
X121230362Y-79180775D01*
X121209520Y-79231730D01*
X121209272Y-79232324D01*
X121182692Y-79294947D01*
X121180134Y-79301586D01*
X121179626Y-79303049D01*
X121177498Y-79309923D01*
X121155340Y-79391191D01*
X121154475Y-79394586D01*
X121154299Y-79395326D01*
X121154298Y-79395332D01*
X121154035Y-79408036D01*
X121152377Y-79419697D01*
X121149500Y-79430436D01*
X121149500Y-79509563D01*
X121169979Y-79585989D01*
X121169979Y-79585991D01*
X121203767Y-79644512D01*
X121209540Y-79654511D01*
X121265489Y-79710460D01*
X121334011Y-79750021D01*
X121369478Y-79759524D01*
X121410436Y-79770500D01*
X121410438Y-79770500D01*
X121489564Y-79770500D01*
X121516230Y-79763354D01*
X121565989Y-79750021D01*
X121634511Y-79710460D01*
X121690460Y-79654511D01*
X121730021Y-79585989D01*
X121750500Y-79509562D01*
X121750500Y-79430438D01*
X121750500Y-79430436D01*
X121747622Y-79419697D01*
X121746754Y-79416460D01*
X121745351Y-79408874D01*
X121743120Y-79387446D01*
X121716030Y-79299923D01*
X121706450Y-79268973D01*
X121704258Y-79262616D01*
X121703729Y-79261227D01*
X121701141Y-79255029D01*
X121691086Y-79232964D01*
X121689971Y-79230313D01*
X121668534Y-79174859D01*
X121665513Y-79162374D01*
X121664449Y-79152374D01*
X121656021Y-79073144D01*
X121653191Y-79063145D01*
X121652352Y-79060181D01*
X121650500Y-79046836D01*
X121650500Y-75880118D01*
X121650501Y-75781171D01*
X121617171Y-75485342D01*
X121550928Y-75195105D01*
X121452605Y-74914109D01*
X121446494Y-74901420D01*
X121323444Y-74645902D01*
X121323439Y-74645892D01*
X121312738Y-74628862D01*
X121240641Y-74514118D01*
X121165054Y-74393820D01*
X120979445Y-74161074D01*
X120979434Y-74161062D01*
X120768937Y-73950565D01*
X120768925Y-73950554D01*
X120536179Y-73764945D01*
X120284107Y-73606560D01*
X120284097Y-73606555D01*
X120015901Y-73477399D01*
X120015889Y-73477394D01*
X119734898Y-73379073D01*
X119734893Y-73379071D01*
X119596656Y-73347520D01*
X119444658Y-73312829D01*
X119444652Y-73312828D01*
X119444651Y-73312828D01*
X119148829Y-73279499D01*
X118999978Y-73279500D01*
X93341925Y-73279500D01*
X93338082Y-73279349D01*
X93297328Y-73276141D01*
X93124913Y-73262572D01*
X93117319Y-73261369D01*
X92911279Y-73211903D01*
X92903967Y-73209527D01*
X92708204Y-73128440D01*
X92701352Y-73124949D01*
X92520683Y-73014234D01*
X92514463Y-73009715D01*
X92353336Y-72872100D01*
X92347899Y-72866663D01*
X92234399Y-72733771D01*
X92210282Y-72705533D01*
X92205765Y-72699316D01*
X92192733Y-72678050D01*
X92095048Y-72518644D01*
X92091559Y-72511795D01*
X92070103Y-72459996D01*
X92010472Y-72316032D01*
X92008096Y-72308720D01*
X91998295Y-72267896D01*
X91958629Y-72102676D01*
X91957427Y-72095085D01*
X91949787Y-71998011D01*
X91940651Y-71881918D01*
X91940500Y-71878074D01*
X91940500Y-61522000D01*
X91940495Y-61521954D01*
X91940495Y-61512696D01*
X91940496Y-61498117D01*
X91913577Y-61362781D01*
X91913576Y-61362778D01*
X91913574Y-61362772D01*
X91871150Y-61260349D01*
X91860774Y-61235298D01*
X91784114Y-61120566D01*
X91763529Y-61099980D01*
X91763529Y-61099979D01*
X91729539Y-61065989D01*
X91707129Y-61043578D01*
X91707128Y-61043577D01*
X91704335Y-61040784D01*
X91704329Y-61040779D01*
X91134036Y-60470486D01*
X91134030Y-60470472D01*
X91069436Y-60405881D01*
X91069435Y-60405880D01*
X90954703Y-60329221D01*
X90827227Y-60276420D01*
X90827221Y-60276418D01*
X90757930Y-60262636D01*
X90691884Y-60249499D01*
X90691881Y-60249499D01*
X90622890Y-60249500D01*
X89920507Y-60249500D01*
X89885859Y-60235148D01*
X89880193Y-60226673D01*
X89879517Y-60227125D01*
X89824786Y-60145213D01*
X89766493Y-60106264D01*
X89746888Y-60093164D01*
X89746887Y-60093163D01*
X89746886Y-60093163D01*
X89678199Y-60079500D01*
X89678196Y-60079500D01*
X89261804Y-60079500D01*
X89261800Y-60079500D01*
X89193113Y-60093163D01*
X89115213Y-60145213D01*
X89093492Y-60177723D01*
X89062310Y-60198558D01*
X89052750Y-60199500D01*
X88372635Y-60199500D01*
X88337988Y-60185148D01*
X88284850Y-60132010D01*
X88270500Y-60097364D01*
X88270500Y-60053319D01*
X88284852Y-60018671D01*
X88292280Y-60012575D01*
X88292457Y-60012457D01*
X88307754Y-59989563D01*
X88314668Y-59979216D01*
X88314669Y-59979212D01*
X88316144Y-59971800D01*
X88320500Y-59949899D01*
X88320499Y-59380102D01*
X88314669Y-59350787D01*
X88314667Y-59350785D01*
X88314225Y-59348558D01*
X88321543Y-59311776D01*
X88352726Y-59290941D01*
X88362284Y-59290000D01*
X88491429Y-59290000D01*
X88420000Y-59390000D01*
X88420000Y-59940000D01*
X90220000Y-59940000D01*
X90220000Y-58700438D01*
X90509500Y-58700438D01*
X90509500Y-58703176D01*
X90509500Y-58779563D01*
X90517830Y-58810649D01*
X90519500Y-58823332D01*
X90519500Y-58933693D01*
X90533452Y-59003836D01*
X90586608Y-59083391D01*
X90639524Y-59118748D01*
X90666161Y-59136546D01*
X90666163Y-59136547D01*
X90736306Y-59150499D01*
X90736312Y-59150500D01*
X91063688Y-59150500D01*
X91068715Y-59149500D01*
X91133836Y-59136547D01*
X91133836Y-59136546D01*
X91133839Y-59136546D01*
X91213391Y-59083391D01*
X91266546Y-59003839D01*
X91280500Y-58933688D01*
X91280500Y-58546312D01*
X91273347Y-58510351D01*
X91266547Y-58476163D01*
X91213391Y-58396608D01*
X91133836Y-58343452D01*
X91063693Y-58329500D01*
X91063688Y-58329500D01*
X90736312Y-58329500D01*
X90736306Y-58329500D01*
X90666163Y-58343452D01*
X90586608Y-58396608D01*
X90533452Y-58476163D01*
X90519500Y-58546306D01*
X90519500Y-58656667D01*
X90518010Y-58667975D01*
X90518075Y-58668397D01*
X90517954Y-58668886D01*
X90509500Y-58700438D01*
X90220000Y-58700438D01*
X90220000Y-58380000D01*
X89638005Y-58380000D01*
X89663268Y-58363774D01*
X89670792Y-58359817D01*
X89721644Y-58338490D01*
X89722027Y-58338333D01*
X89785252Y-58312788D01*
X89791810Y-58309875D01*
X89793229Y-58309186D01*
X89799496Y-58305879D01*
X89872624Y-58264086D01*
X89875615Y-58262310D01*
X89876261Y-58261912D01*
X89885450Y-58253098D01*
X89894862Y-58246030D01*
X89904513Y-58240460D01*
X89960462Y-58184511D01*
X90000023Y-58115989D01*
X90020502Y-58039562D01*
X90020502Y-57960438D01*
X90020502Y-57960436D01*
X90007104Y-57910438D01*
X90000023Y-57884011D01*
X90000022Y-57884009D01*
X90000022Y-57884008D01*
X89966894Y-57826630D01*
X89960462Y-57815489D01*
X89904513Y-57759540D01*
X89896906Y-57755148D01*
X89835992Y-57719979D01*
X89759566Y-57699500D01*
X89759564Y-57699500D01*
X89680440Y-57699500D01*
X89680438Y-57699500D01*
X89604012Y-57719979D01*
X89604010Y-57719979D01*
X89535490Y-57759540D01*
X89535490Y-57759541D01*
X89479544Y-57815486D01*
X89472314Y-57828008D01*
X89467933Y-57834375D01*
X89454365Y-57851099D01*
X89396505Y-57960829D01*
X89393577Y-57966838D01*
X89392964Y-57968202D01*
X89390411Y-57974418D01*
X89381920Y-57997128D01*
X89380834Y-57999791D01*
X89356778Y-58054164D01*
X89350087Y-58065127D01*
X89304727Y-58121288D01*
X89271793Y-58139225D01*
X89266609Y-58139500D01*
X88760105Y-58139500D01*
X88760104Y-58139500D01*
X88760102Y-58139501D01*
X88730787Y-58145331D01*
X88730785Y-58145331D01*
X88728558Y-58145775D01*
X88691776Y-58138457D01*
X88670941Y-58107274D01*
X88670000Y-58097716D01*
X88670000Y-57940000D01*
X88770000Y-58040000D01*
X89320000Y-58040000D01*
X89320000Y-57150000D01*
X88420000Y-57140000D01*
X88420000Y-57690000D01*
X88520000Y-57790000D01*
X88362284Y-57790000D01*
X88327636Y-57775648D01*
X88313284Y-57741000D01*
X88314226Y-57731440D01*
X88315353Y-57725776D01*
X88320500Y-57699899D01*
X88320499Y-57130102D01*
X88314669Y-57100787D01*
X88314667Y-57100784D01*
X88314667Y-57100783D01*
X88292457Y-57067543D01*
X88259212Y-57045330D01*
X88229901Y-57039500D01*
X88010105Y-57039500D01*
X88010104Y-57039500D01*
X88010102Y-57039501D01*
X87980787Y-57045331D01*
X87980786Y-57045331D01*
X87980784Y-57045332D01*
X87980783Y-57045332D01*
X87947543Y-57067542D01*
X87925330Y-57100786D01*
X87925330Y-57100787D01*
X87919500Y-57130095D01*
X87919500Y-57699894D01*
X87919501Y-57699898D01*
X87925331Y-57729213D01*
X87925331Y-57729214D01*
X87925775Y-57731442D01*
X87918457Y-57768224D01*
X87887274Y-57789059D01*
X87877716Y-57790000D01*
X87562284Y-57790000D01*
X87527636Y-57775648D01*
X87513284Y-57741000D01*
X87514226Y-57731440D01*
X87515353Y-57725776D01*
X87520500Y-57699899D01*
X87520500Y-57416503D01*
X87520500Y-57375118D01*
X87520500Y-57369418D01*
X87520499Y-57369408D01*
X87520499Y-57130105D01*
X87520499Y-57130102D01*
X87514669Y-57100787D01*
X87514667Y-57100784D01*
X87514667Y-57100783D01*
X87492457Y-57067543D01*
X87459212Y-57045330D01*
X87429901Y-57039500D01*
X87210105Y-57039500D01*
X87210104Y-57039500D01*
X87210102Y-57039501D01*
X87180787Y-57045331D01*
X87180786Y-57045331D01*
X87180784Y-57045332D01*
X87180783Y-57045332D01*
X87147543Y-57067542D01*
X87125330Y-57100786D01*
X87125330Y-57100787D01*
X87119500Y-57130095D01*
X87119500Y-57165500D01*
X87105148Y-57200148D01*
X87070500Y-57214500D01*
X86838346Y-57214500D01*
X86803698Y-57200148D01*
X86749241Y-57145691D01*
X86734889Y-57111043D01*
X86749241Y-57076395D01*
X86756661Y-57070305D01*
X86824786Y-57024786D01*
X86876836Y-56946888D01*
X86890500Y-56878196D01*
X86890500Y-56461804D01*
X86876836Y-56393112D01*
X86850811Y-56354163D01*
X86824786Y-56315213D01*
X86763196Y-56274061D01*
X86746888Y-56263164D01*
X86746887Y-56263163D01*
X86746886Y-56263163D01*
X86719940Y-56257803D01*
X86708055Y-56249862D01*
X86694852Y-56244393D01*
X86692931Y-56239756D01*
X86688758Y-56236968D01*
X86680500Y-56209745D01*
X86680500Y-56189357D01*
X86694852Y-56154709D01*
X86719938Y-56141299D01*
X86743839Y-56136546D01*
X86823391Y-56083391D01*
X86876546Y-56003839D01*
X86890500Y-55933688D01*
X86890500Y-55606312D01*
X86884469Y-55575991D01*
X86876547Y-55536163D01*
X86823391Y-55456608D01*
X86788140Y-55433055D01*
X86743839Y-55403454D01*
X86743838Y-55403453D01*
X86743836Y-55403452D01*
X86673693Y-55389500D01*
X86673688Y-55389500D01*
X86286312Y-55389500D01*
X86286306Y-55389500D01*
X86216163Y-55403452D01*
X86136608Y-55456608D01*
X86083452Y-55536163D01*
X86069500Y-55606306D01*
X86069500Y-55933693D01*
X86083452Y-56003836D01*
X86136608Y-56083391D01*
X86189763Y-56118907D01*
X86216161Y-56136546D01*
X86240060Y-56141299D01*
X86251943Y-56149239D01*
X86265148Y-56154709D01*
X86267068Y-56159345D01*
X86271241Y-56162133D01*
X86279500Y-56189357D01*
X86279500Y-56246067D01*
X86265148Y-56280715D01*
X86257724Y-56286809D01*
X86215213Y-56315214D01*
X86163163Y-56393113D01*
X86149500Y-56461800D01*
X86149500Y-56878199D01*
X86163163Y-56946886D01*
X86215213Y-57024786D01*
X86245963Y-57045332D01*
X86293112Y-57076836D01*
X86297125Y-57079517D01*
X86295680Y-57081678D01*
X86315751Y-57101709D01*
X86319500Y-57120506D01*
X86319500Y-57224508D01*
X86305148Y-57259156D01*
X86270500Y-57273508D01*
X86257817Y-57271838D01*
X86212706Y-57259750D01*
X86212704Y-57259750D01*
X86133580Y-57259750D01*
X86133578Y-57259750D01*
X86057152Y-57280229D01*
X86057150Y-57280229D01*
X85988630Y-57319790D01*
X85988630Y-57319791D01*
X85932683Y-57375738D01*
X85932682Y-57375738D01*
X85893121Y-57444258D01*
X85893121Y-57444260D01*
X85872642Y-57520686D01*
X85872642Y-57599813D01*
X85893120Y-57676238D01*
X85893121Y-57676239D01*
X85904530Y-57696000D01*
X85909426Y-57733182D01*
X85886596Y-57762935D01*
X85862095Y-57769500D01*
X85070507Y-57769500D01*
X85035859Y-57755148D01*
X85030193Y-57746673D01*
X85029517Y-57747125D01*
X85025424Y-57741000D01*
X85004727Y-57710023D01*
X84974786Y-57665213D01*
X84900384Y-57615500D01*
X84896888Y-57613164D01*
X84896887Y-57613163D01*
X84896886Y-57613163D01*
X84828199Y-57599500D01*
X84828196Y-57599500D01*
X84411804Y-57599500D01*
X84411800Y-57599500D01*
X84343113Y-57613163D01*
X84265213Y-57665213D01*
X84223761Y-57727252D01*
X84215578Y-57739500D01*
X84210483Y-57747125D01*
X84208332Y-57745688D01*
X84207866Y-57746153D01*
X84204141Y-57755148D01*
X84195127Y-57758881D01*
X84188225Y-57765778D01*
X84169493Y-57769500D01*
X84137315Y-57769500D01*
X84102667Y-57755148D01*
X84089257Y-57730060D01*
X84076766Y-57667266D01*
X84076546Y-57666161D01*
X84049968Y-57626385D01*
X84023391Y-57586608D01*
X83943836Y-57533452D01*
X83873693Y-57519500D01*
X83873688Y-57519500D01*
X83546312Y-57519500D01*
X83546306Y-57519500D01*
X83476163Y-57533452D01*
X83396608Y-57586608D01*
X83343452Y-57666163D01*
X83329500Y-57736306D01*
X83130499Y-57736306D01*
X83116547Y-57666163D01*
X83115912Y-57665213D01*
X83090321Y-57626912D01*
X83063391Y-57586608D01*
X82983836Y-57533452D01*
X82913693Y-57519500D01*
X82913688Y-57519500D01*
X82586312Y-57519500D01*
X82586306Y-57519500D01*
X82516163Y-57533452D01*
X82436608Y-57586608D01*
X82383452Y-57666163D01*
X82373727Y-57715059D01*
X82352892Y-57746242D01*
X82325669Y-57754500D01*
X81786137Y-57754500D01*
X81782293Y-57754349D01*
X81659073Y-57744653D01*
X81651479Y-57743450D01*
X81533175Y-57715049D01*
X81525862Y-57712673D01*
X81413459Y-57666116D01*
X81406608Y-57662626D01*
X81302865Y-57599054D01*
X81296644Y-57594534D01*
X81202750Y-57514342D01*
X81199925Y-57511730D01*
X80479995Y-56791800D01*
X84199500Y-56791800D01*
X84199500Y-57108199D01*
X84213163Y-57176886D01*
X84265213Y-57254786D01*
X84290734Y-57271838D01*
X84343112Y-57306836D01*
X84411804Y-57320500D01*
X84828196Y-57320500D01*
X84896888Y-57306836D01*
X84974786Y-57254786D01*
X85026836Y-57176888D01*
X85040500Y-57108196D01*
X85040500Y-56928267D01*
X85054852Y-56893619D01*
X85089500Y-56879267D01*
X85124148Y-56893619D01*
X85137558Y-56918708D01*
X85143162Y-56946885D01*
X85195213Y-57024786D01*
X85225963Y-57045332D01*
X85273112Y-57076836D01*
X85341804Y-57090500D01*
X85658196Y-57090500D01*
X85726888Y-57076836D01*
X85804786Y-57024786D01*
X85856836Y-56946888D01*
X85870500Y-56878196D01*
X85870500Y-56461804D01*
X85856836Y-56393112D01*
X85830811Y-56354163D01*
X85804786Y-56315213D01*
X85743196Y-56274061D01*
X85726888Y-56263164D01*
X85726887Y-56263163D01*
X85726886Y-56263163D01*
X85658199Y-56249500D01*
X85658196Y-56249500D01*
X85341804Y-56249500D01*
X85341800Y-56249500D01*
X85273113Y-56263163D01*
X85195213Y-56315213D01*
X85143163Y-56393113D01*
X85129500Y-56461800D01*
X85129500Y-56741732D01*
X85115148Y-56776380D01*
X85080500Y-56790732D01*
X85045852Y-56776380D01*
X85032442Y-56751292D01*
X85026836Y-56723113D01*
X85026836Y-56723112D01*
X84989496Y-56667229D01*
X84974786Y-56645213D01*
X84916493Y-56606264D01*
X84896888Y-56593164D01*
X84896887Y-56593163D01*
X84896886Y-56593163D01*
X84828199Y-56579500D01*
X84828196Y-56579500D01*
X84411804Y-56579500D01*
X84411800Y-56579500D01*
X84343113Y-56593163D01*
X84265213Y-56645213D01*
X84213163Y-56723113D01*
X84199500Y-56791800D01*
X80479995Y-56791800D01*
X79074501Y-55386306D01*
X87309500Y-55386306D01*
X87309500Y-55713693D01*
X87323452Y-55783836D01*
X87376608Y-55863391D01*
X87429524Y-55898748D01*
X87456161Y-55916546D01*
X87456163Y-55916547D01*
X87526306Y-55930499D01*
X87526312Y-55930500D01*
X87913688Y-55930500D01*
X87914625Y-55930313D01*
X87983836Y-55916547D01*
X87983836Y-55916546D01*
X87983839Y-55916546D01*
X88063391Y-55863391D01*
X88116546Y-55783839D01*
X88120197Y-55765488D01*
X88130499Y-55713693D01*
X88130500Y-55713688D01*
X88130500Y-55386312D01*
X88130499Y-55386306D01*
X88116547Y-55316163D01*
X88114728Y-55313441D01*
X88088856Y-55274720D01*
X88063391Y-55236608D01*
X87983836Y-55183452D01*
X87913693Y-55169500D01*
X87913688Y-55169500D01*
X87526312Y-55169500D01*
X87526306Y-55169500D01*
X87456163Y-55183452D01*
X87376608Y-55236608D01*
X87323452Y-55316163D01*
X87309500Y-55386306D01*
X79074501Y-55386306D01*
X78322132Y-54633937D01*
X78322122Y-54633914D01*
X78241579Y-54553371D01*
X78241576Y-54553369D01*
X78091886Y-54444615D01*
X77927025Y-54360617D01*
X77927020Y-54360615D01*
X77751052Y-54303442D01*
X77751043Y-54303439D01*
X77592251Y-54278292D01*
X77568298Y-54274499D01*
X77568297Y-54274499D01*
X77475784Y-54274500D01*
X66669221Y-54274500D01*
X66663212Y-54274130D01*
X66659776Y-54273705D01*
X66642368Y-54269002D01*
X66596719Y-54265914D01*
X66595359Y-54265746D01*
X66594971Y-54265526D01*
X66589755Y-54264720D01*
X66569378Y-54259749D01*
X66558636Y-54255749D01*
X66503204Y-54227330D01*
X66501984Y-54226682D01*
X66439523Y-54192401D01*
X66429883Y-54187729D01*
X66427737Y-54186821D01*
X66427735Y-54186820D01*
X66427718Y-54186813D01*
X66427703Y-54186807D01*
X66427679Y-54186798D01*
X66417738Y-54183168D01*
X66417710Y-54183159D01*
X66375017Y-54169979D01*
X66332457Y-54156840D01*
X66331204Y-54156486D01*
X66327489Y-54155438D01*
X66326424Y-54155166D01*
X66326421Y-54155165D01*
X66326419Y-54155165D01*
X66326417Y-54155164D01*
X66326411Y-54155164D01*
X66314457Y-54154809D01*
X66303234Y-54153162D01*
X66289564Y-54149500D01*
X66289562Y-54149500D01*
X66210438Y-54149500D01*
X66210436Y-54149500D01*
X66134010Y-54169979D01*
X66134008Y-54169979D01*
X66065488Y-54209540D01*
X66065488Y-54209541D01*
X66009541Y-54265488D01*
X66009540Y-54265488D01*
X65969979Y-54334008D01*
X65969979Y-54334010D01*
X65949500Y-54410436D01*
X63200500Y-54410436D01*
X63200500Y-53910436D01*
X64799500Y-53910436D01*
X64799500Y-53989563D01*
X64819979Y-54065989D01*
X64819979Y-54065991D01*
X64859540Y-54134511D01*
X64915489Y-54190460D01*
X64965649Y-54219420D01*
X64978227Y-54226682D01*
X64984011Y-54230021D01*
X65019478Y-54239524D01*
X65060436Y-54250500D01*
X65060438Y-54250500D01*
X65139564Y-54250500D01*
X65166230Y-54243354D01*
X65215989Y-54230021D01*
X65284511Y-54190460D01*
X65340460Y-54134511D01*
X65380021Y-54065989D01*
X65400500Y-53989562D01*
X65400500Y-53910438D01*
X65400500Y-53910436D01*
X65389200Y-53868268D01*
X65380021Y-53834011D01*
X65380020Y-53834009D01*
X65380020Y-53834008D01*
X65340459Y-53765488D01*
X65284511Y-53709540D01*
X65215990Y-53669979D01*
X65139564Y-53649500D01*
X65139562Y-53649500D01*
X65060438Y-53649500D01*
X65060436Y-53649500D01*
X64984010Y-53669979D01*
X64984008Y-53669979D01*
X64915488Y-53709540D01*
X64915488Y-53709541D01*
X64859541Y-53765488D01*
X64859540Y-53765488D01*
X64819979Y-53834008D01*
X64819979Y-53834010D01*
X64799500Y-53910436D01*
X63200500Y-53910436D01*
X63200500Y-53410436D01*
X65769500Y-53410436D01*
X65769500Y-53489563D01*
X65789979Y-53565989D01*
X65789979Y-53565991D01*
X65827507Y-53630990D01*
X65829540Y-53634511D01*
X65885489Y-53690460D01*
X65954011Y-53730021D01*
X65989478Y-53739524D01*
X66030436Y-53750500D01*
X66030438Y-53750500D01*
X66109559Y-53750500D01*
X66109562Y-53750500D01*
X66125583Y-53746206D01*
X66132063Y-53744932D01*
X66155023Y-53742013D01*
X66257839Y-53707616D01*
X66267628Y-53703789D01*
X66269750Y-53702835D01*
X66279094Y-53698062D01*
X66322340Y-53673184D01*
X66324440Y-53672047D01*
X66379934Y-53643812D01*
X66390781Y-53639826D01*
X66410650Y-53635092D01*
X66418744Y-53633869D01*
X66462202Y-53630992D01*
X66470913Y-53628805D01*
X66478212Y-53626974D01*
X66490139Y-53625500D01*
X83460879Y-53625500D01*
X83493863Y-53625500D01*
X83497706Y-53625651D01*
X83513881Y-53626923D01*
X83620931Y-53635347D01*
X83628513Y-53636548D01*
X83746829Y-53664951D01*
X83754132Y-53667324D01*
X83866545Y-53713885D01*
X83873387Y-53717371D01*
X83951911Y-53765489D01*
X83977134Y-53780945D01*
X83983355Y-53785465D01*
X84077248Y-53865656D01*
X84080073Y-53868268D01*
X84839424Y-54627619D01*
X84839435Y-54627644D01*
X84918420Y-54706628D01*
X84918423Y-54706630D01*
X85068113Y-54815384D01*
X85068115Y-54815385D01*
X85232978Y-54899384D01*
X85408951Y-54956559D01*
X85408954Y-54956559D01*
X85408956Y-54956560D01*
X85440441Y-54961546D01*
X85591702Y-54985501D01*
X85684216Y-54985500D01*
X86031636Y-54985500D01*
X86066284Y-54999852D01*
X86079694Y-55024940D01*
X86083453Y-55043837D01*
X86136608Y-55123391D01*
X86189524Y-55158748D01*
X86216161Y-55176546D01*
X86216163Y-55176547D01*
X86286306Y-55190499D01*
X86286312Y-55190500D01*
X86673688Y-55190500D01*
X86674625Y-55190313D01*
X86743836Y-55176547D01*
X86743836Y-55176546D01*
X86743839Y-55176546D01*
X86823391Y-55123391D01*
X86876546Y-55043839D01*
X86880306Y-55024940D01*
X86890499Y-54973693D01*
X86890500Y-54973688D01*
X86890500Y-54646312D01*
X86890499Y-54646306D01*
X86876547Y-54576163D01*
X86869750Y-54565991D01*
X86854139Y-54542626D01*
X86823391Y-54496608D01*
X86743836Y-54443452D01*
X86673693Y-54429500D01*
X86673688Y-54429500D01*
X86286312Y-54429500D01*
X86286306Y-54429500D01*
X86216163Y-54443452D01*
X86136608Y-54496608D01*
X86083453Y-54576162D01*
X86079694Y-54595060D01*
X86058858Y-54626242D01*
X86031636Y-54634500D01*
X85686137Y-54634500D01*
X85682293Y-54634349D01*
X85559073Y-54624653D01*
X85551479Y-54623450D01*
X85433175Y-54595049D01*
X85425862Y-54592673D01*
X85313459Y-54546116D01*
X85306608Y-54542626D01*
X85202865Y-54479054D01*
X85196644Y-54474534D01*
X85102750Y-54394342D01*
X85099925Y-54391730D01*
X84342132Y-53633937D01*
X84342122Y-53633914D01*
X84261579Y-53553371D01*
X84261576Y-53553369D01*
X84111886Y-53444615D01*
X83947025Y-53360617D01*
X83947020Y-53360615D01*
X83771052Y-53303442D01*
X83771043Y-53303439D01*
X83612251Y-53278292D01*
X83588298Y-53274499D01*
X83588297Y-53274499D01*
X83495784Y-53274500D01*
X66489221Y-53274500D01*
X66483212Y-53274130D01*
X66479776Y-53273705D01*
X66462368Y-53269002D01*
X66416719Y-53265914D01*
X66415359Y-53265746D01*
X66414971Y-53265526D01*
X66409755Y-53264720D01*
X66389378Y-53259749D01*
X66378636Y-53255749D01*
X66323204Y-53227330D01*
X66321984Y-53226682D01*
X66259523Y-53192401D01*
X66249883Y-53187729D01*
X66247737Y-53186821D01*
X66247735Y-53186820D01*
X66247718Y-53186813D01*
X66247703Y-53186807D01*
X66247679Y-53186798D01*
X66237738Y-53183168D01*
X66237710Y-53183159D01*
X66195017Y-53169979D01*
X66152457Y-53156840D01*
X66151204Y-53156486D01*
X66147489Y-53155438D01*
X66146424Y-53155166D01*
X66146421Y-53155165D01*
X66146419Y-53155165D01*
X66146417Y-53155164D01*
X66146411Y-53155164D01*
X66134457Y-53154809D01*
X66123234Y-53153162D01*
X66109564Y-53149500D01*
X66109562Y-53149500D01*
X66030438Y-53149500D01*
X66030436Y-53149500D01*
X65954010Y-53169979D01*
X65954008Y-53169979D01*
X65885488Y-53209540D01*
X65885488Y-53209541D01*
X65829541Y-53265488D01*
X65829540Y-53265488D01*
X65789979Y-53334008D01*
X65789979Y-53334010D01*
X65769500Y-53410436D01*
X63200500Y-53410436D01*
X63200500Y-52910436D01*
X64799500Y-52910436D01*
X64799500Y-52989563D01*
X64819979Y-53065989D01*
X64819979Y-53065991D01*
X64848987Y-53116233D01*
X64859540Y-53134511D01*
X64915489Y-53190460D01*
X64965649Y-53219420D01*
X64978227Y-53226682D01*
X64984011Y-53230021D01*
X65019478Y-53239524D01*
X65060436Y-53250500D01*
X65060438Y-53250500D01*
X65139564Y-53250500D01*
X65166230Y-53243354D01*
X65215989Y-53230021D01*
X65284511Y-53190460D01*
X65340460Y-53134511D01*
X65380021Y-53065989D01*
X65400500Y-52989562D01*
X65400500Y-52910438D01*
X65400500Y-52910436D01*
X65391843Y-52878134D01*
X65380021Y-52834011D01*
X65380020Y-52834009D01*
X65380020Y-52834008D01*
X65340459Y-52765488D01*
X65284511Y-52709540D01*
X65215990Y-52669979D01*
X65139564Y-52649500D01*
X65139562Y-52649500D01*
X65060438Y-52649500D01*
X65060436Y-52649500D01*
X64984010Y-52669979D01*
X64984008Y-52669979D01*
X64915488Y-52709540D01*
X64915488Y-52709541D01*
X64859541Y-52765488D01*
X64859540Y-52765488D01*
X64819979Y-52834008D01*
X64819979Y-52834010D01*
X64799500Y-52910436D01*
X63200500Y-52910436D01*
X63200500Y-52753857D01*
X63201103Y-52746192D01*
X63209050Y-52696015D01*
X63213788Y-52681434D01*
X63225811Y-52657838D01*
X63235080Y-52639647D01*
X63244086Y-52627251D01*
X63277251Y-52594086D01*
X63289647Y-52585080D01*
X63331436Y-52563787D01*
X63346013Y-52559050D01*
X63396193Y-52551103D01*
X63403858Y-52550500D01*
X63426929Y-52550500D01*
X65080009Y-52550500D01*
X92083071Y-52550500D01*
X92107248Y-52550500D01*
X92112733Y-52550807D01*
G37*
%TD.AperFunction*%
%TD*%
%TA.AperFunction,Conductor*%
%TO.N,+3V3*%
G36*
X80730000Y-70490000D02*
G01*
X79840000Y-70490000D01*
X79840000Y-69940000D01*
X79950000Y-69830000D01*
X80100000Y-69830000D01*
X80100000Y-69680000D01*
X80190000Y-69590000D01*
X80740000Y-69590000D01*
X80730000Y-70490000D01*
G37*
%TD.AperFunction*%
%TD*%
%TA.AperFunction,Conductor*%
%TO.N,GND*%
G36*
X86345233Y-57459329D02*
G01*
X86345626Y-57459967D01*
X86387428Y-57533109D01*
X86388111Y-57534519D01*
X86398222Y-57559543D01*
X86414005Y-57598604D01*
X86440873Y-57662665D01*
X86440876Y-57662671D01*
X86440878Y-57662675D01*
X86472065Y-57711229D01*
X86516653Y-57761419D01*
X86519586Y-57769879D01*
X86516179Y-57777462D01*
X86389995Y-57903646D01*
X86381722Y-57907073D01*
X86374371Y-57904475D01*
X86288671Y-57835256D01*
X86211462Y-57801099D01*
X86211455Y-57801096D01*
X86211452Y-57801095D01*
X86184519Y-57791024D01*
X86183160Y-57790414D01*
X86073455Y-57732569D01*
X86067735Y-57725679D01*
X86068563Y-57716763D01*
X86069152Y-57715768D01*
X86072153Y-57711229D01*
X86171120Y-57561531D01*
X86174423Y-57558228D01*
X86329022Y-57456020D01*
X86337812Y-57454317D01*
X86345233Y-57459329D01*
G37*
%TD.AperFunction*%
%TD*%
%TA.AperFunction,Conductor*%
%TO.N,GND*%
G36*
X80168236Y-67228562D02*
G01*
X80169223Y-67229146D01*
X80323465Y-67331118D01*
X80326773Y-67334426D01*
X80428978Y-67489021D01*
X80430682Y-67497812D01*
X80425670Y-67505233D01*
X80425024Y-67505631D01*
X80351896Y-67547424D01*
X80350477Y-67548113D01*
X80286395Y-67574005D01*
X80222333Y-67600873D01*
X80222320Y-67600880D01*
X80173771Y-67632064D01*
X80123581Y-67676653D01*
X80115120Y-67679586D01*
X80107537Y-67676179D01*
X79981353Y-67549995D01*
X79977926Y-67541722D01*
X79980522Y-67534373D01*
X80049743Y-67448671D01*
X80083900Y-67371463D01*
X80093977Y-67344512D01*
X80094580Y-67343168D01*
X80152432Y-67233452D01*
X80159320Y-67227734D01*
X80168236Y-67228562D01*
G37*
%TD.AperFunction*%
%TD*%
%TA.AperFunction,Conductor*%
%TO.N,GND*%
G36*
X79683768Y-70535775D02*
G01*
X79769470Y-70604995D01*
X79846679Y-70639152D01*
X79873621Y-70649226D01*
X79874978Y-70649835D01*
X79914336Y-70670588D01*
X79984686Y-70707682D01*
X79990406Y-70714572D01*
X79989578Y-70723488D01*
X79988989Y-70724483D01*
X79887023Y-70878717D01*
X79883715Y-70882025D01*
X79729121Y-70984230D01*
X79720330Y-70985934D01*
X79712909Y-70980922D01*
X79712511Y-70980276D01*
X79670716Y-70907147D01*
X79670026Y-70905724D01*
X79644150Y-70841681D01*
X79617263Y-70777576D01*
X79586077Y-70729023D01*
X79541487Y-70678831D01*
X79538555Y-70670372D01*
X79541961Y-70662790D01*
X79668147Y-70536604D01*
X79676419Y-70533178D01*
X79683768Y-70535775D01*
G37*
%TD.AperFunction*%
%TD*%
%TA.AperFunction,Conductor*%
%TO.N,GND*%
G36*
X89563488Y-57895420D02*
G01*
X89564475Y-57896004D01*
X89718717Y-57997976D01*
X89722025Y-58001284D01*
X89824230Y-58155879D01*
X89825934Y-58164670D01*
X89820922Y-58172091D01*
X89820276Y-58172489D01*
X89747148Y-58214282D01*
X89745729Y-58214971D01*
X89681647Y-58240863D01*
X89617585Y-58267731D01*
X89617572Y-58267738D01*
X89569023Y-58298922D01*
X89518833Y-58343511D01*
X89510372Y-58346444D01*
X89502789Y-58343037D01*
X89376605Y-58216853D01*
X89373178Y-58208580D01*
X89375774Y-58201231D01*
X89444995Y-58115529D01*
X89479152Y-58038321D01*
X89489229Y-58011370D01*
X89489832Y-58010026D01*
X89547684Y-57900310D01*
X89554572Y-57894592D01*
X89563488Y-57895420D01*
G37*
%TD.AperFunction*%
%TD*%
%TA.AperFunction,Conductor*%
%TO.N,Heim_time_in*%
G36*
X121547752Y-79077270D02*
G01*
X121551113Y-79084305D01*
X121562766Y-79193844D01*
X121562767Y-79193848D01*
X121593206Y-79272589D01*
X121593212Y-79272602D01*
X121605134Y-79298767D01*
X121605664Y-79300159D01*
X121642337Y-79418641D01*
X121641509Y-79427557D01*
X121634619Y-79433277D01*
X121633499Y-79433564D01*
X121452339Y-79470522D01*
X121447661Y-79470522D01*
X121266076Y-79433477D01*
X121258655Y-79428465D01*
X121256951Y-79419674D01*
X121257122Y-79418953D01*
X121279285Y-79337668D01*
X121279802Y-79336179D01*
X121295091Y-79300159D01*
X121306791Y-79272595D01*
X121333108Y-79208254D01*
X121345388Y-79151870D01*
X121349349Y-79084852D01*
X121353258Y-79076796D01*
X121361029Y-79073843D01*
X121539479Y-79073843D01*
X121547752Y-79077270D01*
G37*
%TD.AperFunction*%
%TD*%
%TA.AperFunction,Conductor*%
%TO.N,Heim_time_out_1*%
G36*
X65962393Y-56234912D02*
G01*
X66048517Y-56264350D01*
X66050091Y-56264888D01*
X66052824Y-56266242D01*
X66116994Y-56309282D01*
X66196515Y-56357745D01*
X66196516Y-56357745D01*
X66196518Y-56357746D01*
X66220304Y-56364044D01*
X66244093Y-56370343D01*
X66296118Y-56374197D01*
X66304116Y-56378226D01*
X66306954Y-56385865D01*
X66306954Y-56514504D01*
X66303527Y-56522777D01*
X66296519Y-56526135D01*
X66187205Y-56538025D01*
X66187196Y-56538027D01*
X66108748Y-56569014D01*
X66080707Y-56582037D01*
X66079259Y-56582595D01*
X65962171Y-56619076D01*
X65953253Y-56618266D01*
X65947521Y-56611386D01*
X65947230Y-56610258D01*
X65910274Y-56429108D01*
X65910274Y-56424431D01*
X65919700Y-56378226D01*
X65947156Y-56243645D01*
X65952167Y-56236226D01*
X65960958Y-56234522D01*
X65962393Y-56234912D01*
G37*
%TD.AperFunction*%
%TD*%
%TA.AperFunction,Conductor*%
%TO.N,Heim_time_out_2*%
G36*
X66331337Y-55267646D02*
G01*
X66416580Y-55293962D01*
X66418755Y-55294883D01*
X66483138Y-55330219D01*
X66556692Y-55367929D01*
X66556696Y-55367931D01*
X66607666Y-55380366D01*
X66665248Y-55384261D01*
X66673270Y-55388238D01*
X66676157Y-55395934D01*
X66676157Y-55524049D01*
X66672730Y-55532322D01*
X66665230Y-55535723D01*
X66608828Y-55539458D01*
X66608822Y-55539459D01*
X66558464Y-55551456D01*
X66483120Y-55589790D01*
X66483116Y-55589792D01*
X66436490Y-55616612D01*
X66434368Y-55617566D01*
X66331552Y-55651963D01*
X66322619Y-55651338D01*
X66316744Y-55644579D01*
X66316376Y-55643206D01*
X66279477Y-55462339D01*
X66279477Y-55457661D01*
X66293640Y-55388238D01*
X66316438Y-55276488D01*
X66321449Y-55269069D01*
X66330240Y-55267365D01*
X66331337Y-55267646D01*
G37*
%TD.AperFunction*%
%TD*%
%TA.AperFunction,Conductor*%
%TO.N,Heim_time_out_3*%
G36*
X66301337Y-54257646D02*
G01*
X66386580Y-54283962D01*
X66388755Y-54284883D01*
X66453138Y-54320219D01*
X66526692Y-54357929D01*
X66526696Y-54357931D01*
X66577666Y-54370366D01*
X66635248Y-54374261D01*
X66643270Y-54378238D01*
X66646157Y-54385934D01*
X66646157Y-54514049D01*
X66642730Y-54522322D01*
X66635230Y-54525723D01*
X66578828Y-54529458D01*
X66578822Y-54529459D01*
X66528464Y-54541456D01*
X66453120Y-54579790D01*
X66453116Y-54579792D01*
X66406490Y-54606612D01*
X66404368Y-54607566D01*
X66301552Y-54641963D01*
X66292619Y-54641338D01*
X66286744Y-54634579D01*
X66286376Y-54633206D01*
X66249477Y-54452339D01*
X66249477Y-54447661D01*
X66263640Y-54378238D01*
X66286438Y-54266488D01*
X66291449Y-54259069D01*
X66300240Y-54257365D01*
X66301337Y-54257646D01*
G37*
%TD.AperFunction*%
%TD*%
%TA.AperFunction,Conductor*%
%TO.N,Heim_time_out_4*%
G36*
X66121337Y-53257646D02*
G01*
X66206580Y-53283962D01*
X66208755Y-53284883D01*
X66273138Y-53320219D01*
X66346692Y-53357929D01*
X66346696Y-53357931D01*
X66397666Y-53370366D01*
X66455248Y-53374261D01*
X66463270Y-53378238D01*
X66466157Y-53385934D01*
X66466157Y-53514049D01*
X66462730Y-53522322D01*
X66455230Y-53525723D01*
X66398828Y-53529458D01*
X66398822Y-53529459D01*
X66348464Y-53541456D01*
X66273120Y-53579790D01*
X66273116Y-53579792D01*
X66226490Y-53606612D01*
X66224368Y-53607566D01*
X66121552Y-53641963D01*
X66112619Y-53641338D01*
X66106744Y-53634579D01*
X66106376Y-53633206D01*
X66069477Y-53452339D01*
X66069477Y-53447661D01*
X66083640Y-53378238D01*
X66106438Y-53266488D01*
X66111449Y-53259069D01*
X66120240Y-53257365D01*
X66121337Y-53257646D01*
G37*
%TD.AperFunction*%
%TD*%
%TA.AperFunction,Conductor*%
%TO.N,Master_trigger_out_1*%
G36*
X65941840Y-60248399D02*
G01*
X66019036Y-60272145D01*
X66026984Y-60274590D01*
X66029142Y-60275499D01*
X66093506Y-60310572D01*
X66166842Y-60347937D01*
X66217945Y-60360367D01*
X66275753Y-60364264D01*
X66283775Y-60368239D01*
X66286664Y-60375937D01*
X66286664Y-60504054D01*
X66283237Y-60512327D01*
X66275743Y-60515728D01*
X66219349Y-60519490D01*
X66169006Y-60531571D01*
X66093749Y-60570152D01*
X66046643Y-60597418D01*
X66044500Y-60598385D01*
X65943911Y-60632103D01*
X65942064Y-60632722D01*
X65933130Y-60632103D01*
X65927252Y-60625348D01*
X65926883Y-60623977D01*
X65889984Y-60443106D01*
X65889984Y-60438429D01*
X65902733Y-60375937D01*
X65926947Y-60257245D01*
X65931959Y-60249825D01*
X65940750Y-60248121D01*
X65941840Y-60248399D01*
G37*
%TD.AperFunction*%
%TD*%
%TA.AperFunction,Conductor*%
%TO.N,Master_trigger_out_2*%
G36*
X65971337Y-59257646D02*
G01*
X66056580Y-59283962D01*
X66058755Y-59284883D01*
X66123138Y-59320219D01*
X66196692Y-59357929D01*
X66196696Y-59357931D01*
X66247666Y-59370366D01*
X66305248Y-59374261D01*
X66313270Y-59378238D01*
X66316157Y-59385934D01*
X66316157Y-59514049D01*
X66312730Y-59522322D01*
X66305230Y-59525723D01*
X66248828Y-59529458D01*
X66248822Y-59529459D01*
X66198464Y-59541456D01*
X66123120Y-59579790D01*
X66123116Y-59579792D01*
X66076490Y-59606612D01*
X66074368Y-59607566D01*
X65971552Y-59641963D01*
X65962619Y-59641338D01*
X65956744Y-59634579D01*
X65956376Y-59633206D01*
X65919477Y-59452339D01*
X65919477Y-59447661D01*
X65933640Y-59378238D01*
X65956438Y-59266488D01*
X65961449Y-59259069D01*
X65970240Y-59257365D01*
X65971337Y-59257646D01*
G37*
%TD.AperFunction*%
%TD*%
%TA.AperFunction,Conductor*%
%TO.N,Master_trigger_out_3*%
G36*
X66061337Y-58257646D02*
G01*
X66146580Y-58283962D01*
X66148755Y-58284883D01*
X66213138Y-58320219D01*
X66286692Y-58357929D01*
X66286696Y-58357931D01*
X66337666Y-58370366D01*
X66395248Y-58374261D01*
X66403270Y-58378238D01*
X66406157Y-58385934D01*
X66406157Y-58514049D01*
X66402730Y-58522322D01*
X66395230Y-58525723D01*
X66338828Y-58529458D01*
X66338822Y-58529459D01*
X66288464Y-58541456D01*
X66213120Y-58579790D01*
X66213116Y-58579792D01*
X66166490Y-58606612D01*
X66164368Y-58607566D01*
X66061552Y-58641963D01*
X66052619Y-58641338D01*
X66046744Y-58634579D01*
X66046376Y-58633206D01*
X66009477Y-58452339D01*
X66009477Y-58447661D01*
X66023640Y-58378238D01*
X66046438Y-58266488D01*
X66051449Y-58259069D01*
X66060240Y-58257365D01*
X66061337Y-58257646D01*
G37*
%TD.AperFunction*%
%TD*%
%TA.AperFunction,Conductor*%
%TO.N,Master_trigger_out_4*%
G36*
X65965120Y-57259058D02*
G01*
X66050363Y-57285374D01*
X66052538Y-57286295D01*
X66116921Y-57321631D01*
X66190475Y-57359341D01*
X66190479Y-57359343D01*
X66241449Y-57371778D01*
X66299031Y-57375673D01*
X66307053Y-57379650D01*
X66309940Y-57387346D01*
X66309940Y-57515461D01*
X66306513Y-57523734D01*
X66299013Y-57527135D01*
X66242611Y-57530870D01*
X66242605Y-57530871D01*
X66192247Y-57542868D01*
X66116903Y-57581202D01*
X66116899Y-57581204D01*
X66070273Y-57608024D01*
X66068151Y-57608978D01*
X65965335Y-57643375D01*
X65956402Y-57642750D01*
X65950527Y-57635991D01*
X65950159Y-57634618D01*
X65913260Y-57453751D01*
X65913260Y-57449073D01*
X65927423Y-57379650D01*
X65950221Y-57267900D01*
X65955232Y-57260481D01*
X65964023Y-57258777D01*
X65965120Y-57259058D01*
G37*
%TD.AperFunction*%
%TD*%
%TA.AperFunction,Conductor*%
%TO.N,Master_trigger_in*%
G36*
X120547752Y-79067270D02*
G01*
X120551113Y-79074305D01*
X120562766Y-79183844D01*
X120562767Y-79183848D01*
X120593206Y-79262589D01*
X120593212Y-79262602D01*
X120605134Y-79288767D01*
X120605664Y-79290159D01*
X120642337Y-79408641D01*
X120641509Y-79417557D01*
X120634619Y-79423277D01*
X120633499Y-79423564D01*
X120452339Y-79460522D01*
X120447661Y-79460522D01*
X120266076Y-79423477D01*
X120258655Y-79418465D01*
X120256951Y-79409674D01*
X120257122Y-79408953D01*
X120279285Y-79327668D01*
X120279802Y-79326179D01*
X120295091Y-79290159D01*
X120306791Y-79262595D01*
X120333108Y-79198254D01*
X120345388Y-79141870D01*
X120349349Y-79074852D01*
X120353258Y-79066796D01*
X120361029Y-79063843D01*
X120539479Y-79063843D01*
X120547752Y-79067270D01*
G37*
%TD.AperFunction*%
%TD*%
M02*
