<?xml version="1.0" encoding="UTF-8" standalone="no"?>
<!-- Created with Inkscape (http://www.inkscape.org/) -->

<svg
   version="1.1"
   id="svg1"
   width="2560"
   height="1060"
   viewBox="0 0 2560 1060"
   sodipodi:docname="LogoTUDarmstadt.svg"
   inkscape:export-filename="LogoTUDarmstadt.png"
   inkscape:export-xdpi="96"
   inkscape:export-ydpi="96"
   inkscape:version="1.4 (86a8ad7, 2024-10-11)"
   xmlns:inkscape="http://www.inkscape.org/namespaces/inkscape"
   xmlns:sodipodi="http://sodipodi.sourceforge.net/DTD/sodipodi-0.dtd"
   xmlns="http://www.w3.org/2000/svg"
   xmlns:svg="http://www.w3.org/2000/svg">
  <defs
     id="defs1" />
  <sodipodi:namedview
     id="namedview1"
     pagecolor="#505050"
     bordercolor="#eeeeee"
     borderopacity="1"
     inkscape:showpageshadow="0"
     inkscape:pageopacity="0"
     inkscape:pagecheckerboard="0"
     inkscape:deskcolor="#505050"
     inkscape:zoom="1.0200568"
     inkscape:cx="1298.4571"
     inkscape:cy="488.69829"
     inkscape:window-width="3840"
     inkscape:window-height="2071"
     inkscape:window-x="-9"
     inkscape:window-y="-9"
     inkscape:window-maximized="1"
     inkscape:current-layer="g1" />
  <g
     inkscape:groupmode="layer"
     inkscape:label="Image"
     id="g1">
    <path
       style="fill:#000000"
       d="m 344.51391,736.53434 c -55.3654,-3.65179 -110.89828,-20.68512 -148.08612,-45.42174 -12.73887,-8.47364 -31.03684,-26.18672 -36.26849,-35.10918 -15.24654,-26.0026 -13.08664,-49.4844 6.77301,-73.63407 3.36432,-4.09108 18.09456,-16.93334 21.80357,-19.009 2.46057,-1.37701 1.16814,-3.64327 -11.86828,-20.81093 -6.19155,-8.15363 -13.7154,-18.08729 -16.71969,-22.07479 -3.00428,-3.9875 -5.78849,-7.25 -6.18712,-7.25 -0.39863,0 -1.5033,2.87607 -2.45482,6.39128 -3.06587,11.32624 -1.68343,19.88108 5.047,31.23184 l 1.85185,3.12311 -27.20868,32.62689 c -18.06321,21.66022 -27.84187,32.62688 -29.09247,32.62688 -2.944178,0 -22.297148,-22.96329 -36.398028,-43.18812 C 43.169052,543.71237 24.230892,504.1603 14.015762,468.08295 5.0799313,436.52378 2.0217013,415.37397 1.3094013,380.20948 c -0.57187,-28.23194 0.53739,-44.15567 4.7963,-68.85221 C 16.634912,250.30047 44.676112,189.46214 85.891352,138.25392 96.342502,125.2688 122.20211,98.938891 135.51391,87.728881 c 55.48143,-46.72148 115.1713,-73.30974 189,-84.18819 9.49242,-1.39868 18.68688,-1.77317 44,-1.79211 33.11216,-0.0248 37.72442,0.32906 65.02373,4.98853 25.63741,4.37582 63.6711,15.32455 64.25318,18.49653 0.1523,0.82995 -12.75115,23.10495 -28.67434,49.5 -27.74554,45.992329 -29.06893,47.982569 -31.77691,47.788869 -1.55411,-0.11117 -6.87566,-0.50239 -11.82566,-0.86937 -9.81712,-0.72783 -14.77482,0.17006 -20.5,3.71277 l -3.5,2.16578 2.5,0.74407 c 1.375,0.40924 7.9,1.97113 14.5,3.47088 6.6,1.49975 16.79842,4.17831 22.66315,5.95236 l 10.66315,3.22555 13.83685,-13.96405 c 17.82707,-17.99095 36.20715,-33.884849 38.75712,-33.514649 1.58717,0.23042 4.83032,8.778709 18.69594,49.278779 9.22662,26.95 16.8,49.31929 16.82973,49.70953 0.0297,0.39024 -1.08023,1.76131 -2.46659,3.04681 l -2.52065,2.33728 16.43709,48.95319 c 26.43523,78.72983 41.07136,120.98819 52.639,151.98258 13.89577,37.23239 15.13748,43.7601 9.94381,52.27518 -2.51965,4.131 -10.36303,7.91305 -18.26474,8.80719 -5.18237,0.58643 -6.15144,1.08152 -9.28696,4.74468 -4.52548,5.287 -5.23216,8.20227 -2.93004,12.08736 6.34672,10.7108 6.71363,11.62065 6.06995,15.05174 -0.39911,2.12746 -2.53356,5.49522 -5.63027,8.88351 l -4.98747,5.45709 2.55081,3.75883 c 1.40295,2.06735 2.81931,4.82862 3.14748,6.13616 0.66558,2.65187 -0.0255,11.98033 -0.95649,12.91133 -0.32917,0.32917 -2.73973,0.99852 -5.3568,1.48744 -4.4982,0.84035 -11.33407,5.76356 -11.33407,8.16282 0,0.49521 1.79415,2.93864 3.98699,5.42984 11.60382,13.18264 12.77895,28.80338 3.08904,41.06204 -12.82809,16.22875 -46.9665,27.2154 -84.56541,27.2154 -8.80876,0 -9.3023,0.11367 -9.76904,2.25 -0.27037,1.2375 -1.69048,6.75 -3.15582,12.25 -2.69986,10.1337 -6.5852,31.77356 -6.58556,36.67904 -1.8e-4,2.40883 0.57974,2.84084 5.7498,4.28319 12.98375,3.62224 46.6135,14.77363 54.46365,18.05976 10.53911,4.41176 15.76851,8.52121 14.19057,11.15146 -1.31928,2.19909 -19.87678,10.63487 -37.24462,16.93048 -33.09609,11.99689 -67.15909,19.35236 -103.46407,22.34174 -11.64568,0.95891 -46.89041,1.17566 -59.19553,0.36404 z m 32.12873,-6.45768 C 368.65579,725.43657 304.625,705.2756 273.96519,697.74726 l -14.44556,-3.54701 -10.69927,5.26219 c -5.88459,2.8942 -10.72338,5.55444 -10.75286,5.91164 -0.0919,1.11426 23.80146,9.42673 37.94641,13.20148 28.50523,7.60695 60.25611,11.82659 93.5,12.42598 6.90315,0.12447 8.56403,-0.091 7.12873,-0.92488 z m 46.37127,-2.43826 c 11.25857,-1.44317 15.47748,-2.27352 14.82536,-2.91786 -1.59754,-1.5785 -109.63273,-34.83529 -139.50475,-42.94416 l -17.17938,-4.66341 -6.97098,5.80583 c -3.83404,3.19321 -6.84431,5.93984 -6.68948,6.10363 0.15482,0.16379 7.87249,2.26837 17.15036,4.67685 31.11985,8.07851 77.02685,22.92013 98.88859,31.97044 10.79547,4.4691 11.12335,4.53633 19.48028,3.9942 4.675,-0.30327 13.675,-1.21475 20,-2.02552 z m 38,-6.75166 c 3.57035,-0.93379 4.45689,-1.58858 4.29132,-3.16952 -0.11477,-1.09592 -0.73694,-5.59259 -1.38259,-9.99259 -3.11956,-21.25917 -0.54015,-55.79096 6.11069,-81.80663 1.66008,-6.49364 3.12234,-12.30899 3.24946,-12.92299 0.1476,-0.71295 -3.92455,-1.58893 -11.26888,-2.4241 -35.81882,-4.07317 -73.10511,-16.39235 -103.58682,-34.2245 l -5.08682,-2.97585 -2.91318,1.94107 c -4.63481,3.08818 -15.08322,5.913 -21.87099,5.913 h -6.24714 l -0.66198,8.61213 c -2.12266,27.61503 -13.46026,55.75356 -30.89512,76.6779 -2.19517,2.63452 -3.82173,4.93517 -3.61458,5.11255 0.20714,0.17739 11.85163,3.57097 25.87663,7.5413 31.84524,9.01506 85.55595,25.63373 114.5,35.42753 22.72473,7.68937 25.88393,8.28262 33.5,6.2907 z m 34.5,-9.78285 c 4.95,-1.64898 9.3955,-3.38939 9.87888,-3.86758 0.50004,-0.49467 -4.67261,-2.5898 -12,-4.86051 -18.21131,-5.64354 -23.21434,-6.98237 -23.82189,-6.37482 -0.5398,0.53979 -0.24148,3.44713 1.57901,15.38887 l 1.0161,6.66521 7.17395,-1.97651 c 3.94567,-1.08707 11.22395,-3.32567 16.17395,-4.97466 z m 37.25,-14.5849 c 3.21816,-1.30874 -0.1625,-3.17836 -16.91843,-9.35646 -9.48204,-3.49614 -43.6485,-13.9379 -45.60617,-13.9379 -0.99093,0 -1.23847,1.86594 -1.01746,7.66945 l 0.29206,7.66945 16.74401,4.82454 c 9.20921,2.65349 19.55921,6.10209 23,7.66354 l 6.25599,2.83902 8,-3.43165 c 4.4,-1.8874 8.5625,-3.6604 9.25,-3.93999 z M 241.80518,695.7137 c 27.20666,-12.88792 48.82509,-34.31611 61.13813,-60.60011 4.67563,-9.98082 8.54493,-21.49518 10.12253,-30.12286 1.5108,-8.2624 2.83759,-22.89044 2.22175,-24.49527 -0.26848,-0.69966 -2.40748,-2.12112 -4.75332,-3.1588 -2.34584,-1.03768 -6.06463,-3.51239 -8.26397,-5.49936 -2.19933,-1.98697 -4.16925,-3.61373 -4.37759,-3.61502 -0.20834,-10e-4 -0.22671,3.71121 -0.0408,8.25 0.90795,22.1696 -6.11907,47.62679 -17.9713,65.10561 -10.96015,16.16326 -26.85266,30.01835 -44.95423,39.19111 -6.01729,3.04919 -6.94966,2.92371 -18.53127,-2.4939 -27.26543,-12.75413 -44.40073,-33.80873 -44.53201,-54.71765 -0.0853,-13.58592 6.41526,-25.16681 19.8246,-35.31794 3.55618,-2.6921 6.9162,-5.04487 7.4667,-5.22837 1.09137,-0.36379 -2.23359,-10.16403 -4.49993,-13.26344 -1.2852,-1.75761 -1.67428,-1.61389 -7.24931,2.67786 -8.10205,6.23709 -19.67394,18.62552 -23.35522,25.00323 -7.37865,12.78328 -9.19333,29.06529 -4.66808,41.88395 4.72258,13.37767 15.91087,27.53471 31.13208,39.39282 9.20818,7.17365 13.34182,9.86425 26.5,17.24893 11.13882,6.25137 11.08507,6.2519 24.79127,-0.24079 z m -4.26624,-23.97204 c 10.32479,-6.10419 17.65891,-11.92167 26.03988,-20.65505 8.33549,-8.686 11.86521,-13.68233 17.25323,-24.42208 7.35689,-14.66423 10.16425,-27.75825 10.17111,-47.4399 0.005,-14.97917 -1.90933,-26.89189 -6.57415,-40.90569 -3.32157,-9.97847 -8.98937,-22.09431 -10.33573,-22.09431 -0.35309,0 -3.22024,2.60545 -6.37144,5.78988 l -5.72947,5.78988 2.14225,4.43396 c 7.88878,16.32787 10.85154,27.71844 11.58087,44.52346 0.43929,10.12194 0.18299,14.92953 -1.14618,21.5 -5.41399,26.76286 -21.76497,46.99957 -49.0554,60.71316 -4.4,2.21102 -9.9125,4.59294 -12.25,5.29314 -2.3375,0.7002 -4.25,1.66683 -4.25,2.14806 0,0.99215 17.66111,9.80846 19.64862,9.80846 0.71158,0 4.70596,-2.01734 8.87641,-4.48297 z m -29.43158,-12.38513 c 36.82786,-12.72493 58.44664,-38.10994 61.47538,-72.18504 1.19716,-13.46875 -2.76713,-33.60631 -9.56882,-48.60712 l -2.989,-6.59209 -5.75551,4.82081 c -3.16552,2.65145 -5.93726,4.95249 -6.15942,5.11342 -0.22215,0.16094 0.99723,3.33586 2.70973,7.05537 4.51499,9.80642 6.45288,18.4443 6.45288,28.76275 0,25.70883 -14.68335,48.64968 -38.75869,60.5555 -7.71142,3.81348 -21.31421,7.9445 -26.15996,7.9445 -1.28702,0 -2.34004,0.425 -2.34004,0.94444 0,1.43616 12.92776,14.05556 14.39901,14.05556 0.70834,0 3.72084,-0.84064 6.69444,-1.8681 z m -8.59345,-21.78937 c 21.78681,-5.50205 42.03068,-25.5231 46.96256,-46.44564 1.87725,-7.96388 1.92166,-17.42528 0.12154,-25.89689 -1.41147,-6.64262 -5.92714,-18 -7.15676,-18 -0.37549,0 -3.80001,2.31095 -7.61004,5.13544 -5.1284,3.80184 -6.75345,5.55472 -6.25775,6.75 4.29872,10.36544 4.85048,12.97106 4.89469,23.11456 0.0423,9.70462 -0.18769,10.99259 -3.03605,17.00286 -6.9175,14.59647 -21.71657,23.49037 -45.71822,27.47558 -4.20207,0.69771 -4.18908,0.57884 -1.02397,9.37167 l 1.56588,4.35012 5.62906,-0.67123 c 3.09598,-0.36917 8.32906,-1.35308 11.62906,-2.18647 z m -4.18401,-20.67606 7.18401,-2.24713 0.31009,-8.45967 c 0.17056,-4.65282 0.0292,-10.38058 -0.31407,-12.72836 l -0.62417,-4.26868 -3.02404,1.76868 c -8.54556,4.99809 -18.32839,17.83913 -20.30654,26.65457 l -0.64758,2.88588 5.11915,-0.67908 c 2.81553,-0.37349 8.35195,-1.69028 12.30315,-2.92621 z m -70.81599,-32.27621 c 12.1,-14.57373 22.82055,-27.59237 23.82345,-28.93031 1.81043,-2.41524 1.79331,-2.4756 -2.39489,-8.44629 -2.32009,-3.30751 -4.62376,-6.01366 -5.11927,-6.01366 -0.49551,0 -11.16045,10.125 -23.69987,22.5 -22.514848,22.21962 -25.993278,24.851 -27.536058,20.83059 -0.47628,-1.24117 5.56083,-7.8898 23.534338,-25.91818 l 24.17494,-24.24875 -4.27763,-6.83183 c -2.3527,-3.75751 -4.39987,-6.9779 -4.54926,-7.15643 -0.23381,-0.27942 -58.456068,42.65389 -60.815728,44.84574 -0.92441,0.85867 2.16886,5.71603 11.87273,18.64373 7.21577,9.61299 21.769458,27.23482 22.487248,27.2279 0.275,-0.003 10.4,-11.92878 22.5,-26.50251 z m 96.55587,12.99433 c 4.34736,-8.98045 4.32362,-22.21694 -0.0576,-32.12144 l -1.87949,-4.2489 -8.10314,5.15764 c -6.14156,3.9091 -7.93623,5.54139 -7.41363,6.74288 2.7113,6.23347 5.49964,18.78928 6.05517,27.26628 l 0.65095,9.93298 4.36802,-4.28689 c 2.40241,-2.35778 5.27329,-6.15693 6.37974,-8.44255 z m 303.6778,4.67552 c 38.39527,-7.84636 56.66508,-25.82007 46.65794,-45.90177 -1.43461,-2.87889 -4.80961,-7.64284 -7.5,-10.58655 -2.69038,-2.94372 -4.89161,-5.89055 -4.89161,-6.54852 0,-0.65797 1.4582,-3.22682 3.24044,-5.70854 3.46383,-4.82331 10.03544,-9.31473 13.6288,-9.31473 1.20644,0 2.46551,-0.70878 2.79794,-1.57507 1.09667,-2.85788 -1.57318,-9.22181 -4.84673,-11.55278 -3.03694,-2.1625 -3.41278,-2.19209 -12.72491,-1.00203 -11.2584,1.43879 -39.65142,8.28576 -41.33314,9.96748 -1.90758,1.90758 -4.73178,1.32371 -5.88968,-1.21761 -1.86215,-4.08698 2.71991,-16.61999 6.07626,-16.61999 0.44337,0 1.39627,0.71108 2.11755,1.58017 1.03638,1.24875 1.06571,2.23115 0.13984,4.68405 -0.64437,1.70714 -1.06423,3.21125 -0.93302,3.34246 0.13121,0.13121 7.43588,-1.55244 16.23261,-3.74144 9.69469,-2.41246 19.62691,-4.21159 25.21789,-4.56799 l 9.22384,-0.58798 5.52616,-5.14296 c 3.50775,-3.26452 5.52615,-5.95638 5.52615,-7.37002 0,-1.22488 -1.65,-4.71214 -3.66667,-7.74946 -4.88102,-7.35134 -5.02477,-12.59336 -0.5206,-18.98348 l 3.14605,-4.46335 -3.72939,-0.12905 c -12.38624,-0.42859 -20.5258,1.66356 -28.25492,7.26251 -5.12093,3.70958 -7.32987,3.11953 -11.89043,-3.17614 -7.19289,-9.9295 -6.5165,-19.7005 2.03825,-29.44382 3.32049,-3.78183 7.22662,-4.6526 8.30182,-1.85068 0.39915,1.04017 -0.27152,2.63161 -1.79106,4.25 -6.89964,7.34853 -8.69276,16.09937 -4.44698,21.70232 1.20235,1.58667 2.25047,2.99548 2.32917,3.13069 0.0787,0.13521 3.29115,-1.36933 7.13878,-3.34342 9.33053,-4.78719 19.17364,-6.26174 30.68696,-4.59709 12.06297,1.74412 24.08163,-0.98942 26.81627,-6.09914 2.17874,-4.07102 0.35234,-14.53605 -5.09717,-29.20618 -13.11525,-35.30635 -19.35566,-52.6293 -26.53036,-73.64645 l -7.73089,-22.64645 -5.64942,-1.54507 c -25.08754,-6.86126 -56.76864,-4.09513 -87.95998,7.67992 -7.90352,2.98366 -8.63234,3.51784 -13.19815,9.6734 -6.49339,8.75429 -21.72238,22.8702 -30.73898,28.49227 -0.13623,0.085 -1.14231,3.65237 -2.23573,7.9276 -2.45065,9.58195 -9.52263,24.7194 -15.37799,32.9163 -6.11614,8.56197 -19.7146,21.31766 -28.63858,26.86369 -9.23137,5.73706 -20.70185,10.39888 -30.8313,12.53043 -4.21779,0.88755 -7.72979,1.64537 -7.80446,1.68404 -0.0747,0.0387 -0.45172,1.98282 -0.8379,4.32032 -0.55244,3.34387 -0.39764,4.25 0.72604,4.25 3.44234,0 13.9496,6.43079 18.16149,11.11543 12.86087,14.30438 15.12325,35.67452 5.43988,51.3845 -2.9239,4.74364 -3.02476,5.24731 -1.96781,9.82629 1.56659,6.78683 1.38453,17.40002 -0.40167,23.4148 -0.83365,2.80721 -3.29141,7.72638 -5.46168,10.9315 -3.64587,5.38431 -3.81578,5.93096 -2.23427,7.18824 0.94142,0.74842 8.77603,4.85291 17.41024,9.1211 23.25511,11.49581 51.03925,20.15108 77.30144,24.08084 20.663,3.09192 51.37391,2.64719 69.23367,-1.00259 z M 484.01391,384.18772 c -4.675,-0.48978 -13,-2.08282 -18.5,-3.5401 -9.99463,-2.64817 -11.3687,-2.85595 -14.86161,-2.24735 -1.02388,0.1784 -2.36294,-0.44944 -2.97568,-1.39519 -0.91388,-1.41055 -0.48951,-2.37202 2.36161,-5.3506 14.88736,-15.55291 44.24142,-25.42985 75.577,-25.42985 7.89301,0 10.43644,0.34057 11.42326,1.52961 1.89981,2.28914 -0.30957,6.27369 -4.43428,7.99712 l -3.40522,1.42279 0.51866,5.77524 c 0.65104,7.24927 -1.0751,13.80045 -4.55245,17.2778 -2.08571,2.08571 -4.02444,2.82934 -8.66891,3.32513 -11.88472,1.26867 -24.14794,1.50856 -32.48238,0.6354 z m 4.61634,-9.13138 c -0.34851,-1.74256 -0.92027,-6.2521 -1.27057,-10.02119 -0.74481,-8.01387 -0.0382,-7.92087 -13.19056,-1.73589 -8.85885,4.16592 -14.15521,7.50543 -14.15521,8.92526 0,0.89507 11.32377,3.67635 20.33785,4.99528 9.16645,1.34122 8.98872,1.38767 8.27849,-2.16346 z m 20.85595,1.41829 c -2.90871,-6.86307 -3.62257,-10.20241 -3.15314,-14.74999 0.28387,-2.75 0.80604,-5.73461 1.16037,-6.63247 0.56866,-1.44093 0.0797,-1.53058 -4.16764,-0.76416 -9.97969,1.80082 -9.31188,1.19317 -9.31188,8.47286 0,3.59597 0.50342,8.5374 1.11871,10.98095 l 1.11872,4.44281 h 6.98827 c 6.27138,0 6.91219,-0.17952 6.24659,-1.75 z M 343.01391,571.61395 c 15.84706,-7.1696 24.35321,-25.8658 19.18388,-42.16546 -3.56892,-11.25336 -12.15822,-19.84183 -23.40774,-23.40548 -16.51658,-5.23216 -34.99066,3.29217 -42.4151,19.57123 -3.91253,8.57872 -3.98078,19.57476 -0.17247,27.78554 8.54172,18.41605 28.87664,26.32831 46.81143,18.21417 z m -22.5,-15.27005 c -4.75782,-2.1848 -6.88992,-4.41489 -8.96186,-9.37375 -5.24923,-12.56317 3.55127,-25.74552 17.18762,-25.74552 5.8437,0 10.68912,2.43174 14.68649,7.37062 5.46282,6.7495 4.43621,18.93733 -2.09244,24.84124 -5.28095,4.77561 -14.07663,6.00389 -20.81981,2.90741 z m 15.55906,-7.16133 c 1.65545,-1.17878 3.38003,-3.69146 4.03572,-5.87994 3.10398,-10.36019 -7.13381,-19.15374 -16.80129,-14.43113 -7.61039,3.7177 -9.18178,13.311 -3.16578,19.32699 4.50202,4.50202 10.4729,4.87084 15.93135,0.98408 z m -117.07461,4.1833 c 37.65054,-26.06474 72.37172,-61.46149 111.47234,-113.64124 16.6002,-22.15296 25.27302,-34.44996 55.01183,-77.99999 52.86404,-77.41506 75.61608,-106.68498 106.16047,-136.57273 13.09527,-12.81375 30.47714,-27.5141 37.2952,-31.54163 1.69164,-0.99928 3.07571,-2.43653 3.07571,-3.19389 0,-1.72414 -5.05784,-16.39586 -6.04171,-17.52572 -1.12653,-1.29368 -23.79559,18.20755 -40.49249,34.83396 -34.33838,34.19343 -55.18532,60.65092 -113.46349,144 -35.99671,51.48228 -53.72133,75.77589 -70.40639,96.5 -33.48306,41.58849 -66.21602,73.44779 -100.27567,97.59927 l -9.17975,6.5093 4.055,6.46733 4.05501,6.46734 4.62474,-2.66805 c 2.54361,-1.46743 8.89275,-5.62271 14.1092,-9.23395 z M 95.280872,536.3964 l 29.766968,-22.14869 -4.04812,-8.0513 c -2.22646,-4.42822 -4.3716,-7.87334 -4.76696,-7.65583 -0.39537,0.21751 -12.3841,7.49656 -26.641618,16.17567 -20.14426,12.26259 -26.27435,15.55842 -27.5,14.7853 -0.86748,-0.54719 -1.57723,-1.83563 -1.57723,-2.86319 0,-1.86784 1.84407,-3.08104 39.793648,-26.18002 l 13.58078,-8.2663 -2.57306,-5.7337 c -1.41518,-3.15354 -2.92813,-6.12742 -3.36212,-6.60861 -0.68558,-0.76017 -70.939248,31.03114 -70.939248,32.10156 0,1.21233 7.90634,17.21422 13.22031,26.75699 9.38591,16.85512 12.7374,21.78455 14.10093,20.73991 0.64832,-0.4967 14.57389,-10.87 30.94572,-23.05179 z m 102.924118,3.67097 c 20.15485,-14.51931 36.72401,-28.9782 57.87324,-50.50244 32.98815,-33.57308 53.00153,-59.134 107.92454,-137.8403 16.11969,-23.1 34.04365,-48.525 39.83101,-56.5 32.0583,-44.17641 61.57735,-78.56225 89.41644,-104.15849 5.90497,-5.42924 10.71831,-10.20213 10.69631,-10.60642 -0.022,-0.4043 -4.40333,-1.65038 -9.73631,-2.76907 -9.57948,-2.00948 -9.69995,-2.07097 -9.99877,-5.10389 -0.16636,-1.68846 0.36617,-8.19064 1.18339,-14.4493 0.81722,-6.25866 1.34364,-11.52159 1.16982,-11.69541 -0.45012,-0.45013 -18.7274,19.60933 -27.59212,30.28258 -28.64256,34.48607 -47.34713,61.52154 -98.93493,143 -62.51555,98.73788 -85.90006,130.55061 -123.93226,168.59971 -18.53673,18.54498 -32.39761,30.37867 -46.92735,40.06413 -4.21525,2.80986 -8.07111,5.47702 -8.56859,5.927 -1.29228,1.16892 7.23927,12.18654 8.93333,11.53647 0.74433,-0.28562 4.64234,-2.88868 8.66225,-5.78457 z M 429.55038,238.26492 c -3.70255,-4.09126 1.02748,-10.47126 6.06244,-8.17718 5.0325,2.29296 3.40837,10.13689 -2.09891,10.13689 -1.20451,0 -2.9881,-0.88187 -3.96353,-1.95971 z m 15.8208,-22.61779 c -3.62804,-5.53707 2.52816,-11.69327 8.06523,-8.06523 1.90205,1.24626 2.5775,2.54758 2.5775,4.96578 0,4.14435 -1.5326,5.67695 -5.67695,5.67695 -2.4182,0 -3.71952,-0.67545 -4.96578,-2.5775 z m 17.70169,-19.36354 c -4.19415,-4.19415 -1.44653,-11.05896 4.42632,-11.05896 5.94355,0 9.09773,5.39425 5.77138,9.87017 -2.56338,3.44926 -7.37618,4.01031 -10.1977,1.18879 z m -316.10686,316.44033 2.28099,-7.00071 -5.47911,-8.99929 c -22.16798,-36.41037 -32.76366,-76.6966 -32.74456,-124.49928 0.0105,-26.2539 2.65086,-45.32518 9.57288,-69.14443 11.7737,-40.51427 32.79359,-76.75524 61.88162,-106.69178 21.07349,-21.68821 39.80633,-35.3667 66.03608,-48.21876 36.51173,-17.89002 69.55777,-24.78397 113,-23.57366 12.1,0.33711 24.25,1.015 27,1.50642 4.92274,0.87968 5.0666,0.83226 9.31039,-3.06842 3.87113,-3.55816 5.92043,-4.73091 12.68961,-7.2619 1.90955,-0.71398 1.89175,-0.78944 -0.39344,-1.66848 -1.31639,-0.50637 -8.33502,-2.01805 -15.59696,-3.35928 -70.36996,-12.996859 -142.49636,6.26895 -202.5096,54.0927 -10.7508,8.56717 -31.47117,29.30123 -40.36092,40.38758 -17.60557,21.95581 -34.38588,51.56127 -43.63978,76.99356 -16.230648,44.60634 -19.697138,94.75785 -9.850088,142.50644 6.416868,31.11555 20.448378,66.38412 37.978508,95.45997 l 6.30642,10.45998 1.11849,-5.45998 c 0.61517,-3.00298 2.14493,-8.61029 3.39947,-12.46068 z m 41.21002,8.39086 c 28.29836,-20.24149 53.77805,-45.26371 81.5759,-80.1113 21.22942,-26.61335 46.04177,-63.28239 89.84572,-132.77885 60.59322,-96.13321 89.38813,-134.4937 132.40106,-176.3843 l 15.28308,-14.88431 -2.31,-7.36569 c -1.2705,-4.05114 -2.50977,-7.3657 -2.75393,-7.3657 -1.36744,0 -21.95374,19.0425 -33.86357,31.3241 -35.6614,36.77456 -60.29522,70.39738 -122.1581,166.73417 -18.87474,29.39295 -40.18887,61.99174 -47.36473,72.44174 -41.67803,60.69451 -79.25448,104.03057 -118.31755,136.4529 -5.5,4.565 -10.63572,8.89489 -11.41272,9.62197 -1.20462,1.12725 -0.86332,1.99244 2.31695,5.87355 2.05132,2.50336 4.11,4.55157 4.57484,4.55157 0.46484,0 5.94722,-3.64943 12.18305,-8.10985 z m 101.80452,2.71093 c 0.61696,-1.86941 2.85655,-5.82156 4.97687,-8.78255 l 3.85513,-5.38362 -2.34476,-6.96745 c -1.28962,-3.8321 -2.59499,-6.8556 -2.90083,-6.71889 -0.30583,0.13671 -3.68086,3.53817 -7.50005,7.55879 l -6.94399,7.31021 4.19549,8.18408 c 2.30753,4.50125 4.4981,8.18729 4.86795,8.19122 0.36984,0.004 1.17723,-1.52239 1.79419,-3.39179 z m 79.52759,-26.60108 c 0.005,-9.2965 -0.30028,-11.15293 -2.66441,-16.1965 -4.93929,-10.53735 -14.77973,-17.94706 -25.98071,-19.56309 -5.77428,-0.83309 -8.08724,-3.04363 -5.91868,-5.65659 0.72295,-0.8711 2.15936,-1.58382 3.19201,-1.58382 1.41951,0 1.87756,-0.73188 1.87756,-3 0,-2.80224 -0.24825,-3 -3.76579,-3 -3.56054,0 -4.16086,0.50414 -11.01451,9.25 -7.85062,10.01806 -7.86255,10.06466 -5.60978,21.89775 l 0.50407,2.64774 4.19301,-2.28539 c 6.03177,-3.28762 10.88505,-3.88689 17.0244,-2.10214 9.97111,2.89868 14.89484,11.70493 12.80349,22.89943 l -0.88007,4.71076 5.62259,5.8921 5.62259,5.89209 2.49423,-4.65117 c 2.20377,-4.10955 2.4949,-5.87388 2.5,-15.15117 z m -195.08111,8.59482 c 5.62063,-4.62284 13.92402,-11.89028 18.45198,-16.14985 l 8.23264,-7.74469 -7.79887,-4.18997 -7.79887,-4.18996 -3.87999,3.45466 c -6.39728,5.696 -13.94579,8.61768 -22.41378,8.67533 l -7.29377,0.0497 -0.26114,-22.5 c -0.23443,-20.19942 -0.46001,-22.83963 -2.20622,-25.82164 l -1.9451,-3.32163 -8.28578,0.66438 c -8.30173,0.66567 -11.21422,-0.0928 -11.21422,-2.92047 0,-0.63495 1.76888,-3.50862 3.93084,-6.38592 2.56417,-3.41259 4.29493,-7.05386 4.97804,-10.47309 1.22983,-6.15579 3.17319,-24.9929 2.63404,-25.53204 -0.55085,-0.55086 -4.12656,1.44389 -12.8488,7.16783 l -7.80588,5.12258 0.62067,5.5 c 2.45947,21.79403 10.38817,48.38229 20.52257,68.82079 6.0264,12.1537 22.11109,38.17921 23.59611,38.17921 0.31141,0 5.16489,-3.78233 10.78553,-8.40518 z M 69.848112,489.12331 c 19.06619,-8.85572 34.824148,-16.25157 35.017678,-16.43521 0.39077,-0.3708 -2.64482,-10.04101 -3.94896,-12.57989 -0.73015,-1.42143 -4.242518,-0.60762 -29.116608,6.74626 -15.55747,4.59948 -29.41131,8.25187 -30.78631,8.11642 -1.92103,-0.18923 -2.5,-0.8149 -2.5,-2.70166 0,-2.35562 1.19695,-2.80731 29.45515,-11.11544 16.20033,-4.76302 29.58046,-9.05809 29.73362,-9.5446 0.15316,-0.48651 -0.78404,-4.70956 -2.08266,-9.38456 -2.16257,-7.78516 -2.56066,-8.47942 -4.73362,-8.25524 -2.84899,0.29392 -74.23041,15.38687 -74.70151,15.79495 -0.63365,0.54888 5.83358,23.34209 9.95793,35.0959 4.8609,13.85286 7.55312,20.36439 8.41975,20.36439 0.34086,0 16.21935,-7.24559 35.28554,-16.10132 z m 241.929798,12.54437 c 4.6007,-2.1503 6.10192,-3.32804 5.65359,-4.43537 -0.5882,-1.45283 -4.14329,-16.13527 -5.02676,-20.76042 -0.37933,-1.98583 -1.15907,-1.40601 -6.58098,4.89361 l -6.15068,7.14635 1.22435,5.92771 c 1.32012,6.39139 3.11024,11.04369 4.03879,10.49634 0.31773,-0.18729 3.39649,-1.65799 6.84169,-3.26822 z m 36.236,-5.05173 c 0,-9.07115 -5.29871,-14.00143 -14.13524,-13.15235 -2.77744,0.26688 -6.29808,1.47393 -8.3457,2.86132 -3.10513,2.10392 -3.46407,2.76949 -2.91206,5.39971 1.23175,5.86902 2.01605,6.49657 8.17818,6.54377 3.14315,0.0241 7.96482,0.83461 10.71482,1.80118 2.75,0.96658 5.3375,1.59532 5.75,1.39722 0.4125,-0.19811 0.75,-2.38099 0.75,-4.85085 z m -177.65443,-19.8328 c 3.53575,-1.55631 9.4244,-6.16582 8.65443,-6.77452 -0.275,-0.2174 -3.52235,-2.75942 -7.21634,-5.64895 -3.69398,-2.88953 -8.22,-7.0639 -10.05782,-9.27639 l -3.34148,-4.02271 0.31062,13.83203 c 0.17083,7.60761 0.30935,14.12169 0.30782,14.47572 -0.004,0.84895 7.34693,-0.82637 11.34277,-2.58518 z m 43.48046,-7.88338 7.27597,-7.32486 -8.801,-2.15561 c -13.86102,-3.39495 -24.4172,-9.11915 -33.37929,-18.10028 -4.64017,-4.65003 -8.51719,-9.61393 -10,-12.8034 -1.33194,-2.86496 -2.74355,-5.22746 -3.13691,-5.25 -0.39337,-0.0225 -2.19337,1.24302 -4,2.81236 -1.80664,1.56934 -4.2973,3.38518 -5.5348,4.03518 -1.2375,0.65001 -2.25,1.57831 -2.25,2.06288 0,0.48457 2.21207,4.18835 4.9157,8.23062 5.14211,7.6881 13.62388,16.59588 20.82472,21.87068 4.56146,3.34139 24.0937,13.89042 25.78461,13.92583 0.56376,0.0118 4.29921,-3.27473 8.301,-7.3034 z m 20.13016,-21.83311 c 3.88366,-4.48688 6.94479,-8.26008 6.80251,-8.38487 -0.14229,-0.1248 -3.15317,0.17622 -6.69086,0.66894 -22.15113,3.08512 -43.23829,-12.27004 -47.96276,-34.92532 -4.64361,-22.26758 6.69677,-45.85061 30.04441,-62.47924 6.76271,-4.81652 18.46586,-11.2155 25.8178,-14.11649 l 4.46728,-1.76274 -10.39178,-3.92115 c -5.71549,-2.15664 -10.89458,-3.92116 -11.5091,-3.92116 -3.0817,0 -18.88104,11.24494 -26.62642,18.95095 -9.79686,9.74706 -15.48825,17.74409 -21.00202,29.51018 -5.20015,11.09682 -6.99915,18.19029 -7.62114,30.05012 -0.91664,17.47823 3.1757,29.16354 13.96841,39.88551 8.57733,8.52112 16.57785,12.78383 31.24748,16.64883 11.46886,3.02169 11.47209,3.02066 19.45619,-6.20356 z M 52.764722,435.13124 c 20.75831,-4.45136 38.01219,-8.26013 38.34196,-8.46394 0.52113,-0.32208 -1.85886,-15.49071 -2.54388,-16.21312 -0.14105,-0.14874 -14.11755,1.04766 -31.05889,2.65867 -16.94134,1.61101 -31.40714,2.69707 -32.14622,2.41346 -1.97422,-0.75758 -1.66551,-5.07287 0.40622,-5.67838 0.9625,-0.28131 15.025,-1.72352 31.25,-3.20492 16.225,-1.48139 29.81803,-2.97208 30.20673,-3.31264 0.70535,-0.61799 -0.5774,-16.80974 -1.3966,-17.62894 -0.71845,-0.71845 -77.2519307,-2.19697 -78.0642407,-1.50809 -0.91505,0.77599 0.76522,22.79913 2.7771897,36.4005 2.100201,14.19778 3.621961,22.63079 4.083801,22.63079 0.22086,0 17.38563,-3.64202 38.14393,-8.09339 z m 303.308798,4.01077 c 44.6744,-11.02315 75.63049,-55.85223 70.14866,-101.5858 -1.32567,-11.05979 -2.92536,-17.62446 -4.11551,-16.88891 -0.4395,0.27163 -3.11553,3.84471 -5.94673,7.94019 l -5.14764,7.44632 -0.30379,14.33541 c -0.26943,12.71391 -0.62932,15.2857 -3.18166,22.73662 -2.88706,8.42801 -9.45878,19.42927 -15.68141,26.25114 -8.05763,8.83357 -24.99534,19.41959 -36.66623,22.91627 -4.27738,1.28153 -7.01241,4.13285 -15.04184,15.68138 l -2.25965,3.25 h 4.87771 c 2.68273,0 8.67587,-0.93718 13.31809,-2.08262 z m -111.77886,-8.89637 c 5.26899,-1.99404 6.48823,-3.08776 13.77225,-12.35436 l 7.99149,-10.16665 -0.30919,-10 c -0.25648,-8.29504 -0.76122,-10.97793 -2.96042,-15.73579 -3.02002,-6.53366 -10.586,-14.60687 -16.53196,-17.64027 l -4.03448,-2.05824 -5.85422,3.81431 c -3.21982,2.09787 -6.64588,4.71062 -7.61346,5.8061 -1.71496,1.94167 -1.65264,2.02373 2.47704,3.26101 16.38188,4.90812 23.60483,22.43346 14.55918,35.32552 -3.97972,5.67198 -15.15397,9.07817 -22.17742,6.76022 -8.94522,-2.95219 -13.96033,-10.68735 -14.01111,-21.61031 -0.0281,-6.05488 0.45429,-8.06707 3.339,-13.92674 8.88481,-18.0476 30.53544,-30.60716 64.51857,-37.42728 16.27624,-3.26651 16.85354,-2.32713 -6.23881,-10.15171 l -14.29279,-4.84295 -7.20721,2.58869 c -21.92791,7.8761 -42.42251,22.93769 -50.90335,37.40917 -9.50546,16.21982 -9.27101,36.29379 0.57464,49.2023 4.40099,5.77009 11.91964,11.24448 18.02608,13.12496 6.9288,2.13373 19.26876,1.50104 26.87617,-1.37798 z m -96.4696,-3.55757 c 3.67172,-1.09038 6.76003,-3.0504 10.63568,-6.75 l 5.46152,-5.21344 -1.0386,-6 c -2.80256,-16.19036 3.60221,-40.22749 15.61289,-58.59528 6.21706,-9.50768 24.17763,-27.29624 32.37381,-32.06375 l 6.2905,-3.65904 -6.19142,-3.62869 c -7.13873,-4.18389 -5.8718,-4.55256 -18.04021,5.24952 -9.73316,7.8404 -25.47022,24.1531 -30.57871,31.69724 -10.25064,15.13798 -14.3662,27.62925 -16.78293,50.93849 -1.43533,13.8437 -2.91518,20.6948 -6.0073,27.81151 -0.97474,2.2434 1.23682,2.30052 8.26477,0.21344 z m 216.47209,-15.08293 c 14.61572,-7.33899 27.49194,-19.90212 33.83998,-33.01717 4.24293,-8.76587 7.20289,-21.42219 6.68559,-28.58653 l -0.30881,-4.27681 -6.57639,9.5 c -20.23922,29.23682 -39.92361,58.08603 -39.92361,58.51157 0,0.86594 0.96955,0.5371 6.28324,-2.13106 z m -124.63832,-4.69012 c 5.69562,-6.215 4.45331,-14.88491 -3.08071,-21.49987 -3.63981,-3.19579 -10.12669,-5.54614 -13.79964,-4.99992 -4.70288,0.69938 -8.33076,14.53377 -5.81236,22.16461 0.64971,1.96864 2.59224,4.76657 4.31673,6.21763 2.79495,2.3518 3.78075,2.59161 9.07817,2.20843 5.3125,-0.38427 6.29855,-0.81811 9.29781,-4.09088 z m 40.82088,-19.25173 6.77772,-9.56133 -3.56267,-7.18866 c -1.95946,-3.95376 -5.85062,-9.74853 -8.64702,-12.87726 l -5.08435,-5.68861 -5.22474,1.47688 c -8.42507,2.38153 -13.72474,4.49874 -13.72474,5.48304 0,0.50451 0.41374,0.91729 0.91941,0.91729 0.50568,0 3.42655,2.29138 6.49082,5.09195 6.60979,6.04097 12.07345,16.26404 13.71279,25.65804 0.59987,3.4375 1.19742,6.25 1.32787,6.25 0.13046,0 3.28717,-4.3026 7.01491,-9.56134 z m -154.4658,1.52795 c 3.025,-2.02681 7.525,-4.70375 10,-5.94878 2.475,-1.24502 4.62341,-2.36926 4.77424,-2.49832 0.15083,-0.12906 1.15804,-3.42395 2.23823,-7.32195 1.0802,-3.89802 3.10012,-9.65629 4.48871,-12.79615 1.3886,-3.13985 2.35808,-5.87548 2.15441,-6.07915 -0.70548,-0.70548 -13.17945,9.05353 -18.41162,14.40434 -2.89082,2.95636 -7.05332,7.75569 -9.25,10.66517 -3.34682,4.43282 -3.99397,6.05446 -3.99397,10.00812 0,3.49887 0.32303,4.52868 1.25,3.98498 0.6875,-0.40324 3.725,-2.39146 6.75,-4.41826 z m -39.999998,-18.9666 c 0,-5.73648 -0.35368,-7.99833 -1.25,-7.9941 -2.1614,0.0102 -57.13538,-6.06054 -59.54282,-6.57528 -2.91943,-0.6242 -3.9155,-3.15088 -1.99804,-5.06834 1.31017,-1.31017 4.7284,-1.1268 29.38674,1.57648 15.34727,1.68251 29.10974,3.26696 30.58327,3.52101 3.08811,0.5324 3.29535,-0.0669 4.3282,-12.5156 l 0.6269,-7.55583 -37.81713,-7.71898 c -20.79941,-4.24544 -38.10814,-7.70782 -38.46383,-7.69418 -1.486921,0.057 -4.8081607,33.52638 -4.8374607,48.74877 l -0.0158,8.22395 15.2500007,0.30411 c 8.3875,0.16726 26.1625,0.40398 39.5,0.52604 l 24.24997,0.22194 z m 43.269528,-10.14138 c -0.12677,-0.40781 -2.34493,-4.16774 -4.92927,-8.35543 -3.22945,-5.23302 -4.93497,-7.1919 -5.45408,-6.26429 -0.41542,0.74231 -1.05767,7.62972 -1.42723,15.30538 l -0.67193,13.95572 6.35649,-6.94996 c 3.49607,-3.82247 6.25278,-7.28361 6.12602,-7.69142 z m 169.78601,0.55859 c 6.68422,-9.96267 6.99317,-10.66555 5.27237,-11.995 -1.10586,-0.85436 -3.21045,-1.23557 -5.32791,-0.96506 -12.68544,1.62064 -21,2.92519 -21,3.29489 0,0.23651 1.48465,2.1645 3.29921,4.28441 1.81457,2.11992 4.85207,6.56558 6.75,9.87924 1.89794,3.31366 3.55323,6.03821 3.67842,6.05457 0.1252,0.0164 3.42276,-4.73251 7.32791,-10.55305 z M 141.3155,347.39698 c -0.84231,-2.01979 -2.85087,-6.28885 -4.46346,-9.4868 -1.6126,-3.19795 -2.68766,-6.58428 -2.38903,-7.52518 0.29863,-0.94089 4.32692,-3.58737 8.95175,-5.88105 l 8.40878,-4.17033 -2.07932,-5.64459 c -1.97544,-5.36262 -2.22305,-5.61585 -4.95669,-5.06912 -3.22425,0.64485 -15.73414,6.72836 -19.82282,9.63975 -2.10621,1.49976 -2.8666,3.15522 -3.63185,7.90696 -0.91179,5.66173 -0.80994,6.25777 1.75736,10.28403 1.49888,2.35069 4.7957,7.54233 7.32625,11.53699 l 4.601,7.26302 3.91475,-2.59067 3.91475,-2.59066 z m 299.83485,3.21603 c 19.92077,-16.29781 30.76349,-36.32399 32.81576,-60.60972 0.76944,-9.10522 -0.2514,-27.70999 -1.74145,-31.73799 -0.81865,-2.21303 -1.19176,-1.94812 -7.03762,4.99676 l -6.17313,7.33368 v 8.63079 c 0,19.96328 -6.69652,37.11748 -20.07085,51.41469 l -5.92915,6.33827 v 9.62257 c 0,5.29241 0.28741,9.62258 0.63868,9.62258 0.35128,0 3.72527,-2.52524 7.49776,-5.61163 z M 153.2326,345.77772 c 1.90462,-0.7958 4.61571,-2.95826 6.02464,-4.80546 l 2.56169,-3.35856 -3.47067,-5.67452 -3.47068,-5.67452 -6.18183,3.0985 c -3.40001,1.70418 -6.34217,3.24301 -6.53814,3.41962 -0.56641,0.51048 6.07253,14.44185 6.88221,14.44185 0.40142,0 2.28817,-0.65111 4.19278,-1.44691 z m 165.66845,-15.04531 c 2.96293,-4.71176 5.20222,-8.75175 4.97621,-8.97777 -2.14932,-2.14931 -42.12599,-3.20788 -63.22337,-1.67412 l -8.86002,0.64411 16.36002,5.39993 c 18.86178,6.22567 29.43298,10.57107 36.42436,14.9726 l 4.93566,3.10731 2,-2.45262 c 1.1,-1.34894 4.42421,-6.30769 7.38714,-11.01944 z M 179.6794,312.87039 c -1.74102,-1.56983 -6.45155,-5.78257 -10.46784,-9.36164 -4.0163,-3.57906 -9.5288,-9.67773 -12.25,-13.55259 l -4.94765,-7.04519 0.0119,8.40683 c 0.0169,11.95262 3.05261,21.92523 10.65878,35.01484 l 3.25873,5.60802 8.4508,-8.10802 8.45081,-8.10801 z m -90.230678,14.10424 c 1.7761,-8.45034 2.55879,-13.08974 2.25887,-13.38965 -0.19129,-0.19129 -13.36312,-4.4429 -29.27074,-9.44802 -15.90762,-5.00512 -29.48544,-9.56304 -30.17294,-10.12872 -1.7741,-1.45973 -1.54764,-3.55715 0.5,-4.63098 1.2672,-0.66455 9.88151,1.65495 31.22406,8.40742 16.21073,5.12885 29.51797,9.2385 29.57165,9.13256 0.0537,-0.10594 1.02326,-3.44532 2.15462,-7.42085 1.50335,-5.28265 1.75323,-7.47374 0.92835,-8.14029 -2.87933,-2.32667 -68.00489,-34.20108 -69.0556,-33.79789 -1.99877,0.767 -10.46865,30.3029 -13.91212,48.5139 -1.32817,7.0241 -1.31109,7.20188 0.73975,7.702 2.62778,0.64081 72.83247,15.25332 73.83024,15.36714 0.40202,0.0459 0.94376,-0.92912 1.20386,-2.16662 z m 347.034328,-3.27764 c 9.06598,-11.06384 14.65296,-24.2927 16.03695,-37.97236 0.87643,-8.66279 1.39986,-9.0941 -13.80191,11.37266 l -11.41811,15.37266 1.85697,5.96643 c 1.02133,3.28154 1.85696,6.82635 1.85696,7.87734 0,2.98227 1.44944,2.28877 5.46914,-2.61673 z m 47.03086,-5.51551 c 25.02368,-8.39418 53.83591,-10.84939 75.10261,-6.39982 3.79315,0.79364 7.2133,1.44297 7.60032,1.44297 0.86094,0 -30.96456,-95.11687 -32.27156,-96.45 -0.5772,-0.58875 -0.93137,1.36564 -0.93137,5.13953 0,11.73845 -4.46617,29.35113 -10.47539,41.31047 -8.46733,16.8514 -25.03634,32.75523 -41.13147,39.4802 -1.86623,0.77976 -3.39314,2.12695 -3.39314,2.99376 0,1.37762 -2.3439,8.56523 -4.49242,13.77604 -0.94671,2.29606 -0.55693,2.24562 9.99242,-1.29315 z M 333.48143,308.00597 c 4.17824,-6.24079 5.17767,-8.4004 4.15295,-8.97386 -0.74221,-0.41536 -5.57295,-1.50338 -10.73497,-2.41781 -7.75181,-1.37321 -17.82767,-1.70161 -57.8855,-1.88664 -45.81591,-0.21163 -58.60169,-0.847 -70.47289,-3.50204 -2.18508,-0.48871 -4.14172,-0.71971 -4.34809,-0.51335 -0.9528,0.95281 17.08083,13.05957 26.2193,17.60217 l 10.19628,5.06841 29.32212,-0.0939 c 16.12717,-0.0516 29.60589,-0.25269 29.9527,-0.44677 2.10202,-1.17628 33.05249,1.51838 37.86312,3.2965 0.1279,0.0473 2.70864,-3.61245 5.73498,-8.13271 z m -193.06779,-3.73746 4.89974,-1.66657 0.20677,-11.93865 c 0.29396,-16.97285 3.53284,-26.1409 7.94222,-22.48144 0.78264,0.64954 1.73235,2.61238 2.11047,4.36188 1.98021,9.1621 10.08054,19.8776 23.30697,30.83159 l 9.41346,7.79611 4.11032,-3.15134 c 2.26068,-1.73323 4.50523,-3.48867 4.9879,-3.90098 0.48267,-0.4123 -3.11733,-4.56717 -8,-9.23305 -14.72971,-14.07572 -24.11842,-31.9872 -27.60687,-52.66753 l -1.43279,-8.4939 -4.86372,7.47618 c -10.31848,15.86084 -20.12673,36.97891 -26.88667,57.88949 -1.97314,6.10355 -3.58753,11.33826 -3.58753,11.63269 0,0.29443 2.3625,-0.6624 5.25,-2.12629 2.8875,-1.46389 7.45488,-3.41157 10.14973,-4.32819 z M 490.22155,290.2918 c 17.10167,-11.4383 29.46839,-30.26045 34.2665,-52.15363 1.96512,-8.96662 3.28674,-33.91354 1.79664,-33.91354 -0.55707,0 -4.39069,2.69632 -8.51916,5.99182 l -7.50632,5.99182 -0.0352,8.05938 c -0.0766,17.54956 -5.19809,29.0034 -19.31861,43.20497 l -9.69235,9.74799 -0.34958,9.00251 c -0.24814,6.39047 -0.0112,9.00237 0.81665,9.00201 0.64143,-2.7e-4 4.48506,-2.22027 8.54142,-4.93333 z m -143.64131,-2.73832 c 5.2494,-8.20613 5.26468,-8.00179 -0.73363,-9.80826 -13.69069,-4.12311 -23.5533,-4.8005 -72.8327,-5.00232 -31.21292,-0.12784 -50.24309,-0.61078 -55.5,-1.40846 -17.76705,-2.69595 -33.51922,-8.21314 -42.31568,-14.82105 -1.82362,-1.3699 -3.49138,-2.31504 -3.70612,-2.10029 -0.69798,0.69798 6.02018,15.16167 9.71937,20.92508 3.54347,5.52077 3.73273,5.64817 11.45272,7.70927 15.28002,4.07949 19.95773,4.40034 75.84971,5.20266 43.84184,0.62935 56.50008,1.10802 62.39409,2.35944 4.06674,0.86346 7.62924,1.80508 7.91666,2.0925 1.76478,1.76478 4.49081,-0.0449 7.75558,-5.14857 z M 102.73151,277.816 c 1.77138,-4.92474 2.15013,-7.12364 1.36266,-7.91111 -0.59983,-0.59983 -12.900768,-8.33384 -27.335428,-17.18668 -26.55719,-16.28766 -28.78704,-18.17202 -24.6166,-20.80267 1.28372,-0.80975 4.56331,0.78109 15.5,7.51863 7.62947,4.70013 19.83348,12.19769 27.12002,16.66125 l 13.248248,8.11557 3.91365,-7.92542 3.91366,-7.92541 -30.661898,-23.38288 c -16.86405,-12.86058 -31.21179,-23.70983 -31.88387,-24.10945 -0.83895,-0.49884 -3.29128,3.40299 -7.82407,12.44866 -6.81176,13.5936 -15.45397,33.78415 -15.45397,36.10469 0,1.31084 67.69416,35.89805 69.38217,35.44966 0.4852,-0.12888 1.986138,-3.30356 3.335428,-7.05484 z m 256.96842,-10.66246 c 3.53448,-5.31537 4.38025,-7.26992 3.40628,-7.87187 -0.71262,-0.44042 -6.08742,-1.98155 -11.94399,-3.42473 -21.192,-5.22214 -28.19681,-5.78687 -82.14831,-6.62284 -54.15388,-0.8391 -57.29777,-1.12754 -71.80487,-6.588 -8.38334,-3.15548 -19.10868,-10.34793 -24.2014,-16.22954 -3.88451,-4.48625 -4.12633,-4.60755 -5.51634,-2.76697 -1.55636,2.06084 -1.22291,10.03074 0.68202,16.30147 1.81327,5.96896 13.37374,14.52418 25.72102,19.03459 16.28431,5.94859 21.11993,6.38873 79.11957,7.20147 56.28503,0.78872 63.03315,1.3155 76,5.93288 3.025,1.07717 5.60891,1.99138 5.74203,2.03156 0.13312,0.0402 2.35791,-3.10892 4.94399,-6.99802 z m 129.59503,-6.95009 c 9.13751,-10.09727 14.76787,-23.11097 14.68363,-33.93892 l -0.0353,-4.5399 -13.53956,13.8337 c -9.79661,10.00945 -13.36487,14.28892 -12.90766,15.48037 0.34754,0.90567 1.12348,5.12285 1.72432,9.3715 1.29614,9.1653 1.59899,9.15908 10.07458,-0.20675 z m -111.43918,-20.7404 9.19326,-13.86072 -1.72692,-3.43885 c -1.91383,-3.81103 -3.11581,-15.93885 -1.57969,-15.93885 0.52883,0 1.81769,0.94607 2.86413,2.10238 2.15984,2.3866 7.12296,5.17479 8.38108,4.70836 0.46098,-0.17091 5.8303,-7.19808 11.93182,-15.61595 6.10152,-8.41786 14.53844,-19.63223 18.74872,-24.92081 l 7.65506,-9.61559 -2.90466,-2.34482 c -6.89411,-5.56534 -15.29168,-5.48416 -20.27896,0.19603 -3.46907,3.95106 -4.34362,7.51553 -3.92329,15.9904 0.276,5.56498 0.13457,6.02315 -1.95081,6.31934 -2.86744,0.40726 -4.25161,-2.94492 -4.25161,-10.29654 v -5.347 l -4.002,-0.67614 c -7.97963,-1.34815 -15.998,5.13431 -15.998,12.93359 0,4.96652 2.57224,9.38788 5.66791,9.74241 5.86496,0.67168 3.74723,3.7169 -21.54184,30.97647 l -24.37393,26.27313 7.87393,1.73811 c 4.33066,0.95596 10.57393,2.58879 13.87393,3.62851 3.3,1.03972 6.25844,1.7592 6.5743,1.59883 0.31587,-0.16036 4.71127,-6.52889 9.76757,-14.15229 z m -39.03173,-1.48842 c 3.74243,-3.9875 8.8928,-9.52172 11.44527,-12.29826 l 4.64086,-5.04825 -0.59426,-9.17242 -0.59425,-9.17241 -3.2914,-1.08626 c -4.15951,-1.37277 -8.41636,-4.6831 -8.41636,-6.54498 0,-1.02814 1.27715,-1.42742 4.56574,-1.42742 7.12204,0 8.08884,-0.9455 8.91763,-8.72118 1.0767,-10.10162 3.50319,-12.99149 6.87104,-8.18322 1.11331,1.58948 2.03269,1.91694 3.8067,1.35587 8.67026,-2.74219 12.11776,-10.84685 8.16091,-19.1853 -2.08917,-4.40259 -8.50183,-7.53823 -14.47817,-7.07947 -4.85414,0.37261 -7.17993,-1.87189 -4.84945,-4.67995 1.08237,-1.30417 2.75426,-1.59065 7.78426,-1.33382 l 6.40583,0.32707 -0.56614,-3.47655 c -0.73177,-4.49368 -3.39742,-8.07124 -7.68943,-10.31998 -8.27451,-4.33531 -20.9125,2.55406 -20.92518,11.40698 -0.004,2.63831 3.64646,8.88925 7.11163,12.17851 2.27191,2.15657 2.40037,4.03812 0.38964,5.70689 -2.03557,1.68937 -5.32765,-0.52946 -9.58844,-6.4625 -3.63734,-5.06489 -3.83926,-5.14181 -7.93659,-3.023 -3.72067,1.92403 -4.97998,4.31966 -4.97998,9.47357 0,4.88507 1.96417,9.05614 5.61799,11.93023 2.41028,1.89593 2.76772,1.94061 3.83608,0.47956 1.56684,-2.1428 4.97076,-1.39611 5.33991,1.17137 0.16169,1.12456 -3.32581,16.82026 -7.75,34.87935 -4.42419,18.05908 -8.04398,33.1889 -8.04398,33.62181 0,0.43291 0.7875,0.99291 1.75,1.24443 4.96628,1.29783 6.32542,0.61507 13.06014,-6.56067 z m -66.57554,4.59504 19.55622,-0.65496 -2.80111,-4.59504 c -1.54062,-2.52727 -3.37037,-6.52621 -4.06613,-8.88652 -0.96179,-3.26282 -1.64356,-4.14102 -2.8443,-3.66378 -10.3658,4.11995 -35.37872,4.37732 -48.90791,0.50322 -9.6503,-2.76337 -18.31854,-7.22065 -23.71385,-12.19388 l -4.37466,-4.03242 -0.79143,2.83917 c -1.23237,4.42099 -0.84019,23.97303 0.51358,25.60422 3.68182,4.43632 29.21415,6.35987 67.42959,5.07999 z m 45.69236,-3.09504 c 1.84512,-6.89126 14.07342,-56.72368 14.04614,-57.24042 -0.0148,-0.28027 -1.71036,-1.54655 -3.76792,-2.81396 -13.63527,-8.39899 -12.8344,-29.82615 1.29482,-34.64306 3.43053,-1.16952 4.08237,-1.86315 4.57859,-4.87204 0.31822,-1.9296 1.38499,-4.73909 2.37059,-6.2433 l 1.792,-2.73494 -7.87059,0.68762 c -6.89803,0.60266 -25.51757,3.42374 -26.03906,3.94524 -0.1049,0.1049 0.64135,9.13005 1.65833,20.0559 1.01698,10.92585 1.61215,20.48253 1.32261,21.23707 -0.28955,0.75454 -1.61455,1.37189 -2.94446,1.37189 -1.83453,0 -2.55401,-0.66359 -2.98162,-2.75 -0.77534,-3.78307 -13.77592,-13.00153 -15.87682,-11.25794 -4.59228,3.81125 -5.60386,15.7259 -1.77102,20.85958 5.52604,7.40153 18.62386,10.62783 19.45578,4.79242 0.21875,-1.53436 1.01177,-2.14406 2.78871,-2.14406 2.96913,0 3.4634,2.07522 4.55998,19.14551 0.69874,10.87713 0.66192,11.17444 -1.52907,12.34702 -1.40007,0.7493 -5.30662,1.07091 -10.3795,0.85449 l -8.13445,-0.34702 0.21728,3.72571 c 0.27145,4.65443 3.29345,10.67352 7.94239,15.81935 3.54449,3.92332 3.63178,3.95494 10.91815,3.95494 h 7.34509 z m -195.47486,-3.30358 c 1.95134,-3.32946 3.5479,-6.17873 3.5479,-6.33169 0,-0.15296 -10.58565,-10.36635 -23.52366,-22.69642 -24.013308,-22.88495 -26.375068,-25.93605 -20.699588,-26.74137 2.28289,-0.32392 4.1544,1.36902 38.770138,35.07096 l 9.0469,8.80808 5.2031,-7.45218 c 2.86171,-4.09869 5.20311,-7.73987 5.20311,-8.09151 0,-0.88627 -51.263868,-59.93454 -52.499998,-60.47211 -1.83363,-0.79741 -30.02214,39.86335 -31.13194,44.90653 -0.22968,1.04372 9.90561,9.34037 30.89506,25.29037 17.180288,13.0554 31.327818,23.7429 31.438978,23.75 0.11115,0.007 1.79865,-2.71119 3.75,-6.04066 z m 74.5479,-10.30685 c 0,-5.14823 0.27258,-11.34915 0.60574,-13.77981 l 0.60575,-4.41938 -7.22196,-1.87313 -7.22195,-1.87313 -4.8405,5.40294 c -2.66227,2.97162 -4.85997,6.09203 -4.88379,6.93424 -0.0862,3.04886 18.5057,18.9687 22.15249,18.9687 0.44232,0 0.80422,-4.21219 0.80422,-9.36043 z m 78.66109,-6.03885 c 7.7056,-2.0496 7.92097,-2.50635 2.46397,-5.22569 -2.71947,-1.35517 -6.89762,-4.16357 -9.28478,-6.2409 -4.30598,-3.74711 -4.39723,-3.77354 -11.54741,-3.34512 -15.46793,0.92681 -31.94633,-7.71512 -41.54719,-21.78901 -1.68838,-2.475 -3.2109,-4.67653 -3.38336,-4.8923 -0.66213,-0.82834 -22.36232,18.50713 -22.36232,19.92545 0,0.40867 4.12494,1.76227 9.16654,3.008 6.9816,1.72509 10.02069,3.02845 12.75,5.46803 8.25928,7.3825 20.43667,12.58776 33.74398,14.42395 8.4098,1.16041 23.0778,0.50897 30.00057,-1.33241 z m 28.90301,-6.932 c 0.0375,-0.0928 -0.18656,-3.09372 -0.49795,-6.66872 l -0.56615,-6.5 -6.61451,-0.65426 c -3.63798,-0.35984 -7.91298,-1.33394 -9.5,-2.16468 -3.36755,-1.76276 -8.58644,-7.10186 -10.44058,-10.68106 -3.52167,-6.79817 -2.77512,-16.66724 1.7751,-23.4662 1.4848,-2.21859 2.71772,-4.65822 2.73981,-5.4214 0.0536,-1.85176 2.92246,-3.58508 4.65426,-2.81206 0.76225,0.34026 4.26842,2.73855 7.79147,5.32954 l 6.40555,4.7109 -0.61406,-6.42039 c -0.33773,-3.53121 -0.91916,-9.71626 -1.29206,-13.74453 -0.78868,-8.51962 0.87181,-8.21504 -16.20405,-2.97224 -9.77951,3.0026 -10.47345,3.39968 -13.75586,7.87121 -1.90124,2.59001 -4.69166,7.34522 -6.20093,10.56713 -2.35499,5.0273 -2.74414,7.13435 -2.74414,14.85804 0,7.69094 0.39316,9.839 2.70303,14.76825 5.32701,11.36779 18.96397,21.4999 31.79697,23.62478 4.4474,0.7364 10.22533,0.61371 10.5641,-0.22431 z m 71.83832,-22.44827 c -1.32133,-2.48508 -2.40242,-5.40379 -2.40242,-6.48602 0,-1.57205 -0.4524,-1.83323 -2.25,-1.29894 -1.2375,0.36781 -3.89753,0.92418 -5.91118,1.23638 -3.14955,0.48832 -3.73821,1.00507 -4.21248,3.69789 -1.16283,6.60238 -1.85466,20.58052 -1.15282,23.29259 0.73205,2.82886 0.76158,2.80859 9.53282,-6.54296 l 8.7985,-9.38061 z m -222.44861,1.74307 c 0.66709,-1.15422 -4.06802,-8.35588 -19.0329,-28.9473 -10.9565,-15.07595 -19.92091,-27.94193 -19.92091,-28.59107 0,-1.93207 2.74855,-3.66584 4.36614,-2.75414 0.80897,0.45594 9.63625,12.07899 19.61619,25.82899 9.97994,13.75 18.7974,25.66471 19.59436,26.47714 1.27332,1.29803 2.17283,0.75238 7.41831,-4.5 l 5.96928,-5.97714 -5.83275,-10 c -3.20802,-5.5 -12.71331,-21.85419 -21.12287,-36.34265 l -15.29012,-26.34266 -10.90718,10.84266 c -13.4477,13.36815 -26.311358,27.98096 -26.311358,29.88909 0,0.78479 11.699998,14.96773 25.999998,31.51766 l 26,30.09078 4.28291,-4.82744 c 2.35559,-2.65509 4.6825,-5.51885 5.1709,-6.36392 z m 103.75409,6.23817 c 0.89977,-0.57185 0.59832,-2.04141 -1.18175,-5.76087 -5.45111,-11.39012 -5.42969,-24.1961 0.0608,-36.3431 1.34301,-2.97125 2.25953,-5.58458 2.03671,-5.8074 -1.25989,-1.25988 -40.62366,21.64798 -40.62366,23.64105 0,1.88687 6.63794,10.41486 10.82309,13.90479 9.27945,7.738 24.45203,13.1828 28.88481,10.36553 z m -20.7079,-17.89567 c -6.50278,-2.32403 -4.46551,-12.55602 2.5,-12.55602 6.17888,0 8.72273,7.35644 3.86514,11.17742 -2.6826,2.11014 -3.70105,2.33072 -6.36514,1.3786 z m 281.01864,-10.82036 5.86673,-4.51435 -1.28968,-3.73565 c -1.19995,-3.47576 -1.6229,-3.7747 -6.07933,-4.29679 -6.64412,-0.77839 -10.51636,-5.04469 -10.51636,-11.58657 0,-3.99939 0.47807,-5.06703 3.57818,-7.9908 l 3.57818,-3.37466 -1.66611,-5.01619 -1.66611,-5.01619 -5.66207,4.92185 c -10.23212,8.89443 -9.77389,7.92137 -11.71954,24.88641 -0.96273,8.3945 -1.45395,15.5592 -1.09159,15.92156 0.80324,0.80323 15.24062,4.10781 18.47502,4.22875 1.32394,0.0495 4.85332,-1.85779 8.19268,-4.42737 z m -334.69407,-5.9002 4.82458,-4.32492 -14.2052,-32.71393 C 160.7592,96.375321 159.86953,93.940441 161.40205,92.407921 c 1.21835,-1.21835 2.07404,-1.38153 3.27434,-0.62439 0.89373,0.56375 7.17863,13.831119 13.96645,29.483049 6.78782,15.65193 12.91064,29.70325 13.60628,31.22517 l 1.26479,2.76712 7,-5.1029 c 3.85,-2.8066 7.15936,-5.26116 7.35413,-5.45458 0.19477,-0.19343 -5.80694,-18.83501 -13.33713,-41.42575 l -13.69125,-41.074059 -11.16288,7.65646 c -13.2107,9.06104 -34.88603,26.25465 -34.46121,27.33581 1.65832,4.220409 41.35835,71.019479 42.18839,70.985969 0.61047,-0.0247 3.28101,-1.99103 5.93452,-4.36973 z m 211.3167,-3.06986 c 6.92933,0.0152 7.20687,-0.0801 9.35142,-3.20988 4.75736,-6.94291 16.60491,-9.38534 25.42193,-5.24085 2.41605,1.13568 5.16099,2.91369 6.09988,3.95115 1.65097,1.8243 1.8664,1.69954 6.55691,-3.79715 3.27822,-3.84166 4.45754,-5.90085 3.63922,-6.35438 -1.88811,-1.04642 -21.23765,-6.4562 -31.21063,-8.72593 -9.9458,-2.26354 -35.21725,-6.12465 -40.1422,-6.13314 l -3.1422,-0.005 1.83188,3.59313 c 1.00753,1.97621 2.14451,6.09537 2.52662,9.15367 0.41214,3.29862 1.68752,7.02347 3.13531,9.15688 1.3423,1.97797 2.69466,4.86683 3.00524,6.41967 0.50426,2.52123 0.84402,2.73525 3.17502,2 1.43568,-0.45284 5.8239,-0.81633 9.7516,-0.80775 z m -173.52208,-24.088 c 3.23445,-1.96483 5.88081,-4.13425 5.88081,-4.82095 0,-0.6867 -3.62829,-16.43642 -8.06287,-34.999379 -6.36265,-26.63383 -7.81292,-34.05201 -6.87755,-35.17906 1.60744,-1.93685 3.67711,-1.79763 4.78406,0.32179 0.5027,0.9625 4.39763,16.375 8.65541,34.25 4.25777,17.874999 7.8451,32.620299 7.97185,32.767339 0.20664,0.23972 13.47191,-5.65005 14.41657,-6.40095 0.21311,-0.16939 -2.25827,-20.14259 -5.49194,-44.384879 l -5.87941,-44.07688 -2.37069,0.59501 c -7.40198,1.85777 -47.14543,22.67554 -47.14543,24.69495 0,0.7871 22.64008,68.778809 26.4906,79.555409 0.63835,1.78658 1.09164,1.64858 7.62859,-2.3224 z m 41.74098,-20.09691 7.36018,-2.67895 -0.86018,-29.575869 c -1.26748,-43.58062 -1.21653,-46.13055 0.9484,-47.46286 3.85386,-2.3717 4.2636,0.49689 5.41319,37.89786 0.6025,19.60182 1.30409,35.848309 1.55909,36.103309 0.41223,0.41224 14.60266,-3.15566 15.27243,-3.83994 0.22733,-0.23226 6.44672,-88.555369 6.44672,-91.551519 0,-1.18358 0.5667,-1.28328 -15.99686,2.81426 -10.85359,2.685 -38.74411,11.46502 -39.91398,12.56505 -0.58434,0.54946 11.20735,88.396959 11.86623,88.402789 0.29954,0.003 3.85669,-1.20071 7.90478,-2.67413 z M 462.1391,73.724631 c 29.84469,-49.38991 27.62221,-45.42005 25.99196,-46.4276 -4.54929,-2.81162 -52.98159,-14.6561 -54.26076,-13.26987 -0.48626,0.52695 -27.79093,63.80452 -37.48913,86.879669 l -1.33744,3.18219 5.73509,1.15143 c 3.1543,0.63328 6.63509,1.35396 7.73509,1.60151 1.73609,0.39071 4.56037,-4.50261 21.40357,-37.083609 16.76433,-32.42845 19.70817,-37.53372 21.64301,-37.53372 1.23169,0 2.51978,0.73054 2.86241,1.62343 0.39108,1.01913 -5.48022,13.396 -15.77301,33.25 -9.01778,17.39461 -17.5652,33.954829 -18.99426,36.800469 l -2.59829,5.17391 8.72828,3.00866 c 4.80056,1.65476 9.36959,2.9265 10.15341,2.82609 0.78382,-0.10041 12.57385,-18.632559 26.20007,-41.182559 z M 309.78446,103.81814 c 3.9988,-0.7157 7.51144,-1.54217 7.80587,-1.8366 0.29443,-0.29443 3.02116,-16.897679 6.0594,-36.896119 3.06911,-20.20165 6.07625,-36.93263 6.76658,-37.64753 1.35575,-1.40401 4.19143,-0.75487 4.86662,1.11406 0.23301,0.64497 -1.97164,16.69768 -4.89923,35.67268 -2.92758,18.975 -5.33344,35.12757 -5.34634,35.894599 -0.0188,1.11704 1.3059,1.27047 6.65565,0.77091 3.6735,-0.34304 6.98577,-0.970609 7.36059,-1.394609 0.9775,-1.10574 24.1054,-91.45914 23.55247,-92.01207 -1.38601,-1.38602 -52.72378,3.96842 -55.70309,5.80973 -0.88018,0.54398 -2.13553,13.99959 -4.32418,46.34897 -2.70113,39.92434 -2.89657,45.575939 -1.57442,45.529859 0.83024,-0.0289 4.78128,-0.63818 8.78008,-1.35388 z M 407.9765,57.344771 c 10.51106,-24.40892 18.85553,-44.63536 18.54325,-44.94764 -1.69525,-1.69524 -54.73916,-6.27251 -56.16508,-4.8466 -0.45468,0.45469 -24.16509,90.56225 -24.31996,92.4241 -0.0114,0.137499 4.22227,0.249999 9.40824,0.249999 h 9.42904 l 1.55899,-5.249999 c 9.41695,-31.7122 21.53367,-68.31635 22.89924,-69.17772 1.22135,-0.77041 2.05736,-0.62718 3.23957,0.55503 1.45788,1.45788 0.65144,4.60875 -9.48123,37.04436 -6.09106,19.49802 -11.07465,35.9322 -11.07465,36.52039 0,1.118659 14.99912,3.299709 16.17578,2.352139 0.37167,-0.29931 9.27574,-20.515139 19.78681,-44.924059 z M 915.72457,649.3756 c -3.7341,-1.32828 -6.6591,-2.74327 -6.5,-3.14443 0.1591,-0.40116 11.9893,-29.13313 26.2893,-63.84882 l 26,-63.11944 7.6491,-0.0191 7.6491,-0.0191 23.70733,59.25 c 13.039,32.5875 24.5329,61.33701 25.542,63.8878 l 1.8348,4.63781 -7.0093,2.49832 -7.0092,2.49832 -0.8017,-2.13612 c -0.4409,-1.17487 -3.3838,-9.11113 -6.5397,-17.63613 -3.156,-8.525 -6.62193,-17.8625 -7.70213,-20.75 l -1.964,-5.25 h -27.893 c -25.5425,0 -27.9716,0.14747 -28.8262,1.75 -0.5133,0.9625 -4.3617,10.69102 -8.552,21.61894 -4.1904,10.92792 -7.9488,20.39278 -8.352,21.03302 -0.5342,0.84827 -2.5749,0.5089 -7.5224,-1.25099 z m 77.1226,-54.02272 c -0.1833,-0.47947 -5.5083,-14.8514 -11.8333,-31.93764 -6.325,-17.08623 -11.7786,-30.75644 -12.1191,-30.37825 -0.7235,0.8036 -23.8809,61.36462 -23.8809,62.45311 0,0.40399 10.8375,0.73453 24.0833,0.73453 13.2818,0 23.9339,-0.39099 23.75,-0.87175 z m 685.95733,34.01201 -8.4708,-22.64026 h -28.2724 -28.2725 l -8.3923,21.92148 c -4.6158,12.05681 -8.6254,22.15458 -8.9103,22.43948 -0.2849,0.28491 -3.6,-0.4746 -7.3668,-1.68778 l -6.8487,-2.20579 26.2944,-63.73369 26.2945,-63.7337 h 7.6692 7.6691 l 25.4066,63.45138 c 13.9736,34.89825 25.0697,63.75177 24.6579,64.11892 -0.4117,0.36716 -3.5022,1.57716 -6.8678,2.68889 l -6.1192,2.02133 z m -12.7907,-33.75684 c 0,-1.02543 -23.3059,-63.41084 -23.5848,-63.13195 -0.1424,0.1424 -5.4332,13.75657 -11.7574,30.25372 -6.3241,16.49714 -11.8074,30.78231 -12.1851,31.74481 -0.6424,1.63726 0.8663,1.75 23.4203,1.75 13.2589,0 24.107,-0.27746 24.107,-0.61658 z m -538,32.94945 c -25.7249,-35.19353 -25.819,-35.27308 -41.75,-35.31091 l -9.25,-0.022 v 27.5 27.5 h -7 -7 v -64.58827 -64.58828 l 25.25,0.38831 c 29.0302,0.44645 32.5922,1.24449 41.5658,9.31256 7.599,6.8321 9.6919,12.46559 9.6504,25.97568 -0.029,9.48315 -0.3586,11.66365 -2.3895,15.81266 -4.0758,8.32635 -10.4536,13.24263 -20.4423,15.75782 -2.7126,0.68302 -4.6344,1.73976 -4.6344,2.54823 0,0.75971 0.4601,1.38129 1.0223,1.38129 2.5773,0 11.5941,10.23683 26.6787,30.28836 9.0152,11.9836 16.6018,22.33718 16.8592,23.00794 0.4331,1.1287 -9.2872,7.76414 -11.2165,7.65672 -0.464,-0.0258 -8.2687,-10.2049 -17.3437,-22.62015 z m -20.4601,-47.87682 c 12.0405,-3.11907 18.2697,-10.21547 19.206,-21.87976 0.6857,-8.54247 -1.1217,-15.48702 -5.3016,-20.37038 -5.4629,-6.38216 -9.4539,-7.51381 -28.1943,-7.99457 l -16.25,-0.41688 v 26.10277 26.10277 h 12.2899 c 7.8396,0 14.4481,-0.55907 18.25,-1.54395 z m 304.4601,69.90657 c -7.7214,-1.12738 -14.2218,-2.92117 -19.9402,-5.50251 -3.5421,-1.59893 -6.6026,-3.06961 -6.8012,-3.26816 -0.1985,-0.19856 0.919,-2.37933 2.4834,-4.84615 l 2.8444,-4.48513 5.5022,2.78227 c 8.9466,4.52389 16.3188,6.2581 24.3992,5.73954 17.4223,-1.1181 28.1311,-14.50225 24.5187,-30.64411 -2.0307,-9.07397 -7.0406,-13.44103 -26.3051,-22.92966 -18.4542,-9.08948 -23.416,-12.89087 -27.3905,-20.98446 -2.5124,-5.11648 -2.8108,-6.786 -2.8101,-15.72425 7e-4,-8.9343 0.2887,-10.546 2.7026,-15.12335 6.0035,-11.3837 16.8727,-17.38655 32.8492,-18.14182 10.8906,-0.51484 18.5724,1.0261 28.7354,5.76417 l 6.2881,2.93153 -2.161,4.28473 c -1.1885,2.35661 -2.2594,4.40102 -2.3798,4.54314 -0.1203,0.14212 -3.148,-1.26842 -6.7282,-3.13454 -21.4768,-11.1945 -44.1687,-3.25302 -46.4806,16.26683 -0.808,6.82262 1.5592,12.82743 7.0531,17.89156 2.4311,2.24094 11.2544,7.50107 20.4603,12.19772 17.5094,8.93289 24.1299,14.08481 28.297,22.02003 2.0266,3.85922 2.3631,5.92397 2.3631,14.5 0,8.9028 -0.304,10.61899 -2.7705,15.64151 -7.1473,14.55405 -25.7974,22.98533 -44.7295,20.22111 z m -221.3376,-2.0496 c -4.1935,-1.28187 -4.7625,-1.7673 -4.2735,-3.64589 0.3103,-1.19192 8.3986,-29.84213 17.9741,-63.66713 l 17.41,-61.5 7.8869,-0.28678 7.8868,-0.28678 16.3204,55.28678 c 8.9762,30.40773 16.6157,55.59797 16.9766,55.97831 0.361,0.38033 8.0813,-24.4936 17.1563,-55.27542 l 16.5,-55.96694 7.9802,0.27542 7.9802,0.27541 17.8297,63.40394 c 13.9493,49.60459 17.5447,63.5827 16.5198,64.22529 -1.6411,1.02904 -11.7112,3.33678 -12.1364,2.78128 -0.1728,-0.22578 -6.7544,-24.71051 -14.6258,-54.41051 -7.8714,-29.7 -14.6598,-54.65572 -15.0854,-55.45715 -0.5482,-1.03246 -1.096,-0.30383 -1.8798,2.5 -0.6083,2.17643 -7.9986,26.68215 -16.4228,54.45715 l -15.3167,50.5 h -8.2946 -8.2945 l -16.1269,-54.19235 c -8.8699,-29.8058 -16.4089,-53.8808 -16.7534,-53.5 -0.3446,0.38079 -7.2932,25.32985 -15.4413,55.44235 -16.5841,61.28877 -14.2086,55.98571 -23.7699,53.06302 z M 779.01387,583.71929 v -64.69718 l 28.75,0.45732 c 25.9292,0.41245 29.4859,0.67425 36.25,2.6683 23.0648,6.79945 37.4661,21.26395 42.6557,42.84306 2.1137,8.78868 2.1037,26.52759 -0.02,35.46768 -3.9951,16.81886 -15.7741,31.85519 -30.6358,39.10767 -14.1918,6.92559 -20.1385,7.92123 -50.25,8.41324 l -26.75,0.43708 z m 51.7922,51.93923 c 29.0933,-5.91132 45.4435,-26.7499 43.8861,-55.93389 -0.6677,-12.51262 -3.3719,-20.66491 -9.5591,-28.81767 -11.3883,-15.00612 -28.9994,-21.15904 -58.6192,-20.48025 l -13,0.29792 -0.2588,53.25 -0.2587,53.25 h 15.0509 c 9.7132,0 17.7844,-0.55541 22.7588,-1.56611 z m 692.20773,-45.93389 v -58.5 h -19 -19 v -6 -6 h 45 45 v 6 6 h -19 -19 v 58.5 58.5 h -7 -7 z m 208,-6.00534 v -64.69718 l 28.75,0.45732 c 25.9292,0.41245 29.4859,0.67425 36.25,2.6683 26.4508,7.79764 41.2173,25.3502 43.9754,52.27253 3.6361,35.49308 -14.0645,61.951 -47.4754,70.96395 -6.994,1.88672 -11.3637,2.21305 -34.75,2.59517 l -26.75,0.43708 z m 51.7922,51.93923 c 29.1483,-5.92249 45.8919,-27.61429 43.9223,-56.90291 -1.7871,-26.57675 -18.2963,-43.44089 -46.5232,-47.52356 -3.6802,-0.53229 -13.1038,-0.97672 -20.9413,-0.98761 l -14.25,-0.0198 v 53.5 53.5 h 15.0422 c 9.7052,0 17.7768,-0.55565 22.75,-1.56611 z m 114.2078,-45.9123 v -58.4784 l -19.25,-0.2716 -19.25,-0.27159 -0.2999,-5.75 -0.2999,-5.75 h 45.5499 45.5499 v 6 6 h -19 -19 v 58.5 58.5 h -7 -7 z M 972.20097,380.0102 l -38.185,-57.28557 v 55.75 55.75 h -7.0073 -7.0074 l 0.2574,-64.18335 0.2573,-64.18337 7.289,-1.9776 c 4.3222,-1.17265 7.6231,-1.60681 8.1097,-1.06664 0.4513,0.50103 17.6462,26.1107 38.2109,56.91038 l 37.39033,55.9994 0.2585,-55.2494 0.2584,-55.24942 h 6.4916 6.4915 v 63.86823 63.86822 l -6.1973,1.73888 c -3.4086,0.95638 -6.6998,1.93169 -7.3139,2.16735 -0.6141,0.23566 -18.29983,-25.35004 -39.30163,-56.85711 z m 453.31283,34.98688 c -8.8,-12.16551 -18.7,-24.89167 -22,-28.28036 -6.855,-7.03925 -10.6946,-8.49209 -22.4428,-8.49209 h -7.0572 v 28 28 h -7 -7 v -64.57468 -64.5747 l 25.75,0.32469 25.75,0.32469 6.1174,2.82707 c 7.329,3.38695 13.4535,9.35935 16.5848,16.17293 1.9436,4.22922 2.2927,6.61865 2.2645,15.5 -0.062,19.66441 -6.0436,27.10115 -26.2167,32.59672 -2.3877,0.65045 -1.2127,2.9158 2.659,5.12635 2.8367,1.61959 8.9473,8.89933 22.5101,26.81677 10.239,13.52653 18.3739,24.98606 18.0775,25.46562 -0.5319,0.86073 -10.8853,7.04539 -11.6183,6.94032 -0.2081,-0.0298 -7.5783,-10.00782 -16.3783,-22.17333 z m -17.4592,-49.62381 c 10.1107,-3.89732 15.9592,-12.64289 15.9592,-23.86475 0,-10.38927 -4.3187,-18.27833 -12.3467,-22.55389 -3.7144,-1.97822 -5.9232,-2.24823 -20.9033,-2.55526 l -16.75,-0.34332 v 26.21024 26.21025 l 14.25,-0.48375 c 11.3292,-0.3846 15.3857,-0.92152 19.7908,-2.61952 z m 91.4592,71.29225 c -1.1,-0.25332 -4.475,-0.95851 -7.5,-1.5671 -6.5474,-1.31724 -18,-6.29974 -18,-7.83095 0,-0.59542 1.117,-2.85208 2.4823,-5.01479 l 2.4823,-3.93221 4.2677,2.45967 c 14.3531,8.27231 32.3054,8.43306 42.0467,0.37649 7.0559,-5.83561 10.2692,-16.51791 7.7608,-25.80002 -2.1753,-8.04917 -8.0742,-12.93228 -26.5795,-22.00241 -24.7983,-12.15455 -29.7529,-18.14376 -29.8886,-36.12957 -0.064,-8.45434 0.2354,-10.12537 2.7184,-15.1816 5.4955,-11.19079 16.9034,-17.79337 32.1182,-18.58921 10.2286,-0.53502 16.5633,0.51964 26.4561,4.40463 9.3838,3.68512 9.7749,4.19272 7.1677,9.30317 -1.1767,2.30663 -2.4528,4.05193 -2.8358,3.87844 -0.383,-0.17349 -3.6213,-1.76624 -7.1963,-3.53946 -11.0902,-5.50079 -24.3676,-6.23995 -32.8933,-1.83117 -4.1544,2.14837 -9.1491,7.42698 -10.905,11.52498 -2.0172,4.70777 -1.9848,14.69515 0.06,18.60537 2.9047,5.55357 9.3638,10.17399 25.9168,18.53909 25.9006,13.089 31.5551,20.24471 30.6173,38.74617 -0.792,15.62526 -8.6938,26.11562 -23.5113,31.21358 -5.5376,1.90522 -20.5601,3.33983 -24.7849,2.3669 z m 233.1693,-1.63008 c -5.0819,-1.77042 -5.7582,-2.30611 -5.2657,-4.17106 0.3108,-1.17686 11.9951,-29.81475 25.9651,-63.63974 l 25.4,-61.50001 7.8657,-0.2683 7.8656,-0.26829 25.25,63.27182 c 13.8875,34.79948 25.25,63.57103 25.25,63.93675 0,0.36573 -2.9775,1.6558 -6.6166,2.86683 -4.7565,1.58285 -6.8147,1.88134 -7.3213,1.06175 -0.3875,-0.62706 -4.2725,-10.80994 -8.6333,-22.62862 l -7.9288,-21.48851 -28.3796,0.25829 -28.3797,0.25828 -8.5246,22.25 c -4.6885,12.2375 -9.0177,22.21447 -9.6203,22.17105 -0.6027,-0.0434 -3.7196,-0.99303 -6.9265,-2.11024 z m 77.3307,-53.74934 c 0,-1.08341 -21.664,-59.63869 -22.8468,-61.75221 -0.6467,-1.15558 -10.5327,23.22626 -24.7094,60.94074 -0.6151,1.63646 0.9062,1.75 23.4492,1.75 14.352,0 24.107,-0.37978 24.107,-0.93853 z m -997.59813,53.51495 c -12.554,-2.8592 -23.2752,-10.5305 -27.8849,-19.95236 -5.0496,-10.32108 -5.4807,-15.36718 -5.4995,-64.37406 l -0.017,-45.25 h 7 7 l 0.017,39.75 c 0.01,21.86251 0.4644,43.99523 1.0109,49.18384 1.6686,15.84414 7.4336,24.77319 18.851,29.19699 8.1698,3.1655 24.178,3.11032 32.6208,-0.11244 7.5554,-2.88401 13.4769,-8.81888 16.6366,-16.67417 2.3361,-5.8077 2.3527,-6.14263 2.6606,-53.59422 l 0.3097,-47.75 h 6.9906 6.9906 l -0.294,49.25 c -0.2847,47.67177 -0.3634,49.43308 -2.4554,54.96304 -4.5233,11.95649 -13.0247,19.96759 -25.4262,23.9598 -8.3354,2.6833 -29.5042,3.45482 -38.5107,1.40358 z m 258.59813,-65.07641 v -64.50001 h 7 7 v 64.50001 64.49999 h -7 -7 z m 91.3104,62.79409 c -0.3633,-0.98675 -11.3987,-29.42972 -24.523,-63.20658 -13.1243,-33.77687 -23.508,-61.70548 -23.0749,-62.06357 1.0939,-0.90438 12.3806,-4.26421 12.8266,-3.81822 0.1998,0.19983 9.6515,25.54779 21.0037,56.32881 11.3523,30.781 21.019,56.64046 21.4816,57.46546 0.7476,1.33333 0.9012,1.33333 1.3818,0 7.2181,-20.02293 41.7716,-113.5111 42.061,-113.80048 0.2228,-0.2228 3.3327,0.56918 6.911,1.75996 l 6.506,2.16506 -2.031,5.30734 c -1.117,2.91904 -12.2471,31.35352 -24.7334,63.18773 l -22.7024,57.88039 -7.2232,0.2941 c -6.1954,0.25226 -7.3171,0.0389 -7.8838,-1.5 z m 92.6896,-62.79409 v -64.50001 h 35 35 v 5.48418 5.48418 l -27.75,0.26582 -27.75,0.26582 -0.2691,22.25 -0.2692,22.25001 h 25.5192 25.5191 v 6 6 h -25.5 -25.5 v 24.49999 24.5 h 28 28 v 6 6 h -35 -35 z m 333,0 v -64.50001 h 7 7 v 64.50001 64.49999 h -7 -7 z m 80.758,5.75 -0.258,-58.75001 -19.25,-0.27159 -19.25,-0.2716 v -5.4784 -5.47841 h 45.5 45.5 v 5.5 5.5 h -19 -19 v 59.00001 58.99999 h -6.992 -6.992 z m 228.242,-0.25 v -59.00001 h -19 -19 v -5.5 -5.5 h 45 45 v 5.5 5.5 h -19 -19 v 59.00001 58.99999 h -7 -7 z m -147,-70.54773 v -8.54771 l 6.25,0.29771 6.25,0.29772 0.2904,8.25 0.2905,8.25 h -6.5405 -6.5404 z m 61,0.0477 v -8.49998 h 6.5 6.5 v 8.5 8.5 h -6.5 -6.5 z m -492,-138.58451 -37.5,-56.0208 -0.5,54.80266 -0.5,54.80265 -6.75,0.29569 -6.75,0.29569 v -64.54567 c 0,-35.50013 0.3389,-64.545689 0.7532,-64.545689 0.4142,0 3.7317,-0.85177 7.372,-1.89282 l 6.6189,-1.89283 37.8537,56.424769 c 28.5265,42.52177 38.0271,55.9857 38.5576,54.64282 0.3872,-0.98007 0.7357,-25.74444 0.7743,-55.03194 l 0.07,-53.249999 h 6.5073 6.5074 l -0.2574,64.244809 -0.2573,64.24481 -6,1.67517 c -3.3,0.92134 -6.675,1.69684 -7.5,1.72334 -0.8936,0.0287 -16.6605,-22.59999 -39,-55.97264 z m 187.3397,54.94511 c -7.5447,-0.67463 -15.1804,-2.81454 -21.8397,-6.12061 -2.2,-1.0922 -4.1672,-2.13519 -4.3715,-2.31774 -0.2043,-0.18255 0.8258,-2.37484 2.289,-4.87177 l 2.6606,-4.53986 5.9863,3.02187 c 17.1056,8.6349 34.2858,7.38598 43.3024,-3.14789 3.9598,-4.62614 5.6409,-9.71959 5.6112,-17.00062 -0.028,-6.96085 -2.6256,-12.57053 -7.9171,-17.09984 -2.3159,-1.98234 -11.5325,-7.21381 -20.4814,-11.6255 -13.7151,-6.76141 -16.9906,-8.82203 -20.8546,-13.11971 -5.7676,-6.41496 -8.1178,-13.08387 -8.1638,-23.1656 -0.031,-6.77411 0.355,-8.3908 3.4521,-14.46236 6.3355,-12.420419 17.7882,-18.410949 35.1978,-18.410949 10.2964,0 18.6107,1.87162 26.8979,6.05495 l 5.7687,2.91207 -2.4653,4.411049 -2.4654,4.41104 -6.7235,-3.40752 c -10.5169,-5.330119 -19.8866,-6.561689 -29.1015,-3.825149 -10.117,3.004429 -17.0575,12.025379 -17.0999,22.225679 -0.048,11.62424 4.3114,16.10322 27.039,27.77833 25.2904,12.9916 31.3731,19.95243 31.4059,35.93955 0.052,25.1589 -18.3047,39.02724 -48.1272,36.3606 z m -475.1507,-1.38973 c -13.1371,-2.85211 -27.1551,-11.28898 -35.74613,-21.51422 -5.1901,-6.17732 -11.0502,-18.97644 -12.8951,-28.16449 -7.4103,-36.9051 13.036,-70.862089 48.06173,-79.820159 9.5304,-2.43748 26.8888,-2.64172 36.3905,-0.42817 7.161,1.66825 19.8158,6.34909 20.6013,7.62016 0.6064,0.98109 -4.5822,10.064249 -5.4716,9.578749 -23.9386,-13.066929 -50.9458,-10.851329 -68.9801,5.65895 -19.20943,17.58611 -23.02073,51.48259 -8.3404,74.17672 7.8991,12.21102 19.9814,20.16458 35.1813,23.15913 7.6671,1.51049 9.135,1.51782 17.542,0.0876 5.2001,-0.88464 12.6614,-3.06822 17.2228,-5.04032 l 8.048,-3.47949 2.0984,3.73348 c 1.154,2.05342 2.0983,4.17447 2.0983,4.71345 0,1.37024 -12.5765,6.84624 -21.2324,9.24492 -8.599,2.38289 -24.7645,2.60434 -34.5786,0.47368 z m 604.311,-0.44353 c -9.52,-2.53304 -13.8174,-4.45409 -21.8115,-9.75008 -12.4674,-8.25962 -21.6737,-22.36906 -25.2299,-38.66716 -2.4516,-11.23562 -1.6209,-28.35715 1.8654,-38.44502 6.8372,-19.78428 21.1595,-33.870919 41.5796,-40.895539 6.2343,-2.1446 9.9439,-2.69197 20.6881,-3.05256 14.5266,-0.48754 23.8925,1.19554 35.4061,6.36253 l 5.9169,2.65533 -2.4742,4.882579 c -1.3608,2.68542 -2.7044,4.88258 -2.9859,4.88258 -0.2814,0 -3.0863,-1.28267 -6.2331,-2.85038 -20.5809,-10.253159 -46.9986,-6.867819 -62.8849,8.05848 -7.2272,6.79048 -11.6222,13.66981 -14.9905,23.46407 -2.2851,6.64468 -2.692,9.49044 -2.692,18.82783 0,9.33739 0.4069,12.18315 2.692,18.82783 7.0227,20.42041 22.9482,33.92931 43.4053,36.8187 7.0258,0.99233 9.5386,0.91256 16.9162,-0.53702 4.7655,-0.93635 12.0362,-3.26022 16.157,-5.16415 4.1208,-1.90393 7.5648,-3.34551 7.6532,-3.20352 1.9715,3.16456 4.5222,8.06993 4.5222,8.69665 0,1.26164 -15.9817,7.8452 -23.1416,9.53304 -8.9304,2.10523 -25.5862,1.8899 -34.3584,-0.44419 z M 802.01387,161.22463 v -59 h -19 -19 v -5.999999 -6 h 45 45 v 6 5.999999 h -19 -19 v 59 59 h -7 -7 z m 82,-6 V 90.224631 h 35 35 v 6 5.999999 h -28 -28 v 22.5 22.5 h 25 25 v 5.5 5.5 h -25 -25 v 25 25 h 28 28 v 6 6 h -35 -35 z m 237.70753,64.37429 c -0.3892,-0.38919 -0.7076,-29.67734 -0.7076,-65.08477 V 90.137011 l 7.25,0.29381 7.25,0.29381 0.2658,27.749999 0.2658,27.75 h 34.9684 34.9684 l 0.2658,-27.75 0.2658,-27.749999 h 7 7 v 64.499999 64.5 h -7 -7 l -0.2645,-30.75 -0.2644,-30.75 h -34.9711 -34.9711 l -0.2644,30.75 -0.2645,30.75 -6.5424,0.29096 c -3.5983,0.16002 -6.8608,-0.0275 -7.25,-0.41667 z m 303.2924,-64.37429 V 90.224631 h 7 7 v 64.999999 65 h -7 -7 z m 306.4771,63.796 c -0.2725,-0.7128 -0.3788,-29.871 -0.2363,-64.796 l 0.2592,-63.499999 h 7 7 l 0.2658,27.749999 0.2658,27.75 h 34.9684 34.9684 l 0.2658,-27.75 0.2658,-27.749999 h 7 7 v 64.499999 64.5 h -7 -7 l -0.2645,-30.75 -0.2644,-30.75 h -34.9711 -34.9711 l -0.2644,30.75 -0.2645,30.75 -6.7637,0.296 c -4.8397,0.2118 -6.9047,-0.0727 -7.2592,-1 z m 145.5229,-63.796 V 90.224631 h 35 35 v 6 5.999999 h -28.0191 -28.0192 l 0.2692,22.25 0.2691,22.25 25.25,0.26717 25.25,0.26717 v 5.46566 5.46566 l -25.25,0.26717 -25.25,0.26717 -0.2675,24.75 -0.2674,24.75 h 28.0174 28.0175 v 6 6 h -35 -35 z"
       id="path1" />
  </g>
</svg>
