<?xml version="1.0" encoding="UTF-8" standalone="no"?>
<!-- Created with Inkscape (http://www.inkscape.org/) -->

<svg
   width="210mm"
   height="297mm"
   viewBox="0 0 210 297"
   version="1.1"
   id="svg1"
   xml:space="preserve"
   inkscape:export-filename="TU_Logo.svg"
   inkscape:export-xdpi="96"
   inkscape:export-ydpi="96"
   xmlns:inkscape="http://www.inkscape.org/namespaces/inkscape"
   xmlns:sodipodi="http://sodipodi.sourceforge.net/DTD/sodipodi-0.dtd"
   xmlns="http://www.w3.org/2000/svg"
   xmlns:svg="http://www.w3.org/2000/svg"><sodipodi:namedview
     id="namedview1"
     pagecolor="#ffffff"
     bordercolor="#000000"
     borderopacity="0.25"
     inkscape:showpageshadow="2"
     inkscape:pageopacity="0.0"
     inkscape:pagecheckerboard="0"
     inkscape:deskcolor="#d1d1d1"
     inkscape:document-units="mm" /><defs
     id="defs1" /><g
     inkscape:label="Layer 1"
     inkscape:groupmode="layer"
     id="layer1"><path
       style="fill:#000000"
       d="m 118.40854,157.2705 c 2.52657,-0.79089 4.34066,-2.38053 4.34066,-3.80361 0,-0.29908 -0.30999,-0.91219 -0.68886,-1.36245 -0.6567,-0.78044 -0.66877,-0.84935 -0.25849,-1.47551 0.53765,-0.82056 0.78684,-0.84296 0.58855,-0.0529 -0.1138,0.45344 0.10967,0.89849 0.89679,1.78594 l 1.04836,1.18199 0.81457,-0.92604 c 4.06659,-4.62309 3.81237,-12.0959 -0.57911,-17.02303 -2.58913,-2.90494 -5.92649,-4.40822 -9.78648,-4.40822 -2.46484,0 -4.73533,0.40418 -4.73533,0.84296 0,0.49951 1.99427,3.63682 2.38125,3.74609 0.21828,0.0616 0.0917,0.12588 -0.28123,0.14276 -0.43522,0.0197 -0.95048,-0.25361 -1.43856,-0.76306 -0.41826,-0.43656 -0.83629,-0.79375 -0.92896,-0.79375 -0.0927,0 -0.43211,0.92273 -0.7543,2.05052 -0.32219,1.12779 -1.23666,4.0022 -2.03217,6.38758 -1.10603,3.31652 -1.3762,4.4216 -1.14818,4.69635 0.16401,0.19762 0.43446,0.3593 0.601,0.3593 0.17367,0 0.31499,0.46421 0.33136,1.08839 0.0157,0.59861 0.1748,1.17879 0.35356,1.28927 0.24354,0.15051 0.25208,0.33718 0.0341,0.74452 -0.57787,1.07977 0.53851,2.08417 2.46042,2.2136 0.76067,0.0512 1.00087,0.19517 1.1204,0.67141 0.22203,0.88464 -0.0271,1.30606 -0.87436,1.47938 -0.41269,0.0844 -0.98461,0.32705 -1.27093,0.53919 -0.49791,0.36889 -0.47499,0.40475 0.52602,0.823 0.57563,0.24052 1.52427,0.54768 2.10808,0.68259 1.52558,0.35254 5.9008,0.28161 7.17187,-0.11627 z m -2.00934,-0.43023 c 1.45907,-0.48715 2.89223,-0.67638 2.55294,-0.33709 -0.19888,0.19887 -2.97731,0.83586 -3.61127,0.82792 -0.21829,-0.003 0.25796,-0.2236 1.05833,-0.49083 z m -2.75722,9.5e-4 c 1.34371,-0.49562 4.34433,-1.2518 4.34135,-1.09406 -0.005,0.25217 -4.31091,1.57395 -4.60593,1.41381 -0.13402,-0.0727 -0.015,-0.21664 0.26458,-0.31975 z m -2.27348,-1.24674 c -0.002,-0.69122 -0.071,-1.50792 -0.15342,-1.81489 -0.1303,-0.48541 -0.006,-0.5811 0.95393,-0.73461 0.60706,-0.0971 1.53931,-0.38767 2.07166,-0.64576 1.24898,-0.60555 2.15853,-0.47347 2.15853,0.31345 0,0.32291 0.22189,1.02234 0.49309,1.55428 l 0.49309,0.96718 -1.88215,0.55795 c -1.03519,0.30687 -2.17981,0.66133 -2.54361,0.78767 -1.39983,0.48616 -1.58722,0.37012 -1.59112,-0.98527 z m -0.92243,0.99219 c -0.0899,-0.14552 -0.0374,-0.26458 0.11668,-0.26458 0.15411,0 0.2802,0.11906 0.2802,0.26458 0,0.14552 -0.0525,0.26458 -0.11668,0.26458 -0.0642,0 -0.19026,-0.11906 -0.2802,-0.26458 z m 7.14011,-2.11667 c -0.7167,-1.10908 -1.02534,-2.2864 -0.65879,-2.51294 0.14635,-0.0905 0.26556,0.0922 0.26556,0.40682 0,0.91029 0.79273,2.33395 1.63262,2.932 0.67779,0.48263 0.87173,0.51025 1.56542,0.22291 1.5471,-0.64083 1.98905,-2.01793 0.98917,-3.08226 -0.31641,-0.3368 -0.44222,-0.61236 -0.27958,-0.61236 0.41975,0 1.11945,1.07493 1.11945,1.71979 0,0.73439 -0.68332,1.66041 -1.66636,2.25824 -0.76914,0.46774 -0.85095,0.46997 -1.58997,0.0435 -0.42851,-0.2473 -1.0484,-0.86635 -1.37752,-1.37568 z m -7.93386,1.44566 c 0.43657,-0.1999 0.97235,-0.35916 1.19063,-0.3539 0.21828,0.005 0.0397,0.17311 -0.39688,0.37301 -0.43656,0.19989 -0.97234,0.35915 -1.19062,0.35389 -0.21828,-0.005 -0.0397,-0.17311 0.39687,-0.373 z m 8.89095,-1.58716 c -0.67871,-0.773 -0.82115,-1.15938 -0.82115,-2.22731 0,-1.41883 0.18908,-2.1291 0.56678,-2.1291 0.1413,0 0.12928,0.21731 -0.0283,0.51177 -0.15064,0.28147 -0.27389,1.00986 -0.27389,1.61863 0,0.93296 0.16137,1.26823 1.0272,2.13406 0.56496,0.56496 0.87496,1.0272 0.68887,1.0272 -0.18609,0 -0.70786,-0.42086 -1.1595,-0.93525 z m 0.74599,-0.36731 c -0.62656,-0.62656 -0.77339,-1.00035 -0.77339,-1.96876 0,-0.65745 0.10419,-1.25976 0.23154,-1.33846 0.12734,-0.0787 0.17241,0.38146 0.10015,1.0226 -0.13612,1.20762 0.25611,1.84521 1.66823,2.71173 0.48086,0.29507 0.48279,0.31616 0.0302,0.33073 -0.26585,0.009 -0.8314,-0.33247 -1.25677,-0.75784 z m 0.63272,-0.59564 c -0.61968,-0.58216 -0.88699,-2.33513 -0.35609,-2.33513 0.14096,0 0.18765,0.17886 0.10376,0.39747 -0.29985,0.78139 0.17187,1.74567 1.03825,2.12236 0.59013,0.25659 0.69383,0.37305 0.33856,0.38023 -0.28166,0.006 -0.78768,-0.24852 -1.12448,-0.56493 z m 0.97514,-0.51428 c 0,-0.14552 0.11906,-0.191 0.26458,-0.10106 0.14552,0.0899 0.26458,0.28258 0.26458,0.42811 0,0.14552 -0.11906,0.19099 -0.26458,0.10106 -0.14552,-0.0899 -0.26458,-0.28259 -0.26458,-0.42811 z m 2.64986,-0.82866 c -1.1129,-1.22334 -0.9824,-1.48013 0.21729,-0.42757 0.55829,0.48982 0.96798,0.97988 0.91043,1.08903 -0.16988,0.32213 -0.30507,0.24283 -1.12772,-0.66146 z m -15.5483,0.17172 c -0.66756,-0.42876 -0.7561,-0.89506 -0.26459,-1.39339 0.26498,-0.26864 0.23949,-0.40273 -0.12817,-0.67439 -0.47736,-0.3527 -0.37674,-0.71532 0.15404,-0.55521 1.22542,0.36965 1.76007,0.38538 1.76007,0.0518 0,-0.23059 -0.34797,-0.37212 -0.97265,-0.39561 -1.13939,-0.0428 -1.49394,-0.31266 -1.24912,-0.95066 0.12369,-0.32233 0.35652,-0.4157 0.77484,-0.3107 0.64972,0.16307 1.01515,-0.34285 0.74886,-1.03677 -0.2148,-0.55978 -0.69217,-0.49665 -0.51301,0.0678 0.12846,0.40474 -0.006,0.45253 -1.0405,0.37023 -0.6534,-0.052 -1.188,-0.16707 -1.188,-0.25579 0,-0.0887 0.32742,-1.08969 0.7276,-2.22438 0.79938,-2.2666 1.05604,-2.471 2.74454,-2.18573 1.10666,0.18696 2.87786,1.49067 2.87786,2.11827 0,0.55493 1.23956,1.87854 2.08861,2.23023 l 0.77641,0.3216 -0.53259,0.53259 c -0.44352,0.44351 -0.50358,0.73843 -0.35911,1.76324 0.0954,0.67686 0.22674,1.41531 0.29182,1.641 0.11676,0.4049 -1.41489,1.10711 -3.05889,1.40241 -1.02551,0.1842 -2.97877,-0.0931 -3.63802,-0.51656 z m 3.175,-7.17425 c 0.40018,-0.0606 0.7276,-0.21863 0.7276,-0.35114 0,-0.43914 -1.17509,-1.01187 -2.24896,-1.09612 -0.93176,-0.0731 -1.04823,-0.0197 -0.97389,0.44614 0.0464,0.29104 0.27756,0.678 0.51359,0.8599 0.43025,0.33157 0.63077,0.34586 1.98166,0.14122 z m -1.30522,-0.91844 c 0.0845,-0.21106 0.14715,-0.14837 0.15985,0.15986 0.0115,0.27891 -0.0511,0.43518 -0.13896,0.34726 -0.0879,-0.0879 -0.0973,-0.31612 -0.0209,-0.50712 z m 10.23491,7.98711 c 0,-0.29104 0.10791,-0.52916 0.23981,-0.52916 0.1319,0 0.17754,0.23812 0.10143,0.52916 -0.0761,0.29104 -0.18402,0.52917 -0.23981,0.52917 -0.0558,0 -0.10143,-0.23813 -0.10143,-0.52917 z m 3.175,-1.90774 c 0,-0.11904 0.47625,0.0987 1.05833,0.48394 1.06282,0.70334 1.21246,0.9169 0.87729,1.25207 -0.19271,0.19271 -1.93562,-1.37045 -1.93562,-1.73601 z m -8.15625,0.63641 c -0.11854,-0.83621 0.43289,-1.41723 1.25443,-1.32173 0.48454,0.0563 0.70951,0.25879 0.77118,0.69408 0.14982,1.05751 -0.13862,1.41105 -1.07744,1.32057 -0.66774,-0.0644 -0.88118,-0.22033 -0.94817,-0.69292 z m 1.71057,0.0807 c 0.2096,-0.54621 -0.0746,-1.19063 -0.52508,-1.19063 -0.52966,0 -1.05407,0.71372 -0.87236,1.18726 0.19836,0.51691 1.19944,0.51932 1.39744,0.003 z m -0.96266,-0.39688 c 0,-0.14552 0.11906,-0.26458 0.26459,-0.26458 0.14552,0 0.26458,0.11906 0.26458,0.26458 0,0.14552 -0.11906,0.26459 -0.26458,0.26459 -0.14553,0 -0.26459,-0.11907 -0.26459,-0.26459 z m 2.15024,-1.45521 c -0.68571,-0.7276 -2.42721,-2.98979 -3.86999,-5.02708 -1.44278,-2.03729 -3.21311,-4.27033 -3.93406,-4.96231 -0.72094,-0.69197 -1.23653,-1.33242 -1.14574,-1.4232 0.30639,-0.30639 2.96016,2.7382 5.48301,6.29047 1.37894,1.94161 3.40014,4.4158 4.49154,5.4982 1.40275,1.39116 1.7261,1.81834 1.10319,1.45741 -0.48466,-0.28081 -1.44223,-1.10588 -2.12795,-1.83349 z m 6.52,1.22224 c -1.1636,-0.8811 -1.05252,-1.27724 0.15216,-0.54267 0.89775,0.54741 1.23177,0.63056 1.23177,0.30664 0,-0.11243 -0.41672,-0.42883 -0.92604,-0.70312 -1.32738,-0.71484 -1.14741,-1.06693 0.19843,-0.38823 0.61847,0.31188 1.15871,0.59657 1.20054,0.63264 0.12282,0.10591 -0.54283,1.45759 -0.71384,1.44952 -0.0858,-0.004 -0.60014,-0.3437 -1.14302,-0.75478 z m -5.28309,-1.28838 c -0.88036,-0.83675 -2.61275,-2.95011 -3.84975,-4.69636 -1.237,-1.74625 -2.49316,-3.44289 -2.79145,-3.77031 -0.2983,-0.32742 -0.40254,-0.59531 -0.23165,-0.59531 0.17089,0 0.3107,-0.1318 0.3107,-0.29289 0,-0.16109 -0.16367,-0.23009 -0.36371,-0.15332 -0.20362,0.0781 -0.80955,-0.317 -1.37661,-0.89774 -0.5571,-0.57051 -0.86968,-1.0373 -0.69462,-1.0373 0.17505,0 0.32256,-0.20836 0.32779,-0.46302 0.0143,-0.69556 0.9648,0.51669 3.88983,4.96094 3.14315,4.77568 4.63352,6.68749 5.99221,7.68668 0.58334,0.42899 0.90925,0.77998 0.72426,0.77998 -0.18499,0 -1.05664,-0.68461 -1.937,-1.52135 z m -7.131,-10.10708 c -0.1137,-0.34109 -0.4766,-0.40236 -0.50933,-0.086 -0.0109,0.1055 0.12304,0.23944 0.29766,0.29765 0.17463,0.0582 0.26988,-0.037 0.21167,-0.21166 z m -0.75406,-0.80697 c 0,-0.14552 -0.11907,-0.26459 -0.26459,-0.26459 -0.14552,0 -0.26458,0.11907 -0.26458,0.26459 0,0.14552 0.11906,0.26458 0.26458,0.26458 0.14552,0 0.26459,-0.11906 0.26459,-0.26458 z m 8.02647,9.99121 c -0.74455,-0.78725 -2.61825,-3.36581 -4.16378,-5.73014 -1.54553,-2.36433 -3.42136,-4.94514 -4.16851,-5.73513 -0.74714,-0.79 -1.23314,-1.43636 -1.08,-1.43636 0.54926,0 2.76004,2.77931 5.5124,6.92997 1.54045,2.32306 3.59364,5.06657 4.56264,6.0967 0.969,1.03012 1.52088,1.74546 1.22639,1.58963 -0.29448,-0.15582 -1.14459,-0.92743 -1.88914,-1.71467 z m 3.92408,0.28703 c 0.51292,-0.96646 0.61093,-1.55149 0.61377,-3.66366 0.003,-2.17019 -0.0923,-2.71767 -0.69722,-4.0079 -1.44466,-3.08137 -4.31645,-4.99876 -7.70816,-5.14646 -2.41993,-0.10538 -2.64009,-0.37239 -0.30044,-0.36436 3.14378,0.0108 6.09822,1.6013 7.74687,4.1705 1.08579,1.69205 1.73044,4.26694 1.5189,6.06682 -0.2234,1.90078 -1.29071,4.58858 -1.67106,4.20822 -0.0622,-0.0622 0.16163,-0.63059 0.49734,-1.26316 z m -2.33274,0.12408 c 0.16845,-0.16845 1.49469,0.21325 1.49469,0.43018 0,0.45127 -0.36843,0.48874 -0.96463,0.0981 -0.35166,-0.23042 -0.59019,-0.46814 -0.53006,-0.52827 z m -5.9031,-0.22858 c 0.17536,-0.21129 0.57214,-0.37661 0.88174,-0.36739 0.53741,0.016 0.53481,0.028 -0.0573,0.26529 -0.34114,0.13668 -0.69352,0.51609 -0.78305,0.84312 -0.13681,0.49976 -0.17852,0.51872 -0.26147,0.11888 -0.0543,-0.26165 0.0448,-0.64861 0.22013,-0.8599 z m 9.24987,-0.32161 c -0.12581,-0.13028 0.92376,0.0693 1.91823,0.36472 0.25466,0.0756 0.46302,0.0293 0.46302,-0.10298 0,-0.13229 -0.47625,-0.38322 -1.05833,-0.55761 -0.58209,-0.1744 -1.05834,-0.4394 -1.05834,-0.58888 0,-0.14949 0.20836,-0.21313 0.46302,-0.14142 0.25466,0.0717 0.84998,0.20824 1.32292,0.30343 0.9388,0.18895 0.98637,0.2931 0.59908,1.31173 l -0.26081,0.68598 -1.12825,-0.56899 c -0.62054,-0.31295 -1.18778,-0.63064 -1.26054,-0.70598 z m -7.67292,0.99578 c 0,-0.14552 0.12609,-0.26458 0.2802,-0.26458 0.15411,0 0.20661,0.11906 0.11668,0.26458 -0.0899,0.14552 -0.21603,0.26459 -0.2802,0.26459 -0.0642,0 -0.11668,-0.11907 -0.11668,-0.26459 z m -0.98667,-0.15985 c 0.0879,-0.0879 0.31612,-0.0973 0.50711,-0.0209 0.21107,0.0845 0.14838,0.14716 -0.15985,0.15985 -0.27891,0.0115 -0.43518,-0.051 -0.34726,-0.13896 z m 7.183,-1.89134 c 0.30526,-0.30526 0.46187,0.17282 0.2537,0.77448 l -0.21287,0.61525 -0.0973,-0.61803 c -0.0535,-0.33991 -0.0281,-0.68718 0.0564,-0.7717 z m -1.68842,0.4895 c 0.50383,-0.42237 0.97558,-0.70989 1.04834,-0.63895 0.17894,0.17447 -1.2738,1.40689 -1.6584,1.40689 -0.16829,0 0.10624,-0.34557 0.61006,-0.76794 z m -0.90948,-0.40362 c 1.66405,-0.7244 1.59205,-2.46748 -0.15157,-3.66923 -0.47385,-0.32659 -0.53504,-0.45087 -0.22196,-0.45087 0.23773,0 0.74047,0.36632 1.11721,0.81405 1.29587,1.54005 0.68983,3.70666 -1.02754,3.67351 -0.4072,-0.008 -0.33881,-0.0964 0.28386,-0.36746 z m 4.60366,-0.76281 c 0,-0.13732 0.51605,-0.16499 1.19062,-0.0638 0.77535,0.11627 1.19063,0.0806 1.19063,-0.10225 0,-0.15444 -0.32743,-0.28262 -0.72761,-0.28485 -1.35754,-0.008 -1.54406,-0.4595 -0.23268,-0.5638 l 1.22487,-0.0974 v 0.94826 0.94826 l -1.32292,-0.271 c -0.7276,-0.14905 -1.32291,-0.38007 -1.32291,-0.51337 z m -10.5608,0.22624 c -0.8555,-0.4424 -1.61826,-1.86141 -1.59218,-2.96206 0.0137,-0.57779 0.10006,-0.44748 0.36998,0.55816 0.32916,1.2264 0.6635,1.65719 1.8959,2.44283 0.70347,0.44846 0.21413,0.42018 -0.6737,-0.0389 z m 8.72731,-1.01946 c -0.0102,-0.11773 0.10046,-0.14047 0.24599,-0.0505 0.14552,0.0899 0.25621,0.42438 0.24598,0.74322 -0.0179,0.55889 -0.0268,0.56071 -0.24598,0.0505 -0.12507,-0.29104 -0.23576,-0.62549 -0.24599,-0.74322 z m -4.24908,0.74665 c -0.41986,-0.5059 -0.12461,-1.72322 0.41796,-1.72322 0.36431,0 0.3624,0.0483 -0.0169,0.42758 -0.49042,0.49043 -0.42993,0.87012 0.20214,1.26882 0.33406,0.21072 0.55213,0.16917 0.89107,-0.16976 0.60645,-0.60645 0.15506,-1.60111 -0.94824,-2.08947 -0.44743,-0.19806 -0.81351,-0.4501 -0.81351,-0.56009 0,-0.34612 0.42079,-0.22023 1.34993,0.40386 1.42881,0.95971 1.32342,2.83572 -0.15931,2.83572 -0.32816,0 -0.7436,-0.17704 -0.92319,-0.39344 z m 3.43673,-0.73576 c 0,-0.90529 -1.11791,-2.83955 -1.64113,-2.83955 -0.16453,0 -0.21853,-0.0806 -0.12,-0.17915 0.31513,-0.31512 1.75513,1.30605 2.02591,2.28078 0.33214,1.19559 0.33209,1.60254 -1.9e-4,1.60254 -0.14553,0 -0.26459,-0.38908 -0.26459,-0.86462 z m -2.84978,0.0213 c 0.16353,-0.4906 0.73312,-0.57197 0.73312,-0.10473 0,0.23041 -0.18852,0.41892 -0.41893,0.41892 -0.23041,0 -0.37179,-0.14138 -0.31419,-0.31419 z m -5.87342,-1.35421 c 0.004,-0.17378 0.14015,-0.0778 0.30162,0.21319 0.16146,0.29105 0.42573,0.7136 0.58727,0.93901 0.16153,0.22542 0.0258,0.12948 -0.30163,-0.21319 -0.32742,-0.34267 -0.59169,-0.76522 -0.58726,-0.93901 z m 4.51059,0.30677 c 0.3556,-0.66445 0.53856,-0.53047 0.33558,0.24573 -0.0835,0.31943 -0.25773,0.51537 -0.3871,0.43541 -0.13236,-0.0818 -0.10984,-0.37964 0.0515,-0.68114 z m 4.97261,0.10486 c -0.3291,-0.41964 -0.31975,-0.429 0.0999,-0.0999 0.25466,0.19972 0.46302,0.40808 0.46302,0.46302 0,0.21776 -0.21727,0.0776 -0.56291,-0.36313 z m 2.15042,-0.0662 c 0,-0.14552 0.47625,-0.26459 1.05833,-0.26459 0.58209,0 1.05834,-0.12816 1.05834,-0.28481 0,-0.16812 -0.42901,-0.25384 -1.04707,-0.20922 -0.57588,0.0416 -1.12064,0.002 -1.21056,-0.0879 -0.17208,-0.17208 0.24247,-0.3242 1.66231,-0.60996 0.84222,-0.16951 0.8599,-0.1536 0.8599,0.774 0,0.94605 -0.001,0.94706 -1.19063,0.94706 -0.65484,0 -1.19062,-0.11906 -1.19062,-0.26458 z m -2.00372,-0.97104 c 0.0933,-0.24303 0.0202,-0.53421 -0.16247,-0.64707 -0.18262,-0.11286 -0.2725,-0.26474 -0.19974,-0.3375 0.0728,-0.0728 0.29042,-0.0346 0.48368,0.0849 0.32768,0.20252 0.2018,1.34156 -0.14826,1.34156 -0.0785,0 -0.0665,-0.19884 0.0268,-0.44187 z m -11.61553,-0.60332 c -0.22202,-0.42934 -0.39148,-1.11395 -0.37658,-1.52136 l 0.0271,-0.74074 0.19155,0.79375 c 0.10536,0.43656 0.33129,1.05381 0.50208,1.37167 0.33203,0.61793 0.38673,0.87729 0.18504,0.87729 -0.069,0 -0.30715,-0.35128 -0.52917,-0.78061 z m 5.15258,0.25144 c 0,-0.14552 0.26789,-0.26276 0.59531,-0.26053 0.4814,0.003 0.51937,0.0531 0.19844,0.26053 -0.51296,0.3315 -0.79375,0.3315 -0.79375,0 z m 8.3218,-0.50881 c 0.083,-0.13433 0.50539,-0.32208 0.93862,-0.41723 0.84668,-0.18596 1.34578,-0.66146 0.6943,-0.66146 -0.2174,0 -0.71719,0.12239 -1.11065,0.27199 -1.17031,0.44495 -1.02192,0.10231 0.26789,-0.61858 l 1.20201,-0.67182 0.22714,0.83993 c 0.27248,1.00761 0.28949,0.98137 -0.80424,1.2404 -1.23667,0.29288 -1.5883,0.29705 -1.41507,0.0168 z m -3.29471,0.012 c 0,-0.1277 0.16922,-0.37263 0.37605,-0.54429 0.30858,-0.25609 0.35052,-0.21442 0.23373,0.23219 -0.13907,0.5318 -0.60978,0.77272 -0.60978,0.3121 z m -9.78959,-0.59279 c 0,-0.14552 0.11906,-0.191 0.26459,-0.10107 0.14552,0.0899 0.26458,0.28259 0.26458,0.42811 0,0.14552 -0.11906,0.191 -0.26458,0.10106 -0.14553,-0.0899 -0.26459,-0.28258 -0.26459,-0.4281 z m -3.71387,0.1666 c -0.45614,0.14477 -0.45835,0.0902 -0.0482,-1.19223 l 0.42978,-1.34395 0.36898,0.73738 c 0.20294,0.40556 0.74435,1.05784 1.20314,1.44952 l 0.83416,0.71213 -1.15491,-0.25728 c -0.6352,-0.14151 -1.37002,-0.18901 -1.63292,-0.10557 z m 8.0795,-0.13537 c 0.0899,-0.14552 1.07923,-0.26276 2.19842,-0.26054 1.41153,0.003 1.91333,0.0826 1.63804,0.26054 -0.53723,0.34718 -4.05103,0.34718 -3.83646,0 z m 6.48229,-0.11668 c 0,-0.0642 0.11906,-0.19026 0.26458,-0.2802 0.14552,-0.0899 0.26459,-0.0374 0.26459,0.11668 0,0.15411 -0.11907,0.2802 -0.26459,0.2802 -0.14552,0 -0.26458,-0.0525 -0.26458,-0.11668 z m -1.07754,-0.58046 c 0.30161,-0.38343 0.5502,-0.88945 0.55242,-1.12448 0.004,-0.36676 0.039,-0.37206 0.25062,-0.0375 0.13561,0.21444 0.15161,0.45257 0.0356,0.52917 -0.11605,0.0766 -0.35208,0.40716 -0.52451,0.73458 -0.17242,0.32743 -0.43702,0.59532 -0.58798,0.59532 -0.15096,0 -0.0277,-0.31372 0.27389,-0.69714 z m -5.65671,-0.0851 c 0.68925,-0.27923 5.41164,-0.47147 5.41147,-0.22029 -8e-5,0.10347 -1.04193,0.22782 -2.31524,0.27632 -1.27331,0.0485 -2.61276,0.10512 -2.97656,0.12582 -0.60005,0.0341 -0.61116,0.0173 -0.11967,-0.18185 z m -6.73564,-1.81225 c 0.0235,-0.70152 0.0277,-0.69971 0.26353,0.11378 0.13181,0.45464 0.41873,0.97523 0.63759,1.15687 0.21887,0.18164 0.39417,0.46451 0.38957,0.62859 -0.005,0.16408 -0.30225,-0.0357 -0.66145,-0.44403 -0.37393,-0.42503 -0.6429,-1.04707 -0.62924,-1.45521 z m 15.05739,1.59628 c 0,-0.11243 0.41672,-0.42883 0.92604,-0.70312 0.50932,-0.27429 0.92604,-0.59902 0.92604,-0.72163 0,-0.32189 -0.12788,-0.28573 -1.1755,0.33238 -1.22449,0.72247 -1.21015,0.3208 0.0237,-0.66369 0.92178,-0.73549 0.98082,-0.74799 1.32291,-0.28016 0.56489,0.77254 0.4305,1.13142 -0.63412,1.69346 -1.09265,0.57682 -1.38906,0.64997 -1.38906,0.34276 z m -8.73125,-0.59953 c 0.3638,-0.1109 1.61396,-0.21424 2.77812,-0.22964 1.27169,-0.0168 2.40713,-0.17953 2.84427,-0.40756 0.40019,-0.20876 0.72761,-0.28767 0.72761,-0.17537 0,0.3103 -1.09313,0.79483 -1.98438,0.87958 -1.83808,0.17478 -4.99961,0.12626 -4.36562,-0.067 z m -5.55625,-0.5502 c 0,-0.14552 0.11906,-0.191 0.26458,-0.10106 0.14552,0.0899 0.26459,0.28258 0.26459,0.4281 0,0.14552 -0.11907,0.191 -0.26459,0.10106 -0.14552,-0.0899 -0.26458,-0.28258 -0.26458,-0.4281 z m 4.23333,-0.82423 c 0,-0.49108 0.0336,-0.48461 0.50472,0.0972 0.2776,0.34282 0.44559,0.71898 0.37332,0.83591 -0.21325,0.34504 -0.87804,-0.36146 -0.87804,-0.93313 z m 10.18646,-0.46746 c 1.18884,-1.21747 0.94328,-1.44405 -0.301,-0.27773 -0.4566,0.42799 -0.89735,0.71098 -0.97945,0.62888 -0.1626,-0.1626 1.39055,-2.20323 1.6769,-2.20323 0.0966,0 0.341,0.30908 0.54318,0.68684 0.34778,0.64984 0.31811,0.72786 -0.55061,1.44809 -1.34527,1.11533 -1.58448,0.94141 -0.38902,-0.28285 z m -5.68854,0.81768 c 0.65484,-0.0935 1.33945,-0.26318 1.52135,-0.37713 0.21176,-0.13266 0.33073,-0.0588 0.33073,0.2053 0,0.32987 -0.30471,0.40541 -1.52135,0.37713 l -1.52136,-0.0354 z m -2.3307,-0.61924 c -0.13888,-0.52113 -0.12654,-1.09134 0.0313,-1.44737 0.1898,-0.42804 0.16018,-0.709 -0.10913,-1.03522 -0.31934,-0.38682 -0.31564,-0.43011 0.0272,-0.31816 0.21828,0.0713 0.43392,0.44129 0.47919,0.82227 0.0601,0.50595 0.19469,0.64957 0.49913,0.53275 0.28276,-0.10851 0.37509,-0.04 0.2871,0.21294 -0.0713,0.20509 -0.3257,0.33791 -0.56527,0.29515 -0.31059,-0.0554 -0.43557,0.11537 -0.43557,0.59531 0,0.43321 0.147,0.67306 0.41249,0.67306 0.22687,0 0.33891,0.11906 0.24897,0.26458 -0.30677,0.49637 -0.64604,0.26568 -0.87549,-0.59531 z m -1.10888,-0.0985 c 0,-0.20047 0.11906,-0.36448 0.26458,-0.36448 0.14552,0 0.26458,0.10932 0.26458,0.24294 0,0.13362 0.0818,0.46104 0.18183,0.72761 0.16006,0.42664 0.12839,0.44119 -0.26458,0.12153 -0.24553,-0.19972 -0.44641,-0.52714 -0.44641,-0.7276 z m 5.68532,-0.0526 c 0.21024,-0.21024 0.66515,0.26703 0.50363,0.52838 -0.10987,0.17777 -0.24622,0.1507 -0.38681,-0.0768 -0.11942,-0.19322 -0.17199,-0.39645 -0.11682,-0.45161 z m -2.24574,0.0248 c 0.3638,-0.0662 0.86231,-0.29979 1.10781,-0.51905 0.24549,-0.21927 0.58899,-0.31051 0.76335,-0.20276 0.46435,0.28699 -0.76556,0.90154 -1.73887,0.86885 -0.71281,-0.0239 -0.7263,-0.0389 -0.13229,-0.14704 z m -1.32292,-0.26499 c 0.60231,-0.22928 0.81444,-0.66774 0.65349,-1.35067 -0.092,-0.39036 -0.0443,-0.55493 0.12966,-0.44741 0.70859,0.43794 0.0927,2.01398 -0.76992,1.97004 -0.3561,-0.0181 -0.35784,-0.0408 -0.0132,-0.17196 z m -4.52167,-0.90987 c -0.17386,-0.32486 -0.1691,-0.48478 0.0144,-0.48478 0.15064,0 0.27389,0.1786 0.27389,0.39688 0,0.21828 0.11907,0.39687 0.26459,0.39687 0.14552,0 0.26458,-0.12609 0.26458,-0.2802 0,-0.1541 0.10789,-0.21352 0.23974,-0.13202 0.13186,0.0815 0.17685,0.38868 0.1,0.68265 -0.11248,0.43015 -0.21374,0.47308 -0.51877,0.21993 -0.20845,-0.173 -0.49575,-0.5327 -0.63845,-0.79933 z m 10.34251,-0.48478 c 0.44384,-0.5604 0.69512,-1.08806 0.55838,-1.17256 -0.13673,-0.0845 -0.50661,0.26381 -0.82195,0.77404 -0.88928,1.43888 -1.18237,1.09304 -0.35772,-0.42211 l 0.73465,-1.3498 0.61325,0.71294 0.61324,0.71295 -0.86836,0.99047 c -1.1286,1.28729 -1.52293,1.08162 -0.47149,-0.24593 z m -4.21129,0.98347 c 0.0606,-0.0412 0.34837,-0.24954 0.63941,-0.46302 0.48948,-0.35904 0.50193,-0.35343 0.16604,0.0749 -0.19972,0.25466 -0.48745,0.46302 -0.63941,0.46302 -0.15195,0 -0.22667,-0.0337 -0.16604,-0.0749 z m -4.14249,-0.71888 c -0.20761,0 -0.37747,-0.11427 -0.37747,-0.25394 0,-0.13966 0.35695,-0.22896 0.79322,-0.19843 0.7098,0.0497 1.18134,0.45237 0.52969,0.45237 -0.14552,0 -0.27839,0.20836 -0.29527,0.46302 -0.0292,0.44097 -0.0365,0.44097 -0.1517,0 -0.0666,-0.25466 -0.29086,-0.46302 -0.49847,-0.46302 z m -5.47248,-0.33073 c 0.1438,-0.1819 0.31727,-0.50933 0.38549,-0.72761 0.0761,-0.24343 0.17792,-0.11557 0.26342,0.33073 0.11418,0.59608 0.0445,0.72761 -0.38549,0.72761 -0.38295,0 -0.45418,-0.0894 -0.26342,-0.33073 z m 12.48729,-1.35152 c 0.29766,-0.69443 0.40628,-1.22807 0.24995,-1.22807 -0.15206,0 -0.46355,0.47625 -0.6922,1.05833 -0.22864,0.58209 -0.52475,1.05834 -0.658,1.05834 -0.23782,0 -0.17509,-0.29609 0.44115,-2.08212 l 0.3076,-0.89149 0.70332,0.62691 0.70332,0.6269 -0.6851,1.13532 c -0.86932,1.44058 -1.05315,1.2895 -0.37004,-0.30412 z m -9.55898,0.85744 c 0.10028,-0.0899 0.56927,-0.23575 1.04222,-0.32412 0.63114,-0.11792 0.85989,-0.0639 0.85989,0.20317 0,0.25386 -0.31501,0.35182 -1.04222,0.32411 -0.57322,-0.0218 -0.96017,-0.11326 -0.85989,-0.20316 z m 2.43128,-0.39403 c 0,-0.0572 0.17859,-0.10398 0.39687,-0.10398 0.21829,0 0.39688,0.11533 0.39688,0.25628 0,0.14095 -0.17859,0.18775 -0.39688,0.10398 -0.21828,-0.0838 -0.39687,-0.19908 -0.39687,-0.25628 z m 5.42396,-1.4269 c 0.19194,-0.7276 0.2424,-1.32291 0.11215,-1.32291 -0.13025,0 -0.37289,0.54034 -0.53918,1.20076 -0.40088,1.59202 -0.60865,1.30537 -0.38004,-0.52434 l 0.18297,-1.46444 0.75233,0.38904 0.75233,0.38905 -0.42464,1.32788 c -0.5508,1.72241 -0.91001,1.72632 -0.45592,0.005 z m -1.76145,-0.92568 c 0.058,-0.93149 -0.0135,-1.45557 -0.19844,-1.45557 -0.1705,0 -0.28907,0.54266 -0.28907,1.32292 0,0.7276 -0.11906,1.32292 -0.26458,1.32292 -0.14553,0 -0.26459,-0.65485 -0.26459,-1.45521 0,-1.21107 0.0777,-1.45453 0.46302,-1.45116 0.98234,0.009 1.19252,0.39148 0.99665,1.8156 -0.24818,1.80449 -0.55723,1.73507 -0.44299,-0.0995 z m -7.02043,0.0658 c -0.88724,-1.46786 -0.87163,-1.62738 0.18292,-1.86946 0.59529,-0.13665 0.72463,-0.007 1.29296,1.29667 0.82825,1.89981 0.53455,2.1515 -0.39036,0.33451 -0.39626,-0.77845 -0.7684,-1.27543 -0.82699,-1.1044 -0.0586,0.17103 0.13855,0.79136 0.43809,1.37852 0.59706,1.17033 0.64353,1.35322 0.34382,1.35322 -0.11045,0 -0.57865,-0.62508 -1.04044,-1.38906 z m 5.02113,-0.43744 c -0.0809,-0.60325 -0.26784,-1.17143 -0.41538,-1.26262 -0.17722,-0.10952 -0.20415,0.31761 -0.0793,1.25843 0.10391,0.78332 0.1141,1.3494 0.0227,1.25795 -0.19963,-0.19962 -0.94137,-2.94023 -0.82679,-3.05481 0.0442,-0.0442 0.45649,-0.005 0.91629,0.0869 0.78251,0.1565 0.83601,0.2399 0.83601,1.30311 0,0.62476 0.0771,1.35401 0.17124,1.62058 0.13175,0.3729 0.0964,0.41578 -0.15317,0.18597 -0.17843,-0.16428 -0.39061,-0.79227 -0.47152,-1.39552 z m -1.92779,-0.0256 c -0.17455,-0.72761 -0.42455,-1.32292 -0.55556,-1.32292 -0.32853,0 -0.30053,0.28597 0.1542,1.57479 0.54144,1.53461 -0.0262,1.26074 -0.7229,-0.34879 -0.46484,-1.07384 -0.49242,-1.30991 -0.17638,-1.50995 0.85925,-0.54389 1.25807,-0.26246 1.67874,1.18457 0.48469,1.66728 0.49261,1.74521 0.17745,1.74521 -0.131,0 -0.38101,-0.59531 -0.55555,-1.32291 z"
       id="path2"
       sodipodi:nodetypes="sssssscsssscsssssssssssssssssssscssscssssssscssssssssscssssssssssscscssssssssssssssscssssscsscsssssssssssscsssssssssscssssssssssssssssssssssscssssscscssccssssssssssssssssssscsssssscsssssssssssssssssssssssssssssssssssssssssssssscsssssscsssssssscssssscsssssssssscsscscscccsssssssssscsssssssssssssssscsssssssscssssssssssssssssscssssssccssssscssssssccsssssscssssssssssscssscsscsssccsscssscssssscccssccsssssssssssssssssssssscscscssccssssssscsscccssscssscsssssssssscsscccsscccssccssssssssssssscccssssssssscsssssssssssssscccssssscsssscssssscccsssssssscsssscsssssssssccsssssssssssss" /><text
       xml:space="preserve"
       style="font-style:normal;font-variant:normal;font-weight:normal;font-stretch:normal;font-size:9.87777px;font-family:Calibri;-inkscape-font-specification:Calibri;word-spacing:0px;fill:#000000;fill-opacity:1;stroke:#000000;stroke-width:0.264583;stroke-opacity:1"
       x="-104.32742"
       y="135.25853"
       id="text5"
       transform="scale(-1,1)"><tspan
         sodipodi:role="line"
         id="tspan5"
         style="word-spacing:0px;fill:#000000;fill-opacity:1;stroke:#000000;stroke-width:0.264583;stroke-opacity:1"
         x="-104.32742"
         y="135.25853"
         dy="4.4000001">Technische</tspan><tspan
         sodipodi:role="line"
         style="word-spacing:0px;fill:#000000;fill-opacity:1;stroke:#000000;stroke-width:0.264583;stroke-opacity:1"
         x="-104.32742"
         y="147.60574"
         id="tspan6">Universität</tspan><tspan
         sodipodi:role="line"
         style="word-spacing:0px;fill:#000000;fill-opacity:1;stroke:#000000;stroke-width:0.264583;stroke-opacity:1"
         x="-104.32742"
         y="159.95296"
         id="tspan7"
         dy="-4.4000001 0 0 0 0 0 0">Darmstadt</tspan></text></g></svg>
